<?xml version="1.0" encoding="UTF-8" standalone="no"?>
<!DOCTYPE svg PUBLIC "-//W3C//DTD SVG 1.1//EN"
 "http://www.w3.org/Graphics/SVG/1.1/DTD/svg11.dtd">
<!-- Generated by graphviz version 8.0.3 (20230416.2022)
 -->
<!-- Title: cdo_release_flow Pages: 1 -->
<svg width="1668pt" height="1226pt"
 viewBox="0.00 0.00 1668.00 1226.00" xmlns="http://www.w3.org/2000/svg" xmlns:xlink="http://www.w3.org/1999/xlink">
<g id="graph0" class="graph" transform="scale(1 1) rotate(0) translate(4 1222)">
<title>cdo_release_flow</title>
<polygon fill="white" stroke="none" points="-4,4 -4,-1222 1664,-1222 1664,4 -4,4"/>
<text text-anchor="middle" x="830" y="-38.8" font-family="Times,serif" font-size="14.00">Release flow of CDO ontologies</text>
<text text-anchor="middle" x="830" y="-7.8" font-family="Times,serif" font-size="14.00">Nodes link to the respective Git repository.</text>
<g id="clust1" class="cluster">
<title>cluster_uco_0_9_1</title>
<polygon fill="none" stroke="black" points="0,-139 0,-255 168,-255 168,-139 0,-139"/>
<text text-anchor="middle" x="84" y="-239.8" font-family="Times,serif" font-size="14.00">Adoption of UCO 0.9.1</text>
</g>
<g id="clust2" class="cluster">
<title>cluster_case_0_7_1</title>
<polygon fill="none" stroke="black" points="8,-147 8,-224 160,-224 160,-147 8,-147"/>
<text text-anchor="middle" x="84" y="-208.8" font-family="Times,serif" font-size="14.00">Adoption of CASE 0.7.1</text>
</g>
<g id="clust3" class="cluster">
<title>cluster_uco_1_1_0</title>
<polygon fill="none" stroke="black" points="995,-100 995,-294 1283,-294 1283,-100 995,-100"/>
<text text-anchor="middle" x="1139" y="-278.8" font-family="Times,serif" font-size="14.00">Adoption of UCO 1.1.0</text>
</g>
<g id="clust4" class="cluster">
<title>cluster_case_1_1_0</title>
<polygon fill="none" stroke="black" points="1003,-108 1003,-263 1275,-263 1275,-108 1003,-108"/>
<text text-anchor="middle" x="1139" y="-247.8" font-family="Times,serif" font-size="14.00">Adoption of CASE 1.1.0</text>
</g>
<g id="clust5" class="cluster">
<title>cluster_case_utils_0_9_0</title>
<polygon fill="none" stroke="black" points="1011,-116 1011,-232 1267,-232 1267,-116 1011,-116"/>
<text text-anchor="middle" x="1139" y="-216.8" font-family="Times,serif" font-size="14.00">Adoption of case&#45;utils 0.9.0</text>
</g>
<g id="clust6" class="cluster">
<title>cluster_case_validation_action_2_5</title>
<polygon fill="none" stroke="black" points="1019,-124 1019,-201 1259,-201 1259,-124 1019,-124"/>
<text text-anchor="middle" x="1139" y="-185.8" font-family="Times,serif" font-size="14.00">Adoption of case&#45;validation&#45;action 2.5</text>
</g>
<g id="clust7" class="cluster">
<title>cluster_uco_1_2_0</title>
<polygon fill="none" stroke="black" points="26,-302 26,-1210 1652,-1210 1652,-302 26,-302"/>
<text text-anchor="middle" x="839" y="-1194.8" font-family="Times,serif" font-size="14.00">Adoption of UCO 1.2.0</text>
</g>
<g id="clust8" class="cluster">
<title>cluster_case_1_2_0</title>
<polygon fill="none" stroke="black" points="245.5,-366 245.5,-1133 1644,-1133 1644,-366 245.5,-366"/>
<text text-anchor="middle" x="944.75" y="-1117.8" font-family="Times,serif" font-size="14.00">Adoption of CASE 1.2.0</text>
</g>
<g id="clust9" class="cluster">
<title>cluster_case_utils_0_10_0</title>
<polygon fill="none" stroke="black" points="507,-374 507,-1056 1636,-1056 1636,-374 507,-374"/>
<text text-anchor="middle" x="1071.5" y="-1040.8" font-family="Times,serif" font-size="14.00">Adoption of case&#45;utils 0.10.0</text>
</g>
<g id="clust10" class="cluster">
<title>cluster_case_prov_0_7_0</title>
<polygon fill="none" stroke="black" points="1346,-943 1346,-1020 1628,-1020 1628,-943 1346,-943"/>
<text text-anchor="middle" x="1487" y="-1004.8" font-family="Times,serif" font-size="14.00">Adoption of case&#45;prov 0.7.0</text>
</g>
<g id="clust11" class="cluster">
<title>cluster_case_validation_action_2_6</title>
<polygon fill="none" stroke="black" points="682.5,-484 682.5,-852 1280.5,-852 1280.5,-484 682.5,-484"/>
<text text-anchor="middle" x="981.5" y="-836.8" font-family="Times,serif" font-size="14.00">Adoption of case&#45;validation&#45;action 2.6</text>
</g>
<g id="clust12" class="cluster">
<title>cluster_case_bindings_csharp_0_4_0</title>
<polygon fill="none" stroke="black" points="690.5,-744 690.5,-821 1272.5,-821 1272.5,-744 690.5,-744"/>
<text text-anchor="middle" x="981.5" y="-805.8" font-family="Times,serif" font-size="14.00">Adoption of CSharp bindings 0.4.0</text>
</g>
<!-- _GH__CASEWORK__CASE_MAPPING_TEMPLATE_STUBS -->
<g id="node1" class="node">
<title>_GH__CASEWORK__CASE_MAPPING_TEMPLATE_STUBS</title>
<g id="a_node1"><a xlink:href="https://github.com/casework/CASE-Mapping-Template-Stubs" xlink:title="CASE Mapping\nTemplate Stubs">
<path fill="#8ec7d2" stroke="#0d6986" d="M124,-193C124,-193 44,-193 44,-193 38,-193 32,-187 32,-181 32,-181 32,-167 32,-167 32,-161 38,-155 44,-155 44,-155 124,-155 124,-155 130,-155 136,-161 136,-167 136,-167 136,-181 136,-181 136,-187 130,-193 124,-193"/>
<text text-anchor="middle" x="84" y="-177.8" font-family="Times,serif" font-size="14.00">CASE Mapping</text>
<text text-anchor="middle" x="84" y="-162.8" font-family="Times,serif" font-size="14.00">Template Stubs</text>
</a>
</g>
</g>
<!-- _GH__CASEWORK__CASE_IMPLEMENTATON_PYPI_EXIFREAD -->
<g id="node2" class="node">
<title>_GH__CASEWORK__CASE_IMPLEMENTATON_PYPI_EXIFREAD</title>
<g id="a_node2"><a xlink:href="https://github.com/casework/CASE-Implementation-PyPI-Exifread" xlink:title="CASE&#45;Implementation&#45;PyPI&#45;Exifread\nadopts new case&#45;validation&#45;action">
<path fill="#8ec7d2" stroke="#0d6986" d="M1239,-170C1239,-170 1039,-170 1039,-170 1033,-170 1027,-164 1027,-158 1027,-158 1027,-144 1027,-144 1027,-138 1033,-132 1039,-132 1039,-132 1239,-132 1239,-132 1245,-132 1251,-138 1251,-144 1251,-144 1251,-158 1251,-158 1251,-164 1245,-170 1239,-170"/>
<text text-anchor="middle" x="1139" y="-154.8" font-family="Times,serif" font-size="14.00">CASE&#45;Implementation&#45;PyPI&#45;Exifread</text>
<text text-anchor="middle" x="1139" y="-139.8" font-family="Times,serif" font-size="14.00">adopts new case&#45;validation&#45;action</text>
</a>
</g>
</g>
<!-- _GH__UCOPROJECT__ONTOLOGY_UNIFIEDCYBERONTOLOGY_ORG -->
<g id="node3" class="node">
<title>_GH__UCOPROJECT__ONTOLOGY_UNIFIEDCYBERONTOLOGY_ORG</title>
<g id="a_node3"><a xlink:href="https://github.com/ucoProject/ontology.unifiedcyberontology.org" xlink:title="UCO documentation\nregenerated">
<path fill="#8ec7d2" stroke="#0d6986" d="M359.5,-1179C359.5,-1179 253.5,-1179 253.5,-1179 247.5,-1179 241.5,-1173 241.5,-1167 241.5,-1167 241.5,-1153 241.5,-1153 241.5,-1147 247.5,-1141 253.5,-1141 253.5,-1141 359.5,-1141 359.5,-1141 365.5,-1141 371.5,-1147 371.5,-1153 371.5,-1153 371.5,-1167 371.5,-1167 371.5,-1173 365.5,-1179 359.5,-1179"/>
<text text-anchor="middle" x="306.5" y="-1163.8" font-family="Times,serif" font-size="14.00">UCO documentation</text>
<text text-anchor="middle" x="306.5" y="-1148.8" font-family="Times,serif" font-size="14.00">regenerated</text>
</a>
</g>
</g>
<!-- _GH__CASEWORK__ONTOLOGY_CASEONTOLOGY_ORG -->
<g id="node8" class="node">
<title>_GH__CASEWORK__ONTOLOGY_CASEONTOLOGY_ORG</title>
<g id="a_node8"><a xlink:href="https://github.com/casework/ontology.caseontology.org" xlink:title="CASE documentation\nregenerated">
<path fill="#8ec7d2" stroke="#0d6986" d="M605,-1102C605,-1102 493,-1102 493,-1102 487,-1102 481,-1096 481,-1090 481,-1090 481,-1076 481,-1076 481,-1070 487,-1064 493,-1064 493,-1064 605,-1064 605,-1064 611,-1064 617,-1070 617,-1076 617,-1076 617,-1090 617,-1090 617,-1096 611,-1102 605,-1102"/>
<text text-anchor="middle" x="549" y="-1086.8" font-family="Times,serif" font-size="14.00">CASE documentation</text>
<text text-anchor="middle" x="549" y="-1071.8" font-family="Times,serif" font-size="14.00">regenerated</text>
</a>
</g>
</g>
<!-- _GH__UCOPROJECT__ONTOLOGY_UNIFIEDCYBERONTOLOGY_ORG&#45;&gt;_GH__CASEWORK__ONTOLOGY_CASEONTOLOGY_ORG -->
<g id="edge23" class="edge">
<title>_GH__UCOPROJECT__ONTOLOGY_UNIFIEDCYBERONTOLOGY_ORG&#45;&gt;_GH__CASEWORK__ONTOLOGY_CASEONTOLOGY_ORG</title>
<path fill="none" stroke="black" d="M368.19,-1140.57C401.37,-1129.95 442.65,-1116.73 477.28,-1105.64"/>
<polygon fill="black" stroke="black" points="477.87,-1108.81 486.33,-1102.42 475.74,-1102.14 477.87,-1108.81"/>
<text text-anchor="middle" x="427.5" y="-1150.8" font-family="Times,serif" font-size="14.00">Tech&#45;</text>
<text text-anchor="middle" x="427.5" y="-1135.8" font-family="Times,serif" font-size="14.00">check</text>
</g>
<!-- _GH__UCOPROJECT__UCO -->
<g id="node4" class="node">
<title>_GH__UCOPROJECT__UCO</title>
<g id="a_node4"><a xlink:href="https://github.com/ucoProject/UCO" xlink:title="UCO Ontology\nreleases">
<path fill="#8ec7d2" stroke="#0d6986" d="M122,-1050C122,-1050 46,-1050 46,-1050 40,-1050 34,-1044 34,-1038 34,-1038 34,-1024 34,-1024 34,-1018 40,-1012 46,-1012 46,-1012 122,-1012 122,-1012 128,-1012 134,-1018 134,-1024 134,-1024 134,-1038 134,-1038 134,-1044 128,-1050 122,-1050"/>
<text text-anchor="middle" x="84" y="-1034.8" font-family="Times,serif" font-size="14.00">UCO Ontology</text>
<text text-anchor="middle" x="84" y="-1019.8" font-family="Times,serif" font-size="14.00">releases</text>
</a>
</g>
</g>
<!-- _GH__UCOPROJECT__UCO&#45;&gt;_GH__UCOPROJECT__ONTOLOGY_UNIFIEDCYBERONTOLOGY_ORG -->
<g id="edge25" class="edge">
<title>_GH__UCOPROJECT__UCO&#45;&gt;_GH__UCOPROJECT__ONTOLOGY_UNIFIEDCYBERONTOLOGY_ORG</title>
<path fill="none" stroke="black" d="M108.79,-1050.42C136.35,-1072.23 183.96,-1107.79 236.83,-1135.6"/>
<polygon fill="black" stroke="black" points="234.91,-1139.06 245.4,-1140.52 238.11,-1132.84 234.91,-1139.06"/>
<text text-anchor="middle" x="198.5" y="-1142.8" font-family="Times,serif" font-size="14.00">Git sub&#45;</text>
<text text-anchor="middle" x="198.5" y="-1127.8" font-family="Times,serif" font-size="14.00">module</text>
</g>
<!-- _GH__UCOPROJECT__UCO_PROFILE_EXAMPLE -->
<g id="node5" class="node">
<title>_GH__UCOPROJECT__UCO_PROFILE_EXAMPLE</title>
<g id="a_node5"><a xlink:href="https://github.com/ucoProject/UCO-Profile-Example" xlink:title="UCO example profile\nupdates">
<path fill="#8ec7d2" stroke="#0d6986" d="M362,-353C362,-353 251,-353 251,-353 245,-353 239,-347 239,-341 239,-341 239,-327 239,-327 239,-321 245,-315 251,-315 251,-315 362,-315 362,-315 368,-315 374,-321 374,-327 374,-327 374,-341 374,-341 374,-347 368,-353 362,-353"/>
<text text-anchor="middle" x="306.5" y="-337.8" font-family="Times,serif" font-size="14.00">UCO example profile</text>
<text text-anchor="middle" x="306.5" y="-322.8" font-family="Times,serif" font-size="14.00">updates</text>
</a>
</g>
</g>
<!-- _GH__UCOPROJECT__UCO&#45;&gt;_GH__UCOPROJECT__UCO_PROFILE_EXAMPLE -->
<g id="edge26" class="edge">
<title>_GH__UCOPROJECT__UCO&#45;&gt;_GH__UCOPROJECT__UCO_PROFILE_EXAMPLE</title>
<path fill="none" stroke="black" d="M87.09,-1011.5C98.07,-912.45 151.84,-465.64 239,-362 239.43,-361.49 239.87,-360.99 240.32,-360.5"/>
<polygon fill="black" stroke="black" points="242.26,-363.56 247.39,-354.3 237.6,-358.34 242.26,-363.56"/>
<text text-anchor="middle" x="198.5" y="-509.8" font-family="Times,serif" font-size="14.00">Git sub&#45;</text>
<text text-anchor="middle" x="198.5" y="-494.8" font-family="Times,serif" font-size="14.00">module</text>
</g>
<!-- _GH__CASEWORK__CASE -->
<g id="node7" class="node">
<title>_GH__CASEWORK__CASE</title>
<g id="a_node7"><a xlink:href="https://github.com/casework/CASE" xlink:title="CASE Ontology\nreleases">
<path fill="#8ec7d2" stroke="#0d6986" d="M347.5,-1050C347.5,-1050 265.5,-1050 265.5,-1050 259.5,-1050 253.5,-1044 253.5,-1038 253.5,-1038 253.5,-1024 253.5,-1024 253.5,-1018 259.5,-1012 265.5,-1012 265.5,-1012 347.5,-1012 347.5,-1012 353.5,-1012 359.5,-1018 359.5,-1024 359.5,-1024 359.5,-1038 359.5,-1038 359.5,-1044 353.5,-1050 347.5,-1050"/>
<text text-anchor="middle" x="306.5" y="-1034.8" font-family="Times,serif" font-size="14.00">CASE Ontology</text>
<text text-anchor="middle" x="306.5" y="-1019.8" font-family="Times,serif" font-size="14.00">releases</text>
</a>
</g>
</g>
<!-- _GH__UCOPROJECT__UCO&#45;&gt;_GH__CASEWORK__CASE -->
<g id="edge24" class="edge">
<title>_GH__UCOPROJECT__UCO&#45;&gt;_GH__CASEWORK__CASE</title>
<path fill="none" stroke="black" d="M134.48,-1031C166.34,-1031 208.03,-1031 242.27,-1031"/>
<polygon fill="black" stroke="black" points="242.11,-1034.5 252.11,-1031 242.11,-1027.5 242.11,-1034.5"/>
<text text-anchor="middle" x="198.5" y="-1049.8" font-family="Times,serif" font-size="14.00">Git sub&#45;</text>
<text text-anchor="middle" x="198.5" y="-1034.8" font-family="Times,serif" font-size="14.00">module</text>
</g>
<!-- _GH__UCOPROJECT__UCO_PROFILE_FOAF -->
<g id="node6" class="node">
<title>_GH__UCOPROJECT__UCO_PROFILE_FOAF</title>
<g id="a_node6"><a xlink:href="https://github.com/ucoProject/UCO-Profile-FOAF" xlink:title="UCO FOAF profile\nupdates">
<path fill="#8ec7d2" stroke="#0d6986" d="M598.5,-348C598.5,-348 499.5,-348 499.5,-348 493.5,-348 487.5,-342 487.5,-336 487.5,-336 487.5,-322 487.5,-322 487.5,-316 493.5,-310 499.5,-310 499.5,-310 598.5,-310 598.5,-310 604.5,-310 610.5,-316 610.5,-322 610.5,-322 610.5,-336 610.5,-336 610.5,-342 604.5,-348 598.5,-348"/>
<text text-anchor="middle" x="549" y="-332.8" font-family="Times,serif" font-size="14.00">UCO FOAF profile</text>
<text text-anchor="middle" x="549" y="-317.8" font-family="Times,serif" font-size="14.00">updates</text>
</a>
</g>
</g>
<!-- _GH__UCOPROJECT__UCO_PROFILE_EXAMPLE&#45;&gt;_GH__UCOPROJECT__UCO_PROFILE_FOAF -->
<g id="edge27" class="edge">
<title>_GH__UCOPROJECT__UCO_PROFILE_EXAMPLE&#45;&gt;_GH__UCOPROJECT__UCO_PROFILE_FOAF</title>
<path fill="none" stroke="black" d="M374.38,-332.39C380.34,-332.25 386.28,-332.12 392,-332 419.61,-331.41 449.97,-330.81 476.51,-330.31"/>
<polygon fill="black" stroke="black" points="476.32,-333.79 486.25,-330.11 476.19,-326.79 476.32,-333.79"/>
<text text-anchor="middle" x="427.5" y="-350.8" font-family="Times,serif" font-size="14.00">Git merge of</text>
<text text-anchor="middle" x="427.5" y="-335.8" font-family="Times,serif" font-size="14.00">base branch</text>
</g>
<!-- _GH__CASEWORK__CASE&#45;&gt;_GH__CASEWORK__ONTOLOGY_CASEONTOLOGY_ORG -->
<g id="edge4" class="edge">
<title>_GH__CASEWORK__CASE&#45;&gt;_GH__CASEWORK__ONTOLOGY_CASEONTOLOGY_ORG</title>
<path fill="none" stroke="black" d="M359.94,-1034.11C401.14,-1036.71 453.15,-1040.4 463,-1043 477.07,-1046.72 491.66,-1052.71 504.7,-1058.93"/>
<polygon fill="black" stroke="black" points="502.82,-1062.4 513.34,-1063.7 505.93,-1056.13 502.82,-1062.4"/>
<text text-anchor="middle" x="427.5" y="-1061.8" font-family="Times,serif" font-size="14.00">Git sub&#45;</text>
<text text-anchor="middle" x="427.5" y="-1046.8" font-family="Times,serif" font-size="14.00">module</text>
</g>
<!-- _GH__CASEWORK__CASE_UTILITIES_PYTHON -->
<g id="node13" class="node">
<title>_GH__CASEWORK__CASE_UTILITIES_PYTHON</title>
<g id="a_node13"><a xlink:href="https://github.com/casework/CASE-Utilities-Python" xlink:title="case&#45;utils\nreleases">
<path fill="#8ec7d2" stroke="#0d6986" d="M571,-926C571,-926 527,-926 527,-926 521,-926 515,-920 515,-914 515,-914 515,-900 515,-900 515,-894 521,-888 527,-888 527,-888 571,-888 571,-888 577,-888 583,-894 583,-900 583,-900 583,-914 583,-914 583,-920 577,-926 571,-926"/>
<text text-anchor="middle" x="549" y="-910.8" font-family="Times,serif" font-size="14.00">case&#45;utils</text>
<text text-anchor="middle" x="549" y="-895.8" font-family="Times,serif" font-size="14.00">releases</text>
</a>
</g>
</g>
<!-- _GH__CASEWORK__CASE&#45;&gt;_GH__CASEWORK__CASE_UTILITIES_PYTHON -->
<g id="edge2" class="edge">
<title>_GH__CASEWORK__CASE&#45;&gt;_GH__CASEWORK__CASE_UTILITIES_PYTHON</title>
<path fill="none" stroke="black" d="M359.68,-1014.63C364.61,-1012.59 369.45,-1010.38 374,-1008 387.04,-1001.19 467.95,-936.8 481,-930 488.36,-926.17 496.49,-922.76 504.47,-919.81"/>
<polygon fill="black" stroke="black" points="505.52,-922.81 513.81,-916.22 503.22,-916.2 505.52,-922.81"/>
<text text-anchor="middle" x="427.5" y="-1012.8" font-family="Times,serif" font-size="14.00">Git sub&#45;</text>
<text text-anchor="middle" x="427.5" y="-997.8" font-family="Times,serif" font-size="14.00">module</text>
</g>
<!-- _GH__CIPHERTECHSOLUTIONS__CASE_BINDINGS_CSHARP -->
<g id="node23" class="node">
<title>_GH__CIPHERTECHSOLUTIONS__CASE_BINDINGS_CSHARP</title>
<g id="a_node23"><a xlink:href="https://github.com/ciphertechsolutions/CASE-Bindings-CSharp" xlink:title="CASE&#45;Bindings&#45;CSharp\nadopts new ontology version">
<path fill="#8ec7d2" stroke="#0d6986" d="M859.5,-790C859.5,-790 710.5,-790 710.5,-790 704.5,-790 698.5,-784 698.5,-778 698.5,-778 698.5,-764 698.5,-764 698.5,-758 704.5,-752 710.5,-752 710.5,-752 859.5,-752 859.5,-752 865.5,-752 871.5,-758 871.5,-764 871.5,-764 871.5,-778 871.5,-778 871.5,-784 865.5,-790 859.5,-790"/>
<text text-anchor="middle" x="785" y="-774.8" font-family="Times,serif" font-size="14.00">CASE&#45;Bindings&#45;CSharp</text>
<text text-anchor="middle" x="785" y="-759.8" font-family="Times,serif" font-size="14.00">adopts new ontology version</text>
</a>
</g>
</g>
<!-- _GH__CASEWORK__CASE&#45;&gt;_GH__CIPHERTECHSOLUTIONS__CASE_BINDINGS_CSHARP -->
<g id="edge3" class="edge">
<title>_GH__CASEWORK__CASE&#45;&gt;_GH__CIPHERTECHSOLUTIONS__CASE_BINDINGS_CSHARP</title>
<path fill="none" stroke="black" d="M359.75,-1032.09C455.69,-1033.85 651.19,-1036.15 662,-1026 699.7,-990.61 646.09,-833.04 680,-794 682.71,-790.89 685.73,-788.14 689,-785.72"/>
<polygon fill="black" stroke="black" points="690.49,-788.29 697.16,-780.05 686.81,-782.34 690.49,-788.29"/>
</g>
<!-- _GH__AJNELSON_NIST__CASE_EXAMPLES_QC -->
<g id="node9" class="node">
<title>_GH__AJNELSON_NIST__CASE_EXAMPLES_QC</title>
<g id="a_node9"><a xlink:href="https://github.com/ajnelson-nist/CASE-Examples-QC" xlink:title="CASE&#45;Examples&#45;QC\nadopts CASE&#45;Examples and\nCASE website updates">
<path fill="#8ec7d2" stroke="#0d6986" d="M1213,-974.5C1213,-974.5 1065,-974.5 1065,-974.5 1059,-974.5 1053,-968.5 1053,-962.5 1053,-962.5 1053,-933.5 1053,-933.5 1053,-927.5 1059,-921.5 1065,-921.5 1065,-921.5 1213,-921.5 1213,-921.5 1219,-921.5 1225,-927.5 1225,-933.5 1225,-933.5 1225,-962.5 1225,-962.5 1225,-968.5 1219,-974.5 1213,-974.5"/>
<text text-anchor="middle" x="1139" y="-959.3" font-family="Times,serif" font-size="14.00">CASE&#45;Examples&#45;QC</text>
<text text-anchor="middle" x="1139" y="-944.3" font-family="Times,serif" font-size="14.00">adopts CASE&#45;Examples and</text>
<text text-anchor="middle" x="1139" y="-929.3" font-family="Times,serif" font-size="14.00">CASE website updates</text>
</a>
</g>
</g>
<!-- _GH__CASEWORK__CASE_IMPLEMENTATON_PROV_O -->
<g id="node16" class="node">
<title>_GH__CASEWORK__CASE_IMPLEMENTATON_PROV_O</title>
<g id="a_node16"><a xlink:href="https://github.com/casework/CASE-Implementation-PROV-O" xlink:title="case&#45;prov\nreleases">
<path fill="#8ec7d2" stroke="#0d6986" d="M1411,-989C1411,-989 1366,-989 1366,-989 1360,-989 1354,-983 1354,-977 1354,-977 1354,-963 1354,-963 1354,-957 1360,-951 1366,-951 1366,-951 1411,-951 1411,-951 1417,-951 1423,-957 1423,-963 1423,-963 1423,-977 1423,-977 1423,-983 1417,-989 1411,-989"/>
<text text-anchor="middle" x="1388.5" y="-973.8" font-family="Times,serif" font-size="14.00">case&#45;prov</text>
<text text-anchor="middle" x="1388.5" y="-958.8" font-family="Times,serif" font-size="14.00">releases</text>
</a>
</g>
</g>
<!-- _GH__AJNELSON_NIST__CASE_EXAMPLES_QC&#45;&gt;_GH__CASEWORK__CASE_IMPLEMENTATON_PROV_O -->
<g id="edge1" class="edge">
<title>_GH__AJNELSON_NIST__CASE_EXAMPLES_QC&#45;&gt;_GH__CASEWORK__CASE_IMPLEMENTATON_PROV_O</title>
<path fill="none" stroke="black" d="M1225.18,-955.57C1264.87,-959.1 1310.46,-963.15 1343.19,-966.06"/>
<polygon fill="black" stroke="black" points="1342.5,-969.6 1352.77,-967 1343.12,-962.63 1342.5,-969.6"/>
<text text-anchor="middle" x="1313.5" y="-983.8" font-family="Times,serif" font-size="14.00">Git sub&#45;</text>
<text text-anchor="middle" x="1313.5" y="-968.8" font-family="Times,serif" font-size="14.00">module</text>
</g>
<!-- _GH__CASEWORK__CASE_EXAMPLES -->
<g id="node10" class="node">
<title>_GH__CASEWORK__CASE_EXAMPLES</title>
<g id="a_node10"><a xlink:href="https://github.com/casework/CASE-Examples" xlink:title="CASE&#45;Examples\nadopts new case&#45;utils">
<path fill="#8ec7d2" stroke="#0d6986" d="M839.5,-898C839.5,-898 730.5,-898 730.5,-898 724.5,-898 718.5,-892 718.5,-886 718.5,-886 718.5,-872 718.5,-872 718.5,-866 724.5,-860 730.5,-860 730.5,-860 839.5,-860 839.5,-860 845.5,-860 851.5,-866 851.5,-872 851.5,-872 851.5,-886 851.5,-886 851.5,-892 845.5,-898 839.5,-898"/>
<text text-anchor="middle" x="785" y="-882.8" font-family="Times,serif" font-size="14.00">CASE&#45;Examples</text>
<text text-anchor="middle" x="785" y="-867.8" font-family="Times,serif" font-size="14.00">adopts new case&#45;utils</text>
</a>
</g>
</g>
<!-- _GH__CASEWORK__CASE_EXAMPLES&#45;&gt;_GH__AJNELSON_NIST__CASE_EXAMPLES_QC -->
<g id="edge5" class="edge">
<title>_GH__CASEWORK__CASE_EXAMPLES&#45;&gt;_GH__AJNELSON_NIST__CASE_EXAMPLES_QC</title>
<path fill="none" stroke="black" d="M851.58,-884.99C891.06,-889.22 942.2,-895.78 987,-905 1005.05,-908.72 1024.1,-913.47 1042.36,-918.45"/>
<polygon fill="black" stroke="black" points="1041.13,-922.02 1051.7,-921.32 1043,-915.27 1041.13,-922.02"/>
<text text-anchor="middle" x="947.5" y="-923.8" font-family="Times,serif" font-size="14.00">Git sub&#45;</text>
<text text-anchor="middle" x="947.5" y="-908.8" font-family="Times,serif" font-size="14.00">module</text>
</g>
<!-- _GH__CASEWORK__CASE_IMPLEMENTATON_EXIFTOOL -->
<g id="node11" class="node">
<title>_GH__CASEWORK__CASE_IMPLEMENTATON_EXIFTOOL</title>
<g id="a_node11"><a xlink:href="https://github.com/casework/CASE-Implementation-ExifTool" xlink:title="CASE&#45;Implementation&#45;ExifTool\nadopts new case&#45;utils">
<path fill="#8ec7d2" stroke="#0d6986" d="M871,-420C871,-420 699,-420 699,-420 693,-420 687,-414 687,-408 687,-408 687,-394 687,-394 687,-388 693,-382 699,-382 699,-382 871,-382 871,-382 877,-382 883,-388 883,-394 883,-394 883,-408 883,-408 883,-414 877,-420 871,-420"/>
<text text-anchor="middle" x="785" y="-404.8" font-family="Times,serif" font-size="14.00">CASE&#45;Implementation&#45;ExifTool</text>
<text text-anchor="middle" x="785" y="-389.8" font-family="Times,serif" font-size="14.00">adopts new case&#45;utils</text>
</a>
</g>
</g>
<!-- _GH__CASEWORK__CASE_IMPLEMENTATON_GNU_TIME -->
<g id="node12" class="node">
<title>_GH__CASEWORK__CASE_IMPLEMENTATON_GNU_TIME</title>
<g id="a_node12"><a xlink:href="https://github.com/casework/CASE-Implementation-GNU-Time" xlink:title="CASE&#45;Implementation&#45;GNU&#45;Time\nadopts new case&#45;utils">
<path fill="#8ec7d2" stroke="#0d6986" d="M878,-476C878,-476 692,-476 692,-476 686,-476 680,-470 680,-464 680,-464 680,-450 680,-450 680,-444 686,-438 692,-438 692,-438 878,-438 878,-438 884,-438 890,-444 890,-450 890,-450 890,-464 890,-464 890,-470 884,-476 878,-476"/>
<text text-anchor="middle" x="785" y="-460.8" font-family="Times,serif" font-size="14.00">CASE&#45;Implementation&#45;GNU&#45;Time</text>
<text text-anchor="middle" x="785" y="-445.8" font-family="Times,serif" font-size="14.00">adopts new case&#45;utils</text>
</a>
</g>
</g>
<!-- _GH__CASEWORK__CASE_UTILITIES_PYTHON&#45;&gt;_GH__AJNELSON_NIST__CASE_EXAMPLES_QC -->
<g id="edge7" class="edge">
<title>_GH__CASEWORK__CASE_UTILITIES_PYTHON&#45;&gt;_GH__AJNELSON_NIST__CASE_EXAMPLES_QC</title>
<path fill="none" stroke="black" d="M583.44,-917.37C594.28,-921.02 606.27,-925.38 617,-930 646.03,-942.5 649.53,-954.58 680,-963 811.63,-999.39 851.01,-988.5 987,-976 1004.87,-974.36 1023.77,-971.64 1041.94,-968.54"/>
<polygon fill="black" stroke="black" points="1042.3,-971.85 1051.54,-966.66 1041.08,-964.96 1042.3,-971.85"/>
<text text-anchor="middle" x="785" y="-990.8" font-family="Times,serif" font-size="14.00">PyPI</text>
</g>
<!-- _GH__CASEWORK__CASE_UTILITIES_PYTHON&#45;&gt;_GH__CASEWORK__CASE_EXAMPLES -->
<g id="edge8" class="edge">
<title>_GH__CASEWORK__CASE_UTILITIES_PYTHON&#45;&gt;_GH__CASEWORK__CASE_EXAMPLES</title>
<path fill="none" stroke="black" d="M583.45,-901.48C599.09,-899 617.97,-896.16 635,-894 658.49,-891.02 684.13,-888.27 707.41,-885.95"/>
<polygon fill="black" stroke="black" points="707.66,-889.34 717.27,-884.88 706.98,-882.38 707.66,-889.34"/>
<text text-anchor="middle" x="648.5" y="-897.8" font-family="Times,serif" font-size="14.00">PyPI</text>
</g>
<!-- _GH__CASEWORK__CASE_UTILITIES_PYTHON&#45;&gt;_GH__CASEWORK__CASE_IMPLEMENTATON_EXIFTOOL -->
<g id="edge9" class="edge">
<title>_GH__CASEWORK__CASE_UTILITIES_PYTHON&#45;&gt;_GH__CASEWORK__CASE_IMPLEMENTATON_EXIFTOOL</title>
<path fill="none" stroke="black" d="M583.31,-903.49C595.87,-900.39 609.04,-894.63 617,-884 643.72,-848.29 618.88,-524.59 635,-483 646.29,-453.87 653.69,-445.85 680,-429 682.05,-427.69 684.15,-426.44 686.31,-425.25"/>
<polygon fill="black" stroke="black" points="687.66,-427.99 695.04,-420.39 684.53,-421.72 687.66,-427.99"/>
<text text-anchor="middle" x="648.5" y="-486.8" font-family="Times,serif" font-size="14.00">PyPI</text>
</g>
<!-- _GH__CASEWORK__CASE_UTILITIES_PYTHON&#45;&gt;_GH__CASEWORK__CASE_IMPLEMENTATON_GNU_TIME -->
<g id="edge10" class="edge">
<title>_GH__CASEWORK__CASE_UTILITIES_PYTHON&#45;&gt;_GH__CASEWORK__CASE_IMPLEMENTATON_GNU_TIME</title>
<path fill="none" stroke="black" d="M583.44,-902.86C595.71,-899.66 608.64,-894 617,-884 633.87,-863.82 630.96,-792.99 635,-767 654.27,-642.9 594.98,-577.71 676.74,-484.13"/>
<polygon fill="black" stroke="black" points="678.84,-486.92 682.97,-477.16 673.66,-482.21 678.84,-486.92"/>
<text text-anchor="middle" x="648.5" y="-770.8" font-family="Times,serif" font-size="14.00">PyPI</text>
</g>
<!-- _GH__CASEWORK__CASEWORK_GITHUB_IO -->
<g id="node14" class="node">
<title>_GH__CASEWORK__CASEWORK_GITHUB_IO</title>
<g id="a_node14"><a xlink:href="https://github.com/casework/casework.github.io" xlink:title="CASE website\nadopts new case&#45;utils">
<path fill="#8ec7d2" stroke="#0d6986" d="M839.5,-954C839.5,-954 730.5,-954 730.5,-954 724.5,-954 718.5,-948 718.5,-942 718.5,-942 718.5,-928 718.5,-928 718.5,-922 724.5,-916 730.5,-916 730.5,-916 839.5,-916 839.5,-916 845.5,-916 851.5,-922 851.5,-928 851.5,-928 851.5,-942 851.5,-942 851.5,-948 845.5,-954 839.5,-954"/>
<text text-anchor="middle" x="785" y="-938.8" font-family="Times,serif" font-size="14.00">CASE website</text>
<text text-anchor="middle" x="785" y="-923.8" font-family="Times,serif" font-size="14.00">adopts new case&#45;utils</text>
</a>
</g>
</g>
<!-- _GH__CASEWORK__CASE_UTILITIES_PYTHON&#45;&gt;_GH__CASEWORK__CASEWORK_GITHUB_IO -->
<g id="edge13" class="edge">
<title>_GH__CASEWORK__CASE_UTILITIES_PYTHON&#45;&gt;_GH__CASEWORK__CASEWORK_GITHUB_IO</title>
<path fill="none" stroke="black" d="M583.03,-910.95C615.25,-914.81 665.42,-920.81 707.57,-925.86"/>
<polygon fill="black" stroke="black" points="707.04,-929.44 717.38,-927.15 707.87,-922.48 707.04,-929.44"/>
<text text-anchor="middle" x="648.5" y="-923.8" font-family="Times,serif" font-size="14.00">PyPI</text>
</g>
<!-- _GH__CASEWORK__CASE_UTILITIES_PYTHON&#45;&gt;_GH__CASEWORK__CASE_IMPLEMENTATON_PROV_O -->
<g id="edge11" class="edge">
<title>_GH__CASEWORK__CASE_UTILITIES_PYTHON&#45;&gt;_GH__CASEWORK__CASE_IMPLEMENTATON_PROV_O</title>
<path fill="none" stroke="black" d="M583.41,-914.5C594.72,-918.03 607.01,-923.05 617,-930 627.37,-937.22 626.96,-942.26 635,-952 654.89,-976.09 651.71,-992.75 680,-1006 743.4,-1035.69 1142.82,-1051.27 1336,-999 1340.4,-997.81 1344.83,-996.16 1349.13,-994.24"/>
<polygon fill="black" stroke="black" points="1350.51,-996.97 1357.91,-989.38 1347.4,-990.7 1350.51,-996.97"/>
<text text-anchor="middle" x="947.5" y="-1036.8" font-family="Times,serif" font-size="14.00">PyPI</text>
</g>
<!-- _GH__KCHASON__CASE_VALIDATION_ACTION -->
<g id="node21" class="node">
<title>_GH__KCHASON__CASE_VALIDATION_ACTION</title>
<g id="a_node21"><a xlink:href="https://github.com/kchason/case-validation-action" xlink:title="case&#45;validation&#45;action\nreleases">
<path fill="#8ec7d2" stroke="#0d6986" d="M841,-609C841,-609 729,-609 729,-609 723,-609 717,-603 717,-597 717,-597 717,-583 717,-583 717,-577 723,-571 729,-571 729,-571 841,-571 841,-571 847,-571 853,-577 853,-583 853,-583 853,-597 853,-597 853,-603 847,-609 841,-609"/>
<text text-anchor="middle" x="785" y="-593.8" font-family="Times,serif" font-size="14.00">case&#45;validation&#45;action</text>
<text text-anchor="middle" x="785" y="-578.8" font-family="Times,serif" font-size="14.00">releases</text>
</a>
</g>
</g>
<!-- _GH__CASEWORK__CASE_UTILITIES_PYTHON&#45;&gt;_GH__KCHASON__CASE_VALIDATION_ACTION -->
<g id="edge12" class="edge">
<title>_GH__CASEWORK__CASE_UTILITIES_PYTHON&#45;&gt;_GH__KCHASON__CASE_VALIDATION_ACTION</title>
<path fill="none" stroke="black" d="M583.21,-901.37C595.02,-897.98 607.68,-892.58 617,-884 668.37,-836.66 645.94,-800.99 680,-740 705.06,-695.12 740.12,-646.89 762.45,-617.57"/>
<polygon fill="black" stroke="black" points="765.63,-620.17 768.94,-610.11 760.08,-615.91 765.63,-620.17"/>
<text text-anchor="middle" x="648.5" y="-865.8" font-family="Times,serif" font-size="14.00">PyPI</text>
</g>
<!-- _GH__CASEWORK__CASEWORK_GITHUB_IO&#45;&gt;_GH__AJNELSON_NIST__CASE_EXAMPLES_QC -->
<g id="edge14" class="edge">
<title>_GH__CASEWORK__CASEWORK_GITHUB_IO&#45;&gt;_GH__AJNELSON_NIST__CASE_EXAMPLES_QC</title>
<path fill="none" stroke="black" d="M851.8,-937.43C905.29,-939.41 981.53,-942.22 1041.86,-944.45"/>
<polygon fill="black" stroke="black" points="1041.43,-947.97 1051.55,-944.84 1041.69,-940.98 1041.43,-947.97"/>
<text text-anchor="middle" x="947.5" y="-960.8" font-family="Times,serif" font-size="14.00">Git sub&#45;</text>
<text text-anchor="middle" x="947.5" y="-945.8" font-family="Times,serif" font-size="14.00">module</text>
</g>
<!-- _GH__CASEWORK__CASE_CORPORA -->
<g id="node15" class="node">
<title>_GH__CASEWORK__CASE_CORPORA</title>
<g id="a_node15"><a xlink:href="https://github.com/casework/CASE-Corpora" xlink:title="CASE&#45;Corpora\nadopts new case&#45;prov">
<path fill="#8ec7d2" stroke="#0d6986" d="M1608,-989C1608,-989 1498,-989 1498,-989 1492,-989 1486,-983 1486,-977 1486,-977 1486,-963 1486,-963 1486,-957 1492,-951 1498,-951 1498,-951 1608,-951 1608,-951 1614,-951 1620,-957 1620,-963 1620,-963 1620,-977 1620,-977 1620,-983 1614,-989 1608,-989"/>
<text text-anchor="middle" x="1553" y="-973.8" font-family="Times,serif" font-size="14.00">CASE&#45;Corpora</text>
<text text-anchor="middle" x="1553" y="-958.8" font-family="Times,serif" font-size="14.00">adopts new case&#45;prov</text>
</a>
</g>
</g>
<!-- _GH__CASEWORK__CASE_IMPLEMENTATON_PROV_O&#45;&gt;_GH__CASEWORK__CASE_CORPORA -->
<g id="edge6" class="edge">
<title>_GH__CASEWORK__CASE_IMPLEMENTATON_PROV_O&#45;&gt;_GH__CASEWORK__CASE_CORPORA</title>
<path fill="none" stroke="black" d="M1423.17,-970C1438.18,-970 1456.52,-970 1474.62,-970"/>
<polygon fill="black" stroke="black" points="1474.51,-973.5 1484.51,-970 1474.51,-966.5 1474.51,-973.5"/>
<text text-anchor="middle" x="1454.5" y="-973.8" font-family="Times,serif" font-size="14.00">PyPI</text>
</g>
<!-- _GH__CASEWORK__CASE_IMPLEMENTATON_PYPI_PILLOW -->
<g id="node17" class="node">
<title>_GH__CASEWORK__CASE_IMPLEMENTATON_PYPI_PILLOW</title>
<g id="a_node17"><a xlink:href="https://github.com/casework/CASE-Implementation-PyPI-Pillow" xlink:title="CASE&#45;Implementation&#45;PyPI&#45;Pillow\nadopts new case&#45;validation&#45;action">
<path fill="#8ec7d2" stroke="#0d6986" d="M1233.5,-642C1233.5,-642 1044.5,-642 1044.5,-642 1038.5,-642 1032.5,-636 1032.5,-630 1032.5,-630 1032.5,-616 1032.5,-616 1032.5,-610 1038.5,-604 1044.5,-604 1044.5,-604 1233.5,-604 1233.5,-604 1239.5,-604 1245.5,-610 1245.5,-616 1245.5,-616 1245.5,-630 1245.5,-630 1245.5,-636 1239.5,-642 1233.5,-642"/>
<text text-anchor="middle" x="1139" y="-626.8" font-family="Times,serif" font-size="14.00">CASE&#45;Implementation&#45;PyPI&#45;Pillow</text>
<text text-anchor="middle" x="1139" y="-611.8" font-family="Times,serif" font-size="14.00">adopts new case&#45;validation&#45;action</text>
</a>
</g>
</g>
<!-- _GH__CASEWORK__CASE_IMPLEMENTATON_UFED_XML -->
<g id="node18" class="node">
<title>_GH__CASEWORK__CASE_IMPLEMENTATON_UFED_XML</title>
<g id="a_node18"><a xlink:href="https://github.com/casework/CASE-Implementation-UFED-XML" xlink:title="CASE&#45;Implementation&#45;UFED&#45;XML\nadopts new case&#45;validation&#45;action">
<path fill="#8ec7d2" stroke="#0d6986" d="M1236,-698C1236,-698 1042,-698 1042,-698 1036,-698 1030,-692 1030,-686 1030,-686 1030,-672 1030,-672 1030,-666 1036,-660 1042,-660 1042,-660 1236,-660 1236,-660 1242,-660 1248,-666 1248,-672 1248,-672 1248,-686 1248,-686 1248,-692 1242,-698 1236,-698"/>
<text text-anchor="middle" x="1139" y="-682.8" font-family="Times,serif" font-size="14.00">CASE&#45;Implementation&#45;UFED&#45;XML</text>
<text text-anchor="middle" x="1139" y="-667.8" font-family="Times,serif" font-size="14.00">adopts new case&#45;validation&#45;action</text>
</a>
</g>
</g>
<!-- _GH__CASEWORK__CASE_IMPLEMENTATON_XRY -->
<g id="node19" class="node">
<title>_GH__CASEWORK__CASE_IMPLEMENTATON_XRY</title>
<g id="a_node19"><a xlink:href="https://github.com/casework/CASE-Implementation-XRY" xlink:title="CASE&#45;Implementation&#45;XRY adopts\nnew case&#45;validation&#45;action">
<path fill="#8ec7d2" stroke="#0d6986" d="M1234,-530C1234,-530 1044,-530 1044,-530 1038,-530 1032,-524 1032,-518 1032,-518 1032,-504 1032,-504 1032,-498 1038,-492 1044,-492 1044,-492 1234,-492 1234,-492 1240,-492 1246,-498 1246,-504 1246,-504 1246,-518 1246,-518 1246,-524 1240,-530 1234,-530"/>
<text text-anchor="middle" x="1139" y="-514.8" font-family="Times,serif" font-size="14.00">CASE&#45;Implementation&#45;XRY adopts</text>
<text text-anchor="middle" x="1139" y="-499.8" font-family="Times,serif" font-size="14.00">new case&#45;validation&#45;action</text>
</a>
</g>
</g>
<!-- _GH__CASEWORK__CASE_MAPPING_TEMPLATE_PYTHON -->
<g id="node20" class="node">
<title>_GH__CASEWORK__CASE_MAPPING_TEMPLATE_PYTHON</title>
<g id="a_node20"><a xlink:href="https://github.com/casework/CASE-Mapping-Template-Python" xlink:title="CASE&#45;Mapping&#45;Template&#45;Python\nadopts new case&#45;validation&#45;action">
<path fill="#8ec7d2" stroke="#0d6986" d="M1229,-586C1229,-586 1049,-586 1049,-586 1043,-586 1037,-580 1037,-574 1037,-574 1037,-560 1037,-560 1037,-554 1043,-548 1049,-548 1049,-548 1229,-548 1229,-548 1235,-548 1241,-554 1241,-560 1241,-560 1241,-574 1241,-574 1241,-580 1235,-586 1229,-586"/>
<text text-anchor="middle" x="1139" y="-570.8" font-family="Times,serif" font-size="14.00">CASE&#45;Mapping&#45;Template&#45;Python</text>
<text text-anchor="middle" x="1139" y="-555.8" font-family="Times,serif" font-size="14.00">adopts new case&#45;validation&#45;action</text>
</a>
</g>
</g>
<!-- _GH__KCHASON__CASE_VALIDATION_ACTION&#45;&gt;_GH__CASEWORK__CASE_IMPLEMENTATON_PYPI_EXIFREAD -->
<g id="edge17" class="edge">
<title>_GH__KCHASON__CASE_VALIDATION_ACTION&#45;&gt;_GH__CASEWORK__CASE_IMPLEMENTATON_PYPI_EXIFREAD</title>
<path fill="none" stroke="black" d="M853.28,-587.02C867.01,-583.4 880.23,-577.23 890,-567 922.39,-533.07 889.59,-506.15 908,-463 958.52,-344.62 1061.94,-228.97 1111.01,-178.05"/>
<polygon fill="black" stroke="black" points="1112.94,-181.05 1117.4,-171.44 1107.92,-176.18 1112.94,-181.05"/>
<text text-anchor="middle" x="947.5" y="-481.8" font-family="Times,serif" font-size="14.00">GitHub</text>
<text text-anchor="middle" x="947.5" y="-466.8" font-family="Times,serif" font-size="14.00">Action</text>
</g>
<!-- _GH__KCHASON__CASE_VALIDATION_ACTION&#45;&gt;_GH__CASEWORK__CASE_IMPLEMENTATON_PYPI_PILLOW -->
<g id="edge18" class="edge">
<title>_GH__KCHASON__CASE_VALIDATION_ACTION&#45;&gt;_GH__CASEWORK__CASE_IMPLEMENTATON_PYPI_PILLOW</title>
<path fill="none" stroke="black" d="M853.45,-596.32C900.99,-600.78 965.87,-606.86 1021.67,-612.09"/>
<polygon fill="black" stroke="black" points="1021.06,-615.65 1031.34,-613.09 1021.71,-608.68 1021.06,-615.65"/>
<text text-anchor="middle" x="947.5" y="-626.8" font-family="Times,serif" font-size="14.00">GitHub</text>
<text text-anchor="middle" x="947.5" y="-611.8" font-family="Times,serif" font-size="14.00">Action</text>
</g>
<!-- _GH__KCHASON__CASE_VALIDATION_ACTION&#45;&gt;_GH__CASEWORK__CASE_IMPLEMENTATON_UFED_XML -->
<g id="edge19" class="edge">
<title>_GH__KCHASON__CASE_VALIDATION_ACTION&#45;&gt;_GH__CASEWORK__CASE_IMPLEMENTATON_UFED_XML</title>
<path fill="none" stroke="black" d="M824.94,-609.48C848.47,-620.52 879.35,-633.73 908,-642 943.54,-652.27 983.05,-659.92 1019.15,-665.52"/>
<polygon fill="black" stroke="black" points="1018.32,-669.08 1028.73,-667.12 1019.37,-662.16 1018.32,-669.08"/>
<text text-anchor="middle" x="947.5" y="-677.8" font-family="Times,serif" font-size="14.00">GitHub</text>
<text text-anchor="middle" x="947.5" y="-662.8" font-family="Times,serif" font-size="14.00">Action</text>
</g>
<!-- _GH__KCHASON__CASE_VALIDATION_ACTION&#45;&gt;_GH__CASEWORK__CASE_IMPLEMENTATON_XRY -->
<g id="edge20" class="edge">
<title>_GH__KCHASON__CASE_VALIDATION_ACTION&#45;&gt;_GH__CASEWORK__CASE_IMPLEMENTATON_XRY</title>
<path fill="none" stroke="black" d="M853.25,-584.82C866.5,-581.26 879.53,-575.67 890,-567 905.64,-554.04 891.39,-536.69 908,-525 940.29,-502.27 981.88,-494.99 1020.8,-494.62"/>
<polygon fill="black" stroke="black" points="1020.67,-498.12 1030.69,-494.69 1020.71,-491.12 1020.67,-498.12"/>
<text text-anchor="middle" x="947.5" y="-543.8" font-family="Times,serif" font-size="14.00">GitHub</text>
<text text-anchor="middle" x="947.5" y="-528.8" font-family="Times,serif" font-size="14.00">Action</text>
</g>
<!-- _GH__KCHASON__CASE_VALIDATION_ACTION&#45;&gt;_GH__CASEWORK__CASE_MAPPING_TEMPLATE_PYTHON -->
<g id="edge21" class="edge">
<title>_GH__KCHASON__CASE_VALIDATION_ACTION&#45;&gt;_GH__CASEWORK__CASE_MAPPING_TEMPLATE_PYTHON</title>
<path fill="none" stroke="black" d="M853.33,-575.03C878.29,-569.6 902.02,-564.63 908,-564 946.22,-559.97 988.22,-559.4 1025.74,-560.25"/>
<polygon fill="black" stroke="black" points="1025.63,-563.77 1035.72,-560.54 1025.81,-556.77 1025.63,-563.77"/>
<text text-anchor="middle" x="947.5" y="-582.8" font-family="Times,serif" font-size="14.00">GitHub</text>
<text text-anchor="middle" x="947.5" y="-567.8" font-family="Times,serif" font-size="14.00">Action</text>
</g>
<!-- _GH__CASEWORK__CASE_BINDINGS_CSHARP_MONITOR -->
<g id="node22" class="node">
<title>_GH__CASEWORK__CASE_BINDINGS_CSHARP_MONITOR</title>
<g id="a_node22"><a xlink:href="https://github.com/casework/CASE-Bindings-CSharp-Monitor" xlink:title="CASE Bindings CSharp Monitor\ntests NuGet package with validation action">
<path fill="#8ec7d2" stroke="#0d6986" d="M1252.5,-790C1252.5,-790 1025.5,-790 1025.5,-790 1019.5,-790 1013.5,-784 1013.5,-778 1013.5,-778 1013.5,-764 1013.5,-764 1013.5,-758 1019.5,-752 1025.5,-752 1025.5,-752 1252.5,-752 1252.5,-752 1258.5,-752 1264.5,-758 1264.5,-764 1264.5,-764 1264.5,-778 1264.5,-778 1264.5,-784 1258.5,-790 1252.5,-790"/>
<text text-anchor="middle" x="1139" y="-774.8" font-family="Times,serif" font-size="14.00">CASE Bindings CSharp Monitor</text>
<text text-anchor="middle" x="1139" y="-759.8" font-family="Times,serif" font-size="14.00">tests NuGet package with validation action</text>
</a>
</g>
</g>
<!-- _GH__KCHASON__CASE_VALIDATION_ACTION&#45;&gt;_GH__CASEWORK__CASE_BINDINGS_CSHARP_MONITOR -->
<g id="edge16" class="edge">
<title>_GH__KCHASON__CASE_VALIDATION_ACTION&#45;&gt;_GH__CASEWORK__CASE_BINDINGS_CSHARP_MONITOR</title>
<path fill="none" stroke="black" d="M806.08,-609.28C829.42,-631.13 869.66,-667.06 908,-693 940.93,-715.29 958.01,-707.78 987,-735 991.95,-739.64 989.36,-744.23 995,-748 997.78,-749.86 1000.67,-751.59 1003.63,-753.2"/>
<polygon fill="black" stroke="black" points="1001.81,-756.69 1012.34,-757.92 1004.88,-750.4 1001.81,-756.69"/>
<text text-anchor="middle" x="947.5" y="-753.8" font-family="Times,serif" font-size="14.00">GitHub</text>
<text text-anchor="middle" x="947.5" y="-738.8" font-family="Times,serif" font-size="14.00">Action</text>
</g>
<!-- _GH__DOD_CYBER_CRIME_CENTER__SQLITE_DISSECT -->
<g id="node24" class="node">
<title>_GH__DOD_CYBER_CRIME_CENTER__SQLITE_DISSECT</title>
<g id="a_node24"><a xlink:href="https://github.com/dod-cyber-crime-center/sqlite-dissect" xlink:title="sqlite&#45;dissect\nadopts new case&#45;validation&#45;action">
<path fill="#8ec7d2" stroke="#0d6986" d="M1227.5,-92C1227.5,-92 1050.5,-92 1050.5,-92 1044.5,-92 1038.5,-86 1038.5,-80 1038.5,-80 1038.5,-66 1038.5,-66 1038.5,-60 1044.5,-54 1050.5,-54 1050.5,-54 1227.5,-54 1227.5,-54 1233.5,-54 1239.5,-60 1239.5,-66 1239.5,-66 1239.5,-80 1239.5,-80 1239.5,-86 1233.5,-92 1227.5,-92"/>
<text text-anchor="middle" x="1139" y="-76.8" font-family="Times,serif" font-size="14.00">sqlite&#45;dissect</text>
<text text-anchor="middle" x="1139" y="-61.8" font-family="Times,serif" font-size="14.00">adopts new case&#45;validation&#45;action</text>
</a>
</g>
</g>
<!-- _GH__KCHASON__CASE_VALIDATION_ACTION&#45;&gt;_GH__DOD_CYBER_CRIME_CENTER__SQLITE_DISSECT -->
<g id="edge22" class="edge">
<title>_GH__KCHASON__CASE_VALIDATION_ACTION&#45;&gt;_GH__DOD_CYBER_CRIME_CENTER__SQLITE_DISSECT</title>
<g id="a_edge22"><a xlink:href="https://github.com/dod-cyber-crime-center/sqlite-dissect/pull/31" xlink:title="TODO: PR 31">
<path fill="none" stroke="black" d="M853.25,-587.94C867.24,-584.32 880.57,-577.92 890,-567 908.35,-545.75 901.18,-342.23 908,-315 931.06,-222.94 924.56,-183.59 995,-120 1005.69,-110.35 1018.41,-102.67 1031.78,-96.57"/>
<polygon fill="black" stroke="black" points="1032.78,-99.53 1040.62,-92.4 1030.05,-93.08 1032.78,-99.53"/>
</a>
</g>
<g id="a_edge22&#45;label"><a xlink:href="https://github.com/dod-cyber-crime-center/sqlite-dissect/pull/31" xlink:title="TODO: PR 31">
<text text-anchor="middle" x="947.5" y="-318.8" font-family="Times,serif" font-size="14.00">TODO: PR 31</text>
</a>
</g>
</g>
<!-- _GH__CIPHERTECHSOLUTIONS__CASE_BINDINGS_CSHARP&#45;&gt;_GH__CASEWORK__CASE_BINDINGS_CSHARP_MONITOR -->
<g id="edge15" class="edge">
<title>_GH__CIPHERTECHSOLUTIONS__CASE_BINDINGS_CSHARP&#45;&gt;_GH__CASEWORK__CASE_BINDINGS_CSHARP_MONITOR</title>
<path fill="none" stroke="black" d="M871.98,-770.21C884.08,-770.12 896.35,-770.05 908,-770 938.54,-769.87 971.36,-769.91 1002.37,-770.03"/>
<polygon fill="black" stroke="black" points="1002.25,-773.53 1012.26,-770.07 1002.28,-766.53 1002.25,-773.53"/>
<text text-anchor="middle" x="947.5" y="-773.8" font-family="Times,serif" font-size="14.00">NuGet</text>
</g>
</g>
</svg>
