<?xml version="1.0" encoding="UTF-8" standalone="no"?>
<!DOCTYPE svg PUBLIC "-//W3C//DTD SVG 1.1//EN"
 "http://www.w3.org/Graphics/SVG/1.1/DTD/svg11.dtd">
<!-- Generated by graphviz version 7.1.0 (20230121.1956)
 -->
<!-- Title: cdo_release_flow Pages: 1 -->
<svg width="1620pt" height="1103pt"
 viewBox="0.00 0.00 1620.00 1102.73" xmlns="http://www.w3.org/2000/svg" xmlns:xlink="http://www.w3.org/1999/xlink">
<g id="graph0" class="graph" transform="scale(1 1) rotate(0) translate(4 1098.73)">
<title>cdo_release_flow</title>
<polygon fill="white" stroke="none" points="-4,4 -4,-1098.73 1616,-1098.73 1616,4 -4,4"/>
<text text-anchor="middle" x="806" y="-38.8" font-family="Times,serif" font-size="14.00">Release flow of CDO ontologies</text>
<text text-anchor="middle" x="806" y="-7.8" font-family="Times,serif" font-size="14.00">Nodes link to the respective Git repository.</text>
<g id="clust1" class="cluster">
<title>cluster_uco_0_9_1</title>
<polygon fill="none" stroke="black" points="189,-273 189,-437 357,-437 357,-273 189,-273"/>
<text text-anchor="middle" x="273" y="-421.8" font-family="Times,serif" font-size="14.00">Adoption of UCO 0.9.1</text>
</g>
<g id="clust2" class="cluster">
<title>cluster_case_0_7_1</title>
<polygon fill="none" stroke="black" points="197,-329 197,-406 349,-406 349,-329 197,-329"/>
<text text-anchor="middle" x="273" y="-390.8" font-family="Times,serif" font-size="14.00">Adoption of CASE 0.7.1</text>
</g>
<g id="clust3" class="cluster">
<title>cluster_uco_1_1_0</title>
<polygon fill="none" stroke="black" points="619,-273 619,-1001 1604,-1001 1604,-273 619,-273"/>
<text text-anchor="middle" x="1111.5" y="-985.8" font-family="Times,serif" font-size="14.00">Adoption of UCO 1.1.0</text>
</g>
<g id="clust4" class="cluster">
<title>cluster_case_1_1_0</title>
<polygon fill="none" stroke="black" points="627,-281 627,-970 1596,-970 1596,-281 627,-281"/>
<text text-anchor="middle" x="1111.5" y="-954.8" font-family="Times,serif" font-size="14.00">Adoption of CASE 1.1.0</text>
</g>
<g id="clust5" class="cluster">
<title>cluster_case_utils_0_9_0</title>
<polygon fill="none" stroke="black" points="635,-289 635,-939 1588,-939 1588,-289 635,-289"/>
<text text-anchor="middle" x="1111.5" y="-923.8" font-family="Times,serif" font-size="14.00">Adoption of case&#45;utils 0.9.0</text>
</g>
<g id="clust6" class="cluster">
<title>cluster_case_prov_0_6_0</title>
<polygon fill="none" stroke="black" points="1298,-703 1298,-780 1580,-780 1580,-703 1298,-703"/>
<text text-anchor="middle" x="1439" y="-764.8" font-family="Times,serif" font-size="14.00">Adoption of case&#45;prov 0.6.0</text>
</g>
<g id="clust7" class="cluster">
<title>cluster_case_validation_action_2_3</title>
<polygon fill="none" stroke="black" points="976.5,-831 976.5,-908 1210.5,-908 1210.5,-831 976.5,-831"/>
<text text-anchor="middle" x="1093.5" y="-892.8" font-family="Times,serif" font-size="14.00">Adoption of case&#45;validation&#45;action 2.3</text>
</g>
<g id="clust8" class="cluster">
<title>cluster_case_validation_action_2_5</title>
<polygon fill="none" stroke="black" points="645.5,-455 645.5,-823 1235,-823 1235,-455 645.5,-455"/>
<text text-anchor="middle" x="940.25" y="-807.8" font-family="Times,serif" font-size="14.00">Adoption of case&#45;validation&#45;action 2.5</text>
</g>
<g id="clust9" class="cluster">
<title>cluster_case_bindings_csharp_0_3_0</title>
<polygon fill="none" stroke="black" points="653.5,-715 653.5,-792 1227,-792 1227,-715 653.5,-715"/>
<text text-anchor="middle" x="940.25" y="-776.8" font-family="Times,serif" font-size="14.00">Adoption of CSharp bindings 0.3.0</text>
</g>
<g id="clust10" class="cluster">
<title>cluster_uco_1_2_0</title>
<polygon fill="none" stroke="black" points="8,-62 8,-265 838.5,-265 838.5,-62 8,-62"/>
<text text-anchor="middle" x="423.25" y="-249.8" font-family="Times,serif" font-size="14.00">Adoption of UCO 1.2.0</text>
</g>
<g id="clust11" class="cluster">
<title>cluster_case_1_2_0</title>
<polygon fill="none" stroke="black" points="212,-70 212,-234 830.5,-234 830.5,-70 212,-70"/>
<text text-anchor="middle" x="521.25" y="-218.8" font-family="Times,serif" font-size="14.00">Adoption of CASE 1.2.0</text>
</g>
<g id="clust12" class="cluster">
<title>cluster_case_utils_0_10_0</title>
<polygon fill="none" stroke="black" points="456,-126 456,-203 822.5,-203 822.5,-126 456,-126"/>
<text text-anchor="middle" x="639.25" y="-187.8" font-family="Times,serif" font-size="14.00">Adoption of case&#45;utils 0.10.0</text>
</g>
<!-- _GH__UCOPROJECT__ONTOLOGY_UNIFIEDCYBERONTOLOGY_ORG -->
<g id="node1" class="node">
<title>_GH__UCOPROJECT__ONTOLOGY_UNIFIEDCYBERONTOLOGY_ORG</title>
<g id="a_node1"><a xlink:href="https://github.com/ucoProject/ontology.unifiedcyberontology.org" xlink:title="UCO documentation\nregenerated">
<path fill="#8ec7d2" stroke="#0d6986" d="M326,-319C326,-319 220,-319 220,-319 214,-319 208,-313 208,-307 208,-307 208,-293 208,-293 208,-287 214,-281 220,-281 220,-281 326,-281 326,-281 332,-281 338,-287 338,-293 338,-293 338,-307 338,-307 338,-313 332,-319 326,-319"/>
<text text-anchor="middle" x="273" y="-303.8" font-family="Times,serif" font-size="14.00">UCO documentation</text>
<text text-anchor="middle" x="273" y="-288.8" font-family="Times,serif" font-size="14.00">regenerated</text>
</a>
</g>
</g>
<!-- _GH__CASEWORK__CASE_MAPPING_TEMPLATE_STUBS -->
<g id="node2" class="node">
<title>_GH__CASEWORK__CASE_MAPPING_TEMPLATE_STUBS</title>
<g id="a_node2"><a xlink:href="https://github.com/casework/CASE-Mapping-Template-Stubs" xlink:title="CASE Mapping\nTemplate Stubs">
<path fill="#8ec7d2" stroke="#0d6986" d="M313,-375C313,-375 233,-375 233,-375 227,-375 221,-369 221,-363 221,-363 221,-349 221,-349 221,-343 227,-337 233,-337 233,-337 313,-337 313,-337 319,-337 325,-343 325,-349 325,-349 325,-363 325,-363 325,-369 319,-375 313,-375"/>
<text text-anchor="middle" x="273" y="-359.8" font-family="Times,serif" font-size="14.00">CASE Mapping</text>
<text text-anchor="middle" x="273" y="-344.8" font-family="Times,serif" font-size="14.00">Template Stubs</text>
</a>
</g>
</g>
<!-- _GH__AJNELSON_NIST__CASE_EXAMPLES_QC -->
<g id="node3" class="node">
<title>_GH__AJNELSON_NIST__CASE_EXAMPLES_QC</title>
<g id="a_node3"><a xlink:href="https://github.com/ajnelson-nist/CASE-Examples-QC" xlink:title="CASE&#45;Examples&#45;QC\nadopts CASE&#45;Examples and\nCASE website updates">
<path fill="#8ec7d2" stroke="#0d6986" d="M1167.5,-374.5C1167.5,-374.5 1019.5,-374.5 1019.5,-374.5 1013.5,-374.5 1007.5,-368.5 1007.5,-362.5 1007.5,-362.5 1007.5,-333.5 1007.5,-333.5 1007.5,-327.5 1013.5,-321.5 1019.5,-321.5 1019.5,-321.5 1167.5,-321.5 1167.5,-321.5 1173.5,-321.5 1179.5,-327.5 1179.5,-333.5 1179.5,-333.5 1179.5,-362.5 1179.5,-362.5 1179.5,-368.5 1173.5,-374.5 1167.5,-374.5"/>
<text text-anchor="middle" x="1093.5" y="-359.3" font-family="Times,serif" font-size="14.00">CASE&#45;Examples&#45;QC</text>
<text text-anchor="middle" x="1093.5" y="-344.3" font-family="Times,serif" font-size="14.00">adopts CASE&#45;Examples and</text>
<text text-anchor="middle" x="1093.5" y="-329.3" font-family="Times,serif" font-size="14.00">CASE website updates</text>
</a>
</g>
</g>
<!-- _GH__CASEWORK__CASE_IMPLEMENTATON_PROV_O -->
<g id="node8" class="node">
<title>_GH__CASEWORK__CASE_IMPLEMENTATON_PROV_O</title>
<g id="a_node8"><a xlink:href="https://github.com/casework/CASE-Implementation-PROV-O" xlink:title="case&#45;prov\nreleases">
<path fill="#8ec7d2" stroke="#0d6986" d="M1363,-749C1363,-749 1318,-749 1318,-749 1312,-749 1306,-743 1306,-737 1306,-737 1306,-723 1306,-723 1306,-717 1312,-711 1318,-711 1318,-711 1363,-711 1363,-711 1369,-711 1375,-717 1375,-723 1375,-723 1375,-737 1375,-737 1375,-743 1369,-749 1363,-749"/>
<text text-anchor="middle" x="1340.5" y="-733.8" font-family="Times,serif" font-size="14.00">case&#45;prov</text>
<text text-anchor="middle" x="1340.5" y="-718.8" font-family="Times,serif" font-size="14.00">releases</text>
</a>
</g>
</g>
<!-- _GH__AJNELSON_NIST__CASE_EXAMPLES_QC&#45;&gt;_GH__CASEWORK__CASE_IMPLEMENTATON_PROV_O -->
<g id="edge1" class="edge">
<title>_GH__AJNELSON_NIST__CASE_EXAMPLES_QC&#45;&gt;_GH__CASEWORK__CASE_IMPLEMENTATON_PROV_O</title>
<path fill="none" stroke="black" d="M1144.83,-374.89C1174.57,-392.99 1210.98,-419.3 1235,-451 1294.23,-529.19 1323.06,-644.66 1334.02,-699.25"/>
<polygon fill="black" stroke="black" points="1330.58,-699.91 1335.92,-709.07 1337.45,-698.58 1330.58,-699.91"/>
<text text-anchor="middle" x="1265.5" y="-560.8" font-family="Times,serif" font-size="14.00">Git sub&#45;</text>
<text text-anchor="middle" x="1265.5" y="-545.8" font-family="Times,serif" font-size="14.00">module</text>
</g>
<!-- _GH__CASEWORK__CASE_IMPLEMENTATON_EXIFTOOL -->
<g id="node4" class="node">
<title>_GH__CASEWORK__CASE_IMPLEMENTATON_EXIFTOOL</title>
<g id="a_node4"><a xlink:href="https://github.com/casework/CASE-Implementation-ExifTool" xlink:title="CASE&#45;Implementation&#45;ExifTool\nadopts new case&#45;utils">
<path fill="#8ec7d2" stroke="#0d6986" d="M834,-335C834,-335 662,-335 662,-335 656,-335 650,-329 650,-323 650,-323 650,-309 650,-309 650,-303 656,-297 662,-297 662,-297 834,-297 834,-297 840,-297 846,-303 846,-309 846,-309 846,-323 846,-323 846,-329 840,-335 834,-335"/>
<text text-anchor="middle" x="748" y="-319.8" font-family="Times,serif" font-size="14.00">CASE&#45;Implementation&#45;ExifTool</text>
<text text-anchor="middle" x="748" y="-304.8" font-family="Times,serif" font-size="14.00">adopts new case&#45;utils</text>
</a>
</g>
</g>
<!-- _GH__CASEWORK__CASE_IMPLEMENTATON_GNU_TIME -->
<g id="node5" class="node">
<title>_GH__CASEWORK__CASE_IMPLEMENTATON_GNU_TIME</title>
<g id="a_node5"><a xlink:href="https://github.com/casework/CASE-Implementation-GNU-Time" xlink:title="CASE&#45;Implementation&#45;GNU&#45;Time\nadopts new case&#45;utils">
<path fill="#8ec7d2" stroke="#0d6986" d="M841,-447C841,-447 655,-447 655,-447 649,-447 643,-441 643,-435 643,-435 643,-421 643,-421 643,-415 649,-409 655,-409 655,-409 841,-409 841,-409 847,-409 853,-415 853,-421 853,-421 853,-435 853,-435 853,-441 847,-447 841,-447"/>
<text text-anchor="middle" x="748" y="-431.8" font-family="Times,serif" font-size="14.00">CASE&#45;Implementation&#45;GNU&#45;Time</text>
<text text-anchor="middle" x="748" y="-416.8" font-family="Times,serif" font-size="14.00">adopts new case&#45;utils</text>
</a>
</g>
</g>
<!-- _GH__CASEWORK__CASEWORK_GITHUB_IO -->
<g id="node6" class="node">
<title>_GH__CASEWORK__CASEWORK_GITHUB_IO</title>
<g id="a_node6"><a xlink:href="https://github.com/casework/casework.github.io" xlink:title="CASE website\nadopts new case&#45;utils">
<path fill="#8ec7d2" stroke="#0d6986" d="M802.5,-391C802.5,-391 693.5,-391 693.5,-391 687.5,-391 681.5,-385 681.5,-379 681.5,-379 681.5,-365 681.5,-365 681.5,-359 687.5,-353 693.5,-353 693.5,-353 802.5,-353 802.5,-353 808.5,-353 814.5,-359 814.5,-365 814.5,-365 814.5,-379 814.5,-379 814.5,-385 808.5,-391 802.5,-391"/>
<text text-anchor="middle" x="748" y="-375.8" font-family="Times,serif" font-size="14.00">CASE website</text>
<text text-anchor="middle" x="748" y="-360.8" font-family="Times,serif" font-size="14.00">adopts new case&#45;utils</text>
</a>
</g>
</g>
<!-- _GH__CASEWORK__CASEWORK_GITHUB_IO&#45;&gt;_GH__AJNELSON_NIST__CASE_EXAMPLES_QC -->
<g id="edge14" class="edge">
<title>_GH__CASEWORK__CASEWORK_GITHUB_IO&#45;&gt;_GH__AJNELSON_NIST__CASE_EXAMPLES_QC</title>
<path fill="none" stroke="black" d="M814.82,-367.4C866.05,-363.82 937.91,-358.8 995.69,-354.76"/>
<polygon fill="black" stroke="black" points="995.8,-358.26 1005.54,-354.08 995.32,-351.28 995.8,-358.26"/>
<text text-anchor="middle" x="910.5" y="-380.8" font-family="Times,serif" font-size="14.00">Git sub&#45;</text>
<text text-anchor="middle" x="910.5" y="-365.8" font-family="Times,serif" font-size="14.00">module</text>
</g>
<!-- _GH__CASEWORK__CASE_CORPORA -->
<g id="node7" class="node">
<title>_GH__CASEWORK__CASE_CORPORA</title>
<g id="a_node7"><a xlink:href="https://github.com/casework/CASE-Corpora" xlink:title="CASE&#45;Corpora\nadopts new case&#45;prov">
<path fill="#8ec7d2" stroke="#0d6986" d="M1560,-749C1560,-749 1450,-749 1450,-749 1444,-749 1438,-743 1438,-737 1438,-737 1438,-723 1438,-723 1438,-717 1444,-711 1450,-711 1450,-711 1560,-711 1560,-711 1566,-711 1572,-717 1572,-723 1572,-723 1572,-737 1572,-737 1572,-743 1566,-749 1560,-749"/>
<text text-anchor="middle" x="1505" y="-733.8" font-family="Times,serif" font-size="14.00">CASE&#45;Corpora</text>
<text text-anchor="middle" x="1505" y="-718.8" font-family="Times,serif" font-size="14.00">adopts new case&#45;prov</text>
</a>
</g>
</g>
<!-- _GH__CASEWORK__CASE_IMPLEMENTATON_PROV_O&#45;&gt;_GH__CASEWORK__CASE_CORPORA -->
<g id="edge6" class="edge">
<title>_GH__CASEWORK__CASE_IMPLEMENTATON_PROV_O&#45;&gt;_GH__CASEWORK__CASE_CORPORA</title>
<path fill="none" stroke="black" d="M1375.17,-730C1390.03,-730 1408.18,-730 1426.11,-730"/>
<polygon fill="black" stroke="black" points="1426,-733.5 1436,-730 1426,-726.5 1426,-733.5"/>
<text text-anchor="middle" x="1406.5" y="-733.8" font-family="Times,serif" font-size="14.00">PyPI</text>
</g>
<!-- _GH__CASEWORK__CASE_IMPLEMENTATON_UFED_XML -->
<g id="node9" class="node">
<title>_GH__CASEWORK__CASE_IMPLEMENTATON_UFED_XML</title>
<g id="a_node9"><a xlink:href="https://github.com/casework/CASE-Implementation-UFED-XML" xlink:title="CASE&#45;Implementation&#45;UFED&#45;XML\nadopts new case&#45;validation&#45;action">
<path fill="#8ec7d2" stroke="#0d6986" d="M1190.5,-877C1190.5,-877 996.5,-877 996.5,-877 990.5,-877 984.5,-871 984.5,-865 984.5,-865 984.5,-851 984.5,-851 984.5,-845 990.5,-839 996.5,-839 996.5,-839 1190.5,-839 1190.5,-839 1196.5,-839 1202.5,-845 1202.5,-851 1202.5,-851 1202.5,-865 1202.5,-865 1202.5,-871 1196.5,-877 1190.5,-877"/>
<text text-anchor="middle" x="1093.5" y="-861.8" font-family="Times,serif" font-size="14.00">CASE&#45;Implementation&#45;UFED&#45;XML</text>
<text text-anchor="middle" x="1093.5" y="-846.8" font-family="Times,serif" font-size="14.00">adopts new case&#45;validation&#45;action</text>
</a>
</g>
</g>
<!-- _GH__CASEWORK__CASE_IMPLEMENTATON_PYPI_EXIFREAD -->
<g id="node10" class="node">
<title>_GH__CASEWORK__CASE_IMPLEMENTATON_PYPI_EXIFREAD</title>
<g id="a_node10"><a xlink:href="https://github.com/casework/CASE-Implementation-PyPI-Exifread" xlink:title="CASE&#45;Implementation&#45;PyPI&#45;Exifread\nadopts new case&#45;validation&#45;action">
<path fill="#8ec7d2" stroke="#0d6986" d="M1193.5,-501C1193.5,-501 993.5,-501 993.5,-501 987.5,-501 981.5,-495 981.5,-489 981.5,-489 981.5,-475 981.5,-475 981.5,-469 987.5,-463 993.5,-463 993.5,-463 1193.5,-463 1193.5,-463 1199.5,-463 1205.5,-469 1205.5,-475 1205.5,-475 1205.5,-489 1205.5,-489 1205.5,-495 1199.5,-501 1193.5,-501"/>
<text text-anchor="middle" x="1093.5" y="-485.8" font-family="Times,serif" font-size="14.00">CASE&#45;Implementation&#45;PyPI&#45;Exifread</text>
<text text-anchor="middle" x="1093.5" y="-470.8" font-family="Times,serif" font-size="14.00">adopts new case&#45;validation&#45;action</text>
</a>
</g>
</g>
<!-- _GH__CASEWORK__CASE_IMPLEMENTATON_PYPI_PILLOW -->
<g id="node11" class="node">
<title>_GH__CASEWORK__CASE_IMPLEMENTATON_PYPI_PILLOW</title>
<g id="a_node11"><a xlink:href="https://github.com/casework/CASE-Implementation-PyPI-Pillow" xlink:title="CASE&#45;Implementation&#45;PyPI&#45;Pillow\nadopts new case&#45;validation&#45;action">
<path fill="#8ec7d2" stroke="#0d6986" d="M1188,-557C1188,-557 999,-557 999,-557 993,-557 987,-551 987,-545 987,-545 987,-531 987,-531 987,-525 993,-519 999,-519 999,-519 1188,-519 1188,-519 1194,-519 1200,-525 1200,-531 1200,-531 1200,-545 1200,-545 1200,-551 1194,-557 1188,-557"/>
<text text-anchor="middle" x="1093.5" y="-541.8" font-family="Times,serif" font-size="14.00">CASE&#45;Implementation&#45;PyPI&#45;Pillow</text>
<text text-anchor="middle" x="1093.5" y="-526.8" font-family="Times,serif" font-size="14.00">adopts new case&#45;validation&#45;action</text>
</a>
</g>
</g>
<!-- _GH__CASEWORK__CASE_IMPLEMENTATON_XRY -->
<g id="node12" class="node">
<title>_GH__CASEWORK__CASE_IMPLEMENTATON_XRY</title>
<g id="a_node12"><a xlink:href="https://github.com/casework/CASE-Implementation-XRY" xlink:title="CASE&#45;Implementation&#45;XRY adopts\nnew case&#45;validation&#45;action">
<path fill="#8ec7d2" stroke="#0d6986" d="M1188.5,-613C1188.5,-613 998.5,-613 998.5,-613 992.5,-613 986.5,-607 986.5,-601 986.5,-601 986.5,-587 986.5,-587 986.5,-581 992.5,-575 998.5,-575 998.5,-575 1188.5,-575 1188.5,-575 1194.5,-575 1200.5,-581 1200.5,-587 1200.5,-587 1200.5,-601 1200.5,-601 1200.5,-607 1194.5,-613 1188.5,-613"/>
<text text-anchor="middle" x="1093.5" y="-597.8" font-family="Times,serif" font-size="14.00">CASE&#45;Implementation&#45;XRY adopts</text>
<text text-anchor="middle" x="1093.5" y="-582.8" font-family="Times,serif" font-size="14.00">new case&#45;validation&#45;action</text>
</a>
</g>
</g>
<!-- _GH__CASEWORK__CASE_MAPPING_TEMPLATE_PYTHON -->
<g id="node13" class="node">
<title>_GH__CASEWORK__CASE_MAPPING_TEMPLATE_PYTHON</title>
<g id="a_node13"><a xlink:href="https://github.com/casework/CASE-Mapping-Template-Python" xlink:title="CASE&#45;Mapping&#45;Template&#45;Python\nadopts new case&#45;validation&#45;action">
<path fill="#8ec7d2" stroke="#0d6986" d="M1183.5,-669C1183.5,-669 1003.5,-669 1003.5,-669 997.5,-669 991.5,-663 991.5,-657 991.5,-657 991.5,-643 991.5,-643 991.5,-637 997.5,-631 1003.5,-631 1003.5,-631 1183.5,-631 1183.5,-631 1189.5,-631 1195.5,-637 1195.5,-643 1195.5,-643 1195.5,-657 1195.5,-657 1195.5,-663 1189.5,-669 1183.5,-669"/>
<text text-anchor="middle" x="1093.5" y="-653.8" font-family="Times,serif" font-size="14.00">CASE&#45;Mapping&#45;Template&#45;Python</text>
<text text-anchor="middle" x="1093.5" y="-638.8" font-family="Times,serif" font-size="14.00">adopts new case&#45;validation&#45;action</text>
</a>
</g>
</g>
<!-- _GH__KCHASON__CASE_VALIDATION_ACTION -->
<g id="node14" class="node">
<title>_GH__KCHASON__CASE_VALIDATION_ACTION</title>
<g id="a_node14"><a xlink:href="https://github.com/kchason/case-validation-action" xlink:title="case&#45;validation&#45;action\nreleases">
<path fill="#8ec7d2" stroke="#0d6986" d="M804,-632C804,-632 692,-632 692,-632 686,-632 680,-626 680,-620 680,-620 680,-606 680,-606 680,-600 686,-594 692,-594 692,-594 804,-594 804,-594 810,-594 816,-600 816,-606 816,-606 816,-620 816,-620 816,-626 810,-632 804,-632"/>
<text text-anchor="middle" x="748" y="-616.8" font-family="Times,serif" font-size="14.00">case&#45;validation&#45;action</text>
<text text-anchor="middle" x="748" y="-601.8" font-family="Times,serif" font-size="14.00">releases</text>
</a>
</g>
</g>
<!-- _GH__KCHASON__CASE_VALIDATION_ACTION&#45;&gt;_GH__CASEWORK__CASE_IMPLEMENTATON_UFED_XML -->
<g id="edge19" class="edge">
<title>_GH__KCHASON__CASE_VALIDATION_ACTION&#45;&gt;_GH__CASEWORK__CASE_IMPLEMENTATON_UFED_XML</title>
<path fill="none" stroke="black" d="M777.87,-632.45C801.76,-650.11 834.65,-678.34 853,-711 871.91,-744.67 844.59,-767.83 871,-796 897.54,-824.3 935.84,-840.05 973.15,-848.7"/>
<polygon fill="black" stroke="black" points="972.17,-852.07 982.68,-850.74 973.63,-845.22 972.17,-852.07"/>
<text text-anchor="middle" x="910.5" y="-860.8" font-family="Times,serif" font-size="14.00">GitHub</text>
<text text-anchor="middle" x="910.5" y="-845.8" font-family="Times,serif" font-size="14.00">Action</text>
</g>
<!-- _GH__KCHASON__CASE_VALIDATION_ACTION&#45;&gt;_GH__CASEWORK__CASE_IMPLEMENTATON_PYPI_EXIFREAD -->
<g id="edge17" class="edge">
<title>_GH__KCHASON__CASE_VALIDATION_ACTION&#45;&gt;_GH__CASEWORK__CASE_IMPLEMENTATON_PYPI_EXIFREAD</title>
<path fill="none" stroke="black" d="M816.24,-609.99C829.98,-606.37 843.21,-600.21 853,-590 884.57,-557.1 836.51,-518.83 871,-489 886.46,-475.63 927.25,-472.15 969.67,-472.66"/>
<polygon fill="black" stroke="black" points="969.48,-476.16 979.55,-472.86 969.62,-469.16 969.48,-476.16"/>
<text text-anchor="middle" x="910.5" y="-507.8" font-family="Times,serif" font-size="14.00">GitHub</text>
<text text-anchor="middle" x="910.5" y="-492.8" font-family="Times,serif" font-size="14.00">Action</text>
</g>
<!-- _GH__KCHASON__CASE_VALIDATION_ACTION&#45;&gt;_GH__CASEWORK__CASE_IMPLEMENTATON_PYPI_PILLOW -->
<g id="edge18" class="edge">
<title>_GH__KCHASON__CASE_VALIDATION_ACTION&#45;&gt;_GH__CASEWORK__CASE_IMPLEMENTATON_PYPI_PILLOW</title>
<path fill="none" stroke="black" d="M816.4,-607.6C829.57,-604.05 842.53,-598.52 853,-590 868.12,-577.7 854.92,-561.02 871,-550 901.15,-529.33 939.4,-522.33 975.59,-521.72"/>
<polygon fill="black" stroke="black" points="975.23,-525.22 985.23,-521.73 975.24,-518.22 975.23,-525.22"/>
<text text-anchor="middle" x="910.5" y="-568.8" font-family="Times,serif" font-size="14.00">GitHub</text>
<text text-anchor="middle" x="910.5" y="-553.8" font-family="Times,serif" font-size="14.00">Action</text>
</g>
<!-- _GH__KCHASON__CASE_VALIDATION_ACTION&#45;&gt;_GH__CASEWORK__CASE_IMPLEMENTATON_XRY -->
<g id="edge20" class="edge">
<title>_GH__KCHASON__CASE_VALIDATION_ACTION&#45;&gt;_GH__CASEWORK__CASE_IMPLEMENTATON_XRY</title>
<path fill="none" stroke="black" d="M816.38,-596.66C834.05,-593.07 853.15,-589.81 871,-588 904.61,-584.59 941.23,-584.23 974.84,-585.22"/>
<polygon fill="black" stroke="black" points="974.48,-588.71 984.6,-585.56 974.72,-581.71 974.48,-588.71"/>
<text text-anchor="middle" x="910.5" y="-606.8" font-family="Times,serif" font-size="14.00">GitHub</text>
<text text-anchor="middle" x="910.5" y="-591.8" font-family="Times,serif" font-size="14.00">Action</text>
</g>
<!-- _GH__KCHASON__CASE_VALIDATION_ACTION&#45;&gt;_GH__CASEWORK__CASE_MAPPING_TEMPLATE_PYTHON -->
<g id="edge21" class="edge">
<title>_GH__KCHASON__CASE_VALIDATION_ACTION&#45;&gt;_GH__CASEWORK__CASE_MAPPING_TEMPLATE_PYTHON</title>
<path fill="none" stroke="black" d="M816.45,-620.27C862.97,-625.28 925.91,-632.06 979.94,-637.88"/>
<polygon fill="black" stroke="black" points="979.51,-641.35 989.82,-638.94 980.26,-634.39 979.51,-641.35"/>
<text text-anchor="middle" x="910.5" y="-651.8" font-family="Times,serif" font-size="14.00">GitHub</text>
<text text-anchor="middle" x="910.5" y="-636.8" font-family="Times,serif" font-size="14.00">Action</text>
</g>
<!-- _GH__CASEWORK__CASE_BINDINGS_CSHARP_MONITOR -->
<g id="node15" class="node">
<title>_GH__CASEWORK__CASE_BINDINGS_CSHARP_MONITOR</title>
<g id="a_node15"><a xlink:href="https://github.com/casework/CASE-Bindings-CSharp-Monitor" xlink:title="CASE Bindings CSharp Monitor\ntests NuGet package with validation action">
<path fill="#8ec7d2" stroke="#0d6986" d="M1207,-761C1207,-761 980,-761 980,-761 974,-761 968,-755 968,-749 968,-749 968,-735 968,-735 968,-729 974,-723 980,-723 980,-723 1207,-723 1207,-723 1213,-723 1219,-729 1219,-735 1219,-735 1219,-749 1219,-749 1219,-755 1213,-761 1207,-761"/>
<text text-anchor="middle" x="1093.5" y="-745.8" font-family="Times,serif" font-size="14.00">CASE Bindings CSharp Monitor</text>
<text text-anchor="middle" x="1093.5" y="-730.8" font-family="Times,serif" font-size="14.00">tests NuGet package with validation action</text>
</a>
</g>
</g>
<!-- _GH__KCHASON__CASE_VALIDATION_ACTION&#45;&gt;_GH__CASEWORK__CASE_BINDINGS_CSHARP_MONITOR -->
<g id="edge16" class="edge">
<title>_GH__KCHASON__CASE_VALIDATION_ACTION&#45;&gt;_GH__CASEWORK__CASE_BINDINGS_CSHARP_MONITOR</title>
<path fill="none" stroke="black" d="M793.59,-632.42C834.78,-650.75 897.36,-679.58 950,-708 956.32,-711.41 958.38,-714.08 967.44,-718.25"/>
<polygon fill="black" stroke="black" points="966.07,-721.48 976.66,-722 968.71,-714.99 966.07,-721.48"/>
<text text-anchor="middle" x="910.5" y="-726.8" font-family="Times,serif" font-size="14.00">GitHub</text>
<text text-anchor="middle" x="910.5" y="-711.8" font-family="Times,serif" font-size="14.00">Action</text>
</g>
<!-- _GH__DOD_CYBER_CRIME_CENTER__SQLITE_DISSECT -->
<g id="node22" class="node">
<title>_GH__DOD_CYBER_CRIME_CENTER__SQLITE_DISSECT</title>
<g id="a_node22"><a xlink:href="https://github.com/dod-cyber-crime-center/sqlite-dissect" xlink:title="sqlite&#45;dissect\nadopts new case&#45;validation&#45;action">
<path fill="#8ec7d2" stroke="#0d6986" d="M1182,-1047C1182,-1047 1005,-1047 1005,-1047 999,-1047 993,-1041 993,-1035 993,-1035 993,-1021 993,-1021 993,-1015 999,-1009 1005,-1009 1005,-1009 1182,-1009 1182,-1009 1188,-1009 1194,-1015 1194,-1021 1194,-1021 1194,-1035 1194,-1035 1194,-1041 1188,-1047 1182,-1047"/>
<text text-anchor="middle" x="1093.5" y="-1031.8" font-family="Times,serif" font-size="14.00">sqlite&#45;dissect</text>
<text text-anchor="middle" x="1093.5" y="-1016.8" font-family="Times,serif" font-size="14.00">adopts new case&#45;validation&#45;action</text>
</a>
</g>
</g>
<!-- _GH__KCHASON__CASE_VALIDATION_ACTION&#45;&gt;_GH__DOD_CYBER_CRIME_CENTER__SQLITE_DISSECT -->
<g id="edge22" class="edge">
<title>_GH__KCHASON__CASE_VALIDATION_ACTION&#45;&gt;_GH__DOD_CYBER_CRIME_CENTER__SQLITE_DISSECT</title>
<g id="a_edge22"><a xlink:href="https://github.com/dod-cyber-crime-center/sqlite-dissect/pull/31" xlink:title="TODO: PR 31">
<path fill="none" stroke="black" d="M779.2,-632.36C803.56,-649.77 836.42,-677.69 853,-711 885.87,-777.04 833.14,-812.69 871,-876 907.73,-937.41 980,-979.81 1032.01,-1003.93"/>
<polygon fill="black" stroke="black" points="1030.52,-1007.09 1041.07,-1008.03 1033.4,-1000.72 1030.52,-1007.09"/>
</a>
</g>
<g id="a_edge22&#45;label"><a xlink:href="https://github.com/dod-cyber-crime-center/sqlite-dissect/pull/31" xlink:title="TODO: PR 31">
<text text-anchor="middle" x="910.5" y="-957.8" font-family="Times,serif" font-size="14.00">TODO: PR 31</text>
</a>
</g>
</g>
<!-- _GH__CIPHERTECHSOLUTIONS__CASE_BINDINGS_CSHARP -->
<g id="node16" class="node">
<title>_GH__CIPHERTECHSOLUTIONS__CASE_BINDINGS_CSHARP</title>
<g id="a_node16"><a xlink:href="https://github.com/ciphertechsolutions/CASE-Bindings-CSharp" xlink:title="CASE&#45;Bindings&#45;CSharp\nadopts new ontology version">
<path fill="#8ec7d2" stroke="#0d6986" d="M822.5,-761C822.5,-761 673.5,-761 673.5,-761 667.5,-761 661.5,-755 661.5,-749 661.5,-749 661.5,-735 661.5,-735 661.5,-729 667.5,-723 673.5,-723 673.5,-723 822.5,-723 822.5,-723 828.5,-723 834.5,-729 834.5,-735 834.5,-735 834.5,-749 834.5,-749 834.5,-755 828.5,-761 822.5,-761"/>
<text text-anchor="middle" x="748" y="-745.8" font-family="Times,serif" font-size="14.00">CASE&#45;Bindings&#45;CSharp</text>
<text text-anchor="middle" x="748" y="-730.8" font-family="Times,serif" font-size="14.00">adopts new ontology version</text>
</a>
</g>
</g>
<!-- _GH__CIPHERTECHSOLUTIONS__CASE_BINDINGS_CSHARP&#45;&gt;_GH__CASEWORK__CASE_BINDINGS_CSHARP_MONITOR -->
<g id="edge15" class="edge">
<title>_GH__CIPHERTECHSOLUTIONS__CASE_BINDINGS_CSHARP&#45;&gt;_GH__CASEWORK__CASE_BINDINGS_CSHARP_MONITOR</title>
<path fill="none" stroke="black" d="M834.79,-742C871.48,-742 915.23,-742 956.16,-742"/>
<polygon fill="black" stroke="black" points="956.11,-745.5 966.11,-742 956.11,-738.5 956.11,-745.5"/>
<text text-anchor="middle" x="910.5" y="-745.8" font-family="Times,serif" font-size="14.00">NuGet</text>
</g>
<!-- _GH__UCOPROJECT__UCO -->
<g id="node17" class="node">
<title>_GH__UCOPROJECT__UCO</title>
<g id="a_node17"><a xlink:href="https://github.com/ucoProject/UCO" xlink:title="UCO Ontology\nreleases">
<path fill="#8ec7d2" stroke="#0d6986" d="M104,-226C104,-226 28,-226 28,-226 22,-226 16,-220 16,-214 16,-214 16,-200 16,-200 16,-194 22,-188 28,-188 28,-188 104,-188 104,-188 110,-188 116,-194 116,-200 116,-200 116,-214 116,-214 116,-220 110,-226 104,-226"/>
<text text-anchor="middle" x="66" y="-210.8" font-family="Times,serif" font-size="14.00">UCO Ontology</text>
<text text-anchor="middle" x="66" y="-195.8" font-family="Times,serif" font-size="14.00">releases</text>
</a>
</g>
</g>
<!-- _GH__UCOPROJECT__UCO&#45;&gt;_GH__UCOPROJECT__ONTOLOGY_UNIFIEDCYBERONTOLOGY_ORG -->
<g id="edge24" class="edge">
<title>_GH__UCOPROJECT__UCO&#45;&gt;_GH__UCOPROJECT__ONTOLOGY_UNIFIEDCYBERONTOLOGY_ORG</title>
<path fill="none" stroke="black" d="M109.97,-226.5C141.68,-240.88 185.02,-260.54 218.9,-275.91"/>
<polygon fill="black" stroke="black" points="217.15,-278.96 227.7,-279.9 220.04,-272.59 217.15,-278.96"/>
<text text-anchor="middle" x="156.5" y="-274.8" font-family="Times,serif" font-size="14.00">Git sub&#45;</text>
<text text-anchor="middle" x="156.5" y="-259.8" font-family="Times,serif" font-size="14.00">module</text>
</g>
<!-- _GH__CASEWORK__CASE -->
<g id="node18" class="node">
<title>_GH__CASEWORK__CASE</title>
<g id="a_node18"><a xlink:href="https://github.com/casework/CASE" xlink:title="CASE Ontology\nreleases">
<path fill="#8ec7d2" stroke="#0d6986" d="M314,-192C314,-192 232,-192 232,-192 226,-192 220,-186 220,-180 220,-180 220,-166 220,-166 220,-160 226,-154 232,-154 232,-154 314,-154 314,-154 320,-154 326,-160 326,-166 326,-166 326,-180 326,-180 326,-186 320,-192 314,-192"/>
<text text-anchor="middle" x="273" y="-176.8" font-family="Times,serif" font-size="14.00">CASE Ontology</text>
<text text-anchor="middle" x="273" y="-161.8" font-family="Times,serif" font-size="14.00">releases</text>
</a>
</g>
</g>
<!-- _GH__UCOPROJECT__UCO&#45;&gt;_GH__CASEWORK__CASE -->
<g id="edge23" class="edge">
<title>_GH__UCOPROJECT__UCO&#45;&gt;_GH__CASEWORK__CASE</title>
<path fill="none" stroke="black" d="M116.36,-198.81C144.1,-194.21 179.01,-188.42 208.73,-183.49"/>
<polygon fill="black" stroke="black" points="209.06,-186.99 218.35,-181.9 207.91,-180.08 209.06,-186.99"/>
<text text-anchor="middle" x="156.5" y="-213.8" font-family="Times,serif" font-size="14.00">Git sub&#45;</text>
<text text-anchor="middle" x="156.5" y="-198.8" font-family="Times,serif" font-size="14.00">module</text>
</g>
<!-- _GH__CASEWORK__CASE&#45;&gt;_GH__CIPHERTECHSOLUTIONS__CASE_BINDINGS_CSHARP -->
<g id="edge3" class="edge">
<title>_GH__CASEWORK__CASE&#45;&gt;_GH__CIPHERTECHSOLUTIONS__CASE_BINDINGS_CSHARP</title>
<path fill="none" stroke="black" d="M292.62,-192.34C310.24,-211.12 336.9,-240.85 357,-269 491.48,-457.35 429.4,-586.29 619,-719 628.46,-725.62 639.25,-730.52 650.46,-734.11"/>
<polygon fill="black" stroke="black" points="649.28,-737.41 659.86,-736.76 651.18,-730.67 649.28,-737.41"/>
</g>
<!-- _GH__CASEWORK__ONTOLOGY_CASEONTOLOGY_ORG -->
<g id="node19" class="node">
<title>_GH__CASEWORK__ONTOLOGY_CASEONTOLOGY_ORG</title>
<g id="a_node19"><a xlink:href="https://github.com/casework/ontology.caseontology.org" xlink:title="CASE documentation\nregenerated">
<path fill="#8ec7d2" stroke="#0d6986" d="M554,-116C554,-116 442,-116 442,-116 436,-116 430,-110 430,-104 430,-104 430,-90 430,-90 430,-84 436,-78 442,-78 442,-78 554,-78 554,-78 560,-78 566,-84 566,-90 566,-90 566,-104 566,-104 566,-110 560,-116 554,-116"/>
<text text-anchor="middle" x="498" y="-100.8" font-family="Times,serif" font-size="14.00">CASE documentation</text>
<text text-anchor="middle" x="498" y="-85.8" font-family="Times,serif" font-size="14.00">regenerated</text>
</a>
</g>
</g>
<!-- _GH__CASEWORK__CASE&#45;&gt;_GH__CASEWORK__ONTOLOGY_CASEONTOLOGY_ORG -->
<g id="edge4" class="edge">
<title>_GH__CASEWORK__CASE&#45;&gt;_GH__CASEWORK__ONTOLOGY_CASEONTOLOGY_ORG</title>
<path fill="none" stroke="black" d="M308.49,-153.54C325.66,-144.48 346.98,-134.15 367,-127 383.37,-121.15 401.32,-116.15 418.51,-112.01"/>
<polygon fill="black" stroke="black" points="419.25,-115.43 428.2,-109.75 417.67,-108.61 419.25,-115.43"/>
<text text-anchor="middle" x="389.5" y="-145.8" font-family="Times,serif" font-size="14.00">Git sub&#45;</text>
<text text-anchor="middle" x="389.5" y="-130.8" font-family="Times,serif" font-size="14.00">module</text>
</g>
<!-- _GH__CASEWORK__CASE_UTILITIES_PYTHON -->
<g id="node20" class="node">
<title>_GH__CASEWORK__CASE_UTILITIES_PYTHON</title>
<g id="a_node20"><a xlink:href="https://github.com/casework/CASE-Utilities-Python" xlink:title="case&#45;utils\nreleases">
<path fill="#8ec7d2" stroke="#0d6986" d="M520,-172C520,-172 476,-172 476,-172 470,-172 464,-166 464,-160 464,-160 464,-146 464,-146 464,-140 470,-134 476,-134 476,-134 520,-134 520,-134 526,-134 532,-140 532,-146 532,-146 532,-160 532,-160 532,-166 526,-172 520,-172"/>
<text text-anchor="middle" x="498" y="-156.8" font-family="Times,serif" font-size="14.00">case&#45;utils</text>
<text text-anchor="middle" x="498" y="-141.8" font-family="Times,serif" font-size="14.00">releases</text>
</a>
</g>
</g>
<!-- _GH__CASEWORK__CASE&#45;&gt;_GH__CASEWORK__CASE_UTILITIES_PYTHON -->
<g id="edge2" class="edge">
<title>_GH__CASEWORK__CASE&#45;&gt;_GH__CASEWORK__CASE_UTILITIES_PYTHON</title>
<path fill="none" stroke="black" d="M326.28,-168.31C364.62,-164.87 416.11,-160.26 452.48,-156.99"/>
<polygon fill="black" stroke="black" points="452.57,-160.5 462.22,-156.12 451.95,-153.53 452.57,-160.5"/>
<text text-anchor="middle" x="389.5" y="-182.8" font-family="Times,serif" font-size="14.00">Git sub&#45;</text>
<text text-anchor="middle" x="389.5" y="-167.8" font-family="Times,serif" font-size="14.00">module</text>
</g>
<!-- _GH__CASEWORK__CASE_UTILITIES_PYTHON&#45;&gt;_GH__AJNELSON_NIST__CASE_EXAMPLES_QC -->
<g id="edge7" class="edge">
<title>_GH__CASEWORK__CASE_UTILITIES_PYTHON&#45;&gt;_GH__AJNELSON_NIST__CASE_EXAMPLES_QC</title>
<path fill="none" stroke="black" d="M532.47,-141.73C543.2,-138.06 555.12,-133.92 566,-130 589.69,-121.47 594.23,-114.52 619,-110 721.31,-91.34 756.85,-70.35 853,-110 952.69,-151.11 1032.78,-256.03 1069.96,-311.83"/>
<polygon fill="black" stroke="black" points="1066.94,-313.62 1075.36,-320.06 1072.8,-309.78 1066.94,-313.62"/>
<text text-anchor="middle" x="748" y="-113.8" font-family="Times,serif" font-size="14.00">PyPI</text>
</g>
<!-- _GH__CASEWORK__CASE_UTILITIES_PYTHON&#45;&gt;_GH__CASEWORK__CASE_IMPLEMENTATON_EXIFTOOL -->
<g id="edge9" class="edge">
<title>_GH__CASEWORK__CASE_UTILITIES_PYTHON&#45;&gt;_GH__CASEWORK__CASE_IMPLEMENTATON_EXIFTOOL</title>
<path fill="none" stroke="black" d="M528.42,-172.34C573.17,-201.75 658.37,-257.75 708.15,-290.47"/>
<polygon fill="black" stroke="black" points="706.07,-293.29 716.35,-295.86 709.92,-287.44 706.07,-293.29"/>
<text text-anchor="middle" x="597.5" y="-227.8" font-family="Times,serif" font-size="14.00">PyPI</text>
</g>
<!-- _GH__CASEWORK__CASE_UTILITIES_PYTHON&#45;&gt;_GH__CASEWORK__CASE_IMPLEMENTATON_GNU_TIME -->
<g id="edge10" class="edge">
<title>_GH__CASEWORK__CASE_UTILITIES_PYTHON&#45;&gt;_GH__CASEWORK__CASE_IMPLEMENTATON_GNU_TIME</title>
<path fill="none" stroke="black" d="M501.55,-172.3C509.11,-220.84 536.33,-347.87 619,-400 623.23,-402.67 627.67,-405.08 632.26,-407.27"/>
<polygon fill="black" stroke="black" points="630.57,-410.35 641.14,-411.1 633.35,-403.92 630.57,-410.35"/>
<text text-anchor="middle" x="597.5" y="-394.8" font-family="Times,serif" font-size="14.00">PyPI</text>
</g>
<!-- _GH__CASEWORK__CASE_UTILITIES_PYTHON&#45;&gt;_GH__CASEWORK__CASEWORK_GITHUB_IO -->
<g id="edge13" class="edge">
<title>_GH__CASEWORK__CASE_UTILITIES_PYTHON&#45;&gt;_GH__CASEWORK__CASEWORK_GITHUB_IO</title>
<path fill="none" stroke="black" d="M505.34,-172.28C519.22,-211.35 556.2,-299.87 619,-344 633.95,-354.51 652.12,-361.18 670.02,-365.38"/>
<polygon fill="black" stroke="black" points="669.11,-368.77 679.61,-367.39 670.54,-361.92 669.11,-368.77"/>
<text text-anchor="middle" x="597.5" y="-339.8" font-family="Times,serif" font-size="14.00">PyPI</text>
</g>
<!-- _GH__CASEWORK__CASE_UTILITIES_PYTHON&#45;&gt;_GH__CASEWORK__CASE_IMPLEMENTATON_PROV_O -->
<g id="edge11" class="edge">
<title>_GH__CASEWORK__CASE_UTILITIES_PYTHON&#45;&gt;_GH__CASEWORK__CASE_IMPLEMENTATON_PROV_O</title>
<path fill="none" stroke="black" d="M500.7,-172.3C509.38,-267.5 550.96,-686.87 619,-796 721.33,-960.13 784.4,-995.13 968,-1056 1080.64,-1093.34 1134.85,-1119.65 1235,-1056 1286.3,-1023.4 1322.34,-834.75 1334.75,-760.25"/>
<polygon fill="black" stroke="black" points="1338.14,-761.24 1336.3,-750.81 1331.23,-760.11 1338.14,-761.24"/>
<text text-anchor="middle" x="910.5" y="-1052.8" font-family="Times,serif" font-size="14.00">PyPI</text>
</g>
<!-- _GH__CASEWORK__CASE_UTILITIES_PYTHON&#45;&gt;_GH__KCHASON__CASE_VALIDATION_ACTION -->
<g id="edge12" class="edge">
<title>_GH__CASEWORK__CASE_UTILITIES_PYTHON&#45;&gt;_GH__KCHASON__CASE_VALIDATION_ACTION</title>
<path fill="none" stroke="black" d="M501.55,-172.24C512.12,-248.93 554.89,-531.43 619,-590 632.53,-602.36 650.34,-609.19 668.37,-612.76"/>
<polygon fill="black" stroke="black" points="667.65,-616.19 678.09,-614.34 668.78,-609.29 667.65,-616.19"/>
<text text-anchor="middle" x="597.5" y="-583.8" font-family="Times,serif" font-size="14.00">PyPI</text>
</g>
<!-- _GH__CASEWORK__CASE_EXAMPLES -->
<g id="node21" class="node">
<title>_GH__CASEWORK__CASE_EXAMPLES</title>
<g id="a_node21"><a xlink:href="https://github.com/casework/CASE-Examples" xlink:title="CASE&#45;Examples\nadopts new case&#45;utils">
<path fill="#8ec7d2" stroke="#0d6986" d="M802.5,-172C802.5,-172 693.5,-172 693.5,-172 687.5,-172 681.5,-166 681.5,-160 681.5,-160 681.5,-146 681.5,-146 681.5,-140 687.5,-134 693.5,-134 693.5,-134 802.5,-134 802.5,-134 808.5,-134 814.5,-140 814.5,-146 814.5,-146 814.5,-160 814.5,-160 814.5,-166 808.5,-172 802.5,-172"/>
<text text-anchor="middle" x="748" y="-156.8" font-family="Times,serif" font-size="14.00">CASE&#45;Examples</text>
<text text-anchor="middle" x="748" y="-141.8" font-family="Times,serif" font-size="14.00">adopts new case&#45;utils</text>
</a>
</g>
</g>
<!-- _GH__CASEWORK__CASE_UTILITIES_PYTHON&#45;&gt;_GH__CASEWORK__CASE_EXAMPLES -->
<g id="edge8" class="edge">
<title>_GH__CASEWORK__CASE_UTILITIES_PYTHON&#45;&gt;_GH__CASEWORK__CASE_EXAMPLES</title>
<path fill="none" stroke="black" d="M532.45,-153C567.43,-153 623.55,-153 669.62,-153"/>
<polygon fill="black" stroke="black" points="669.58,-156.5 679.58,-153 669.58,-149.5 669.58,-156.5"/>
<text text-anchor="middle" x="597.5" y="-156.8" font-family="Times,serif" font-size="14.00">PyPI</text>
</g>
<!-- _GH__CASEWORK__CASE_EXAMPLES&#45;&gt;_GH__AJNELSON_NIST__CASE_EXAMPLES_QC -->
<g id="edge5" class="edge">
<title>_GH__CASEWORK__CASE_EXAMPLES&#45;&gt;_GH__AJNELSON_NIST__CASE_EXAMPLES_QC</title>
<path fill="none" stroke="black" d="M783.19,-172.41C842.11,-205.85 963.34,-274.68 1035.29,-315.52"/>
<polygon fill="black" stroke="black" points="1033.36,-318.45 1043.79,-320.35 1036.82,-312.36 1033.36,-318.45"/>
<text text-anchor="middle" x="910.5" y="-280.8" font-family="Times,serif" font-size="14.00">Git sub&#45;</text>
<text text-anchor="middle" x="910.5" y="-265.8" font-family="Times,serif" font-size="14.00">module</text>
</g>
</g>
</svg>
