<?xml version="1.0" encoding="UTF-8" standalone="no"?>
<!DOCTYPE svg PUBLIC "-//W3C//DTD SVG 1.1//EN"
 "http://www.w3.org/Graphics/SVG/1.1/DTD/svg11.dtd">
<!-- Generated by graphviz version 8.0.3 (20230416.2022)
 -->
<!-- Title: cdo_release_flow Pages: 1 -->
<svg width="1740pt" height="1166pt"
 viewBox="0.00 0.00 1740.00 1166.00" xmlns="http://www.w3.org/2000/svg" xmlns:xlink="http://www.w3.org/1999/xlink">
<g id="graph0" class="graph" transform="scale(1 1) rotate(0) translate(4 1162)">
<title>cdo_release_flow</title>
<polygon fill="white" stroke="none" points="-4,4 -4,-1162 1736,-1162 1736,4 -4,4"/>
<text text-anchor="middle" x="866" y="-38.8" font-family="Times,serif" font-size="14.00">Release flow of CDO ontologies</text>
<text text-anchor="middle" x="866" y="-7.8" font-family="Times,serif" font-size="14.00">Nodes link to the respective Git repository.</text>
<g id="clust1" class="cluster">
<title>cluster_uco_0_9_1</title>
<polygon fill="none" stroke="black" points="0,-139 0,-255 168,-255 168,-139 0,-139"/>
<text text-anchor="middle" x="84" y="-239.8" font-family="Times,serif" font-size="14.00">Adoption of UCO 0.9.1</text>
</g>
<g id="clust2" class="cluster">
<title>cluster_case_0_7_1</title>
<polygon fill="none" stroke="black" points="8,-147 8,-224 160,-224 160,-147 8,-147"/>
<text text-anchor="middle" x="84" y="-208.8" font-family="Times,serif" font-size="14.00">Adoption of CASE 0.7.1</text>
</g>
<g id="clust3" class="cluster">
<title>cluster_uco_1_1_0</title>
<polygon fill="none" stroke="black" points="1067,-100 1067,-294 1355,-294 1355,-100 1067,-100"/>
<text text-anchor="middle" x="1211" y="-278.8" font-family="Times,serif" font-size="14.00">Adoption of UCO 1.1.0</text>
</g>
<g id="clust4" class="cluster">
<title>cluster_case_1_1_0</title>
<polygon fill="none" stroke="black" points="1075,-108 1075,-263 1347,-263 1347,-108 1075,-108"/>
<text text-anchor="middle" x="1211" y="-247.8" font-family="Times,serif" font-size="14.00">Adoption of CASE 1.1.0</text>
</g>
<g id="clust5" class="cluster">
<title>cluster_case_utils_0_9_0</title>
<polygon fill="none" stroke="black" points="1083,-116 1083,-232 1339,-232 1339,-116 1083,-116"/>
<text text-anchor="middle" x="1211" y="-216.8" font-family="Times,serif" font-size="14.00">Adoption of case&#45;utils 0.9.0</text>
</g>
<g id="clust6" class="cluster">
<title>cluster_case_validation_action_2_5</title>
<polygon fill="none" stroke="black" points="1091,-124 1091,-201 1331,-201 1331,-124 1091,-124"/>
<text text-anchor="middle" x="1211" y="-185.8" font-family="Times,serif" font-size="14.00">Adoption of case&#45;validation&#45;action 2.5</text>
</g>
<g id="clust7" class="cluster">
<title>cluster_uco_1_2_0</title>
<polygon fill="none" stroke="black" points="26,-302 26,-1150 1724,-1150 1724,-302 26,-302"/>
<text text-anchor="middle" x="875" y="-1134.8" font-family="Times,serif" font-size="14.00">Adoption of UCO 1.2.0</text>
</g>
<g id="clust8" class="cluster">
<title>cluster_case_1_2_0</title>
<polygon fill="none" stroke="black" points="245.5,-419 245.5,-1119 1716,-1119 1716,-419 245.5,-419"/>
<text text-anchor="middle" x="980.75" y="-1103.8" font-family="Times,serif" font-size="14.00">Adoption of CASE 1.2.0</text>
</g>
<g id="clust9" class="cluster">
<title>cluster_case_utils_0_10_0</title>
<polygon fill="none" stroke="black" points="744,-427 744,-1048 1708,-1048 1708,-427 744,-427"/>
<text text-anchor="middle" x="1226" y="-1032.8" font-family="Times,serif" font-size="14.00">Adoption of case&#45;utils 0.10.0</text>
</g>
<g id="clust10" class="cluster">
<title>cluster_case_prov_0_7_0</title>
<polygon fill="none" stroke="black" points="1418,-940 1418,-1017 1700,-1017 1700,-940 1418,-940"/>
<text text-anchor="middle" x="1559" y="-1001.8" font-family="Times,serif" font-size="14.00">Adoption of case&#45;prov 0.7.0</text>
</g>
<g id="clust11" class="cluster">
<title>cluster_case_validation_action_2_6</title>
<polygon fill="none" stroke="black" points="754.5,-435 754.5,-803 1352.5,-803 1352.5,-435 754.5,-435"/>
<text text-anchor="middle" x="1053.5" y="-787.8" font-family="Times,serif" font-size="14.00">Adoption of case&#45;validation&#45;action 2.6</text>
</g>
<g id="clust12" class="cluster">
<title>cluster_case_bindings_csharp_0_4_0</title>
<polygon fill="none" stroke="black" points="762.5,-695 762.5,-772 1344.5,-772 1344.5,-695 762.5,-695"/>
<text text-anchor="middle" x="1053.5" y="-756.8" font-family="Times,serif" font-size="14.00">Adoption of CSharp bindings 0.4.0</text>
</g>
<g id="clust13" class="cluster">
<title>cluster_case_utils_0_11_0</title>
<polygon fill="none" stroke="black" points="497,-886 497,-963 673,-963 673,-886 497,-886"/>
<text text-anchor="middle" x="585" y="-947.8" font-family="Times,serif" font-size="14.00">Adoption of case&#45;utils 0.11.0</text>
</g>
<!-- _GH__CASEWORK__CASE_MAPPING_TEMPLATE_STUBS -->
<g id="node1" class="node">
<title>_GH__CASEWORK__CASE_MAPPING_TEMPLATE_STUBS</title>
<g id="a_node1"><a xlink:href="https://github.com/casework/CASE-Mapping-Template-Stubs" xlink:title="CASE Mapping\nTemplate Stubs">
<path fill="#8ec7d2" stroke="#0d6986" d="M124,-193C124,-193 44,-193 44,-193 38,-193 32,-187 32,-181 32,-181 32,-167 32,-167 32,-161 38,-155 44,-155 44,-155 124,-155 124,-155 130,-155 136,-161 136,-167 136,-167 136,-181 136,-181 136,-187 130,-193 124,-193"/>
<text text-anchor="middle" x="84" y="-177.8" font-family="Times,serif" font-size="14.00">CASE Mapping</text>
<text text-anchor="middle" x="84" y="-162.8" font-family="Times,serif" font-size="14.00">Template Stubs</text>
</a>
</g>
</g>
<!-- _GH__CASEWORK__CASE_IMPLEMENTATON_PYPI_EXIFREAD -->
<g id="node2" class="node">
<title>_GH__CASEWORK__CASE_IMPLEMENTATON_PYPI_EXIFREAD</title>
<g id="a_node2"><a xlink:href="https://github.com/casework/CASE-Implementation-PyPI-Exifread" xlink:title="CASE&#45;Implementation&#45;PyPI&#45;Exifread\nadopts new case&#45;validation&#45;action">
<path fill="#8ec7d2" stroke="#0d6986" d="M1311,-170C1311,-170 1111,-170 1111,-170 1105,-170 1099,-164 1099,-158 1099,-158 1099,-144 1099,-144 1099,-138 1105,-132 1111,-132 1111,-132 1311,-132 1311,-132 1317,-132 1323,-138 1323,-144 1323,-144 1323,-158 1323,-158 1323,-164 1317,-170 1311,-170"/>
<text text-anchor="middle" x="1211" y="-154.8" font-family="Times,serif" font-size="14.00">CASE&#45;Implementation&#45;PyPI&#45;Exifread</text>
<text text-anchor="middle" x="1211" y="-139.8" font-family="Times,serif" font-size="14.00">adopts new case&#45;validation&#45;action</text>
</a>
</g>
</g>
<!-- _GH__UCOPROJECT__ONTOLOGY_UNIFIEDCYBERONTOLOGY_ORG -->
<g id="node3" class="node">
<title>_GH__UCOPROJECT__ONTOLOGY_UNIFIEDCYBERONTOLOGY_ORG</title>
<g id="a_node3"><a xlink:href="https://github.com/ucoProject/ontology.unifiedcyberontology.org" xlink:title="UCO documentation\nregenerated">
<path fill="#8ec7d2" stroke="#0d6986" d="M359.5,-411C359.5,-411 253.5,-411 253.5,-411 247.5,-411 241.5,-405 241.5,-399 241.5,-399 241.5,-385 241.5,-385 241.5,-379 247.5,-373 253.5,-373 253.5,-373 359.5,-373 359.5,-373 365.5,-373 371.5,-379 371.5,-385 371.5,-385 371.5,-399 371.5,-399 371.5,-405 365.5,-411 359.5,-411"/>
<text text-anchor="middle" x="306.5" y="-395.8" font-family="Times,serif" font-size="14.00">UCO documentation</text>
<text text-anchor="middle" x="306.5" y="-380.8" font-family="Times,serif" font-size="14.00">regenerated</text>
</a>
</g>
</g>
<!-- _GH__CASEWORK__ONTOLOGY_CASEONTOLOGY_ORG -->
<g id="node9" class="node">
<title>_GH__CASEWORK__ONTOLOGY_CASEONTOLOGY_ORG</title>
<g id="a_node9"><a xlink:href="https://github.com/casework/ontology.caseontology.org" xlink:title="CASE documentation\nregenerated">
<path fill="#8ec7d2" stroke="#0d6986" d="M641,-602C641,-602 529,-602 529,-602 523,-602 517,-596 517,-590 517,-590 517,-576 517,-576 517,-570 523,-564 529,-564 529,-564 641,-564 641,-564 647,-564 653,-570 653,-576 653,-576 653,-590 653,-590 653,-596 647,-602 641,-602"/>
<text text-anchor="middle" x="585" y="-586.8" font-family="Times,serif" font-size="14.00">CASE documentation</text>
<text text-anchor="middle" x="585" y="-571.8" font-family="Times,serif" font-size="14.00">regenerated</text>
</a>
</g>
</g>
<!-- _GH__UCOPROJECT__ONTOLOGY_UNIFIEDCYBERONTOLOGY_ORG&#45;&gt;_GH__CASEWORK__ONTOLOGY_CASEONTOLOGY_ORG -->
<g id="edge23" class="edge">
<title>_GH__UCOPROJECT__ONTOLOGY_UNIFIEDCYBERONTOLOGY_ORG&#45;&gt;_GH__CASEWORK__ONTOLOGY_CASEONTOLOGY_ORG</title>
<path fill="none" stroke="black" d="M368.35,-411.45C370.3,-412.58 372.19,-413.76 374,-415 443.74,-462.73 425.53,-514.9 497,-560 500.13,-561.98 503.43,-563.79 506.84,-565.44"/>
<polygon fill="black" stroke="black" points="505.12,-568.94 515.69,-569.7 507.9,-562.52 505.12,-568.94"/>
<text text-anchor="middle" x="427.5" y="-547.8" font-family="Times,serif" font-size="14.00">Tech&#45;</text>
<text text-anchor="middle" x="427.5" y="-532.8" font-family="Times,serif" font-size="14.00">check</text>
</g>
<!-- _GH__UCOPROJECT__UCO -->
<g id="node4" class="node">
<title>_GH__UCOPROJECT__UCO</title>
<g id="a_node4"><a xlink:href="https://github.com/ucoProject/UCO" xlink:title="UCO Ontology\nreleases">
<path fill="#8ec7d2" stroke="#0d6986" d="M122,-411C122,-411 46,-411 46,-411 40,-411 34,-405 34,-399 34,-399 34,-385 34,-385 34,-379 40,-373 46,-373 46,-373 122,-373 122,-373 128,-373 134,-379 134,-385 134,-385 134,-399 134,-399 134,-405 128,-411 122,-411"/>
<text text-anchor="middle" x="84" y="-395.8" font-family="Times,serif" font-size="14.00">UCO Ontology</text>
<text text-anchor="middle" x="84" y="-380.8" font-family="Times,serif" font-size="14.00">releases</text>
</a>
</g>
</g>
<!-- _GH__UCOPROJECT__UCO&#45;&gt;_GH__UCOPROJECT__ONTOLOGY_UNIFIEDCYBERONTOLOGY_ORG -->
<g id="edge25" class="edge">
<title>_GH__UCOPROJECT__UCO&#45;&gt;_GH__UCOPROJECT__ONTOLOGY_UNIFIEDCYBERONTOLOGY_ORG</title>
<path fill="none" stroke="black" d="M134.48,-392C162.65,-392 198.52,-392 230.12,-392"/>
<polygon fill="black" stroke="black" points="230.1,-395.5 240.1,-392 230.1,-388.5 230.1,-395.5"/>
<text text-anchor="middle" x="198.5" y="-410.8" font-family="Times,serif" font-size="14.00">Git sub&#45;</text>
<text text-anchor="middle" x="198.5" y="-395.8" font-family="Times,serif" font-size="14.00">module</text>
</g>
<!-- _GH__UCOPROJECT__UCO_PROFILE_EXAMPLE -->
<g id="node6" class="node">
<title>_GH__UCOPROJECT__UCO_PROFILE_EXAMPLE</title>
<g id="a_node6"><a xlink:href="https://github.com/ucoProject/UCO-Profile-Example" xlink:title="UCO example profile\nupdates">
<path fill="#8ec7d2" stroke="#0d6986" d="M362,-355C362,-355 251,-355 251,-355 245,-355 239,-349 239,-343 239,-343 239,-329 239,-329 239,-323 245,-317 251,-317 251,-317 362,-317 362,-317 368,-317 374,-323 374,-329 374,-329 374,-343 374,-343 374,-349 368,-355 362,-355"/>
<text text-anchor="middle" x="306.5" y="-339.8" font-family="Times,serif" font-size="14.00">UCO example profile</text>
<text text-anchor="middle" x="306.5" y="-324.8" font-family="Times,serif" font-size="14.00">updates</text>
</a>
</g>
</g>
<!-- _GH__UCOPROJECT__UCO&#45;&gt;_GH__UCOPROJECT__UCO_PROFILE_EXAMPLE -->
<g id="edge26" class="edge">
<title>_GH__UCOPROJECT__UCO&#45;&gt;_GH__UCOPROJECT__UCO_PROFILE_EXAMPLE</title>
<path fill="none" stroke="black" d="M131.68,-372.63C145.74,-367.32 161.34,-361.95 176,-358 192.69,-353.51 210.84,-349.75 228.13,-346.68"/>
<polygon fill="black" stroke="black" points="228.5,-350 237.76,-344.86 227.32,-343.1 228.5,-350"/>
<text text-anchor="middle" x="198.5" y="-376.8" font-family="Times,serif" font-size="14.00">Git sub&#45;</text>
<text text-anchor="middle" x="198.5" y="-361.8" font-family="Times,serif" font-size="14.00">module</text>
</g>
<!-- _GH__CASEWORK__CASE -->
<g id="node8" class="node">
<title>_GH__CASEWORK__CASE</title>
<g id="a_node8"><a xlink:href="https://github.com/casework/CASE" xlink:title="CASE Ontology\nreleases">
<path fill="#8ec7d2" stroke="#0d6986" d="M347.5,-684C347.5,-684 265.5,-684 265.5,-684 259.5,-684 253.5,-678 253.5,-672 253.5,-672 253.5,-658 253.5,-658 253.5,-652 259.5,-646 265.5,-646 265.5,-646 347.5,-646 347.5,-646 353.5,-646 359.5,-652 359.5,-658 359.5,-658 359.5,-672 359.5,-672 359.5,-678 353.5,-684 347.5,-684"/>
<text text-anchor="middle" x="306.5" y="-668.8" font-family="Times,serif" font-size="14.00">CASE Ontology</text>
<text text-anchor="middle" x="306.5" y="-653.8" font-family="Times,serif" font-size="14.00">releases</text>
</a>
</g>
</g>
<!-- _GH__UCOPROJECT__UCO&#45;&gt;_GH__CASEWORK__CASE -->
<g id="edge24" class="edge">
<title>_GH__UCOPROJECT__UCO&#45;&gt;_GH__CASEWORK__CASE</title>
<path fill="none" stroke="black" d="M91.69,-411.39C108.74,-458 158.26,-577.27 239,-642 240.61,-643.29 242.29,-644.51 244.04,-645.66"/>
<polygon fill="black" stroke="black" points="241.76,-648.97 252.18,-650.89 245.24,-642.89 241.76,-648.97"/>
<text text-anchor="middle" x="198.5" y="-638.8" font-family="Times,serif" font-size="14.00">Git sub&#45;</text>
<text text-anchor="middle" x="198.5" y="-623.8" font-family="Times,serif" font-size="14.00">module</text>
</g>
<!-- _GH__UCOPROJECT__UCO_PROFILE_BFO -->
<g id="node5" class="node">
<title>_GH__UCOPROJECT__UCO_PROFILE_BFO</title>
<g id="a_node5"><a xlink:href="https://github.com/ucoProject/UCO-Profile-BFO" xlink:title="UCO BFO profile\nupdates">
<path fill="#8ec7d2" stroke="#0d6986" d="M630.5,-404C630.5,-404 539.5,-404 539.5,-404 533.5,-404 527.5,-398 527.5,-392 527.5,-392 527.5,-378 527.5,-378 527.5,-372 533.5,-366 539.5,-366 539.5,-366 630.5,-366 630.5,-366 636.5,-366 642.5,-372 642.5,-378 642.5,-378 642.5,-392 642.5,-392 642.5,-398 636.5,-404 630.5,-404"/>
<text text-anchor="middle" x="585" y="-388.8" font-family="Times,serif" font-size="14.00">UCO BFO profile</text>
<text text-anchor="middle" x="585" y="-373.8" font-family="Times,serif" font-size="14.00">updates</text>
</a>
</g>
</g>
<!-- _GH__UCOPROJECT__UCO_PROFILE_EXAMPLE&#45;&gt;_GH__UCOPROJECT__UCO_PROFILE_BFO -->
<g id="edge27" class="edge">
<title>_GH__UCOPROJECT__UCO_PROFILE_EXAMPLE&#45;&gt;_GH__UCOPROJECT__UCO_PROFILE_BFO</title>
<path fill="none" stroke="black" d="M374.19,-355.02C380.19,-356.47 386.19,-357.82 392,-359 433.11,-367.34 479.72,-373.72 516.72,-378.08"/>
<polygon fill="black" stroke="black" points="516.05,-381.64 526.38,-379.31 516.85,-374.69 516.05,-381.64"/>
<text text-anchor="middle" x="427.5" y="-388.8" font-family="Times,serif" font-size="14.00">Git merge of</text>
<text text-anchor="middle" x="427.5" y="-373.8" font-family="Times,serif" font-size="14.00">base branch</text>
</g>
<!-- _GH__UCOPROJECT__UCO_PROFILE_FOAF -->
<g id="node7" class="node">
<title>_GH__UCOPROJECT__UCO_PROFILE_FOAF</title>
<g id="a_node7"><a xlink:href="https://github.com/ucoProject/UCO-Profile-FOAF" xlink:title="UCO FOAF profile\nupdates">
<path fill="#8ec7d2" stroke="#0d6986" d="M634.5,-348C634.5,-348 535.5,-348 535.5,-348 529.5,-348 523.5,-342 523.5,-336 523.5,-336 523.5,-322 523.5,-322 523.5,-316 529.5,-310 535.5,-310 535.5,-310 634.5,-310 634.5,-310 640.5,-310 646.5,-316 646.5,-322 646.5,-322 646.5,-336 646.5,-336 646.5,-342 640.5,-348 634.5,-348"/>
<text text-anchor="middle" x="585" y="-332.8" font-family="Times,serif" font-size="14.00">UCO FOAF profile</text>
<text text-anchor="middle" x="585" y="-317.8" font-family="Times,serif" font-size="14.00">updates</text>
</a>
</g>
</g>
<!-- _GH__UCOPROJECT__UCO_PROFILE_EXAMPLE&#45;&gt;_GH__UCOPROJECT__UCO_PROFILE_FOAF -->
<g id="edge28" class="edge">
<title>_GH__UCOPROJECT__UCO_PROFILE_EXAMPLE&#45;&gt;_GH__UCOPROJECT__UCO_PROFILE_FOAF</title>
<path fill="none" stroke="black" d="M374.35,-329.95C380.31,-329.56 386.26,-329.24 392,-329 431.69,-327.36 476.03,-327.25 512.1,-327.59"/>
<polygon fill="black" stroke="black" points="511.97,-331.1 522.01,-327.72 512.05,-324.1 511.97,-331.1"/>
<text text-anchor="middle" x="427.5" y="-347.8" font-family="Times,serif" font-size="14.00">Git merge of</text>
<text text-anchor="middle" x="427.5" y="-332.8" font-family="Times,serif" font-size="14.00">base branch</text>
</g>
<!-- _GH__CASEWORK__CASE&#45;&gt;_GH__CASEWORK__ONTOLOGY_CASEONTOLOGY_ORG -->
<g id="edge4" class="edge">
<title>_GH__CASEWORK__CASE&#45;&gt;_GH__CASEWORK__ONTOLOGY_CASEONTOLOGY_ORG</title>
<path fill="none" stroke="black" d="M359.83,-649.48C401.68,-637.07 460.93,-619.5 508,-605.54"/>
<polygon fill="black" stroke="black" points="508.87,-608.64 517.46,-602.44 506.88,-601.92 508.87,-608.64"/>
<text text-anchor="middle" x="427.5" y="-656.8" font-family="Times,serif" font-size="14.00">Git sub&#45;</text>
<text text-anchor="middle" x="427.5" y="-641.8" font-family="Times,serif" font-size="14.00">module</text>
</g>
<!-- _GH__CIPHERTECHSOLUTIONS__CASE_BINDINGS_CSHARP -->
<g id="node23" class="node">
<title>_GH__CIPHERTECHSOLUTIONS__CASE_BINDINGS_CSHARP</title>
<g id="a_node23"><a xlink:href="https://github.com/ciphertechsolutions/CASE-Bindings-CSharp" xlink:title="CASE&#45;Bindings&#45;CSharp\nadopts new ontology version">
<path fill="#8ec7d2" stroke="#0d6986" d="M931.5,-741C931.5,-741 782.5,-741 782.5,-741 776.5,-741 770.5,-735 770.5,-729 770.5,-729 770.5,-715 770.5,-715 770.5,-709 776.5,-703 782.5,-703 782.5,-703 931.5,-703 931.5,-703 937.5,-703 943.5,-709 943.5,-715 943.5,-715 943.5,-729 943.5,-729 943.5,-735 937.5,-741 931.5,-741"/>
<text text-anchor="middle" x="857" y="-725.8" font-family="Times,serif" font-size="14.00">CASE&#45;Bindings&#45;CSharp</text>
<text text-anchor="middle" x="857" y="-710.8" font-family="Times,serif" font-size="14.00">adopts new ontology version</text>
</a>
</g>
</g>
<!-- _GH__CASEWORK__CASE&#45;&gt;_GH__CIPHERTECHSOLUTIONS__CASE_BINDINGS_CSHARP -->
<g id="edge3" class="edge">
<title>_GH__CASEWORK__CASE&#45;&gt;_GH__CIPHERTECHSOLUTIONS__CASE_BINDINGS_CSHARP</title>
<path fill="none" stroke="black" d="M359.6,-670.41C451.39,-679.95 643.25,-699.89 759.72,-711.99"/>
<polygon fill="black" stroke="black" points="759.09,-715.55 769.4,-713.1 759.82,-708.59 759.09,-715.55"/>
</g>
<!-- _GH__CASEWORK__CASE_UTILITIES_PYTHON -->
<g id="node24" class="node">
<title>_GH__CASEWORK__CASE_UTILITIES_PYTHON</title>
<g id="a_node24"><a xlink:href="https://github.com/casework/CASE-Utilities-Python" xlink:title="case&#45;utils\nreleases">
<path fill="#8ec7d2" stroke="#0d6986" d="M607,-932C607,-932 563,-932 563,-932 557,-932 551,-926 551,-920 551,-920 551,-906 551,-906 551,-900 557,-894 563,-894 563,-894 607,-894 607,-894 613,-894 619,-900 619,-906 619,-906 619,-920 619,-920 619,-926 613,-932 607,-932"/>
<text text-anchor="middle" x="585" y="-916.8" font-family="Times,serif" font-size="14.00">case&#45;utils</text>
<text text-anchor="middle" x="585" y="-901.8" font-family="Times,serif" font-size="14.00">releases</text>
</a>
</g>
</g>
<!-- _GH__CASEWORK__CASE&#45;&gt;_GH__CASEWORK__CASE_UTILITIES_PYTHON -->
<g id="edge2" class="edge">
<title>_GH__CASEWORK__CASE&#45;&gt;_GH__CASEWORK__CASE_UTILITIES_PYTHON</title>
<path fill="none" stroke="black" d="M318.16,-684.41C343.25,-728.22 410.5,-835.21 497,-890 509.83,-898.13 525.46,-903.4 539.92,-906.81"/>
<polygon fill="black" stroke="black" points="539.17,-910.44 549.68,-909.08 540.61,-903.59 539.17,-910.44"/>
<text text-anchor="middle" x="427.5" y="-879.8" font-family="Times,serif" font-size="14.00">Git sub&#45;</text>
<text text-anchor="middle" x="427.5" y="-864.8" font-family="Times,serif" font-size="14.00">module</text>
</g>
<!-- _GH__AJNELSON_NIST__CASE_EXAMPLES_QC -->
<g id="node10" class="node">
<title>_GH__AJNELSON_NIST__CASE_EXAMPLES_QC</title>
<g id="a_node10"><a xlink:href="https://github.com/ajnelson-nist/CASE-Examples-QC" xlink:title="CASE&#45;Examples&#45;QC\nadopts CASE&#45;Examples and\nCASE website updates">
<path fill="#8ec7d2" stroke="#0d6986" d="M1285,-1003.5C1285,-1003.5 1137,-1003.5 1137,-1003.5 1131,-1003.5 1125,-997.5 1125,-991.5 1125,-991.5 1125,-962.5 1125,-962.5 1125,-956.5 1131,-950.5 1137,-950.5 1137,-950.5 1285,-950.5 1285,-950.5 1291,-950.5 1297,-956.5 1297,-962.5 1297,-962.5 1297,-991.5 1297,-991.5 1297,-997.5 1291,-1003.5 1285,-1003.5"/>
<text text-anchor="middle" x="1211" y="-988.3" font-family="Times,serif" font-size="14.00">CASE&#45;Examples&#45;QC</text>
<text text-anchor="middle" x="1211" y="-973.3" font-family="Times,serif" font-size="14.00">adopts CASE&#45;Examples and</text>
<text text-anchor="middle" x="1211" y="-958.3" font-family="Times,serif" font-size="14.00">CASE website updates</text>
</a>
</g>
</g>
<!-- _GH__CASEWORK__CASE_IMPLEMENTATON_PROV_O -->
<g id="node16" class="node">
<title>_GH__CASEWORK__CASE_IMPLEMENTATON_PROV_O</title>
<g id="a_node16"><a xlink:href="https://github.com/casework/CASE-Implementation-PROV-O" xlink:title="case&#45;prov\nreleases">
<path fill="#8ec7d2" stroke="#0d6986" d="M1483,-986C1483,-986 1438,-986 1438,-986 1432,-986 1426,-980 1426,-974 1426,-974 1426,-960 1426,-960 1426,-954 1432,-948 1438,-948 1438,-948 1483,-948 1483,-948 1489,-948 1495,-954 1495,-960 1495,-960 1495,-974 1495,-974 1495,-980 1489,-986 1483,-986"/>
<text text-anchor="middle" x="1460.5" y="-970.8" font-family="Times,serif" font-size="14.00">case&#45;prov</text>
<text text-anchor="middle" x="1460.5" y="-955.8" font-family="Times,serif" font-size="14.00">releases</text>
</a>
</g>
</g>
<!-- _GH__AJNELSON_NIST__CASE_EXAMPLES_QC&#45;&gt;_GH__CASEWORK__CASE_IMPLEMENTATON_PROV_O -->
<g id="edge1" class="edge">
<title>_GH__AJNELSON_NIST__CASE_EXAMPLES_QC&#45;&gt;_GH__CASEWORK__CASE_IMPLEMENTATON_PROV_O</title>
<path fill="none" stroke="black" d="M1297.18,-973.56C1336.87,-971.95 1382.46,-970.11 1415.19,-968.79"/>
<polygon fill="black" stroke="black" points="1414.92,-972.26 1424.77,-968.36 1414.64,-965.27 1414.92,-972.26"/>
<text text-anchor="middle" x="1385.5" y="-988.8" font-family="Times,serif" font-size="14.00">Git sub&#45;</text>
<text text-anchor="middle" x="1385.5" y="-973.8" font-family="Times,serif" font-size="14.00">module</text>
</g>
<!-- _GH__CASEWORK__CASE_EXAMPLES -->
<g id="node11" class="node">
<title>_GH__CASEWORK__CASE_EXAMPLES</title>
<g id="a_node11"><a xlink:href="https://github.com/casework/CASE-Examples" xlink:title="CASE&#45;Examples\nadopts new case&#45;utils">
<path fill="#8ec7d2" stroke="#0d6986" d="M911.5,-1017C911.5,-1017 802.5,-1017 802.5,-1017 796.5,-1017 790.5,-1011 790.5,-1005 790.5,-1005 790.5,-991 790.5,-991 790.5,-985 796.5,-979 802.5,-979 802.5,-979 911.5,-979 911.5,-979 917.5,-979 923.5,-985 923.5,-991 923.5,-991 923.5,-1005 923.5,-1005 923.5,-1011 917.5,-1017 911.5,-1017"/>
<text text-anchor="middle" x="857" y="-1001.8" font-family="Times,serif" font-size="14.00">CASE&#45;Examples</text>
<text text-anchor="middle" x="857" y="-986.8" font-family="Times,serif" font-size="14.00">adopts new case&#45;utils</text>
</a>
</g>
</g>
<!-- _GH__CASEWORK__CASE_EXAMPLES&#45;&gt;_GH__AJNELSON_NIST__CASE_EXAMPLES_QC -->
<g id="edge5" class="edge">
<title>_GH__CASEWORK__CASE_EXAMPLES&#45;&gt;_GH__AJNELSON_NIST__CASE_EXAMPLES_QC</title>
<path fill="none" stroke="black" d="M923.8,-994.07C977.29,-990.88 1053.53,-986.34 1113.86,-982.74"/>
<polygon fill="black" stroke="black" points="1113.78,-986.19 1123.55,-982.1 1113.36,-979.2 1113.78,-986.19"/>
<text text-anchor="middle" x="1019.5" y="-1008.8" font-family="Times,serif" font-size="14.00">Git sub&#45;</text>
<text text-anchor="middle" x="1019.5" y="-993.8" font-family="Times,serif" font-size="14.00">module</text>
</g>
<!-- _GH__CASEWORK__CASE_IMPLEMENTATON_EXIFTOOL -->
<g id="node12" class="node">
<title>_GH__CASEWORK__CASE_IMPLEMENTATON_EXIFTOOL</title>
<g id="a_node12"><a xlink:href="https://github.com/casework/CASE-Implementation-ExifTool" xlink:title="CASE&#45;Implementation&#45;ExifTool\nadopts new case&#45;utils">
<path fill="#8ec7d2" stroke="#0d6986" d="M943,-849C943,-849 771,-849 771,-849 765,-849 759,-843 759,-837 759,-837 759,-823 759,-823 759,-817 765,-811 771,-811 771,-811 943,-811 943,-811 949,-811 955,-817 955,-823 955,-823 955,-837 955,-837 955,-843 949,-849 943,-849"/>
<text text-anchor="middle" x="857" y="-833.8" font-family="Times,serif" font-size="14.00">CASE&#45;Implementation&#45;ExifTool</text>
<text text-anchor="middle" x="857" y="-818.8" font-family="Times,serif" font-size="14.00">adopts new case&#45;utils</text>
</a>
</g>
</g>
<!-- _GH__CASEWORK__CASE_IMPLEMENTATON_GNU_TIME -->
<g id="node13" class="node">
<title>_GH__CASEWORK__CASE_IMPLEMENTATON_GNU_TIME</title>
<g id="a_node13"><a xlink:href="https://github.com/casework/CASE-Implementation-GNU-Time" xlink:title="CASE&#45;Implementation&#45;GNU&#45;Time\nadopts new case&#45;utils">
<path fill="#8ec7d2" stroke="#0d6986" d="M950,-905C950,-905 764,-905 764,-905 758,-905 752,-899 752,-893 752,-893 752,-879 752,-879 752,-873 758,-867 764,-867 764,-867 950,-867 950,-867 956,-867 962,-873 962,-879 962,-879 962,-893 962,-893 962,-899 956,-905 950,-905"/>
<text text-anchor="middle" x="857" y="-889.8" font-family="Times,serif" font-size="14.00">CASE&#45;Implementation&#45;GNU&#45;Time</text>
<text text-anchor="middle" x="857" y="-874.8" font-family="Times,serif" font-size="14.00">adopts new case&#45;utils</text>
</a>
</g>
</g>
<!-- _GH__CASEWORK__CASEWORK_GITHUB_IO -->
<g id="node14" class="node">
<title>_GH__CASEWORK__CASEWORK_GITHUB_IO</title>
<g id="a_node14"><a xlink:href="https://github.com/casework/casework.github.io" xlink:title="CASE website\nadopts new case&#45;utils">
<path fill="#8ec7d2" stroke="#0d6986" d="M911.5,-961C911.5,-961 802.5,-961 802.5,-961 796.5,-961 790.5,-955 790.5,-949 790.5,-949 790.5,-935 790.5,-935 790.5,-929 796.5,-923 802.5,-923 802.5,-923 911.5,-923 911.5,-923 917.5,-923 923.5,-929 923.5,-935 923.5,-935 923.5,-949 923.5,-949 923.5,-955 917.5,-961 911.5,-961"/>
<text text-anchor="middle" x="857" y="-945.8" font-family="Times,serif" font-size="14.00">CASE website</text>
<text text-anchor="middle" x="857" y="-930.8" font-family="Times,serif" font-size="14.00">adopts new case&#45;utils</text>
</a>
</g>
</g>
<!-- _GH__CASEWORK__CASEWORK_GITHUB_IO&#45;&gt;_GH__AJNELSON_NIST__CASE_EXAMPLES_QC -->
<g id="edge14" class="edge">
<title>_GH__CASEWORK__CASEWORK_GITHUB_IO&#45;&gt;_GH__AJNELSON_NIST__CASE_EXAMPLES_QC</title>
<path fill="none" stroke="black" d="M923.78,-943.38C963.1,-944.67 1014.01,-947.17 1059,-952 1076.89,-953.92 1095.88,-956.57 1114.14,-959.44"/>
<polygon fill="black" stroke="black" points="1113.36,-963.02 1123.79,-961.14 1114.47,-956.11 1113.36,-963.02"/>
<text text-anchor="middle" x="1019.5" y="-970.8" font-family="Times,serif" font-size="14.00">Git sub&#45;</text>
<text text-anchor="middle" x="1019.5" y="-955.8" font-family="Times,serif" font-size="14.00">module</text>
</g>
<!-- _GH__CASEWORK__CASE_CORPORA -->
<g id="node15" class="node">
<title>_GH__CASEWORK__CASE_CORPORA</title>
<g id="a_node15"><a xlink:href="https://github.com/casework/CASE-Corpora" xlink:title="CASE&#45;Corpora\nadopts new case&#45;prov">
<path fill="#8ec7d2" stroke="#0d6986" d="M1680,-986C1680,-986 1570,-986 1570,-986 1564,-986 1558,-980 1558,-974 1558,-974 1558,-960 1558,-960 1558,-954 1564,-948 1570,-948 1570,-948 1680,-948 1680,-948 1686,-948 1692,-954 1692,-960 1692,-960 1692,-974 1692,-974 1692,-980 1686,-986 1680,-986"/>
<text text-anchor="middle" x="1625" y="-970.8" font-family="Times,serif" font-size="14.00">CASE&#45;Corpora</text>
<text text-anchor="middle" x="1625" y="-955.8" font-family="Times,serif" font-size="14.00">adopts new case&#45;prov</text>
</a>
</g>
</g>
<!-- _GH__CASEWORK__CASE_IMPLEMENTATON_PROV_O&#45;&gt;_GH__CASEWORK__CASE_CORPORA -->
<g id="edge6" class="edge">
<title>_GH__CASEWORK__CASE_IMPLEMENTATON_PROV_O&#45;&gt;_GH__CASEWORK__CASE_CORPORA</title>
<path fill="none" stroke="black" d="M1495.17,-967C1510.18,-967 1528.52,-967 1546.62,-967"/>
<polygon fill="black" stroke="black" points="1546.51,-970.5 1556.51,-967 1546.51,-963.5 1546.51,-970.5"/>
<text text-anchor="middle" x="1526.5" y="-970.8" font-family="Times,serif" font-size="14.00">PyPI</text>
</g>
<!-- _GH__CASEWORK__CASE_IMPLEMENTATON_PYPI_PILLOW -->
<g id="node17" class="node">
<title>_GH__CASEWORK__CASE_IMPLEMENTATON_PYPI_PILLOW</title>
<g id="a_node17"><a xlink:href="https://github.com/casework/CASE-Implementation-PyPI-Pillow" xlink:title="CASE&#45;Implementation&#45;PyPI&#45;Pillow\nadopts new case&#45;validation&#45;action">
<path fill="#8ec7d2" stroke="#0d6986" d="M1305.5,-593C1305.5,-593 1116.5,-593 1116.5,-593 1110.5,-593 1104.5,-587 1104.5,-581 1104.5,-581 1104.5,-567 1104.5,-567 1104.5,-561 1110.5,-555 1116.5,-555 1116.5,-555 1305.5,-555 1305.5,-555 1311.5,-555 1317.5,-561 1317.5,-567 1317.5,-567 1317.5,-581 1317.5,-581 1317.5,-587 1311.5,-593 1305.5,-593"/>
<text text-anchor="middle" x="1211" y="-577.8" font-family="Times,serif" font-size="14.00">CASE&#45;Implementation&#45;PyPI&#45;Pillow</text>
<text text-anchor="middle" x="1211" y="-562.8" font-family="Times,serif" font-size="14.00">adopts new case&#45;validation&#45;action</text>
</a>
</g>
</g>
<!-- _GH__CASEWORK__CASE_IMPLEMENTATON_UFED_XML -->
<g id="node18" class="node">
<title>_GH__CASEWORK__CASE_IMPLEMENTATON_UFED_XML</title>
<g id="a_node18"><a xlink:href="https://github.com/casework/CASE-Implementation-UFED-XML" xlink:title="CASE&#45;Implementation&#45;UFED&#45;XML\nadopts new case&#45;validation&#45;action">
<path fill="#8ec7d2" stroke="#0d6986" d="M1308,-649C1308,-649 1114,-649 1114,-649 1108,-649 1102,-643 1102,-637 1102,-637 1102,-623 1102,-623 1102,-617 1108,-611 1114,-611 1114,-611 1308,-611 1308,-611 1314,-611 1320,-617 1320,-623 1320,-623 1320,-637 1320,-637 1320,-643 1314,-649 1308,-649"/>
<text text-anchor="middle" x="1211" y="-633.8" font-family="Times,serif" font-size="14.00">CASE&#45;Implementation&#45;UFED&#45;XML</text>
<text text-anchor="middle" x="1211" y="-618.8" font-family="Times,serif" font-size="14.00">adopts new case&#45;validation&#45;action</text>
</a>
</g>
</g>
<!-- _GH__CASEWORK__CASE_IMPLEMENTATON_XRY -->
<g id="node19" class="node">
<title>_GH__CASEWORK__CASE_IMPLEMENTATON_XRY</title>
<g id="a_node19"><a xlink:href="https://github.com/casework/CASE-Implementation-XRY" xlink:title="CASE&#45;Implementation&#45;XRY adopts\nnew case&#45;validation&#45;action">
<path fill="#8ec7d2" stroke="#0d6986" d="M1306,-481C1306,-481 1116,-481 1116,-481 1110,-481 1104,-475 1104,-469 1104,-469 1104,-455 1104,-455 1104,-449 1110,-443 1116,-443 1116,-443 1306,-443 1306,-443 1312,-443 1318,-449 1318,-455 1318,-455 1318,-469 1318,-469 1318,-475 1312,-481 1306,-481"/>
<text text-anchor="middle" x="1211" y="-465.8" font-family="Times,serif" font-size="14.00">CASE&#45;Implementation&#45;XRY adopts</text>
<text text-anchor="middle" x="1211" y="-450.8" font-family="Times,serif" font-size="14.00">new case&#45;validation&#45;action</text>
</a>
</g>
</g>
<!-- _GH__CASEWORK__CASE_MAPPING_TEMPLATE_PYTHON -->
<g id="node20" class="node">
<title>_GH__CASEWORK__CASE_MAPPING_TEMPLATE_PYTHON</title>
<g id="a_node20"><a xlink:href="https://github.com/casework/CASE-Mapping-Template-Python" xlink:title="CASE&#45;Mapping&#45;Template&#45;Python\nadopts new case&#45;validation&#45;action">
<path fill="#8ec7d2" stroke="#0d6986" d="M1301,-537C1301,-537 1121,-537 1121,-537 1115,-537 1109,-531 1109,-525 1109,-525 1109,-511 1109,-511 1109,-505 1115,-499 1121,-499 1121,-499 1301,-499 1301,-499 1307,-499 1313,-505 1313,-511 1313,-511 1313,-525 1313,-525 1313,-531 1307,-537 1301,-537"/>
<text text-anchor="middle" x="1211" y="-521.8" font-family="Times,serif" font-size="14.00">CASE&#45;Mapping&#45;Template&#45;Python</text>
<text text-anchor="middle" x="1211" y="-506.8" font-family="Times,serif" font-size="14.00">adopts new case&#45;validation&#45;action</text>
</a>
</g>
</g>
<!-- _GH__KCHASON__CASE_VALIDATION_ACTION -->
<g id="node21" class="node">
<title>_GH__KCHASON__CASE_VALIDATION_ACTION</title>
<g id="a_node21"><a xlink:href="https://github.com/kchason/case-validation-action" xlink:title="case&#45;validation&#45;action\nreleases">
<path fill="#8ec7d2" stroke="#0d6986" d="M913,-559C913,-559 801,-559 801,-559 795,-559 789,-553 789,-547 789,-547 789,-533 789,-533 789,-527 795,-521 801,-521 801,-521 913,-521 913,-521 919,-521 925,-527 925,-533 925,-533 925,-547 925,-547 925,-553 919,-559 913,-559"/>
<text text-anchor="middle" x="857" y="-543.8" font-family="Times,serif" font-size="14.00">case&#45;validation&#45;action</text>
<text text-anchor="middle" x="857" y="-528.8" font-family="Times,serif" font-size="14.00">releases</text>
</a>
</g>
</g>
<!-- _GH__KCHASON__CASE_VALIDATION_ACTION&#45;&gt;_GH__CASEWORK__CASE_IMPLEMENTATON_PYPI_EXIFREAD -->
<g id="edge17" class="edge">
<title>_GH__KCHASON__CASE_VALIDATION_ACTION&#45;&gt;_GH__CASEWORK__CASE_IMPLEMENTATON_PYPI_EXIFREAD</title>
<path fill="none" stroke="black" d="M875.46,-520.71C933.16,-456.94 1117.92,-252.76 1185.2,-178.41"/>
<polygon fill="black" stroke="black" points="1187.32,-181.17 1191.44,-171.41 1182.13,-176.47 1187.32,-181.17"/>
<text text-anchor="middle" x="1019.5" y="-421.8" font-family="Times,serif" font-size="14.00">GitHub</text>
<text text-anchor="middle" x="1019.5" y="-406.8" font-family="Times,serif" font-size="14.00">Action</text>
</g>
<!-- _GH__KCHASON__CASE_VALIDATION_ACTION&#45;&gt;_GH__CASEWORK__CASE_IMPLEMENTATON_PYPI_PILLOW -->
<g id="edge18" class="edge">
<title>_GH__KCHASON__CASE_VALIDATION_ACTION&#45;&gt;_GH__CASEWORK__CASE_IMPLEMENTATON_PYPI_PILLOW</title>
<path fill="none" stroke="black" d="M925.45,-546.52C972.99,-551.11 1037.87,-557.37 1093.67,-562.76"/>
<polygon fill="black" stroke="black" points="1093.05,-566.32 1103.34,-563.79 1093.72,-559.35 1093.05,-566.32"/>
<text text-anchor="middle" x="1019.5" y="-577.8" font-family="Times,serif" font-size="14.00">GitHub</text>
<text text-anchor="middle" x="1019.5" y="-562.8" font-family="Times,serif" font-size="14.00">Action</text>
</g>
<!-- _GH__KCHASON__CASE_VALIDATION_ACTION&#45;&gt;_GH__CASEWORK__CASE_IMPLEMENTATON_UFED_XML -->
<g id="edge19" class="edge">
<title>_GH__KCHASON__CASE_VALIDATION_ACTION&#45;&gt;_GH__CASEWORK__CASE_IMPLEMENTATON_UFED_XML</title>
<path fill="none" stroke="black" d="M896.09,-559.49C919.7,-570.82 950.97,-584.5 980,-593 1015.51,-603.39 1055,-611.08 1091.1,-616.67"/>
<polygon fill="black" stroke="black" points="1090.28,-620.24 1100.69,-618.26 1091.32,-613.31 1090.28,-620.24"/>
<text text-anchor="middle" x="1019.5" y="-628.8" font-family="Times,serif" font-size="14.00">GitHub</text>
<text text-anchor="middle" x="1019.5" y="-613.8" font-family="Times,serif" font-size="14.00">Action</text>
</g>
<!-- _GH__KCHASON__CASE_VALIDATION_ACTION&#45;&gt;_GH__CASEWORK__CASE_IMPLEMENTATON_XRY -->
<g id="edge20" class="edge">
<title>_GH__KCHASON__CASE_VALIDATION_ACTION&#45;&gt;_GH__CASEWORK__CASE_IMPLEMENTATON_XRY</title>
<path fill="none" stroke="black" d="M887.15,-520.56C911.02,-505.76 946.24,-486.38 980,-477 1015.97,-467.01 1056.27,-462.31 1092.96,-460.37"/>
<polygon fill="black" stroke="black" points="1092.89,-463.83 1102.72,-459.87 1092.56,-456.84 1092.89,-463.83"/>
<text text-anchor="middle" x="1019.5" y="-495.8" font-family="Times,serif" font-size="14.00">GitHub</text>
<text text-anchor="middle" x="1019.5" y="-480.8" font-family="Times,serif" font-size="14.00">Action</text>
</g>
<!-- _GH__KCHASON__CASE_VALIDATION_ACTION&#45;&gt;_GH__CASEWORK__CASE_MAPPING_TEMPLATE_PYTHON -->
<g id="edge21" class="edge">
<title>_GH__KCHASON__CASE_VALIDATION_ACTION&#45;&gt;_GH__CASEWORK__CASE_MAPPING_TEMPLATE_PYTHON</title>
<path fill="none" stroke="black" d="M925.38,-523.66C943.05,-520.07 962.15,-516.81 980,-515 1018.24,-511.12 1060.24,-510.58 1097.76,-511.42"/>
<polygon fill="black" stroke="black" points="1097.65,-514.95 1107.73,-511.71 1097.83,-507.95 1097.65,-514.95"/>
<text text-anchor="middle" x="1019.5" y="-533.8" font-family="Times,serif" font-size="14.00">GitHub</text>
<text text-anchor="middle" x="1019.5" y="-518.8" font-family="Times,serif" font-size="14.00">Action</text>
</g>
<!-- _GH__CASEWORK__CASE_BINDINGS_CSHARP_MONITOR -->
<g id="node22" class="node">
<title>_GH__CASEWORK__CASE_BINDINGS_CSHARP_MONITOR</title>
<g id="a_node22"><a xlink:href="https://github.com/casework/CASE-Bindings-CSharp-Monitor" xlink:title="CASE Bindings CSharp Monitor\ntests NuGet package with validation action">
<path fill="#8ec7d2" stroke="#0d6986" d="M1324.5,-741C1324.5,-741 1097.5,-741 1097.5,-741 1091.5,-741 1085.5,-735 1085.5,-729 1085.5,-729 1085.5,-715 1085.5,-715 1085.5,-709 1091.5,-703 1097.5,-703 1097.5,-703 1324.5,-703 1324.5,-703 1330.5,-703 1336.5,-709 1336.5,-715 1336.5,-715 1336.5,-729 1336.5,-729 1336.5,-735 1330.5,-741 1324.5,-741"/>
<text text-anchor="middle" x="1211" y="-725.8" font-family="Times,serif" font-size="14.00">CASE Bindings CSharp Monitor</text>
<text text-anchor="middle" x="1211" y="-710.8" font-family="Times,serif" font-size="14.00">tests NuGet package with validation action</text>
</a>
</g>
</g>
<!-- _GH__KCHASON__CASE_VALIDATION_ACTION&#45;&gt;_GH__CASEWORK__CASE_BINDINGS_CSHARP_MONITOR -->
<g id="edge16" class="edge">
<title>_GH__KCHASON__CASE_VALIDATION_ACTION&#45;&gt;_GH__CASEWORK__CASE_BINDINGS_CSHARP_MONITOR</title>
<path fill="none" stroke="black" d="M878.05,-559.49C901.36,-581.57 941.57,-617.86 980,-644 1012.88,-666.36 1030.01,-658.78 1059,-686 1063.95,-690.64 1061.36,-695.23 1067,-699 1069.78,-700.86 1072.67,-702.59 1075.63,-704.2"/>
<polygon fill="black" stroke="black" points="1073.81,-707.69 1084.34,-708.92 1076.88,-701.4 1073.81,-707.69"/>
<text text-anchor="middle" x="1019.5" y="-704.8" font-family="Times,serif" font-size="14.00">GitHub</text>
<text text-anchor="middle" x="1019.5" y="-689.8" font-family="Times,serif" font-size="14.00">Action</text>
</g>
<!-- _GH__DOD_CYBER_CRIME_CENTER__SQLITE_DISSECT -->
<g id="node25" class="node">
<title>_GH__DOD_CYBER_CRIME_CENTER__SQLITE_DISSECT</title>
<g id="a_node25"><a xlink:href="https://github.com/dod-cyber-crime-center/sqlite-dissect" xlink:title="sqlite&#45;dissect\nadopts new case&#45;validation&#45;action">
<path fill="#8ec7d2" stroke="#0d6986" d="M1299.5,-92C1299.5,-92 1122.5,-92 1122.5,-92 1116.5,-92 1110.5,-86 1110.5,-80 1110.5,-80 1110.5,-66 1110.5,-66 1110.5,-60 1116.5,-54 1122.5,-54 1122.5,-54 1299.5,-54 1299.5,-54 1305.5,-54 1311.5,-60 1311.5,-66 1311.5,-66 1311.5,-80 1311.5,-80 1311.5,-86 1305.5,-92 1299.5,-92"/>
<text text-anchor="middle" x="1211" y="-76.8" font-family="Times,serif" font-size="14.00">sqlite&#45;dissect</text>
<text text-anchor="middle" x="1211" y="-61.8" font-family="Times,serif" font-size="14.00">adopts new case&#45;validation&#45;action</text>
</a>
</g>
</g>
<!-- _GH__KCHASON__CASE_VALIDATION_ACTION&#45;&gt;_GH__DOD_CYBER_CRIME_CENTER__SQLITE_DISSECT -->
<g id="edge22" class="edge">
<title>_GH__KCHASON__CASE_VALIDATION_ACTION&#45;&gt;_GH__DOD_CYBER_CRIME_CENTER__SQLITE_DISSECT</title>
<g id="a_edge22"><a xlink:href="https://github.com/dod-cyber-crime-center/sqlite-dissect/pull/31" xlink:title="TODO: PR 31">
<path fill="none" stroke="black" d="M861.97,-520.87C876.64,-454.98 933.97,-235.11 1067,-120 1078.13,-110.37 1091.29,-102.7 1105.04,-96.6"/>
<polygon fill="black" stroke="black" points="1106.23,-99.48 1114.14,-92.42 1103.56,-93.01 1106.23,-99.48"/>
</a>
</g>
<g id="a_edge22&#45;label"><a xlink:href="https://github.com/dod-cyber-crime-center/sqlite-dissect/pull/31" xlink:title="TODO: PR 31">
<text text-anchor="middle" x="1019.5" y="-219.8" font-family="Times,serif" font-size="14.00">TODO: PR 31</text>
</a>
</g>
</g>
<!-- _GH__CIPHERTECHSOLUTIONS__CASE_BINDINGS_CSHARP&#45;&gt;_GH__CASEWORK__CASE_BINDINGS_CSHARP_MONITOR -->
<g id="edge15" class="edge">
<title>_GH__CIPHERTECHSOLUTIONS__CASE_BINDINGS_CSHARP&#45;&gt;_GH__CASEWORK__CASE_BINDINGS_CSHARP_MONITOR</title>
<path fill="none" stroke="black" d="M943.98,-721.21C956.08,-721.12 968.35,-721.05 980,-721 1010.54,-720.87 1043.36,-720.91 1074.37,-721.03"/>
<polygon fill="black" stroke="black" points="1074.25,-724.53 1084.26,-721.07 1074.28,-717.53 1074.25,-724.53"/>
<text text-anchor="middle" x="1019.5" y="-724.8" font-family="Times,serif" font-size="14.00">NuGet</text>
</g>
<!-- _GH__CASEWORK__CASE_UTILITIES_PYTHON&#45;&gt;_GH__AJNELSON_NIST__CASE_EXAMPLES_QC -->
<g id="edge7" class="edge">
<title>_GH__CASEWORK__CASE_UTILITIES_PYTHON&#45;&gt;_GH__AJNELSON_NIST__CASE_EXAMPLES_QC</title>
<path fill="none" stroke="black" d="M604.22,-932.06C631.57,-959.12 686.2,-1007.46 744,-1026 877.31,-1068.77 920.81,-1046.47 1059,-1024 1081.69,-1020.31 1105.7,-1014.01 1127.73,-1007.19"/>
<polygon fill="black" stroke="black" points="1128.56,-1010.28 1137.03,-1003.92 1126.44,-1003.61 1128.56,-1010.28"/>
<text text-anchor="middle" x="857" y="-1053.8" font-family="Times,serif" font-size="14.00">PyPI</text>
</g>
<!-- _GH__CASEWORK__CASE_UTILITIES_PYTHON&#45;&gt;_GH__CASEWORK__CASE_EXAMPLES -->
<g id="edge8" class="edge">
<title>_GH__CASEWORK__CASE_UTILITIES_PYTHON&#45;&gt;_GH__CASEWORK__CASE_EXAMPLES</title>
<path fill="none" stroke="black" d="M619.27,-926.11C651.02,-938.36 700.34,-956.71 744,-970 755.49,-973.5 767.74,-976.9 779.77,-980.04"/>
<polygon fill="black" stroke="black" points="778.7,-983.64 789.25,-982.74 780.44,-976.86 778.7,-983.64"/>
<text text-anchor="middle" x="720.5" y="-968.8" font-family="Times,serif" font-size="14.00">PyPI</text>
</g>
<!-- _GH__CASEWORK__CASE_UTILITIES_PYTHON&#45;&gt;_GH__CASEWORK__CASE_IMPLEMENTATON_EXIFTOOL -->
<g id="edge9" class="edge">
<title>_GH__CASEWORK__CASE_UTILITIES_PYTHON&#45;&gt;_GH__CASEWORK__CASE_IMPLEMENTATON_EXIFTOOL</title>
<path fill="none" stroke="black" d="M619.49,-905.65C635.84,-901.69 655.68,-896.31 673,-890 688.69,-884.29 691.78,-880.87 707,-874 723.33,-866.63 727.03,-863.75 744,-858 749.72,-856.06 755.64,-854.2 761.63,-852.41"/>
<polygon fill="black" stroke="black" points="762.15,-855.61 770.78,-849.47 760.2,-848.89 762.15,-855.61"/>
<text text-anchor="middle" x="720.5" y="-877.8" font-family="Times,serif" font-size="14.00">PyPI</text>
</g>
<!-- _GH__CASEWORK__CASE_UTILITIES_PYTHON&#45;&gt;_GH__CASEWORK__CASE_IMPLEMENTATON_GNU_TIME -->
<g id="edge10" class="edge">
<title>_GH__CASEWORK__CASE_UTILITIES_PYTHON&#45;&gt;_GH__CASEWORK__CASE_IMPLEMENTATON_GNU_TIME</title>
<path fill="none" stroke="black" d="M619.3,-907.66C643.56,-903.93 677.25,-899.08 707,-896 717.94,-894.87 729.35,-893.83 740.77,-892.9"/>
<polygon fill="black" stroke="black" points="741.02,-896.31 750.71,-892.03 740.47,-889.33 741.02,-896.31"/>
<text text-anchor="middle" x="720.5" y="-899.8" font-family="Times,serif" font-size="14.00">PyPI</text>
</g>
<!-- _GH__CASEWORK__CASE_UTILITIES_PYTHON&#45;&gt;_GH__CASEWORK__CASEWORK_GITHUB_IO -->
<g id="edge13" class="edge">
<title>_GH__CASEWORK__CASE_UTILITIES_PYTHON&#45;&gt;_GH__CASEWORK__CASEWORK_GITHUB_IO</title>
<path fill="none" stroke="black" d="M619.38,-916.59C659.11,-920.85 726.71,-928.11 779.51,-933.78"/>
<polygon fill="black" stroke="black" points="778.88,-937.34 789.2,-934.93 779.63,-930.38 778.88,-937.34"/>
<text text-anchor="middle" x="720.5" y="-931.8" font-family="Times,serif" font-size="14.00">PyPI</text>
</g>
<!-- _GH__CASEWORK__CASE_UTILITIES_PYTHON&#45;&gt;_GH__CASEWORK__CASE_IMPLEMENTATON_PROV_O -->
<g id="edge11" class="edge">
<title>_GH__CASEWORK__CASE_UTILITIES_PYTHON&#45;&gt;_GH__CASEWORK__CASE_IMPLEMENTATON_PROV_O</title>
<path fill="none" stroke="black" d="M598.03,-932.38C621.18,-967.58 675.71,-1040.97 744,-1069 846.02,-1110.88 1307.13,-1111.38 1408,-1052 1428.57,-1039.89 1441.95,-1016.03 1449.9,-996.67"/>
<polygon fill="black" stroke="black" points="1453.5,-998.07 1453.77,-987.48 1446.95,-995.59 1453.5,-998.07"/>
<text text-anchor="middle" x="1019.5" y="-1101.8" font-family="Times,serif" font-size="14.00">PyPI</text>
</g>
<!-- _GH__CASEWORK__CASE_UTILITIES_PYTHON&#45;&gt;_GH__KCHASON__CASE_VALIDATION_ACTION -->
<g id="edge12" class="edge">
<title>_GH__CASEWORK__CASE_UTILITIES_PYTHON&#45;&gt;_GH__KCHASON__CASE_VALIDATION_ACTION</title>
<path fill="none" stroke="black" d="M619.31,-911.54C637.2,-909.1 658.51,-903.32 673,-890 707.57,-858.23 721.88,-732.42 744,-691 768.91,-644.35 807.14,-596.27 831.87,-567.26"/>
<polygon fill="black" stroke="black" points="834.89,-570.1 838.76,-560.24 829.59,-565.53 834.89,-570.1"/>
<text text-anchor="middle" x="720.5" y="-816.8" font-family="Times,serif" font-size="14.00">PyPI</text>
</g>
</g>
</svg>
