<?xml version="1.0" encoding="UTF-8" standalone="no"?>
<!DOCTYPE svg PUBLIC "-//W3C//DTD SVG 1.1//EN"
 "http://www.w3.org/Graphics/SVG/1.1/DTD/svg11.dtd">
<!-- Generated by graphviz version 8.0.3 (20230416.2022)
 -->
<!-- Title: cdo_release_flow Pages: 1 -->
<svg width="1841pt" height="1322pt"
 viewBox="0.00 0.00 1841.00 1322.00" xmlns="http://www.w3.org/2000/svg" xmlns:xlink="http://www.w3.org/1999/xlink">
<g id="graph0" class="graph" transform="scale(1 1) rotate(0) translate(4 1318)">
<title>cdo_release_flow</title>
<polygon fill="white" stroke="none" points="-4,4 -4,-1318 1837,-1318 1837,4 -4,4"/>
<text text-anchor="middle" x="916.5" y="-38.8" font-family="Times,serif" font-size="14.00">Release flow of CDO ontologies</text>
<text text-anchor="middle" x="916.5" y="-7.8" font-family="Times,serif" font-size="14.00">Nodes link to the respective Git repository.</text>
<g id="clust1" class="cluster">
<title>cluster_uco_0_9_1</title>
<polygon fill="none" stroke="black" points="0,-62 0,-178 168,-178 168,-62 0,-62"/>
<text text-anchor="middle" x="84" y="-162.8" font-family="Times,serif" font-size="14.00">Adoption of UCO 0.9.1</text>
</g>
<g id="clust2" class="cluster">
<title>cluster_case_0_7_1</title>
<polygon fill="none" stroke="black" points="8,-70 8,-147 160,-147 160,-70 8,-70"/>
<text text-anchor="middle" x="84" y="-131.8" font-family="Times,serif" font-size="14.00">Adoption of CASE 0.7.1</text>
</g>
<g id="clust3" class="cluster">
<title>cluster_uco_1_2_0</title>
<polygon fill="none" stroke="black" points="26,-186 26,-1306 1825,-1306 1825,-186 26,-186"/>
<text text-anchor="middle" x="925.5" y="-1290.8" font-family="Times,serif" font-size="14.00">Adoption of UCO 1.2.0</text>
</g>
<g id="clust4" class="cluster">
<title>cluster_case_1_2_0</title>
<polygon fill="none" stroke="black" points="260,-356 260,-1229 1817,-1229 1817,-356 260,-356"/>
<text text-anchor="middle" x="1038.5" y="-1213.8" font-family="Times,serif" font-size="14.00">Adoption of CASE 1.2.0</text>
</g>
<g id="clust5" class="cluster">
<title>cluster_case_utils_0_10_0</title>
<polygon fill="none" stroke="black" points="1010,-364 1010,-835 1606,-835 1606,-364 1010,-364"/>
<text text-anchor="middle" x="1308" y="-819.8" font-family="Times,serif" font-size="14.00">Adoption of case&#45;utils 0.10.0</text>
</g>
<g id="clust6" class="cluster">
<title>cluster_case_validation_action_2_6</title>
<polygon fill="none" stroke="black" points="1018,-418 1018,-804 1598,-804 1598,-418 1018,-418"/>
<text text-anchor="middle" x="1308" y="-788.8" font-family="Times,serif" font-size="14.00">Adoption of case&#45;validation&#45;action 2.6</text>
</g>
<g id="clust7" class="cluster">
<title>cluster_case_bindings_csharp_0_4_0</title>
<polygon fill="none" stroke="black" points="1043.5,-426 1043.5,-503 1590,-503 1590,-426 1043.5,-426"/>
<text text-anchor="middle" x="1316.75" y="-487.8" font-family="Times,serif" font-size="14.00">Adoption of CSharp bindings 0.4.0</text>
</g>
<g id="clust8" class="cluster">
<title>cluster_case_utils_0_11_0</title>
<polygon fill="none" stroke="black" points="536,-843 536,-1198 1809,-1198 1809,-843 536,-843"/>
<text text-anchor="middle" x="1172.5" y="-1182.8" font-family="Times,serif" font-size="14.00">Adoption of case&#45;utils 0.11.0</text>
</g>
<g id="clust9" class="cluster">
<title>cluster_case_prov_0_8_0</title>
<polygon fill="none" stroke="black" points="1414,-955 1414,-1032 1801,-1032 1801,-955 1414,-955"/>
<text text-anchor="middle" x="1607.5" y="-1016.8" font-family="Times,serif" font-size="14.00">Adoption of case&#45;prov 0.8.0</text>
</g>
<g id="clust10" class="cluster">
<title>cluster_case_validation_action_2_6_1</title>
<polygon fill="none" stroke="black" points="731,-851 731,-938 1233.5,-938 1233.5,-851 731,-851"/>
<text text-anchor="middle" x="982.25" y="-922.8" font-family="Times,serif" font-size="14.00">Adoption of case&#45;validation&#45;action 2.6.1</text>
</g>
<!-- _GH__CASEWORK__CASE_MAPPING_TEMPLATE_STUBS -->
<g id="node1" class="node">
<title>_GH__CASEWORK__CASE_MAPPING_TEMPLATE_STUBS</title>
<g id="a_node1"><a xlink:href="https://github.com/casework/CASE-Mapping-Template-Stubs" xlink:title="CASE Mapping\nTemplate Stubs">
<path fill="#8ec7d2" stroke="#0d6986" d="M124,-116C124,-116 44,-116 44,-116 38,-116 32,-110 32,-104 32,-104 32,-90 32,-90 32,-84 38,-78 44,-78 44,-78 124,-78 124,-78 130,-78 136,-84 136,-90 136,-90 136,-104 136,-104 136,-110 130,-116 124,-116"/>
<text text-anchor="middle" x="84" y="-100.8" font-family="Times,serif" font-size="14.00">CASE Mapping</text>
<text text-anchor="middle" x="84" y="-85.8" font-family="Times,serif" font-size="14.00">Template Stubs</text>
</a>
</g>
</g>
<!-- _GH__CYBER_DOMAIN_ONTOLOGY__CDO_SHAPES_EXAMPLE -->
<g id="node2" class="node">
<title>_GH__CYBER_DOMAIN_ONTOLOGY__CDO_SHAPES_EXAMPLE</title>
<g id="a_node2"><a xlink:href="https://github.com/Cyber-Domain-Ontology/CDO-Shapes-Example" xlink:title="CDO example&#45;base shapes\nupdates">
<path fill="#8ec7d2" stroke="#0d6986" d="M391,-257C391,-257 251,-257 251,-257 245,-257 239,-251 239,-245 239,-245 239,-231 239,-231 239,-225 245,-219 251,-219 251,-219 391,-219 391,-219 397,-219 403,-225 403,-231 403,-231 403,-245 403,-245 403,-251 397,-257 391,-257"/>
<text text-anchor="middle" x="321" y="-241.8" font-family="Times,serif" font-size="14.00">CDO example&#45;base shapes</text>
<text text-anchor="middle" x="321" y="-226.8" font-family="Times,serif" font-size="14.00">updates</text>
</a>
</g>
</g>
<!-- _GH__CYBER_DOMAIN_ONTOLOGY__CDO_SHAPES_FOAF -->
<g id="node3" class="node">
<title>_GH__CYBER_DOMAIN_ONTOLOGY__CDO_SHAPES_FOAF</title>
<g id="a_node3"><a xlink:href="https://github.com/Cyber-Domain-Ontology/CDO-Shapes-FOAF" xlink:title="CDO FOAF shapes\nupdates">
<path fill="#8ec7d2" stroke="#0d6986" d="M627.5,-232C627.5,-232 528.5,-232 528.5,-232 522.5,-232 516.5,-226 516.5,-220 516.5,-220 516.5,-206 516.5,-206 516.5,-200 522.5,-194 528.5,-194 528.5,-194 627.5,-194 627.5,-194 633.5,-194 639.5,-200 639.5,-206 639.5,-206 639.5,-220 639.5,-220 639.5,-226 633.5,-232 627.5,-232"/>
<text text-anchor="middle" x="578" y="-216.8" font-family="Times,serif" font-size="14.00">CDO FOAF shapes</text>
<text text-anchor="middle" x="578" y="-201.8" font-family="Times,serif" font-size="14.00">updates</text>
</a>
</g>
</g>
<!-- _GH__CYBER_DOMAIN_ONTOLOGY__CDO_SHAPES_EXAMPLE&#45;&gt;_GH__CYBER_DOMAIN_ONTOLOGY__CDO_SHAPES_FOAF -->
<g id="edge17" class="edge">
<title>_GH__CYBER_DOMAIN_ONTOLOGY__CDO_SHAPES_EXAMPLE&#45;&gt;_GH__CYBER_DOMAIN_ONTOLOGY__CDO_SHAPES_FOAF</title>
<path fill="none" stroke="black" d="M389.75,-218.54C400.14,-216.25 410.8,-214.27 421,-213 448.4,-209.59 478.72,-208.9 505.29,-209.3"/>
<polygon fill="black" stroke="black" points="504.97,-212.81 515.04,-209.52 505.11,-205.82 504.97,-212.81"/>
<text text-anchor="middle" x="456.5" y="-231.8" font-family="Times,serif" font-size="14.00">Git sub&#45;</text>
<text text-anchor="middle" x="456.5" y="-216.8" font-family="Times,serif" font-size="14.00">module</text>
</g>
<!-- _GH__UCOPROJECT__ONTOLOGY_UNIFIEDCYBERONTOLOGY_ORG -->
<g id="node4" class="node">
<title>_GH__UCOPROJECT__ONTOLOGY_UNIFIEDCYBERONTOLOGY_ORG</title>
<g id="a_node4"><a xlink:href="https://github.com/ucoProject/ontology.unifiedcyberontology.org" xlink:title="UCO documentation\nregenerated">
<path fill="#8ec7d2" stroke="#0d6986" d="M374,-1275C374,-1275 268,-1275 268,-1275 262,-1275 256,-1269 256,-1263 256,-1263 256,-1249 256,-1249 256,-1243 262,-1237 268,-1237 268,-1237 374,-1237 374,-1237 380,-1237 386,-1243 386,-1249 386,-1249 386,-1263 386,-1263 386,-1269 380,-1275 374,-1275"/>
<text text-anchor="middle" x="321" y="-1259.8" font-family="Times,serif" font-size="14.00">UCO documentation</text>
<text text-anchor="middle" x="321" y="-1244.8" font-family="Times,serif" font-size="14.00">regenerated</text>
</a>
</g>
</g>
<!-- _GH__CASEWORK__ONTOLOGY_CASEONTOLOGY_ORG -->
<g id="node10" class="node">
<title>_GH__CASEWORK__ONTOLOGY_CASEONTOLOGY_ORG</title>
<g id="a_node10"><a xlink:href="https://github.com/casework/ontology.caseontology.org" xlink:title="CASE documentation\nregenerated">
<path fill="#8ec7d2" stroke="#0d6986" d="M634,-672C634,-672 522,-672 522,-672 516,-672 510,-666 510,-660 510,-660 510,-646 510,-646 510,-640 516,-634 522,-634 522,-634 634,-634 634,-634 640,-634 646,-640 646,-646 646,-646 646,-660 646,-660 646,-666 640,-672 634,-672"/>
<text text-anchor="middle" x="578" y="-656.8" font-family="Times,serif" font-size="14.00">CASE documentation</text>
<text text-anchor="middle" x="578" y="-641.8" font-family="Times,serif" font-size="14.00">regenerated</text>
</a>
</g>
</g>
<!-- _GH__UCOPROJECT__ONTOLOGY_UNIFIEDCYBERONTOLOGY_ORG&#45;&gt;_GH__CASEWORK__ONTOLOGY_CASEONTOLOGY_ORG -->
<g id="edge26" class="edge">
<title>_GH__UCOPROJECT__ONTOLOGY_UNIFIEDCYBERONTOLOGY_ORG&#45;&gt;_GH__CASEWORK__ONTOLOGY_CASEONTOLOGY_ORG</title>
<path fill="none" stroke="black" d="M386.15,-1244.81C392.38,-1241.75 398.17,-1237.89 403,-1233 530.57,-1103.96 455.43,-1012.05 510,-839 527.66,-782.99 551.65,-718.76 565.61,-682.32"/>
<polygon fill="black" stroke="black" points="569.11,-683.96 569.44,-673.37 562.58,-681.45 569.11,-683.96"/>
<text text-anchor="middle" x="456.5" y="-1228.8" font-family="Times,serif" font-size="14.00">Tech&#45;</text>
<text text-anchor="middle" x="456.5" y="-1213.8" font-family="Times,serif" font-size="14.00">check</text>
</g>
<!-- _GH__UCOPROJECT__UCO -->
<g id="node5" class="node">
<title>_GH__UCOPROJECT__UCO</title>
<g id="a_node5"><a xlink:href="https://github.com/ucoProject/UCO" xlink:title="UCO Ontology\nreleases">
<path fill="#8ec7d2" stroke="#0d6986" d="M122,-412C122,-412 46,-412 46,-412 40,-412 34,-406 34,-400 34,-400 34,-386 34,-386 34,-380 40,-374 46,-374 46,-374 122,-374 122,-374 128,-374 134,-380 134,-386 134,-386 134,-400 134,-400 134,-406 128,-412 122,-412"/>
<text text-anchor="middle" x="84" y="-396.8" font-family="Times,serif" font-size="14.00">UCO Ontology</text>
<text text-anchor="middle" x="84" y="-381.8" font-family="Times,serif" font-size="14.00">releases</text>
</a>
</g>
</g>
<!-- _GH__UCOPROJECT__UCO&#45;&gt;_GH__CYBER_DOMAIN_ONTOLOGY__CDO_SHAPES_EXAMPLE -->
<g id="edge28" class="edge">
<title>_GH__UCOPROJECT__UCO&#45;&gt;_GH__CYBER_DOMAIN_ONTOLOGY__CDO_SHAPES_EXAMPLE</title>
<path fill="none" stroke="black" d="M105.77,-373.65C123.64,-357.5 150.5,-334.4 176,-317 205.92,-296.58 241.6,-276.98 269.96,-262.41"/>
<polygon fill="black" stroke="black" points="271.34,-265.12 278.66,-257.47 268.16,-258.88 271.34,-265.12"/>
<text text-anchor="middle" x="198.5" y="-335.8" font-family="Times,serif" font-size="14.00">Git sub&#45;</text>
<text text-anchor="middle" x="198.5" y="-320.8" font-family="Times,serif" font-size="14.00">module</text>
</g>
<!-- _GH__UCOPROJECT__UCO&#45;&gt;_GH__UCOPROJECT__ONTOLOGY_UNIFIEDCYBERONTOLOGY_ORG -->
<g id="edge29" class="edge">
<title>_GH__UCOPROJECT__UCO&#45;&gt;_GH__UCOPROJECT__ONTOLOGY_UNIFIEDCYBERONTOLOGY_ORG</title>
<path fill="none" stroke="black" d="M85.84,-412.21C91.18,-525.56 123.94,-1106.42 239,-1233 241.29,-1235.52 243.82,-1237.76 246.55,-1239.77"/>
<polygon fill="black" stroke="black" points="244.46,-1243.2 254.82,-1245.41 248.09,-1237.22 244.46,-1243.2"/>
<text text-anchor="middle" x="198.5" y="-1219.8" font-family="Times,serif" font-size="14.00">Git sub&#45;</text>
<text text-anchor="middle" x="198.5" y="-1204.8" font-family="Times,serif" font-size="14.00">module</text>
</g>
<!-- _GH__UCOPROJECT__UCO_PROFILE_EXAMPLE -->
<g id="node7" class="node">
<title>_GH__UCOPROJECT__UCO_PROFILE_EXAMPLE</title>
<g id="a_node7"><a xlink:href="https://github.com/ucoProject/UCO-Profile-Example" xlink:title="UCO example&#45;base profile\nupdates">
<path fill="#8ec7d2" stroke="#0d6986" d="M391,-337C391,-337 251,-337 251,-337 245,-337 239,-331 239,-325 239,-325 239,-311 239,-311 239,-305 245,-299 251,-299 251,-299 391,-299 391,-299 397,-299 403,-305 403,-311 403,-311 403,-325 403,-325 403,-331 397,-337 391,-337"/>
<text text-anchor="middle" x="321" y="-321.8" font-family="Times,serif" font-size="14.00">UCO example&#45;base profile</text>
<text text-anchor="middle" x="321" y="-306.8" font-family="Times,serif" font-size="14.00">updates</text>
</a>
</g>
</g>
<!-- _GH__UCOPROJECT__UCO&#45;&gt;_GH__UCOPROJECT__UCO_PROFILE_EXAMPLE -->
<g id="edge30" class="edge">
<title>_GH__UCOPROJECT__UCO&#45;&gt;_GH__UCOPROJECT__UCO_PROFILE_EXAMPLE</title>
<path fill="none" stroke="black" d="M134.26,-377.28C167.48,-366.68 211.83,-352.52 248.86,-340.7"/>
<polygon fill="black" stroke="black" points="249.63,-343.81 258.1,-337.44 247.51,-337.14 249.63,-343.81"/>
<text text-anchor="middle" x="198.5" y="-380.8" font-family="Times,serif" font-size="14.00">Git sub&#45;</text>
<text text-anchor="middle" x="198.5" y="-365.8" font-family="Times,serif" font-size="14.00">module</text>
</g>
<!-- _GH__CASEWORK__CASE -->
<g id="node9" class="node">
<title>_GH__CASEWORK__CASE</title>
<g id="a_node9"><a xlink:href="https://github.com/casework/CASE" xlink:title="CASE Ontology\nreleases">
<path fill="#8ec7d2" stroke="#0d6986" d="M362,-487C362,-487 280,-487 280,-487 274,-487 268,-481 268,-475 268,-475 268,-461 268,-461 268,-455 274,-449 280,-449 280,-449 362,-449 362,-449 368,-449 374,-455 374,-461 374,-461 374,-475 374,-475 374,-481 368,-487 362,-487"/>
<text text-anchor="middle" x="321" y="-471.8" font-family="Times,serif" font-size="14.00">CASE Ontology</text>
<text text-anchor="middle" x="321" y="-456.8" font-family="Times,serif" font-size="14.00">releases</text>
</a>
</g>
</g>
<!-- _GH__UCOPROJECT__UCO&#45;&gt;_GH__CASEWORK__CASE -->
<g id="edge27" class="edge">
<title>_GH__UCOPROJECT__UCO&#45;&gt;_GH__CASEWORK__CASE</title>
<path fill="none" stroke="black" d="M134.39,-410.36C164.5,-420.78 203.83,-434.08 239,-445 244.9,-446.83 251.07,-448.69 257.24,-450.51"/>
<polygon fill="black" stroke="black" points="256.02,-454.09 266.6,-453.53 257.98,-447.37 256.02,-454.09"/>
<text text-anchor="middle" x="198.5" y="-456.8" font-family="Times,serif" font-size="14.00">Git sub&#45;</text>
<text text-anchor="middle" x="198.5" y="-441.8" font-family="Times,serif" font-size="14.00">module</text>
</g>
<!-- _GH__UCOPROJECT__UCO_PROFILE_BFO -->
<g id="node6" class="node">
<title>_GH__UCOPROJECT__UCO_PROFILE_BFO</title>
<g id="a_node6"><a xlink:href="https://github.com/ucoProject/UCO-Profile-BFO" xlink:title="UCO BFO profile\nupdates">
<path fill="#8ec7d2" stroke="#0d6986" d="M623.5,-288C623.5,-288 532.5,-288 532.5,-288 526.5,-288 520.5,-282 520.5,-276 520.5,-276 520.5,-262 520.5,-262 520.5,-256 526.5,-250 532.5,-250 532.5,-250 623.5,-250 623.5,-250 629.5,-250 635.5,-256 635.5,-262 635.5,-262 635.5,-276 635.5,-276 635.5,-282 629.5,-288 623.5,-288"/>
<text text-anchor="middle" x="578" y="-272.8" font-family="Times,serif" font-size="14.00">UCO BFO profile</text>
<text text-anchor="middle" x="578" y="-257.8" font-family="Times,serif" font-size="14.00">updates</text>
</a>
</g>
</g>
<!-- _GH__UCOPROJECT__UCO_PROFILE_EXAMPLE&#45;&gt;_GH__UCOPROJECT__UCO_PROFILE_BFO -->
<g id="edge31" class="edge">
<title>_GH__UCOPROJECT__UCO_PROFILE_EXAMPLE&#45;&gt;_GH__UCOPROJECT__UCO_PROFILE_BFO</title>
<path fill="none" stroke="black" d="M375.41,-298.54C390.03,-293.82 405.99,-289.21 421,-286 449.69,-279.87 481.86,-275.88 509.49,-273.33"/>
<polygon fill="black" stroke="black" points="509.58,-276.75 519.24,-272.39 508.97,-269.77 509.58,-276.75"/>
<text text-anchor="middle" x="456.5" y="-304.8" font-family="Times,serif" font-size="14.00">Git merge of</text>
<text text-anchor="middle" x="456.5" y="-289.8" font-family="Times,serif" font-size="14.00">base branch</text>
</g>
<!-- _GH__UCOPROJECT__UCO_PROFILE_FOAF -->
<g id="node8" class="node">
<title>_GH__UCOPROJECT__UCO_PROFILE_FOAF</title>
<g id="a_node8"><a xlink:href="https://github.com/ucoProject/UCO-Profile-FOAF" xlink:title="UCO FOAF profile\nupdates">
<path fill="#8ec7d2" stroke="#0d6986" d="M627.5,-344C627.5,-344 528.5,-344 528.5,-344 522.5,-344 516.5,-338 516.5,-332 516.5,-332 516.5,-318 516.5,-318 516.5,-312 522.5,-306 528.5,-306 528.5,-306 627.5,-306 627.5,-306 633.5,-306 639.5,-312 639.5,-318 639.5,-318 639.5,-332 639.5,-332 639.5,-338 633.5,-344 627.5,-344"/>
<text text-anchor="middle" x="578" y="-328.8" font-family="Times,serif" font-size="14.00">UCO FOAF profile</text>
<text text-anchor="middle" x="578" y="-313.8" font-family="Times,serif" font-size="14.00">updates</text>
</a>
</g>
</g>
<!-- _GH__UCOPROJECT__UCO_PROFILE_EXAMPLE&#45;&gt;_GH__UCOPROJECT__UCO_PROFILE_FOAF -->
<g id="edge32" class="edge">
<title>_GH__UCOPROJECT__UCO_PROFILE_EXAMPLE&#45;&gt;_GH__UCOPROJECT__UCO_PROFILE_FOAF</title>
<path fill="none" stroke="black" d="M403.29,-319.72C431.39,-320.36 463.08,-321.15 492,-322 496.4,-322.13 500.93,-322.27 505.49,-322.42"/>
<polygon fill="black" stroke="black" points="505.07,-325.94 515.18,-322.77 505.3,-318.94 505.07,-325.94"/>
<text text-anchor="middle" x="456.5" y="-340.8" font-family="Times,serif" font-size="14.00">Git merge of</text>
<text text-anchor="middle" x="456.5" y="-325.8" font-family="Times,serif" font-size="14.00">base branch</text>
</g>
<!-- _GH__CASEWORK__CASE&#45;&gt;_GH__CASEWORK__ONTOLOGY_CASEONTOLOGY_ORG -->
<g id="edge4" class="edge">
<title>_GH__CASEWORK__CASE&#45;&gt;_GH__CASEWORK__ONTOLOGY_CASEONTOLOGY_ORG</title>
<path fill="none" stroke="black" d="M374.45,-478.96C384.28,-482.09 394.21,-486.05 403,-491 466.08,-526.55 524.42,-589.46 554.89,-625.53"/>
<polygon fill="black" stroke="black" points="552.58,-627.22 561.67,-632.66 557.95,-622.74 552.58,-627.22"/>
<text text-anchor="middle" x="456.5" y="-575.8" font-family="Times,serif" font-size="14.00">Git sub&#45;</text>
<text text-anchor="middle" x="456.5" y="-560.8" font-family="Times,serif" font-size="14.00">module</text>
</g>
<!-- _GH__CIPHERTECHSOLUTIONS__CASE_BINDINGS_CSHARP -->
<g id="node18" class="node">
<title>_GH__CIPHERTECHSOLUTIONS__CASE_BINDINGS_CSHARP</title>
<g id="a_node18"><a xlink:href="https://github.com/ciphertechsolutions/CASE-Bindings-CSharp" xlink:title="CASE&#45;Bindings&#45;CSharp\nadopts new ontology version">
<path fill="#8ec7d2" stroke="#0d6986" d="M1212.5,-472C1212.5,-472 1063.5,-472 1063.5,-472 1057.5,-472 1051.5,-466 1051.5,-460 1051.5,-460 1051.5,-446 1051.5,-446 1051.5,-440 1057.5,-434 1063.5,-434 1063.5,-434 1212.5,-434 1212.5,-434 1218.5,-434 1224.5,-440 1224.5,-446 1224.5,-446 1224.5,-460 1224.5,-460 1224.5,-466 1218.5,-472 1212.5,-472"/>
<text text-anchor="middle" x="1138" y="-456.8" font-family="Times,serif" font-size="14.00">CASE&#45;Bindings&#45;CSharp</text>
<text text-anchor="middle" x="1138" y="-441.8" font-family="Times,serif" font-size="14.00">adopts new ontology version</text>
</a>
</g>
</g>
<!-- _GH__CASEWORK__CASE&#45;&gt;_GH__CIPHERTECHSOLUTIONS__CASE_BINDINGS_CSHARP -->
<g id="edge3" class="edge">
<title>_GH__CASEWORK__CASE&#45;&gt;_GH__CIPHERTECHSOLUTIONS__CASE_BINDINGS_CSHARP</title>
<path fill="none" stroke="black" d="M374.22,-467.04C508.36,-464.57 866.62,-457.98 1040.15,-454.78"/>
<polygon fill="black" stroke="black" points="1040.12,-458.27 1050.05,-454.58 1039.99,-451.27 1040.12,-458.27"/>
</g>
<!-- _GH__CASEWORK__CASE_UTILITIES_PYTHON -->
<g id="node22" class="node">
<title>_GH__CASEWORK__CASE_UTILITIES_PYTHON</title>
<g id="a_node22"><a xlink:href="https://github.com/casework/CASE-Utilities-Python" xlink:title="case&#45;utils\nreleases">
<path fill="#8ec7d2" stroke="#0d6986" d="M600,-966C600,-966 556,-966 556,-966 550,-966 544,-960 544,-954 544,-954 544,-940 544,-940 544,-934 550,-928 556,-928 556,-928 600,-928 600,-928 606,-928 612,-934 612,-940 612,-940 612,-954 612,-954 612,-960 606,-966 600,-966"/>
<text text-anchor="middle" x="578" y="-950.8" font-family="Times,serif" font-size="14.00">case&#45;utils</text>
<text text-anchor="middle" x="578" y="-935.8" font-family="Times,serif" font-size="14.00">releases</text>
</a>
</g>
</g>
<!-- _GH__CASEWORK__CASE&#45;&gt;_GH__CASEWORK__CASE_UTILITIES_PYTHON -->
<g id="edge2" class="edge">
<title>_GH__CASEWORK__CASE&#45;&gt;_GH__CASEWORK__CASE_UTILITIES_PYTHON</title>
<path fill="none" stroke="black" d="M374.34,-473.77C385.1,-477.25 395.44,-482.66 403,-491 433.32,-524.47 406.05,-548.39 421,-591 442.92,-653.49 472.89,-658.59 492,-722 505.01,-765.15 482.21,-888.52 510,-924 515.9,-931.53 524.39,-936.6 533.36,-940.02"/>
<polygon fill="black" stroke="black" points="531.99,-943.57 542.58,-943.22 534.08,-936.89 531.99,-943.57"/>
<text text-anchor="middle" x="456.5" y="-740.8" font-family="Times,serif" font-size="14.00">Git sub&#45;</text>
<text text-anchor="middle" x="456.5" y="-725.8" font-family="Times,serif" font-size="14.00">module</text>
</g>
<!-- _GH__CASEWORK__CASE_IMPLEMENTATON_GNU_TIME -->
<g id="node11" class="node">
<title>_GH__CASEWORK__CASE_IMPLEMENTATON_GNU_TIME</title>
<g id="a_node11"><a xlink:href="https://github.com/casework/CASE-Implementation-GNU-Time" xlink:title="CASE&#45;Implementation&#45;GNU&#45;Time\nadopts new case&#45;utils">
<path fill="#8ec7d2" stroke="#0d6986" d="M1231,-410C1231,-410 1045,-410 1045,-410 1039,-410 1033,-404 1033,-398 1033,-398 1033,-384 1033,-384 1033,-378 1039,-372 1045,-372 1045,-372 1231,-372 1231,-372 1237,-372 1243,-378 1243,-384 1243,-384 1243,-398 1243,-398 1243,-404 1237,-410 1231,-410"/>
<text text-anchor="middle" x="1138" y="-394.8" font-family="Times,serif" font-size="14.00">CASE&#45;Implementation&#45;GNU&#45;Time</text>
<text text-anchor="middle" x="1138" y="-379.8" font-family="Times,serif" font-size="14.00">adopts new case&#45;utils</text>
</a>
</g>
</g>
<!-- _GH__CASEWORK__CASE_IMPLEMENTATON_PYPI_EXIFREAD -->
<g id="node12" class="node">
<title>_GH__CASEWORK__CASE_IMPLEMENTATON_PYPI_EXIFREAD</title>
<g id="a_node12"><a xlink:href="https://github.com/casework/CASE-Implementation-PyPI-Exifread" xlink:title="CASE&#45;Implementation&#45;PyPI&#45;Exifread\nadopts new case&#45;validation&#45;action">
<path fill="#8ec7d2" stroke="#0d6986" d="M1238,-549C1238,-549 1038,-549 1038,-549 1032,-549 1026,-543 1026,-537 1026,-537 1026,-523 1026,-523 1026,-517 1032,-511 1038,-511 1038,-511 1238,-511 1238,-511 1244,-511 1250,-517 1250,-523 1250,-523 1250,-537 1250,-537 1250,-543 1244,-549 1238,-549"/>
<text text-anchor="middle" x="1138" y="-533.8" font-family="Times,serif" font-size="14.00">CASE&#45;Implementation&#45;PyPI&#45;Exifread</text>
<text text-anchor="middle" x="1138" y="-518.8" font-family="Times,serif" font-size="14.00">adopts new case&#45;validation&#45;action</text>
</a>
</g>
</g>
<!-- _GH__CASEWORK__CASE_IMPLEMENTATON_PYPI_PILLOW -->
<g id="node13" class="node">
<title>_GH__CASEWORK__CASE_IMPLEMENTATON_PYPI_PILLOW</title>
<g id="a_node13"><a xlink:href="https://github.com/casework/CASE-Implementation-PyPI-Pillow" xlink:title="CASE&#45;Implementation&#45;PyPI&#45;Pillow\nadopts new case&#45;validation&#45;action">
<path fill="#8ec7d2" stroke="#0d6986" d="M1232.5,-717C1232.5,-717 1043.5,-717 1043.5,-717 1037.5,-717 1031.5,-711 1031.5,-705 1031.5,-705 1031.5,-691 1031.5,-691 1031.5,-685 1037.5,-679 1043.5,-679 1043.5,-679 1232.5,-679 1232.5,-679 1238.5,-679 1244.5,-685 1244.5,-691 1244.5,-691 1244.5,-705 1244.5,-705 1244.5,-711 1238.5,-717 1232.5,-717"/>
<text text-anchor="middle" x="1138" y="-701.8" font-family="Times,serif" font-size="14.00">CASE&#45;Implementation&#45;PyPI&#45;Pillow</text>
<text text-anchor="middle" x="1138" y="-686.8" font-family="Times,serif" font-size="14.00">adopts new case&#45;validation&#45;action</text>
</a>
</g>
</g>
<!-- _GH__CASEWORK__CASE_IMPLEMENTATON_UFED_XML -->
<g id="node14" class="node">
<title>_GH__CASEWORK__CASE_IMPLEMENTATON_UFED_XML</title>
<g id="a_node14"><a xlink:href="https://github.com/casework/CASE-Implementation-UFED-XML" xlink:title="CASE&#45;Implementation&#45;UFED&#45;XML\nadopts new case&#45;validation&#45;action">
<path fill="#8ec7d2" stroke="#0d6986" d="M1235,-773C1235,-773 1041,-773 1041,-773 1035,-773 1029,-767 1029,-761 1029,-761 1029,-747 1029,-747 1029,-741 1035,-735 1041,-735 1041,-735 1235,-735 1235,-735 1241,-735 1247,-741 1247,-747 1247,-747 1247,-761 1247,-761 1247,-767 1241,-773 1235,-773"/>
<text text-anchor="middle" x="1138" y="-757.8" font-family="Times,serif" font-size="14.00">CASE&#45;Implementation&#45;UFED&#45;XML</text>
<text text-anchor="middle" x="1138" y="-742.8" font-family="Times,serif" font-size="14.00">adopts new case&#45;validation&#45;action</text>
</a>
</g>
</g>
<!-- _GH__CASEWORK__CASE_IMPLEMENTATON_XRY -->
<g id="node15" class="node">
<title>_GH__CASEWORK__CASE_IMPLEMENTATON_XRY</title>
<g id="a_node15"><a xlink:href="https://github.com/casework/CASE-Implementation-XRY" xlink:title="CASE&#45;Implementation&#45;XRY adopts\nnew case&#45;validation&#45;action">
<path fill="#8ec7d2" stroke="#0d6986" d="M1233,-605C1233,-605 1043,-605 1043,-605 1037,-605 1031,-599 1031,-593 1031,-593 1031,-579 1031,-579 1031,-573 1037,-567 1043,-567 1043,-567 1233,-567 1233,-567 1239,-567 1245,-573 1245,-579 1245,-579 1245,-593 1245,-593 1245,-599 1239,-605 1233,-605"/>
<text text-anchor="middle" x="1138" y="-589.8" font-family="Times,serif" font-size="14.00">CASE&#45;Implementation&#45;XRY adopts</text>
<text text-anchor="middle" x="1138" y="-574.8" font-family="Times,serif" font-size="14.00">new case&#45;validation&#45;action</text>
</a>
</g>
</g>
<!-- _GH__CASEWORK__CASE_MAPPING_TEMPLATE_PYTHON -->
<g id="node16" class="node">
<title>_GH__CASEWORK__CASE_MAPPING_TEMPLATE_PYTHON</title>
<g id="a_node16"><a xlink:href="https://github.com/casework/CASE-Mapping-Template-Python" xlink:title="CASE&#45;Mapping&#45;Template&#45;Python\nadopts new case&#45;validation&#45;action">
<path fill="#8ec7d2" stroke="#0d6986" d="M1228,-661C1228,-661 1048,-661 1048,-661 1042,-661 1036,-655 1036,-649 1036,-649 1036,-635 1036,-635 1036,-629 1042,-623 1048,-623 1048,-623 1228,-623 1228,-623 1234,-623 1240,-629 1240,-635 1240,-635 1240,-649 1240,-649 1240,-655 1234,-661 1228,-661"/>
<text text-anchor="middle" x="1138" y="-645.8" font-family="Times,serif" font-size="14.00">CASE&#45;Mapping&#45;Template&#45;Python</text>
<text text-anchor="middle" x="1138" y="-630.8" font-family="Times,serif" font-size="14.00">adopts new case&#45;validation&#45;action</text>
</a>
</g>
</g>
<!-- _GH__CASEWORK__CASE_BINDINGS_CSHARP_MONITOR -->
<g id="node17" class="node">
<title>_GH__CASEWORK__CASE_BINDINGS_CSHARP_MONITOR</title>
<g id="a_node17"><a xlink:href="https://github.com/casework/CASE-Bindings-CSharp-Monitor" xlink:title="CASE Bindings CSharp Monitor\ntests NuGet package with validation action">
<path fill="#8ec7d2" stroke="#0d6986" d="M1570,-472C1570,-472 1343,-472 1343,-472 1337,-472 1331,-466 1331,-460 1331,-460 1331,-446 1331,-446 1331,-440 1337,-434 1343,-434 1343,-434 1570,-434 1570,-434 1576,-434 1582,-440 1582,-446 1582,-446 1582,-460 1582,-460 1582,-466 1576,-472 1570,-472"/>
<text text-anchor="middle" x="1456.5" y="-456.8" font-family="Times,serif" font-size="14.00">CASE Bindings CSharp Monitor</text>
<text text-anchor="middle" x="1456.5" y="-441.8" font-family="Times,serif" font-size="14.00">tests NuGet package with validation action</text>
</a>
</g>
</g>
<!-- _GH__CIPHERTECHSOLUTIONS__CASE_BINDINGS_CSHARP&#45;&gt;_GH__CASEWORK__CASE_BINDINGS_CSHARP_MONITOR -->
<g id="edge16" class="edge">
<title>_GH__CIPHERTECHSOLUTIONS__CASE_BINDINGS_CSHARP&#45;&gt;_GH__CASEWORK__CASE_BINDINGS_CSHARP_MONITOR</title>
<path fill="none" stroke="black" d="M1224.65,-453C1253.93,-453 1287.44,-453 1319.68,-453"/>
<polygon fill="black" stroke="black" points="1319.56,-456.5 1329.56,-453 1319.56,-449.5 1319.56,-456.5"/>
<text text-anchor="middle" x="1290.5" y="-456.8" font-family="Times,serif" font-size="14.00">NuGet</text>
</g>
<!-- _GH__AJNELSON_NIST__CASE_EXAMPLES_QC -->
<g id="node19" class="node">
<title>_GH__AJNELSON_NIST__CASE_EXAMPLES_QC</title>
<g id="a_node19"><a xlink:href="https://github.com/ajnelson-nist/CASE-Examples-QC" xlink:title="CASE&#45;Examples&#45;QC\nadopts CASE&#45;Examples and\nCASE website updates">
<path fill="#8ec7d2" stroke="#0d6986" d="M1212,-1061.5C1212,-1061.5 1064,-1061.5 1064,-1061.5 1058,-1061.5 1052,-1055.5 1052,-1049.5 1052,-1049.5 1052,-1020.5 1052,-1020.5 1052,-1014.5 1058,-1008.5 1064,-1008.5 1064,-1008.5 1212,-1008.5 1212,-1008.5 1218,-1008.5 1224,-1014.5 1224,-1020.5 1224,-1020.5 1224,-1049.5 1224,-1049.5 1224,-1055.5 1218,-1061.5 1212,-1061.5"/>
<text text-anchor="middle" x="1138" y="-1046.3" font-family="Times,serif" font-size="14.00">CASE&#45;Examples&#45;QC</text>
<text text-anchor="middle" x="1138" y="-1031.3" font-family="Times,serif" font-size="14.00">adopts CASE&#45;Examples and</text>
<text text-anchor="middle" x="1138" y="-1016.3" font-family="Times,serif" font-size="14.00">CASE website updates</text>
</a>
</g>
</g>
<!-- _GH__CASEWORK__CASE_IMPLEMENTATON_PROV_O -->
<g id="node25" class="node">
<title>_GH__CASEWORK__CASE_IMPLEMENTATON_PROV_O</title>
<g id="a_node25"><a xlink:href="https://github.com/casework/CASE-Implementation-PROV-O" xlink:title="case&#45;prov\nreleases">
<path fill="#8ec7d2" stroke="#0d6986" d="M1479,-1001C1479,-1001 1434,-1001 1434,-1001 1428,-1001 1422,-995 1422,-989 1422,-989 1422,-975 1422,-975 1422,-969 1428,-963 1434,-963 1434,-963 1479,-963 1479,-963 1485,-963 1491,-969 1491,-975 1491,-975 1491,-989 1491,-989 1491,-995 1485,-1001 1479,-1001"/>
<text text-anchor="middle" x="1456.5" y="-985.8" font-family="Times,serif" font-size="14.00">case&#45;prov</text>
<text text-anchor="middle" x="1456.5" y="-970.8" font-family="Times,serif" font-size="14.00">releases</text>
</a>
</g>
</g>
<!-- _GH__AJNELSON_NIST__CASE_EXAMPLES_QC&#45;&gt;_GH__CASEWORK__CASE_IMPLEMENTATON_PROV_O -->
<g id="edge1" class="edge">
<title>_GH__AJNELSON_NIST__CASE_EXAMPLES_QC&#45;&gt;_GH__CASEWORK__CASE_IMPLEMENTATON_PROV_O</title>
<path fill="none" stroke="black" d="M1224.23,-1020.73C1284.36,-1010.66 1362.51,-997.57 1410.82,-989.48"/>
<polygon fill="black" stroke="black" points="1411.25,-992.79 1420.54,-987.69 1410.1,-985.89 1411.25,-992.79"/>
<text text-anchor="middle" x="1290.5" y="-1031.8" font-family="Times,serif" font-size="14.00">Git sub&#45;</text>
<text text-anchor="middle" x="1290.5" y="-1016.8" font-family="Times,serif" font-size="14.00">module</text>
</g>
<!-- _GH__CASEWORK__CASE_EXAMPLES -->
<g id="node20" class="node">
<title>_GH__CASEWORK__CASE_EXAMPLES</title>
<g id="a_node20"><a xlink:href="https://github.com/casework/CASE-Examples" xlink:title="CASE&#45;Examples\nadopts new case&#45;utils">
<path fill="#8ec7d2" stroke="#0d6986" d="M861.5,-1004C861.5,-1004 752.5,-1004 752.5,-1004 746.5,-1004 740.5,-998 740.5,-992 740.5,-992 740.5,-978 740.5,-978 740.5,-972 746.5,-966 752.5,-966 752.5,-966 861.5,-966 861.5,-966 867.5,-966 873.5,-972 873.5,-978 873.5,-978 873.5,-992 873.5,-992 873.5,-998 867.5,-1004 861.5,-1004"/>
<text text-anchor="middle" x="807" y="-988.8" font-family="Times,serif" font-size="14.00">CASE&#45;Examples</text>
<text text-anchor="middle" x="807" y="-973.8" font-family="Times,serif" font-size="14.00">adopts new case&#45;utils</text>
</a>
</g>
</g>
<!-- _GH__CASEWORK__CASE_EXAMPLES&#45;&gt;_GH__AJNELSON_NIST__CASE_EXAMPLES_QC -->
<g id="edge5" class="edge">
<title>_GH__CASEWORK__CASE_EXAMPLES&#45;&gt;_GH__AJNELSON_NIST__CASE_EXAMPLES_QC</title>
<path fill="none" stroke="black" d="M873.79,-995C921.69,-1002.28 987.32,-1012.25 1041.06,-1020.42"/>
<polygon fill="black" stroke="black" points="1040.23,-1023.99 1050.64,-1022.03 1041.28,-1017.06 1040.23,-1023.99"/>
<text text-anchor="middle" x="962.5" y="-1032.8" font-family="Times,serif" font-size="14.00">Git sub&#45;</text>
<text text-anchor="middle" x="962.5" y="-1017.8" font-family="Times,serif" font-size="14.00">module</text>
</g>
<!-- _GH__CASEWORK__CASE_IMPLEMENTATON_EXIFTOOL -->
<g id="node21" class="node">
<title>_GH__CASEWORK__CASE_IMPLEMENTATON_EXIFTOOL</title>
<g id="a_node21"><a xlink:href="https://github.com/casework/CASE-Implementation-ExifTool" xlink:title="CASE&#45;Implementation&#45;ExifTool\nadopts new case&#45;utils">
<path fill="#8ec7d2" stroke="#0d6986" d="M893,-1060C893,-1060 721,-1060 721,-1060 715,-1060 709,-1054 709,-1048 709,-1048 709,-1034 709,-1034 709,-1028 715,-1022 721,-1022 721,-1022 893,-1022 893,-1022 899,-1022 905,-1028 905,-1034 905,-1034 905,-1048 905,-1048 905,-1054 899,-1060 893,-1060"/>
<text text-anchor="middle" x="807" y="-1044.8" font-family="Times,serif" font-size="14.00">CASE&#45;Implementation&#45;ExifTool</text>
<text text-anchor="middle" x="807" y="-1029.8" font-family="Times,serif" font-size="14.00">adopts new case&#45;utils</text>
</a>
</g>
</g>
<!-- _GH__CASEWORK__CASE_UTILITIES_PYTHON&#45;&gt;_GH__CASEWORK__CASE_IMPLEMENTATON_GNU_TIME -->
<g id="edge10" class="edge">
<title>_GH__CASEWORK__CASE_UTILITIES_PYTHON&#45;&gt;_GH__CASEWORK__CASE_IMPLEMENTATON_GNU_TIME</title>
<path fill="none" stroke="black" d="M612.39,-942.82C624.66,-939.62 637.59,-933.96 646,-924 673.96,-890.88 678.66,-569.96 709,-539 755.34,-491.72 956.51,-533.11 1002,-485 1021.39,-464.49 991.2,-443.05 1010,-422 1014.02,-417.5 1018.56,-413.61 1023.49,-410.23"/>
<polygon fill="black" stroke="black" points="1024.95,-412.84 1031.74,-404.71 1021.36,-406.83 1024.95,-412.84"/>
<text text-anchor="middle" x="807" y="-542.8" font-family="Times,serif" font-size="14.00">PyPI</text>
</g>
<!-- _GH__CASEWORK__CASE_UTILITIES_PYTHON&#45;&gt;_GH__CASEWORK__CASE_IMPLEMENTATON_PYPI_EXIFREAD -->
<g id="edge12" class="edge">
<title>_GH__CASEWORK__CASE_UTILITIES_PYTHON&#45;&gt;_GH__CASEWORK__CASE_IMPLEMENTATON_PYPI_EXIFREAD</title>
<path fill="none" stroke="black" d="M612.41,-940.08C623.85,-936.59 636.21,-931.45 646,-924 655.86,-916.5 701.79,-842.07 709,-832 801.42,-702.92 783.79,-622.32 923,-546 950.66,-530.83 983.44,-523.95 1014.92,-521.53"/>
<polygon fill="black" stroke="black" points="1014.77,-524.98 1024.54,-520.87 1014.34,-518 1014.77,-524.98"/>
<text text-anchor="middle" x="807" y="-835.8" font-family="Times,serif" font-size="14.00">PyPI</text>
</g>
<!-- _GH__CASEWORK__CASE_UTILITIES_PYTHON&#45;&gt;_GH__AJNELSON_NIST__CASE_EXAMPLES_QC -->
<g id="edge7" class="edge">
<title>_GH__CASEWORK__CASE_UTILITIES_PYTHON&#45;&gt;_GH__AJNELSON_NIST__CASE_EXAMPLES_QC</title>
<path fill="none" stroke="black" d="M592.18,-966.49C613.01,-995.35 656.62,-1048.27 709,-1069 819.01,-1112.53 957.12,-1089.02 1046.21,-1064.86"/>
<polygon fill="black" stroke="black" points="1046.85,-1068.03 1055.56,-1061.99 1044.98,-1061.29 1046.85,-1068.03"/>
<text text-anchor="middle" x="807" y="-1096.8" font-family="Times,serif" font-size="14.00">PyPI</text>
</g>
<!-- _GH__CASEWORK__CASE_UTILITIES_PYTHON&#45;&gt;_GH__CASEWORK__CASE_EXAMPLES -->
<g id="edge8" class="edge">
<title>_GH__CASEWORK__CASE_UTILITIES_PYTHON&#45;&gt;_GH__CASEWORK__CASE_EXAMPLES</title>
<path fill="none" stroke="black" d="M612.49,-952.61C643.22,-957.75 689.87,-965.56 729.66,-972.22"/>
<polygon fill="black" stroke="black" points="728.98,-975.82 739.42,-974.02 730.13,-968.92 728.98,-975.82"/>
<text text-anchor="middle" x="677.5" y="-967.8" font-family="Times,serif" font-size="14.00">PyPI</text>
</g>
<!-- _GH__CASEWORK__CASE_UTILITIES_PYTHON&#45;&gt;_GH__CASEWORK__CASE_IMPLEMENTATON_EXIFTOOL -->
<g id="edge9" class="edge">
<title>_GH__CASEWORK__CASE_UTILITIES_PYTHON&#45;&gt;_GH__CASEWORK__CASE_IMPLEMENTATON_EXIFTOOL</title>
<path fill="none" stroke="black" d="M612.4,-966.17C638.2,-980.42 675.09,-999.64 709,-1013 713.43,-1014.75 718.01,-1016.44 722.67,-1018.06"/>
<polygon fill="black" stroke="black" points="721.34,-1021.65 731.93,-1021.52 723.57,-1015.01 721.34,-1021.65"/>
<text text-anchor="middle" x="677.5" y="-1008.8" font-family="Times,serif" font-size="14.00">PyPI</text>
</g>
<!-- _GH__CASEWORK__CASEWORK_GITHUB_IO -->
<g id="node23" class="node">
<title>_GH__CASEWORK__CASEWORK_GITHUB_IO</title>
<g id="a_node23"><a xlink:href="https://github.com/casework/casework.github.io" xlink:title="CASE website\nadopts new case&#45;utils">
<path fill="#8ec7d2" stroke="#0d6986" d="M861.5,-1167C861.5,-1167 752.5,-1167 752.5,-1167 746.5,-1167 740.5,-1161 740.5,-1155 740.5,-1155 740.5,-1141 740.5,-1141 740.5,-1135 746.5,-1129 752.5,-1129 752.5,-1129 861.5,-1129 861.5,-1129 867.5,-1129 873.5,-1135 873.5,-1141 873.5,-1141 873.5,-1155 873.5,-1155 873.5,-1161 867.5,-1167 861.5,-1167"/>
<text text-anchor="middle" x="807" y="-1151.8" font-family="Times,serif" font-size="14.00">CASE website</text>
<text text-anchor="middle" x="807" y="-1136.8" font-family="Times,serif" font-size="14.00">adopts new case&#45;utils</text>
</a>
</g>
</g>
<!-- _GH__CASEWORK__CASE_UTILITIES_PYTHON&#45;&gt;_GH__CASEWORK__CASEWORK_GITHUB_IO -->
<g id="edge14" class="edge">
<title>_GH__CASEWORK__CASE_UTILITIES_PYTHON&#45;&gt;_GH__CASEWORK__CASEWORK_GITHUB_IO</title>
<path fill="none" stroke="black" d="M584.54,-966.32C594.83,-998.81 619.95,-1064.42 664,-1101 682.71,-1116.54 706.74,-1127 729.68,-1134.02"/>
<polygon fill="black" stroke="black" points="728.55,-1137.62 739.13,-1137 730.48,-1130.89 728.55,-1137.62"/>
<text text-anchor="middle" x="677.5" y="-1119.8" font-family="Times,serif" font-size="14.00">PyPI</text>
</g>
<!-- _GH__CASEWORK__CASE_UTILITIES_PYTHON&#45;&gt;_GH__CASEWORK__CASE_IMPLEMENTATON_PROV_O -->
<g id="edge11" class="edge">
<title>_GH__CASEWORK__CASE_UTILITIES_PYTHON&#45;&gt;_GH__CASEWORK__CASE_IMPLEMENTATON_PROV_O</title>
<path fill="none" stroke="black" d="M612.33,-947.86C671.33,-949.42 798.06,-952.93 905,-957 1093.1,-964.16 1317.24,-975.08 1410.91,-979.75"/>
<polygon fill="black" stroke="black" points="1410.52,-983.29 1420.68,-980.29 1410.87,-976.3 1410.52,-983.29"/>
<text text-anchor="middle" x="962.5" y="-963.8" font-family="Times,serif" font-size="14.00">PyPI</text>
</g>
<!-- _GH__KCHASON__CASE_VALIDATION_ACTION -->
<g id="node27" class="node">
<title>_GH__KCHASON__CASE_VALIDATION_ACTION</title>
<g id="a_node27"><a xlink:href="https://github.com/kchason/case-validation-action" xlink:title="case&#45;validation&#45;action\nreleases">
<path fill="#8ec7d2" stroke="#0d6986" d="M863,-897C863,-897 751,-897 751,-897 745,-897 739,-891 739,-885 739,-885 739,-871 739,-871 739,-865 745,-859 751,-859 751,-859 863,-859 863,-859 869,-859 875,-865 875,-871 875,-871 875,-885 875,-885 875,-891 869,-897 863,-897"/>
<text text-anchor="middle" x="807" y="-881.8" font-family="Times,serif" font-size="14.00">case&#45;validation&#45;action</text>
<text text-anchor="middle" x="807" y="-866.8" font-family="Times,serif" font-size="14.00">releases</text>
</a>
</g>
</g>
<!-- _GH__CASEWORK__CASE_UTILITIES_PYTHON&#45;&gt;_GH__KCHASON__CASE_VALIDATION_ACTION -->
<g id="edge13" class="edge">
<title>_GH__CASEWORK__CASE_UTILITIES_PYTHON&#45;&gt;_GH__KCHASON__CASE_VALIDATION_ACTION</title>
<path fill="none" stroke="black" d="M612.44,-935.66C623.17,-931.99 635.1,-927.86 646,-924 674.1,-914.05 680.45,-909.56 709,-901 715.26,-899.12 721.77,-897.3 728.34,-895.56"/>
<polygon fill="black" stroke="black" points="728.87,-898.78 737.68,-892.88 727.12,-892 728.87,-898.78"/>
<text text-anchor="middle" x="677.5" y="-920.8" font-family="Times,serif" font-size="14.00">PyPI</text>
</g>
<!-- _GH__CASEWORK__CASEWORK_GITHUB_IO&#45;&gt;_GH__AJNELSON_NIST__CASE_EXAMPLES_QC -->
<g id="edge15" class="edge">
<title>_GH__CASEWORK__CASEWORK_GITHUB_IO&#45;&gt;_GH__AJNELSON_NIST__CASE_EXAMPLES_QC</title>
<path fill="none" stroke="black" d="M873.71,-1135.79C911.77,-1127.8 960.27,-1116.05 1002,-1101 1027.88,-1091.67 1055.34,-1078.82 1078.69,-1066.95"/>
<polygon fill="black" stroke="black" points="1080.14,-1069.62 1087.43,-1061.93 1076.94,-1063.4 1080.14,-1069.62"/>
<text text-anchor="middle" x="962.5" y="-1142.8" font-family="Times,serif" font-size="14.00">Git sub&#45;</text>
<text text-anchor="middle" x="962.5" y="-1127.8" font-family="Times,serif" font-size="14.00">module</text>
</g>
<!-- _GH__CASEWORK__CASE_CORPORA -->
<g id="node24" class="node">
<title>_GH__CASEWORK__CASE_CORPORA</title>
<g id="a_node24"><a xlink:href="https://github.com/casework/CASE-Corpora" xlink:title="CASE&#45;Corpora\nadopts new case&#45;prov">
<path fill="#8ec7d2" stroke="#0d6986" d="M1781,-1001C1781,-1001 1671,-1001 1671,-1001 1665,-1001 1659,-995 1659,-989 1659,-989 1659,-975 1659,-975 1659,-969 1665,-963 1671,-963 1671,-963 1781,-963 1781,-963 1787,-963 1793,-969 1793,-975 1793,-975 1793,-989 1793,-989 1793,-995 1787,-1001 1781,-1001"/>
<text text-anchor="middle" x="1726" y="-985.8" font-family="Times,serif" font-size="14.00">CASE&#45;Corpora</text>
<text text-anchor="middle" x="1726" y="-970.8" font-family="Times,serif" font-size="14.00">adopts new case&#45;prov</text>
</a>
</g>
</g>
<!-- _GH__CASEWORK__CASE_IMPLEMENTATON_PROV_O&#45;&gt;_GH__CASEWORK__CASE_CORPORA -->
<g id="edge6" class="edge">
<title>_GH__CASEWORK__CASE_IMPLEMENTATON_PROV_O&#45;&gt;_GH__CASEWORK__CASE_CORPORA</title>
<path fill="none" stroke="black" d="M1491.38,-982C1530.49,-982 1596.08,-982 1647.82,-982"/>
<polygon fill="black" stroke="black" points="1647.63,-985.5 1657.63,-982 1647.63,-978.5 1647.63,-985.5"/>
<text text-anchor="middle" x="1627.5" y="-985.8" font-family="Times,serif" font-size="14.00">PyPI</text>
</g>
<!-- _GH__CASEWORK__CASE_EXAMPLES_CONVERSION -->
<g id="node26" class="node">
<title>_GH__CASEWORK__CASE_EXAMPLES_CONVERSION</title>
<g id="a_node26"><a xlink:href="https://github.com/casework/CASE-Examples-Conversion" xlink:title="CASE Conversion Examples">
<path fill="#8ec7d2" stroke="#0d6986" d="M1213.5,-897C1213.5,-897 1062.5,-897 1062.5,-897 1056.5,-897 1050.5,-891 1050.5,-885 1050.5,-885 1050.5,-873 1050.5,-873 1050.5,-867 1056.5,-861 1062.5,-861 1062.5,-861 1213.5,-861 1213.5,-861 1219.5,-861 1225.5,-867 1225.5,-873 1225.5,-873 1225.5,-885 1225.5,-885 1225.5,-891 1219.5,-897 1213.5,-897"/>
<text text-anchor="middle" x="1138" y="-875.3" font-family="Times,serif" font-size="14.00">CASE Conversion Examples</text>
</a>
</g>
</g>
<!-- _GH__KCHASON__CASE_VALIDATION_ACTION&#45;&gt;_GH__CASEWORK__CASE_IMPLEMENTATON_PYPI_EXIFREAD -->
<g id="edge20" class="edge">
<title>_GH__KCHASON__CASE_VALIDATION_ACTION&#45;&gt;_GH__CASEWORK__CASE_IMPLEMENTATON_PYPI_EXIFREAD</title>
<path fill="none" stroke="black" d="M808.76,-858.89C812.07,-803.75 829.67,-643.37 923,-566 930.94,-559.42 971.22,-551.88 1014.73,-545.41"/>
<polygon fill="black" stroke="black" points="1015.16,-548.74 1024.55,-543.84 1014.15,-541.82 1015.16,-548.74"/>
<text text-anchor="middle" x="962.5" y="-584.8" font-family="Times,serif" font-size="14.00">GitHub</text>
<text text-anchor="middle" x="962.5" y="-569.8" font-family="Times,serif" font-size="14.00">Action</text>
</g>
<!-- _GH__KCHASON__CASE_VALIDATION_ACTION&#45;&gt;_GH__CASEWORK__CASE_IMPLEMENTATON_PYPI_PILLOW -->
<g id="edge21" class="edge">
<title>_GH__KCHASON__CASE_VALIDATION_ACTION&#45;&gt;_GH__CASEWORK__CASE_IMPLEMENTATON_PYPI_PILLOW</title>
<path fill="none" stroke="black" d="M816,-858.76C831.24,-824.82 867.89,-754.88 923,-723 940.17,-713.07 979.82,-707.08 1020.39,-703.46"/>
<polygon fill="black" stroke="black" points="1020.6,-706.88 1030.27,-702.55 1020.02,-699.9 1020.6,-706.88"/>
<text text-anchor="middle" x="962.5" y="-741.8" font-family="Times,serif" font-size="14.00">GitHub</text>
<text text-anchor="middle" x="962.5" y="-726.8" font-family="Times,serif" font-size="14.00">Action</text>
</g>
<!-- _GH__KCHASON__CASE_VALIDATION_ACTION&#45;&gt;_GH__CASEWORK__CASE_IMPLEMENTATON_UFED_XML -->
<g id="edge22" class="edge">
<title>_GH__KCHASON__CASE_VALIDATION_ACTION&#45;&gt;_GH__CASEWORK__CASE_IMPLEMENTATON_UFED_XML</title>
<path fill="none" stroke="black" d="M823.56,-858.67C843.74,-835.15 881.33,-796.29 923,-778 952.37,-765.1 986.09,-758.16 1017.95,-754.62"/>
<polygon fill="black" stroke="black" points="1018.07,-758.02 1027.67,-753.55 1017.37,-751.06 1018.07,-758.02"/>
<text text-anchor="middle" x="962.5" y="-796.8" font-family="Times,serif" font-size="14.00">GitHub</text>
<text text-anchor="middle" x="962.5" y="-781.8" font-family="Times,serif" font-size="14.00">Action</text>
</g>
<!-- _GH__KCHASON__CASE_VALIDATION_ACTION&#45;&gt;_GH__CASEWORK__CASE_IMPLEMENTATON_XRY -->
<g id="edge23" class="edge">
<title>_GH__KCHASON__CASE_VALIDATION_ACTION&#45;&gt;_GH__CASEWORK__CASE_IMPLEMENTATON_XRY</title>
<path fill="none" stroke="black" d="M810.2,-858.72C816.93,-809.47 841.98,-678.57 923,-617 931.47,-610.56 974.44,-603.74 1019.67,-598.15"/>
<polygon fill="black" stroke="black" points="1020.07,-601.5 1029.58,-596.82 1019.23,-594.55 1020.07,-601.5"/>
<text text-anchor="middle" x="962.5" y="-635.8" font-family="Times,serif" font-size="14.00">GitHub</text>
<text text-anchor="middle" x="962.5" y="-620.8" font-family="Times,serif" font-size="14.00">Action</text>
</g>
<!-- _GH__KCHASON__CASE_VALIDATION_ACTION&#45;&gt;_GH__CASEWORK__CASE_MAPPING_TEMPLATE_PYTHON -->
<g id="edge24" class="edge">
<title>_GH__KCHASON__CASE_VALIDATION_ACTION&#45;&gt;_GH__CASEWORK__CASE_MAPPING_TEMPLATE_PYTHON</title>
<path fill="none" stroke="black" d="M812.52,-858.65C823.43,-816.63 855.44,-717.14 923,-671 940.13,-659.3 982.41,-652.3 1024.91,-648.12"/>
<polygon fill="black" stroke="black" points="1025.08,-651.53 1034.71,-647.12 1024.43,-644.56 1025.08,-651.53"/>
<text text-anchor="middle" x="962.5" y="-689.8" font-family="Times,serif" font-size="14.00">GitHub</text>
<text text-anchor="middle" x="962.5" y="-674.8" font-family="Times,serif" font-size="14.00">Action</text>
</g>
<!-- _GH__KCHASON__CASE_VALIDATION_ACTION&#45;&gt;_GH__CASEWORK__CASE_BINDINGS_CSHARP_MONITOR -->
<g id="edge18" class="edge">
<title>_GH__KCHASON__CASE_VALIDATION_ACTION&#45;&gt;_GH__CASEWORK__CASE_BINDINGS_CSHARP_MONITOR</title>
<path fill="none" stroke="black" d="M875.31,-859.28C933.39,-843.14 1008.26,-822.35 1010,-822 1115.42,-800.69 1159.83,-849.63 1250,-791 1365.62,-715.83 1426.3,-550.6 1447.09,-482.86"/>
<polygon fill="black" stroke="black" points="1450.68,-484.07 1450.19,-473.49 1443.97,-482.07 1450.68,-484.07"/>
<text text-anchor="middle" x="1138" y="-840.8" font-family="Times,serif" font-size="14.00">GitHub</text>
<text text-anchor="middle" x="1138" y="-825.8" font-family="Times,serif" font-size="14.00">Action</text>
</g>
<!-- _GH__KCHASON__CASE_VALIDATION_ACTION&#45;&gt;_GH__CASEWORK__CASE_EXAMPLES_CONVERSION -->
<g id="edge19" class="edge">
<title>_GH__KCHASON__CASE_VALIDATION_ACTION&#45;&gt;_GH__CASEWORK__CASE_EXAMPLES_CONVERSION</title>
<path fill="none" stroke="black" d="M875.22,-863.62C890.83,-860.87 907.44,-858.41 923,-857 957.97,-853.83 967,-854.17 1002,-857 1014.2,-857.99 1026.97,-859.47 1039.57,-861.21"/>
<polygon fill="black" stroke="black" points="1038.71,-864.76 1049.11,-862.72 1039.71,-857.84 1038.71,-864.76"/>
<text text-anchor="middle" x="962.5" y="-875.8" font-family="Times,serif" font-size="14.00">GitHub</text>
<text text-anchor="middle" x="962.5" y="-860.8" font-family="Times,serif" font-size="14.00">Action</text>
</g>
<!-- _GH__DOD_CYBER_CRIME_CENTER__SQLITE_DISSECT -->
<g id="node28" class="node">
<title>_GH__DOD_CYBER_CRIME_CENTER__SQLITE_DISSECT</title>
<g id="a_node28"><a xlink:href="https://github.com/dod-cyber-crime-center/sqlite-dissect" xlink:title="sqlite&#45;dissect\nadopts new case&#45;validation&#45;action">
<path fill="#8ec7d2" stroke="#0d6986" d="M1226.5,-178C1226.5,-178 1049.5,-178 1049.5,-178 1043.5,-178 1037.5,-172 1037.5,-166 1037.5,-166 1037.5,-152 1037.5,-152 1037.5,-146 1043.5,-140 1049.5,-140 1049.5,-140 1226.5,-140 1226.5,-140 1232.5,-140 1238.5,-146 1238.5,-152 1238.5,-152 1238.5,-166 1238.5,-166 1238.5,-172 1232.5,-178 1226.5,-178"/>
<text text-anchor="middle" x="1138" y="-162.8" font-family="Times,serif" font-size="14.00">sqlite&#45;dissect</text>
<text text-anchor="middle" x="1138" y="-147.8" font-family="Times,serif" font-size="14.00">adopts new case&#45;validation&#45;action</text>
</a>
</g>
</g>
<!-- _GH__KCHASON__CASE_VALIDATION_ACTION&#45;&gt;_GH__DOD_CYBER_CRIME_CENTER__SQLITE_DISSECT -->
<g id="edge25" class="edge">
<title>_GH__KCHASON__CASE_VALIDATION_ACTION&#45;&gt;_GH__DOD_CYBER_CRIME_CENTER__SQLITE_DISSECT</title>
<g id="a_edge25"><a xlink:href="https://github.com/dod-cyber-crime-center/sqlite-dissect/pull/31" xlink:title="TODO: PR 31">
<path fill="none" stroke="black" d="M813.18,-858.64C827.76,-805.05 871.48,-650.66 923,-528 955.56,-450.48 968.17,-432.94 1010,-360 1046.06,-297.11 1092.41,-225.92 1117.97,-187.41"/>
<polygon fill="black" stroke="black" points="1121.37,-189.61 1123.99,-179.34 1115.54,-185.73 1121.37,-189.61"/>
</a>
</g>
<g id="a_edge25&#45;label"><a xlink:href="https://github.com/dod-cyber-crime-center/sqlite-dissect/pull/31" xlink:title="TODO: PR 31">
<text text-anchor="middle" x="962.5" y="-531.8" font-family="Times,serif" font-size="14.00">TODO: PR 31</text>
</a>
</g>
</g>
</g>
</svg>
