<?xml version="1.0" encoding="UTF-8" standalone="no"?>
<!DOCTYPE svg PUBLIC "-//W3C//DTD SVG 1.1//EN"
 "http://www.w3.org/Graphics/SVG/1.1/DTD/svg11.dtd">
<!-- Generated by graphviz version 8.0.3 (20230416.2022)
 -->
<!-- Title: cdo_release_flow Pages: 1 -->
<svg width="1784pt" height="967pt"
 viewBox="0.00 0.00 1784.00 967.00" xmlns="http://www.w3.org/2000/svg" xmlns:xlink="http://www.w3.org/1999/xlink">
<g id="graph0" class="graph" transform="scale(1 1) rotate(0) translate(4 963)">
<title>cdo_release_flow</title>
<polygon fill="white" stroke="none" points="-4,4 -4,-963 1780,-963 1780,4 -4,4"/>
<text text-anchor="middle" x="888" y="-38.8" font-family="Times,serif" font-size="14.00">Release flow of CDO ontologies</text>
<text text-anchor="middle" x="888" y="-7.8" font-family="Times,serif" font-size="14.00">Nodes link to the respective Git repository.</text>
<g id="clust1" class="cluster">
<title>cluster_uco_0_9_1</title>
<polygon fill="none" stroke="black" points="0,-62 0,-178 168,-178 168,-62 0,-62"/>
<text text-anchor="middle" x="84" y="-162.8" font-family="Times,serif" font-size="14.00">Adoption of UCO 0.9.1</text>
</g>
<g id="clust2" class="cluster">
<title>cluster_case_0_7_1</title>
<polygon fill="none" stroke="black" points="8,-70 8,-147 160,-147 160,-70 8,-70"/>
<text text-anchor="middle" x="84" y="-131.8" font-family="Times,serif" font-size="14.00">Adoption of CASE 0.7.1</text>
</g>
<g id="clust3" class="cluster">
<title>cluster_uco_1_2_0</title>
<polygon fill="none" stroke="black" points="26,-186 26,-951 1768,-951 1768,-186 26,-186"/>
<text text-anchor="middle" x="897" y="-935.8" font-family="Times,serif" font-size="14.00">Adoption of UCO 1.2.0</text>
</g>
<g id="clust4" class="cluster">
<title>cluster_case_1_2_0</title>
<polygon fill="none" stroke="black" points="245.5,-303 245.5,-920 1760,-920 1760,-303 245.5,-303"/>
<text text-anchor="middle" x="1002.75" y="-904.8" font-family="Times,serif" font-size="14.00">Adoption of CASE 1.2.0</text>
</g>
<g id="clust5" class="cluster">
<title>cluster_case_utils_0_10_0</title>
<polygon fill="none" stroke="black" points="949,-311 949,-889 1752,-889 1752,-311 949,-311"/>
<text text-anchor="middle" x="1350.5" y="-873.8" font-family="Times,serif" font-size="14.00">Adoption of case&#45;utils 0.10.0</text>
</g>
<g id="clust7" class="cluster">
<title>cluster_case_validation_action_2_6</title>
<polygon fill="none" stroke="black" points="959.5,-319 959.5,-740 1549,-740 1549,-319 959.5,-319"/>
<text text-anchor="middle" x="1254.25" y="-724.8" font-family="Times,serif" font-size="14.00">Adoption of case&#45;validation&#45;action 2.6</text>
</g>
<g id="clust8" class="cluster">
<title>cluster_case_bindings_csharp_0_4_0</title>
<polygon fill="none" stroke="black" points="967.5,-632 967.5,-709 1541,-709 1541,-632 967.5,-632"/>
<text text-anchor="middle" x="1254.25" y="-693.8" font-family="Times,serif" font-size="14.00">Adoption of CSharp bindings 0.4.0</text>
</g>
<g id="clust6" class="cluster">
<title>cluster_case_prov_0_7_0</title>
<polygon fill="none" stroke="black" points="1365,-781 1365,-858 1744,-858 1744,-781 1365,-781"/>
<text text-anchor="middle" x="1554.5" y="-842.8" font-family="Times,serif" font-size="14.00">Adoption of case&#45;prov 0.7.0</text>
</g>
<g id="clust9" class="cluster">
<title>cluster_case_utils_0_11_0</title>
<polygon fill="none" stroke="black" points="507,-697 507,-886 884,-886 884,-697 507,-697"/>
<text text-anchor="middle" x="695.5" y="-870.8" font-family="Times,serif" font-size="14.00">Adoption of case&#45;utils 0.11.0</text>
</g>
<!-- _GH__CASEWORK__CASE_MAPPING_TEMPLATE_STUBS -->
<g id="node1" class="node">
<title>_GH__CASEWORK__CASE_MAPPING_TEMPLATE_STUBS</title>
<g id="a_node1"><a xlink:href="https://github.com/casework/CASE-Mapping-Template-Stubs" xlink:title="CASE Mapping\nTemplate Stubs">
<path fill="#8ec7d2" stroke="#0d6986" d="M124,-116C124,-116 44,-116 44,-116 38,-116 32,-110 32,-104 32,-104 32,-90 32,-90 32,-84 38,-78 44,-78 44,-78 124,-78 124,-78 130,-78 136,-84 136,-90 136,-90 136,-104 136,-104 136,-110 130,-116 124,-116"/>
<text text-anchor="middle" x="84" y="-100.8" font-family="Times,serif" font-size="14.00">CASE Mapping</text>
<text text-anchor="middle" x="84" y="-85.8" font-family="Times,serif" font-size="14.00">Template Stubs</text>
</a>
</g>
</g>
<!-- _GH__UCOPROJECT__ONTOLOGY_UNIFIEDCYBERONTOLOGY_ORG -->
<g id="node2" class="node">
<title>_GH__UCOPROJECT__ONTOLOGY_UNIFIEDCYBERONTOLOGY_ORG</title>
<g id="a_node2"><a xlink:href="https://github.com/ucoProject/ontology.unifiedcyberontology.org" xlink:title="UCO documentation\nregenerated">
<path fill="#8ec7d2" stroke="#0d6986" d="M359.5,-295C359.5,-295 253.5,-295 253.5,-295 247.5,-295 241.5,-289 241.5,-283 241.5,-283 241.5,-269 241.5,-269 241.5,-263 247.5,-257 253.5,-257 253.5,-257 359.5,-257 359.5,-257 365.5,-257 371.5,-263 371.5,-269 371.5,-269 371.5,-283 371.5,-283 371.5,-289 365.5,-295 359.5,-295"/>
<text text-anchor="middle" x="306.5" y="-279.8" font-family="Times,serif" font-size="14.00">UCO documentation</text>
<text text-anchor="middle" x="306.5" y="-264.8" font-family="Times,serif" font-size="14.00">regenerated</text>
</a>
</g>
</g>
<!-- _GH__CASEWORK__ONTOLOGY_CASEONTOLOGY_ORG -->
<g id="node8" class="node">
<title>_GH__CASEWORK__ONTOLOGY_CASEONTOLOGY_ORG</title>
<g id="a_node8"><a xlink:href="https://github.com/casework/ontology.caseontology.org" xlink:title="CASE documentation\nregenerated">
<path fill="#8ec7d2" stroke="#0d6986" d="M605,-473C605,-473 493,-473 493,-473 487,-473 481,-467 481,-461 481,-461 481,-447 481,-447 481,-441 487,-435 493,-435 493,-435 605,-435 605,-435 611,-435 617,-441 617,-447 617,-447 617,-461 617,-461 617,-467 611,-473 605,-473"/>
<text text-anchor="middle" x="549" y="-457.8" font-family="Times,serif" font-size="14.00">CASE documentation</text>
<text text-anchor="middle" x="549" y="-442.8" font-family="Times,serif" font-size="14.00">regenerated</text>
</a>
</g>
</g>
<!-- _GH__UCOPROJECT__ONTOLOGY_UNIFIEDCYBERONTOLOGY_ORG&#45;&gt;_GH__CASEWORK__ONTOLOGY_CASEONTOLOGY_ORG -->
<g id="edge23" class="edge">
<title>_GH__UCOPROJECT__ONTOLOGY_UNIFIEDCYBERONTOLOGY_ORG&#45;&gt;_GH__CASEWORK__ONTOLOGY_CASEONTOLOGY_ORG</title>
<path fill="none" stroke="black" d="M368.39,-295.4C370.32,-296.54 372.2,-297.74 374,-299 433.07,-340.4 420.45,-383.65 478.04,-428.3"/>
<polygon fill="black" stroke="black" points="475.52,-431.52 485.65,-434.61 479.66,-425.88 475.52,-431.52"/>
<text text-anchor="middle" x="427.5" y="-433.8" font-family="Times,serif" font-size="14.00">Tech&#45;</text>
<text text-anchor="middle" x="427.5" y="-418.8" font-family="Times,serif" font-size="14.00">check</text>
</g>
<!-- _GH__UCOPROJECT__UCO -->
<g id="node3" class="node">
<title>_GH__UCOPROJECT__UCO</title>
<g id="a_node3"><a xlink:href="https://github.com/ucoProject/UCO" xlink:title="UCO Ontology\nreleases">
<path fill="#8ec7d2" stroke="#0d6986" d="M122,-295C122,-295 46,-295 46,-295 40,-295 34,-289 34,-283 34,-283 34,-269 34,-269 34,-263 40,-257 46,-257 46,-257 122,-257 122,-257 128,-257 134,-263 134,-269 134,-269 134,-283 134,-283 134,-289 128,-295 122,-295"/>
<text text-anchor="middle" x="84" y="-279.8" font-family="Times,serif" font-size="14.00">UCO Ontology</text>
<text text-anchor="middle" x="84" y="-264.8" font-family="Times,serif" font-size="14.00">releases</text>
</a>
</g>
</g>
<!-- _GH__UCOPROJECT__UCO&#45;&gt;_GH__UCOPROJECT__ONTOLOGY_UNIFIEDCYBERONTOLOGY_ORG -->
<g id="edge25" class="edge">
<title>_GH__UCOPROJECT__UCO&#45;&gt;_GH__UCOPROJECT__ONTOLOGY_UNIFIEDCYBERONTOLOGY_ORG</title>
<path fill="none" stroke="black" d="M134.48,-276C162.65,-276 198.52,-276 230.12,-276"/>
<polygon fill="black" stroke="black" points="230.1,-279.5 240.1,-276 230.1,-272.5 230.1,-279.5"/>
<text text-anchor="middle" x="198.5" y="-294.8" font-family="Times,serif" font-size="14.00">Git sub&#45;</text>
<text text-anchor="middle" x="198.5" y="-279.8" font-family="Times,serif" font-size="14.00">module</text>
</g>
<!-- _GH__UCOPROJECT__UCO_PROFILE_EXAMPLE -->
<g id="node5" class="node">
<title>_GH__UCOPROJECT__UCO_PROFILE_EXAMPLE</title>
<g id="a_node5"><a xlink:href="https://github.com/ucoProject/UCO-Profile-Example" xlink:title="UCO example profile\nupdates">
<path fill="#8ec7d2" stroke="#0d6986" d="M362,-239C362,-239 251,-239 251,-239 245,-239 239,-233 239,-227 239,-227 239,-213 239,-213 239,-207 245,-201 251,-201 251,-201 362,-201 362,-201 368,-201 374,-207 374,-213 374,-213 374,-227 374,-227 374,-233 368,-239 362,-239"/>
<text text-anchor="middle" x="306.5" y="-223.8" font-family="Times,serif" font-size="14.00">UCO example profile</text>
<text text-anchor="middle" x="306.5" y="-208.8" font-family="Times,serif" font-size="14.00">updates</text>
</a>
</g>
</g>
<!-- _GH__UCOPROJECT__UCO&#45;&gt;_GH__UCOPROJECT__UCO_PROFILE_EXAMPLE -->
<g id="edge26" class="edge">
<title>_GH__UCOPROJECT__UCO&#45;&gt;_GH__UCOPROJECT__UCO_PROFILE_EXAMPLE</title>
<path fill="none" stroke="black" d="M131.68,-256.63C145.74,-251.32 161.34,-245.95 176,-242 192.69,-237.51 210.84,-233.75 228.13,-230.68"/>
<polygon fill="black" stroke="black" points="228.5,-234 237.76,-228.86 227.32,-227.1 228.5,-234"/>
<text text-anchor="middle" x="198.5" y="-260.8" font-family="Times,serif" font-size="14.00">Git sub&#45;</text>
<text text-anchor="middle" x="198.5" y="-245.8" font-family="Times,serif" font-size="14.00">module</text>
</g>
<!-- _GH__CASEWORK__CASE -->
<g id="node7" class="node">
<title>_GH__CASEWORK__CASE</title>
<g id="a_node7"><a xlink:href="https://github.com/casework/CASE" xlink:title="CASE Ontology\nreleases">
<path fill="#8ec7d2" stroke="#0d6986" d="M347.5,-550C347.5,-550 265.5,-550 265.5,-550 259.5,-550 253.5,-544 253.5,-538 253.5,-538 253.5,-524 253.5,-524 253.5,-518 259.5,-512 265.5,-512 265.5,-512 347.5,-512 347.5,-512 353.5,-512 359.5,-518 359.5,-524 359.5,-524 359.5,-538 359.5,-538 359.5,-544 353.5,-550 347.5,-550"/>
<text text-anchor="middle" x="306.5" y="-534.8" font-family="Times,serif" font-size="14.00">CASE Ontology</text>
<text text-anchor="middle" x="306.5" y="-519.8" font-family="Times,serif" font-size="14.00">releases</text>
</a>
</g>
</g>
<!-- _GH__UCOPROJECT__UCO&#45;&gt;_GH__CASEWORK__CASE -->
<g id="edge24" class="edge">
<title>_GH__UCOPROJECT__UCO&#45;&gt;_GH__CASEWORK__CASE</title>
<path fill="none" stroke="black" d="M92.63,-295.29C111.05,-339.42 162.17,-448.51 239,-508 240.63,-509.26 242.33,-510.46 244.1,-511.59"/>
<polygon fill="black" stroke="black" points="241.86,-514.91 252.3,-516.74 245.28,-508.8 241.86,-514.91"/>
<text text-anchor="middle" x="198.5" y="-506.8" font-family="Times,serif" font-size="14.00">Git sub&#45;</text>
<text text-anchor="middle" x="198.5" y="-491.8" font-family="Times,serif" font-size="14.00">module</text>
</g>
<!-- _GH__UCOPROJECT__UCO_PROFILE_BFO -->
<g id="node4" class="node">
<title>_GH__UCOPROJECT__UCO_PROFILE_BFO</title>
<g id="a_node4"><a xlink:href="https://github.com/ucoProject/UCO-Profile-BFO" xlink:title="UCO BFO profile\nupdates">
<path fill="#8ec7d2" stroke="#0d6986" d="M594.5,-288C594.5,-288 503.5,-288 503.5,-288 497.5,-288 491.5,-282 491.5,-276 491.5,-276 491.5,-262 491.5,-262 491.5,-256 497.5,-250 503.5,-250 503.5,-250 594.5,-250 594.5,-250 600.5,-250 606.5,-256 606.5,-262 606.5,-262 606.5,-276 606.5,-276 606.5,-282 600.5,-288 594.5,-288"/>
<text text-anchor="middle" x="549" y="-272.8" font-family="Times,serif" font-size="14.00">UCO BFO profile</text>
<text text-anchor="middle" x="549" y="-257.8" font-family="Times,serif" font-size="14.00">updates</text>
</a>
</g>
</g>
<!-- _GH__UCOPROJECT__UCO_PROFILE_EXAMPLE&#45;&gt;_GH__UCOPROJECT__UCO_PROFILE_BFO -->
<g id="edge27" class="edge">
<title>_GH__UCOPROJECT__UCO_PROFILE_EXAMPLE&#45;&gt;_GH__UCOPROJECT__UCO_PROFILE_BFO</title>
<path fill="none" stroke="black" d="M374.23,-238.83C380.22,-240.32 386.21,-241.73 392,-243 420.77,-249.3 452.82,-254.88 480.35,-259.24"/>
<polygon fill="black" stroke="black" points="479.63,-262.83 490.05,-260.92 480.71,-255.92 479.63,-262.83"/>
<text text-anchor="middle" x="427.5" y="-273.8" font-family="Times,serif" font-size="14.00">Git merge of</text>
<text text-anchor="middle" x="427.5" y="-258.8" font-family="Times,serif" font-size="14.00">base branch</text>
</g>
<!-- _GH__UCOPROJECT__UCO_PROFILE_FOAF -->
<g id="node6" class="node">
<title>_GH__UCOPROJECT__UCO_PROFILE_FOAF</title>
<g id="a_node6"><a xlink:href="https://github.com/ucoProject/UCO-Profile-FOAF" xlink:title="UCO FOAF profile\nupdates">
<path fill="#8ec7d2" stroke="#0d6986" d="M598.5,-232C598.5,-232 499.5,-232 499.5,-232 493.5,-232 487.5,-226 487.5,-220 487.5,-220 487.5,-206 487.5,-206 487.5,-200 493.5,-194 499.5,-194 499.5,-194 598.5,-194 598.5,-194 604.5,-194 610.5,-200 610.5,-206 610.5,-206 610.5,-220 610.5,-220 610.5,-226 604.5,-232 598.5,-232"/>
<text text-anchor="middle" x="549" y="-216.8" font-family="Times,serif" font-size="14.00">UCO FOAF profile</text>
<text text-anchor="middle" x="549" y="-201.8" font-family="Times,serif" font-size="14.00">updates</text>
</a>
</g>
</g>
<!-- _GH__UCOPROJECT__UCO_PROFILE_EXAMPLE&#45;&gt;_GH__UCOPROJECT__UCO_PROFILE_FOAF -->
<g id="edge28" class="edge">
<title>_GH__UCOPROJECT__UCO_PROFILE_EXAMPLE&#45;&gt;_GH__UCOPROJECT__UCO_PROFILE_FOAF</title>
<path fill="none" stroke="black" d="M374.35,-213.95C380.31,-213.56 386.26,-213.24 392,-213 419.59,-211.86 449.95,-211.63 476.49,-211.76"/>
<polygon fill="black" stroke="black" points="476.2,-215.27 486.23,-211.84 476.25,-208.27 476.2,-215.27"/>
<text text-anchor="middle" x="427.5" y="-231.8" font-family="Times,serif" font-size="14.00">Git merge of</text>
<text text-anchor="middle" x="427.5" y="-216.8" font-family="Times,serif" font-size="14.00">base branch</text>
</g>
<!-- _GH__CASEWORK__CASE&#45;&gt;_GH__CASEWORK__ONTOLOGY_CASEONTOLOGY_ORG -->
<g id="edge4" class="edge">
<title>_GH__CASEWORK__CASE&#45;&gt;_GH__CASEWORK__ONTOLOGY_CASEONTOLOGY_ORG</title>
<path fill="none" stroke="black" d="M359.98,-514.2C394.22,-503.24 439.34,-488.79 476.79,-476.8"/>
<polygon fill="black" stroke="black" points="477.68,-479.87 486.14,-473.49 475.55,-473.2 477.68,-479.87"/>
<text text-anchor="middle" x="427.5" y="-521.8" font-family="Times,serif" font-size="14.00">Git sub&#45;</text>
<text text-anchor="middle" x="427.5" y="-506.8" font-family="Times,serif" font-size="14.00">module</text>
</g>
<!-- _GH__CIPHERTECHSOLUTIONS__CASE_BINDINGS_CSHARP -->
<g id="node20" class="node">
<title>_GH__CIPHERTECHSOLUTIONS__CASE_BINDINGS_CSHARP</title>
<g id="a_node20"><a xlink:href="https://github.com/ciphertechsolutions/CASE-Bindings-CSharp" xlink:title="CASE&#45;Bindings&#45;CSharp\nadopts new ontology version">
<path fill="#8ec7d2" stroke="#0d6986" d="M1136.5,-678C1136.5,-678 987.5,-678 987.5,-678 981.5,-678 975.5,-672 975.5,-666 975.5,-666 975.5,-652 975.5,-652 975.5,-646 981.5,-640 987.5,-640 987.5,-640 1136.5,-640 1136.5,-640 1142.5,-640 1148.5,-646 1148.5,-652 1148.5,-652 1148.5,-666 1148.5,-666 1148.5,-672 1142.5,-678 1136.5,-678"/>
<text text-anchor="middle" x="1062" y="-662.8" font-family="Times,serif" font-size="14.00">CASE&#45;Bindings&#45;CSharp</text>
<text text-anchor="middle" x="1062" y="-647.8" font-family="Times,serif" font-size="14.00">adopts new ontology version</text>
</a>
</g>
</g>
<!-- _GH__CASEWORK__CASE&#45;&gt;_GH__CIPHERTECHSOLUTIONS__CASE_BINDINGS_CSHARP -->
<g id="edge3" class="edge">
<title>_GH__CASEWORK__CASE&#45;&gt;_GH__CIPHERTECHSOLUTIONS__CASE_BINDINGS_CSHARP</title>
<path fill="none" stroke="black" d="M359.99,-536.72C482.62,-550.35 785.06,-585.47 884,-611 913.97,-618.73 919.3,-627.3 949,-636 954.11,-637.5 959.37,-638.93 964.71,-640.3"/>
<polygon fill="black" stroke="black" points="963.49,-643.85 974.03,-642.85 965.17,-637.06 963.49,-643.85"/>
</g>
<!-- _GH__CASEWORK__CASE_UTILITIES_PYTHON -->
<g id="node23" class="node">
<title>_GH__CASEWORK__CASE_UTILITIES_PYTHON</title>
<g id="a_node23"><a xlink:href="https://github.com/casework/CASE-Utilities-Python" xlink:title="case&#45;utils\nreleases">
<path fill="#8ec7d2" stroke="#0d6986" d="M571,-743C571,-743 527,-743 527,-743 521,-743 515,-737 515,-731 515,-731 515,-717 515,-717 515,-711 521,-705 527,-705 527,-705 571,-705 571,-705 577,-705 583,-711 583,-717 583,-717 583,-731 583,-731 583,-737 577,-743 571,-743"/>
<text text-anchor="middle" x="549" y="-727.8" font-family="Times,serif" font-size="14.00">case&#45;utils</text>
<text text-anchor="middle" x="549" y="-712.8" font-family="Times,serif" font-size="14.00">releases</text>
</a>
</g>
</g>
<!-- _GH__CASEWORK__CASE&#45;&gt;_GH__CASEWORK__CASE_UTILITIES_PYTHON -->
<g id="edge2" class="edge">
<title>_GH__CASEWORK__CASE&#45;&gt;_GH__CASEWORK__CASE_UTILITIES_PYTHON</title>
<path fill="none" stroke="black" d="M322.34,-550.41C349.94,-585.27 412.64,-658.81 481,-701 488.21,-705.45 496.39,-709.17 504.5,-712.23"/>
<polygon fill="black" stroke="black" points="503.06,-715.79 513.66,-715.76 505.36,-709.17 503.06,-715.79"/>
<text text-anchor="middle" x="427.5" y="-704.8" font-family="Times,serif" font-size="14.00">Git sub&#45;</text>
<text text-anchor="middle" x="427.5" y="-689.8" font-family="Times,serif" font-size="14.00">module</text>
</g>
<!-- _GH__AJNELSON_NIST__CASE_EXAMPLES_QC -->
<g id="node9" class="node">
<title>_GH__AJNELSON_NIST__CASE_EXAMPLES_QC</title>
<g id="a_node9"><a xlink:href="https://github.com/ajnelson-nist/CASE-Examples-QC" xlink:title="CASE&#45;Examples&#45;QC\nadopts CASE&#45;Examples and\nCASE website updates">
<path fill="#8ec7d2" stroke="#0d6986" d="M1136,-857.5C1136,-857.5 988,-857.5 988,-857.5 982,-857.5 976,-851.5 976,-845.5 976,-845.5 976,-816.5 976,-816.5 976,-810.5 982,-804.5 988,-804.5 988,-804.5 1136,-804.5 1136,-804.5 1142,-804.5 1148,-810.5 1148,-816.5 1148,-816.5 1148,-845.5 1148,-845.5 1148,-851.5 1142,-857.5 1136,-857.5"/>
<text text-anchor="middle" x="1062" y="-842.3" font-family="Times,serif" font-size="14.00">CASE&#45;Examples&#45;QC</text>
<text text-anchor="middle" x="1062" y="-827.3" font-family="Times,serif" font-size="14.00">adopts CASE&#45;Examples and</text>
<text text-anchor="middle" x="1062" y="-812.3" font-family="Times,serif" font-size="14.00">CASE website updates</text>
</a>
</g>
</g>
<!-- _GH__CASEWORK__CASE_IMPLEMENTATON_PROV_O -->
<g id="node12" class="node">
<title>_GH__CASEWORK__CASE_IMPLEMENTATON_PROV_O</title>
<g id="a_node12"><a xlink:href="https://github.com/casework/CASE-Implementation-PROV-O" xlink:title="case&#45;prov\nreleases">
<path fill="#8ec7d2" stroke="#0d6986" d="M1430,-827C1430,-827 1385,-827 1385,-827 1379,-827 1373,-821 1373,-815 1373,-815 1373,-801 1373,-801 1373,-795 1379,-789 1385,-789 1385,-789 1430,-789 1430,-789 1436,-789 1442,-795 1442,-801 1442,-801 1442,-815 1442,-815 1442,-821 1436,-827 1430,-827"/>
<text text-anchor="middle" x="1407.5" y="-811.8" font-family="Times,serif" font-size="14.00">case&#45;prov</text>
<text text-anchor="middle" x="1407.5" y="-796.8" font-family="Times,serif" font-size="14.00">releases</text>
</a>
</g>
</g>
<!-- _GH__AJNELSON_NIST__CASE_EXAMPLES_QC&#45;&gt;_GH__CASEWORK__CASE_IMPLEMENTATON_PROV_O -->
<g id="edge1" class="edge">
<title>_GH__AJNELSON_NIST__CASE_EXAMPLES_QC&#45;&gt;_GH__CASEWORK__CASE_IMPLEMENTATON_PROV_O</title>
<path fill="none" stroke="black" d="M1148.35,-825.29C1216.06,-820.75 1307.99,-814.6 1361.91,-810.99"/>
<polygon fill="black" stroke="black" points="1362.07,-814.42 1371.82,-810.26 1361.6,-807.43 1362.07,-814.42"/>
<text text-anchor="middle" x="1224.5" y="-840.8" font-family="Times,serif" font-size="14.00">Git sub&#45;</text>
<text text-anchor="middle" x="1224.5" y="-825.8" font-family="Times,serif" font-size="14.00">module</text>
</g>
<!-- _GH__CASEWORK__CASE_IMPLEMENTATON_GNU_TIME -->
<g id="node10" class="node">
<title>_GH__CASEWORK__CASE_IMPLEMENTATON_GNU_TIME</title>
<g id="a_node10"><a xlink:href="https://github.com/casework/CASE-Implementation-GNU-Time" xlink:title="CASE&#45;Implementation&#45;GNU&#45;Time\nadopts new case&#45;utils">
<path fill="#8ec7d2" stroke="#0d6986" d="M1155,-786C1155,-786 969,-786 969,-786 963,-786 957,-780 957,-774 957,-774 957,-760 957,-760 957,-754 963,-748 969,-748 969,-748 1155,-748 1155,-748 1161,-748 1167,-754 1167,-760 1167,-760 1167,-774 1167,-774 1167,-780 1161,-786 1155,-786"/>
<text text-anchor="middle" x="1062" y="-770.8" font-family="Times,serif" font-size="14.00">CASE&#45;Implementation&#45;GNU&#45;Time</text>
<text text-anchor="middle" x="1062" y="-755.8" font-family="Times,serif" font-size="14.00">adopts new case&#45;utils</text>
</a>
</g>
</g>
<!-- _GH__CASEWORK__CASE_CORPORA -->
<g id="node11" class="node">
<title>_GH__CASEWORK__CASE_CORPORA</title>
<g id="a_node11"><a xlink:href="https://github.com/casework/CASE-Corpora" xlink:title="CASE&#45;Corpora\nadopts new case&#45;prov">
<path fill="#8ec7d2" stroke="#0d6986" d="M1724,-827C1724,-827 1614,-827 1614,-827 1608,-827 1602,-821 1602,-815 1602,-815 1602,-801 1602,-801 1602,-795 1608,-789 1614,-789 1614,-789 1724,-789 1724,-789 1730,-789 1736,-795 1736,-801 1736,-801 1736,-815 1736,-815 1736,-821 1730,-827 1724,-827"/>
<text text-anchor="middle" x="1669" y="-811.8" font-family="Times,serif" font-size="14.00">CASE&#45;Corpora</text>
<text text-anchor="middle" x="1669" y="-796.8" font-family="Times,serif" font-size="14.00">adopts new case&#45;prov</text>
</a>
</g>
</g>
<!-- _GH__CASEWORK__CASE_IMPLEMENTATON_PROV_O&#45;&gt;_GH__CASEWORK__CASE_CORPORA -->
<g id="edge6" class="edge">
<title>_GH__CASEWORK__CASE_IMPLEMENTATON_PROV_O&#45;&gt;_GH__CASEWORK__CASE_CORPORA</title>
<path fill="none" stroke="black" d="M1442.43,-808C1479.85,-808 1541.3,-808 1590.62,-808"/>
<polygon fill="black" stroke="black" points="1590.59,-811.5 1600.59,-808 1590.59,-804.5 1590.59,-811.5"/>
<text text-anchor="middle" x="1570.5" y="-811.8" font-family="Times,serif" font-size="14.00">PyPI</text>
</g>
<!-- _GH__CASEWORK__CASE_IMPLEMENTATON_PYPI_EXIFREAD -->
<g id="node13" class="node">
<title>_GH__CASEWORK__CASE_IMPLEMENTATON_PYPI_EXIFREAD</title>
<g id="a_node13"><a xlink:href="https://github.com/casework/CASE-Implementation-PyPI-Exifread" xlink:title="CASE&#45;Implementation&#45;PyPI&#45;Exifread\nadopts new case&#45;validation&#45;action">
<path fill="#8ec7d2" stroke="#0d6986" d="M1507.5,-533C1507.5,-533 1307.5,-533 1307.5,-533 1301.5,-533 1295.5,-527 1295.5,-521 1295.5,-521 1295.5,-507 1295.5,-507 1295.5,-501 1301.5,-495 1307.5,-495 1307.5,-495 1507.5,-495 1507.5,-495 1513.5,-495 1519.5,-501 1519.5,-507 1519.5,-507 1519.5,-521 1519.5,-521 1519.5,-527 1513.5,-533 1507.5,-533"/>
<text text-anchor="middle" x="1407.5" y="-517.8" font-family="Times,serif" font-size="14.00">CASE&#45;Implementation&#45;PyPI&#45;Exifread</text>
<text text-anchor="middle" x="1407.5" y="-502.8" font-family="Times,serif" font-size="14.00">adopts new case&#45;validation&#45;action</text>
</a>
</g>
</g>
<!-- _GH__CASEWORK__CASE_IMPLEMENTATON_PYPI_PILLOW -->
<g id="node14" class="node">
<title>_GH__CASEWORK__CASE_IMPLEMENTATON_PYPI_PILLOW</title>
<g id="a_node14"><a xlink:href="https://github.com/casework/CASE-Implementation-PyPI-Pillow" xlink:title="CASE&#45;Implementation&#45;PyPI&#45;Pillow\nadopts new case&#45;validation&#45;action">
<path fill="#8ec7d2" stroke="#0d6986" d="M1502,-589C1502,-589 1313,-589 1313,-589 1307,-589 1301,-583 1301,-577 1301,-577 1301,-563 1301,-563 1301,-557 1307,-551 1313,-551 1313,-551 1502,-551 1502,-551 1508,-551 1514,-557 1514,-563 1514,-563 1514,-577 1514,-577 1514,-583 1508,-589 1502,-589"/>
<text text-anchor="middle" x="1407.5" y="-573.8" font-family="Times,serif" font-size="14.00">CASE&#45;Implementation&#45;PyPI&#45;Pillow</text>
<text text-anchor="middle" x="1407.5" y="-558.8" font-family="Times,serif" font-size="14.00">adopts new case&#45;validation&#45;action</text>
</a>
</g>
</g>
<!-- _GH__CASEWORK__CASE_IMPLEMENTATON_UFED_XML -->
<g id="node15" class="node">
<title>_GH__CASEWORK__CASE_IMPLEMENTATON_UFED_XML</title>
<g id="a_node15"><a xlink:href="https://github.com/casework/CASE-Implementation-UFED-XML" xlink:title="CASE&#45;Implementation&#45;UFED&#45;XML\nadopts new case&#45;validation&#45;action">
<path fill="#8ec7d2" stroke="#0d6986" d="M1504.5,-365C1504.5,-365 1310.5,-365 1310.5,-365 1304.5,-365 1298.5,-359 1298.5,-353 1298.5,-353 1298.5,-339 1298.5,-339 1298.5,-333 1304.5,-327 1310.5,-327 1310.5,-327 1504.5,-327 1504.5,-327 1510.5,-327 1516.5,-333 1516.5,-339 1516.5,-339 1516.5,-353 1516.5,-353 1516.5,-359 1510.5,-365 1504.5,-365"/>
<text text-anchor="middle" x="1407.5" y="-349.8" font-family="Times,serif" font-size="14.00">CASE&#45;Implementation&#45;UFED&#45;XML</text>
<text text-anchor="middle" x="1407.5" y="-334.8" font-family="Times,serif" font-size="14.00">adopts new case&#45;validation&#45;action</text>
</a>
</g>
</g>
<!-- _GH__CASEWORK__CASE_IMPLEMENTATON_XRY -->
<g id="node16" class="node">
<title>_GH__CASEWORK__CASE_IMPLEMENTATON_XRY</title>
<g id="a_node16"><a xlink:href="https://github.com/casework/CASE-Implementation-XRY" xlink:title="CASE&#45;Implementation&#45;XRY adopts\nnew case&#45;validation&#45;action">
<path fill="#8ec7d2" stroke="#0d6986" d="M1502.5,-421C1502.5,-421 1312.5,-421 1312.5,-421 1306.5,-421 1300.5,-415 1300.5,-409 1300.5,-409 1300.5,-395 1300.5,-395 1300.5,-389 1306.5,-383 1312.5,-383 1312.5,-383 1502.5,-383 1502.5,-383 1508.5,-383 1514.5,-389 1514.5,-395 1514.5,-395 1514.5,-409 1514.5,-409 1514.5,-415 1508.5,-421 1502.5,-421"/>
<text text-anchor="middle" x="1407.5" y="-405.8" font-family="Times,serif" font-size="14.00">CASE&#45;Implementation&#45;XRY adopts</text>
<text text-anchor="middle" x="1407.5" y="-390.8" font-family="Times,serif" font-size="14.00">new case&#45;validation&#45;action</text>
</a>
</g>
</g>
<!-- _GH__CASEWORK__CASE_MAPPING_TEMPLATE_PYTHON -->
<g id="node17" class="node">
<title>_GH__CASEWORK__CASE_MAPPING_TEMPLATE_PYTHON</title>
<g id="a_node17"><a xlink:href="https://github.com/casework/CASE-Mapping-Template-Python" xlink:title="CASE&#45;Mapping&#45;Template&#45;Python\nadopts new case&#45;validation&#45;action">
<path fill="#8ec7d2" stroke="#0d6986" d="M1497.5,-477C1497.5,-477 1317.5,-477 1317.5,-477 1311.5,-477 1305.5,-471 1305.5,-465 1305.5,-465 1305.5,-451 1305.5,-451 1305.5,-445 1311.5,-439 1317.5,-439 1317.5,-439 1497.5,-439 1497.5,-439 1503.5,-439 1509.5,-445 1509.5,-451 1509.5,-451 1509.5,-465 1509.5,-465 1509.5,-471 1503.5,-477 1497.5,-477"/>
<text text-anchor="middle" x="1407.5" y="-461.8" font-family="Times,serif" font-size="14.00">CASE&#45;Mapping&#45;Template&#45;Python</text>
<text text-anchor="middle" x="1407.5" y="-446.8" font-family="Times,serif" font-size="14.00">adopts new case&#45;validation&#45;action</text>
</a>
</g>
</g>
<!-- _GH__KCHASON__CASE_VALIDATION_ACTION -->
<g id="node18" class="node">
<title>_GH__KCHASON__CASE_VALIDATION_ACTION</title>
<g id="a_node18"><a xlink:href="https://github.com/kchason/case-validation-action" xlink:title="case&#45;validation&#45;action\nreleases">
<path fill="#8ec7d2" stroke="#0d6986" d="M1118,-496C1118,-496 1006,-496 1006,-496 1000,-496 994,-490 994,-484 994,-484 994,-470 994,-470 994,-464 1000,-458 1006,-458 1006,-458 1118,-458 1118,-458 1124,-458 1130,-464 1130,-470 1130,-470 1130,-484 1130,-484 1130,-490 1124,-496 1118,-496"/>
<text text-anchor="middle" x="1062" y="-480.8" font-family="Times,serif" font-size="14.00">case&#45;validation&#45;action</text>
<text text-anchor="middle" x="1062" y="-465.8" font-family="Times,serif" font-size="14.00">releases</text>
</a>
</g>
</g>
<!-- _GH__KCHASON__CASE_VALIDATION_ACTION&#45;&gt;_GH__CASEWORK__CASE_IMPLEMENTATON_PYPI_EXIFREAD -->
<g id="edge17" class="edge">
<title>_GH__KCHASON__CASE_VALIDATION_ACTION&#45;&gt;_GH__CASEWORK__CASE_IMPLEMENTATON_PYPI_EXIFREAD</title>
<path fill="none" stroke="black" d="M1130.45,-484.27C1174.32,-488.99 1232.8,-495.29 1284.64,-500.87"/>
<polygon fill="black" stroke="black" points="1283.94,-504.43 1294.26,-502.02 1284.69,-497.47 1283.94,-504.43"/>
<text text-anchor="middle" x="1224.5" y="-515.8" font-family="Times,serif" font-size="14.00">GitHub</text>
<text text-anchor="middle" x="1224.5" y="-500.8" font-family="Times,serif" font-size="14.00">Action</text>
</g>
<!-- _GH__KCHASON__CASE_VALIDATION_ACTION&#45;&gt;_GH__CASEWORK__CASE_IMPLEMENTATON_PYPI_PILLOW -->
<g id="edge18" class="edge">
<title>_GH__KCHASON__CASE_VALIDATION_ACTION&#45;&gt;_GH__CASEWORK__CASE_IMPLEMENTATON_PYPI_PILLOW</title>
<path fill="none" stroke="black" d="M1100.55,-496.47C1124.23,-508.02 1155.75,-522.1 1185,-531 1218.6,-541.23 1255.93,-549.08 1290.22,-554.97"/>
<polygon fill="black" stroke="black" points="1289.32,-558.53 1299.76,-556.73 1290.48,-551.63 1289.32,-558.53"/>
<text text-anchor="middle" x="1224.5" y="-567.8" font-family="Times,serif" font-size="14.00">GitHub</text>
<text text-anchor="middle" x="1224.5" y="-552.8" font-family="Times,serif" font-size="14.00">Action</text>
</g>
<!-- _GH__KCHASON__CASE_VALIDATION_ACTION&#45;&gt;_GH__CASEWORK__CASE_IMPLEMENTATON_UFED_XML -->
<g id="edge19" class="edge">
<title>_GH__KCHASON__CASE_VALIDATION_ACTION&#45;&gt;_GH__CASEWORK__CASE_IMPLEMENTATON_UFED_XML</title>
<path fill="none" stroke="black" d="M1077.43,-457.64C1098.04,-431.65 1138.6,-386.4 1185,-366 1216.71,-352.06 1253.4,-345.43 1287.69,-342.71"/>
<polygon fill="black" stroke="black" points="1287.5,-346.16 1297.24,-341.98 1287.02,-339.18 1287.5,-346.16"/>
<text text-anchor="middle" x="1224.5" y="-384.8" font-family="Times,serif" font-size="14.00">GitHub</text>
<text text-anchor="middle" x="1224.5" y="-369.8" font-family="Times,serif" font-size="14.00">Action</text>
</g>
<!-- _GH__KCHASON__CASE_VALIDATION_ACTION&#45;&gt;_GH__CASEWORK__CASE_IMPLEMENTATON_XRY -->
<g id="edge20" class="edge">
<title>_GH__KCHASON__CASE_VALIDATION_ACTION&#45;&gt;_GH__CASEWORK__CASE_IMPLEMENTATON_XRY</title>
<path fill="none" stroke="black" d="M1091.64,-457.76C1115.5,-442.86 1150.96,-423.25 1185,-414 1218.2,-404.98 1255.2,-400.79 1289.31,-399.16"/>
<polygon fill="black" stroke="black" points="1289.42,-402.62 1299.27,-398.72 1289.14,-395.63 1289.42,-402.62"/>
<text text-anchor="middle" x="1224.5" y="-432.8" font-family="Times,serif" font-size="14.00">GitHub</text>
<text text-anchor="middle" x="1224.5" y="-417.8" font-family="Times,serif" font-size="14.00">Action</text>
</g>
<!-- _GH__KCHASON__CASE_VALIDATION_ACTION&#45;&gt;_GH__CASEWORK__CASE_MAPPING_TEMPLATE_PYTHON -->
<g id="edge21" class="edge">
<title>_GH__KCHASON__CASE_VALIDATION_ACTION&#45;&gt;_GH__CASEWORK__CASE_MAPPING_TEMPLATE_PYTHON</title>
<path fill="none" stroke="black" d="M1130.38,-460.66C1148.05,-457.07 1167.15,-453.81 1185,-452 1220.47,-448.4 1259.28,-448.2 1294.37,-449.4"/>
<polygon fill="black" stroke="black" points="1294,-452.92 1304.13,-449.81 1294.27,-445.93 1294,-452.92"/>
<text text-anchor="middle" x="1224.5" y="-470.8" font-family="Times,serif" font-size="14.00">GitHub</text>
<text text-anchor="middle" x="1224.5" y="-455.8" font-family="Times,serif" font-size="14.00">Action</text>
</g>
<!-- _GH__CASEWORK__CASE_BINDINGS_CSHARP_MONITOR -->
<g id="node19" class="node">
<title>_GH__CASEWORK__CASE_BINDINGS_CSHARP_MONITOR</title>
<g id="a_node19"><a xlink:href="https://github.com/casework/CASE-Bindings-CSharp-Monitor" xlink:title="CASE Bindings CSharp Monitor\ntests NuGet package with validation action">
<path fill="#8ec7d2" stroke="#0d6986" d="M1521,-678C1521,-678 1294,-678 1294,-678 1288,-678 1282,-672 1282,-666 1282,-666 1282,-652 1282,-652 1282,-646 1288,-640 1294,-640 1294,-640 1521,-640 1521,-640 1527,-640 1533,-646 1533,-652 1533,-652 1533,-666 1533,-666 1533,-672 1527,-678 1521,-678"/>
<text text-anchor="middle" x="1407.5" y="-662.8" font-family="Times,serif" font-size="14.00">CASE Bindings CSharp Monitor</text>
<text text-anchor="middle" x="1407.5" y="-647.8" font-family="Times,serif" font-size="14.00">tests NuGet package with validation action</text>
</a>
</g>
</g>
<!-- _GH__KCHASON__CASE_VALIDATION_ACTION&#45;&gt;_GH__CASEWORK__CASE_BINDINGS_CSHARP_MONITOR -->
<g id="edge16" class="edge">
<title>_GH__KCHASON__CASE_VALIDATION_ACTION&#45;&gt;_GH__CASEWORK__CASE_BINDINGS_CSHARP_MONITOR</title>
<path fill="none" stroke="black" d="M1082.06,-496.24C1105.09,-518.82 1145.65,-556.54 1185,-583 1217.66,-604.96 1230.39,-602.53 1264,-623 1270.52,-626.97 1272.29,-630.25 1281.11,-634.98"/>
<polygon fill="black" stroke="black" points="1279.43,-638.52 1289.98,-639.56 1282.38,-632.17 1279.43,-638.52"/>
<text text-anchor="middle" x="1224.5" y="-641.8" font-family="Times,serif" font-size="14.00">GitHub</text>
<text text-anchor="middle" x="1224.5" y="-626.8" font-family="Times,serif" font-size="14.00">Action</text>
</g>
<!-- _GH__DOD_CYBER_CRIME_CENTER__SQLITE_DISSECT -->
<g id="node25" class="node">
<title>_GH__DOD_CYBER_CRIME_CENTER__SQLITE_DISSECT</title>
<g id="a_node25"><a xlink:href="https://github.com/dod-cyber-crime-center/sqlite-dissect" xlink:title="sqlite&#45;dissect\nadopts new case&#45;validation&#45;action">
<path fill="#8ec7d2" stroke="#0d6986" d="M1496,-178C1496,-178 1319,-178 1319,-178 1313,-178 1307,-172 1307,-166 1307,-166 1307,-152 1307,-152 1307,-146 1313,-140 1319,-140 1319,-140 1496,-140 1496,-140 1502,-140 1508,-146 1508,-152 1508,-152 1508,-166 1508,-166 1508,-172 1502,-178 1496,-178"/>
<text text-anchor="middle" x="1407.5" y="-162.8" font-family="Times,serif" font-size="14.00">sqlite&#45;dissect</text>
<text text-anchor="middle" x="1407.5" y="-147.8" font-family="Times,serif" font-size="14.00">adopts new case&#45;validation&#45;action</text>
</a>
</g>
</g>
<!-- _GH__KCHASON__CASE_VALIDATION_ACTION&#45;&gt;_GH__DOD_CYBER_CRIME_CENTER__SQLITE_DISSECT -->
<g id="edge22" class="edge">
<title>_GH__KCHASON__CASE_VALIDATION_ACTION&#45;&gt;_GH__DOD_CYBER_CRIME_CENTER__SQLITE_DISSECT</title>
<g id="a_edge22"><a xlink:href="https://github.com/dod-cyber-crime-center/sqlite-dissect/pull/31" xlink:title="TODO: PR 31">
<path fill="none" stroke="black" d="M1076.29,-457.63C1097.37,-427.61 1140.66,-368.87 1185,-326 1243.3,-269.62 1320.75,-215.15 1366.92,-184.48"/>
<polygon fill="black" stroke="black" points="1368.58,-186.91 1375,-178.48 1364.73,-181.07 1368.58,-186.91"/>
</a>
</g>
<g id="a_edge22&#45;label"><a xlink:href="https://github.com/dod-cyber-crime-center/sqlite-dissect/pull/31" xlink:title="TODO: PR 31">
<text text-anchor="middle" x="1224.5" y="-329.8" font-family="Times,serif" font-size="14.00">TODO: PR 31</text>
</a>
</g>
</g>
<!-- _GH__CIPHERTECHSOLUTIONS__CASE_BINDINGS_CSHARP&#45;&gt;_GH__CASEWORK__CASE_BINDINGS_CSHARP_MONITOR -->
<g id="edge15" class="edge">
<title>_GH__CIPHERTECHSOLUTIONS__CASE_BINDINGS_CSHARP&#45;&gt;_GH__CASEWORK__CASE_BINDINGS_CSHARP_MONITOR</title>
<path fill="none" stroke="black" d="M1148.98,-658.21C1161.08,-658.12 1173.35,-658.05 1185,-658 1212.79,-657.89 1242.54,-657.92 1270.93,-658.02"/>
<polygon fill="black" stroke="black" points="1270.73,-661.52 1280.74,-658.06 1270.75,-654.52 1270.73,-661.52"/>
<text text-anchor="middle" x="1224.5" y="-661.8" font-family="Times,serif" font-size="14.00">NuGet</text>
</g>
<!-- _GH__CASEWORK__CASE_EXAMPLES -->
<g id="node21" class="node">
<title>_GH__CASEWORK__CASE_EXAMPLES</title>
<g id="a_node21"><a xlink:href="https://github.com/casework/CASE-Examples" xlink:title="CASE&#45;Examples\nadopts new case&#45;utils">
<path fill="#8ec7d2" stroke="#0d6986" d="M832.5,-855C832.5,-855 723.5,-855 723.5,-855 717.5,-855 711.5,-849 711.5,-843 711.5,-843 711.5,-829 711.5,-829 711.5,-823 717.5,-817 723.5,-817 723.5,-817 832.5,-817 832.5,-817 838.5,-817 844.5,-823 844.5,-829 844.5,-829 844.5,-843 844.5,-843 844.5,-849 838.5,-855 832.5,-855"/>
<text text-anchor="middle" x="778" y="-839.8" font-family="Times,serif" font-size="14.00">CASE&#45;Examples</text>
<text text-anchor="middle" x="778" y="-824.8" font-family="Times,serif" font-size="14.00">adopts new case&#45;utils</text>
</a>
</g>
</g>
<!-- _GH__CASEWORK__CASE_EXAMPLES&#45;&gt;_GH__AJNELSON_NIST__CASE_EXAMPLES_QC -->
<g id="edge5" class="edge">
<title>_GH__CASEWORK__CASE_EXAMPLES&#45;&gt;_GH__AJNELSON_NIST__CASE_EXAMPLES_QC</title>
<path fill="none" stroke="black" d="M844.86,-826.59C860.9,-824.68 878.04,-822.97 894,-822 916.89,-820.61 941.56,-820.94 964.72,-822.05"/>
<polygon fill="black" stroke="black" points="964.43,-825.59 974.6,-822.64 964.8,-818.6 964.43,-825.59"/>
<text text-anchor="middle" x="916.5" y="-840.8" font-family="Times,serif" font-size="14.00">Git sub&#45;</text>
<text text-anchor="middle" x="916.5" y="-825.8" font-family="Times,serif" font-size="14.00">module</text>
</g>
<!-- _GH__CASEWORK__CASE_IMPLEMENTATON_EXIFTOOL -->
<g id="node22" class="node">
<title>_GH__CASEWORK__CASE_IMPLEMENTATON_EXIFTOOL</title>
<g id="a_node22"><a xlink:href="https://github.com/casework/CASE-Implementation-ExifTool" xlink:title="CASE&#45;Implementation&#45;ExifTool\nadopts new case&#45;utils">
<path fill="#8ec7d2" stroke="#0d6986" d="M864,-799C864,-799 692,-799 692,-799 686,-799 680,-793 680,-787 680,-787 680,-773 680,-773 680,-767 686,-761 692,-761 692,-761 864,-761 864,-761 870,-761 876,-767 876,-773 876,-773 876,-787 876,-787 876,-793 870,-799 864,-799"/>
<text text-anchor="middle" x="778" y="-783.8" font-family="Times,serif" font-size="14.00">CASE&#45;Implementation&#45;ExifTool</text>
<text text-anchor="middle" x="778" y="-768.8" font-family="Times,serif" font-size="14.00">adopts new case&#45;utils</text>
</a>
</g>
</g>
<!-- _GH__CASEWORK__CASE_UTILITIES_PYTHON&#45;&gt;_GH__AJNELSON_NIST__CASE_EXAMPLES_QC -->
<g id="edge7" class="edge">
<title>_GH__CASEWORK__CASE_UTILITIES_PYTHON&#45;&gt;_GH__AJNELSON_NIST__CASE_EXAMPLES_QC</title>
<path fill="none" stroke="black" d="M583.45,-712.64C620.3,-700.17 675.06,-681.8 680,-681 769.51,-666.58 802.73,-640.81 884,-681 920.1,-698.85 921.74,-716.62 939,-753 947.23,-770.34 935.97,-780.92 949,-795 953.99,-800.39 959.78,-804.97 966.06,-808.87"/>
<polygon fill="black" stroke="black" points="964.12,-812.35 974.56,-814.11 967.5,-806.22 964.12,-812.35"/>
<text text-anchor="middle" x="778" y="-684.8" font-family="Times,serif" font-size="14.00">PyPI</text>
</g>
<!-- _GH__CASEWORK__CASE_UTILITIES_PYTHON&#45;&gt;_GH__CASEWORK__CASE_IMPLEMENTATON_GNU_TIME -->
<g id="edge10" class="edge">
<title>_GH__CASEWORK__CASE_UTILITIES_PYTHON&#45;&gt;_GH__CASEWORK__CASE_IMPLEMENTATON_GNU_TIME</title>
<path fill="none" stroke="black" d="M583.21,-717.89C594.89,-714.46 607.46,-709.15 617,-701 630,-689.89 623.73,-679.86 635,-667 651.18,-648.55 656.62,-642.46 680,-635 766.37,-607.42 796.46,-611.39 884,-635 911.3,-642.37 922.36,-644.13 939,-667 951.31,-683.92 936.04,-696.57 949,-713 958.78,-725.39 972.1,-735.11 986.16,-742.68"/>
<polygon fill="black" stroke="black" points="984.46,-746.24 994.97,-747.57 987.59,-739.97 984.46,-746.24"/>
<text text-anchor="middle" x="778" y="-638.8" font-family="Times,serif" font-size="14.00">PyPI</text>
</g>
<!-- _GH__CASEWORK__CASE_UTILITIES_PYTHON&#45;&gt;_GH__CASEWORK__CASE_IMPLEMENTATON_PROV_O -->
<g id="edge11" class="edge">
<title>_GH__CASEWORK__CASE_UTILITIES_PYTHON&#45;&gt;_GH__CASEWORK__CASE_IMPLEMENTATON_PROV_O</title>
<path fill="none" stroke="black" d="M560.74,-743.28C579.85,-775.37 623.17,-838.73 680,-864 714.73,-879.44 1260.64,-872.72 1264,-872 1299.58,-864.38 1337.01,-847.16 1364.58,-832.51"/>
<polygon fill="black" stroke="black" points="1365.78,-835.29 1372.9,-827.45 1362.44,-829.14 1365.78,-835.29"/>
<text text-anchor="middle" x="916.5" y="-876.8" font-family="Times,serif" font-size="14.00">PyPI</text>
</g>
<!-- _GH__CASEWORK__CASE_UTILITIES_PYTHON&#45;&gt;_GH__KCHASON__CASE_VALIDATION_ACTION -->
<g id="edge12" class="edge">
<title>_GH__CASEWORK__CASE_UTILITIES_PYTHON&#45;&gt;_GH__KCHASON__CASE_VALIDATION_ACTION</title>
<path fill="none" stroke="black" d="M583.15,-719.21C595.24,-715.92 608.11,-710.37 617,-701 637.04,-679.88 619.8,-662.84 635,-638 649.28,-614.66 657,-610.82 680,-596 766.58,-540.19 795.17,-536.05 894,-507 922.57,-498.6 954.61,-492.16 982.94,-487.43"/>
<polygon fill="black" stroke="black" points="983.28,-490.76 992.59,-485.71 982.16,-483.85 983.28,-490.76"/>
<text text-anchor="middle" x="778" y="-599.8" font-family="Times,serif" font-size="14.00">PyPI</text>
</g>
<!-- _GH__CASEWORK__CASE_UTILITIES_PYTHON&#45;&gt;_GH__CASEWORK__CASE_EXAMPLES -->
<g id="edge8" class="edge">
<title>_GH__CASEWORK__CASE_UTILITIES_PYTHON&#45;&gt;_GH__CASEWORK__CASE_EXAMPLES</title>
<path fill="none" stroke="black" d="M575.1,-743.41C600.39,-762.18 641.12,-790.29 680,-808 686.74,-811.07 693.91,-813.89 701.17,-816.46"/>
<polygon fill="black" stroke="black" points="699.5,-819.93 710.09,-819.81 701.74,-813.3 699.5,-819.93"/>
<text text-anchor="middle" x="648.5" y="-801.8" font-family="Times,serif" font-size="14.00">PyPI</text>
</g>
<!-- _GH__CASEWORK__CASE_UTILITIES_PYTHON&#45;&gt;_GH__CASEWORK__CASE_IMPLEMENTATON_EXIFTOOL -->
<g id="edge9" class="edge">
<title>_GH__CASEWORK__CASE_UTILITIES_PYTHON&#45;&gt;_GH__CASEWORK__CASE_IMPLEMENTATON_EXIFTOOL</title>
<path fill="none" stroke="black" d="M583.49,-732.26C611,-739.05 651.26,-748.98 687.95,-758.03"/>
<polygon fill="black" stroke="black" points="686.64,-761.56 697.18,-760.56 688.31,-754.76 686.64,-761.56"/>
<text text-anchor="middle" x="648.5" y="-753.8" font-family="Times,serif" font-size="14.00">PyPI</text>
</g>
<!-- _GH__CASEWORK__CASEWORK_GITHUB_IO -->
<g id="node24" class="node">
<title>_GH__CASEWORK__CASEWORK_GITHUB_IO</title>
<g id="a_node24"><a xlink:href="https://github.com/casework/casework.github.io" xlink:title="CASE website\nadopts new case&#45;utils">
<path fill="#8ec7d2" stroke="#0d6986" d="M832.5,-743C832.5,-743 723.5,-743 723.5,-743 717.5,-743 711.5,-737 711.5,-731 711.5,-731 711.5,-717 711.5,-717 711.5,-711 717.5,-705 723.5,-705 723.5,-705 832.5,-705 832.5,-705 838.5,-705 844.5,-711 844.5,-717 844.5,-717 844.5,-731 844.5,-731 844.5,-737 838.5,-743 832.5,-743"/>
<text text-anchor="middle" x="778" y="-727.8" font-family="Times,serif" font-size="14.00">CASE website</text>
<text text-anchor="middle" x="778" y="-712.8" font-family="Times,serif" font-size="14.00">adopts new case&#45;utils</text>
</a>
</g>
</g>
<!-- _GH__CASEWORK__CASE_UTILITIES_PYTHON&#45;&gt;_GH__CASEWORK__CASEWORK_GITHUB_IO -->
<g id="edge13" class="edge">
<title>_GH__CASEWORK__CASE_UTILITIES_PYTHON&#45;&gt;_GH__CASEWORK__CASEWORK_GITHUB_IO</title>
<path fill="none" stroke="black" d="M583.49,-724C614.22,-724 660.87,-724 700.66,-724"/>
<polygon fill="black" stroke="black" points="700.42,-727.5 710.42,-724 700.42,-720.5 700.42,-727.5"/>
<text text-anchor="middle" x="648.5" y="-727.8" font-family="Times,serif" font-size="14.00">PyPI</text>
</g>
<!-- _GH__CASEWORK__CASEWORK_GITHUB_IO&#45;&gt;_GH__AJNELSON_NIST__CASE_EXAMPLES_QC -->
<g id="edge14" class="edge">
<title>_GH__CASEWORK__CASEWORK_GITHUB_IO&#45;&gt;_GH__AJNELSON_NIST__CASE_EXAMPLES_QC</title>
<path fill="none" stroke="black" d="M844.76,-738.22C858.01,-742 871.65,-746.58 884,-752 910.53,-763.65 915.43,-770.15 939,-787 943.63,-790.31 943.99,-792.31 949,-795 954.36,-797.88 959.99,-800.58 965.75,-803.09"/>
<polygon fill="black" stroke="black" points="963.98,-806.56 974.55,-807.16 966.66,-800.09 963.98,-806.56"/>
<text text-anchor="middle" x="916.5" y="-805.8" font-family="Times,serif" font-size="14.00">Git sub&#45;</text>
<text text-anchor="middle" x="916.5" y="-790.8" font-family="Times,serif" font-size="14.00">module</text>
</g>
</g>
</svg>
