<?xml version="1.0" encoding="UTF-8" standalone="no"?>
<!DOCTYPE svg PUBLIC "-//W3C//DTD SVG 1.1//EN"
 "http://www.w3.org/Graphics/SVG/1.1/DTD/svg11.dtd">
<!-- Generated by graphviz version 6.0.2 (20221011.1828)
 -->
<!-- Title: cdo_release_flow Pages: 1 -->
<svg width="1655pt" height="901pt"
 viewBox="0.00 0.00 1655.00 901.00" xmlns="http://www.w3.org/2000/svg" xmlns:xlink="http://www.w3.org/1999/xlink">
<g id="graph0" class="graph" transform="scale(1 1) rotate(0) translate(4 897)">
<title>cdo_release_flow</title>
<polygon fill="white" stroke="none" points="-4,4 -4,-897 1651,-897 1651,4 -4,4"/>
<text text-anchor="middle" x="823.5" y="-38.8" font-family="Times,serif" font-size="14.00">Release flow of CDO ontologies</text>
<text text-anchor="middle" x="823.5" y="-7.8" font-family="Times,serif" font-size="14.00">Nodes link to the respective Git repository.</text>
<g id="clust1" class="cluster">
<title>cluster_case_0_3_0</title>
<polygon fill="none" stroke="black" points="673.5,-147 673.5,-224 884.5,-224 884.5,-147 673.5,-147"/>
<text text-anchor="middle" x="779" y="-208.8" font-family="Times,serif" font-size="14.00">Adoption of CASE 0.3.0</text>
</g>
<g id="clust2" class="cluster">
<title>cluster_case_utils_0_3_0</title>
<polygon fill="none" stroke="black" points="666,-62 666,-139 892,-139 892,-62 666,-62"/>
<text text-anchor="middle" x="779" y="-123.8" font-family="Times,serif" font-size="14.00">Adoption of case&#45;utils 0.3.0</text>
</g>
<g id="clust3" class="cluster">
<title>cluster_uco_0_9_1</title>
<polygon fill="none" stroke="black" points="189,-137 189,-224 552,-224 552,-137 189,-137"/>
<text text-anchor="middle" x="370.5" y="-208.8" font-family="Times,serif" font-size="14.00">Adoption of UCO 0.9.1</text>
</g>
<g id="clust4" class="cluster">
<title>cluster_uco_1_1_0</title>
<polygon fill="none" stroke="black" points="8,-232 8,-885 1639,-885 1639,-232 8,-232"/>
<text text-anchor="middle" x="823.5" y="-869.8" font-family="Times,serif" font-size="14.00">Adoption of UCO 1.1.0</text>
</g>
<g id="clust5" class="cluster">
<title>cluster_case_1_1_0</title>
<polygon fill="none" stroke="black" points="201,-240 201,-854 1631,-854 1631,-240 201,-240"/>
<text text-anchor="middle" x="916" y="-838.8" font-family="Times,serif" font-size="14.00">Adoption of CASE 1.1.0</text>
</g>
<g id="clust6" class="cluster">
<title>cluster_case_utils_0_9_0</title>
<polygon fill="none" stroke="black" points="434,-248 434,-823 1623,-823 1623,-248 434,-248"/>
<text text-anchor="middle" x="1028.5" y="-807.8" font-family="Times,serif" font-size="14.00">Adoption of case&#45;utils 0.9.0</text>
</g>
<g id="clust8" class="cluster">
<title>cluster_case_validation_action_2_3</title>
<polygon fill="none" stroke="black" points="1014,-630 1014,-707 1248,-707 1248,-630 1014,-630"/>
<text text-anchor="middle" x="1131" y="-691.8" font-family="Times,serif" font-size="14.00">Adoption of case&#45;validation&#45;action 2.3</text>
</g>
<g id="clust9" class="cluster">
<title>cluster_case_validation_action_2_4</title>
<polygon fill="none" stroke="black" points="1017.5,-715 1017.5,-792 1244.5,-792 1244.5,-715 1017.5,-715"/>
<text text-anchor="middle" x="1131" y="-776.8" font-family="Times,serif" font-size="14.00">Adoption of case&#45;validation&#45;action 2.4</text>
</g>
<g id="clust10" class="cluster">
<title>cluster_case_validation_action_2_5</title>
<polygon fill="none" stroke="black" points="703,-429 703,-622 1251,-622 1251,-429 703,-429"/>
<text text-anchor="middle" x="977" y="-606.8" font-family="Times,serif" font-size="14.00">Adoption of case&#45;validation&#45;action 2.5</text>
</g>
<g id="clust7" class="cluster">
<title>cluster_case_prov_0_6_0</title>
<polygon fill="none" stroke="black" points="1333,-369 1333,-446 1615,-446 1615,-369 1333,-369"/>
<text text-anchor="middle" x="1474" y="-430.8" font-family="Times,serif" font-size="14.00">Adoption of case&#45;prov 0.6.0</text>
</g>
<!-- _GH__CASEWORK__CASE_IMPLEMENTATON_EXIFTOOL -->
<g id="node1" class="node">
<title>_GH__CASEWORK__CASE_IMPLEMENTATON_EXIFTOOL</title>
<g id="a_node1"><a xlink:href="https://github.com/casework/CASE-Implementation-ExifTool" xlink:title="CASE&#45;Implementation&#45;ExifTool\nadopts new case&#45;utils">
<path fill="#8ec7d2" stroke="#0d6986" d="M864.5,-193C864.5,-193 693.5,-193 693.5,-193 687.5,-193 681.5,-187 681.5,-181 681.5,-181 681.5,-167 681.5,-167 681.5,-161 687.5,-155 693.5,-155 693.5,-155 864.5,-155 864.5,-155 870.5,-155 876.5,-161 876.5,-167 876.5,-167 876.5,-181 876.5,-181 876.5,-187 870.5,-193 864.5,-193"/>
<text text-anchor="middle" x="779" y="-177.8" font-family="Times,serif" font-size="14.00">CASE&#45;Implementation&#45;ExifTool</text>
<text text-anchor="middle" x="779" y="-162.8" font-family="Times,serif" font-size="14.00">adopts new case&#45;utils</text>
</a>
</g>
</g>
<!-- _GH__CASEWORK__CASE_IMPLEMENTATON_GNU_TIME -->
<g id="node2" class="node">
<title>_GH__CASEWORK__CASE_IMPLEMENTATON_GNU_TIME</title>
<g id="a_node2"><a xlink:href="https://github.com/casework/CASE-Implementation-GNU-Time" xlink:title="CASE&#45;Implementation&#45;GNU&#45;Time\nadopts new case&#45;utils">
<path fill="#8ec7d2" stroke="#0d6986" d="M872,-108C872,-108 686,-108 686,-108 680,-108 674,-102 674,-96 674,-96 674,-82 674,-82 674,-76 680,-70 686,-70 686,-70 872,-70 872,-70 878,-70 884,-76 884,-82 884,-82 884,-96 884,-96 884,-102 878,-108 872,-108"/>
<text text-anchor="middle" x="779" y="-92.8" font-family="Times,serif" font-size="14.00">CASE&#45;Implementation&#45;GNU&#45;Time</text>
<text text-anchor="middle" x="779" y="-77.8" font-family="Times,serif" font-size="14.00">adopts new case&#45;utils</text>
</a>
</g>
</g>
<!-- _GH__CASEWORK__ONTOLOGY_CASEONTOLOGY_ORG -->
<g id="node3" class="node">
<title>_GH__CASEWORK__ONTOLOGY_CASEONTOLOGY_ORG</title>
<g id="a_node3"><a xlink:href="https://github.com/casework/ontology.caseontology.org" xlink:title="CASE documentation\nregenerated">
<path fill="#8ec7d2" stroke="#0d6986" d="M532,-188C532,-188 420,-188 420,-188 414,-188 408,-182 408,-176 408,-176 408,-162 408,-162 408,-156 414,-150 420,-150 420,-150 532,-150 532,-150 538,-150 544,-156 544,-162 544,-162 544,-176 544,-176 544,-182 538,-188 532,-188"/>
<text text-anchor="middle" x="476" y="-172.8" font-family="Times,serif" font-size="14.00">CASE documentation</text>
<text text-anchor="middle" x="476" y="-157.8" font-family="Times,serif" font-size="14.00">regenerated</text>
</a>
</g>
</g>
<!-- _GH__UCOPROJECT__ONTOLOGY_UNIFIEDCYBERONTOLOGY_ORG -->
<g id="node4" class="node">
<title>_GH__UCOPROJECT__ONTOLOGY_UNIFIEDCYBERONTOLOGY_ORG</title>
<g id="a_node4"><a xlink:href="https://github.com/ucoProject/ontology.unifiedcyberontology.org" xlink:title="UCO documentation\nregenerated">
<path fill="#8ec7d2" stroke="#0d6986" d="M315,-188C315,-188 209,-188 209,-188 203,-188 197,-182 197,-176 197,-176 197,-162 197,-162 197,-156 203,-150 209,-150 209,-150 315,-150 315,-150 321,-150 327,-156 327,-162 327,-162 327,-176 327,-176 327,-182 321,-188 315,-188"/>
<text text-anchor="middle" x="262" y="-172.8" font-family="Times,serif" font-size="14.00">UCO documentation</text>
<text text-anchor="middle" x="262" y="-157.8" font-family="Times,serif" font-size="14.00">regenerated</text>
</a>
</g>
</g>
<!-- _GH__UCOPROJECT__ONTOLOGY_UNIFIEDCYBERONTOLOGY_ORG&#45;&gt;_GH__CASEWORK__ONTOLOGY_CASEONTOLOGY_ORG -->
<g id="edge20" class="edge">
<title>_GH__UCOPROJECT__ONTOLOGY_UNIFIEDCYBERONTOLOGY_ORG&#45;&gt;_GH__CASEWORK__ONTOLOGY_CASEONTOLOGY_ORG</title>
<path fill="none" stroke="black" d="M327,-165.58C333.08,-165.34 339.16,-165.14 345,-165 364.99,-164.51 370.01,-164.53 390,-165 392.52,-165.06 395.08,-165.13 397.67,-165.21"/>
<polygon fill="black" stroke="black" points="397.62,-168.71 407.73,-165.54 397.86,-161.71 397.62,-168.71"/>
<text text-anchor="middle" x="367.5" y="-183.8" font-family="Times,serif" font-size="14.00">Tech&#45;</text>
<text text-anchor="middle" x="367.5" y="-168.8" font-family="Times,serif" font-size="14.00">check</text>
</g>
<!-- _GH__UCOPROJECT__UCO -->
<g id="node5" class="node">
<title>_GH__UCOPROJECT__UCO</title>
<g id="a_node5"><a xlink:href="https://github.com/ucoProject/UCO" xlink:title="UCO Ontology\nreleases">
<path fill="#8ec7d2" stroke="#0d6986" d="M104,-282C104,-282 28,-282 28,-282 22,-282 16,-276 16,-270 16,-270 16,-256 16,-256 16,-250 22,-244 28,-244 28,-244 104,-244 104,-244 110,-244 116,-250 116,-256 116,-256 116,-270 116,-270 116,-276 110,-282 104,-282"/>
<text text-anchor="middle" x="66" y="-266.8" font-family="Times,serif" font-size="14.00">UCO Ontology</text>
<text text-anchor="middle" x="66" y="-251.8" font-family="Times,serif" font-size="14.00">releases</text>
</a>
</g>
</g>
<!-- _GH__UCOPROJECT__UCO&#45;&gt;_GH__UCOPROJECT__ONTOLOGY_UNIFIEDCYBERONTOLOGY_ORG -->
<g id="edge22" class="edge">
<title>_GH__UCOPROJECT__UCO&#45;&gt;_GH__UCOPROJECT__ONTOLOGY_UNIFIEDCYBERONTOLOGY_ORG</title>
<path fill="none" stroke="black" d="M105.59,-243.91C114.88,-239.34 124.79,-234.48 134,-230 159.63,-217.53 188.24,-203.78 211.81,-192.49"/>
<polygon fill="black" stroke="black" points="213.4,-195.61 220.91,-188.13 210.38,-189.29 213.4,-195.61"/>
<text text-anchor="middle" x="156.5" y="-248.8" font-family="Times,serif" font-size="14.00">Git sub&#45;</text>
<text text-anchor="middle" x="156.5" y="-233.8" font-family="Times,serif" font-size="14.00">module</text>
</g>
<!-- _GH__CASEWORK__CASE -->
<g id="node6" class="node">
<title>_GH__CASEWORK__CASE</title>
<g id="a_node6"><a xlink:href="https://github.com/casework/CASE" xlink:title="CASE Ontology\nreleases">
<path fill="#8ec7d2" stroke="#0d6986" d="M303,-286C303,-286 221,-286 221,-286 215,-286 209,-280 209,-274 209,-274 209,-260 209,-260 209,-254 215,-248 221,-248 221,-248 303,-248 303,-248 309,-248 315,-254 315,-260 315,-260 315,-274 315,-274 315,-280 309,-286 303,-286"/>
<text text-anchor="middle" x="262" y="-270.8" font-family="Times,serif" font-size="14.00">CASE Ontology</text>
<text text-anchor="middle" x="262" y="-255.8" font-family="Times,serif" font-size="14.00">releases</text>
</a>
</g>
</g>
<!-- _GH__UCOPROJECT__UCO&#45;&gt;_GH__CASEWORK__CASE -->
<g id="edge21" class="edge">
<title>_GH__UCOPROJECT__UCO&#45;&gt;_GH__CASEWORK__CASE</title>
<path fill="none" stroke="black" d="M116.21,-264.01C141.29,-264.53 172.06,-265.17 198.77,-265.72"/>
<polygon fill="black" stroke="black" points="198.72,-269.22 208.79,-265.92 198.86,-262.22 198.72,-269.22"/>
<text text-anchor="middle" x="156.5" y="-283.8" font-family="Times,serif" font-size="14.00">Git sub&#45;</text>
<text text-anchor="middle" x="156.5" y="-268.8" font-family="Times,serif" font-size="14.00">module</text>
</g>
<!-- _GH__CASEWORK__CASE&#45;&gt;_GH__CASEWORK__ONTOLOGY_CASEONTOLOGY_ORG -->
<g id="edge3" class="edge">
<title>_GH__CASEWORK__CASE&#45;&gt;_GH__CASEWORK__ONTOLOGY_CASEONTOLOGY_ORG</title>
<path fill="none" stroke="black" d="M304.13,-247.99C338.39,-232.15 387.35,-209.52 424.09,-192.53"/>
<polygon fill="black" stroke="black" points="426.02,-195.5 433.63,-188.13 423.08,-189.14 426.02,-195.5"/>
<text text-anchor="middle" x="367.5" y="-244.8" font-family="Times,serif" font-size="14.00">Git sub&#45;</text>
<text text-anchor="middle" x="367.5" y="-229.8" font-family="Times,serif" font-size="14.00">module</text>
</g>
<!-- _GH__CASEWORK__CASE_UTILITIES_PYTHON -->
<g id="node9" class="node">
<title>_GH__CASEWORK__CASE_UTILITIES_PYTHON</title>
<g id="a_node9"><a xlink:href="https://github.com/casework/CASE-Utilities-Python" xlink:title="case&#45;utils\nreleases">
<path fill="#8ec7d2" stroke="#0d6986" d="M498,-321C498,-321 454,-321 454,-321 448,-321 442,-315 442,-309 442,-309 442,-295 442,-295 442,-289 448,-283 454,-283 454,-283 498,-283 498,-283 504,-283 510,-289 510,-295 510,-295 510,-309 510,-309 510,-315 504,-321 498,-321"/>
<text text-anchor="middle" x="476" y="-305.8" font-family="Times,serif" font-size="14.00">case&#45;utils</text>
<text text-anchor="middle" x="476" y="-290.8" font-family="Times,serif" font-size="14.00">releases</text>
</a>
</g>
</g>
<!-- _GH__CASEWORK__CASE&#45;&gt;_GH__CASEWORK__CASE_UTILITIES_PYTHON -->
<g id="edge2" class="edge">
<title>_GH__CASEWORK__CASE&#45;&gt;_GH__CASEWORK__CASE_UTILITIES_PYTHON</title>
<path fill="none" stroke="black" d="M315.13,-275.61C351.02,-281.53 398.13,-289.31 431.89,-294.88"/>
<polygon fill="black" stroke="black" points="431.48,-298.36 441.92,-296.54 432.62,-291.46 431.48,-298.36"/>
<text text-anchor="middle" x="367.5" y="-305.8" font-family="Times,serif" font-size="14.00">Git sub&#45;</text>
<text text-anchor="middle" x="367.5" y="-290.8" font-family="Times,serif" font-size="14.00">module</text>
</g>
<!-- _GH__AJNELSON_NIST__CASE_EXAMPLES_QC -->
<g id="node7" class="node">
<title>_GH__AJNELSON_NIST__CASE_EXAMPLES_QC</title>
<g id="a_node7"><a xlink:href="https://github.com/ajnelson-nist/CASE-Examples-QC" xlink:title="CASE&#45;Examples&#45;QC\nadopts CASE&#45;Examples and\nCASE website updates">
<path fill="#8ec7d2" stroke="#0d6986" d="M1205,-365.5C1205,-365.5 1057,-365.5 1057,-365.5 1051,-365.5 1045,-359.5 1045,-353.5 1045,-353.5 1045,-324.5 1045,-324.5 1045,-318.5 1051,-312.5 1057,-312.5 1057,-312.5 1205,-312.5 1205,-312.5 1211,-312.5 1217,-318.5 1217,-324.5 1217,-324.5 1217,-353.5 1217,-353.5 1217,-359.5 1211,-365.5 1205,-365.5"/>
<text text-anchor="middle" x="1131" y="-350.3" font-family="Times,serif" font-size="14.00">CASE&#45;Examples&#45;QC</text>
<text text-anchor="middle" x="1131" y="-335.3" font-family="Times,serif" font-size="14.00">adopts CASE&#45;Examples and</text>
<text text-anchor="middle" x="1131" y="-320.3" font-family="Times,serif" font-size="14.00">CASE website updates</text>
</a>
</g>
</g>
<!-- _GH__CASEWORK__CASE_IMPLEMENTATON_PROV_O -->
<g id="node12" class="node">
<title>_GH__CASEWORK__CASE_IMPLEMENTATON_PROV_O</title>
<g id="a_node12"><a xlink:href="https://github.com/casework/CASE-Implementation-PROV-O" xlink:title="case&#45;prov\nreleases">
<path fill="#8ec7d2" stroke="#0d6986" d="M1398,-415C1398,-415 1353,-415 1353,-415 1347,-415 1341,-409 1341,-403 1341,-403 1341,-389 1341,-389 1341,-383 1347,-377 1353,-377 1353,-377 1398,-377 1398,-377 1404,-377 1410,-383 1410,-389 1410,-389 1410,-403 1410,-403 1410,-409 1404,-415 1398,-415"/>
<text text-anchor="middle" x="1375.5" y="-399.8" font-family="Times,serif" font-size="14.00">case&#45;prov</text>
<text text-anchor="middle" x="1375.5" y="-384.8" font-family="Times,serif" font-size="14.00">releases</text>
</a>
</g>
</g>
<!-- _GH__AJNELSON_NIST__CASE_EXAMPLES_QC&#45;&gt;_GH__CASEWORK__CASE_IMPLEMENTATON_PROV_O -->
<g id="edge1" class="edge">
<title>_GH__AJNELSON_NIST__CASE_EXAMPLES_QC&#45;&gt;_GH__CASEWORK__CASE_IMPLEMENTATON_PROV_O</title>
<path fill="none" stroke="black" d="M1217.38,-347.99C1250.83,-352.88 1289.21,-360.21 1323,-371 1325.89,-371.92 1328.82,-372.98 1331.75,-374.13"/>
<polygon fill="black" stroke="black" points="1330.42,-377.37 1340.99,-378.04 1333.15,-370.92 1330.42,-377.37"/>
<text text-anchor="middle" x="1300.5" y="-389.8" font-family="Times,serif" font-size="14.00">Git sub&#45;</text>
<text text-anchor="middle" x="1300.5" y="-374.8" font-family="Times,serif" font-size="14.00">module</text>
</g>
<!-- _GH__CASEWORK__CASE_EXAMPLES -->
<g id="node8" class="node">
<title>_GH__CASEWORK__CASE_EXAMPLES</title>
<g id="a_node8"><a xlink:href="https://github.com/casework/CASE-Examples" xlink:title="CASE&#45;Examples\nadopts new case&#45;utils">
<path fill="#8ec7d2" stroke="#0d6986" d="M833.5,-294C833.5,-294 724.5,-294 724.5,-294 718.5,-294 712.5,-288 712.5,-282 712.5,-282 712.5,-268 712.5,-268 712.5,-262 718.5,-256 724.5,-256 724.5,-256 833.5,-256 833.5,-256 839.5,-256 845.5,-262 845.5,-268 845.5,-268 845.5,-282 845.5,-282 845.5,-288 839.5,-294 833.5,-294"/>
<text text-anchor="middle" x="779" y="-278.8" font-family="Times,serif" font-size="14.00">CASE&#45;Examples</text>
<text text-anchor="middle" x="779" y="-263.8" font-family="Times,serif" font-size="14.00">adopts new case&#45;utils</text>
</a>
</g>
</g>
<!-- _GH__CASEWORK__CASE_EXAMPLES&#45;&gt;_GH__AJNELSON_NIST__CASE_EXAMPLES_QC -->
<g id="edge4" class="edge">
<title>_GH__CASEWORK__CASE_EXAMPLES&#45;&gt;_GH__AJNELSON_NIST__CASE_EXAMPLES_QC</title>
<path fill="none" stroke="black" d="M845.65,-277.9C885.15,-280.46 936.29,-285.23 981,-294 1001.28,-297.98 1022.74,-303.6 1042.87,-309.52"/>
<polygon fill="black" stroke="black" points="1042.05,-312.93 1052.63,-312.45 1044.06,-306.22 1042.05,-312.93"/>
<text text-anchor="middle" x="941.5" y="-312.8" font-family="Times,serif" font-size="14.00">Git sub&#45;</text>
<text text-anchor="middle" x="941.5" y="-297.8" font-family="Times,serif" font-size="14.00">module</text>
</g>
<!-- _GH__CASEWORK__CASE_UTILITIES_PYTHON&#45;&gt;_GH__CASEWORK__CASE_IMPLEMENTATON_EXIFTOOL -->
<g id="edge8" class="edge">
<title>_GH__CASEWORK__CASE_UTILITIES_PYTHON&#45;&gt;_GH__CASEWORK__CASE_IMPLEMENTATON_EXIFTOOL</title>
<path fill="none" stroke="black" d="M510.07,-287.94C561.64,-266.01 661.72,-223.45 723.9,-197.01"/>
<polygon fill="black" stroke="black" points="725.33,-200.2 733.17,-193.07 722.59,-193.76 725.33,-200.2"/>
<text text-anchor="middle" x="609" y="-267.8" font-family="Times,serif" font-size="14.00">TODO: Integrate</text>
</g>
<!-- _GH__CASEWORK__CASE_UTILITIES_PYTHON&#45;&gt;_GH__CASEWORK__CASE_IMPLEMENTATON_GNU_TIME -->
<g id="edge9" class="edge">
<title>_GH__CASEWORK__CASE_UTILITIES_PYTHON&#45;&gt;_GH__CASEWORK__CASE_IMPLEMENTATON_GNU_TIME</title>
<path fill="none" stroke="black" d="M500.44,-282.74C516.42,-268.75 537.26,-248.72 552,-228 557.99,-219.58 555.09,-214.69 562,-207 598.27,-166.62 618.38,-169.04 666,-143 685.53,-132.32 707.5,-121.48 726.78,-112.34"/>
<polygon fill="black" stroke="black" points="728.44,-115.43 736,-108 725.46,-109.1 728.44,-115.43"/>
<text text-anchor="middle" x="609" y="-210.8" font-family="Times,serif" font-size="14.00">TODO: Update</text>
</g>
<!-- _GH__CASEWORK__CASE_UTILITIES_PYTHON&#45;&gt;_GH__AJNELSON_NIST__CASE_EXAMPLES_QC -->
<g id="edge6" class="edge">
<title>_GH__CASEWORK__CASE_UTILITIES_PYTHON&#45;&gt;_GH__AJNELSON_NIST__CASE_EXAMPLES_QC</title>
<path fill="none" stroke="black" d="M510.03,-306.92C525.74,-309.1 544.8,-311.5 562,-313 727.86,-327.5 921.71,-334.18 1034.69,-337.05"/>
<polygon fill="black" stroke="black" points="1034.61,-340.55 1044.69,-337.3 1034.78,-333.55 1034.61,-340.55"/>
<text text-anchor="middle" x="779" y="-335.8" font-family="Times,serif" font-size="14.00">PyPI</text>
</g>
<!-- _GH__CASEWORK__CASE_UTILITIES_PYTHON&#45;&gt;_GH__CASEWORK__CASE_EXAMPLES -->
<g id="edge7" class="edge">
<title>_GH__CASEWORK__CASE_UTILITIES_PYTHON&#45;&gt;_GH__CASEWORK__CASE_EXAMPLES</title>
<path fill="none" stroke="black" d="M510.07,-299.03C556,-294.91 640.42,-287.34 702.27,-281.79"/>
<polygon fill="black" stroke="black" points="702.73,-285.27 712.37,-280.89 702.1,-278.29 702.73,-285.27"/>
<text text-anchor="middle" x="609" y="-297.8" font-family="Times,serif" font-size="14.00">PyPI</text>
</g>
<!-- _GH__CASEWORK__CASEWORK_GITHUB_IO -->
<g id="node10" class="node">
<title>_GH__CASEWORK__CASEWORK_GITHUB_IO</title>
<g id="a_node10"><a xlink:href="https://github.com/casework/casework.github.io" xlink:title="CASE website\nadopts new case&#45;utils">
<path fill="#8ec7d2" stroke="#0d6986" d="M833.5,-401C833.5,-401 724.5,-401 724.5,-401 718.5,-401 712.5,-395 712.5,-389 712.5,-389 712.5,-375 712.5,-375 712.5,-369 718.5,-363 724.5,-363 724.5,-363 833.5,-363 833.5,-363 839.5,-363 845.5,-369 845.5,-375 845.5,-375 845.5,-389 845.5,-389 845.5,-395 839.5,-401 833.5,-401"/>
<text text-anchor="middle" x="779" y="-385.8" font-family="Times,serif" font-size="14.00">CASE website</text>
<text text-anchor="middle" x="779" y="-370.8" font-family="Times,serif" font-size="14.00">adopts new case&#45;utils</text>
</a>
</g>
</g>
<!-- _GH__CASEWORK__CASE_UTILITIES_PYTHON&#45;&gt;_GH__CASEWORK__CASEWORK_GITHUB_IO -->
<g id="edge12" class="edge">
<title>_GH__CASEWORK__CASE_UTILITIES_PYTHON&#45;&gt;_GH__CASEWORK__CASEWORK_GITHUB_IO</title>
<path fill="none" stroke="black" d="M510.09,-316.23C525.64,-322.56 544.57,-329.75 562,-335 607.93,-348.82 660.5,-360.35 702.27,-368.53"/>
<polygon fill="black" stroke="black" points="701.62,-371.97 712.1,-370.43 702.95,-365.09 701.62,-371.97"/>
<text text-anchor="middle" x="609" y="-361.8" font-family="Times,serif" font-size="14.00">PyPI</text>
</g>
<!-- _GH__CASEWORK__CASE_UTILITIES_PYTHON&#45;&gt;_GH__CASEWORK__CASE_IMPLEMENTATON_PROV_O -->
<g id="edge10" class="edge">
<title>_GH__CASEWORK__CASE_UTILITIES_PYTHON&#45;&gt;_GH__CASEWORK__CASE_IMPLEMENTATON_PROV_O</title>
<path fill="none" stroke="black" d="M494.17,-321.12C510.22,-337.96 535.63,-362.07 562,-377 604.2,-400.89 618.08,-402.58 666,-410 765.26,-425.37 791.56,-411.05 892,-410 1083.59,-408 1131.73,-412.27 1323,-401 1325.51,-400.85 1328.09,-400.68 1330.69,-400.48"/>
<polygon fill="black" stroke="black" points="1331.06,-403.96 1340.73,-399.65 1330.48,-396.99 1331.06,-403.96"/>
<text text-anchor="middle" x="941.5" y="-412.8" font-family="Times,serif" font-size="14.00">PyPI</text>
</g>
<!-- _GH__KCHASON__CASE_VALIDATION_ACTION -->
<g id="node18" class="node">
<title>_GH__KCHASON__CASE_VALIDATION_ACTION</title>
<g id="a_node18"><a xlink:href="https://github.com/kchason/case-validation-action" xlink:title="case&#45;validation&#45;action\nreleases">
<path fill="#8ec7d2" stroke="#0d6986" d="M835,-527C835,-527 723,-527 723,-527 717,-527 711,-521 711,-515 711,-515 711,-501 711,-501 711,-495 717,-489 723,-489 723,-489 835,-489 835,-489 841,-489 847,-495 847,-501 847,-501 847,-515 847,-515 847,-521 841,-527 835,-527"/>
<text text-anchor="middle" x="779" y="-511.8" font-family="Times,serif" font-size="14.00">case&#45;validation&#45;action</text>
<text text-anchor="middle" x="779" y="-496.8" font-family="Times,serif" font-size="14.00">releases</text>
</a>
</g>
</g>
<!-- _GH__CASEWORK__CASE_UTILITIES_PYTHON&#45;&gt;_GH__KCHASON__CASE_VALIDATION_ACTION -->
<g id="edge11" class="edge">
<title>_GH__CASEWORK__CASE_UTILITIES_PYTHON&#45;&gt;_GH__KCHASON__CASE_VALIDATION_ACTION</title>
<path fill="none" stroke="black" d="M486.64,-321.01C500.52,-346.98 528.22,-393.86 562,-425 601.24,-461.17 616.11,-466.06 666,-485 677.09,-489.21 689.11,-492.71 701.01,-495.6"/>
<polygon fill="black" stroke="black" points="700.44,-499.06 710.97,-497.89 702,-492.24 700.44,-499.06"/>
<text text-anchor="middle" x="609" y="-483.8" font-family="Times,serif" font-size="14.00">PyPI</text>
</g>
<!-- _GH__CASEWORK__CASEWORK_GITHUB_IO&#45;&gt;_GH__AJNELSON_NIST__CASE_EXAMPLES_QC -->
<g id="edge13" class="edge">
<title>_GH__CASEWORK__CASEWORK_GITHUB_IO&#45;&gt;_GH__AJNELSON_NIST__CASE_EXAMPLES_QC</title>
<path fill="none" stroke="black" d="M845.8,-364.87C863.9,-360.72 883.62,-356.7 902,-354 945.42,-347.63 993.89,-343.97 1034.94,-341.86"/>
<polygon fill="black" stroke="black" points="1035.12,-345.35 1044.93,-341.37 1034.78,-338.36 1035.12,-345.35"/>
<text text-anchor="middle" x="941.5" y="-372.8" font-family="Times,serif" font-size="14.00">Git sub&#45;</text>
<text text-anchor="middle" x="941.5" y="-357.8" font-family="Times,serif" font-size="14.00">module</text>
</g>
<!-- _GH__CASEWORK__CASE_CORPORA -->
<g id="node11" class="node">
<title>_GH__CASEWORK__CASE_CORPORA</title>
<g id="a_node11"><a xlink:href="https://github.com/casework/CASE-Corpora" xlink:title="CASE&#45;Corpora\nadopts new case&#45;prov">
<path fill="#8ec7d2" stroke="#0d6986" d="M1595,-415C1595,-415 1485,-415 1485,-415 1479,-415 1473,-409 1473,-403 1473,-403 1473,-389 1473,-389 1473,-383 1479,-377 1485,-377 1485,-377 1595,-377 1595,-377 1601,-377 1607,-383 1607,-389 1607,-389 1607,-403 1607,-403 1607,-409 1601,-415 1595,-415"/>
<text text-anchor="middle" x="1540" y="-399.8" font-family="Times,serif" font-size="14.00">CASE&#45;Corpora</text>
<text text-anchor="middle" x="1540" y="-384.8" font-family="Times,serif" font-size="14.00">adopts new case&#45;prov</text>
</a>
</g>
</g>
<!-- _GH__CASEWORK__CASE_IMPLEMENTATON_PROV_O&#45;&gt;_GH__CASEWORK__CASE_CORPORA -->
<g id="edge5" class="edge">
<title>_GH__CASEWORK__CASE_IMPLEMENTATON_PROV_O&#45;&gt;_GH__CASEWORK__CASE_CORPORA</title>
<path fill="none" stroke="black" d="M1410.17,-396C1425.47,-396 1444.23,-396 1462.66,-396"/>
<polygon fill="black" stroke="black" points="1462.84,-399.5 1472.84,-396 1462.84,-392.5 1462.84,-399.5"/>
<text text-anchor="middle" x="1441.5" y="-399.8" font-family="Times,serif" font-size="14.00">PyPI</text>
</g>
<!-- _GH__CASEWORK__CASE_IMPLEMENTATON_UFED_XML -->
<g id="node13" class="node">
<title>_GH__CASEWORK__CASE_IMPLEMENTATON_UFED_XML</title>
<g id="a_node13"><a xlink:href="https://github.com/casework/CASE-Implementation-UFED-XML" xlink:title="CASE&#45;Implementation&#45;UFED&#45;XML\nadopts new case&#45;validation&#45;action">
<path fill="#8ec7d2" stroke="#0d6986" d="M1228,-676C1228,-676 1034,-676 1034,-676 1028,-676 1022,-670 1022,-664 1022,-664 1022,-650 1022,-650 1022,-644 1028,-638 1034,-638 1034,-638 1228,-638 1228,-638 1234,-638 1240,-644 1240,-650 1240,-650 1240,-664 1240,-664 1240,-670 1234,-676 1228,-676"/>
<text text-anchor="middle" x="1131" y="-660.8" font-family="Times,serif" font-size="14.00">CASE&#45;Implementation&#45;UFED&#45;XML</text>
<text text-anchor="middle" x="1131" y="-645.8" font-family="Times,serif" font-size="14.00">adopts new case&#45;validation&#45;action</text>
</a>
</g>
</g>
<!-- _GH__CASEWORK__CASE_MAPPING_TEMPLATE_PYTHON -->
<g id="node14" class="node">
<title>_GH__CASEWORK__CASE_MAPPING_TEMPLATE_PYTHON</title>
<g id="a_node14"><a xlink:href="https://github.com/casework/CASE-Mapping-Template-Python" xlink:title="CASE&#45;Mapping&#45;Template&#45;Python\nadopts new case&#45;validation&#45;action">
<path fill="#8ec7d2" stroke="#0d6986" d="M1220.5,-761C1220.5,-761 1041.5,-761 1041.5,-761 1035.5,-761 1029.5,-755 1029.5,-749 1029.5,-749 1029.5,-735 1029.5,-735 1029.5,-729 1035.5,-723 1041.5,-723 1041.5,-723 1220.5,-723 1220.5,-723 1226.5,-723 1232.5,-729 1232.5,-735 1232.5,-735 1232.5,-749 1232.5,-749 1232.5,-755 1226.5,-761 1220.5,-761"/>
<text text-anchor="middle" x="1131" y="-745.8" font-family="Times,serif" font-size="14.00">CASE&#45;Mapping&#45;Template&#45;Python</text>
<text text-anchor="middle" x="1131" y="-730.8" font-family="Times,serif" font-size="14.00">adopts new case&#45;validation&#45;action</text>
</a>
</g>
</g>
<!-- _GH__CASEWORK__CASE_IMPLEMENTATON_PYPI_EXIFREAD -->
<g id="node15" class="node">
<title>_GH__CASEWORK__CASE_IMPLEMENTATON_PYPI_EXIFREAD</title>
<g id="a_node15"><a xlink:href="https://github.com/casework/CASE-Implementation-PyPI-Exifread" xlink:title="CASE&#45;Implementation&#45;PyPI&#45;Exifread\nadopts new case&#45;validation&#45;action">
<path fill="#8ec7d2" stroke="#0d6986" d="M1231,-531C1231,-531 1031,-531 1031,-531 1025,-531 1019,-525 1019,-519 1019,-519 1019,-505 1019,-505 1019,-499 1025,-493 1031,-493 1031,-493 1231,-493 1231,-493 1237,-493 1243,-499 1243,-505 1243,-505 1243,-519 1243,-519 1243,-525 1237,-531 1231,-531"/>
<text text-anchor="middle" x="1131" y="-515.8" font-family="Times,serif" font-size="14.00">CASE&#45;Implementation&#45;PyPI&#45;Exifread</text>
<text text-anchor="middle" x="1131" y="-500.8" font-family="Times,serif" font-size="14.00">adopts new case&#45;validation&#45;action</text>
</a>
</g>
</g>
<!-- _GH__CASEWORK__CASE_IMPLEMENTATON_PYPI_PILLOW -->
<g id="node16" class="node">
<title>_GH__CASEWORK__CASE_IMPLEMENTATON_PYPI_PILLOW</title>
<g id="a_node16"><a xlink:href="https://github.com/casework/CASE-Implementation-PyPI-Pillow" xlink:title="CASE&#45;Implementation&#45;PyPI&#45;Pillow\nadopts new case&#45;validation&#45;action">
<path fill="#8ec7d2" stroke="#0d6986" d="M1225.5,-587C1225.5,-587 1036.5,-587 1036.5,-587 1030.5,-587 1024.5,-581 1024.5,-575 1024.5,-575 1024.5,-561 1024.5,-561 1024.5,-555 1030.5,-549 1036.5,-549 1036.5,-549 1225.5,-549 1225.5,-549 1231.5,-549 1237.5,-555 1237.5,-561 1237.5,-561 1237.5,-575 1237.5,-575 1237.5,-581 1231.5,-587 1225.5,-587"/>
<text text-anchor="middle" x="1131" y="-571.8" font-family="Times,serif" font-size="14.00">CASE&#45;Implementation&#45;PyPI&#45;Pillow</text>
<text text-anchor="middle" x="1131" y="-556.8" font-family="Times,serif" font-size="14.00">adopts new case&#45;validation&#45;action</text>
</a>
</g>
</g>
<!-- _GH__CASEWORK__CASE_IMPLEMENTATON_XRY -->
<g id="node17" class="node">
<title>_GH__CASEWORK__CASE_IMPLEMENTATON_XRY</title>
<g id="a_node17"><a xlink:href="https://github.com/casework/CASE-Implementation-XRY" xlink:title="CASE&#45;Implementation&#45;XRY adopts\nnew case&#45;validation&#45;action">
<path fill="#8ec7d2" stroke="#0d6986" d="M1226,-475C1226,-475 1036,-475 1036,-475 1030,-475 1024,-469 1024,-463 1024,-463 1024,-449 1024,-449 1024,-443 1030,-437 1036,-437 1036,-437 1226,-437 1226,-437 1232,-437 1238,-443 1238,-449 1238,-449 1238,-463 1238,-463 1238,-469 1232,-475 1226,-475"/>
<text text-anchor="middle" x="1131" y="-459.8" font-family="Times,serif" font-size="14.00">CASE&#45;Implementation&#45;XRY adopts</text>
<text text-anchor="middle" x="1131" y="-444.8" font-family="Times,serif" font-size="14.00">new case&#45;validation&#45;action</text>
</a>
</g>
</g>
<!-- _GH__KCHASON__CASE_VALIDATION_ACTION&#45;&gt;_GH__CASEWORK__CASE_IMPLEMENTATON_UFED_XML -->
<g id="edge16" class="edge">
<title>_GH__KCHASON__CASE_VALIDATION_ACTION&#45;&gt;_GH__CASEWORK__CASE_IMPLEMENTATON_UFED_XML</title>
<path fill="none" stroke="black" d="M806.66,-527.15C830.75,-543.89 867.61,-568.09 902,-585 949.57,-608.39 963.45,-610.03 1014,-626 1024.04,-629.17 1034.64,-632.3 1045.19,-635.28"/>
<polygon fill="black" stroke="black" points="1044.26,-638.66 1054.83,-637.97 1046.14,-631.91 1044.26,-638.66"/>
<text text-anchor="middle" x="941.5" y="-633.8" font-family="Times,serif" font-size="14.00">GitHub</text>
<text text-anchor="middle" x="941.5" y="-618.8" font-family="Times,serif" font-size="14.00">Action</text>
</g>
<!-- _GH__KCHASON__CASE_VALIDATION_ACTION&#45;&gt;_GH__CASEWORK__CASE_MAPPING_TEMPLATE_PYTHON -->
<g id="edge18" class="edge">
<title>_GH__KCHASON__CASE_VALIDATION_ACTION&#45;&gt;_GH__CASEWORK__CASE_MAPPING_TEMPLATE_PYTHON</title>
<path fill="none" stroke="black" d="M793.22,-527.23C813.89,-556.28 856.25,-611.88 902,-649 946.19,-684.84 961.23,-689.72 1014,-711 1022.01,-714.23 1030.46,-717.22 1039,-719.98"/>
<polygon fill="black" stroke="black" points="1038.08,-723.36 1048.67,-722.98 1040.16,-716.67 1038.08,-723.36"/>
<text text-anchor="middle" x="941.5" y="-714.8" font-family="Times,serif" font-size="14.00">GitHub</text>
<text text-anchor="middle" x="941.5" y="-699.8" font-family="Times,serif" font-size="14.00">Action</text>
</g>
<!-- _GH__KCHASON__CASE_VALIDATION_ACTION&#45;&gt;_GH__CASEWORK__CASE_IMPLEMENTATON_PYPI_EXIFREAD -->
<g id="edge14" class="edge">
<title>_GH__KCHASON__CASE_VALIDATION_ACTION&#45;&gt;_GH__CASEWORK__CASE_IMPLEMENTATON_PYPI_EXIFREAD</title>
<path fill="none" stroke="black" d="M847,-508.08C886.09,-508.19 936.34,-508.44 981,-509 990.02,-509.11 999.36,-509.25 1008.74,-509.41"/>
<polygon fill="black" stroke="black" points="1008.88,-512.91 1018.94,-509.58 1009,-505.91 1008.88,-512.91"/>
<text text-anchor="middle" x="941.5" y="-527.8" font-family="Times,serif" font-size="14.00">GitHub</text>
<text text-anchor="middle" x="941.5" y="-512.8" font-family="Times,serif" font-size="14.00">Action</text>
</g>
<!-- _GH__KCHASON__CASE_VALIDATION_ACTION&#45;&gt;_GH__CASEWORK__CASE_IMPLEMENTATON_PYPI_PILLOW -->
<g id="edge15" class="edge">
<title>_GH__KCHASON__CASE_VALIDATION_ACTION&#45;&gt;_GH__CASEWORK__CASE_IMPLEMENTATON_PYPI_PILLOW</title>
<path fill="none" stroke="black" d="M847.11,-526.62C864.86,-531.11 884.07,-535.6 902,-539 938.28,-545.89 978.13,-551.59 1014.22,-556.06"/>
<polygon fill="black" stroke="black" points="1013.95,-559.55 1024.3,-557.28 1014.79,-552.6 1013.95,-559.55"/>
<text text-anchor="middle" x="941.5" y="-569.8" font-family="Times,serif" font-size="14.00">GitHub</text>
<text text-anchor="middle" x="941.5" y="-554.8" font-family="Times,serif" font-size="14.00">Action</text>
</g>
<!-- _GH__KCHASON__CASE_VALIDATION_ACTION&#45;&gt;_GH__CASEWORK__CASE_IMPLEMENTATON_XRY -->
<g id="edge17" class="edge">
<title>_GH__KCHASON__CASE_VALIDATION_ACTION&#45;&gt;_GH__CASEWORK__CASE_IMPLEMENTATON_XRY</title>
<path fill="none" stroke="black" d="M847.04,-501.35C862.49,-497.92 878.37,-492.76 892,-485 897.74,-481.73 896.07,-476.91 902,-474 935.97,-457.34 976.24,-450.59 1013.42,-448.68"/>
<polygon fill="black" stroke="black" points="1013.96,-452.16 1023.81,-448.27 1013.68,-445.17 1013.96,-452.16"/>
<text text-anchor="middle" x="941.5" y="-492.8" font-family="Times,serif" font-size="14.00">GitHub</text>
<text text-anchor="middle" x="941.5" y="-477.8" font-family="Times,serif" font-size="14.00">Action</text>
</g>
<!-- _GH__DOD_CYBER_CRIME_CENTER__SQLITE_DISSECT -->
<g id="node19" class="node">
<title>_GH__DOD_CYBER_CRIME_CENTER__SQLITE_DISSECT</title>
<g id="a_node19"><a xlink:href="https://github.com/dod-cyber-crime-center/sqlite-dissect" xlink:title="sqlite&#45;dissect\nadopts new case&#45;validation&#45;action">
<path fill="#8ec7d2" stroke="#0d6986" d="M1219.5,-224C1219.5,-224 1042.5,-224 1042.5,-224 1036.5,-224 1030.5,-218 1030.5,-212 1030.5,-212 1030.5,-198 1030.5,-198 1030.5,-192 1036.5,-186 1042.5,-186 1042.5,-186 1219.5,-186 1219.5,-186 1225.5,-186 1231.5,-192 1231.5,-198 1231.5,-198 1231.5,-212 1231.5,-212 1231.5,-218 1225.5,-224 1219.5,-224"/>
<text text-anchor="middle" x="1131" y="-208.8" font-family="Times,serif" font-size="14.00">sqlite&#45;dissect</text>
<text text-anchor="middle" x="1131" y="-193.8" font-family="Times,serif" font-size="14.00">adopts new case&#45;validation&#45;action</text>
</a>
</g>
</g>
<!-- _GH__KCHASON__CASE_VALIDATION_ACTION&#45;&gt;_GH__DOD_CYBER_CRIME_CENTER__SQLITE_DISSECT -->
<g id="edge19" class="edge">
<title>_GH__KCHASON__CASE_VALIDATION_ACTION&#45;&gt;_GH__DOD_CYBER_CRIME_CENTER__SQLITE_DISSECT</title>
<g id="a_edge19"><a xlink:href="https://github.com/dod-cyber-crime-center/sqlite-dissect/pull/31" xlink:title="TODO: PR 31">
<path fill="none" stroke="black" d="M847.09,-508.44C864.12,-505.12 880.76,-498.24 892,-485 910.42,-463.29 882.54,-249.78 902,-229 931.65,-197.33 977.4,-188.28 1020.15,-188.32"/>
<polygon fill="black" stroke="black" points="1020.3,-191.83 1030.36,-188.5 1020.42,-184.83 1020.3,-191.83"/>
</a>
</g>
<g id="a_edge19&#45;label"><a xlink:href="https://github.com/dod-cyber-crime-center/sqlite-dissect/pull/31" xlink:title="TODO: PR 31">
<text text-anchor="middle" x="941.5" y="-232.8" font-family="Times,serif" font-size="14.00">TODO: PR 31</text>
</a>
</g>
</g>
</g>
</svg>
