<?xml version="1.0" encoding="UTF-8" standalone="no"?>
<!DOCTYPE svg PUBLIC "-//W3C//DTD SVG 1.1//EN"
 "http://www.w3.org/Graphics/SVG/1.1/DTD/svg11.dtd">
<!-- Generated by graphviz version 7.1.0 (20230121.1956)
 -->
<!-- Title: cdo_release_flow Pages: 1 -->
<svg width="2142pt" height="851pt"
 viewBox="0.00 0.00 2142.00 851.00" xmlns="http://www.w3.org/2000/svg" xmlns:xlink="http://www.w3.org/1999/xlink">
<g id="graph0" class="graph" transform="scale(1 1) rotate(0) translate(4 847)">
<title>cdo_release_flow</title>
<polygon fill="white" stroke="none" points="-4,4 -4,-847 2138,-847 2138,4 -4,4"/>
<text text-anchor="middle" x="1067" y="-38.8" font-family="Times,serif" font-size="14.00">Release flow of CDO ontologies</text>
<text text-anchor="middle" x="1067" y="-7.8" font-family="Times,serif" font-size="14.00">Nodes link to the respective Git repository.</text>
<g id="clust1" class="cluster">
<title>cluster_uco_0_9_1</title>
<polygon fill="none" stroke="black" points="189,-62 189,-226 357,-226 357,-62 189,-62"/>
<text text-anchor="middle" x="273" y="-210.8" font-family="Times,serif" font-size="14.00">Adoption of UCO 0.9.1</text>
</g>
<g id="clust2" class="cluster">
<title>cluster_case_0_7_1</title>
<polygon fill="none" stroke="black" points="197,-118 197,-195 349,-195 349,-118 197,-118"/>
<text text-anchor="middle" x="273" y="-179.8" font-family="Times,serif" font-size="14.00">Adoption of CASE 0.7.1</text>
</g>
<g id="clust3" class="cluster">
<title>cluster_uco_1_1_0</title>
<polygon fill="none" stroke="black" points="1506,-96 1506,-630 2126,-630 2126,-96 1506,-96"/>
<text text-anchor="middle" x="1816" y="-614.8" font-family="Times,serif" font-size="14.00">Adoption of UCO 1.1.0</text>
</g>
<g id="clust4" class="cluster">
<title>cluster_case_1_1_0</title>
<polygon fill="none" stroke="black" points="1514,-104 1514,-599 2118,-599 2118,-104 1514,-104"/>
<text text-anchor="middle" x="1816" y="-583.8" font-family="Times,serif" font-size="14.00">Adoption of CASE 1.1.0</text>
</g>
<g id="clust5" class="cluster">
<title>cluster_case_utils_0_9_0</title>
<polygon fill="none" stroke="black" points="1522,-112 1522,-568 2110,-568 2110,-112 1522,-112"/>
<text text-anchor="middle" x="1816" y="-552.8" font-family="Times,serif" font-size="14.00">Adoption of case&#45;utils 0.9.0</text>
</g>
<g id="clust7" class="cluster">
<title>cluster_case_validation_action_2_5</title>
<polygon fill="none" stroke="black" points="1530,-120 1530,-452 2102,-452 2102,-120 1530,-120"/>
<text text-anchor="middle" x="1816" y="-436.8" font-family="Times,serif" font-size="14.00">Adoption of case&#45;validation&#45;action 2.5</text>
</g>
<g id="clust8" class="cluster">
<title>cluster_case_bindings_csharp_0_3_0</title>
<polygon fill="none" stroke="black" points="1555.5,-344 1555.5,-421 2094,-421 2094,-344 1555.5,-344"/>
<text text-anchor="middle" x="1824.75" y="-405.8" font-family="Times,serif" font-size="14.00">Adoption of CSharp bindings 0.3.0</text>
</g>
<g id="clust6" class="cluster">
<title>cluster_case_prov_0_6_0</title>
<polygon fill="none" stroke="black" points="1565,-460 1565,-537 1735,-537 1735,-460 1565,-460"/>
<text text-anchor="middle" x="1650" y="-521.8" font-family="Times,serif" font-size="14.00">Adoption of case&#45;prov 0.6.0</text>
</g>
<g id="clust9" class="cluster">
<title>cluster_uco_1_2_0</title>
<polygon fill="none" stroke="black" points="8,-234 8,-769 1463,-769 1463,-234 8,-234"/>
<text text-anchor="middle" x="735.5" y="-753.8" font-family="Times,serif" font-size="14.00">Adoption of UCO 1.2.0</text>
</g>
<g id="clust10" class="cluster">
<title>cluster_case_1_2_0</title>
<polygon fill="none" stroke="black" points="212,-242 212,-738 1455,-738 1455,-242 212,-242"/>
<text text-anchor="middle" x="833.5" y="-722.8" font-family="Times,serif" font-size="14.00">Adoption of CASE 1.2.0</text>
</g>
<g id="clust11" class="cluster">
<title>cluster_case_utils_0_10_0</title>
<polygon fill="none" stroke="black" points="456,-296 456,-707 1447,-707 1447,-296 456,-296"/>
<text text-anchor="middle" x="951.5" y="-691.8" font-family="Times,serif" font-size="14.00">Adoption of case&#45;utils 0.10.0</text>
</g>
<g id="clust13" class="cluster">
<title>cluster_case_validation_action_2_6</title>
<polygon fill="none" stroke="black" points="658,-304 658,-391 1180,-391 1180,-304 658,-304"/>
<text text-anchor="middle" x="919" y="-375.8" font-family="Times,serif" font-size="14.00">Adoption of case&#45;validation&#45;action 2.6</text>
</g>
<g id="clust12" class="cluster">
<title>cluster_case_prov_0_7_0</title>
<polygon fill="none" stroke="black" points="1269,-528 1269,-605 1439,-605 1439,-528 1269,-528"/>
<text text-anchor="middle" x="1354" y="-589.8" font-family="Times,serif" font-size="14.00">Adoption of case&#45;prov 0.7.0</text>
</g>
<!-- _GH__UCOPROJECT__ONTOLOGY_UNIFIEDCYBERONTOLOGY_ORG -->
<g id="node1" class="node">
<title>_GH__UCOPROJECT__ONTOLOGY_UNIFIEDCYBERONTOLOGY_ORG</title>
<g id="a_node1"><a xlink:href="https://github.com/ucoProject/ontology.unifiedcyberontology.org" xlink:title="UCO documentation\nregenerated">
<path fill="#8ec7d2" stroke="#0d6986" d="M326,-108C326,-108 220,-108 220,-108 214,-108 208,-102 208,-96 208,-96 208,-82 208,-82 208,-76 214,-70 220,-70 220,-70 326,-70 326,-70 332,-70 338,-76 338,-82 338,-82 338,-96 338,-96 338,-102 332,-108 326,-108"/>
<text text-anchor="middle" x="273" y="-92.8" font-family="Times,serif" font-size="14.00">UCO documentation</text>
<text text-anchor="middle" x="273" y="-77.8" font-family="Times,serif" font-size="14.00">regenerated</text>
</a>
</g>
</g>
<!-- _GH__CASEWORK__CASE_MAPPING_TEMPLATE_STUBS -->
<g id="node2" class="node">
<title>_GH__CASEWORK__CASE_MAPPING_TEMPLATE_STUBS</title>
<g id="a_node2"><a xlink:href="https://github.com/casework/CASE-Mapping-Template-Stubs" xlink:title="CASE Mapping\nTemplate Stubs">
<path fill="#8ec7d2" stroke="#0d6986" d="M313,-164C313,-164 233,-164 233,-164 227,-164 221,-158 221,-152 221,-152 221,-138 221,-138 221,-132 227,-126 233,-126 233,-126 313,-126 313,-126 319,-126 325,-132 325,-138 325,-138 325,-152 325,-152 325,-158 319,-164 313,-164"/>
<text text-anchor="middle" x="273" y="-148.8" font-family="Times,serif" font-size="14.00">CASE Mapping</text>
<text text-anchor="middle" x="273" y="-133.8" font-family="Times,serif" font-size="14.00">Template Stubs</text>
</a>
</g>
</g>
<!-- _GH__CASEWORK__CASE_CORPORA -->
<g id="node3" class="node">
<title>_GH__CASEWORK__CASE_CORPORA</title>
<g id="a_node3"><a xlink:href="https://github.com/casework/CASE-Corpora" xlink:title="CASE&#45;Corpora\nadopts new case&#45;prov">
<path fill="#8ec7d2" stroke="#0d6986" d="M1705,-506C1705,-506 1595,-506 1595,-506 1589,-506 1583,-500 1583,-494 1583,-494 1583,-480 1583,-480 1583,-474 1589,-468 1595,-468 1595,-468 1705,-468 1705,-468 1711,-468 1717,-474 1717,-480 1717,-480 1717,-494 1717,-494 1717,-500 1711,-506 1705,-506"/>
<text text-anchor="middle" x="1650" y="-490.8" font-family="Times,serif" font-size="14.00">CASE&#45;Corpora</text>
<text text-anchor="middle" x="1650" y="-475.8" font-family="Times,serif" font-size="14.00">adopts new case&#45;prov</text>
</a>
</g>
</g>
<!-- _GH__CASEWORK__CASE_IMPLEMENTATON_PYPI_EXIFREAD -->
<g id="node4" class="node">
<title>_GH__CASEWORK__CASE_IMPLEMENTATON_PYPI_EXIFREAD</title>
<g id="a_node4"><a xlink:href="https://github.com/casework/CASE-Implementation-PyPI-Exifread" xlink:title="CASE&#45;Implementation&#45;PyPI&#45;Exifread\nadopts new case&#45;validation&#45;action">
<path fill="#8ec7d2" stroke="#0d6986" d="M1750,-222C1750,-222 1550,-222 1550,-222 1544,-222 1538,-216 1538,-210 1538,-210 1538,-196 1538,-196 1538,-190 1544,-184 1550,-184 1550,-184 1750,-184 1750,-184 1756,-184 1762,-190 1762,-196 1762,-196 1762,-210 1762,-210 1762,-216 1756,-222 1750,-222"/>
<text text-anchor="middle" x="1650" y="-206.8" font-family="Times,serif" font-size="14.00">CASE&#45;Implementation&#45;PyPI&#45;Exifread</text>
<text text-anchor="middle" x="1650" y="-191.8" font-family="Times,serif" font-size="14.00">adopts new case&#45;validation&#45;action</text>
</a>
</g>
</g>
<!-- _GH__CASEWORK__CASE_IMPLEMENTATON_PYPI_PILLOW -->
<g id="node5" class="node">
<title>_GH__CASEWORK__CASE_IMPLEMENTATON_PYPI_PILLOW</title>
<g id="a_node5"><a xlink:href="https://github.com/casework/CASE-Implementation-PyPI-Pillow" xlink:title="CASE&#45;Implementation&#45;PyPI&#45;Pillow\nadopts new case&#45;validation&#45;action">
<path fill="#8ec7d2" stroke="#0d6986" d="M1744.5,-166C1744.5,-166 1555.5,-166 1555.5,-166 1549.5,-166 1543.5,-160 1543.5,-154 1543.5,-154 1543.5,-140 1543.5,-140 1543.5,-134 1549.5,-128 1555.5,-128 1555.5,-128 1744.5,-128 1744.5,-128 1750.5,-128 1756.5,-134 1756.5,-140 1756.5,-140 1756.5,-154 1756.5,-154 1756.5,-160 1750.5,-166 1744.5,-166"/>
<text text-anchor="middle" x="1650" y="-150.8" font-family="Times,serif" font-size="14.00">CASE&#45;Implementation&#45;PyPI&#45;Pillow</text>
<text text-anchor="middle" x="1650" y="-135.8" font-family="Times,serif" font-size="14.00">adopts new case&#45;validation&#45;action</text>
</a>
</g>
</g>
<!-- _GH__CASEWORK__CASE_IMPLEMENTATON_XRY -->
<g id="node6" class="node">
<title>_GH__CASEWORK__CASE_IMPLEMENTATON_XRY</title>
<g id="a_node6"><a xlink:href="https://github.com/casework/CASE-Implementation-XRY" xlink:title="CASE&#45;Implementation&#45;XRY adopts\nnew case&#45;validation&#45;action">
<path fill="#8ec7d2" stroke="#0d6986" d="M1745,-334C1745,-334 1555,-334 1555,-334 1549,-334 1543,-328 1543,-322 1543,-322 1543,-308 1543,-308 1543,-302 1549,-296 1555,-296 1555,-296 1745,-296 1745,-296 1751,-296 1757,-302 1757,-308 1757,-308 1757,-322 1757,-322 1757,-328 1751,-334 1745,-334"/>
<text text-anchor="middle" x="1650" y="-318.8" font-family="Times,serif" font-size="14.00">CASE&#45;Implementation&#45;XRY adopts</text>
<text text-anchor="middle" x="1650" y="-303.8" font-family="Times,serif" font-size="14.00">new case&#45;validation&#45;action</text>
</a>
</g>
</g>
<!-- _GH__CASEWORK__CASE_MAPPING_TEMPLATE_PYTHON -->
<g id="node7" class="node">
<title>_GH__CASEWORK__CASE_MAPPING_TEMPLATE_PYTHON</title>
<g id="a_node7"><a xlink:href="https://github.com/casework/CASE-Mapping-Template-Python" xlink:title="CASE&#45;Mapping&#45;Template&#45;Python\nadopts new case&#45;validation&#45;action">
<path fill="#8ec7d2" stroke="#0d6986" d="M1740,-278C1740,-278 1560,-278 1560,-278 1554,-278 1548,-272 1548,-266 1548,-266 1548,-252 1548,-252 1548,-246 1554,-240 1560,-240 1560,-240 1740,-240 1740,-240 1746,-240 1752,-246 1752,-252 1752,-252 1752,-266 1752,-266 1752,-272 1746,-278 1740,-278"/>
<text text-anchor="middle" x="1650" y="-262.8" font-family="Times,serif" font-size="14.00">CASE&#45;Mapping&#45;Template&#45;Python</text>
<text text-anchor="middle" x="1650" y="-247.8" font-family="Times,serif" font-size="14.00">adopts new case&#45;validation&#45;action</text>
</a>
</g>
</g>
<!-- _GH__CASEWORK__CASE_BINDINGS_CSHARP_MONITOR -->
<g id="node8" class="node">
<title>_GH__CASEWORK__CASE_BINDINGS_CSHARP_MONITOR</title>
<g id="a_node8"><a xlink:href="https://github.com/casework/CASE-Bindings-CSharp-Monitor" xlink:title="CASE Bindings CSharp Monitor\ntests NuGet package with validation action">
<path fill="#8ec7d2" stroke="#0d6986" d="M2074,-390C2074,-390 1847,-390 1847,-390 1841,-390 1835,-384 1835,-378 1835,-378 1835,-364 1835,-364 1835,-358 1841,-352 1847,-352 1847,-352 2074,-352 2074,-352 2080,-352 2086,-358 2086,-364 2086,-364 2086,-378 2086,-378 2086,-384 2080,-390 2074,-390"/>
<text text-anchor="middle" x="1960.5" y="-374.8" font-family="Times,serif" font-size="14.00">CASE Bindings CSharp Monitor</text>
<text text-anchor="middle" x="1960.5" y="-359.8" font-family="Times,serif" font-size="14.00">tests NuGet package with validation action</text>
</a>
</g>
</g>
<!-- _GH__CIPHERTECHSOLUTIONS__CASE_BINDINGS_CSHARP -->
<g id="node9" class="node">
<title>_GH__CIPHERTECHSOLUTIONS__CASE_BINDINGS_CSHARP</title>
<g id="a_node9"><a xlink:href="https://github.com/ciphertechsolutions/CASE-Bindings-CSharp" xlink:title="CASE&#45;Bindings&#45;CSharp\nadopts new ontology version">
<path fill="#8ec7d2" stroke="#0d6986" d="M1724.5,-390C1724.5,-390 1575.5,-390 1575.5,-390 1569.5,-390 1563.5,-384 1563.5,-378 1563.5,-378 1563.5,-364 1563.5,-364 1563.5,-358 1569.5,-352 1575.5,-352 1575.5,-352 1724.5,-352 1724.5,-352 1730.5,-352 1736.5,-358 1736.5,-364 1736.5,-364 1736.5,-378 1736.5,-378 1736.5,-384 1730.5,-390 1724.5,-390"/>
<text text-anchor="middle" x="1650" y="-374.8" font-family="Times,serif" font-size="14.00">CASE&#45;Bindings&#45;CSharp</text>
<text text-anchor="middle" x="1650" y="-359.8" font-family="Times,serif" font-size="14.00">adopts new ontology version</text>
</a>
</g>
</g>
<!-- _GH__CIPHERTECHSOLUTIONS__CASE_BINDINGS_CSHARP&#45;&gt;_GH__CASEWORK__CASE_BINDINGS_CSHARP_MONITOR -->
<g id="edge15" class="edge">
<title>_GH__CIPHERTECHSOLUTIONS__CASE_BINDINGS_CSHARP&#45;&gt;_GH__CASEWORK__CASE_BINDINGS_CSHARP_MONITOR</title>
<path fill="none" stroke="black" d="M1736.93,-371C1763.73,-371 1793.97,-371 1823.33,-371"/>
<polygon fill="black" stroke="black" points="1823.02,-374.5 1833.02,-371 1823.02,-367.5 1823.02,-374.5"/>
<text text-anchor="middle" x="1798.5" y="-374.8" font-family="Times,serif" font-size="14.00">NuGet</text>
</g>
<!-- _GH__UCOPROJECT__UCO -->
<g id="node10" class="node">
<title>_GH__UCOPROJECT__UCO</title>
<g id="a_node10"><a xlink:href="https://github.com/ucoProject/UCO" xlink:title="UCO Ontology\nreleases">
<path fill="#8ec7d2" stroke="#0d6986" d="M104,-284C104,-284 28,-284 28,-284 22,-284 16,-278 16,-272 16,-272 16,-258 16,-258 16,-252 22,-246 28,-246 28,-246 104,-246 104,-246 110,-246 116,-252 116,-258 116,-258 116,-272 116,-272 116,-278 110,-284 104,-284"/>
<text text-anchor="middle" x="66" y="-268.8" font-family="Times,serif" font-size="14.00">UCO Ontology</text>
<text text-anchor="middle" x="66" y="-253.8" font-family="Times,serif" font-size="14.00">releases</text>
</a>
</g>
</g>
<!-- _GH__UCOPROJECT__UCO&#45;&gt;_GH__UCOPROJECT__ONTOLOGY_UNIFIEDCYBERONTOLOGY_ORG -->
<g id="edge24" class="edge">
<title>_GH__UCOPROJECT__UCO&#45;&gt;_GH__UCOPROJECT__ONTOLOGY_UNIFIEDCYBERONTOLOGY_ORG</title>
<path fill="none" stroke="black" d="M77.41,-245.67C95.71,-213.53 136.7,-149.16 189,-114 191.69,-112.19 194.52,-110.51 197.44,-108.94"/>
<polygon fill="black" stroke="black" points="198.78,-112.18 206.31,-104.72 195.77,-105.86 198.78,-112.18"/>
<text text-anchor="middle" x="156.5" y="-182.8" font-family="Times,serif" font-size="14.00">Git sub&#45;</text>
<text text-anchor="middle" x="156.5" y="-167.8" font-family="Times,serif" font-size="14.00">module</text>
</g>
<!-- _GH__CASEWORK__CASE -->
<g id="node11" class="node">
<title>_GH__CASEWORK__CASE</title>
<g id="a_node11"><a xlink:href="https://github.com/casework/CASE" xlink:title="CASE Ontology\nreleases">
<path fill="#8ec7d2" stroke="#0d6986" d="M314,-388C314,-388 232,-388 232,-388 226,-388 220,-382 220,-376 220,-376 220,-362 220,-362 220,-356 226,-350 232,-350 232,-350 314,-350 314,-350 320,-350 326,-356 326,-362 326,-362 326,-376 326,-376 326,-382 320,-388 314,-388"/>
<text text-anchor="middle" x="273" y="-372.8" font-family="Times,serif" font-size="14.00">CASE Ontology</text>
<text text-anchor="middle" x="273" y="-357.8" font-family="Times,serif" font-size="14.00">releases</text>
</a>
</g>
</g>
<!-- _GH__UCOPROJECT__UCO&#45;&gt;_GH__CASEWORK__CASE -->
<g id="edge23" class="edge">
<title>_GH__UCOPROJECT__UCO&#45;&gt;_GH__CASEWORK__CASE</title>
<path fill="none" stroke="black" d="M105.08,-284.32C138.63,-301.34 187.67,-326.22 223.92,-344.61"/>
<polygon fill="black" stroke="black" points="221.93,-347.52 232.43,-348.92 225.09,-341.28 221.93,-347.52"/>
<text text-anchor="middle" x="156.5" y="-339.8" font-family="Times,serif" font-size="14.00">Git sub&#45;</text>
<text text-anchor="middle" x="156.5" y="-324.8" font-family="Times,serif" font-size="14.00">module</text>
</g>
<!-- _GH__CASEWORK__CASE&#45;&gt;_GH__CIPHERTECHSOLUTIONS__CASE_BINDINGS_CSHARP -->
<g id="edge3" class="edge">
<title>_GH__CASEWORK__CASE&#45;&gt;_GH__CIPHERTECHSOLUTIONS__CASE_BINDINGS_CSHARP</title>
<path fill="none" stroke="black" d="M274.02,-388.47C275.22,-477.66 292.6,-843 497,-843 497,-843 497,-843 1354.5,-843 1500.7,-843 1459.07,-687.92 1498,-547 1503.41,-527.43 1495.2,-473.19 1506,-456 1523.38,-428.34 1553.32,-408.53 1581.33,-395.03"/>
<polygon fill="black" stroke="black" points="1582.53,-398.33 1590.15,-390.97 1579.61,-391.97 1582.53,-398.33"/>
</g>
<!-- _GH__CASEWORK__ONTOLOGY_CASEONTOLOGY_ORG -->
<g id="node12" class="node">
<title>_GH__CASEWORK__ONTOLOGY_CASEONTOLOGY_ORG</title>
<g id="a_node12"><a xlink:href="https://github.com/casework/ontology.caseontology.org" xlink:title="CASE documentation\nregenerated">
<path fill="#8ec7d2" stroke="#0d6986" d="M554,-288C554,-288 442,-288 442,-288 436,-288 430,-282 430,-276 430,-276 430,-262 430,-262 430,-256 436,-250 442,-250 442,-250 554,-250 554,-250 560,-250 566,-256 566,-262 566,-262 566,-276 566,-276 566,-282 560,-288 554,-288"/>
<text text-anchor="middle" x="498" y="-272.8" font-family="Times,serif" font-size="14.00">CASE documentation</text>
<text text-anchor="middle" x="498" y="-257.8" font-family="Times,serif" font-size="14.00">regenerated</text>
</a>
</g>
</g>
<!-- _GH__CASEWORK__CASE&#45;&gt;_GH__CASEWORK__ONTOLOGY_CASEONTOLOGY_ORG -->
<g id="edge4" class="edge">
<title>_GH__CASEWORK__CASE&#45;&gt;_GH__CASEWORK__ONTOLOGY_CASEONTOLOGY_ORG</title>
<path fill="none" stroke="black" d="M309.95,-349.61C339.05,-334.3 381.58,-312.73 428.36,-292.84"/>
<polygon fill="black" stroke="black" points="429.46,-296.18 437.33,-289.08 426.75,-289.72 429.46,-296.18"/>
<text text-anchor="middle" x="389.5" y="-338.8" font-family="Times,serif" font-size="14.00">Git sub&#45;</text>
<text text-anchor="middle" x="389.5" y="-323.8" font-family="Times,serif" font-size="14.00">module</text>
</g>
<!-- _GH__CASEWORK__CASE_UTILITIES_PYTHON -->
<g id="node17" class="node">
<title>_GH__CASEWORK__CASE_UTILITIES_PYTHON</title>
<g id="a_node17"><a xlink:href="https://github.com/casework/CASE-Utilities-Python" xlink:title="case&#45;utils\nreleases">
<path fill="#8ec7d2" stroke="#0d6986" d="M520,-513C520,-513 476,-513 476,-513 470,-513 464,-507 464,-501 464,-501 464,-487 464,-487 464,-481 470,-475 476,-475 476,-475 520,-475 520,-475 526,-475 532,-481 532,-487 532,-487 532,-501 532,-501 532,-507 526,-513 520,-513"/>
<text text-anchor="middle" x="498" y="-497.8" font-family="Times,serif" font-size="14.00">case&#45;utils</text>
<text text-anchor="middle" x="498" y="-482.8" font-family="Times,serif" font-size="14.00">releases</text>
</a>
</g>
</g>
<!-- _GH__CASEWORK__CASE&#45;&gt;_GH__CASEWORK__CASE_UTILITIES_PYTHON -->
<g id="edge2" class="edge">
<title>_GH__CASEWORK__CASE&#45;&gt;_GH__CASEWORK__CASE_UTILITIES_PYTHON</title>
<path fill="none" stroke="black" d="M299.32,-388.41C329.24,-410.65 381.17,-447.12 430,-471 437.21,-474.53 445.1,-477.75 452.85,-480.59"/>
<polygon fill="black" stroke="black" points="451.6,-483.87 462.2,-483.86 453.91,-477.26 451.6,-483.87"/>
<text text-anchor="middle" x="389.5" y="-478.8" font-family="Times,serif" font-size="14.00">Git sub&#45;</text>
<text text-anchor="middle" x="389.5" y="-463.8" font-family="Times,serif" font-size="14.00">module</text>
</g>
<!-- _GH__AJNELSON_NIST__CASE_EXAMPLES_QC -->
<g id="node13" class="node">
<title>_GH__AJNELSON_NIST__CASE_EXAMPLES_QC</title>
<g id="a_node13"><a xlink:href="https://github.com/ajnelson-nist/CASE-Examples-QC" xlink:title="CASE&#45;Examples&#45;QC\nadopts CASE&#45;Examples and\nCASE website updates">
<path fill="#8ec7d2" stroke="#0d6986" d="M1137,-581.5C1137,-581.5 989,-581.5 989,-581.5 983,-581.5 977,-575.5 977,-569.5 977,-569.5 977,-540.5 977,-540.5 977,-534.5 983,-528.5 989,-528.5 989,-528.5 1137,-528.5 1137,-528.5 1143,-528.5 1149,-534.5 1149,-540.5 1149,-540.5 1149,-569.5 1149,-569.5 1149,-575.5 1143,-581.5 1137,-581.5"/>
<text text-anchor="middle" x="1063" y="-566.3" font-family="Times,serif" font-size="14.00">CASE&#45;Examples&#45;QC</text>
<text text-anchor="middle" x="1063" y="-551.3" font-family="Times,serif" font-size="14.00">adopts CASE&#45;Examples and</text>
<text text-anchor="middle" x="1063" y="-536.3" font-family="Times,serif" font-size="14.00">CASE website updates</text>
</a>
</g>
</g>
<!-- _GH__CASEWORK__CASE_IMPLEMENTATON_PROV_O -->
<g id="node19" class="node">
<title>_GH__CASEWORK__CASE_IMPLEMENTATON_PROV_O</title>
<g id="a_node19"><a xlink:href="https://github.com/casework/CASE-Implementation-PROV-O" xlink:title="case&#45;prov\nreleases">
<path fill="#8ec7d2" stroke="#0d6986" d="M1376,-574C1376,-574 1331,-574 1331,-574 1325,-574 1319,-568 1319,-562 1319,-562 1319,-548 1319,-548 1319,-542 1325,-536 1331,-536 1331,-536 1376,-536 1376,-536 1382,-536 1388,-542 1388,-548 1388,-548 1388,-562 1388,-562 1388,-568 1382,-574 1376,-574"/>
<text text-anchor="middle" x="1353.5" y="-558.8" font-family="Times,serif" font-size="14.00">case&#45;prov</text>
<text text-anchor="middle" x="1353.5" y="-543.8" font-family="Times,serif" font-size="14.00">releases</text>
</a>
</g>
</g>
<!-- _GH__AJNELSON_NIST__CASE_EXAMPLES_QC&#45;&gt;_GH__CASEWORK__CASE_IMPLEMENTATON_PROV_O -->
<g id="edge1" class="edge">
<title>_GH__AJNELSON_NIST__CASE_EXAMPLES_QC&#45;&gt;_GH__CASEWORK__CASE_IMPLEMENTATON_PROV_O</title>
<path fill="none" stroke="black" d="M1149.39,-555C1201.18,-555 1265.19,-555 1307.34,-555"/>
<polygon fill="black" stroke="black" points="1307.11,-558.5 1317.11,-555 1307.11,-551.5 1307.11,-558.5"/>
<text text-anchor="middle" x="1212.5" y="-573.8" font-family="Times,serif" font-size="14.00">Git sub&#45;</text>
<text text-anchor="middle" x="1212.5" y="-558.8" font-family="Times,serif" font-size="14.00">module</text>
</g>
<!-- _GH__CASEWORK__CASE_EXAMPLES -->
<g id="node14" class="node">
<title>_GH__CASEWORK__CASE_EXAMPLES</title>
<g id="a_node14"><a xlink:href="https://github.com/casework/CASE-Examples" xlink:title="CASE&#45;Examples\nadopts new case&#45;utils">
<path fill="#8ec7d2" stroke="#0d6986" d="M788.5,-600C788.5,-600 679.5,-600 679.5,-600 673.5,-600 667.5,-594 667.5,-588 667.5,-588 667.5,-574 667.5,-574 667.5,-568 673.5,-562 679.5,-562 679.5,-562 788.5,-562 788.5,-562 794.5,-562 800.5,-568 800.5,-574 800.5,-574 800.5,-588 800.5,-588 800.5,-594 794.5,-600 788.5,-600"/>
<text text-anchor="middle" x="734" y="-584.8" font-family="Times,serif" font-size="14.00">CASE&#45;Examples</text>
<text text-anchor="middle" x="734" y="-569.8" font-family="Times,serif" font-size="14.00">adopts new case&#45;utils</text>
</a>
</g>
</g>
<!-- _GH__CASEWORK__CASE_EXAMPLES&#45;&gt;_GH__AJNELSON_NIST__CASE_EXAMPLES_QC -->
<g id="edge5" class="edge">
<title>_GH__CASEWORK__CASE_EXAMPLES&#45;&gt;_GH__AJNELSON_NIST__CASE_EXAMPLES_QC</title>
<path fill="none" stroke="black" d="M800.8,-565.04C818.9,-561.33 838.61,-557.91 857,-556 892.14,-552.35 930.86,-551.38 965.09,-551.56"/>
<polygon fill="black" stroke="black" points="964.97,-555.06 975.01,-551.65 965.04,-548.06 964.97,-555.06"/>
<text text-anchor="middle" x="896.5" y="-574.8" font-family="Times,serif" font-size="14.00">Git sub&#45;</text>
<text text-anchor="middle" x="896.5" y="-559.8" font-family="Times,serif" font-size="14.00">module</text>
</g>
<!-- _GH__CASEWORK__CASE_IMPLEMENTATON_EXIFTOOL -->
<g id="node15" class="node">
<title>_GH__CASEWORK__CASE_IMPLEMENTATON_EXIFTOOL</title>
<g id="a_node15"><a xlink:href="https://github.com/casework/CASE-Implementation-ExifTool" xlink:title="CASE&#45;Implementation&#45;ExifTool\nadopts new case&#45;utils">
<path fill="#8ec7d2" stroke="#0d6986" d="M820,-488C820,-488 648,-488 648,-488 642,-488 636,-482 636,-476 636,-476 636,-462 636,-462 636,-456 642,-450 648,-450 648,-450 820,-450 820,-450 826,-450 832,-456 832,-462 832,-462 832,-476 832,-476 832,-482 826,-488 820,-488"/>
<text text-anchor="middle" x="734" y="-472.8" font-family="Times,serif" font-size="14.00">CASE&#45;Implementation&#45;ExifTool</text>
<text text-anchor="middle" x="734" y="-457.8" font-family="Times,serif" font-size="14.00">adopts new case&#45;utils</text>
</a>
</g>
</g>
<!-- _GH__CASEWORK__CASE_IMPLEMENTATON_GNU_TIME -->
<g id="node16" class="node">
<title>_GH__CASEWORK__CASE_IMPLEMENTATON_GNU_TIME</title>
<g id="a_node16"><a xlink:href="https://github.com/casework/CASE-Implementation-GNU-Time" xlink:title="CASE&#45;Implementation&#45;GNU&#45;Time\nadopts new case&#45;utils">
<path fill="#8ec7d2" stroke="#0d6986" d="M827,-544C827,-544 641,-544 641,-544 635,-544 629,-538 629,-532 629,-532 629,-518 629,-518 629,-512 635,-506 641,-506 641,-506 827,-506 827,-506 833,-506 839,-512 839,-518 839,-518 839,-532 839,-532 839,-538 833,-544 827,-544"/>
<text text-anchor="middle" x="734" y="-528.8" font-family="Times,serif" font-size="14.00">CASE&#45;Implementation&#45;GNU&#45;Time</text>
<text text-anchor="middle" x="734" y="-513.8" font-family="Times,serif" font-size="14.00">adopts new case&#45;utils</text>
</a>
</g>
</g>
<!-- _GH__CASEWORK__CASE_UTILITIES_PYTHON&#45;&gt;_GH__AJNELSON_NIST__CASE_EXAMPLES_QC -->
<g id="edge7" class="edge">
<title>_GH__CASEWORK__CASE_UTILITIES_PYTHON&#45;&gt;_GH__AJNELSON_NIST__CASE_EXAMPLES_QC</title>
<path fill="none" stroke="black" d="M532.5,-484.61C543.46,-480.99 555.5,-476.4 566,-471 596.59,-455.25 596.23,-436.5 629,-426 717.88,-397.52 748.86,-401.81 839,-426 907.62,-444.42 976.94,-489.64 1019.67,-521.32"/>
<polygon fill="black" stroke="black" points="1017.33,-523.94 1027.43,-527.15 1021.54,-518.34 1017.33,-523.94"/>
<text text-anchor="middle" x="734" y="-429.8" font-family="Times,serif" font-size="14.00">PyPI</text>
</g>
<!-- _GH__CASEWORK__CASE_UTILITIES_PYTHON&#45;&gt;_GH__CASEWORK__CASE_EXAMPLES -->
<g id="edge8" class="edge">
<title>_GH__CASEWORK__CASE_UTILITIES_PYTHON&#45;&gt;_GH__CASEWORK__CASE_EXAMPLES</title>
<path fill="none" stroke="black" d="M532.32,-510.94C558.22,-523.67 595.29,-540.9 629,-553 637.73,-556.13 646.98,-559.1 656.22,-561.85"/>
<polygon fill="black" stroke="black" points="655,-565.14 665.58,-564.56 656.94,-558.42 655,-565.14"/>
<text text-anchor="middle" x="597.5" y="-550.8" font-family="Times,serif" font-size="14.00">PyPI</text>
</g>
<!-- _GH__CASEWORK__CASE_UTILITIES_PYTHON&#45;&gt;_GH__CASEWORK__CASE_IMPLEMENTATON_EXIFTOOL -->
<g id="edge9" class="edge">
<title>_GH__CASEWORK__CASE_UTILITIES_PYTHON&#45;&gt;_GH__CASEWORK__CASE_IMPLEMENTATON_EXIFTOOL</title>
<path fill="none" stroke="black" d="M532.38,-487.25C548,-484.32 566.89,-481.08 584,-479 597.07,-477.41 610.82,-476.06 624.46,-474.92"/>
<polygon fill="black" stroke="black" points="624.68,-478.41 634.37,-474.12 624.12,-471.43 624.68,-478.41"/>
<text text-anchor="middle" x="597.5" y="-482.8" font-family="Times,serif" font-size="14.00">PyPI</text>
</g>
<!-- _GH__CASEWORK__CASE_UTILITIES_PYTHON&#45;&gt;_GH__CASEWORK__CASE_IMPLEMENTATON_GNU_TIME -->
<g id="edge10" class="edge">
<title>_GH__CASEWORK__CASE_UTILITIES_PYTHON&#45;&gt;_GH__CASEWORK__CASE_IMPLEMENTATON_GNU_TIME</title>
<path fill="none" stroke="black" d="M532.03,-498.38C554.68,-501.38 586.21,-505.55 617.58,-509.71"/>
<polygon fill="black" stroke="black" points="616.79,-513.13 627.16,-510.98 617.71,-506.2 616.79,-513.13"/>
<text text-anchor="middle" x="597.5" y="-512.8" font-family="Times,serif" font-size="14.00">PyPI</text>
</g>
<!-- _GH__CASEWORK__CASEWORK_GITHUB_IO -->
<g id="node18" class="node">
<title>_GH__CASEWORK__CASEWORK_GITHUB_IO</title>
<g id="a_node18"><a xlink:href="https://github.com/casework/casework.github.io" xlink:title="CASE website\nadopts new case&#45;utils">
<path fill="#8ec7d2" stroke="#0d6986" d="M788.5,-656C788.5,-656 679.5,-656 679.5,-656 673.5,-656 667.5,-650 667.5,-644 667.5,-644 667.5,-630 667.5,-630 667.5,-624 673.5,-618 679.5,-618 679.5,-618 788.5,-618 788.5,-618 794.5,-618 800.5,-624 800.5,-630 800.5,-630 800.5,-644 800.5,-644 800.5,-650 794.5,-656 788.5,-656"/>
<text text-anchor="middle" x="734" y="-640.8" font-family="Times,serif" font-size="14.00">CASE website</text>
<text text-anchor="middle" x="734" y="-625.8" font-family="Times,serif" font-size="14.00">adopts new case&#45;utils</text>
</a>
</g>
</g>
<!-- _GH__CASEWORK__CASE_UTILITIES_PYTHON&#45;&gt;_GH__CASEWORK__CASEWORK_GITHUB_IO -->
<g id="edge13" class="edge">
<title>_GH__CASEWORK__CASE_UTILITIES_PYTHON&#45;&gt;_GH__CASEWORK__CASEWORK_GITHUB_IO</title>
<path fill="none" stroke="black" d="M515.47,-513.31C538.37,-538.94 582.3,-583.87 629,-609 637.55,-613.6 646.92,-617.49 656.41,-620.76"/>
<polygon fill="black" stroke="black" points="655.12,-624.02 665.71,-623.74 657.26,-617.36 655.12,-624.02"/>
<text text-anchor="middle" x="597.5" y="-599.8" font-family="Times,serif" font-size="14.00">PyPI</text>
</g>
<!-- _GH__CASEWORK__CASE_UTILITIES_PYTHON&#45;&gt;_GH__CASEWORK__CASE_IMPLEMENTATON_PROV_O -->
<g id="edge11" class="edge">
<title>_GH__CASEWORK__CASE_UTILITIES_PYTHON&#45;&gt;_GH__CASEWORK__CASE_IMPLEMENTATON_PROV_O</title>
<path fill="none" stroke="black" d="M506.31,-513.46C521.91,-551.68 562.57,-635.41 629,-665 752.98,-720.22 1103.03,-620.69 1235,-589 1259.18,-583.19 1285.82,-575.59 1307.61,-569.04"/>
<polygon fill="black" stroke="black" points="1308.53,-572.42 1317.08,-566.17 1306.5,-565.72 1308.53,-572.42"/>
<text text-anchor="middle" x="896.5" y="-674.8" font-family="Times,serif" font-size="14.00">PyPI</text>
</g>
<!-- _GH__KCHASON__CASE_VALIDATION_ACTION -->
<g id="node21" class="node">
<title>_GH__KCHASON__CASE_VALIDATION_ACTION</title>
<g id="a_node21"><a xlink:href="https://github.com/kchason/case-validation-action" xlink:title="case&#45;validation&#45;action\nreleases">
<path fill="#8ec7d2" stroke="#0d6986" d="M790,-350C790,-350 678,-350 678,-350 672,-350 666,-344 666,-338 666,-338 666,-324 666,-324 666,-318 672,-312 678,-312 678,-312 790,-312 790,-312 796,-312 802,-318 802,-324 802,-324 802,-338 802,-338 802,-344 796,-350 790,-350"/>
<text text-anchor="middle" x="734" y="-334.8" font-family="Times,serif" font-size="14.00">case&#45;validation&#45;action</text>
<text text-anchor="middle" x="734" y="-319.8" font-family="Times,serif" font-size="14.00">releases</text>
</a>
</g>
</g>
<!-- _GH__CASEWORK__CASE_UTILITIES_PYTHON&#45;&gt;_GH__KCHASON__CASE_VALIDATION_ACTION -->
<g id="edge12" class="edge">
<title>_GH__CASEWORK__CASE_UTILITIES_PYTHON&#45;&gt;_GH__KCHASON__CASE_VALIDATION_ACTION</title>
<path fill="none" stroke="black" d="M532.35,-489.39C544.46,-486.13 557.3,-480.54 566,-471 588.81,-445.99 567.08,-426.32 584,-397 597.83,-373.04 604.59,-367.02 629,-354 637,-349.73 645.76,-346.25 654.68,-343.42"/>
<polygon fill="black" stroke="black" points="655.52,-346.82 664.16,-340.69 653.58,-340.09 655.52,-346.82"/>
<text text-anchor="middle" x="597.5" y="-400.8" font-family="Times,serif" font-size="14.00">PyPI</text>
</g>
<!-- _GH__CASEWORK__CASEWORK_GITHUB_IO&#45;&gt;_GH__AJNELSON_NIST__CASE_EXAMPLES_QC -->
<g id="edge14" class="edge">
<title>_GH__CASEWORK__CASEWORK_GITHUB_IO&#45;&gt;_GH__AJNELSON_NIST__CASE_EXAMPLES_QC</title>
<path fill="none" stroke="black" d="M800.78,-620.5C848.05,-608.65 912.54,-592.48 965.61,-579.17"/>
<polygon fill="black" stroke="black" points="966.44,-582.57 975.29,-576.74 964.74,-575.78 966.44,-582.57"/>
<text text-anchor="middle" x="896.5" y="-623.8" font-family="Times,serif" font-size="14.00">Git sub&#45;</text>
<text text-anchor="middle" x="896.5" y="-608.8" font-family="Times,serif" font-size="14.00">module</text>
</g>
<!-- _GH__CASEWORK__CASE_IMPLEMENTATON_PROV_O&#45;&gt;_GH__CASEWORK__CASE_CORPORA -->
<g id="edge6" class="edge">
<title>_GH__CASEWORK__CASE_IMPLEMENTATON_PROV_O&#45;&gt;_GH__CASEWORK__CASE_CORPORA</title>
<path fill="none" stroke="black" d="M1388.28,-547.2C1432.73,-536.94 1512.18,-518.59 1571.73,-504.84"/>
<polygon fill="black" stroke="black" points="1572.17,-508.33 1581.13,-502.67 1570.6,-501.51 1572.17,-508.33"/>
<text text-anchor="middle" x="1484.5" y="-531.8" font-family="Times,serif" font-size="14.00">PyPI</text>
</g>
<!-- _GH__CASEWORK__CASE_IMPLEMENTATON_UFED_XML -->
<g id="node20" class="node">
<title>_GH__CASEWORK__CASE_IMPLEMENTATON_UFED_XML</title>
<g id="a_node20"><a xlink:href="https://github.com/casework/CASE-Implementation-UFED-XML" xlink:title="CASE&#45;Implementation&#45;UFED&#45;XML\nadopts new case&#45;validation&#45;action">
<path fill="#8ec7d2" stroke="#0d6986" d="M1160,-360C1160,-360 966,-360 966,-360 960,-360 954,-354 954,-348 954,-348 954,-334 954,-334 954,-328 960,-322 966,-322 966,-322 1160,-322 1160,-322 1166,-322 1172,-328 1172,-334 1172,-334 1172,-348 1172,-348 1172,-354 1166,-360 1160,-360"/>
<text text-anchor="middle" x="1063" y="-344.8" font-family="Times,serif" font-size="14.00">CASE&#45;Implementation&#45;UFED&#45;XML</text>
<text text-anchor="middle" x="1063" y="-329.8" font-family="Times,serif" font-size="14.00">adopts new case&#45;validation&#45;action</text>
</a>
</g>
</g>
<!-- _GH__KCHASON__CASE_VALIDATION_ACTION&#45;&gt;_GH__CASEWORK__CASE_IMPLEMENTATON_PYPI_EXIFREAD -->
<g id="edge17" class="edge">
<title>_GH__KCHASON__CASE_VALIDATION_ACTION&#45;&gt;_GH__CASEWORK__CASE_IMPLEMENTATON_PYPI_EXIFREAD</title>
<path fill="none" stroke="black" d="M778.06,-311.58C821.53,-292.87 891.05,-265.35 954,-251 1150.76,-206.15 1386.28,-199.37 1526.45,-200.09"/>
<polygon fill="black" stroke="black" points="1526.09,-203.59 1536.11,-200.16 1526.13,-196.59 1526.09,-203.59"/>
<text text-anchor="middle" x="1212.5" y="-233.8" font-family="Times,serif" font-size="14.00">GitHub</text>
<text text-anchor="middle" x="1212.5" y="-218.8" font-family="Times,serif" font-size="14.00">Action</text>
</g>
<!-- _GH__KCHASON__CASE_VALIDATION_ACTION&#45;&gt;_GH__CASEWORK__CASE_IMPLEMENTATON_PYPI_PILLOW -->
<g id="edge18" class="edge">
<title>_GH__KCHASON__CASE_VALIDATION_ACTION&#45;&gt;_GH__CASEWORK__CASE_IMPLEMENTATON_PYPI_PILLOW</title>
<path fill="none" stroke="black" d="M761.75,-311.63C785.91,-294.64 822.81,-269.93 857,-252 898.3,-230.35 909.05,-224.4 954,-212 1151.77,-157.44 1391.9,-146.62 1531.88,-145.54"/>
<polygon fill="black" stroke="black" points="1531.54,-149.04 1541.52,-145.48 1531.49,-142.04 1531.54,-149.04"/>
<text text-anchor="middle" x="1212.5" y="-185.8" font-family="Times,serif" font-size="14.00">GitHub</text>
<text text-anchor="middle" x="1212.5" y="-170.8" font-family="Times,serif" font-size="14.00">Action</text>
</g>
<!-- _GH__KCHASON__CASE_VALIDATION_ACTION&#45;&gt;_GH__CASEWORK__CASE_IMPLEMENTATON_XRY -->
<g id="edge20" class="edge">
<title>_GH__KCHASON__CASE_VALIDATION_ACTION&#45;&gt;_GH__CASEWORK__CASE_IMPLEMENTATON_XRY</title>
<path fill="none" stroke="black" d="M802.2,-316.72C819.95,-313.39 839.14,-310.18 857,-308 1023.97,-287.58 1066.87,-283.73 1235,-289 1335.03,-292.14 1448.45,-299.53 1531.25,-305.63"/>
<polygon fill="black" stroke="black" points="1530.98,-309.12 1541.22,-306.37 1531.5,-302.14 1530.98,-309.12"/>
<text text-anchor="middle" x="1212.5" y="-307.8" font-family="Times,serif" font-size="14.00">GitHub</text>
<text text-anchor="middle" x="1212.5" y="-292.8" font-family="Times,serif" font-size="14.00">Action</text>
</g>
<!-- _GH__KCHASON__CASE_VALIDATION_ACTION&#45;&gt;_GH__CASEWORK__CASE_MAPPING_TEMPLATE_PYTHON -->
<g id="edge21" class="edge">
<title>_GH__KCHASON__CASE_VALIDATION_ACTION&#45;&gt;_GH__CASEWORK__CASE_MAPPING_TEMPLATE_PYTHON</title>
<path fill="none" stroke="black" d="M793.77,-311.54C813.67,-305.52 836.14,-299.34 857,-295 899.53,-286.16 910.89,-288.32 954,-283 1058.88,-270.07 1084.52,-260.46 1190,-254 1307.97,-246.78 1443.31,-249.6 1536.3,-253.26"/>
<polygon fill="black" stroke="black" points="1536.06,-256.75 1546.2,-253.66 1536.35,-249.76 1536.06,-256.75"/>
<text text-anchor="middle" x="1212.5" y="-272.8" font-family="Times,serif" font-size="14.00">GitHub</text>
<text text-anchor="middle" x="1212.5" y="-257.8" font-family="Times,serif" font-size="14.00">Action</text>
</g>
<!-- _GH__KCHASON__CASE_VALIDATION_ACTION&#45;&gt;_GH__CASEWORK__CASE_BINDINGS_CSHARP_MONITOR -->
<g id="edge16" class="edge">
<title>_GH__KCHASON__CASE_VALIDATION_ACTION&#45;&gt;_GH__CASEWORK__CASE_BINDINGS_CSHARP_MONITOR</title>
<path fill="none" stroke="black" d="M747.73,-311.85C787.1,-255.13 913.28,-92 1062,-92 1062,-92 1062,-92 1651,-92 1701.47,-92 1719.3,-89.09 1762,-116 1852.63,-173.12 1918.11,-287.29 1945.4,-341.33"/>
<polygon fill="black" stroke="black" points="1942.25,-342.84 1949.83,-350.25 1948.52,-339.74 1942.25,-342.84"/>
<text text-anchor="middle" x="1353.5" y="-110.8" font-family="Times,serif" font-size="14.00">GitHub</text>
<text text-anchor="middle" x="1353.5" y="-95.8" font-family="Times,serif" font-size="14.00">Action</text>
</g>
<!-- _GH__KCHASON__CASE_VALIDATION_ACTION&#45;&gt;_GH__CASEWORK__CASE_IMPLEMENTATON_UFED_XML -->
<g id="edge19" class="edge">
<title>_GH__KCHASON__CASE_VALIDATION_ACTION&#45;&gt;_GH__CASEWORK__CASE_IMPLEMENTATON_UFED_XML</title>
<path fill="none" stroke="black" d="M802.49,-317.27C820.15,-314.26 839.23,-311.52 857,-310 874.49,-308.51 918.57,-307.89 936,-310 951.99,-311.94 968.88,-315.21 984.91,-318.92"/>
<polygon fill="black" stroke="black" points="983.84,-322.27 994.38,-321.2 985.48,-315.46 983.84,-322.27"/>
<text text-anchor="middle" x="896.5" y="-328.8" font-family="Times,serif" font-size="14.00">GitHub</text>
<text text-anchor="middle" x="896.5" y="-313.8" font-family="Times,serif" font-size="14.00">Action</text>
</g>
<!-- _GH__DOD_CYBER_CRIME_CENTER__SQLITE_DISSECT -->
<g id="node22" class="node">
<title>_GH__DOD_CYBER_CRIME_CENTER__SQLITE_DISSECT</title>
<g id="a_node22"><a xlink:href="https://github.com/dod-cyber-crime-center/sqlite-dissect" xlink:title="sqlite&#45;dissect\nadopts new case&#45;validation&#45;action">
<path fill="#8ec7d2" stroke="#0d6986" d="M1151.5,-815C1151.5,-815 974.5,-815 974.5,-815 968.5,-815 962.5,-809 962.5,-803 962.5,-803 962.5,-789 962.5,-789 962.5,-783 968.5,-777 974.5,-777 974.5,-777 1151.5,-777 1151.5,-777 1157.5,-777 1163.5,-783 1163.5,-789 1163.5,-789 1163.5,-803 1163.5,-803 1163.5,-809 1157.5,-815 1151.5,-815"/>
<text text-anchor="middle" x="1063" y="-799.8" font-family="Times,serif" font-size="14.00">sqlite&#45;dissect</text>
<text text-anchor="middle" x="1063" y="-784.8" font-family="Times,serif" font-size="14.00">adopts new case&#45;validation&#45;action</text>
</a>
</g>
</g>
<!-- _GH__KCHASON__CASE_VALIDATION_ACTION&#45;&gt;_GH__DOD_CYBER_CRIME_CENTER__SQLITE_DISSECT -->
<g id="edge22" class="edge">
<title>_GH__KCHASON__CASE_VALIDATION_ACTION&#45;&gt;_GH__DOD_CYBER_CRIME_CENTER__SQLITE_DISSECT</title>
<g id="a_edge22"><a xlink:href="https://github.com/dod-cyber-crime-center/sqlite-dissect/pull/31" xlink:title="TODO: PR 31">
<path fill="none" stroke="black" d="M802.41,-332.92C816.4,-336.55 829.69,-342.98 839,-354 864.64,-384.33 834.12,-678.54 857,-711 879.28,-742.6 915.59,-762.49 951.5,-774.99"/>
<polygon fill="black" stroke="black" points="950.09,-778.2 960.68,-778 952.27,-771.55 950.09,-778.2"/>
</a>
</g>
<g id="a_edge22&#45;label"><a xlink:href="https://github.com/dod-cyber-crime-center/sqlite-dissect/pull/31" xlink:title="TODO: PR 31">
<text text-anchor="middle" x="896.5" y="-770.8" font-family="Times,serif" font-size="14.00">TODO: PR 31</text>
</a>
</g>
</g>
</g>
</svg>
