<?xml version="1.0" encoding="UTF-8" standalone="no"?>
<!DOCTYPE svg PUBLIC "-//W3C//DTD SVG 1.1//EN"
 "http://www.w3.org/Graphics/SVG/1.1/DTD/svg11.dtd">
<!-- Generated by graphviz version 6.0.2 (20221011.1828)
 -->
<!-- Title: cdo_release_flow Pages: 1 -->
<svg width="1551pt" height="906pt"
 viewBox="0.00 0.00 1551.00 906.00" xmlns="http://www.w3.org/2000/svg" xmlns:xlink="http://www.w3.org/1999/xlink">
<g id="graph0" class="graph" transform="scale(1 1) rotate(0) translate(4 902)">
<title>cdo_release_flow</title>
<polygon fill="white" stroke="none" points="-4,4 -4,-902 1547,-902 1547,4 -4,4"/>
<text text-anchor="middle" x="771.5" y="-38.8" font-family="Times,serif" font-size="14.00">Release flow of CDO ontologies</text>
<text text-anchor="middle" x="771.5" y="-7.8" font-family="Times,serif" font-size="14.00">Nodes link to the respective Git repository.</text>
<g id="clust1" class="cluster">
<title>cluster_uco_0_9_1</title>
<polygon fill="none" stroke="black" points="189,-62 189,-149 552,-149 552,-62 189,-62"/>
<text text-anchor="middle" x="370.5" y="-133.8" font-family="Times,serif" font-size="14.00">Adoption of UCO 0.9.1</text>
</g>
<g id="clust2" class="cluster">
<title>cluster_uco_1_1_0</title>
<polygon fill="none" stroke="black" points="8,-157 8,-890 1535,-890 1535,-157 8,-157"/>
<text text-anchor="middle" x="771.5" y="-874.8" font-family="Times,serif" font-size="14.00">Adoption of UCO 1.1.0</text>
</g>
<g id="clust3" class="cluster">
<title>cluster_case_1_1_0</title>
<polygon fill="none" stroke="black" points="201,-165 201,-859 1527,-859 1527,-165 201,-165"/>
<text text-anchor="middle" x="864" y="-843.8" font-family="Times,serif" font-size="14.00">Adoption of CASE 1.1.0</text>
</g>
<g id="clust4" class="cluster">
<title>cluster_case_utils_0_9_0</title>
<polygon fill="none" stroke="black" points="434,-173 434,-828 1519,-828 1519,-173 434,-173"/>
<text text-anchor="middle" x="976.5" y="-812.8" font-family="Times,serif" font-size="14.00">Adoption of case&#45;utils 0.9.0</text>
</g>
<g id="clust6" class="cluster">
<title>cluster_case_validation_action_2_3</title>
<polygon fill="none" stroke="black" points="927,-720 927,-797 1161,-797 1161,-720 927,-720"/>
<text text-anchor="middle" x="1044" y="-781.8" font-family="Times,serif" font-size="14.00">Adoption of case&#45;validation&#45;action 2.3</text>
</g>
<g id="clust7" class="cluster">
<title>cluster_case_validation_action_2_5</title>
<polygon fill="none" stroke="black" points="636,-466 636,-712 1164,-712 1164,-466 636,-466"/>
<text text-anchor="middle" x="900" y="-696.8" font-family="Times,serif" font-size="14.00">Adoption of case&#45;validation&#45;action 2.5</text>
</g>
<g id="clust5" class="cluster">
<title>cluster_case_prov_0_6_0</title>
<polygon fill="none" stroke="black" points="1229,-376 1229,-453 1511,-453 1511,-376 1229,-376"/>
<text text-anchor="middle" x="1370" y="-437.8" font-family="Times,serif" font-size="14.00">Adoption of case&#45;prov 0.6.0</text>
</g>
<!-- _GH__CASEWORK__ONTOLOGY_CASEONTOLOGY_ORG -->
<g id="node1" class="node">
<title>_GH__CASEWORK__ONTOLOGY_CASEONTOLOGY_ORG</title>
<g id="a_node1"><a xlink:href="https://github.com/casework/ontology.caseontology.org" xlink:title="CASE documentation\nregenerated">
<path fill="#8ec7d2" stroke="#0d6986" d="M532,-113C532,-113 420,-113 420,-113 414,-113 408,-107 408,-101 408,-101 408,-87 408,-87 408,-81 414,-75 420,-75 420,-75 532,-75 532,-75 538,-75 544,-81 544,-87 544,-87 544,-101 544,-101 544,-107 538,-113 532,-113"/>
<text text-anchor="middle" x="476" y="-97.8" font-family="Times,serif" font-size="14.00">CASE documentation</text>
<text text-anchor="middle" x="476" y="-82.8" font-family="Times,serif" font-size="14.00">regenerated</text>
</a>
</g>
</g>
<!-- _GH__UCOPROJECT__ONTOLOGY_UNIFIEDCYBERONTOLOGY_ORG -->
<g id="node2" class="node">
<title>_GH__UCOPROJECT__ONTOLOGY_UNIFIEDCYBERONTOLOGY_ORG</title>
<g id="a_node2"><a xlink:href="https://github.com/ucoProject/ontology.unifiedcyberontology.org" xlink:title="UCO documentation\nregenerated">
<path fill="#8ec7d2" stroke="#0d6986" d="M315,-113C315,-113 209,-113 209,-113 203,-113 197,-107 197,-101 197,-101 197,-87 197,-87 197,-81 203,-75 209,-75 209,-75 315,-75 315,-75 321,-75 327,-81 327,-87 327,-87 327,-101 327,-101 327,-107 321,-113 315,-113"/>
<text text-anchor="middle" x="262" y="-97.8" font-family="Times,serif" font-size="14.00">UCO documentation</text>
<text text-anchor="middle" x="262" y="-82.8" font-family="Times,serif" font-size="14.00">regenerated</text>
</a>
</g>
</g>
<!-- _GH__UCOPROJECT__ONTOLOGY_UNIFIEDCYBERONTOLOGY_ORG&#45;&gt;_GH__CASEWORK__ONTOLOGY_CASEONTOLOGY_ORG -->
<g id="edge20" class="edge">
<title>_GH__UCOPROJECT__ONTOLOGY_UNIFIEDCYBERONTOLOGY_ORG&#45;&gt;_GH__CASEWORK__ONTOLOGY_CASEONTOLOGY_ORG</title>
<path fill="none" stroke="black" d="M327.18,-94C349.37,-94 374.47,-94 397.6,-94"/>
<polygon fill="black" stroke="black" points="397.73,-97.5 407.73,-94 397.73,-90.5 397.73,-97.5"/>
<text text-anchor="middle" x="367.5" y="-112.8" font-family="Times,serif" font-size="14.00">Tech&#45;</text>
<text text-anchor="middle" x="367.5" y="-97.8" font-family="Times,serif" font-size="14.00">check</text>
</g>
<!-- _GH__UCOPROJECT__UCO -->
<g id="node3" class="node">
<title>_GH__UCOPROJECT__UCO</title>
<g id="a_node3"><a xlink:href="https://github.com/ucoProject/UCO" xlink:title="UCO Ontology\nreleases">
<path fill="#8ec7d2" stroke="#0d6986" d="M104,-207C104,-207 28,-207 28,-207 22,-207 16,-201 16,-195 16,-195 16,-181 16,-181 16,-175 22,-169 28,-169 28,-169 104,-169 104,-169 110,-169 116,-175 116,-181 116,-181 116,-195 116,-195 116,-201 110,-207 104,-207"/>
<text text-anchor="middle" x="66" y="-191.8" font-family="Times,serif" font-size="14.00">UCO Ontology</text>
<text text-anchor="middle" x="66" y="-176.8" font-family="Times,serif" font-size="14.00">releases</text>
</a>
</g>
</g>
<!-- _GH__UCOPROJECT__UCO&#45;&gt;_GH__UCOPROJECT__ONTOLOGY_UNIFIEDCYBERONTOLOGY_ORG -->
<g id="edge22" class="edge">
<title>_GH__UCOPROJECT__UCO&#45;&gt;_GH__UCOPROJECT__ONTOLOGY_UNIFIEDCYBERONTOLOGY_ORG</title>
<path fill="none" stroke="black" d="M105.59,-168.91C114.88,-164.34 124.79,-159.48 134,-155 159.63,-142.53 188.24,-128.78 211.81,-117.49"/>
<polygon fill="black" stroke="black" points="213.4,-120.61 220.91,-113.13 210.38,-114.29 213.4,-120.61"/>
<text text-anchor="middle" x="156.5" y="-173.8" font-family="Times,serif" font-size="14.00">Git sub&#45;</text>
<text text-anchor="middle" x="156.5" y="-158.8" font-family="Times,serif" font-size="14.00">module</text>
</g>
<!-- _GH__CASEWORK__CASE -->
<g id="node4" class="node">
<title>_GH__CASEWORK__CASE</title>
<g id="a_node4"><a xlink:href="https://github.com/casework/CASE" xlink:title="CASE Ontology\nreleases">
<path fill="#8ec7d2" stroke="#0d6986" d="M303,-211C303,-211 221,-211 221,-211 215,-211 209,-205 209,-199 209,-199 209,-185 209,-185 209,-179 215,-173 221,-173 221,-173 303,-173 303,-173 309,-173 315,-179 315,-185 315,-185 315,-199 315,-199 315,-205 309,-211 303,-211"/>
<text text-anchor="middle" x="262" y="-195.8" font-family="Times,serif" font-size="14.00">CASE Ontology</text>
<text text-anchor="middle" x="262" y="-180.8" font-family="Times,serif" font-size="14.00">releases</text>
</a>
</g>
</g>
<!-- _GH__UCOPROJECT__UCO&#45;&gt;_GH__CASEWORK__CASE -->
<g id="edge21" class="edge">
<title>_GH__UCOPROJECT__UCO&#45;&gt;_GH__CASEWORK__CASE</title>
<path fill="none" stroke="black" d="M116.21,-189.01C141.29,-189.53 172.06,-190.17 198.77,-190.72"/>
<polygon fill="black" stroke="black" points="198.72,-194.22 208.79,-190.92 198.86,-187.22 198.72,-194.22"/>
<text text-anchor="middle" x="156.5" y="-208.8" font-family="Times,serif" font-size="14.00">Git sub&#45;</text>
<text text-anchor="middle" x="156.5" y="-193.8" font-family="Times,serif" font-size="14.00">module</text>
</g>
<!-- _GH__CASEWORK__CASE&#45;&gt;_GH__CASEWORK__ONTOLOGY_CASEONTOLOGY_ORG -->
<g id="edge3" class="edge">
<title>_GH__CASEWORK__CASE&#45;&gt;_GH__CASEWORK__ONTOLOGY_CASEONTOLOGY_ORG</title>
<path fill="none" stroke="black" d="M304.13,-172.99C338.39,-157.15 387.35,-134.52 424.09,-117.53"/>
<polygon fill="black" stroke="black" points="426.02,-120.5 433.63,-113.13 423.08,-114.14 426.02,-120.5"/>
<text text-anchor="middle" x="367.5" y="-169.8" font-family="Times,serif" font-size="14.00">Git sub&#45;</text>
<text text-anchor="middle" x="367.5" y="-154.8" font-family="Times,serif" font-size="14.00">module</text>
</g>
<!-- _GH__CASEWORK__CASE_UTILITIES_PYTHON -->
<g id="node9" class="node">
<title>_GH__CASEWORK__CASE_UTILITIES_PYTHON</title>
<g id="a_node9"><a xlink:href="https://github.com/casework/CASE-Utilities-Python" xlink:title="case&#45;utils\nreleases">
<path fill="#8ec7d2" stroke="#0d6986" d="M498,-351C498,-351 454,-351 454,-351 448,-351 442,-345 442,-339 442,-339 442,-325 442,-325 442,-319 448,-313 454,-313 454,-313 498,-313 498,-313 504,-313 510,-319 510,-325 510,-325 510,-339 510,-339 510,-345 504,-351 498,-351"/>
<text text-anchor="middle" x="476" y="-335.8" font-family="Times,serif" font-size="14.00">case&#45;utils</text>
<text text-anchor="middle" x="476" y="-320.8" font-family="Times,serif" font-size="14.00">releases</text>
</a>
</g>
</g>
<!-- _GH__CASEWORK__CASE&#45;&gt;_GH__CASEWORK__CASE_UTILITIES_PYTHON -->
<g id="edge2" class="edge">
<title>_GH__CASEWORK__CASE&#45;&gt;_GH__CASEWORK__CASE_UTILITIES_PYTHON</title>
<path fill="none" stroke="black" d="M292.03,-211.17C329.83,-236.13 395.95,-279.8 437.5,-307.24"/>
<polygon fill="black" stroke="black" points="435.7,-310.24 445.98,-312.83 439.56,-304.4 435.7,-310.24"/>
<text text-anchor="middle" x="367.5" y="-292.8" font-family="Times,serif" font-size="14.00">Git sub&#45;</text>
<text text-anchor="middle" x="367.5" y="-277.8" font-family="Times,serif" font-size="14.00">module</text>
</g>
<!-- _GH__AJNELSON_NIST__CASE_EXAMPLES_QC -->
<g id="node5" class="node">
<title>_GH__AJNELSON_NIST__CASE_EXAMPLES_QC</title>
<g id="a_node5"><a xlink:href="https://github.com/ajnelson-nist/CASE-Examples-QC" xlink:title="CASE&#45;Examples&#45;QC\nadopts CASE&#45;Examples and\nCASE website updates">
<path fill="#8ec7d2" stroke="#0d6986" d="M1118,-312.5C1118,-312.5 970,-312.5 970,-312.5 964,-312.5 958,-306.5 958,-300.5 958,-300.5 958,-271.5 958,-271.5 958,-265.5 964,-259.5 970,-259.5 970,-259.5 1118,-259.5 1118,-259.5 1124,-259.5 1130,-265.5 1130,-271.5 1130,-271.5 1130,-300.5 1130,-300.5 1130,-306.5 1124,-312.5 1118,-312.5"/>
<text text-anchor="middle" x="1044" y="-297.3" font-family="Times,serif" font-size="14.00">CASE&#45;Examples&#45;QC</text>
<text text-anchor="middle" x="1044" y="-282.3" font-family="Times,serif" font-size="14.00">adopts CASE&#45;Examples and</text>
<text text-anchor="middle" x="1044" y="-267.3" font-family="Times,serif" font-size="14.00">CASE website updates</text>
</a>
</g>
</g>
<!-- _GH__CASEWORK__CASE_IMPLEMENTATON_PROV_O -->
<g id="node12" class="node">
<title>_GH__CASEWORK__CASE_IMPLEMENTATON_PROV_O</title>
<g id="a_node12"><a xlink:href="https://github.com/casework/CASE-Implementation-PROV-O" xlink:title="case&#45;prov\nreleases">
<path fill="#8ec7d2" stroke="#0d6986" d="M1294,-422C1294,-422 1249,-422 1249,-422 1243,-422 1237,-416 1237,-410 1237,-410 1237,-396 1237,-396 1237,-390 1243,-384 1249,-384 1249,-384 1294,-384 1294,-384 1300,-384 1306,-390 1306,-396 1306,-396 1306,-410 1306,-410 1306,-416 1300,-422 1294,-422"/>
<text text-anchor="middle" x="1271.5" y="-406.8" font-family="Times,serif" font-size="14.00">case&#45;prov</text>
<text text-anchor="middle" x="1271.5" y="-391.8" font-family="Times,serif" font-size="14.00">releases</text>
</a>
</g>
</g>
<!-- _GH__AJNELSON_NIST__CASE_EXAMPLES_QC&#45;&gt;_GH__CASEWORK__CASE_IMPLEMENTATON_PROV_O -->
<g id="edge1" class="edge">
<title>_GH__AJNELSON_NIST__CASE_EXAMPLES_QC&#45;&gt;_GH__CASEWORK__CASE_IMPLEMENTATON_PROV_O</title>
<path fill="none" stroke="black" d="M1096.17,-312.55C1135.82,-333.12 1190.13,-361.3 1227.54,-380.71"/>
<polygon fill="black" stroke="black" points="1226.18,-383.95 1236.67,-385.45 1229.41,-377.74 1226.18,-383.95"/>
<text text-anchor="middle" x="1196.5" y="-392.8" font-family="Times,serif" font-size="14.00">Git sub&#45;</text>
<text text-anchor="middle" x="1196.5" y="-377.8" font-family="Times,serif" font-size="14.00">module</text>
</g>
<!-- _GH__CASEWORK__CASE_EXAMPLES -->
<g id="node6" class="node">
<title>_GH__CASEWORK__CASE_EXAMPLES</title>
<g id="a_node6"><a xlink:href="https://github.com/casework/CASE-Examples" xlink:title="CASE&#45;Examples\nadopts new case&#45;utils">
<path fill="#8ec7d2" stroke="#0d6986" d="M766.5,-270C766.5,-270 657.5,-270 657.5,-270 651.5,-270 645.5,-264 645.5,-258 645.5,-258 645.5,-244 645.5,-244 645.5,-238 651.5,-232 657.5,-232 657.5,-232 766.5,-232 766.5,-232 772.5,-232 778.5,-238 778.5,-244 778.5,-244 778.5,-258 778.5,-258 778.5,-264 772.5,-270 766.5,-270"/>
<text text-anchor="middle" x="712" y="-254.8" font-family="Times,serif" font-size="14.00">CASE&#45;Examples</text>
<text text-anchor="middle" x="712" y="-239.8" font-family="Times,serif" font-size="14.00">adopts new case&#45;utils</text>
</a>
</g>
</g>
<!-- _GH__CASEWORK__CASE_EXAMPLES&#45;&gt;_GH__AJNELSON_NIST__CASE_EXAMPLES_QC -->
<g id="edge4" class="edge">
<title>_GH__CASEWORK__CASE_EXAMPLES&#45;&gt;_GH__AJNELSON_NIST__CASE_EXAMPLES_QC</title>
<path fill="none" stroke="black" d="M778.59,-257.96C826.99,-263.09 893.58,-270.15 947.82,-275.9"/>
<polygon fill="black" stroke="black" points="947.48,-279.39 957.8,-276.96 948.22,-272.43 947.48,-279.39"/>
<text text-anchor="middle" x="874.5" y="-289.8" font-family="Times,serif" font-size="14.00">Git sub&#45;</text>
<text text-anchor="middle" x="874.5" y="-274.8" font-family="Times,serif" font-size="14.00">module</text>
</g>
<!-- _GH__CASEWORK__CASE_IMPLEMENTATON_EXIFTOOL -->
<g id="node7" class="node">
<title>_GH__CASEWORK__CASE_IMPLEMENTATON_EXIFTOOL</title>
<g id="a_node7"><a xlink:href="https://github.com/casework/CASE-Implementation-ExifTool" xlink:title="CASE&#45;Implementation&#45;ExifTool\nadopts new case&#45;utils">
<path fill="#8ec7d2" stroke="#0d6986" d="M797.5,-326C797.5,-326 626.5,-326 626.5,-326 620.5,-326 614.5,-320 614.5,-314 614.5,-314 614.5,-300 614.5,-300 614.5,-294 620.5,-288 626.5,-288 626.5,-288 797.5,-288 797.5,-288 803.5,-288 809.5,-294 809.5,-300 809.5,-300 809.5,-314 809.5,-314 809.5,-320 803.5,-326 797.5,-326"/>
<text text-anchor="middle" x="712" y="-310.8" font-family="Times,serif" font-size="14.00">CASE&#45;Implementation&#45;ExifTool</text>
<text text-anchor="middle" x="712" y="-295.8" font-family="Times,serif" font-size="14.00">adopts new case&#45;utils</text>
</a>
</g>
</g>
<!-- _GH__CASEWORK__CASE_IMPLEMENTATON_GNU_TIME -->
<g id="node8" class="node">
<title>_GH__CASEWORK__CASE_IMPLEMENTATON_GNU_TIME</title>
<g id="a_node8"><a xlink:href="https://github.com/casework/CASE-Implementation-GNU-Time" xlink:title="CASE&#45;Implementation&#45;GNU&#45;Time\nadopts new case&#45;utils">
<path fill="#8ec7d2" stroke="#0d6986" d="M805,-382C805,-382 619,-382 619,-382 613,-382 607,-376 607,-370 607,-370 607,-356 607,-356 607,-350 613,-344 619,-344 619,-344 805,-344 805,-344 811,-344 817,-350 817,-356 817,-356 817,-370 817,-370 817,-376 811,-382 805,-382"/>
<text text-anchor="middle" x="712" y="-366.8" font-family="Times,serif" font-size="14.00">CASE&#45;Implementation&#45;GNU&#45;Time</text>
<text text-anchor="middle" x="712" y="-351.8" font-family="Times,serif" font-size="14.00">adopts new case&#45;utils</text>
</a>
</g>
</g>
<!-- _GH__CASEWORK__CASE_UTILITIES_PYTHON&#45;&gt;_GH__AJNELSON_NIST__CASE_EXAMPLES_QC -->
<g id="edge6" class="edge">
<title>_GH__CASEWORK__CASE_UTILITIES_PYTHON&#45;&gt;_GH__AJNELSON_NIST__CASE_EXAMPLES_QC</title>
<path fill="none" stroke="black" d="M489.76,-312.68C510.35,-283.47 554.01,-229.22 607,-208 734.76,-156.84 896.99,-215.34 983.04,-255.17"/>
<polygon fill="black" stroke="black" points="981.6,-258.36 992.14,-259.45 984.58,-252.03 981.6,-258.36"/>
<text text-anchor="middle" x="712" y="-211.8" font-family="Times,serif" font-size="14.00">PyPI</text>
</g>
<!-- _GH__CASEWORK__CASE_UTILITIES_PYTHON&#45;&gt;_GH__CASEWORK__CASE_EXAMPLES -->
<g id="edge7" class="edge">
<title>_GH__CASEWORK__CASE_UTILITIES_PYTHON&#45;&gt;_GH__CASEWORK__CASE_EXAMPLES</title>
<path fill="none" stroke="black" d="M510.29,-316.88C525.88,-309.95 544.79,-301.8 562,-295 581.74,-287.2 586.74,-285.32 607,-279 616.24,-276.12 625.99,-273.26 635.67,-270.53"/>
<polygon fill="black" stroke="black" points="636.61,-273.9 645.31,-267.85 634.74,-267.16 636.61,-273.9"/>
<text text-anchor="middle" x="575.5" y="-298.8" font-family="Times,serif" font-size="14.00">PyPI</text>
</g>
<!-- _GH__CASEWORK__CASE_UTILITIES_PYTHON&#45;&gt;_GH__CASEWORK__CASE_IMPLEMENTATON_EXIFTOOL -->
<g id="edge8" class="edge">
<title>_GH__CASEWORK__CASE_UTILITIES_PYTHON&#45;&gt;_GH__CASEWORK__CASE_IMPLEMENTATON_EXIFTOOL</title>
<path fill="none" stroke="black" d="M510.38,-325.25C526,-322.32 544.89,-319.08 562,-317 575.57,-315.35 589.86,-313.96 604.01,-312.79"/>
<polygon fill="black" stroke="black" points="604.58,-316.25 614.28,-311.97 604.03,-309.27 604.58,-316.25"/>
<text text-anchor="middle" x="575.5" y="-320.8" font-family="Times,serif" font-size="14.00">PyPI</text>
</g>
<!-- _GH__CASEWORK__CASE_UTILITIES_PYTHON&#45;&gt;_GH__CASEWORK__CASE_IMPLEMENTATON_GNU_TIME -->
<g id="edge9" class="edge">
<title>_GH__CASEWORK__CASE_UTILITIES_PYTHON&#45;&gt;_GH__CASEWORK__CASE_IMPLEMENTATON_GNU_TIME</title>
<path fill="none" stroke="black" d="M510.03,-336.38C532.94,-339.41 564.92,-343.65 596.64,-347.85"/>
<polygon fill="black" stroke="black" points="596.55,-351.37 606.92,-349.21 597.47,-344.43 596.55,-351.37"/>
<text text-anchor="middle" x="575.5" y="-349.8" font-family="Times,serif" font-size="14.00">PyPI</text>
</g>
<!-- _GH__CASEWORK__CASEWORK_GITHUB_IO -->
<g id="node10" class="node">
<title>_GH__CASEWORK__CASEWORK_GITHUB_IO</title>
<g id="a_node10"><a xlink:href="https://github.com/casework/casework.github.io" xlink:title="CASE website\nadopts new case&#45;utils">
<path fill="#8ec7d2" stroke="#0d6986" d="M766.5,-438C766.5,-438 657.5,-438 657.5,-438 651.5,-438 645.5,-432 645.5,-426 645.5,-426 645.5,-412 645.5,-412 645.5,-406 651.5,-400 657.5,-400 657.5,-400 766.5,-400 766.5,-400 772.5,-400 778.5,-406 778.5,-412 778.5,-412 778.5,-426 778.5,-426 778.5,-432 772.5,-438 766.5,-438"/>
<text text-anchor="middle" x="712" y="-422.8" font-family="Times,serif" font-size="14.00">CASE website</text>
<text text-anchor="middle" x="712" y="-407.8" font-family="Times,serif" font-size="14.00">adopts new case&#45;utils</text>
</a>
</g>
</g>
<!-- _GH__CASEWORK__CASE_UTILITIES_PYTHON&#45;&gt;_GH__CASEWORK__CASEWORK_GITHUB_IO -->
<g id="edge12" class="edge">
<title>_GH__CASEWORK__CASE_UTILITIES_PYTHON&#45;&gt;_GH__CASEWORK__CASEWORK_GITHUB_IO</title>
<path fill="none" stroke="black" d="M510.05,-348.81C535.96,-361.55 573.17,-378.86 607,-391 616.17,-394.29 625.92,-397.4 635.63,-400.27"/>
<polygon fill="black" stroke="black" points="634.73,-403.66 645.31,-403.06 636.67,-396.93 634.73,-403.66"/>
<text text-anchor="middle" x="575.5" y="-387.8" font-family="Times,serif" font-size="14.00">PyPI</text>
</g>
<!-- _GH__CASEWORK__CASE_UTILITIES_PYTHON&#45;&gt;_GH__CASEWORK__CASE_IMPLEMENTATON_PROV_O -->
<g id="edge10" class="edge">
<title>_GH__CASEWORK__CASE_UTILITIES_PYTHON&#45;&gt;_GH__CASEWORK__CASE_IMPLEMENTATON_PROV_O</title>
<path fill="none" stroke="black" d="M491.16,-351.31C512.61,-378.74 556.28,-427.79 607,-447 650.64,-463.53 770.39,-449.26 817,-447 996.3,-438.32 1040.33,-425.34 1219,-408 1221.54,-407.75 1224.16,-407.5 1226.79,-407.24"/>
<polygon fill="black" stroke="black" points="1227.36,-410.7 1236.98,-406.25 1226.69,-403.74 1227.36,-410.7"/>
<text text-anchor="middle" x="874.5" y="-448.8" font-family="Times,serif" font-size="14.00">PyPI</text>
</g>
<!-- _GH__KCHASON__CASE_VALIDATION_ACTION -->
<g id="node18" class="node">
<title>_GH__KCHASON__CASE_VALIDATION_ACTION</title>
<g id="a_node18"><a xlink:href="https://github.com/kchason/case-validation-action" xlink:title="case&#45;validation&#45;action\nreleases">
<path fill="#8ec7d2" stroke="#0d6986" d="M768,-564C768,-564 656,-564 656,-564 650,-564 644,-558 644,-552 644,-552 644,-538 644,-538 644,-532 650,-526 656,-526 656,-526 768,-526 768,-526 774,-526 780,-532 780,-538 780,-538 780,-552 780,-552 780,-558 774,-564 768,-564"/>
<text text-anchor="middle" x="712" y="-548.8" font-family="Times,serif" font-size="14.00">case&#45;validation&#45;action</text>
<text text-anchor="middle" x="712" y="-533.8" font-family="Times,serif" font-size="14.00">releases</text>
</a>
</g>
</g>
<!-- _GH__CASEWORK__CASE_UTILITIES_PYTHON&#45;&gt;_GH__KCHASON__CASE_VALIDATION_ACTION -->
<g id="edge11" class="edge">
<title>_GH__CASEWORK__CASE_UTILITIES_PYTHON&#45;&gt;_GH__KCHASON__CASE_VALIDATION_ACTION</title>
<path fill="none" stroke="black" d="M484.1,-351.13C499.72,-390.28 540.98,-479.46 607,-522 615.28,-527.33 624.61,-531.44 634.2,-534.61"/>
<polygon fill="black" stroke="black" points="633.27,-537.98 643.85,-537.47 635.26,-531.27 633.27,-537.98"/>
<text text-anchor="middle" x="575.5" y="-510.8" font-family="Times,serif" font-size="14.00">PyPI</text>
</g>
<!-- _GH__CASEWORK__CASEWORK_GITHUB_IO&#45;&gt;_GH__AJNELSON_NIST__CASE_EXAMPLES_QC -->
<g id="edge13" class="edge">
<title>_GH__CASEWORK__CASEWORK_GITHUB_IO&#45;&gt;_GH__AJNELSON_NIST__CASE_EXAMPLES_QC</title>
<path fill="none" stroke="black" d="M778.72,-403.15C791.54,-399.54 804.79,-395.44 817,-391 875,-369.89 938.55,-339.7 983.45,-317.11"/>
<polygon fill="black" stroke="black" points="985.11,-320.19 992.45,-312.55 981.95,-313.94 985.11,-320.19"/>
<text text-anchor="middle" x="874.5" y="-401.8" font-family="Times,serif" font-size="14.00">Git sub&#45;</text>
<text text-anchor="middle" x="874.5" y="-386.8" font-family="Times,serif" font-size="14.00">module</text>
</g>
<!-- _GH__CASEWORK__CASE_CORPORA -->
<g id="node11" class="node">
<title>_GH__CASEWORK__CASE_CORPORA</title>
<g id="a_node11"><a xlink:href="https://github.com/casework/CASE-Corpora" xlink:title="CASE&#45;Corpora\nadopts new case&#45;prov">
<path fill="#8ec7d2" stroke="#0d6986" d="M1491,-422C1491,-422 1381,-422 1381,-422 1375,-422 1369,-416 1369,-410 1369,-410 1369,-396 1369,-396 1369,-390 1375,-384 1381,-384 1381,-384 1491,-384 1491,-384 1497,-384 1503,-390 1503,-396 1503,-396 1503,-410 1503,-410 1503,-416 1497,-422 1491,-422"/>
<text text-anchor="middle" x="1436" y="-406.8" font-family="Times,serif" font-size="14.00">CASE&#45;Corpora</text>
<text text-anchor="middle" x="1436" y="-391.8" font-family="Times,serif" font-size="14.00">adopts new case&#45;prov</text>
</a>
</g>
</g>
<!-- _GH__CASEWORK__CASE_IMPLEMENTATON_PROV_O&#45;&gt;_GH__CASEWORK__CASE_CORPORA -->
<g id="edge5" class="edge">
<title>_GH__CASEWORK__CASE_IMPLEMENTATON_PROV_O&#45;&gt;_GH__CASEWORK__CASE_CORPORA</title>
<path fill="none" stroke="black" d="M1306.17,-403C1321.47,-403 1340.23,-403 1358.66,-403"/>
<polygon fill="black" stroke="black" points="1358.84,-406.5 1368.84,-403 1358.84,-399.5 1358.84,-406.5"/>
<text text-anchor="middle" x="1337.5" y="-406.8" font-family="Times,serif" font-size="14.00">PyPI</text>
</g>
<!-- _GH__CASEWORK__CASE_IMPLEMENTATON_UFED_XML -->
<g id="node13" class="node">
<title>_GH__CASEWORK__CASE_IMPLEMENTATON_UFED_XML</title>
<g id="a_node13"><a xlink:href="https://github.com/casework/CASE-Implementation-UFED-XML" xlink:title="CASE&#45;Implementation&#45;UFED&#45;XML\nadopts new case&#45;validation&#45;action">
<path fill="#8ec7d2" stroke="#0d6986" d="M1141,-766C1141,-766 947,-766 947,-766 941,-766 935,-760 935,-754 935,-754 935,-740 935,-740 935,-734 941,-728 947,-728 947,-728 1141,-728 1141,-728 1147,-728 1153,-734 1153,-740 1153,-740 1153,-754 1153,-754 1153,-760 1147,-766 1141,-766"/>
<text text-anchor="middle" x="1044" y="-750.8" font-family="Times,serif" font-size="14.00">CASE&#45;Implementation&#45;UFED&#45;XML</text>
<text text-anchor="middle" x="1044" y="-735.8" font-family="Times,serif" font-size="14.00">adopts new case&#45;validation&#45;action</text>
</a>
</g>
</g>
<!-- _GH__CASEWORK__CASE_IMPLEMENTATON_PYPI_EXIFREAD -->
<g id="node14" class="node">
<title>_GH__CASEWORK__CASE_IMPLEMENTATON_PYPI_EXIFREAD</title>
<g id="a_node14"><a xlink:href="https://github.com/casework/CASE-Implementation-PyPI-Exifread" xlink:title="CASE&#45;Implementation&#45;PyPI&#45;Exifread\nadopts new case&#45;validation&#45;action">
<path fill="#8ec7d2" stroke="#0d6986" d="M1144,-512C1144,-512 944,-512 944,-512 938,-512 932,-506 932,-500 932,-500 932,-486 932,-486 932,-480 938,-474 944,-474 944,-474 1144,-474 1144,-474 1150,-474 1156,-480 1156,-486 1156,-486 1156,-500 1156,-500 1156,-506 1150,-512 1144,-512"/>
<text text-anchor="middle" x="1044" y="-496.8" font-family="Times,serif" font-size="14.00">CASE&#45;Implementation&#45;PyPI&#45;Exifread</text>
<text text-anchor="middle" x="1044" y="-481.8" font-family="Times,serif" font-size="14.00">adopts new case&#45;validation&#45;action</text>
</a>
</g>
</g>
<!-- _GH__CASEWORK__CASE_IMPLEMENTATON_PYPI_PILLOW -->
<g id="node15" class="node">
<title>_GH__CASEWORK__CASE_IMPLEMENTATON_PYPI_PILLOW</title>
<g id="a_node15"><a xlink:href="https://github.com/casework/CASE-Implementation-PyPI-Pillow" xlink:title="CASE&#45;Implementation&#45;PyPI&#45;Pillow\nadopts new case&#45;validation&#45;action">
<path fill="#8ec7d2" stroke="#0d6986" d="M1138.5,-568C1138.5,-568 949.5,-568 949.5,-568 943.5,-568 937.5,-562 937.5,-556 937.5,-556 937.5,-542 937.5,-542 937.5,-536 943.5,-530 949.5,-530 949.5,-530 1138.5,-530 1138.5,-530 1144.5,-530 1150.5,-536 1150.5,-542 1150.5,-542 1150.5,-556 1150.5,-556 1150.5,-562 1144.5,-568 1138.5,-568"/>
<text text-anchor="middle" x="1044" y="-552.8" font-family="Times,serif" font-size="14.00">CASE&#45;Implementation&#45;PyPI&#45;Pillow</text>
<text text-anchor="middle" x="1044" y="-537.8" font-family="Times,serif" font-size="14.00">adopts new case&#45;validation&#45;action</text>
</a>
</g>
</g>
<!-- _GH__CASEWORK__CASE_IMPLEMENTATON_XRY -->
<g id="node16" class="node">
<title>_GH__CASEWORK__CASE_IMPLEMENTATON_XRY</title>
<g id="a_node16"><a xlink:href="https://github.com/casework/CASE-Implementation-XRY" xlink:title="CASE&#45;Implementation&#45;XRY adopts\nnew case&#45;validation&#45;action">
<path fill="#8ec7d2" stroke="#0d6986" d="M1139,-624C1139,-624 949,-624 949,-624 943,-624 937,-618 937,-612 937,-612 937,-598 937,-598 937,-592 943,-586 949,-586 949,-586 1139,-586 1139,-586 1145,-586 1151,-592 1151,-598 1151,-598 1151,-612 1151,-612 1151,-618 1145,-624 1139,-624"/>
<text text-anchor="middle" x="1044" y="-608.8" font-family="Times,serif" font-size="14.00">CASE&#45;Implementation&#45;XRY adopts</text>
<text text-anchor="middle" x="1044" y="-593.8" font-family="Times,serif" font-size="14.00">new case&#45;validation&#45;action</text>
</a>
</g>
</g>
<!-- _GH__CASEWORK__CASE_MAPPING_TEMPLATE_PYTHON -->
<g id="node17" class="node">
<title>_GH__CASEWORK__CASE_MAPPING_TEMPLATE_PYTHON</title>
<g id="a_node17"><a xlink:href="https://github.com/casework/CASE-Mapping-Template-Python" xlink:title="CASE&#45;Mapping&#45;Template&#45;Python\nadopts new case&#45;validation&#45;action">
<path fill="#8ec7d2" stroke="#0d6986" d="M1133.5,-680C1133.5,-680 954.5,-680 954.5,-680 948.5,-680 942.5,-674 942.5,-668 942.5,-668 942.5,-654 942.5,-654 942.5,-648 948.5,-642 954.5,-642 954.5,-642 1133.5,-642 1133.5,-642 1139.5,-642 1145.5,-648 1145.5,-654 1145.5,-654 1145.5,-668 1145.5,-668 1145.5,-674 1139.5,-680 1133.5,-680"/>
<text text-anchor="middle" x="1044" y="-664.8" font-family="Times,serif" font-size="14.00">CASE&#45;Mapping&#45;Template&#45;Python</text>
<text text-anchor="middle" x="1044" y="-649.8" font-family="Times,serif" font-size="14.00">adopts new case&#45;validation&#45;action</text>
</a>
</g>
</g>
<!-- _GH__KCHASON__CASE_VALIDATION_ACTION&#45;&gt;_GH__CASEWORK__CASE_IMPLEMENTATON_UFED_XML -->
<g id="edge16" class="edge">
<title>_GH__KCHASON__CASE_VALIDATION_ACTION&#45;&gt;_GH__CASEWORK__CASE_IMPLEMENTATON_UFED_XML</title>
<path fill="none" stroke="black" d="M726.31,-564.19C746.78,-592.47 788.52,-645.51 835,-678 865.64,-699.42 903.4,-714.56 938.31,-725.09"/>
<polygon fill="black" stroke="black" points="937.49,-728.5 948.07,-727.94 939.45,-721.78 937.49,-728.5"/>
<text text-anchor="middle" x="874.5" y="-733.8" font-family="Times,serif" font-size="14.00">GitHub</text>
<text text-anchor="middle" x="874.5" y="-718.8" font-family="Times,serif" font-size="14.00">Action</text>
</g>
<!-- _GH__KCHASON__CASE_VALIDATION_ACTION&#45;&gt;_GH__CASEWORK__CASE_IMPLEMENTATON_PYPI_EXIFREAD -->
<g id="edge14" class="edge">
<title>_GH__KCHASON__CASE_VALIDATION_ACTION&#45;&gt;_GH__CASEWORK__CASE_IMPLEMENTATON_PYPI_EXIFREAD</title>
<path fill="none" stroke="black" d="M780.01,-533.61C792.53,-530.53 805.34,-526.7 817,-522 825.7,-518.5 826.09,-513.93 835,-511 862.34,-502.02 892.72,-496.88 921.64,-494.06"/>
<polygon fill="black" stroke="black" points="922.15,-497.52 931.8,-493.15 921.53,-490.55 922.15,-497.52"/>
<text text-anchor="middle" x="874.5" y="-529.8" font-family="Times,serif" font-size="14.00">GitHub</text>
<text text-anchor="middle" x="874.5" y="-514.8" font-family="Times,serif" font-size="14.00">Action</text>
</g>
<!-- _GH__KCHASON__CASE_VALIDATION_ACTION&#45;&gt;_GH__CASEWORK__CASE_IMPLEMENTATON_PYPI_PILLOW -->
<g id="edge15" class="edge">
<title>_GH__KCHASON__CASE_VALIDATION_ACTION&#45;&gt;_GH__CASEWORK__CASE_IMPLEMENTATON_PYPI_PILLOW</title>
<path fill="none" stroke="black" d="M780,-545.03C819.09,-545.12 869.34,-545.37 914,-546 918.28,-546.06 922.65,-546.13 927.06,-546.2"/>
<polygon fill="black" stroke="black" points="927.34,-549.71 937.4,-546.39 927.47,-542.71 927.34,-549.71"/>
<text text-anchor="middle" x="874.5" y="-564.8" font-family="Times,serif" font-size="14.00">GitHub</text>
<text text-anchor="middle" x="874.5" y="-549.8" font-family="Times,serif" font-size="14.00">Action</text>
</g>
<!-- _GH__KCHASON__CASE_VALIDATION_ACTION&#45;&gt;_GH__CASEWORK__CASE_IMPLEMENTATON_XRY -->
<g id="edge17" class="edge">
<title>_GH__KCHASON__CASE_VALIDATION_ACTION&#45;&gt;_GH__CASEWORK__CASE_IMPLEMENTATON_XRY</title>
<path fill="none" stroke="black" d="M780.14,-563.47C797.89,-567.97 817.09,-572.49 835,-576 864.57,-581.8 896.73,-586.88 926.73,-591.1"/>
<polygon fill="black" stroke="black" points="926.42,-594.59 936.81,-592.49 927.38,-587.65 926.42,-594.59"/>
<text text-anchor="middle" x="874.5" y="-606.8" font-family="Times,serif" font-size="14.00">GitHub</text>
<text text-anchor="middle" x="874.5" y="-591.8" font-family="Times,serif" font-size="14.00">Action</text>
</g>
<!-- _GH__KCHASON__CASE_VALIDATION_ACTION&#45;&gt;_GH__CASEWORK__CASE_MAPPING_TEMPLATE_PYTHON -->
<g id="edge18" class="edge">
<title>_GH__KCHASON__CASE_VALIDATION_ACTION&#45;&gt;_GH__CASEWORK__CASE_MAPPING_TEMPLATE_PYTHON</title>
<path fill="none" stroke="black" d="M737.2,-564.19C760.8,-581.92 798.4,-607.63 835,-622 865.68,-634.05 900.41,-642.44 932.57,-648.26"/>
<polygon fill="black" stroke="black" points="932.01,-651.72 942.46,-649.99 933.21,-644.82 932.01,-651.72"/>
<text text-anchor="middle" x="874.5" y="-662.8" font-family="Times,serif" font-size="14.00">GitHub</text>
<text text-anchor="middle" x="874.5" y="-647.8" font-family="Times,serif" font-size="14.00">Action</text>
</g>
<!-- _GH__DOD_CYBER_CRIME_CENTER__SQLITE_DISSECT -->
<g id="node19" class="node">
<title>_GH__DOD_CYBER_CRIME_CENTER__SQLITE_DISSECT</title>
<g id="a_node19"><a xlink:href="https://github.com/dod-cyber-crime-center/sqlite-dissect" xlink:title="sqlite&#45;dissect\nadopts new case&#45;validation&#45;action">
<path fill="#8ec7d2" stroke="#0d6986" d="M1132.5,-149C1132.5,-149 955.5,-149 955.5,-149 949.5,-149 943.5,-143 943.5,-137 943.5,-137 943.5,-123 943.5,-123 943.5,-117 949.5,-111 955.5,-111 955.5,-111 1132.5,-111 1132.5,-111 1138.5,-111 1144.5,-117 1144.5,-123 1144.5,-123 1144.5,-137 1144.5,-137 1144.5,-143 1138.5,-149 1132.5,-149"/>
<text text-anchor="middle" x="1044" y="-133.8" font-family="Times,serif" font-size="14.00">sqlite&#45;dissect</text>
<text text-anchor="middle" x="1044" y="-118.8" font-family="Times,serif" font-size="14.00">adopts new case&#45;validation&#45;action</text>
</a>
</g>
</g>
<!-- _GH__KCHASON__CASE_VALIDATION_ACTION&#45;&gt;_GH__DOD_CYBER_CRIME_CENTER__SQLITE_DISSECT -->
<g id="edge19" class="edge">
<title>_GH__KCHASON__CASE_VALIDATION_ACTION&#45;&gt;_GH__DOD_CYBER_CRIME_CENTER__SQLITE_DISSECT</title>
<g id="a_edge19"><a xlink:href="https://github.com/dod-cyber-crime-center/sqlite-dissect/pull/31" xlink:title="TODO: PR 31">
<path fill="none" stroke="black" d="M780.16,-543.16C794.24,-539.55 807.64,-533.09 817,-522 843.4,-490.72 807.02,-183.89 835,-154 859.86,-127.44 897.08,-117.98 933.19,-116.31"/>
<polygon fill="black" stroke="black" points="933.43,-119.8 943.33,-116.03 933.24,-112.8 933.43,-119.8"/>
</a>
</g>
<g id="a_edge19&#45;label"><a xlink:href="https://github.com/dod-cyber-crime-center/sqlite-dissect/pull/31" xlink:title="TODO: PR 31">
<text text-anchor="middle" x="874.5" y="-157.8" font-family="Times,serif" font-size="14.00">TODO: PR 31</text>
</a>
</g>
</g>
</g>
</svg>
