<?xml version="1.0" encoding="UTF-8" standalone="no"?>
<!DOCTYPE svg PUBLIC "-//W3C//DTD SVG 1.1//EN"
 "http://www.w3.org/Graphics/SVG/1.1/DTD/svg11.dtd">
<!-- Generated by graphviz version 8.0.3 (20230416.2022)
 -->
<!-- Title: cdo_release_flow Pages: 1 -->
<svg width="1668pt" height="1233pt"
 viewBox="0.00 0.00 1668.00 1233.00" xmlns="http://www.w3.org/2000/svg" xmlns:xlink="http://www.w3.org/1999/xlink">
<g id="graph0" class="graph" transform="scale(1 1) rotate(0) translate(4 1229)">
<title>cdo_release_flow</title>
<polygon fill="white" stroke="none" points="-4,4 -4,-1229 1664,-1229 1664,4 -4,4"/>
<text text-anchor="middle" x="830" y="-38.8" font-family="Times,serif" font-size="14.00">Release flow of CDO ontologies</text>
<text text-anchor="middle" x="830" y="-7.8" font-family="Times,serif" font-size="14.00">Nodes link to the respective Git repository.</text>
<g id="clust1" class="cluster">
<title>cluster_uco_0_9_1</title>
<polygon fill="none" stroke="black" points="0,-139 0,-255 168,-255 168,-139 0,-139"/>
<text text-anchor="middle" x="84" y="-239.8" font-family="Times,serif" font-size="14.00">Adoption of UCO 0.9.1</text>
</g>
<g id="clust2" class="cluster">
<title>cluster_case_0_7_1</title>
<polygon fill="none" stroke="black" points="8,-147 8,-224 160,-224 160,-147 8,-147"/>
<text text-anchor="middle" x="84" y="-208.8" font-family="Times,serif" font-size="14.00">Adoption of CASE 0.7.1</text>
</g>
<g id="clust3" class="cluster">
<title>cluster_uco_1_1_0</title>
<polygon fill="none" stroke="black" points="995,-100 995,-294 1283,-294 1283,-100 995,-100"/>
<text text-anchor="middle" x="1139" y="-278.8" font-family="Times,serif" font-size="14.00">Adoption of UCO 1.1.0</text>
</g>
<g id="clust4" class="cluster">
<title>cluster_case_1_1_0</title>
<polygon fill="none" stroke="black" points="1003,-108 1003,-263 1275,-263 1275,-108 1003,-108"/>
<text text-anchor="middle" x="1139" y="-247.8" font-family="Times,serif" font-size="14.00">Adoption of CASE 1.1.0</text>
</g>
<g id="clust5" class="cluster">
<title>cluster_case_utils_0_9_0</title>
<polygon fill="none" stroke="black" points="1011,-116 1011,-232 1267,-232 1267,-116 1011,-116"/>
<text text-anchor="middle" x="1139" y="-216.8" font-family="Times,serif" font-size="14.00">Adoption of case&#45;utils 0.9.0</text>
</g>
<g id="clust6" class="cluster">
<title>cluster_case_validation_action_2_5</title>
<polygon fill="none" stroke="black" points="1019,-124 1019,-201 1259,-201 1259,-124 1019,-124"/>
<text text-anchor="middle" x="1139" y="-185.8" font-family="Times,serif" font-size="14.00">Adoption of case&#45;validation&#45;action 2.5</text>
</g>
<g id="clust7" class="cluster">
<title>cluster_uco_1_2_0</title>
<polygon fill="none" stroke="black" points="26,-302 26,-1217 1652,-1217 1652,-302 26,-302"/>
<text text-anchor="middle" x="839" y="-1201.8" font-family="Times,serif" font-size="14.00">Adoption of UCO 1.2.0</text>
</g>
<g id="clust8" class="cluster">
<title>cluster_case_1_2_0</title>
<polygon fill="none" stroke="black" points="245.5,-419 245.5,-1186 1644,-1186 1644,-419 245.5,-419"/>
<text text-anchor="middle" x="944.75" y="-1170.8" font-family="Times,serif" font-size="14.00">Adoption of CASE 1.2.0</text>
</g>
<g id="clust9" class="cluster">
<title>cluster_case_utils_0_10_0</title>
<polygon fill="none" stroke="black" points="507,-473 507,-1155 1636,-1155 1636,-473 507,-473"/>
<text text-anchor="middle" x="1071.5" y="-1139.8" font-family="Times,serif" font-size="14.00">Adoption of case&#45;utils 0.10.0</text>
</g>
<g id="clust10" class="cluster">
<title>cluster_case_prov_0_7_0</title>
<polygon fill="none" stroke="black" points="1346,-1042 1346,-1119 1628,-1119 1628,-1042 1346,-1042"/>
<text text-anchor="middle" x="1487" y="-1103.8" font-family="Times,serif" font-size="14.00">Adoption of case&#45;prov 0.7.0</text>
</g>
<g id="clust11" class="cluster">
<title>cluster_case_validation_action_2_6</title>
<polygon fill="none" stroke="black" points="682.5,-583 682.5,-951 1280.5,-951 1280.5,-583 682.5,-583"/>
<text text-anchor="middle" x="981.5" y="-935.8" font-family="Times,serif" font-size="14.00">Adoption of case&#45;validation&#45;action 2.6</text>
</g>
<g id="clust12" class="cluster">
<title>cluster_case_bindings_csharp_0_4_0</title>
<polygon fill="none" stroke="black" points="690.5,-843 690.5,-920 1272.5,-920 1272.5,-843 690.5,-843"/>
<text text-anchor="middle" x="981.5" y="-904.8" font-family="Times,serif" font-size="14.00">Adoption of CSharp bindings 0.4.0</text>
</g>
<!-- _GH__CASEWORK__CASE_MAPPING_TEMPLATE_STUBS -->
<g id="node1" class="node">
<title>_GH__CASEWORK__CASE_MAPPING_TEMPLATE_STUBS</title>
<g id="a_node1"><a xlink:href="https://github.com/casework/CASE-Mapping-Template-Stubs" xlink:title="CASE Mapping\nTemplate Stubs">
<path fill="#8ec7d2" stroke="#0d6986" d="M124,-193C124,-193 44,-193 44,-193 38,-193 32,-187 32,-181 32,-181 32,-167 32,-167 32,-161 38,-155 44,-155 44,-155 124,-155 124,-155 130,-155 136,-161 136,-167 136,-167 136,-181 136,-181 136,-187 130,-193 124,-193"/>
<text text-anchor="middle" x="84" y="-177.8" font-family="Times,serif" font-size="14.00">CASE Mapping</text>
<text text-anchor="middle" x="84" y="-162.8" font-family="Times,serif" font-size="14.00">Template Stubs</text>
</a>
</g>
</g>
<!-- _GH__CASEWORK__CASE_IMPLEMENTATON_PYPI_EXIFREAD -->
<g id="node2" class="node">
<title>_GH__CASEWORK__CASE_IMPLEMENTATON_PYPI_EXIFREAD</title>
<g id="a_node2"><a xlink:href="https://github.com/casework/CASE-Implementation-PyPI-Exifread" xlink:title="CASE&#45;Implementation&#45;PyPI&#45;Exifread\nadopts new case&#45;validation&#45;action">
<path fill="#8ec7d2" stroke="#0d6986" d="M1239,-170C1239,-170 1039,-170 1039,-170 1033,-170 1027,-164 1027,-158 1027,-158 1027,-144 1027,-144 1027,-138 1033,-132 1039,-132 1039,-132 1239,-132 1239,-132 1245,-132 1251,-138 1251,-144 1251,-144 1251,-158 1251,-158 1251,-164 1245,-170 1239,-170"/>
<text text-anchor="middle" x="1139" y="-154.8" font-family="Times,serif" font-size="14.00">CASE&#45;Implementation&#45;PyPI&#45;Exifread</text>
<text text-anchor="middle" x="1139" y="-139.8" font-family="Times,serif" font-size="14.00">adopts new case&#45;validation&#45;action</text>
</a>
</g>
</g>
<!-- _GH__UCOPROJECT__ONTOLOGY_UNIFIEDCYBERONTOLOGY_ORG -->
<g id="node3" class="node">
<title>_GH__UCOPROJECT__ONTOLOGY_UNIFIEDCYBERONTOLOGY_ORG</title>
<g id="a_node3"><a xlink:href="https://github.com/ucoProject/ontology.unifiedcyberontology.org" xlink:title="UCO documentation\nregenerated">
<path fill="#8ec7d2" stroke="#0d6986" d="M359.5,-411C359.5,-411 253.5,-411 253.5,-411 247.5,-411 241.5,-405 241.5,-399 241.5,-399 241.5,-385 241.5,-385 241.5,-379 247.5,-373 253.5,-373 253.5,-373 359.5,-373 359.5,-373 365.5,-373 371.5,-379 371.5,-385 371.5,-385 371.5,-399 371.5,-399 371.5,-405 365.5,-411 359.5,-411"/>
<text text-anchor="middle" x="306.5" y="-395.8" font-family="Times,serif" font-size="14.00">UCO documentation</text>
<text text-anchor="middle" x="306.5" y="-380.8" font-family="Times,serif" font-size="14.00">regenerated</text>
</a>
</g>
</g>
<!-- _GH__CASEWORK__ONTOLOGY_CASEONTOLOGY_ORG -->
<g id="node9" class="node">
<title>_GH__CASEWORK__ONTOLOGY_CASEONTOLOGY_ORG</title>
<g id="a_node9"><a xlink:href="https://github.com/casework/ontology.caseontology.org" xlink:title="CASE documentation\nregenerated">
<path fill="#8ec7d2" stroke="#0d6986" d="M605,-465C605,-465 493,-465 493,-465 487,-465 481,-459 481,-453 481,-453 481,-439 481,-439 481,-433 487,-427 493,-427 493,-427 605,-427 605,-427 611,-427 617,-433 617,-439 617,-439 617,-453 617,-453 617,-459 611,-465 605,-465"/>
<text text-anchor="middle" x="549" y="-449.8" font-family="Times,serif" font-size="14.00">CASE documentation</text>
<text text-anchor="middle" x="549" y="-434.8" font-family="Times,serif" font-size="14.00">regenerated</text>
</a>
</g>
</g>
<!-- _GH__UCOPROJECT__ONTOLOGY_UNIFIEDCYBERONTOLOGY_ORG&#45;&gt;_GH__CASEWORK__ONTOLOGY_CASEONTOLOGY_ORG -->
<g id="edge23" class="edge">
<title>_GH__UCOPROJECT__ONTOLOGY_UNIFIEDCYBERONTOLOGY_ORG&#45;&gt;_GH__CASEWORK__ONTOLOGY_CASEONTOLOGY_ORG</title>
<path fill="none" stroke="black" d="M371.95,-406.47C402.2,-413.26 438.51,-421.42 470.27,-428.55"/>
<polygon fill="black" stroke="black" points="469.33,-432.15 479.85,-430.92 470.86,-425.32 469.33,-432.15"/>
<text text-anchor="middle" x="427.5" y="-443.8" font-family="Times,serif" font-size="14.00">Tech&#45;</text>
<text text-anchor="middle" x="427.5" y="-428.8" font-family="Times,serif" font-size="14.00">check</text>
</g>
<!-- _GH__UCOPROJECT__UCO -->
<g id="node4" class="node">
<title>_GH__UCOPROJECT__UCO</title>
<g id="a_node4"><a xlink:href="https://github.com/ucoProject/UCO" xlink:title="UCO Ontology\nreleases">
<path fill="#8ec7d2" stroke="#0d6986" d="M122,-411C122,-411 46,-411 46,-411 40,-411 34,-405 34,-399 34,-399 34,-385 34,-385 34,-379 40,-373 46,-373 46,-373 122,-373 122,-373 128,-373 134,-379 134,-385 134,-385 134,-399 134,-399 134,-405 128,-411 122,-411"/>
<text text-anchor="middle" x="84" y="-395.8" font-family="Times,serif" font-size="14.00">UCO Ontology</text>
<text text-anchor="middle" x="84" y="-380.8" font-family="Times,serif" font-size="14.00">releases</text>
</a>
</g>
</g>
<!-- _GH__UCOPROJECT__UCO&#45;&gt;_GH__UCOPROJECT__ONTOLOGY_UNIFIEDCYBERONTOLOGY_ORG -->
<g id="edge25" class="edge">
<title>_GH__UCOPROJECT__UCO&#45;&gt;_GH__UCOPROJECT__ONTOLOGY_UNIFIEDCYBERONTOLOGY_ORG</title>
<path fill="none" stroke="black" d="M134.48,-392C162.65,-392 198.52,-392 230.12,-392"/>
<polygon fill="black" stroke="black" points="230.1,-395.5 240.1,-392 230.1,-388.5 230.1,-395.5"/>
<text text-anchor="middle" x="198.5" y="-410.8" font-family="Times,serif" font-size="14.00">Git sub&#45;</text>
<text text-anchor="middle" x="198.5" y="-395.8" font-family="Times,serif" font-size="14.00">module</text>
</g>
<!-- _GH__UCOPROJECT__UCO_PROFILE_EXAMPLE -->
<g id="node6" class="node">
<title>_GH__UCOPROJECT__UCO_PROFILE_EXAMPLE</title>
<g id="a_node6"><a xlink:href="https://github.com/ucoProject/UCO-Profile-Example" xlink:title="UCO example profile\nupdates">
<path fill="#8ec7d2" stroke="#0d6986" d="M362,-355C362,-355 251,-355 251,-355 245,-355 239,-349 239,-343 239,-343 239,-329 239,-329 239,-323 245,-317 251,-317 251,-317 362,-317 362,-317 368,-317 374,-323 374,-329 374,-329 374,-343 374,-343 374,-349 368,-355 362,-355"/>
<text text-anchor="middle" x="306.5" y="-339.8" font-family="Times,serif" font-size="14.00">UCO example profile</text>
<text text-anchor="middle" x="306.5" y="-324.8" font-family="Times,serif" font-size="14.00">updates</text>
</a>
</g>
</g>
<!-- _GH__UCOPROJECT__UCO&#45;&gt;_GH__UCOPROJECT__UCO_PROFILE_EXAMPLE -->
<g id="edge26" class="edge">
<title>_GH__UCOPROJECT__UCO&#45;&gt;_GH__UCOPROJECT__UCO_PROFILE_EXAMPLE</title>
<path fill="none" stroke="black" d="M131.68,-372.63C145.74,-367.32 161.34,-361.95 176,-358 192.69,-353.51 210.84,-349.75 228.13,-346.68"/>
<polygon fill="black" stroke="black" points="228.5,-350 237.76,-344.86 227.32,-343.1 228.5,-350"/>
<text text-anchor="middle" x="198.5" y="-376.8" font-family="Times,serif" font-size="14.00">Git sub&#45;</text>
<text text-anchor="middle" x="198.5" y="-361.8" font-family="Times,serif" font-size="14.00">module</text>
</g>
<!-- _GH__CASEWORK__CASE -->
<g id="node8" class="node">
<title>_GH__CASEWORK__CASE</title>
<g id="a_node8"><a xlink:href="https://github.com/casework/CASE" xlink:title="CASE Ontology\nreleases">
<path fill="#8ec7d2" stroke="#0d6986" d="M347.5,-772C347.5,-772 265.5,-772 265.5,-772 259.5,-772 253.5,-766 253.5,-760 253.5,-760 253.5,-746 253.5,-746 253.5,-740 259.5,-734 265.5,-734 265.5,-734 347.5,-734 347.5,-734 353.5,-734 359.5,-740 359.5,-746 359.5,-746 359.5,-760 359.5,-760 359.5,-766 353.5,-772 347.5,-772"/>
<text text-anchor="middle" x="306.5" y="-756.8" font-family="Times,serif" font-size="14.00">CASE Ontology</text>
<text text-anchor="middle" x="306.5" y="-741.8" font-family="Times,serif" font-size="14.00">releases</text>
</a>
</g>
</g>
<!-- _GH__UCOPROJECT__UCO&#45;&gt;_GH__CASEWORK__CASE -->
<g id="edge24" class="edge">
<title>_GH__UCOPROJECT__UCO&#45;&gt;_GH__CASEWORK__CASE</title>
<path fill="none" stroke="black" d="M88.27,-411.17C99,-468.2 138.35,-638.44 239,-730 240.56,-731.42 242.21,-732.75 243.93,-734"/>
<polygon fill="black" stroke="black" points="241.71,-737.35 252.06,-739.59 245.36,-731.38 241.71,-737.35"/>
<text text-anchor="middle" x="198.5" y="-726.8" font-family="Times,serif" font-size="14.00">Git sub&#45;</text>
<text text-anchor="middle" x="198.5" y="-711.8" font-family="Times,serif" font-size="14.00">module</text>
</g>
<!-- _GH__UCOPROJECT__UCO_PROFILE_BFO -->
<g id="node5" class="node">
<title>_GH__UCOPROJECT__UCO_PROFILE_BFO</title>
<g id="a_node5"><a xlink:href="https://github.com/ucoProject/UCO-Profile-BFO" xlink:title="UCO BFO profile\nupdates">
<path fill="#8ec7d2" stroke="#0d6986" d="M594.5,-404C594.5,-404 503.5,-404 503.5,-404 497.5,-404 491.5,-398 491.5,-392 491.5,-392 491.5,-378 491.5,-378 491.5,-372 497.5,-366 503.5,-366 503.5,-366 594.5,-366 594.5,-366 600.5,-366 606.5,-372 606.5,-378 606.5,-378 606.5,-392 606.5,-392 606.5,-398 600.5,-404 594.5,-404"/>
<text text-anchor="middle" x="549" y="-388.8" font-family="Times,serif" font-size="14.00">UCO BFO profile</text>
<text text-anchor="middle" x="549" y="-373.8" font-family="Times,serif" font-size="14.00">updates</text>
</a>
</g>
</g>
<!-- _GH__UCOPROJECT__UCO_PROFILE_EXAMPLE&#45;&gt;_GH__UCOPROJECT__UCO_PROFILE_BFO -->
<g id="edge27" class="edge">
<title>_GH__UCOPROJECT__UCO_PROFILE_EXAMPLE&#45;&gt;_GH__UCOPROJECT__UCO_PROFILE_BFO</title>
<path fill="none" stroke="black" d="M374.23,-354.83C380.22,-356.32 386.21,-357.73 392,-359 420.77,-365.3 452.82,-370.88 480.35,-375.24"/>
<polygon fill="black" stroke="black" points="479.63,-378.83 490.05,-376.92 480.71,-371.92 479.63,-378.83"/>
<text text-anchor="middle" x="427.5" y="-389.8" font-family="Times,serif" font-size="14.00">Git merge of</text>
<text text-anchor="middle" x="427.5" y="-374.8" font-family="Times,serif" font-size="14.00">base branch</text>
</g>
<!-- _GH__UCOPROJECT__UCO_PROFILE_FOAF -->
<g id="node7" class="node">
<title>_GH__UCOPROJECT__UCO_PROFILE_FOAF</title>
<g id="a_node7"><a xlink:href="https://github.com/ucoProject/UCO-Profile-FOAF" xlink:title="UCO FOAF profile\nupdates">
<path fill="#8ec7d2" stroke="#0d6986" d="M598.5,-348C598.5,-348 499.5,-348 499.5,-348 493.5,-348 487.5,-342 487.5,-336 487.5,-336 487.5,-322 487.5,-322 487.5,-316 493.5,-310 499.5,-310 499.5,-310 598.5,-310 598.5,-310 604.5,-310 610.5,-316 610.5,-322 610.5,-322 610.5,-336 610.5,-336 610.5,-342 604.5,-348 598.5,-348"/>
<text text-anchor="middle" x="549" y="-332.8" font-family="Times,serif" font-size="14.00">UCO FOAF profile</text>
<text text-anchor="middle" x="549" y="-317.8" font-family="Times,serif" font-size="14.00">updates</text>
</a>
</g>
</g>
<!-- _GH__UCOPROJECT__UCO_PROFILE_EXAMPLE&#45;&gt;_GH__UCOPROJECT__UCO_PROFILE_FOAF -->
<g id="edge28" class="edge">
<title>_GH__UCOPROJECT__UCO_PROFILE_EXAMPLE&#45;&gt;_GH__UCOPROJECT__UCO_PROFILE_FOAF</title>
<path fill="none" stroke="black" d="M374.35,-329.95C380.31,-329.56 386.26,-329.24 392,-329 419.59,-327.86 449.95,-327.63 476.49,-327.76"/>
<polygon fill="black" stroke="black" points="476.2,-331.27 486.23,-327.84 476.25,-324.27 476.2,-331.27"/>
<text text-anchor="middle" x="427.5" y="-347.8" font-family="Times,serif" font-size="14.00">Git merge of</text>
<text text-anchor="middle" x="427.5" y="-332.8" font-family="Times,serif" font-size="14.00">base branch</text>
</g>
<!-- _GH__CASEWORK__CASE&#45;&gt;_GH__CASEWORK__ONTOLOGY_CASEONTOLOGY_ORG -->
<g id="edge4" class="edge">
<title>_GH__CASEWORK__CASE&#45;&gt;_GH__CASEWORK__ONTOLOGY_CASEONTOLOGY_ORG</title>
<path fill="none" stroke="black" d="M359.87,-739.79C395.93,-727.64 441.13,-705.64 463,-668 483.74,-632.31 457.79,-521.18 478.6,-474.78"/>
<polygon fill="black" stroke="black" points="482.06,-476.81 484.17,-466.43 476.05,-473.23 482.06,-476.81"/>
<text text-anchor="middle" x="427.5" y="-743.8" font-family="Times,serif" font-size="14.00">Git sub&#45;</text>
<text text-anchor="middle" x="427.5" y="-728.8" font-family="Times,serif" font-size="14.00">module</text>
</g>
<!-- _GH__CASEWORK__CASE_UTILITIES_PYTHON -->
<g id="node14" class="node">
<title>_GH__CASEWORK__CASE_UTILITIES_PYTHON</title>
<g id="a_node14"><a xlink:href="https://github.com/casework/CASE-Utilities-Python" xlink:title="case&#45;utils\nreleases">
<path fill="#8ec7d2" stroke="#0d6986" d="M571,-909C571,-909 527,-909 527,-909 521,-909 515,-903 515,-897 515,-897 515,-883 515,-883 515,-877 521,-871 527,-871 527,-871 571,-871 571,-871 577,-871 583,-877 583,-883 583,-883 583,-897 583,-897 583,-903 577,-909 571,-909"/>
<text text-anchor="middle" x="549" y="-893.8" font-family="Times,serif" font-size="14.00">case&#45;utils</text>
<text text-anchor="middle" x="549" y="-878.8" font-family="Times,serif" font-size="14.00">releases</text>
</a>
</g>
</g>
<!-- _GH__CASEWORK__CASE&#45;&gt;_GH__CASEWORK__CASE_UTILITIES_PYTHON -->
<g id="edge2" class="edge">
<title>_GH__CASEWORK__CASE&#45;&gt;_GH__CASEWORK__CASE_UTILITIES_PYTHON</title>
<path fill="none" stroke="black" d="M332.45,-772.31C365.12,-796.89 424.86,-839.46 481,-867 488.37,-870.61 496.45,-873.91 504.37,-876.8"/>
<polygon fill="black" stroke="black" points="503.03,-880.39 513.62,-880.37 505.33,-873.78 503.03,-880.39"/>
<text text-anchor="middle" x="427.5" y="-874.8" font-family="Times,serif" font-size="14.00">Git sub&#45;</text>
<text text-anchor="middle" x="427.5" y="-859.8" font-family="Times,serif" font-size="14.00">module</text>
</g>
<!-- _GH__CIPHERTECHSOLUTIONS__CASE_BINDINGS_CSHARP -->
<g id="node24" class="node">
<title>_GH__CIPHERTECHSOLUTIONS__CASE_BINDINGS_CSHARP</title>
<g id="a_node24"><a xlink:href="https://github.com/ciphertechsolutions/CASE-Bindings-CSharp" xlink:title="CASE&#45;Bindings&#45;CSharp\nadopts new ontology version">
<path fill="#8ec7d2" stroke="#0d6986" d="M859.5,-889C859.5,-889 710.5,-889 710.5,-889 704.5,-889 698.5,-883 698.5,-877 698.5,-877 698.5,-863 698.5,-863 698.5,-857 704.5,-851 710.5,-851 710.5,-851 859.5,-851 859.5,-851 865.5,-851 871.5,-857 871.5,-863 871.5,-863 871.5,-877 871.5,-877 871.5,-883 865.5,-889 859.5,-889"/>
<text text-anchor="middle" x="785" y="-873.8" font-family="Times,serif" font-size="14.00">CASE&#45;Bindings&#45;CSharp</text>
<text text-anchor="middle" x="785" y="-858.8" font-family="Times,serif" font-size="14.00">adopts new ontology version</text>
</a>
</g>
</g>
<!-- _GH__CASEWORK__CASE&#45;&gt;_GH__CIPHERTECHSOLUTIONS__CASE_BINDINGS_CSHARP -->
<g id="edge3" class="edge">
<title>_GH__CASEWORK__CASE&#45;&gt;_GH__CIPHERTECHSOLUTIONS__CASE_BINDINGS_CSHARP</title>
<path fill="none" stroke="black" d="M309.48,-772.23C317.23,-836.25 351.78,-1042.68 481,-1125 548.85,-1168.22 602.96,-1179.64 662,-1125 699.95,-1089.88 646.09,-932.04 680,-893 682.71,-889.89 685.73,-887.14 689,-884.72"/>
<polygon fill="black" stroke="black" points="690.49,-887.29 697.16,-879.05 686.81,-881.34 690.49,-887.29"/>
</g>
<!-- _GH__AJNELSON_NIST__CASE_EXAMPLES_QC -->
<g id="node10" class="node">
<title>_GH__AJNELSON_NIST__CASE_EXAMPLES_QC</title>
<g id="a_node10"><a xlink:href="https://github.com/ajnelson-nist/CASE-Examples-QC" xlink:title="CASE&#45;Examples&#45;QC\nadopts CASE&#45;Examples and\nCASE website updates">
<path fill="#8ec7d2" stroke="#0d6986" d="M1213,-1073.5C1213,-1073.5 1065,-1073.5 1065,-1073.5 1059,-1073.5 1053,-1067.5 1053,-1061.5 1053,-1061.5 1053,-1032.5 1053,-1032.5 1053,-1026.5 1059,-1020.5 1065,-1020.5 1065,-1020.5 1213,-1020.5 1213,-1020.5 1219,-1020.5 1225,-1026.5 1225,-1032.5 1225,-1032.5 1225,-1061.5 1225,-1061.5 1225,-1067.5 1219,-1073.5 1213,-1073.5"/>
<text text-anchor="middle" x="1139" y="-1058.3" font-family="Times,serif" font-size="14.00">CASE&#45;Examples&#45;QC</text>
<text text-anchor="middle" x="1139" y="-1043.3" font-family="Times,serif" font-size="14.00">adopts CASE&#45;Examples and</text>
<text text-anchor="middle" x="1139" y="-1028.3" font-family="Times,serif" font-size="14.00">CASE website updates</text>
</a>
</g>
</g>
<!-- _GH__CASEWORK__CASE_IMPLEMENTATON_PROV_O -->
<g id="node17" class="node">
<title>_GH__CASEWORK__CASE_IMPLEMENTATON_PROV_O</title>
<g id="a_node17"><a xlink:href="https://github.com/casework/CASE-Implementation-PROV-O" xlink:title="case&#45;prov\nreleases">
<path fill="#8ec7d2" stroke="#0d6986" d="M1411,-1088C1411,-1088 1366,-1088 1366,-1088 1360,-1088 1354,-1082 1354,-1076 1354,-1076 1354,-1062 1354,-1062 1354,-1056 1360,-1050 1366,-1050 1366,-1050 1411,-1050 1411,-1050 1417,-1050 1423,-1056 1423,-1062 1423,-1062 1423,-1076 1423,-1076 1423,-1082 1417,-1088 1411,-1088"/>
<text text-anchor="middle" x="1388.5" y="-1072.8" font-family="Times,serif" font-size="14.00">case&#45;prov</text>
<text text-anchor="middle" x="1388.5" y="-1057.8" font-family="Times,serif" font-size="14.00">releases</text>
</a>
</g>
</g>
<!-- _GH__AJNELSON_NIST__CASE_EXAMPLES_QC&#45;&gt;_GH__CASEWORK__CASE_IMPLEMENTATON_PROV_O -->
<g id="edge1" class="edge">
<title>_GH__AJNELSON_NIST__CASE_EXAMPLES_QC&#45;&gt;_GH__CASEWORK__CASE_IMPLEMENTATON_PROV_O</title>
<path fill="none" stroke="black" d="M1225.18,-1054.57C1264.87,-1058.1 1310.46,-1062.15 1343.19,-1065.06"/>
<polygon fill="black" stroke="black" points="1342.5,-1068.6 1352.77,-1066 1343.12,-1061.63 1342.5,-1068.6"/>
<text text-anchor="middle" x="1313.5" y="-1082.8" font-family="Times,serif" font-size="14.00">Git sub&#45;</text>
<text text-anchor="middle" x="1313.5" y="-1067.8" font-family="Times,serif" font-size="14.00">module</text>
</g>
<!-- _GH__CASEWORK__CASE_EXAMPLES -->
<g id="node11" class="node">
<title>_GH__CASEWORK__CASE_EXAMPLES</title>
<g id="a_node11"><a xlink:href="https://github.com/casework/CASE-Examples" xlink:title="CASE&#45;Examples\nadopts new case&#45;utils">
<path fill="#8ec7d2" stroke="#0d6986" d="M839.5,-997C839.5,-997 730.5,-997 730.5,-997 724.5,-997 718.5,-991 718.5,-985 718.5,-985 718.5,-971 718.5,-971 718.5,-965 724.5,-959 730.5,-959 730.5,-959 839.5,-959 839.5,-959 845.5,-959 851.5,-965 851.5,-971 851.5,-971 851.5,-985 851.5,-985 851.5,-991 845.5,-997 839.5,-997"/>
<text text-anchor="middle" x="785" y="-981.8" font-family="Times,serif" font-size="14.00">CASE&#45;Examples</text>
<text text-anchor="middle" x="785" y="-966.8" font-family="Times,serif" font-size="14.00">adopts new case&#45;utils</text>
</a>
</g>
</g>
<!-- _GH__CASEWORK__CASE_EXAMPLES&#45;&gt;_GH__AJNELSON_NIST__CASE_EXAMPLES_QC -->
<g id="edge5" class="edge">
<title>_GH__CASEWORK__CASE_EXAMPLES&#45;&gt;_GH__AJNELSON_NIST__CASE_EXAMPLES_QC</title>
<path fill="none" stroke="black" d="M851.58,-983.99C891.06,-988.22 942.2,-994.78 987,-1004 1005.05,-1007.72 1024.1,-1012.47 1042.36,-1017.45"/>
<polygon fill="black" stroke="black" points="1041.13,-1021.02 1051.7,-1020.32 1043,-1014.27 1041.13,-1021.02"/>
<text text-anchor="middle" x="947.5" y="-1022.8" font-family="Times,serif" font-size="14.00">Git sub&#45;</text>
<text text-anchor="middle" x="947.5" y="-1007.8" font-family="Times,serif" font-size="14.00">module</text>
</g>
<!-- _GH__CASEWORK__CASE_IMPLEMENTATON_EXIFTOOL -->
<g id="node12" class="node">
<title>_GH__CASEWORK__CASE_IMPLEMENTATON_EXIFTOOL</title>
<g id="a_node12"><a xlink:href="https://github.com/casework/CASE-Implementation-ExifTool" xlink:title="CASE&#45;Implementation&#45;ExifTool\nadopts new case&#45;utils">
<path fill="#8ec7d2" stroke="#0d6986" d="M871,-519C871,-519 699,-519 699,-519 693,-519 687,-513 687,-507 687,-507 687,-493 687,-493 687,-487 693,-481 699,-481 699,-481 871,-481 871,-481 877,-481 883,-487 883,-493 883,-493 883,-507 883,-507 883,-513 877,-519 871,-519"/>
<text text-anchor="middle" x="785" y="-503.8" font-family="Times,serif" font-size="14.00">CASE&#45;Implementation&#45;ExifTool</text>
<text text-anchor="middle" x="785" y="-488.8" font-family="Times,serif" font-size="14.00">adopts new case&#45;utils</text>
</a>
</g>
</g>
<!-- _GH__CASEWORK__CASE_IMPLEMENTATON_GNU_TIME -->
<g id="node13" class="node">
<title>_GH__CASEWORK__CASE_IMPLEMENTATON_GNU_TIME</title>
<g id="a_node13"><a xlink:href="https://github.com/casework/CASE-Implementation-GNU-Time" xlink:title="CASE&#45;Implementation&#45;GNU&#45;Time\nadopts new case&#45;utils">
<path fill="#8ec7d2" stroke="#0d6986" d="M878,-575C878,-575 692,-575 692,-575 686,-575 680,-569 680,-563 680,-563 680,-549 680,-549 680,-543 686,-537 692,-537 692,-537 878,-537 878,-537 884,-537 890,-543 890,-549 890,-549 890,-563 890,-563 890,-569 884,-575 878,-575"/>
<text text-anchor="middle" x="785" y="-559.8" font-family="Times,serif" font-size="14.00">CASE&#45;Implementation&#45;GNU&#45;Time</text>
<text text-anchor="middle" x="785" y="-544.8" font-family="Times,serif" font-size="14.00">adopts new case&#45;utils</text>
</a>
</g>
</g>
<!-- _GH__CASEWORK__CASE_UTILITIES_PYTHON&#45;&gt;_GH__AJNELSON_NIST__CASE_EXAMPLES_QC -->
<g id="edge7" class="edge">
<title>_GH__CASEWORK__CASE_UTILITIES_PYTHON&#45;&gt;_GH__AJNELSON_NIST__CASE_EXAMPLES_QC</title>
<path fill="none" stroke="black" d="M557.42,-909.26C573.21,-947.15 614.2,-1030.42 680,-1062 803.12,-1121.09 851.01,-1087.5 987,-1075 1004.87,-1073.36 1023.77,-1070.64 1041.94,-1067.54"/>
<polygon fill="black" stroke="black" points="1042.3,-1070.85 1051.54,-1065.66 1041.08,-1063.96 1042.3,-1070.85"/>
<text text-anchor="middle" x="785" y="-1098.8" font-family="Times,serif" font-size="14.00">PyPI</text>
</g>
<!-- _GH__CASEWORK__CASE_UTILITIES_PYTHON&#45;&gt;_GH__CASEWORK__CASE_EXAMPLES -->
<g id="edge8" class="edge">
<title>_GH__CASEWORK__CASE_UTILITIES_PYTHON&#45;&gt;_GH__CASEWORK__CASE_EXAMPLES</title>
<path fill="none" stroke="black" d="M583.03,-902.42C619.03,-915.96 677.44,-937.93 722.04,-954.7"/>
<polygon fill="black" stroke="black" points="720.6,-958.27 731.19,-958.52 723.06,-951.72 720.6,-958.27"/>
<text text-anchor="middle" x="648.5" y="-934.8" font-family="Times,serif" font-size="14.00">PyPI</text>
</g>
<!-- _GH__CASEWORK__CASE_UTILITIES_PYTHON&#45;&gt;_GH__CASEWORK__CASE_IMPLEMENTATON_EXIFTOOL -->
<g id="edge9" class="edge">
<title>_GH__CASEWORK__CASE_UTILITIES_PYTHON&#45;&gt;_GH__CASEWORK__CASE_IMPLEMENTATON_EXIFTOOL</title>
<path fill="none" stroke="black" d="M583.16,-886.38C595.7,-883.26 608.89,-877.52 617,-867 650.46,-823.58 620.81,-673.94 635,-621 646.89,-576.65 644.63,-557.28 680,-528 681.09,-527.09 682.21,-526.22 683.36,-525.37"/>
<polygon fill="black" stroke="black" points="685.08,-527.78 691.56,-519.4 681.27,-521.91 685.08,-527.78"/>
<text text-anchor="middle" x="648.5" y="-624.8" font-family="Times,serif" font-size="14.00">PyPI</text>
</g>
<!-- _GH__CASEWORK__CASE_UTILITIES_PYTHON&#45;&gt;_GH__CASEWORK__CASE_IMPLEMENTATON_GNU_TIME -->
<g id="edge10" class="edge">
<title>_GH__CASEWORK__CASE_UTILITIES_PYTHON&#45;&gt;_GH__CASEWORK__CASE_IMPLEMENTATON_GNU_TIME</title>
<path fill="none" stroke="black" d="M583.47,-885.5C595.6,-882.24 608.41,-876.64 617,-867 637.21,-844.31 654.23,-635.8 678.32,-584.29"/>
<polygon fill="black" stroke="black" points="681.65,-586.58 684.08,-576.27 675.75,-582.81 681.65,-586.58"/>
<text text-anchor="middle" x="648.5" y="-801.8" font-family="Times,serif" font-size="14.00">PyPI</text>
</g>
<!-- _GH__CASEWORK__CASEWORK_GITHUB_IO -->
<g id="node15" class="node">
<title>_GH__CASEWORK__CASEWORK_GITHUB_IO</title>
<g id="a_node15"><a xlink:href="https://github.com/casework/casework.github.io" xlink:title="CASE website\nadopts new case&#45;utils">
<path fill="#8ec7d2" stroke="#0d6986" d="M839.5,-1053C839.5,-1053 730.5,-1053 730.5,-1053 724.5,-1053 718.5,-1047 718.5,-1041 718.5,-1041 718.5,-1027 718.5,-1027 718.5,-1021 724.5,-1015 730.5,-1015 730.5,-1015 839.5,-1015 839.5,-1015 845.5,-1015 851.5,-1021 851.5,-1027 851.5,-1027 851.5,-1041 851.5,-1041 851.5,-1047 845.5,-1053 839.5,-1053"/>
<text text-anchor="middle" x="785" y="-1037.8" font-family="Times,serif" font-size="14.00">CASE website</text>
<text text-anchor="middle" x="785" y="-1022.8" font-family="Times,serif" font-size="14.00">adopts new case&#45;utils</text>
</a>
</g>
</g>
<!-- _GH__CASEWORK__CASE_UTILITIES_PYTHON&#45;&gt;_GH__CASEWORK__CASEWORK_GITHUB_IO -->
<g id="edge13" class="edge">
<title>_GH__CASEWORK__CASE_UTILITIES_PYTHON&#45;&gt;_GH__CASEWORK__CASEWORK_GITHUB_IO</title>
<path fill="none" stroke="black" d="M566.43,-909.48C589.29,-935.34 633.17,-980.67 680,-1006 688.64,-1010.67 698.1,-1014.6 707.7,-1017.9"/>
<polygon fill="black" stroke="black" points="706.54,-1021.53 717.13,-1021.24 708.67,-1014.86 706.54,-1021.53"/>
<text text-anchor="middle" x="648.5" y="-996.8" font-family="Times,serif" font-size="14.00">PyPI</text>
</g>
<!-- _GH__CASEWORK__CASE_UTILITIES_PYTHON&#45;&gt;_GH__CASEWORK__CASE_IMPLEMENTATON_PROV_O -->
<g id="edge11" class="edge">
<title>_GH__CASEWORK__CASE_UTILITIES_PYTHON&#45;&gt;_GH__CASEWORK__CASE_IMPLEMENTATON_PROV_O</title>
<path fill="none" stroke="black" d="M554.09,-909.24C565.02,-955.15 599.74,-1070.52 680,-1114 746.98,-1150.28 1149.71,-1150.43 1336,-1098 1340.33,-1096.78 1344.69,-1095.13 1348.95,-1093.22"/>
<polygon fill="black" stroke="black" points="1350.21,-1096.01 1357.6,-1088.42 1347.09,-1089.74 1350.21,-1096.01"/>
<text text-anchor="middle" x="947.5" y="-1142.8" font-family="Times,serif" font-size="14.00">PyPI</text>
</g>
<!-- _GH__KCHASON__CASE_VALIDATION_ACTION -->
<g id="node22" class="node">
<title>_GH__KCHASON__CASE_VALIDATION_ACTION</title>
<g id="a_node22"><a xlink:href="https://github.com/kchason/case-validation-action" xlink:title="case&#45;validation&#45;action\nreleases">
<path fill="#8ec7d2" stroke="#0d6986" d="M841,-708C841,-708 729,-708 729,-708 723,-708 717,-702 717,-696 717,-696 717,-682 717,-682 717,-676 723,-670 729,-670 729,-670 841,-670 841,-670 847,-670 853,-676 853,-682 853,-682 853,-696 853,-696 853,-702 847,-708 841,-708"/>
<text text-anchor="middle" x="785" y="-692.8" font-family="Times,serif" font-size="14.00">case&#45;validation&#45;action</text>
<text text-anchor="middle" x="785" y="-677.8" font-family="Times,serif" font-size="14.00">releases</text>
</a>
</g>
</g>
<!-- _GH__CASEWORK__CASE_UTILITIES_PYTHON&#45;&gt;_GH__KCHASON__CASE_VALIDATION_ACTION -->
<g id="edge12" class="edge">
<title>_GH__CASEWORK__CASE_UTILITIES_PYTHON&#45;&gt;_GH__KCHASON__CASE_VALIDATION_ACTION</title>
<path fill="none" stroke="black" d="M583.5,-882.01C594.69,-878.45 606.88,-873.54 617,-867 680.41,-826 736.47,-755.82 764.68,-716.96"/>
<polygon fill="black" stroke="black" points="767.94,-719.42 770.92,-709.25 762.25,-715.34 767.94,-719.42"/>
<text text-anchor="middle" x="648.5" y="-854.8" font-family="Times,serif" font-size="14.00">PyPI</text>
</g>
<!-- _GH__CASEWORK__CASEWORK_GITHUB_IO&#45;&gt;_GH__AJNELSON_NIST__CASE_EXAMPLES_QC -->
<g id="edge14" class="edge">
<title>_GH__CASEWORK__CASEWORK_GITHUB_IO&#45;&gt;_GH__AJNELSON_NIST__CASE_EXAMPLES_QC</title>
<path fill="none" stroke="black" d="M851.8,-1036.43C905.29,-1038.41 981.53,-1041.22 1041.86,-1043.45"/>
<polygon fill="black" stroke="black" points="1041.43,-1046.97 1051.55,-1043.84 1041.69,-1039.98 1041.43,-1046.97"/>
<text text-anchor="middle" x="947.5" y="-1059.8" font-family="Times,serif" font-size="14.00">Git sub&#45;</text>
<text text-anchor="middle" x="947.5" y="-1044.8" font-family="Times,serif" font-size="14.00">module</text>
</g>
<!-- _GH__CASEWORK__CASE_CORPORA -->
<g id="node16" class="node">
<title>_GH__CASEWORK__CASE_CORPORA</title>
<g id="a_node16"><a xlink:href="https://github.com/casework/CASE-Corpora" xlink:title="CASE&#45;Corpora\nadopts new case&#45;prov">
<path fill="#8ec7d2" stroke="#0d6986" d="M1608,-1088C1608,-1088 1498,-1088 1498,-1088 1492,-1088 1486,-1082 1486,-1076 1486,-1076 1486,-1062 1486,-1062 1486,-1056 1492,-1050 1498,-1050 1498,-1050 1608,-1050 1608,-1050 1614,-1050 1620,-1056 1620,-1062 1620,-1062 1620,-1076 1620,-1076 1620,-1082 1614,-1088 1608,-1088"/>
<text text-anchor="middle" x="1553" y="-1072.8" font-family="Times,serif" font-size="14.00">CASE&#45;Corpora</text>
<text text-anchor="middle" x="1553" y="-1057.8" font-family="Times,serif" font-size="14.00">adopts new case&#45;prov</text>
</a>
</g>
</g>
<!-- _GH__CASEWORK__CASE_IMPLEMENTATON_PROV_O&#45;&gt;_GH__CASEWORK__CASE_CORPORA -->
<g id="edge6" class="edge">
<title>_GH__CASEWORK__CASE_IMPLEMENTATON_PROV_O&#45;&gt;_GH__CASEWORK__CASE_CORPORA</title>
<path fill="none" stroke="black" d="M1423.17,-1069C1438.18,-1069 1456.52,-1069 1474.62,-1069"/>
<polygon fill="black" stroke="black" points="1474.51,-1072.5 1484.51,-1069 1474.51,-1065.5 1474.51,-1072.5"/>
<text text-anchor="middle" x="1454.5" y="-1072.8" font-family="Times,serif" font-size="14.00">PyPI</text>
</g>
<!-- _GH__CASEWORK__CASE_IMPLEMENTATON_PYPI_PILLOW -->
<g id="node18" class="node">
<title>_GH__CASEWORK__CASE_IMPLEMENTATON_PYPI_PILLOW</title>
<g id="a_node18"><a xlink:href="https://github.com/casework/CASE-Implementation-PyPI-Pillow" xlink:title="CASE&#45;Implementation&#45;PyPI&#45;Pillow\nadopts new case&#45;validation&#45;action">
<path fill="#8ec7d2" stroke="#0d6986" d="M1233.5,-741C1233.5,-741 1044.5,-741 1044.5,-741 1038.5,-741 1032.5,-735 1032.5,-729 1032.5,-729 1032.5,-715 1032.5,-715 1032.5,-709 1038.5,-703 1044.5,-703 1044.5,-703 1233.5,-703 1233.5,-703 1239.5,-703 1245.5,-709 1245.5,-715 1245.5,-715 1245.5,-729 1245.5,-729 1245.5,-735 1239.5,-741 1233.5,-741"/>
<text text-anchor="middle" x="1139" y="-725.8" font-family="Times,serif" font-size="14.00">CASE&#45;Implementation&#45;PyPI&#45;Pillow</text>
<text text-anchor="middle" x="1139" y="-710.8" font-family="Times,serif" font-size="14.00">adopts new case&#45;validation&#45;action</text>
</a>
</g>
</g>
<!-- _GH__CASEWORK__CASE_IMPLEMENTATON_UFED_XML -->
<g id="node19" class="node">
<title>_GH__CASEWORK__CASE_IMPLEMENTATON_UFED_XML</title>
<g id="a_node19"><a xlink:href="https://github.com/casework/CASE-Implementation-UFED-XML" xlink:title="CASE&#45;Implementation&#45;UFED&#45;XML\nadopts new case&#45;validation&#45;action">
<path fill="#8ec7d2" stroke="#0d6986" d="M1236,-797C1236,-797 1042,-797 1042,-797 1036,-797 1030,-791 1030,-785 1030,-785 1030,-771 1030,-771 1030,-765 1036,-759 1042,-759 1042,-759 1236,-759 1236,-759 1242,-759 1248,-765 1248,-771 1248,-771 1248,-785 1248,-785 1248,-791 1242,-797 1236,-797"/>
<text text-anchor="middle" x="1139" y="-781.8" font-family="Times,serif" font-size="14.00">CASE&#45;Implementation&#45;UFED&#45;XML</text>
<text text-anchor="middle" x="1139" y="-766.8" font-family="Times,serif" font-size="14.00">adopts new case&#45;validation&#45;action</text>
</a>
</g>
</g>
<!-- _GH__CASEWORK__CASE_IMPLEMENTATON_XRY -->
<g id="node20" class="node">
<title>_GH__CASEWORK__CASE_IMPLEMENTATON_XRY</title>
<g id="a_node20"><a xlink:href="https://github.com/casework/CASE-Implementation-XRY" xlink:title="CASE&#45;Implementation&#45;XRY adopts\nnew case&#45;validation&#45;action">
<path fill="#8ec7d2" stroke="#0d6986" d="M1234,-629C1234,-629 1044,-629 1044,-629 1038,-629 1032,-623 1032,-617 1032,-617 1032,-603 1032,-603 1032,-597 1038,-591 1044,-591 1044,-591 1234,-591 1234,-591 1240,-591 1246,-597 1246,-603 1246,-603 1246,-617 1246,-617 1246,-623 1240,-629 1234,-629"/>
<text text-anchor="middle" x="1139" y="-613.8" font-family="Times,serif" font-size="14.00">CASE&#45;Implementation&#45;XRY adopts</text>
<text text-anchor="middle" x="1139" y="-598.8" font-family="Times,serif" font-size="14.00">new case&#45;validation&#45;action</text>
</a>
</g>
</g>
<!-- _GH__CASEWORK__CASE_MAPPING_TEMPLATE_PYTHON -->
<g id="node21" class="node">
<title>_GH__CASEWORK__CASE_MAPPING_TEMPLATE_PYTHON</title>
<g id="a_node21"><a xlink:href="https://github.com/casework/CASE-Mapping-Template-Python" xlink:title="CASE&#45;Mapping&#45;Template&#45;Python\nadopts new case&#45;validation&#45;action">
<path fill="#8ec7d2" stroke="#0d6986" d="M1229,-685C1229,-685 1049,-685 1049,-685 1043,-685 1037,-679 1037,-673 1037,-673 1037,-659 1037,-659 1037,-653 1043,-647 1049,-647 1049,-647 1229,-647 1229,-647 1235,-647 1241,-653 1241,-659 1241,-659 1241,-673 1241,-673 1241,-679 1235,-685 1229,-685"/>
<text text-anchor="middle" x="1139" y="-669.8" font-family="Times,serif" font-size="14.00">CASE&#45;Mapping&#45;Template&#45;Python</text>
<text text-anchor="middle" x="1139" y="-654.8" font-family="Times,serif" font-size="14.00">adopts new case&#45;validation&#45;action</text>
</a>
</g>
</g>
<!-- _GH__KCHASON__CASE_VALIDATION_ACTION&#45;&gt;_GH__CASEWORK__CASE_IMPLEMENTATON_PYPI_EXIFREAD -->
<g id="edge17" class="edge">
<title>_GH__KCHASON__CASE_VALIDATION_ACTION&#45;&gt;_GH__CASEWORK__CASE_IMPLEMENTATON_PYPI_EXIFREAD</title>
<path fill="none" stroke="black" d="M853.28,-686.02C867.01,-682.4 880.23,-676.23 890,-666 922.39,-632.07 892.32,-606.21 908,-562 962.7,-407.75 1072.46,-243.46 1117.75,-179.12"/>
<polygon fill="black" stroke="black" points="1121.03,-181.55 1123.95,-171.37 1115.31,-177.5 1121.03,-181.55"/>
<text text-anchor="middle" x="947.5" y="-580.8" font-family="Times,serif" font-size="14.00">GitHub</text>
<text text-anchor="middle" x="947.5" y="-565.8" font-family="Times,serif" font-size="14.00">Action</text>
</g>
<!-- _GH__KCHASON__CASE_VALIDATION_ACTION&#45;&gt;_GH__CASEWORK__CASE_IMPLEMENTATON_PYPI_PILLOW -->
<g id="edge18" class="edge">
<title>_GH__KCHASON__CASE_VALIDATION_ACTION&#45;&gt;_GH__CASEWORK__CASE_IMPLEMENTATON_PYPI_PILLOW</title>
<path fill="none" stroke="black" d="M853.45,-695.32C900.99,-699.78 965.87,-705.86 1021.67,-711.09"/>
<polygon fill="black" stroke="black" points="1021.06,-714.65 1031.34,-712.09 1021.71,-707.68 1021.06,-714.65"/>
<text text-anchor="middle" x="947.5" y="-725.8" font-family="Times,serif" font-size="14.00">GitHub</text>
<text text-anchor="middle" x="947.5" y="-710.8" font-family="Times,serif" font-size="14.00">Action</text>
</g>
<!-- _GH__KCHASON__CASE_VALIDATION_ACTION&#45;&gt;_GH__CASEWORK__CASE_IMPLEMENTATON_UFED_XML -->
<g id="edge19" class="edge">
<title>_GH__KCHASON__CASE_VALIDATION_ACTION&#45;&gt;_GH__CASEWORK__CASE_IMPLEMENTATON_UFED_XML</title>
<path fill="none" stroke="black" d="M824.94,-708.48C848.47,-719.52 879.35,-732.73 908,-741 943.54,-751.27 983.05,-758.92 1019.15,-764.52"/>
<polygon fill="black" stroke="black" points="1018.32,-768.08 1028.73,-766.12 1019.37,-761.16 1018.32,-768.08"/>
<text text-anchor="middle" x="947.5" y="-776.8" font-family="Times,serif" font-size="14.00">GitHub</text>
<text text-anchor="middle" x="947.5" y="-761.8" font-family="Times,serif" font-size="14.00">Action</text>
</g>
<!-- _GH__KCHASON__CASE_VALIDATION_ACTION&#45;&gt;_GH__CASEWORK__CASE_IMPLEMENTATON_XRY -->
<g id="edge20" class="edge">
<title>_GH__KCHASON__CASE_VALIDATION_ACTION&#45;&gt;_GH__CASEWORK__CASE_IMPLEMENTATON_XRY</title>
<path fill="none" stroke="black" d="M853.25,-683.82C866.5,-680.26 879.53,-674.67 890,-666 905.64,-653.04 891.39,-635.69 908,-624 940.29,-601.27 981.88,-593.99 1020.8,-593.62"/>
<polygon fill="black" stroke="black" points="1020.67,-597.12 1030.69,-593.69 1020.71,-590.12 1020.67,-597.12"/>
<text text-anchor="middle" x="947.5" y="-642.8" font-family="Times,serif" font-size="14.00">GitHub</text>
<text text-anchor="middle" x="947.5" y="-627.8" font-family="Times,serif" font-size="14.00">Action</text>
</g>
<!-- _GH__KCHASON__CASE_VALIDATION_ACTION&#45;&gt;_GH__CASEWORK__CASE_MAPPING_TEMPLATE_PYTHON -->
<g id="edge21" class="edge">
<title>_GH__KCHASON__CASE_VALIDATION_ACTION&#45;&gt;_GH__CASEWORK__CASE_MAPPING_TEMPLATE_PYTHON</title>
<path fill="none" stroke="black" d="M853.33,-674.03C878.29,-668.6 902.02,-663.63 908,-663 946.22,-658.97 988.22,-658.4 1025.74,-659.25"/>
<polygon fill="black" stroke="black" points="1025.63,-662.77 1035.72,-659.54 1025.81,-655.77 1025.63,-662.77"/>
<text text-anchor="middle" x="947.5" y="-681.8" font-family="Times,serif" font-size="14.00">GitHub</text>
<text text-anchor="middle" x="947.5" y="-666.8" font-family="Times,serif" font-size="14.00">Action</text>
</g>
<!-- _GH__CASEWORK__CASE_BINDINGS_CSHARP_MONITOR -->
<g id="node23" class="node">
<title>_GH__CASEWORK__CASE_BINDINGS_CSHARP_MONITOR</title>
<g id="a_node23"><a xlink:href="https://github.com/casework/CASE-Bindings-CSharp-Monitor" xlink:title="CASE Bindings CSharp Monitor\ntests NuGet package with validation action">
<path fill="#8ec7d2" stroke="#0d6986" d="M1252.5,-889C1252.5,-889 1025.5,-889 1025.5,-889 1019.5,-889 1013.5,-883 1013.5,-877 1013.5,-877 1013.5,-863 1013.5,-863 1013.5,-857 1019.5,-851 1025.5,-851 1025.5,-851 1252.5,-851 1252.5,-851 1258.5,-851 1264.5,-857 1264.5,-863 1264.5,-863 1264.5,-877 1264.5,-877 1264.5,-883 1258.5,-889 1252.5,-889"/>
<text text-anchor="middle" x="1139" y="-873.8" font-family="Times,serif" font-size="14.00">CASE Bindings CSharp Monitor</text>
<text text-anchor="middle" x="1139" y="-858.8" font-family="Times,serif" font-size="14.00">tests NuGet package with validation action</text>
</a>
</g>
</g>
<!-- _GH__KCHASON__CASE_VALIDATION_ACTION&#45;&gt;_GH__CASEWORK__CASE_BINDINGS_CSHARP_MONITOR -->
<g id="edge16" class="edge">
<title>_GH__KCHASON__CASE_VALIDATION_ACTION&#45;&gt;_GH__CASEWORK__CASE_BINDINGS_CSHARP_MONITOR</title>
<path fill="none" stroke="black" d="M806.08,-708.28C829.42,-730.13 869.66,-766.06 908,-792 940.93,-814.29 958.01,-806.78 987,-834 991.95,-838.64 989.36,-843.23 995,-847 997.78,-848.86 1000.67,-850.59 1003.63,-852.2"/>
<polygon fill="black" stroke="black" points="1001.81,-855.69 1012.34,-856.92 1004.88,-849.4 1001.81,-855.69"/>
<text text-anchor="middle" x="947.5" y="-852.8" font-family="Times,serif" font-size="14.00">GitHub</text>
<text text-anchor="middle" x="947.5" y="-837.8" font-family="Times,serif" font-size="14.00">Action</text>
</g>
<!-- _GH__DOD_CYBER_CRIME_CENTER__SQLITE_DISSECT -->
<g id="node25" class="node">
<title>_GH__DOD_CYBER_CRIME_CENTER__SQLITE_DISSECT</title>
<g id="a_node25"><a xlink:href="https://github.com/dod-cyber-crime-center/sqlite-dissect" xlink:title="sqlite&#45;dissect\nadopts new case&#45;validation&#45;action">
<path fill="#8ec7d2" stroke="#0d6986" d="M1227.5,-92C1227.5,-92 1050.5,-92 1050.5,-92 1044.5,-92 1038.5,-86 1038.5,-80 1038.5,-80 1038.5,-66 1038.5,-66 1038.5,-60 1044.5,-54 1050.5,-54 1050.5,-54 1227.5,-54 1227.5,-54 1233.5,-54 1239.5,-60 1239.5,-66 1239.5,-66 1239.5,-80 1239.5,-80 1239.5,-86 1233.5,-92 1227.5,-92"/>
<text text-anchor="middle" x="1139" y="-76.8" font-family="Times,serif" font-size="14.00">sqlite&#45;dissect</text>
<text text-anchor="middle" x="1139" y="-61.8" font-family="Times,serif" font-size="14.00">adopts new case&#45;validation&#45;action</text>
</a>
</g>
</g>
<!-- _GH__KCHASON__CASE_VALIDATION_ACTION&#45;&gt;_GH__DOD_CYBER_CRIME_CENTER__SQLITE_DISSECT -->
<g id="edge22" class="edge">
<title>_GH__KCHASON__CASE_VALIDATION_ACTION&#45;&gt;_GH__DOD_CYBER_CRIME_CENTER__SQLITE_DISSECT</title>
<g id="a_edge22"><a xlink:href="https://github.com/dod-cyber-crime-center/sqlite-dissect/pull/31" xlink:title="TODO: PR 31">
<path fill="none" stroke="black" d="M853.32,-687C867.3,-683.38 880.62,-676.96 890,-666 910.85,-641.64 901.82,-409.46 908,-378 931.31,-259.26 909.1,-205.24 995,-120 1004.51,-110.56 1015.96,-103.01 1028.17,-96.99"/>
<polygon fill="black" stroke="black" points="1029.45,-99.79 1037.11,-92.47 1026.56,-93.42 1029.45,-99.79"/>
</a>
</g>
<g id="a_edge22&#45;label"><a xlink:href="https://github.com/dod-cyber-crime-center/sqlite-dissect/pull/31" xlink:title="TODO: PR 31">
<text text-anchor="middle" x="947.5" y="-381.8" font-family="Times,serif" font-size="14.00">TODO: PR 31</text>
</a>
</g>
</g>
<!-- _GH__CIPHERTECHSOLUTIONS__CASE_BINDINGS_CSHARP&#45;&gt;_GH__CASEWORK__CASE_BINDINGS_CSHARP_MONITOR -->
<g id="edge15" class="edge">
<title>_GH__CIPHERTECHSOLUTIONS__CASE_BINDINGS_CSHARP&#45;&gt;_GH__CASEWORK__CASE_BINDINGS_CSHARP_MONITOR</title>
<path fill="none" stroke="black" d="M871.98,-869.21C884.08,-869.12 896.35,-869.05 908,-869 938.54,-868.87 971.36,-868.91 1002.37,-869.03"/>
<polygon fill="black" stroke="black" points="1002.25,-872.53 1012.26,-869.07 1002.28,-865.53 1002.25,-872.53"/>
<text text-anchor="middle" x="947.5" y="-872.8" font-family="Times,serif" font-size="14.00">NuGet</text>
</g>
</g>
</svg>
