<?xml version="1.0" encoding="UTF-8" standalone="no"?>
<!DOCTYPE svg PUBLIC "-//W3C//DTD SVG 1.1//EN"
 "http://www.w3.org/Graphics/SVG/1.1/DTD/svg11.dtd">
<!-- Generated by graphviz version 7.1.0 (20230121.1956)
 -->
<!-- Title: cdo_release_flow Pages: 1 -->
<svg width="1682pt" height="932pt"
 viewBox="0.00 0.00 1682.00 932.07" xmlns="http://www.w3.org/2000/svg" xmlns:xlink="http://www.w3.org/1999/xlink">
<g id="graph0" class="graph" transform="scale(1 1) rotate(0) translate(4 928.07)">
<title>cdo_release_flow</title>
<polygon fill="white" stroke="none" points="-4,4 -4,-928.07 1678,-928.07 1678,4 -4,4"/>
<text text-anchor="middle" x="837" y="-38.8" font-family="Times,serif" font-size="14.00">Release flow of CDO ontologies</text>
<text text-anchor="middle" x="837" y="-7.8" font-family="Times,serif" font-size="14.00">Nodes link to the respective Git repository.</text>
<g id="clust1" class="cluster">
<title>cluster_uco_0_9_1</title>
<polygon fill="none" stroke="black" points="189,-434.07 189,-598.07 357,-598.07 357,-434.07 189,-434.07"/>
<text text-anchor="middle" x="273" y="-582.87" font-family="Times,serif" font-size="14.00">Adoption of UCO 0.9.1</text>
</g>
<g id="clust2" class="cluster">
<title>cluster_case_0_7_1</title>
<polygon fill="none" stroke="black" points="197,-490.07 197,-567.07 349,-567.07 349,-490.07 197,-490.07"/>
<text text-anchor="middle" x="273" y="-551.87" font-family="Times,serif" font-size="14.00">Adoption of CASE 0.7.1</text>
</g>
<g id="clust3" class="cluster">
<title>cluster_uco_1_1_0</title>
<polygon fill="none" stroke="black" points="681,-132.07 681,-916.07 1666,-916.07 1666,-132.07 681,-132.07"/>
<text text-anchor="middle" x="1173.5" y="-900.87" font-family="Times,serif" font-size="14.00">Adoption of UCO 1.1.0</text>
</g>
<g id="clust4" class="cluster">
<title>cluster_case_1_1_0</title>
<polygon fill="none" stroke="black" points="689,-140.07 689,-885.07 1658,-885.07 1658,-140.07 689,-140.07"/>
<text text-anchor="middle" x="1173.5" y="-869.87" font-family="Times,serif" font-size="14.00">Adoption of CASE 1.1.0</text>
</g>
<g id="clust5" class="cluster">
<title>cluster_case_utils_0_9_0</title>
<polygon fill="none" stroke="black" points="697,-148.07 697,-854.07 1650,-854.07 1650,-148.07 697,-148.07"/>
<text text-anchor="middle" x="1173.5" y="-838.87" font-family="Times,serif" font-size="14.00">Adoption of case&#45;utils 0.9.0</text>
</g>
<g id="clust7" class="cluster">
<title>cluster_case_validation_action_2_3</title>
<polygon fill="none" stroke="black" points="1038.5,-746.07 1038.5,-823.07 1272.5,-823.07 1272.5,-746.07 1038.5,-746.07"/>
<text text-anchor="middle" x="1155.5" y="-807.87" font-family="Times,serif" font-size="14.00">Adoption of case&#45;validation&#45;action 2.3</text>
</g>
<g id="clust8" class="cluster">
<title>cluster_case_validation_action_2_5</title>
<polygon fill="none" stroke="black" points="707.5,-370.07 707.5,-738.07 1297,-738.07 1297,-370.07 707.5,-370.07"/>
<text text-anchor="middle" x="1002.25" y="-722.87" font-family="Times,serif" font-size="14.00">Adoption of case&#45;validation&#45;action 2.5</text>
</g>
<g id="clust9" class="cluster">
<title>cluster_case_bindings_csharp_0_3_0</title>
<polygon fill="none" stroke="black" points="715.5,-630.07 715.5,-707.07 1289,-707.07 1289,-630.07 715.5,-630.07"/>
<text text-anchor="middle" x="1002.25" y="-691.87" font-family="Times,serif" font-size="14.00">Adoption of CSharp bindings 0.3.0</text>
</g>
<g id="clust6" class="cluster">
<title>cluster_case_prov_0_6_0</title>
<polygon fill="none" stroke="black" points="1360,-193.07 1360,-270.07 1642,-270.07 1642,-193.07 1360,-193.07"/>
<text text-anchor="middle" x="1501" y="-254.87" font-family="Times,serif" font-size="14.00">Adoption of case&#45;prov 0.6.0</text>
</g>
<g id="clust10" class="cluster">
<title>cluster_uco_1_2_0</title>
<polygon fill="none" stroke="black" points="8,-223.07 8,-426.07 638,-426.07 638,-223.07 8,-223.07"/>
<text text-anchor="middle" x="323" y="-410.87" font-family="Times,serif" font-size="14.00">Adoption of UCO 1.2.0</text>
</g>
<g id="clust11" class="cluster">
<title>cluster_case_1_2_0</title>
<polygon fill="none" stroke="black" points="212,-231.07 212,-395.07 630,-395.07 630,-231.07 212,-231.07"/>
<text text-anchor="middle" x="421" y="-379.87" font-family="Times,serif" font-size="14.00">Adoption of CASE 1.2.0</text>
</g>
<g id="clust12" class="cluster">
<title>cluster_case_utils_0_10_0</title>
<polygon fill="none" stroke="black" points="446,-287.07 446,-364.07 622,-364.07 622,-287.07 446,-287.07"/>
<text text-anchor="middle" x="534" y="-348.87" font-family="Times,serif" font-size="14.00">Adoption of case&#45;utils 0.10.0</text>
</g>
<!-- _GH__UCOPROJECT__ONTOLOGY_UNIFIEDCYBERONTOLOGY_ORG -->
<g id="node1" class="node">
<title>_GH__UCOPROJECT__ONTOLOGY_UNIFIEDCYBERONTOLOGY_ORG</title>
<g id="a_node1"><a xlink:href="https://github.com/ucoProject/ontology.unifiedcyberontology.org" xlink:title="UCO documentation\nregenerated">
<path fill="#8ec7d2" stroke="#0d6986" d="M326,-480.07C326,-480.07 220,-480.07 220,-480.07 214,-480.07 208,-474.07 208,-468.07 208,-468.07 208,-454.07 208,-454.07 208,-448.07 214,-442.07 220,-442.07 220,-442.07 326,-442.07 326,-442.07 332,-442.07 338,-448.07 338,-454.07 338,-454.07 338,-468.07 338,-468.07 338,-474.07 332,-480.07 326,-480.07"/>
<text text-anchor="middle" x="273" y="-464.87" font-family="Times,serif" font-size="14.00">UCO documentation</text>
<text text-anchor="middle" x="273" y="-449.87" font-family="Times,serif" font-size="14.00">regenerated</text>
</a>
</g>
</g>
<!-- _GH__CASEWORK__CASE_MAPPING_TEMPLATE_STUBS -->
<g id="node2" class="node">
<title>_GH__CASEWORK__CASE_MAPPING_TEMPLATE_STUBS</title>
<g id="a_node2"><a xlink:href="https://github.com/casework/CASE-Mapping-Template-Stubs" xlink:title="CASE Mapping\nTemplate Stubs">
<path fill="#8ec7d2" stroke="#0d6986" d="M313,-536.07C313,-536.07 233,-536.07 233,-536.07 227,-536.07 221,-530.07 221,-524.07 221,-524.07 221,-510.07 221,-510.07 221,-504.07 227,-498.07 233,-498.07 233,-498.07 313,-498.07 313,-498.07 319,-498.07 325,-504.07 325,-510.07 325,-510.07 325,-524.07 325,-524.07 325,-530.07 319,-536.07 313,-536.07"/>
<text text-anchor="middle" x="273" y="-520.87" font-family="Times,serif" font-size="14.00">CASE Mapping</text>
<text text-anchor="middle" x="273" y="-505.87" font-family="Times,serif" font-size="14.00">Template Stubs</text>
</a>
</g>
</g>
<!-- _GH__AJNELSON_NIST__CASE_EXAMPLES_QC -->
<g id="node3" class="node">
<title>_GH__AJNELSON_NIST__CASE_EXAMPLES_QC</title>
<g id="a_node3"><a xlink:href="https://github.com/ajnelson-nist/CASE-Examples-QC" xlink:title="CASE&#45;Examples&#45;QC\nadopts CASE&#45;Examples and\nCASE website updates">
<path fill="#8ec7d2" stroke="#0d6986" d="M1229.5,-284.57C1229.5,-284.57 1081.5,-284.57 1081.5,-284.57 1075.5,-284.57 1069.5,-278.57 1069.5,-272.57 1069.5,-272.57 1069.5,-243.57 1069.5,-243.57 1069.5,-237.57 1075.5,-231.57 1081.5,-231.57 1081.5,-231.57 1229.5,-231.57 1229.5,-231.57 1235.5,-231.57 1241.5,-237.57 1241.5,-243.57 1241.5,-243.57 1241.5,-272.57 1241.5,-272.57 1241.5,-278.57 1235.5,-284.57 1229.5,-284.57"/>
<text text-anchor="middle" x="1155.5" y="-269.37" font-family="Times,serif" font-size="14.00">CASE&#45;Examples&#45;QC</text>
<text text-anchor="middle" x="1155.5" y="-254.37" font-family="Times,serif" font-size="14.00">adopts CASE&#45;Examples and</text>
<text text-anchor="middle" x="1155.5" y="-239.37" font-family="Times,serif" font-size="14.00">CASE website updates</text>
</a>
</g>
</g>
<!-- _GH__CASEWORK__CASE_IMPLEMENTATON_PROV_O -->
<g id="node9" class="node">
<title>_GH__CASEWORK__CASE_IMPLEMENTATON_PROV_O</title>
<g id="a_node9"><a xlink:href="https://github.com/casework/CASE-Implementation-PROV-O" xlink:title="case&#45;prov\nreleases">
<path fill="#8ec7d2" stroke="#0d6986" d="M1425,-239.07C1425,-239.07 1380,-239.07 1380,-239.07 1374,-239.07 1368,-233.07 1368,-227.07 1368,-227.07 1368,-213.07 1368,-213.07 1368,-207.07 1374,-201.07 1380,-201.07 1380,-201.07 1425,-201.07 1425,-201.07 1431,-201.07 1437,-207.07 1437,-213.07 1437,-213.07 1437,-227.07 1437,-227.07 1437,-233.07 1431,-239.07 1425,-239.07"/>
<text text-anchor="middle" x="1402.5" y="-223.87" font-family="Times,serif" font-size="14.00">case&#45;prov</text>
<text text-anchor="middle" x="1402.5" y="-208.87" font-family="Times,serif" font-size="14.00">releases</text>
</a>
</g>
</g>
<!-- _GH__AJNELSON_NIST__CASE_EXAMPLES_QC&#45;&gt;_GH__CASEWORK__CASE_IMPLEMENTATON_PROV_O -->
<g id="edge1" class="edge">
<title>_GH__AJNELSON_NIST__CASE_EXAMPLES_QC&#45;&gt;_GH__CASEWORK__CASE_IMPLEMENTATON_PROV_O</title>
<path fill="none" stroke="black" d="M1241.85,-244.83C1280.47,-238.84 1324.53,-232 1356.57,-227.04"/>
<polygon fill="black" stroke="black" points="1356.95,-230.52 1366.3,-225.53 1355.88,-223.6 1356.95,-230.52"/>
<text text-anchor="middle" x="1327.5" y="-252.87" font-family="Times,serif" font-size="14.00">Git sub&#45;</text>
<text text-anchor="middle" x="1327.5" y="-237.87" font-family="Times,serif" font-size="14.00">module</text>
</g>
<!-- _GH__CASEWORK__CASE_EXAMPLES -->
<g id="node4" class="node">
<title>_GH__CASEWORK__CASE_EXAMPLES</title>
<g id="a_node4"><a xlink:href="https://github.com/casework/CASE-Examples" xlink:title="CASE&#45;Examples\nadopts new case&#45;utils">
<path fill="#8ec7d2" stroke="#0d6986" d="M864.5,-250.07C864.5,-250.07 755.5,-250.07 755.5,-250.07 749.5,-250.07 743.5,-244.07 743.5,-238.07 743.5,-238.07 743.5,-224.07 743.5,-224.07 743.5,-218.07 749.5,-212.07 755.5,-212.07 755.5,-212.07 864.5,-212.07 864.5,-212.07 870.5,-212.07 876.5,-218.07 876.5,-224.07 876.5,-224.07 876.5,-238.07 876.5,-238.07 876.5,-244.07 870.5,-250.07 864.5,-250.07"/>
<text text-anchor="middle" x="810" y="-234.87" font-family="Times,serif" font-size="14.00">CASE&#45;Examples</text>
<text text-anchor="middle" x="810" y="-219.87" font-family="Times,serif" font-size="14.00">adopts new case&#45;utils</text>
</a>
</g>
</g>
<!-- _GH__CASEWORK__CASE_EXAMPLES&#45;&gt;_GH__AJNELSON_NIST__CASE_EXAMPLES_QC -->
<g id="edge5" class="edge">
<title>_GH__CASEWORK__CASE_EXAMPLES&#45;&gt;_GH__AJNELSON_NIST__CASE_EXAMPLES_QC</title>
<path fill="none" stroke="black" d="M876.76,-229.53C916.08,-229.24 966.99,-229.96 1012,-234.07 1026.98,-235.43 1042.76,-237.47 1058.14,-239.8"/>
<polygon fill="black" stroke="black" points="1057.33,-243.22 1067.75,-241.3 1058.42,-236.3 1057.33,-243.22"/>
<text text-anchor="middle" x="972.5" y="-252.87" font-family="Times,serif" font-size="14.00">Git sub&#45;</text>
<text text-anchor="middle" x="972.5" y="-237.87" font-family="Times,serif" font-size="14.00">module</text>
</g>
<!-- _GH__CASEWORK__CASE_IMPLEMENTATON_EXIFTOOL -->
<g id="node5" class="node">
<title>_GH__CASEWORK__CASE_IMPLEMENTATON_EXIFTOOL</title>
<g id="a_node5"><a xlink:href="https://github.com/casework/CASE-Implementation-ExifTool" xlink:title="CASE&#45;Implementation&#45;ExifTool\nadopts new case&#45;utils">
<path fill="#8ec7d2" stroke="#0d6986" d="M896,-194.07C896,-194.07 724,-194.07 724,-194.07 718,-194.07 712,-188.07 712,-182.07 712,-182.07 712,-168.07 712,-168.07 712,-162.07 718,-156.07 724,-156.07 724,-156.07 896,-156.07 896,-156.07 902,-156.07 908,-162.07 908,-168.07 908,-168.07 908,-182.07 908,-182.07 908,-188.07 902,-194.07 896,-194.07"/>
<text text-anchor="middle" x="810" y="-178.87" font-family="Times,serif" font-size="14.00">CASE&#45;Implementation&#45;ExifTool</text>
<text text-anchor="middle" x="810" y="-163.87" font-family="Times,serif" font-size="14.00">adopts new case&#45;utils</text>
</a>
</g>
</g>
<!-- _GH__CASEWORK__CASE_IMPLEMENTATON_GNU_TIME -->
<g id="node6" class="node">
<title>_GH__CASEWORK__CASE_IMPLEMENTATON_GNU_TIME</title>
<g id="a_node6"><a xlink:href="https://github.com/casework/CASE-Implementation-GNU-Time" xlink:title="CASE&#45;Implementation&#45;GNU&#45;Time\nadopts new case&#45;utils">
<path fill="#8ec7d2" stroke="#0d6986" d="M903,-362.07C903,-362.07 717,-362.07 717,-362.07 711,-362.07 705,-356.07 705,-350.07 705,-350.07 705,-336.07 705,-336.07 705,-330.07 711,-324.07 717,-324.07 717,-324.07 903,-324.07 903,-324.07 909,-324.07 915,-330.07 915,-336.07 915,-336.07 915,-350.07 915,-350.07 915,-356.07 909,-362.07 903,-362.07"/>
<text text-anchor="middle" x="810" y="-346.87" font-family="Times,serif" font-size="14.00">CASE&#45;Implementation&#45;GNU&#45;Time</text>
<text text-anchor="middle" x="810" y="-331.87" font-family="Times,serif" font-size="14.00">adopts new case&#45;utils</text>
</a>
</g>
</g>
<!-- _GH__CASEWORK__CASEWORK_GITHUB_IO -->
<g id="node7" class="node">
<title>_GH__CASEWORK__CASEWORK_GITHUB_IO</title>
<g id="a_node7"><a xlink:href="https://github.com/casework/casework.github.io" xlink:title="CASE website\nadopts new case&#45;utils">
<path fill="#8ec7d2" stroke="#0d6986" d="M864.5,-306.07C864.5,-306.07 755.5,-306.07 755.5,-306.07 749.5,-306.07 743.5,-300.07 743.5,-294.07 743.5,-294.07 743.5,-280.07 743.5,-280.07 743.5,-274.07 749.5,-268.07 755.5,-268.07 755.5,-268.07 864.5,-268.07 864.5,-268.07 870.5,-268.07 876.5,-274.07 876.5,-280.07 876.5,-280.07 876.5,-294.07 876.5,-294.07 876.5,-300.07 870.5,-306.07 864.5,-306.07"/>
<text text-anchor="middle" x="810" y="-290.87" font-family="Times,serif" font-size="14.00">CASE website</text>
<text text-anchor="middle" x="810" y="-275.87" font-family="Times,serif" font-size="14.00">adopts new case&#45;utils</text>
</a>
</g>
</g>
<!-- _GH__CASEWORK__CASEWORK_GITHUB_IO&#45;&gt;_GH__AJNELSON_NIST__CASE_EXAMPLES_QC -->
<g id="edge14" class="edge">
<title>_GH__CASEWORK__CASEWORK_GITHUB_IO&#45;&gt;_GH__AJNELSON_NIST__CASE_EXAMPLES_QC</title>
<path fill="none" stroke="black" d="M876.82,-281.51C928.05,-277.18 999.91,-271.12 1057.69,-266.24"/>
<polygon fill="black" stroke="black" points="1057.87,-269.74 1067.54,-265.41 1057.28,-262.76 1057.87,-269.74"/>
<text text-anchor="middle" x="972.5" y="-293.87" font-family="Times,serif" font-size="14.00">Git sub&#45;</text>
<text text-anchor="middle" x="972.5" y="-278.87" font-family="Times,serif" font-size="14.00">module</text>
</g>
<!-- _GH__CASEWORK__CASE_CORPORA -->
<g id="node8" class="node">
<title>_GH__CASEWORK__CASE_CORPORA</title>
<g id="a_node8"><a xlink:href="https://github.com/casework/CASE-Corpora" xlink:title="CASE&#45;Corpora\nadopts new case&#45;prov">
<path fill="#8ec7d2" stroke="#0d6986" d="M1622,-239.07C1622,-239.07 1512,-239.07 1512,-239.07 1506,-239.07 1500,-233.07 1500,-227.07 1500,-227.07 1500,-213.07 1500,-213.07 1500,-207.07 1506,-201.07 1512,-201.07 1512,-201.07 1622,-201.07 1622,-201.07 1628,-201.07 1634,-207.07 1634,-213.07 1634,-213.07 1634,-227.07 1634,-227.07 1634,-233.07 1628,-239.07 1622,-239.07"/>
<text text-anchor="middle" x="1567" y="-223.87" font-family="Times,serif" font-size="14.00">CASE&#45;Corpora</text>
<text text-anchor="middle" x="1567" y="-208.87" font-family="Times,serif" font-size="14.00">adopts new case&#45;prov</text>
</a>
</g>
</g>
<!-- _GH__CASEWORK__CASE_IMPLEMENTATON_PROV_O&#45;&gt;_GH__CASEWORK__CASE_CORPORA -->
<g id="edge6" class="edge">
<title>_GH__CASEWORK__CASE_IMPLEMENTATON_PROV_O&#45;&gt;_GH__CASEWORK__CASE_CORPORA</title>
<path fill="none" stroke="black" d="M1437.17,-220.07C1452.03,-220.07 1470.18,-220.07 1488.11,-220.07"/>
<polygon fill="black" stroke="black" points="1488,-223.57 1498,-220.07 1488,-216.57 1488,-223.57"/>
<text text-anchor="middle" x="1468.5" y="-223.87" font-family="Times,serif" font-size="14.00">PyPI</text>
</g>
<!-- _GH__CASEWORK__CASE_IMPLEMENTATON_UFED_XML -->
<g id="node10" class="node">
<title>_GH__CASEWORK__CASE_IMPLEMENTATON_UFED_XML</title>
<g id="a_node10"><a xlink:href="https://github.com/casework/CASE-Implementation-UFED-XML" xlink:title="CASE&#45;Implementation&#45;UFED&#45;XML\nadopts new case&#45;validation&#45;action">
<path fill="#8ec7d2" stroke="#0d6986" d="M1252.5,-792.07C1252.5,-792.07 1058.5,-792.07 1058.5,-792.07 1052.5,-792.07 1046.5,-786.07 1046.5,-780.07 1046.5,-780.07 1046.5,-766.07 1046.5,-766.07 1046.5,-760.07 1052.5,-754.07 1058.5,-754.07 1058.5,-754.07 1252.5,-754.07 1252.5,-754.07 1258.5,-754.07 1264.5,-760.07 1264.5,-766.07 1264.5,-766.07 1264.5,-780.07 1264.5,-780.07 1264.5,-786.07 1258.5,-792.07 1252.5,-792.07"/>
<text text-anchor="middle" x="1155.5" y="-776.87" font-family="Times,serif" font-size="14.00">CASE&#45;Implementation&#45;UFED&#45;XML</text>
<text text-anchor="middle" x="1155.5" y="-761.87" font-family="Times,serif" font-size="14.00">adopts new case&#45;validation&#45;action</text>
</a>
</g>
</g>
<!-- _GH__CASEWORK__CASE_IMPLEMENTATON_PYPI_EXIFREAD -->
<g id="node11" class="node">
<title>_GH__CASEWORK__CASE_IMPLEMENTATON_PYPI_EXIFREAD</title>
<g id="a_node11"><a xlink:href="https://github.com/casework/CASE-Implementation-PyPI-Exifread" xlink:title="CASE&#45;Implementation&#45;PyPI&#45;Exifread\nadopts new case&#45;validation&#45;action">
<path fill="#8ec7d2" stroke="#0d6986" d="M1255.5,-416.07C1255.5,-416.07 1055.5,-416.07 1055.5,-416.07 1049.5,-416.07 1043.5,-410.07 1043.5,-404.07 1043.5,-404.07 1043.5,-390.07 1043.5,-390.07 1043.5,-384.07 1049.5,-378.07 1055.5,-378.07 1055.5,-378.07 1255.5,-378.07 1255.5,-378.07 1261.5,-378.07 1267.5,-384.07 1267.5,-390.07 1267.5,-390.07 1267.5,-404.07 1267.5,-404.07 1267.5,-410.07 1261.5,-416.07 1255.5,-416.07"/>
<text text-anchor="middle" x="1155.5" y="-400.87" font-family="Times,serif" font-size="14.00">CASE&#45;Implementation&#45;PyPI&#45;Exifread</text>
<text text-anchor="middle" x="1155.5" y="-385.87" font-family="Times,serif" font-size="14.00">adopts new case&#45;validation&#45;action</text>
</a>
</g>
</g>
<!-- _GH__CASEWORK__CASE_IMPLEMENTATON_PYPI_PILLOW -->
<g id="node12" class="node">
<title>_GH__CASEWORK__CASE_IMPLEMENTATON_PYPI_PILLOW</title>
<g id="a_node12"><a xlink:href="https://github.com/casework/CASE-Implementation-PyPI-Pillow" xlink:title="CASE&#45;Implementation&#45;PyPI&#45;Pillow\nadopts new case&#45;validation&#45;action">
<path fill="#8ec7d2" stroke="#0d6986" d="M1250,-472.07C1250,-472.07 1061,-472.07 1061,-472.07 1055,-472.07 1049,-466.07 1049,-460.07 1049,-460.07 1049,-446.07 1049,-446.07 1049,-440.07 1055,-434.07 1061,-434.07 1061,-434.07 1250,-434.07 1250,-434.07 1256,-434.07 1262,-440.07 1262,-446.07 1262,-446.07 1262,-460.07 1262,-460.07 1262,-466.07 1256,-472.07 1250,-472.07"/>
<text text-anchor="middle" x="1155.5" y="-456.87" font-family="Times,serif" font-size="14.00">CASE&#45;Implementation&#45;PyPI&#45;Pillow</text>
<text text-anchor="middle" x="1155.5" y="-441.87" font-family="Times,serif" font-size="14.00">adopts new case&#45;validation&#45;action</text>
</a>
</g>
</g>
<!-- _GH__CASEWORK__CASE_IMPLEMENTATON_XRY -->
<g id="node13" class="node">
<title>_GH__CASEWORK__CASE_IMPLEMENTATON_XRY</title>
<g id="a_node13"><a xlink:href="https://github.com/casework/CASE-Implementation-XRY" xlink:title="CASE&#45;Implementation&#45;XRY adopts\nnew case&#45;validation&#45;action">
<path fill="#8ec7d2" stroke="#0d6986" d="M1250.5,-528.07C1250.5,-528.07 1060.5,-528.07 1060.5,-528.07 1054.5,-528.07 1048.5,-522.07 1048.5,-516.07 1048.5,-516.07 1048.5,-502.07 1048.5,-502.07 1048.5,-496.07 1054.5,-490.07 1060.5,-490.07 1060.5,-490.07 1250.5,-490.07 1250.5,-490.07 1256.5,-490.07 1262.5,-496.07 1262.5,-502.07 1262.5,-502.07 1262.5,-516.07 1262.5,-516.07 1262.5,-522.07 1256.5,-528.07 1250.5,-528.07"/>
<text text-anchor="middle" x="1155.5" y="-512.87" font-family="Times,serif" font-size="14.00">CASE&#45;Implementation&#45;XRY adopts</text>
<text text-anchor="middle" x="1155.5" y="-497.87" font-family="Times,serif" font-size="14.00">new case&#45;validation&#45;action</text>
</a>
</g>
</g>
<!-- _GH__CASEWORK__CASE_MAPPING_TEMPLATE_PYTHON -->
<g id="node14" class="node">
<title>_GH__CASEWORK__CASE_MAPPING_TEMPLATE_PYTHON</title>
<g id="a_node14"><a xlink:href="https://github.com/casework/CASE-Mapping-Template-Python" xlink:title="CASE&#45;Mapping&#45;Template&#45;Python\nadopts new case&#45;validation&#45;action">
<path fill="#8ec7d2" stroke="#0d6986" d="M1245.5,-584.07C1245.5,-584.07 1065.5,-584.07 1065.5,-584.07 1059.5,-584.07 1053.5,-578.07 1053.5,-572.07 1053.5,-572.07 1053.5,-558.07 1053.5,-558.07 1053.5,-552.07 1059.5,-546.07 1065.5,-546.07 1065.5,-546.07 1245.5,-546.07 1245.5,-546.07 1251.5,-546.07 1257.5,-552.07 1257.5,-558.07 1257.5,-558.07 1257.5,-572.07 1257.5,-572.07 1257.5,-578.07 1251.5,-584.07 1245.5,-584.07"/>
<text text-anchor="middle" x="1155.5" y="-568.87" font-family="Times,serif" font-size="14.00">CASE&#45;Mapping&#45;Template&#45;Python</text>
<text text-anchor="middle" x="1155.5" y="-553.87" font-family="Times,serif" font-size="14.00">adopts new case&#45;validation&#45;action</text>
</a>
</g>
</g>
<!-- _GH__KCHASON__CASE_VALIDATION_ACTION -->
<g id="node15" class="node">
<title>_GH__KCHASON__CASE_VALIDATION_ACTION</title>
<g id="a_node15"><a xlink:href="https://github.com/kchason/case-validation-action" xlink:title="case&#45;validation&#45;action\nreleases">
<path fill="#8ec7d2" stroke="#0d6986" d="M866,-494.07C866,-494.07 754,-494.07 754,-494.07 748,-494.07 742,-488.07 742,-482.07 742,-482.07 742,-468.07 742,-468.07 742,-462.07 748,-456.07 754,-456.07 754,-456.07 866,-456.07 866,-456.07 872,-456.07 878,-462.07 878,-468.07 878,-468.07 878,-482.07 878,-482.07 878,-488.07 872,-494.07 866,-494.07"/>
<text text-anchor="middle" x="810" y="-478.87" font-family="Times,serif" font-size="14.00">case&#45;validation&#45;action</text>
<text text-anchor="middle" x="810" y="-463.87" font-family="Times,serif" font-size="14.00">releases</text>
</a>
</g>
</g>
<!-- _GH__KCHASON__CASE_VALIDATION_ACTION&#45;&gt;_GH__CASEWORK__CASE_IMPLEMENTATON_UFED_XML -->
<g id="edge19" class="edge">
<title>_GH__KCHASON__CASE_VALIDATION_ACTION&#45;&gt;_GH__CASEWORK__CASE_IMPLEMENTATON_UFED_XML</title>
<path fill="none" stroke="black" d="M828.24,-494.54C851.55,-521.93 892.75,-574.3 915,-626.07 930.25,-661.54 906.59,-682.9 933,-711.07 959.54,-739.37 997.84,-755.12 1035.15,-763.77"/>
<polygon fill="black" stroke="black" points="1034.17,-767.13 1044.68,-765.81 1035.63,-760.29 1034.17,-767.13"/>
<text text-anchor="middle" x="972.5" y="-775.87" font-family="Times,serif" font-size="14.00">GitHub</text>
<text text-anchor="middle" x="972.5" y="-760.87" font-family="Times,serif" font-size="14.00">Action</text>
</g>
<!-- _GH__KCHASON__CASE_VALIDATION_ACTION&#45;&gt;_GH__CASEWORK__CASE_IMPLEMENTATON_PYPI_EXIFREAD -->
<g id="edge17" class="edge">
<title>_GH__KCHASON__CASE_VALIDATION_ACTION&#45;&gt;_GH__CASEWORK__CASE_IMPLEMENTATON_PYPI_EXIFREAD</title>
<path fill="none" stroke="black" d="M878.4,-469.67C891.57,-466.11 904.53,-460.58 915,-452.07 930.12,-439.77 917,-423.2 933,-412.07 961.55,-392.21 997.49,-384.48 1032.07,-382.81"/>
<polygon fill="black" stroke="black" points="1031.84,-386.32 1041.72,-382.51 1031.62,-379.32 1031.84,-386.32"/>
<text text-anchor="middle" x="972.5" y="-430.87" font-family="Times,serif" font-size="14.00">GitHub</text>
<text text-anchor="middle" x="972.5" y="-415.87" font-family="Times,serif" font-size="14.00">Action</text>
</g>
<!-- _GH__KCHASON__CASE_VALIDATION_ACTION&#45;&gt;_GH__CASEWORK__CASE_IMPLEMENTATON_PYPI_PILLOW -->
<g id="edge18" class="edge">
<title>_GH__KCHASON__CASE_VALIDATION_ACTION&#45;&gt;_GH__CASEWORK__CASE_IMPLEMENTATON_PYPI_PILLOW</title>
<path fill="none" stroke="black" d="M878.38,-458.73C896.05,-455.14 915.15,-451.88 933,-450.07 966.77,-446.64 1003.59,-445.93 1037.34,-446.48"/>
<polygon fill="black" stroke="black" points="1037.08,-449.97 1047.14,-446.68 1037.22,-442.98 1037.08,-449.97"/>
<text text-anchor="middle" x="972.5" y="-468.87" font-family="Times,serif" font-size="14.00">GitHub</text>
<text text-anchor="middle" x="972.5" y="-453.87" font-family="Times,serif" font-size="14.00">Action</text>
</g>
<!-- _GH__KCHASON__CASE_VALIDATION_ACTION&#45;&gt;_GH__CASEWORK__CASE_IMPLEMENTATON_XRY -->
<g id="edge20" class="edge">
<title>_GH__KCHASON__CASE_VALIDATION_ACTION&#45;&gt;_GH__CASEWORK__CASE_IMPLEMENTATON_XRY</title>
<path fill="none" stroke="black" d="M878.45,-481.74C923.6,-486.21 984.22,-492.21 1037.15,-497.45"/>
<polygon fill="black" stroke="black" points="1036.52,-500.91 1046.82,-498.41 1037.21,-493.94 1036.52,-500.91"/>
<text text-anchor="middle" x="972.5" y="-512.87" font-family="Times,serif" font-size="14.00">GitHub</text>
<text text-anchor="middle" x="972.5" y="-497.87" font-family="Times,serif" font-size="14.00">Action</text>
</g>
<!-- _GH__KCHASON__CASE_VALIDATION_ACTION&#45;&gt;_GH__CASEWORK__CASE_MAPPING_TEMPLATE_PYTHON -->
<g id="edge21" class="edge">
<title>_GH__KCHASON__CASE_VALIDATION_ACTION&#45;&gt;_GH__CASEWORK__CASE_MAPPING_TEMPLATE_PYTHON</title>
<path fill="none" stroke="black" d="M849.11,-494.5C872.72,-505.81 903.99,-519.48 933,-528.07 967.83,-538.37 1006.65,-546.08 1041.93,-551.71"/>
<polygon fill="black" stroke="black" points="1041.34,-555.16 1051.76,-553.23 1042.42,-548.24 1041.34,-555.16"/>
<text text-anchor="middle" x="972.5" y="-564.87" font-family="Times,serif" font-size="14.00">GitHub</text>
<text text-anchor="middle" x="972.5" y="-549.87" font-family="Times,serif" font-size="14.00">Action</text>
</g>
<!-- _GH__CASEWORK__CASE_BINDINGS_CSHARP_MONITOR -->
<g id="node16" class="node">
<title>_GH__CASEWORK__CASE_BINDINGS_CSHARP_MONITOR</title>
<g id="a_node16"><a xlink:href="https://github.com/casework/CASE-Bindings-CSharp-Monitor" xlink:title="CASE Bindings CSharp Monitor\ntests NuGet package with validation action">
<path fill="#8ec7d2" stroke="#0d6986" d="M1269,-676.07C1269,-676.07 1042,-676.07 1042,-676.07 1036,-676.07 1030,-670.07 1030,-664.07 1030,-664.07 1030,-650.07 1030,-650.07 1030,-644.07 1036,-638.07 1042,-638.07 1042,-638.07 1269,-638.07 1269,-638.07 1275,-638.07 1281,-644.07 1281,-650.07 1281,-650.07 1281,-664.07 1281,-664.07 1281,-670.07 1275,-676.07 1269,-676.07"/>
<text text-anchor="middle" x="1155.5" y="-660.87" font-family="Times,serif" font-size="14.00">CASE Bindings CSharp Monitor</text>
<text text-anchor="middle" x="1155.5" y="-645.87" font-family="Times,serif" font-size="14.00">tests NuGet package with validation action</text>
</a>
</g>
</g>
<!-- _GH__KCHASON__CASE_VALIDATION_ACTION&#45;&gt;_GH__CASEWORK__CASE_BINDINGS_CSHARP_MONITOR -->
<g id="edge16" class="edge">
<title>_GH__KCHASON__CASE_VALIDATION_ACTION&#45;&gt;_GH__CASEWORK__CASE_BINDINGS_CSHARP_MONITOR</title>
<path fill="none" stroke="black" d="M830.55,-494.43C853.72,-516.76 894.11,-553.76 933,-580.07 965.77,-602.23 978.32,-600.32 1012,-621.07 1018.37,-624.99 1020.21,-628.2 1028.59,-632.77"/>
<polygon fill="black" stroke="black" points="1027.06,-635.92 1037.61,-636.98 1030.03,-629.58 1027.06,-635.92"/>
<text text-anchor="middle" x="972.5" y="-639.87" font-family="Times,serif" font-size="14.00">GitHub</text>
<text text-anchor="middle" x="972.5" y="-624.87" font-family="Times,serif" font-size="14.00">Action</text>
</g>
<!-- _GH__DOD_CYBER_CRIME_CENTER__SQLITE_DISSECT -->
<g id="node22" class="node">
<title>_GH__DOD_CYBER_CRIME_CENTER__SQLITE_DISSECT</title>
<g id="a_node22"><a xlink:href="https://github.com/dod-cyber-crime-center/sqlite-dissect" xlink:title="sqlite&#45;dissect\nadopts new case&#45;validation&#45;action">
<path fill="#8ec7d2" stroke="#0d6986" d="M1244,-124.07C1244,-124.07 1067,-124.07 1067,-124.07 1061,-124.07 1055,-118.07 1055,-112.07 1055,-112.07 1055,-98.07 1055,-98.07 1055,-92.07 1061,-86.07 1067,-86.07 1067,-86.07 1244,-86.07 1244,-86.07 1250,-86.07 1256,-92.07 1256,-98.07 1256,-98.07 1256,-112.07 1256,-112.07 1256,-118.07 1250,-124.07 1244,-124.07"/>
<text text-anchor="middle" x="1155.5" y="-108.87" font-family="Times,serif" font-size="14.00">sqlite&#45;dissect</text>
<text text-anchor="middle" x="1155.5" y="-93.87" font-family="Times,serif" font-size="14.00">adopts new case&#45;validation&#45;action</text>
</a>
</g>
</g>
<!-- _GH__KCHASON__CASE_VALIDATION_ACTION&#45;&gt;_GH__DOD_CYBER_CRIME_CENTER__SQLITE_DISSECT -->
<g id="edge22" class="edge">
<title>_GH__KCHASON__CASE_VALIDATION_ACTION&#45;&gt;_GH__DOD_CYBER_CRIME_CENTER__SQLITE_DISSECT</title>
<g id="a_edge22"><a xlink:href="https://github.com/dod-cyber-crime-center/sqlite-dissect/pull/31" xlink:title="TODO: PR 31">
<path fill="none" stroke="black" d="M878.37,-473.11C892.36,-469.49 905.66,-463.06 915,-452.07 961.55,-397.29 883.51,-181.21 933,-129.07 960.87,-99.7 1002.97,-90.34 1043.02,-89.53"/>
<polygon fill="black" stroke="black" points="1043.01,-93.03 1053.01,-89.52 1043.01,-86.03 1043.01,-93.03"/>
</a>
</g>
<g id="a_edge22&#45;label"><a xlink:href="https://github.com/dod-cyber-crime-center/sqlite-dissect/pull/31" xlink:title="TODO: PR 31">
<text text-anchor="middle" x="972.5" y="-132.87" font-family="Times,serif" font-size="14.00">TODO: PR 31</text>
</a>
</g>
</g>
<!-- _GH__CIPHERTECHSOLUTIONS__CASE_BINDINGS_CSHARP -->
<g id="node17" class="node">
<title>_GH__CIPHERTECHSOLUTIONS__CASE_BINDINGS_CSHARP</title>
<g id="a_node17"><a xlink:href="https://github.com/ciphertechsolutions/CASE-Bindings-CSharp" xlink:title="CASE&#45;Bindings&#45;CSharp\nadopts new ontology version">
<path fill="#8ec7d2" stroke="#0d6986" d="M884.5,-676.07C884.5,-676.07 735.5,-676.07 735.5,-676.07 729.5,-676.07 723.5,-670.07 723.5,-664.07 723.5,-664.07 723.5,-650.07 723.5,-650.07 723.5,-644.07 729.5,-638.07 735.5,-638.07 735.5,-638.07 884.5,-638.07 884.5,-638.07 890.5,-638.07 896.5,-644.07 896.5,-650.07 896.5,-650.07 896.5,-664.07 896.5,-664.07 896.5,-670.07 890.5,-676.07 884.5,-676.07"/>
<text text-anchor="middle" x="810" y="-660.87" font-family="Times,serif" font-size="14.00">CASE&#45;Bindings&#45;CSharp</text>
<text text-anchor="middle" x="810" y="-645.87" font-family="Times,serif" font-size="14.00">adopts new ontology version</text>
</a>
</g>
</g>
<!-- _GH__CIPHERTECHSOLUTIONS__CASE_BINDINGS_CSHARP&#45;&gt;_GH__CASEWORK__CASE_BINDINGS_CSHARP_MONITOR -->
<g id="edge15" class="edge">
<title>_GH__CIPHERTECHSOLUTIONS__CASE_BINDINGS_CSHARP&#45;&gt;_GH__CASEWORK__CASE_BINDINGS_CSHARP_MONITOR</title>
<path fill="none" stroke="black" d="M896.98,-656.27C909.08,-656.19 921.35,-656.11 933,-656.07 960.67,-655.95 990.28,-655.98 1018.56,-656.08"/>
<polygon fill="black" stroke="black" points="1018.21,-659.58 1028.23,-656.12 1018.24,-652.58 1018.21,-659.58"/>
<text text-anchor="middle" x="972.5" y="-659.87" font-family="Times,serif" font-size="14.00">NuGet</text>
</g>
<!-- _GH__UCOPROJECT__UCO -->
<g id="node18" class="node">
<title>_GH__UCOPROJECT__UCO</title>
<g id="a_node18"><a xlink:href="https://github.com/ucoProject/UCO" xlink:title="UCO Ontology\nreleases">
<path fill="#8ec7d2" stroke="#0d6986" d="M104,-387.07C104,-387.07 28,-387.07 28,-387.07 22,-387.07 16,-381.07 16,-375.07 16,-375.07 16,-361.07 16,-361.07 16,-355.07 22,-349.07 28,-349.07 28,-349.07 104,-349.07 104,-349.07 110,-349.07 116,-355.07 116,-361.07 116,-361.07 116,-375.07 116,-375.07 116,-381.07 110,-387.07 104,-387.07"/>
<text text-anchor="middle" x="66" y="-371.87" font-family="Times,serif" font-size="14.00">UCO Ontology</text>
<text text-anchor="middle" x="66" y="-356.87" font-family="Times,serif" font-size="14.00">releases</text>
</a>
</g>
</g>
<!-- _GH__UCOPROJECT__UCO&#45;&gt;_GH__UCOPROJECT__ONTOLOGY_UNIFIEDCYBERONTOLOGY_ORG -->
<g id="edge24" class="edge">
<title>_GH__UCOPROJECT__UCO&#45;&gt;_GH__UCOPROJECT__ONTOLOGY_UNIFIEDCYBERONTOLOGY_ORG</title>
<path fill="none" stroke="black" d="M109.97,-387.56C141.68,-401.95 185.02,-421.61 218.9,-436.97"/>
<polygon fill="black" stroke="black" points="217.15,-440.03 227.7,-440.97 220.04,-433.65 217.15,-440.03"/>
<text text-anchor="middle" x="156.5" y="-435.87" font-family="Times,serif" font-size="14.00">Git sub&#45;</text>
<text text-anchor="middle" x="156.5" y="-420.87" font-family="Times,serif" font-size="14.00">module</text>
</g>
<!-- _GH__CASEWORK__CASE -->
<g id="node19" class="node">
<title>_GH__CASEWORK__CASE</title>
<g id="a_node19"><a xlink:href="https://github.com/casework/CASE" xlink:title="CASE Ontology\nreleases">
<path fill="#8ec7d2" stroke="#0d6986" d="M314,-353.07C314,-353.07 232,-353.07 232,-353.07 226,-353.07 220,-347.07 220,-341.07 220,-341.07 220,-327.07 220,-327.07 220,-321.07 226,-315.07 232,-315.07 232,-315.07 314,-315.07 314,-315.07 320,-315.07 326,-321.07 326,-327.07 326,-327.07 326,-341.07 326,-341.07 326,-347.07 320,-353.07 314,-353.07"/>
<text text-anchor="middle" x="273" y="-337.87" font-family="Times,serif" font-size="14.00">CASE Ontology</text>
<text text-anchor="middle" x="273" y="-322.87" font-family="Times,serif" font-size="14.00">releases</text>
</a>
</g>
</g>
<!-- _GH__UCOPROJECT__UCO&#45;&gt;_GH__CASEWORK__CASE -->
<g id="edge23" class="edge">
<title>_GH__UCOPROJECT__UCO&#45;&gt;_GH__CASEWORK__CASE</title>
<path fill="none" stroke="black" d="M116.36,-359.88C144.1,-355.28 179.01,-349.49 208.73,-344.56"/>
<polygon fill="black" stroke="black" points="209.06,-348.05 218.35,-342.96 207.91,-341.15 209.06,-348.05"/>
<text text-anchor="middle" x="156.5" y="-374.87" font-family="Times,serif" font-size="14.00">Git sub&#45;</text>
<text text-anchor="middle" x="156.5" y="-359.87" font-family="Times,serif" font-size="14.00">module</text>
</g>
<!-- _GH__CASEWORK__CASE&#45;&gt;_GH__CIPHERTECHSOLUTIONS__CASE_BINDINGS_CSHARP -->
<g id="edge3" class="edge">
<title>_GH__CASEWORK__CASE&#45;&gt;_GH__CIPHERTECHSOLUTIONS__CASE_BINDINGS_CSHARP</title>
<path fill="none" stroke="black" d="M293.08,-353.35C347.85,-407.47 512.49,-561.53 681,-634.07 690.77,-638.27 701.29,-641.71 711.94,-644.52"/>
<polygon fill="black" stroke="black" points="711.04,-647.9 721.59,-646.87 712.7,-641.1 711.04,-647.9"/>
</g>
<!-- _GH__CASEWORK__ONTOLOGY_CASEONTOLOGY_ORG -->
<g id="node20" class="node">
<title>_GH__CASEWORK__ONTOLOGY_CASEONTOLOGY_ORG</title>
<g id="a_node20"><a xlink:href="https://github.com/casework/ontology.caseontology.org" xlink:title="CASE documentation\nregenerated">
<path fill="#8ec7d2" stroke="#0d6986" d="M590,-277.07C590,-277.07 478,-277.07 478,-277.07 472,-277.07 466,-271.07 466,-265.07 466,-265.07 466,-251.07 466,-251.07 466,-245.07 472,-239.07 478,-239.07 478,-239.07 590,-239.07 590,-239.07 596,-239.07 602,-245.07 602,-251.07 602,-251.07 602,-265.07 602,-265.07 602,-271.07 596,-277.07 590,-277.07"/>
<text text-anchor="middle" x="534" y="-261.87" font-family="Times,serif" font-size="14.00">CASE documentation</text>
<text text-anchor="middle" x="534" y="-246.87" font-family="Times,serif" font-size="14.00">regenerated</text>
</a>
</g>
</g>
<!-- _GH__CASEWORK__CASE&#45;&gt;_GH__CASEWORK__ONTOLOGY_CASEONTOLOGY_ORG -->
<g id="edge4" class="edge">
<title>_GH__CASEWORK__CASE&#45;&gt;_GH__CASEWORK__ONTOLOGY_CASEONTOLOGY_ORG</title>
<path fill="none" stroke="black" d="M308.41,-314.7C325.56,-305.75 346.89,-295.68 367,-289.07 394.91,-279.89 426.4,-273.15 454.39,-268.34"/>
<polygon fill="black" stroke="black" points="454.96,-271.8 464.25,-266.71 453.81,-264.89 454.96,-271.8"/>
<text text-anchor="middle" x="389.5" y="-307.87" font-family="Times,serif" font-size="14.00">Git sub&#45;</text>
<text text-anchor="middle" x="389.5" y="-292.87" font-family="Times,serif" font-size="14.00">module</text>
</g>
<!-- _GH__CASEWORK__CASE_UTILITIES_PYTHON -->
<g id="node21" class="node">
<title>_GH__CASEWORK__CASE_UTILITIES_PYTHON</title>
<g id="a_node21"><a xlink:href="https://github.com/casework/CASE-Utilities-Python" xlink:title="case&#45;utils\nreleases">
<path fill="#8ec7d2" stroke="#0d6986" d="M556,-333.07C556,-333.07 512,-333.07 512,-333.07 506,-333.07 500,-327.07 500,-321.07 500,-321.07 500,-307.07 500,-307.07 500,-301.07 506,-295.07 512,-295.07 512,-295.07 556,-295.07 556,-295.07 562,-295.07 568,-301.07 568,-307.07 568,-307.07 568,-321.07 568,-321.07 568,-327.07 562,-333.07 556,-333.07"/>
<text text-anchor="middle" x="534" y="-317.87" font-family="Times,serif" font-size="14.00">case&#45;utils</text>
<text text-anchor="middle" x="534" y="-302.87" font-family="Times,serif" font-size="14.00">releases</text>
</a>
</g>
</g>
<!-- _GH__CASEWORK__CASE&#45;&gt;_GH__CASEWORK__CASE_UTILITIES_PYTHON -->
<g id="edge2" class="edge">
<title>_GH__CASEWORK__CASE&#45;&gt;_GH__CASEWORK__CASE_UTILITIES_PYTHON</title>
<path fill="none" stroke="black" d="M326.41,-330.02C373.9,-326.35 443.14,-321 488.13,-317.53"/>
<polygon fill="black" stroke="black" points="488.37,-321.02 498.07,-316.76 487.83,-314.04 488.37,-321.02"/>
<text text-anchor="middle" x="389.5" y="-344.87" font-family="Times,serif" font-size="14.00">Git sub&#45;</text>
<text text-anchor="middle" x="389.5" y="-329.87" font-family="Times,serif" font-size="14.00">module</text>
</g>
<!-- _GH__CASEWORK__CASE_UTILITIES_PYTHON&#45;&gt;_GH__AJNELSON_NIST__CASE_EXAMPLES_QC -->
<g id="edge7" class="edge">
<title>_GH__CASEWORK__CASE_UTILITIES_PYTHON&#45;&gt;_GH__AJNELSON_NIST__CASE_EXAMPLES_QC</title>
<path fill="none" stroke="black" d="M535.84,-333.41C539.76,-397.97 561.56,-607.81 681,-711.07 793.71,-808.5 904.3,-867.01 1012,-764.07 1044,-733.48 1010.72,-405.91 1030,-366.07 1044.82,-335.44 1072.73,-309.97 1098.37,-291.47"/>
<polygon fill="black" stroke="black" points="1100.25,-294.42 1106.45,-285.83 1096.24,-288.68 1100.25,-294.42"/>
<text text-anchor="middle" x="810" y="-821.87" font-family="Times,serif" font-size="14.00">PyPI</text>
</g>
<!-- _GH__CASEWORK__CASE_UTILITIES_PYTHON&#45;&gt;_GH__CASEWORK__CASE_EXAMPLES -->
<g id="edge8" class="edge">
<title>_GH__CASEWORK__CASE_UTILITIES_PYTHON&#45;&gt;_GH__CASEWORK__CASE_EXAMPLES</title>
<path fill="none" stroke="black" d="M568.26,-313.8C590.11,-312.02 618.22,-306.52 638,-291.07 644.26,-286.17 640.28,-280.59 646,-275.07 658.3,-263.18 664.78,-264.48 681,-259.07 697.28,-253.63 715.09,-248.97 732.11,-245.09"/>
<polygon fill="black" stroke="black" points="732.66,-248.56 741.68,-242.99 731.16,-241.72 732.66,-248.56"/>
<text text-anchor="middle" x="659.5" y="-278.87" font-family="Times,serif" font-size="14.00">PyPI</text>
</g>
<!-- _GH__CASEWORK__CASE_UTILITIES_PYTHON&#45;&gt;_GH__CASEWORK__CASE_IMPLEMENTATON_EXIFTOOL -->
<g id="edge9" class="edge">
<title>_GH__CASEWORK__CASE_UTILITIES_PYTHON&#45;&gt;_GH__CASEWORK__CASE_IMPLEMENTATON_EXIFTOOL</title>
<path fill="none" stroke="black" d="M568.43,-315.67C591.24,-314.85 620.39,-309.72 638,-291.07 653.15,-275.02 636.47,-261.97 646,-242.07 656.06,-221.06 660.87,-214.79 681,-203.07 687.41,-199.34 694.25,-196.1 701.33,-193.3"/>
<polygon fill="black" stroke="black" points="702.2,-196.7 710.41,-190 699.82,-190.12 702.2,-196.7"/>
<text text-anchor="middle" x="659.5" y="-245.87" font-family="Times,serif" font-size="14.00">PyPI</text>
</g>
<!-- _GH__CASEWORK__CASE_UTILITIES_PYTHON&#45;&gt;_GH__CASEWORK__CASE_IMPLEMENTATON_GNU_TIME -->
<g id="edge10" class="edge">
<title>_GH__CASEWORK__CASE_UTILITIES_PYTHON&#45;&gt;_GH__CASEWORK__CASE_IMPLEMENTATON_GNU_TIME</title>
<path fill="none" stroke="black" d="M568.32,-317.59C599.48,-320.89 647.88,-326.01 693.12,-330.8"/>
<polygon fill="black" stroke="black" points="692.72,-334.28 703.04,-331.85 693.46,-327.32 692.72,-334.28"/>
<text text-anchor="middle" x="659.5" y="-331.87" font-family="Times,serif" font-size="14.00">PyPI</text>
</g>
<!-- _GH__CASEWORK__CASE_UTILITIES_PYTHON&#45;&gt;_GH__CASEWORK__CASEWORK_GITHUB_IO -->
<g id="edge13" class="edge">
<title>_GH__CASEWORK__CASE_UTILITIES_PYTHON&#45;&gt;_GH__CASEWORK__CASEWORK_GITHUB_IO</title>
<path fill="none" stroke="black" d="M568.41,-308.14C590.39,-304.44 619.83,-299.87 646,-297.07 673.87,-294.08 704.53,-291.91 731.66,-290.37"/>
<polygon fill="black" stroke="black" points="731.75,-293.87 741.55,-289.83 731.37,-286.88 731.75,-293.87"/>
<text text-anchor="middle" x="659.5" y="-300.87" font-family="Times,serif" font-size="14.00">PyPI</text>
</g>
<!-- _GH__CASEWORK__CASE_UTILITIES_PYTHON&#45;&gt;_GH__CASEWORK__CASE_IMPLEMENTATON_PROV_O -->
<g id="edge11" class="edge">
<title>_GH__CASEWORK__CASE_UTILITIES_PYTHON&#45;&gt;_GH__CASEWORK__CASE_IMPLEMENTATON_PROV_O</title>
<path fill="none" stroke="black" d="M568.35,-316.06C591.42,-315.47 620.94,-310.46 638,-291.07 650.82,-276.49 640.08,-222.56 646,-204.07 655.41,-174.66 656.59,-162.96 681,-144.07 773.02,-72.85 817.73,-88.99 933,-73.07 1026.9,-60.09 1213.81,-36.08 1297,-77.07 1343.92,-100.18 1374.62,-155.71 1389.94,-190.37"/>
<polygon fill="black" stroke="black" points="1386.66,-191.59 1393.79,-199.43 1393.1,-188.86 1386.66,-191.59"/>
<text text-anchor="middle" x="972.5" y="-76.87" font-family="Times,serif" font-size="14.00">PyPI</text>
</g>
<!-- _GH__CASEWORK__CASE_UTILITIES_PYTHON&#45;&gt;_GH__KCHASON__CASE_VALIDATION_ACTION -->
<g id="edge12" class="edge">
<title>_GH__CASEWORK__CASE_UTILITIES_PYTHON&#45;&gt;_GH__KCHASON__CASE_VALIDATION_ACTION</title>
<path fill="none" stroke="black" d="M549.17,-333.31C572.8,-363.87 623.4,-422.99 681,-452.07 696.21,-459.74 713.58,-464.9 730.51,-468.34"/>
<polygon fill="black" stroke="black" points="729.59,-471.73 740.05,-470.09 730.85,-464.84 729.59,-471.73"/>
<text text-anchor="middle" x="659.5" y="-449.87" font-family="Times,serif" font-size="14.00">PyPI</text>
</g>
</g>
</svg>
