<?xml version="1.0" encoding="UTF-8" standalone="no"?>
<!DOCTYPE svg PUBLIC "-//W3C//DTD SVG 1.1//EN"
 "http://www.w3.org/Graphics/SVG/1.1/DTD/svg11.dtd">
<!-- Generated by graphviz version 7.1.0 (20230121.1956)
 -->
<!-- Title: cdo_release_flow Pages: 1 -->
<svg width="1830pt" height="918pt"
 viewBox="0.00 0.00 1830.00 917.51" xmlns="http://www.w3.org/2000/svg" xmlns:xlink="http://www.w3.org/1999/xlink">
<g id="graph0" class="graph" transform="scale(1 1) rotate(0) translate(4 913.51)">
<title>cdo_release_flow</title>
<polygon fill="white" stroke="none" points="-4,4 -4,-913.51 1826,-913.51 1826,4 -4,4"/>
<text text-anchor="middle" x="911" y="-38.8" font-family="Times,serif" font-size="14.00">Release flow of CDO ontologies</text>
<text text-anchor="middle" x="911" y="-7.8" font-family="Times,serif" font-size="14.00">Nodes link to the respective Git repository.</text>
<g id="clust1" class="cluster">
<title>cluster_uco_0_9_1</title>
<polygon fill="none" stroke="black" points="189,-349 189,-513 357,-513 357,-349 189,-349"/>
<text text-anchor="middle" x="273" y="-497.8" font-family="Times,serif" font-size="14.00">Adoption of UCO 0.9.1</text>
</g>
<g id="clust2" class="cluster">
<title>cluster_case_0_7_1</title>
<polygon fill="none" stroke="black" points="197,-405 197,-482 349,-482 349,-405 197,-405"/>
<text text-anchor="middle" x="273" y="-466.8" font-family="Times,serif" font-size="14.00">Adoption of CASE 0.7.1</text>
</g>
<g id="clust3" class="cluster">
<title>cluster_uco_1_1_0</title>
<polygon fill="none" stroke="black" points="991,-62 991,-758 1814,-758 1814,-62 991,-62"/>
<text text-anchor="middle" x="1402.5" y="-742.8" font-family="Times,serif" font-size="14.00">Adoption of UCO 1.1.0</text>
</g>
<g id="clust4" class="cluster">
<title>cluster_case_1_1_0</title>
<polygon fill="none" stroke="black" points="999,-70 999,-727 1806,-727 1806,-70 999,-70"/>
<text text-anchor="middle" x="1402.5" y="-711.8" font-family="Times,serif" font-size="14.00">Adoption of CASE 1.1.0</text>
</g>
<g id="clust5" class="cluster">
<title>cluster_case_utils_0_9_0</title>
<polygon fill="none" stroke="black" points="1007,-78 1007,-696 1798,-696 1798,-78 1007,-78"/>
<text text-anchor="middle" x="1402.5" y="-680.8" font-family="Times,serif" font-size="14.00">Adoption of case&#45;utils 0.9.0</text>
</g>
<g id="clust7" class="cluster">
<title>cluster_case_validation_action_2_3</title>
<polygon fill="none" stroke="black" points="1018,-526 1018,-603 1252,-603 1252,-526 1018,-526"/>
<text text-anchor="middle" x="1135" y="-587.8" font-family="Times,serif" font-size="14.00">Adoption of case&#45;validation&#45;action 2.3</text>
</g>
<g id="clust8" class="cluster">
<title>cluster_case_validation_action_2_5</title>
<polygon fill="none" stroke="black" points="1015,-188 1015,-518 1595,-518 1595,-188 1015,-188"/>
<text text-anchor="middle" x="1305" y="-502.8" font-family="Times,serif" font-size="14.00">Adoption of case&#45;validation&#45;action 2.5</text>
</g>
<g id="clust9" class="cluster">
<title>cluster_case_bindings_csharp_0_3_0</title>
<polygon fill="none" stroke="black" points="1040.5,-196 1040.5,-273 1587,-273 1587,-196 1040.5,-196"/>
<text text-anchor="middle" x="1313.75" y="-257.8" font-family="Times,serif" font-size="14.00">Adoption of CSharp bindings 0.3.0</text>
</g>
<g id="clust6" class="cluster">
<title>cluster_case_prov_0_6_0</title>
<polygon fill="none" stroke="black" points="1411,-588 1411,-665 1790,-665 1790,-588 1411,-588"/>
<text text-anchor="middle" x="1600.5" y="-649.8" font-family="Times,serif" font-size="14.00">Adoption of case&#45;prov 0.6.0</text>
</g>
<g id="clust10" class="cluster">
<title>cluster_uco_1_2_0</title>
<polygon fill="none" stroke="black" points="8,-521 8,-865 896,-865 896,-521 8,-521"/>
<text text-anchor="middle" x="452" y="-849.8" font-family="Times,serif" font-size="14.00">Adoption of UCO 1.2.0</text>
</g>
<g id="clust11" class="cluster">
<title>cluster_case_1_2_0</title>
<polygon fill="none" stroke="black" points="212,-529 212,-834 888,-834 888,-529 212,-529"/>
<text text-anchor="middle" x="550" y="-818.8" font-family="Times,serif" font-size="14.00">Adoption of CASE 1.2.0</text>
</g>
<g id="clust12" class="cluster">
<title>cluster_case_utils_0_10_0</title>
<polygon fill="none" stroke="black" points="456,-583 456,-803 880,-803 880,-583 456,-583"/>
<text text-anchor="middle" x="668" y="-787.8" font-family="Times,serif" font-size="14.00">Adoption of case&#45;utils 0.10.0</text>
</g>
<g id="clust13" class="cluster">
<title>cluster_case_validation_action_2_6</title>
<polygon fill="none" stroke="black" points="645,-695 645,-772 872,-772 872,-695 645,-695"/>
<text text-anchor="middle" x="758.5" y="-756.8" font-family="Times,serif" font-size="14.00">Adoption of case&#45;validation&#45;action 2.6</text>
</g>
<!-- _GH__UCOPROJECT__ONTOLOGY_UNIFIEDCYBERONTOLOGY_ORG -->
<g id="node1" class="node">
<title>_GH__UCOPROJECT__ONTOLOGY_UNIFIEDCYBERONTOLOGY_ORG</title>
<g id="a_node1"><a xlink:href="https://github.com/ucoProject/ontology.unifiedcyberontology.org" xlink:title="UCO documentation\nregenerated">
<path fill="#8ec7d2" stroke="#0d6986" d="M326,-395C326,-395 220,-395 220,-395 214,-395 208,-389 208,-383 208,-383 208,-369 208,-369 208,-363 214,-357 220,-357 220,-357 326,-357 326,-357 332,-357 338,-363 338,-369 338,-369 338,-383 338,-383 338,-389 332,-395 326,-395"/>
<text text-anchor="middle" x="273" y="-379.8" font-family="Times,serif" font-size="14.00">UCO documentation</text>
<text text-anchor="middle" x="273" y="-364.8" font-family="Times,serif" font-size="14.00">regenerated</text>
</a>
</g>
</g>
<!-- _GH__CASEWORK__CASE_MAPPING_TEMPLATE_STUBS -->
<g id="node2" class="node">
<title>_GH__CASEWORK__CASE_MAPPING_TEMPLATE_STUBS</title>
<g id="a_node2"><a xlink:href="https://github.com/casework/CASE-Mapping-Template-Stubs" xlink:title="CASE Mapping\nTemplate Stubs">
<path fill="#8ec7d2" stroke="#0d6986" d="M313,-451C313,-451 233,-451 233,-451 227,-451 221,-445 221,-439 221,-439 221,-425 221,-425 221,-419 227,-413 233,-413 233,-413 313,-413 313,-413 319,-413 325,-419 325,-425 325,-425 325,-439 325,-439 325,-445 319,-451 313,-451"/>
<text text-anchor="middle" x="273" y="-435.8" font-family="Times,serif" font-size="14.00">CASE Mapping</text>
<text text-anchor="middle" x="273" y="-420.8" font-family="Times,serif" font-size="14.00">Template Stubs</text>
</a>
</g>
</g>
<!-- _GH__AJNELSON_NIST__CASE_EXAMPLES_QC -->
<g id="node3" class="node">
<title>_GH__AJNELSON_NIST__CASE_EXAMPLES_QC</title>
<g id="a_node3"><a xlink:href="https://github.com/ajnelson-nist/CASE-Examples-QC" xlink:title="CASE&#45;Examples&#45;QC\nadopts CASE&#45;Examples and\nCASE website updates">
<path fill="#8ec7d2" stroke="#0d6986" d="M1209,-664.5C1209,-664.5 1061,-664.5 1061,-664.5 1055,-664.5 1049,-658.5 1049,-652.5 1049,-652.5 1049,-623.5 1049,-623.5 1049,-617.5 1055,-611.5 1061,-611.5 1061,-611.5 1209,-611.5 1209,-611.5 1215,-611.5 1221,-617.5 1221,-623.5 1221,-623.5 1221,-652.5 1221,-652.5 1221,-658.5 1215,-664.5 1209,-664.5"/>
<text text-anchor="middle" x="1135" y="-649.3" font-family="Times,serif" font-size="14.00">CASE&#45;Examples&#45;QC</text>
<text text-anchor="middle" x="1135" y="-634.3" font-family="Times,serif" font-size="14.00">adopts CASE&#45;Examples and</text>
<text text-anchor="middle" x="1135" y="-619.3" font-family="Times,serif" font-size="14.00">CASE website updates</text>
</a>
</g>
</g>
<!-- _GH__CASEWORK__CASE_IMPLEMENTATON_PROV_O -->
<g id="node7" class="node">
<title>_GH__CASEWORK__CASE_IMPLEMENTATON_PROV_O</title>
<g id="a_node7"><a xlink:href="https://github.com/casework/CASE-Implementation-PROV-O" xlink:title="case&#45;prov\nreleases">
<path fill="#8ec7d2" stroke="#0d6986" d="M1476,-634C1476,-634 1431,-634 1431,-634 1425,-634 1419,-628 1419,-622 1419,-622 1419,-608 1419,-608 1419,-602 1425,-596 1431,-596 1431,-596 1476,-596 1476,-596 1482,-596 1488,-602 1488,-608 1488,-608 1488,-622 1488,-622 1488,-628 1482,-634 1476,-634"/>
<text text-anchor="middle" x="1453.5" y="-618.8" font-family="Times,serif" font-size="14.00">case&#45;prov</text>
<text text-anchor="middle" x="1453.5" y="-603.8" font-family="Times,serif" font-size="14.00">releases</text>
</a>
</g>
</g>
<!-- _GH__AJNELSON_NIST__CASE_EXAMPLES_QC&#45;&gt;_GH__CASEWORK__CASE_IMPLEMENTATON_PROV_O -->
<g id="edge1" class="edge">
<title>_GH__AJNELSON_NIST__CASE_EXAMPLES_QC&#45;&gt;_GH__CASEWORK__CASE_IMPLEMENTATON_PROV_O</title>
<path fill="none" stroke="black" d="M1221.23,-631.81C1281.11,-627.45 1358.85,-621.81 1407.2,-618.29"/>
<polygon fill="black" stroke="black" points="1407.31,-621.79 1417.03,-617.58 1406.8,-614.81 1407.31,-621.79"/>
<text text-anchor="middle" x="1287.5" y="-647.8" font-family="Times,serif" font-size="14.00">Git sub&#45;</text>
<text text-anchor="middle" x="1287.5" y="-632.8" font-family="Times,serif" font-size="14.00">module</text>
</g>
<!-- _GH__CASEWORK__CASE_IMPLEMENTATON_EXIFTOOL -->
<g id="node4" class="node">
<title>_GH__CASEWORK__CASE_IMPLEMENTATON_EXIFTOOL</title>
<g id="a_node4"><a xlink:href="https://github.com/casework/CASE-Implementation-ExifTool" xlink:title="CASE&#45;Implementation&#45;ExifTool\nadopts new case&#45;utils">
<path fill="#8ec7d2" stroke="#0d6986" d="M1221,-180C1221,-180 1049,-180 1049,-180 1043,-180 1037,-174 1037,-168 1037,-168 1037,-154 1037,-154 1037,-148 1043,-142 1049,-142 1049,-142 1221,-142 1221,-142 1227,-142 1233,-148 1233,-154 1233,-154 1233,-168 1233,-168 1233,-174 1227,-180 1221,-180"/>
<text text-anchor="middle" x="1135" y="-164.8" font-family="Times,serif" font-size="14.00">CASE&#45;Implementation&#45;ExifTool</text>
<text text-anchor="middle" x="1135" y="-149.8" font-family="Times,serif" font-size="14.00">adopts new case&#45;utils</text>
</a>
</g>
</g>
<!-- _GH__CASEWORK__CASE_IMPLEMENTATON_GNU_TIME -->
<g id="node5" class="node">
<title>_GH__CASEWORK__CASE_IMPLEMENTATON_GNU_TIME</title>
<g id="a_node5"><a xlink:href="https://github.com/casework/CASE-Implementation-GNU-Time" xlink:title="CASE&#45;Implementation&#45;GNU&#45;Time\nadopts new case&#45;utils">
<path fill="#8ec7d2" stroke="#0d6986" d="M1228,-124C1228,-124 1042,-124 1042,-124 1036,-124 1030,-118 1030,-112 1030,-112 1030,-98 1030,-98 1030,-92 1036,-86 1042,-86 1042,-86 1228,-86 1228,-86 1234,-86 1240,-92 1240,-98 1240,-98 1240,-112 1240,-112 1240,-118 1234,-124 1228,-124"/>
<text text-anchor="middle" x="1135" y="-108.8" font-family="Times,serif" font-size="14.00">CASE&#45;Implementation&#45;GNU&#45;Time</text>
<text text-anchor="middle" x="1135" y="-93.8" font-family="Times,serif" font-size="14.00">adopts new case&#45;utils</text>
</a>
</g>
</g>
<!-- _GH__CASEWORK__CASE_CORPORA -->
<g id="node6" class="node">
<title>_GH__CASEWORK__CASE_CORPORA</title>
<g id="a_node6"><a xlink:href="https://github.com/casework/CASE-Corpora" xlink:title="CASE&#45;Corpora\nadopts new case&#45;prov">
<path fill="#8ec7d2" stroke="#0d6986" d="M1770,-634C1770,-634 1660,-634 1660,-634 1654,-634 1648,-628 1648,-622 1648,-622 1648,-608 1648,-608 1648,-602 1654,-596 1660,-596 1660,-596 1770,-596 1770,-596 1776,-596 1782,-602 1782,-608 1782,-608 1782,-622 1782,-622 1782,-628 1776,-634 1770,-634"/>
<text text-anchor="middle" x="1715" y="-618.8" font-family="Times,serif" font-size="14.00">CASE&#45;Corpora</text>
<text text-anchor="middle" x="1715" y="-603.8" font-family="Times,serif" font-size="14.00">adopts new case&#45;prov</text>
</a>
</g>
</g>
<!-- _GH__CASEWORK__CASE_IMPLEMENTATON_PROV_O&#45;&gt;_GH__CASEWORK__CASE_CORPORA -->
<g id="edge6" class="edge">
<title>_GH__CASEWORK__CASE_IMPLEMENTATON_PROV_O&#45;&gt;_GH__CASEWORK__CASE_CORPORA</title>
<path fill="none" stroke="black" d="M1488.43,-615C1525.77,-615 1587.04,-615 1636.31,-615"/>
<polygon fill="black" stroke="black" points="1636.07,-618.5 1646.07,-615 1636.07,-611.5 1636.07,-618.5"/>
<text text-anchor="middle" x="1616.5" y="-618.8" font-family="Times,serif" font-size="14.00">PyPI</text>
</g>
<!-- _GH__CASEWORK__CASE_IMPLEMENTATON_UFED_XML -->
<g id="node8" class="node">
<title>_GH__CASEWORK__CASE_IMPLEMENTATON_UFED_XML</title>
<g id="a_node8"><a xlink:href="https://github.com/casework/CASE-Implementation-UFED-XML" xlink:title="CASE&#45;Implementation&#45;UFED&#45;XML\nadopts new case&#45;validation&#45;action">
<path fill="#8ec7d2" stroke="#0d6986" d="M1232,-572C1232,-572 1038,-572 1038,-572 1032,-572 1026,-566 1026,-560 1026,-560 1026,-546 1026,-546 1026,-540 1032,-534 1038,-534 1038,-534 1232,-534 1232,-534 1238,-534 1244,-540 1244,-546 1244,-546 1244,-560 1244,-560 1244,-566 1238,-572 1232,-572"/>
<text text-anchor="middle" x="1135" y="-556.8" font-family="Times,serif" font-size="14.00">CASE&#45;Implementation&#45;UFED&#45;XML</text>
<text text-anchor="middle" x="1135" y="-541.8" font-family="Times,serif" font-size="14.00">adopts new case&#45;validation&#45;action</text>
</a>
</g>
</g>
<!-- _GH__CASEWORK__CASE_IMPLEMENTATON_PYPI_EXIFREAD -->
<g id="node9" class="node">
<title>_GH__CASEWORK__CASE_IMPLEMENTATON_PYPI_EXIFREAD</title>
<g id="a_node9"><a xlink:href="https://github.com/casework/CASE-Implementation-PyPI-Exifread" xlink:title="CASE&#45;Implementation&#45;PyPI&#45;Exifread\nadopts new case&#45;validation&#45;action">
<path fill="#8ec7d2" stroke="#0d6986" d="M1235,-375C1235,-375 1035,-375 1035,-375 1029,-375 1023,-369 1023,-363 1023,-363 1023,-349 1023,-349 1023,-343 1029,-337 1035,-337 1035,-337 1235,-337 1235,-337 1241,-337 1247,-343 1247,-349 1247,-349 1247,-363 1247,-363 1247,-369 1241,-375 1235,-375"/>
<text text-anchor="middle" x="1135" y="-359.8" font-family="Times,serif" font-size="14.00">CASE&#45;Implementation&#45;PyPI&#45;Exifread</text>
<text text-anchor="middle" x="1135" y="-344.8" font-family="Times,serif" font-size="14.00">adopts new case&#45;validation&#45;action</text>
</a>
</g>
</g>
<!-- _GH__CASEWORK__CASE_IMPLEMENTATON_PYPI_PILLOW -->
<g id="node10" class="node">
<title>_GH__CASEWORK__CASE_IMPLEMENTATON_PYPI_PILLOW</title>
<g id="a_node10"><a xlink:href="https://github.com/casework/CASE-Implementation-PyPI-Pillow" xlink:title="CASE&#45;Implementation&#45;PyPI&#45;Pillow\nadopts new case&#45;validation&#45;action">
<path fill="#8ec7d2" stroke="#0d6986" d="M1229.5,-319C1229.5,-319 1040.5,-319 1040.5,-319 1034.5,-319 1028.5,-313 1028.5,-307 1028.5,-307 1028.5,-293 1028.5,-293 1028.5,-287 1034.5,-281 1040.5,-281 1040.5,-281 1229.5,-281 1229.5,-281 1235.5,-281 1241.5,-287 1241.5,-293 1241.5,-293 1241.5,-307 1241.5,-307 1241.5,-313 1235.5,-319 1229.5,-319"/>
<text text-anchor="middle" x="1135" y="-303.8" font-family="Times,serif" font-size="14.00">CASE&#45;Implementation&#45;PyPI&#45;Pillow</text>
<text text-anchor="middle" x="1135" y="-288.8" font-family="Times,serif" font-size="14.00">adopts new case&#45;validation&#45;action</text>
</a>
</g>
</g>
<!-- _GH__CASEWORK__CASE_IMPLEMENTATON_XRY -->
<g id="node11" class="node">
<title>_GH__CASEWORK__CASE_IMPLEMENTATON_XRY</title>
<g id="a_node11"><a xlink:href="https://github.com/casework/CASE-Implementation-XRY" xlink:title="CASE&#45;Implementation&#45;XRY adopts\nnew case&#45;validation&#45;action">
<path fill="#8ec7d2" stroke="#0d6986" d="M1230,-487C1230,-487 1040,-487 1040,-487 1034,-487 1028,-481 1028,-475 1028,-475 1028,-461 1028,-461 1028,-455 1034,-449 1040,-449 1040,-449 1230,-449 1230,-449 1236,-449 1242,-455 1242,-461 1242,-461 1242,-475 1242,-475 1242,-481 1236,-487 1230,-487"/>
<text text-anchor="middle" x="1135" y="-471.8" font-family="Times,serif" font-size="14.00">CASE&#45;Implementation&#45;XRY adopts</text>
<text text-anchor="middle" x="1135" y="-456.8" font-family="Times,serif" font-size="14.00">new case&#45;validation&#45;action</text>
</a>
</g>
</g>
<!-- _GH__CASEWORK__CASE_MAPPING_TEMPLATE_PYTHON -->
<g id="node12" class="node">
<title>_GH__CASEWORK__CASE_MAPPING_TEMPLATE_PYTHON</title>
<g id="a_node12"><a xlink:href="https://github.com/casework/CASE-Mapping-Template-Python" xlink:title="CASE&#45;Mapping&#45;Template&#45;Python\nadopts new case&#45;validation&#45;action">
<path fill="#8ec7d2" stroke="#0d6986" d="M1225,-431C1225,-431 1045,-431 1045,-431 1039,-431 1033,-425 1033,-419 1033,-419 1033,-405 1033,-405 1033,-399 1039,-393 1045,-393 1045,-393 1225,-393 1225,-393 1231,-393 1237,-399 1237,-405 1237,-405 1237,-419 1237,-419 1237,-425 1231,-431 1225,-431"/>
<text text-anchor="middle" x="1135" y="-415.8" font-family="Times,serif" font-size="14.00">CASE&#45;Mapping&#45;Template&#45;Python</text>
<text text-anchor="middle" x="1135" y="-400.8" font-family="Times,serif" font-size="14.00">adopts new case&#45;validation&#45;action</text>
</a>
</g>
</g>
<!-- _GH__CASEWORK__CASE_BINDINGS_CSHARP_MONITOR -->
<g id="node13" class="node">
<title>_GH__CASEWORK__CASE_BINDINGS_CSHARP_MONITOR</title>
<g id="a_node13"><a xlink:href="https://github.com/casework/CASE-Bindings-CSharp-Monitor" xlink:title="CASE Bindings CSharp Monitor\ntests NuGet package with validation action">
<path fill="#8ec7d2" stroke="#0d6986" d="M1567,-242C1567,-242 1340,-242 1340,-242 1334,-242 1328,-236 1328,-230 1328,-230 1328,-216 1328,-216 1328,-210 1334,-204 1340,-204 1340,-204 1567,-204 1567,-204 1573,-204 1579,-210 1579,-216 1579,-216 1579,-230 1579,-230 1579,-236 1573,-242 1567,-242"/>
<text text-anchor="middle" x="1453.5" y="-226.8" font-family="Times,serif" font-size="14.00">CASE Bindings CSharp Monitor</text>
<text text-anchor="middle" x="1453.5" y="-211.8" font-family="Times,serif" font-size="14.00">tests NuGet package with validation action</text>
</a>
</g>
</g>
<!-- _GH__CIPHERTECHSOLUTIONS__CASE_BINDINGS_CSHARP -->
<g id="node14" class="node">
<title>_GH__CIPHERTECHSOLUTIONS__CASE_BINDINGS_CSHARP</title>
<g id="a_node14"><a xlink:href="https://github.com/ciphertechsolutions/CASE-Bindings-CSharp" xlink:title="CASE&#45;Bindings&#45;CSharp\nadopts new ontology version">
<path fill="#8ec7d2" stroke="#0d6986" d="M1209.5,-242C1209.5,-242 1060.5,-242 1060.5,-242 1054.5,-242 1048.5,-236 1048.5,-230 1048.5,-230 1048.5,-216 1048.5,-216 1048.5,-210 1054.5,-204 1060.5,-204 1060.5,-204 1209.5,-204 1209.5,-204 1215.5,-204 1221.5,-210 1221.5,-216 1221.5,-216 1221.5,-230 1221.5,-230 1221.5,-236 1215.5,-242 1209.5,-242"/>
<text text-anchor="middle" x="1135" y="-226.8" font-family="Times,serif" font-size="14.00">CASE&#45;Bindings&#45;CSharp</text>
<text text-anchor="middle" x="1135" y="-211.8" font-family="Times,serif" font-size="14.00">adopts new ontology version</text>
</a>
</g>
</g>
<!-- _GH__CIPHERTECHSOLUTIONS__CASE_BINDINGS_CSHARP&#45;&gt;_GH__CASEWORK__CASE_BINDINGS_CSHARP_MONITOR -->
<g id="edge15" class="edge">
<title>_GH__CIPHERTECHSOLUTIONS__CASE_BINDINGS_CSHARP&#45;&gt;_GH__CASEWORK__CASE_BINDINGS_CSHARP_MONITOR</title>
<path fill="none" stroke="black" d="M1221.68,-219.21C1236.14,-218.71 1250.99,-218.27 1265,-218 1281.63,-217.68 1299.08,-217.68 1316.37,-217.9"/>
<polygon fill="black" stroke="black" points="1316.13,-221.39 1326.18,-218.05 1316.24,-214.4 1316.13,-221.39"/>
<text text-anchor="middle" x="1287.5" y="-221.8" font-family="Times,serif" font-size="14.00">NuGet</text>
</g>
<!-- _GH__UCOPROJECT__UCO -->
<g id="node15" class="node">
<title>_GH__UCOPROJECT__UCO</title>
<g id="a_node15"><a xlink:href="https://github.com/ucoProject/UCO" xlink:title="UCO Ontology\nreleases">
<path fill="#8ec7d2" stroke="#0d6986" d="M104,-571C104,-571 28,-571 28,-571 22,-571 16,-565 16,-559 16,-559 16,-545 16,-545 16,-539 22,-533 28,-533 28,-533 104,-533 104,-533 110,-533 116,-539 116,-545 116,-545 116,-559 116,-559 116,-565 110,-571 104,-571"/>
<text text-anchor="middle" x="66" y="-555.8" font-family="Times,serif" font-size="14.00">UCO Ontology</text>
<text text-anchor="middle" x="66" y="-540.8" font-family="Times,serif" font-size="14.00">releases</text>
</a>
</g>
</g>
<!-- _GH__UCOPROJECT__UCO&#45;&gt;_GH__UCOPROJECT__ONTOLOGY_UNIFIEDCYBERONTOLOGY_ORG -->
<g id="edge24" class="edge">
<title>_GH__UCOPROJECT__UCO&#45;&gt;_GH__UCOPROJECT__ONTOLOGY_UNIFIEDCYBERONTOLOGY_ORG</title>
<path fill="none" stroke="black" d="M77.41,-532.67C95.71,-500.53 136.7,-436.16 189,-401 191.69,-399.19 194.52,-397.51 197.44,-395.94"/>
<polygon fill="black" stroke="black" points="198.78,-399.18 206.31,-391.72 195.77,-392.86 198.78,-399.18"/>
<text text-anchor="middle" x="156.5" y="-469.8" font-family="Times,serif" font-size="14.00">Git sub&#45;</text>
<text text-anchor="middle" x="156.5" y="-454.8" font-family="Times,serif" font-size="14.00">module</text>
</g>
<!-- _GH__CASEWORK__CASE -->
<g id="node16" class="node">
<title>_GH__CASEWORK__CASE</title>
<g id="a_node16"><a xlink:href="https://github.com/casework/CASE" xlink:title="CASE Ontology\nreleases">
<path fill="#8ec7d2" stroke="#0d6986" d="M314,-575C314,-575 232,-575 232,-575 226,-575 220,-569 220,-563 220,-563 220,-549 220,-549 220,-543 226,-537 232,-537 232,-537 314,-537 314,-537 320,-537 326,-543 326,-549 326,-549 326,-563 326,-563 326,-569 320,-575 314,-575"/>
<text text-anchor="middle" x="273" y="-559.8" font-family="Times,serif" font-size="14.00">CASE Ontology</text>
<text text-anchor="middle" x="273" y="-544.8" font-family="Times,serif" font-size="14.00">releases</text>
</a>
</g>
</g>
<!-- _GH__UCOPROJECT__UCO&#45;&gt;_GH__CASEWORK__CASE -->
<g id="edge23" class="edge">
<title>_GH__UCOPROJECT__UCO&#45;&gt;_GH__CASEWORK__CASE</title>
<path fill="none" stroke="black" d="M116.36,-552.96C143.98,-553.5 178.7,-554.18 208.34,-554.76"/>
<polygon fill="black" stroke="black" points="208.26,-558.26 218.33,-554.95 208.4,-551.26 208.26,-558.26"/>
<text text-anchor="middle" x="156.5" y="-573.8" font-family="Times,serif" font-size="14.00">Git sub&#45;</text>
<text text-anchor="middle" x="156.5" y="-558.8" font-family="Times,serif" font-size="14.00">module</text>
</g>
<!-- _GH__CASEWORK__CASE&#45;&gt;_GH__CIPHERTECHSOLUTIONS__CASE_BINDINGS_CSHARP -->
<g id="edge3" class="edge">
<title>_GH__CASEWORK__CASE&#45;&gt;_GH__CIPHERTECHSOLUTIONS__CASE_BINDINGS_CSHARP</title>
<path fill="none" stroke="black" d="M314.83,-536.65C414.47,-489.69 678.46,-366.98 904,-277 942.13,-261.79 951.24,-256.19 991,-246 1005.7,-242.23 1021.42,-238.96 1036.85,-236.17"/>
<polygon fill="black" stroke="black" points="1037.29,-239.64 1046.54,-234.47 1036.08,-232.75 1037.29,-239.64"/>
</g>
<!-- _GH__CASEWORK__ONTOLOGY_CASEONTOLOGY_ORG -->
<g id="node17" class="node">
<title>_GH__CASEWORK__ONTOLOGY_CASEONTOLOGY_ORG</title>
<g id="a_node17"><a xlink:href="https://github.com/casework/ontology.caseontology.org" xlink:title="CASE documentation\nregenerated">
<path fill="#8ec7d2" stroke="#0d6986" d="M554,-575C554,-575 442,-575 442,-575 436,-575 430,-569 430,-563 430,-563 430,-549 430,-549 430,-543 436,-537 442,-537 442,-537 554,-537 554,-537 560,-537 566,-543 566,-549 566,-549 566,-563 566,-563 566,-569 560,-575 554,-575"/>
<text text-anchor="middle" x="498" y="-559.8" font-family="Times,serif" font-size="14.00">CASE documentation</text>
<text text-anchor="middle" x="498" y="-544.8" font-family="Times,serif" font-size="14.00">regenerated</text>
</a>
</g>
</g>
<!-- _GH__CASEWORK__CASE&#45;&gt;_GH__CASEWORK__ONTOLOGY_CASEONTOLOGY_ORG -->
<g id="edge4" class="edge">
<title>_GH__CASEWORK__CASE&#45;&gt;_GH__CASEWORK__ONTOLOGY_CASEONTOLOGY_ORG</title>
<path fill="none" stroke="black" d="M326.28,-556C353.68,-556 387.8,-556 418.31,-556"/>
<polygon fill="black" stroke="black" points="418.3,-559.5 428.3,-556 418.3,-552.5 418.3,-559.5"/>
<text text-anchor="middle" x="389.5" y="-574.8" font-family="Times,serif" font-size="14.00">Git sub&#45;</text>
<text text-anchor="middle" x="389.5" y="-559.8" font-family="Times,serif" font-size="14.00">module</text>
</g>
<!-- _GH__CASEWORK__CASE_UTILITIES_PYTHON -->
<g id="node19" class="node">
<title>_GH__CASEWORK__CASE_UTILITIES_PYTHON</title>
<g id="a_node19"><a xlink:href="https://github.com/casework/CASE-Utilities-Python" xlink:title="case&#45;utils\nreleases">
<path fill="#8ec7d2" stroke="#0d6986" d="M520,-631C520,-631 476,-631 476,-631 470,-631 464,-625 464,-619 464,-619 464,-605 464,-605 464,-599 470,-593 476,-593 476,-593 520,-593 520,-593 526,-593 532,-599 532,-605 532,-605 532,-619 532,-619 532,-625 526,-631 520,-631"/>
<text text-anchor="middle" x="498" y="-615.8" font-family="Times,serif" font-size="14.00">case&#45;utils</text>
<text text-anchor="middle" x="498" y="-600.8" font-family="Times,serif" font-size="14.00">releases</text>
</a>
</g>
</g>
<!-- _GH__CASEWORK__CASE&#45;&gt;_GH__CASEWORK__CASE_UTILITIES_PYTHON -->
<g id="edge2" class="edge">
<title>_GH__CASEWORK__CASE&#45;&gt;_GH__CASEWORK__CASE_UTILITIES_PYTHON</title>
<path fill="none" stroke="black" d="M326.21,-575.49C339.4,-579.99 353.62,-584.48 367,-588 395.1,-595.39 427.21,-601.34 452.48,-605.46"/>
<polygon fill="black" stroke="black" points="451.65,-608.88 462.08,-606.99 452.75,-601.96 451.65,-608.88"/>
<text text-anchor="middle" x="389.5" y="-616.8" font-family="Times,serif" font-size="14.00">Git sub&#45;</text>
<text text-anchor="middle" x="389.5" y="-601.8" font-family="Times,serif" font-size="14.00">module</text>
</g>
<!-- _GH__CASEWORK__CASE_EXAMPLES -->
<g id="node18" class="node">
<title>_GH__CASEWORK__CASE_EXAMPLES</title>
<g id="a_node18"><a xlink:href="https://github.com/casework/CASE-Examples" xlink:title="CASE&#45;Examples\nadopts new case&#45;utils">
<path fill="#8ec7d2" stroke="#0d6986" d="M812.5,-629C812.5,-629 703.5,-629 703.5,-629 697.5,-629 691.5,-623 691.5,-617 691.5,-617 691.5,-603 691.5,-603 691.5,-597 697.5,-591 703.5,-591 703.5,-591 812.5,-591 812.5,-591 818.5,-591 824.5,-597 824.5,-603 824.5,-603 824.5,-617 824.5,-617 824.5,-623 818.5,-629 812.5,-629"/>
<text text-anchor="middle" x="758" y="-613.8" font-family="Times,serif" font-size="14.00">CASE&#45;Examples</text>
<text text-anchor="middle" x="758" y="-598.8" font-family="Times,serif" font-size="14.00">adopts new case&#45;utils</text>
</a>
</g>
</g>
<!-- _GH__CASEWORK__CASE_EXAMPLES&#45;&gt;_GH__AJNELSON_NIST__CASE_EXAMPLES_QC -->
<g id="edge5" class="edge">
<title>_GH__CASEWORK__CASE_EXAMPLES&#45;&gt;_GH__AJNELSON_NIST__CASE_EXAMPLES_QC</title>
<path fill="none" stroke="black" d="M824.8,-608.76C869.5,-608.51 929.92,-609.33 983,-614 1000.74,-615.56 1019.55,-617.95 1037.65,-620.63"/>
<polygon fill="black" stroke="black" points="1036.9,-624.06 1047.31,-622.1 1037.96,-617.14 1036.9,-624.06"/>
<text text-anchor="middle" x="943.5" y="-632.8" font-family="Times,serif" font-size="14.00">Git sub&#45;</text>
<text text-anchor="middle" x="943.5" y="-617.8" font-family="Times,serif" font-size="14.00">module</text>
</g>
<!-- _GH__CASEWORK__CASE_UTILITIES_PYTHON&#45;&gt;_GH__AJNELSON_NIST__CASE_EXAMPLES_QC -->
<g id="edge7" class="edge">
<title>_GH__CASEWORK__CASE_UTILITIES_PYTHON&#45;&gt;_GH__AJNELSON_NIST__CASE_EXAMPLES_QC</title>
<path fill="none" stroke="black" d="M532.38,-600.44C568.3,-588.23 623.23,-570.28 645,-567 755.31,-550.39 786.65,-544.92 896,-567 940.91,-576.07 947.32,-593.2 991,-607 1005.96,-611.73 1022.02,-615.97 1037.78,-619.7"/>
<polygon fill="black" stroke="black" points="1036.63,-623.03 1047.16,-621.86 1038.2,-616.21 1036.63,-623.03"/>
<text text-anchor="middle" x="758" y="-570.8" font-family="Times,serif" font-size="14.00">PyPI</text>
</g>
<!-- _GH__CASEWORK__CASE_UTILITIES_PYTHON&#45;&gt;_GH__CASEWORK__CASE_IMPLEMENTATON_EXIFTOOL -->
<g id="edge9" class="edge">
<title>_GH__CASEWORK__CASE_UTILITIES_PYTHON&#45;&gt;_GH__CASEWORK__CASE_IMPLEMENTATON_EXIFTOOL</title>
<path fill="none" stroke="black" d="M532.5,-604.02C543.69,-600.45 555.88,-595.55 566,-589 577.53,-581.54 892.7,-235.82 904,-228 939.87,-203.18 984.96,-187.45 1025.68,-177.53"/>
<polygon fill="black" stroke="black" points="1026.35,-180.97 1035.29,-175.29 1024.76,-174.15 1026.35,-180.97"/>
<text text-anchor="middle" x="758" y="-508.8" font-family="Times,serif" font-size="14.00">PyPI</text>
</g>
<!-- _GH__CASEWORK__CASE_UTILITIES_PYTHON&#45;&gt;_GH__CASEWORK__CASE_IMPLEMENTATON_GNU_TIME -->
<g id="edge10" class="edge">
<title>_GH__CASEWORK__CASE_UTILITIES_PYTHON&#45;&gt;_GH__CASEWORK__CASE_IMPLEMENTATON_GNU_TIME</title>
<path fill="none" stroke="black" d="M532.49,-607.52C544.62,-604.27 557.43,-598.66 566,-589 593.88,-557.54 615.77,-249.22 645,-219 741.46,-119.28 906.99,-99.49 1018.42,-98.79"/>
<polygon fill="black" stroke="black" points="1018.2,-102.29 1028.2,-98.78 1018.19,-95.29 1018.2,-102.29"/>
<text text-anchor="middle" x="758" y="-222.8" font-family="Times,serif" font-size="14.00">PyPI</text>
</g>
<!-- _GH__CASEWORK__CASE_UTILITIES_PYTHON&#45;&gt;_GH__CASEWORK__CASE_IMPLEMENTATON_PROV_O -->
<g id="edge11" class="edge">
<title>_GH__CASEWORK__CASE_UTILITIES_PYTHON&#45;&gt;_GH__CASEWORK__CASE_IMPLEMENTATON_PROV_O</title>
<path fill="none" stroke="black" d="M510.95,-631.28C533.14,-665.5 584.04,-736.89 645,-776 780.38,-862.84 831.94,-858.18 991,-882 1105.72,-899.18 1148.23,-933.85 1252,-882 1353.09,-831.49 1416.48,-703.09 1440.97,-644.71"/>
<polygon fill="black" stroke="black" points="1444.1,-646.31 1444.65,-635.73 1437.62,-643.66 1444.1,-646.31"/>
<text text-anchor="middle" x="943.5" y="-883.8" font-family="Times,serif" font-size="14.00">PyPI</text>
</g>
<!-- _GH__CASEWORK__CASE_UTILITIES_PYTHON&#45;&gt;_GH__CASEWORK__CASE_EXAMPLES -->
<g id="edge8" class="edge">
<title>_GH__CASEWORK__CASE_UTILITIES_PYTHON&#45;&gt;_GH__CASEWORK__CASE_EXAMPLES</title>
<path fill="none" stroke="black" d="M532.46,-611.74C569.59,-611.45 630.73,-610.98 679.85,-610.6"/>
<polygon fill="black" stroke="black" points="679.6,-614.1 689.57,-610.52 679.55,-607.1 679.6,-614.1"/>
<text text-anchor="middle" x="597.5" y="-615.8" font-family="Times,serif" font-size="14.00">PyPI</text>
</g>
<!-- _GH__CASEWORK__CASEWORK_GITHUB_IO -->
<g id="node20" class="node">
<title>_GH__CASEWORK__CASEWORK_GITHUB_IO</title>
<g id="a_node20"><a xlink:href="https://github.com/casework/casework.github.io" xlink:title="CASE website\nadopts new case&#45;utils">
<path fill="#8ec7d2" stroke="#0d6986" d="M812.5,-685C812.5,-685 703.5,-685 703.5,-685 697.5,-685 691.5,-679 691.5,-673 691.5,-673 691.5,-659 691.5,-659 691.5,-653 697.5,-647 703.5,-647 703.5,-647 812.5,-647 812.5,-647 818.5,-647 824.5,-653 824.5,-659 824.5,-659 824.5,-673 824.5,-673 824.5,-679 818.5,-685 812.5,-685"/>
<text text-anchor="middle" x="758" y="-669.8" font-family="Times,serif" font-size="14.00">CASE website</text>
<text text-anchor="middle" x="758" y="-654.8" font-family="Times,serif" font-size="14.00">adopts new case&#45;utils</text>
</a>
</g>
</g>
<!-- _GH__CASEWORK__CASE_UTILITIES_PYTHON&#45;&gt;_GH__CASEWORK__CASEWORK_GITHUB_IO -->
<g id="edge13" class="edge">
<title>_GH__CASEWORK__CASE_UTILITIES_PYTHON&#45;&gt;_GH__CASEWORK__CASEWORK_GITHUB_IO</title>
<path fill="none" stroke="black" d="M532.47,-619.65C548.11,-623.18 566.99,-627.38 584,-631 615.36,-637.68 649.99,-644.74 679.97,-650.76"/>
<polygon fill="black" stroke="black" points="679.24,-654.19 689.73,-652.72 680.61,-647.32 679.24,-654.19"/>
<text text-anchor="middle" x="597.5" y="-639.8" font-family="Times,serif" font-size="14.00">PyPI</text>
</g>
<!-- _GH__KCHASON__CASE_VALIDATION_ACTION -->
<g id="node21" class="node">
<title>_GH__KCHASON__CASE_VALIDATION_ACTION</title>
<g id="a_node21"><a xlink:href="https://github.com/kchason/case-validation-action" xlink:title="case&#45;validation&#45;action\nreleases">
<path fill="#8ec7d2" stroke="#0d6986" d="M814,-741C814,-741 702,-741 702,-741 696,-741 690,-735 690,-729 690,-729 690,-715 690,-715 690,-709 696,-703 702,-703 702,-703 814,-703 814,-703 820,-703 826,-709 826,-715 826,-715 826,-729 826,-729 826,-735 820,-741 814,-741"/>
<text text-anchor="middle" x="758" y="-725.8" font-family="Times,serif" font-size="14.00">case&#45;validation&#45;action</text>
<text text-anchor="middle" x="758" y="-710.8" font-family="Times,serif" font-size="14.00">releases</text>
</a>
</g>
</g>
<!-- _GH__CASEWORK__CASE_UTILITIES_PYTHON&#45;&gt;_GH__KCHASON__CASE_VALIDATION_ACTION -->
<g id="edge12" class="edge">
<title>_GH__CASEWORK__CASE_UTILITIES_PYTHON&#45;&gt;_GH__KCHASON__CASE_VALIDATION_ACTION</title>
<path fill="none" stroke="black" d="M525.31,-631.4C553.52,-651.28 600.3,-681.66 645,-699 655.66,-703.13 667.19,-706.57 678.66,-709.42"/>
<polygon fill="black" stroke="black" points="677.61,-712.77 688.14,-711.62 679.19,-705.95 677.61,-712.77"/>
<text text-anchor="middle" x="597.5" y="-685.8" font-family="Times,serif" font-size="14.00">PyPI</text>
</g>
<!-- _GH__CASEWORK__CASEWORK_GITHUB_IO&#45;&gt;_GH__AJNELSON_NIST__CASE_EXAMPLES_QC -->
<g id="edge14" class="edge">
<title>_GH__CASEWORK__CASEWORK_GITHUB_IO&#45;&gt;_GH__AJNELSON_NIST__CASE_EXAMPLES_QC</title>
<path fill="none" stroke="black" d="M824.75,-661.09C883.53,-656.7 970.42,-650.21 1037.15,-645.23"/>
<polygon fill="black" stroke="black" points="1037.3,-648.73 1047.01,-644.5 1036.78,-641.75 1037.3,-648.73"/>
<text text-anchor="middle" x="943.5" y="-673.8" font-family="Times,serif" font-size="14.00">Git sub&#45;</text>
<text text-anchor="middle" x="943.5" y="-658.8" font-family="Times,serif" font-size="14.00">module</text>
</g>
<!-- _GH__KCHASON__CASE_VALIDATION_ACTION&#45;&gt;_GH__CASEWORK__CASE_IMPLEMENTATON_UFED_XML -->
<g id="edge19" class="edge">
<title>_GH__KCHASON__CASE_VALIDATION_ACTION&#45;&gt;_GH__CASEWORK__CASE_IMPLEMENTATON_UFED_XML</title>
<g id="a_edge19"><a xlink:href="https://github.com/casework/CASE-Implementation-UFED-XML/pull/5" xlink:title="GitHub\nAction\nTODO: PR 5">
<path fill="none" stroke="black" d="M826.34,-727.24C851.76,-725.45 878.69,-718.3 896,-699 916.51,-676.13 882.03,-582.47 904,-561 942.72,-523.16 1004.89,-523.14 1054.84,-531.5"/>
<polygon fill="black" stroke="black" points="1053.99,-534.9 1064.45,-533.26 1055.25,-528.02 1053.99,-534.9"/>
</a>
</g>
<g id="a_edge19&#45;label"><a xlink:href="https://github.com/casework/CASE-Implementation-UFED-XML/pull/5" xlink:title="GitHub\nAction\nTODO: PR 5">
<text text-anchor="middle" x="943.5" y="-594.8" font-family="Times,serif" font-size="14.00">GitHub</text>
<text text-anchor="middle" x="943.5" y="-579.8" font-family="Times,serif" font-size="14.00">Action</text>
<text text-anchor="middle" x="943.5" y="-564.8" font-family="Times,serif" font-size="14.00">TODO: PR 5</text>
</a>
</g>
</g>
<!-- _GH__KCHASON__CASE_VALIDATION_ACTION&#45;&gt;_GH__CASEWORK__CASE_IMPLEMENTATON_PYPI_EXIFREAD -->
<g id="edge17" class="edge">
<title>_GH__KCHASON__CASE_VALIDATION_ACTION&#45;&gt;_GH__CASEWORK__CASE_IMPLEMENTATON_PYPI_EXIFREAD</title>
<path fill="none" stroke="black" d="M826.31,-727.56C851.89,-725.85 878.94,-718.68 896,-699 907.98,-685.19 891.31,-383.16 904,-370 919.42,-354 964.77,-349.25 1011.17,-349"/>
<polygon fill="black" stroke="black" points="1011.13,-352.5 1021.14,-349.02 1011.15,-345.5 1011.13,-352.5"/>
<text text-anchor="middle" x="943.5" y="-388.8" font-family="Times,serif" font-size="14.00">GitHub</text>
<text text-anchor="middle" x="943.5" y="-373.8" font-family="Times,serif" font-size="14.00">Action</text>
</g>
<!-- _GH__KCHASON__CASE_VALIDATION_ACTION&#45;&gt;_GH__CASEWORK__CASE_IMPLEMENTATON_PYPI_PILLOW -->
<g id="edge18" class="edge">
<title>_GH__KCHASON__CASE_VALIDATION_ACTION&#45;&gt;_GH__CASEWORK__CASE_IMPLEMENTATON_PYPI_PILLOW</title>
<path fill="none" stroke="black" d="M826.35,-727.59C851.92,-725.88 878.97,-718.71 896,-699 909.92,-682.9 889.32,-331.41 904,-316 937.35,-280.99 990.43,-275.46 1037.2,-279.38"/>
<polygon fill="black" stroke="black" points="1036.82,-282.86 1047.12,-280.38 1037.52,-275.89 1036.82,-282.86"/>
<text text-anchor="middle" x="943.5" y="-334.8" font-family="Times,serif" font-size="14.00">GitHub</text>
<text text-anchor="middle" x="943.5" y="-319.8" font-family="Times,serif" font-size="14.00">Action</text>
</g>
<!-- _GH__KCHASON__CASE_VALIDATION_ACTION&#45;&gt;_GH__CASEWORK__CASE_IMPLEMENTATON_XRY -->
<g id="edge20" class="edge">
<title>_GH__KCHASON__CASE_VALIDATION_ACTION&#45;&gt;_GH__CASEWORK__CASE_IMPLEMENTATON_XRY</title>
<path fill="none" stroke="black" d="M826.17,-727.43C851.72,-725.7 878.79,-718.55 896,-699 910.99,-681.97 888.59,-511.65 904,-495 932.26,-464.45 975.27,-454.19 1016.48,-452.81"/>
<polygon fill="black" stroke="black" points="1016.3,-456.31 1026.25,-452.67 1016.2,-449.32 1016.3,-456.31"/>
<text text-anchor="middle" x="943.5" y="-513.8" font-family="Times,serif" font-size="14.00">GitHub</text>
<text text-anchor="middle" x="943.5" y="-498.8" font-family="Times,serif" font-size="14.00">Action</text>
</g>
<!-- _GH__KCHASON__CASE_VALIDATION_ACTION&#45;&gt;_GH__CASEWORK__CASE_MAPPING_TEMPLATE_PYTHON -->
<g id="edge21" class="edge">
<title>_GH__KCHASON__CASE_VALIDATION_ACTION&#45;&gt;_GH__CASEWORK__CASE_MAPPING_TEMPLATE_PYTHON</title>
<path fill="none" stroke="black" d="M826.27,-727.52C851.83,-725.8 878.89,-718.64 896,-699 916.15,-675.87 882.51,-444.9 904,-423 920.69,-405.99 971.73,-402.44 1021.5,-403.5"/>
<polygon fill="black" stroke="black" points="1021.14,-406.99 1031.24,-403.77 1021.34,-399.99 1021.14,-406.99"/>
<text text-anchor="middle" x="943.5" y="-441.8" font-family="Times,serif" font-size="14.00">GitHub</text>
<text text-anchor="middle" x="943.5" y="-426.8" font-family="Times,serif" font-size="14.00">Action</text>
</g>
<!-- _GH__KCHASON__CASE_VALIDATION_ACTION&#45;&gt;_GH__CASEWORK__CASE_BINDINGS_CSHARP_MONITOR -->
<g id="edge16" class="edge">
<title>_GH__KCHASON__CASE_VALIDATION_ACTION&#45;&gt;_GH__CASEWORK__CASE_BINDINGS_CSHARP_MONITOR</title>
<path fill="none" stroke="black" d="M789.96,-741.4C871.9,-790.02 1098.62,-906.68 1252,-813 1300.18,-783.58 1292.56,-753.69 1310,-700 1326.12,-650.38 1315.45,-634.64 1328,-584 1359.24,-458 1415.53,-313.55 1440.27,-252.59"/>
<polygon fill="black" stroke="black" points="1443.4,-254.18 1443.94,-243.6 1436.92,-251.54 1443.4,-254.18"/>
<text text-anchor="middle" x="1135" y="-866.8" font-family="Times,serif" font-size="14.00">GitHub</text>
<text text-anchor="middle" x="1135" y="-851.8" font-family="Times,serif" font-size="14.00">Action</text>
</g>
<!-- _GH__DOD_CYBER_CRIME_CENTER__SQLITE_DISSECT -->
<g id="node22" class="node">
<title>_GH__DOD_CYBER_CRIME_CENTER__SQLITE_DISSECT</title>
<g id="a_node22"><a xlink:href="https://github.com/dod-cyber-crime-center/sqlite-dissect" xlink:title="sqlite&#45;dissect\nadopts new case&#45;validation&#45;action">
<path fill="#8ec7d2" stroke="#0d6986" d="M1223.5,-804C1223.5,-804 1046.5,-804 1046.5,-804 1040.5,-804 1034.5,-798 1034.5,-792 1034.5,-792 1034.5,-778 1034.5,-778 1034.5,-772 1040.5,-766 1046.5,-766 1046.5,-766 1223.5,-766 1223.5,-766 1229.5,-766 1235.5,-772 1235.5,-778 1235.5,-778 1235.5,-792 1235.5,-792 1235.5,-798 1229.5,-804 1223.5,-804"/>
<text text-anchor="middle" x="1135" y="-788.8" font-family="Times,serif" font-size="14.00">sqlite&#45;dissect</text>
<text text-anchor="middle" x="1135" y="-773.8" font-family="Times,serif" font-size="14.00">adopts new case&#45;validation&#45;action</text>
</a>
</g>
</g>
<!-- _GH__KCHASON__CASE_VALIDATION_ACTION&#45;&gt;_GH__DOD_CYBER_CRIME_CENTER__SQLITE_DISSECT -->
<g id="edge22" class="edge">
<title>_GH__KCHASON__CASE_VALIDATION_ACTION&#45;&gt;_GH__DOD_CYBER_CRIME_CENTER__SQLITE_DISSECT</title>
<g id="a_edge22"><a xlink:href="https://github.com/dod-cyber-crime-center/sqlite-dissect/pull/31" xlink:title="TODO: PR 31">
<path fill="none" stroke="black" d="M826.48,-733.34C881.08,-742.51 959.12,-755.62 1022.91,-766.34"/>
<polygon fill="black" stroke="black" points="1022.31,-769.78 1032.75,-767.99 1023.47,-762.88 1022.31,-769.78"/>
</a>
</g>
<g id="a_edge22&#45;label"><a xlink:href="https://github.com/dod-cyber-crime-center/sqlite-dissect/pull/31" xlink:title="TODO: PR 31">
<text text-anchor="middle" x="943.5" y="-762.8" font-family="Times,serif" font-size="14.00">TODO: PR 31</text>
</a>
</g>
</g>
</g>
</svg>
