<?xml version="1.0" encoding="UTF-8" standalone="no"?>
<!DOCTYPE svg PUBLIC "-//W3C//DTD SVG 1.1//EN"
 "http://www.w3.org/Graphics/SVG/1.1/DTD/svg11.dtd">
<!-- Generated by graphviz version 8.0.3 (20230416.2022)
 -->
<!-- Title: cdo_release_flow Pages: 1 -->
<svg width="1645pt" height="1226pt"
 viewBox="0.00 0.00 1645.00 1226.00" xmlns="http://www.w3.org/2000/svg" xmlns:xlink="http://www.w3.org/1999/xlink">
<g id="graph0" class="graph" transform="scale(1 1) rotate(0) translate(4 1222)">
<title>cdo_release_flow</title>
<polygon fill="white" stroke="none" points="-4,4 -4,-1222 1641,-1222 1641,4 -4,4"/>
<text text-anchor="middle" x="818.5" y="-38.8" font-family="Times,serif" font-size="14.00">Release flow of CDO ontologies</text>
<text text-anchor="middle" x="818.5" y="-7.8" font-family="Times,serif" font-size="14.00">Nodes link to the respective Git repository.</text>
<g id="clust1" class="cluster">
<title>cluster_uco_0_9_1</title>
<polygon fill="none" stroke="black" points="0,-139 0,-255 168,-255 168,-139 0,-139"/>
<text text-anchor="middle" x="84" y="-239.8" font-family="Times,serif" font-size="14.00">Adoption of UCO 0.9.1</text>
</g>
<g id="clust2" class="cluster">
<title>cluster_case_0_7_1</title>
<polygon fill="none" stroke="black" points="8,-147 8,-224 160,-224 160,-147 8,-147"/>
<text text-anchor="middle" x="84" y="-208.8" font-family="Times,serif" font-size="14.00">Adoption of CASE 0.7.1</text>
</g>
<g id="clust3" class="cluster">
<title>cluster_uco_1_1_0</title>
<polygon fill="none" stroke="black" points="972,-100 972,-294 1260,-294 1260,-100 972,-100"/>
<text text-anchor="middle" x="1116" y="-278.8" font-family="Times,serif" font-size="14.00">Adoption of UCO 1.1.0</text>
</g>
<g id="clust4" class="cluster">
<title>cluster_case_1_1_0</title>
<polygon fill="none" stroke="black" points="980,-108 980,-263 1252,-263 1252,-108 980,-108"/>
<text text-anchor="middle" x="1116" y="-247.8" font-family="Times,serif" font-size="14.00">Adoption of CASE 1.1.0</text>
</g>
<g id="clust5" class="cluster">
<title>cluster_case_utils_0_9_0</title>
<polygon fill="none" stroke="black" points="988,-116 988,-232 1244,-232 1244,-116 988,-116"/>
<text text-anchor="middle" x="1116" y="-216.8" font-family="Times,serif" font-size="14.00">Adoption of case&#45;utils 0.9.0</text>
</g>
<g id="clust6" class="cluster">
<title>cluster_case_validation_action_2_5</title>
<polygon fill="none" stroke="black" points="996,-124 996,-201 1236,-201 1236,-124 996,-124"/>
<text text-anchor="middle" x="1116" y="-185.8" font-family="Times,serif" font-size="14.00">Adoption of case&#45;validation&#45;action 2.5</text>
</g>
<g id="clust7" class="cluster">
<title>cluster_uco_1_2_0</title>
<polygon fill="none" stroke="black" points="26,-302 26,-1210 1629,-1210 1629,-302 26,-302"/>
<text text-anchor="middle" x="827.5" y="-1194.8" font-family="Times,serif" font-size="14.00">Adoption of UCO 1.2.0</text>
</g>
<g id="clust8" class="cluster">
<title>cluster_case_1_2_0</title>
<polygon fill="none" stroke="black" points="247,-412 247,-1179 1621,-1179 1621,-412 247,-412"/>
<text text-anchor="middle" x="934" y="-1163.8" font-family="Times,serif" font-size="14.00">Adoption of CASE 1.2.0</text>
</g>
<g id="clust9" class="cluster">
<title>cluster_case_utils_0_10_0</title>
<polygon fill="none" stroke="black" points="484,-466 484,-1148 1613,-1148 1613,-466 484,-466"/>
<text text-anchor="middle" x="1048.5" y="-1132.8" font-family="Times,serif" font-size="14.00">Adoption of case&#45;utils 0.10.0</text>
</g>
<g id="clust11" class="cluster">
<title>cluster_case_validation_action_2_6</title>
<polygon fill="none" stroke="black" points="659.5,-576 659.5,-944 1257.5,-944 1257.5,-576 659.5,-576"/>
<text text-anchor="middle" x="958.5" y="-928.8" font-family="Times,serif" font-size="14.00">Adoption of case&#45;validation&#45;action 2.6</text>
</g>
<g id="clust12" class="cluster">
<title>cluster_case_bindings_csharp_0_4_0</title>
<polygon fill="none" stroke="black" points="667.5,-836 667.5,-913 1249.5,-913 1249.5,-836 667.5,-836"/>
<text text-anchor="middle" x="958.5" y="-897.8" font-family="Times,serif" font-size="14.00">Adoption of CSharp bindings 0.4.0</text>
</g>
<g id="clust10" class="cluster">
<title>cluster_case_prov_0_7_0</title>
<polygon fill="none" stroke="black" points="1323,-1035 1323,-1112 1605,-1112 1605,-1035 1323,-1035"/>
<text text-anchor="middle" x="1464" y="-1096.8" font-family="Times,serif" font-size="14.00">Adoption of case&#45;prov 0.7.0</text>
</g>
<!-- _GH__CASEWORK__CASE_MAPPING_TEMPLATE_STUBS -->
<g id="node1" class="node">
<title>_GH__CASEWORK__CASE_MAPPING_TEMPLATE_STUBS</title>
<g id="a_node1"><a xlink:href="https://github.com/casework/CASE-Mapping-Template-Stubs" xlink:title="CASE Mapping\nTemplate Stubs">
<path fill="#8ec7d2" stroke="#0d6986" d="M124,-193C124,-193 44,-193 44,-193 38,-193 32,-187 32,-181 32,-181 32,-167 32,-167 32,-161 38,-155 44,-155 44,-155 124,-155 124,-155 130,-155 136,-161 136,-167 136,-167 136,-181 136,-181 136,-187 130,-193 124,-193"/>
<text text-anchor="middle" x="84" y="-177.8" font-family="Times,serif" font-size="14.00">CASE Mapping</text>
<text text-anchor="middle" x="84" y="-162.8" font-family="Times,serif" font-size="14.00">Template Stubs</text>
</a>
</g>
</g>
<!-- _GH__CASEWORK__CASE_IMPLEMENTATON_PYPI_EXIFREAD -->
<g id="node2" class="node">
<title>_GH__CASEWORK__CASE_IMPLEMENTATON_PYPI_EXIFREAD</title>
<g id="a_node2"><a xlink:href="https://github.com/casework/CASE-Implementation-PyPI-Exifread" xlink:title="CASE&#45;Implementation&#45;PyPI&#45;Exifread\nadopts new case&#45;validation&#45;action">
<path fill="#8ec7d2" stroke="#0d6986" d="M1216,-170C1216,-170 1016,-170 1016,-170 1010,-170 1004,-164 1004,-158 1004,-158 1004,-144 1004,-144 1004,-138 1010,-132 1016,-132 1016,-132 1216,-132 1216,-132 1222,-132 1228,-138 1228,-144 1228,-144 1228,-158 1228,-158 1228,-164 1222,-170 1216,-170"/>
<text text-anchor="middle" x="1116" y="-154.8" font-family="Times,serif" font-size="14.00">CASE&#45;Implementation&#45;PyPI&#45;Exifread</text>
<text text-anchor="middle" x="1116" y="-139.8" font-family="Times,serif" font-size="14.00">adopts new case&#45;validation&#45;action</text>
</a>
</g>
</g>
<!-- _GH__UCOPROJECT__ONTOLOGY_UNIFIEDCYBERONTOLOGY_ORG -->
<g id="node3" class="node">
<title>_GH__UCOPROJECT__ONTOLOGY_UNIFIEDCYBERONTOLOGY_ORG</title>
<g id="a_node3"><a xlink:href="https://github.com/ucoProject/ontology.unifiedcyberontology.org" xlink:title="UCO documentation\nregenerated">
<path fill="#8ec7d2" stroke="#0d6986" d="M361,-348C361,-348 255,-348 255,-348 249,-348 243,-342 243,-336 243,-336 243,-322 243,-322 243,-316 249,-310 255,-310 255,-310 361,-310 361,-310 367,-310 373,-316 373,-322 373,-322 373,-336 373,-336 373,-342 367,-348 361,-348"/>
<text text-anchor="middle" x="308" y="-332.8" font-family="Times,serif" font-size="14.00">UCO documentation</text>
<text text-anchor="middle" x="308" y="-317.8" font-family="Times,serif" font-size="14.00">regenerated</text>
</a>
</g>
</g>
<!-- _GH__CASEWORK__ONTOLOGY_CASEONTOLOGY_ORG -->
<g id="node7" class="node">
<title>_GH__CASEWORK__ONTOLOGY_CASEONTOLOGY_ORG</title>
<g id="a_node7"><a xlink:href="https://github.com/casework/ontology.caseontology.org" xlink:title="CASE documentation\nregenerated">
<path fill="#8ec7d2" stroke="#0d6986" d="M582,-458C582,-458 470,-458 470,-458 464,-458 458,-452 458,-446 458,-446 458,-432 458,-432 458,-426 464,-420 470,-420 470,-420 582,-420 582,-420 588,-420 594,-426 594,-432 594,-432 594,-446 594,-446 594,-452 588,-458 582,-458"/>
<text text-anchor="middle" x="526" y="-442.8" font-family="Times,serif" font-size="14.00">CASE documentation</text>
<text text-anchor="middle" x="526" y="-427.8" font-family="Times,serif" font-size="14.00">regenerated</text>
</a>
</g>
</g>
<!-- _GH__UCOPROJECT__ONTOLOGY_UNIFIEDCYBERONTOLOGY_ORG&#45;&gt;_GH__CASEWORK__ONTOLOGY_CASEONTOLOGY_ORG -->
<g id="edge23" class="edge">
<title>_GH__UCOPROJECT__ONTOLOGY_UNIFIEDCYBERONTOLOGY_ORG&#45;&gt;_GH__CASEWORK__ONTOLOGY_CASEONTOLOGY_ORG</title>
<path fill="none" stroke="black" d="M357.96,-348.36C364.41,-351.15 370.9,-354.07 377,-357 413.63,-374.62 453.89,-397.14 483.17,-414.13"/>
<polygon fill="black" stroke="black" points="481.25,-417.64 491.65,-419.66 484.78,-411.6 481.25,-417.64"/>
<text text-anchor="middle" x="417.5" y="-407.8" font-family="Times,serif" font-size="14.00">Tech&#45;</text>
<text text-anchor="middle" x="417.5" y="-392.8" font-family="Times,serif" font-size="14.00">check</text>
</g>
<!-- _GH__UCOPROJECT__UCO -->
<g id="node4" class="node">
<title>_GH__UCOPROJECT__UCO</title>
<g id="a_node4"><a xlink:href="https://github.com/ucoProject/UCO" xlink:title="UCO Ontology\nreleases">
<path fill="#8ec7d2" stroke="#0d6986" d="M122,-404C122,-404 46,-404 46,-404 40,-404 34,-398 34,-392 34,-392 34,-378 34,-378 34,-372 40,-366 46,-366 46,-366 122,-366 122,-366 128,-366 134,-372 134,-378 134,-378 134,-392 134,-392 134,-398 128,-404 122,-404"/>
<text text-anchor="middle" x="84" y="-388.8" font-family="Times,serif" font-size="14.00">UCO Ontology</text>
<text text-anchor="middle" x="84" y="-373.8" font-family="Times,serif" font-size="14.00">releases</text>
</a>
</g>
</g>
<!-- _GH__UCOPROJECT__UCO&#45;&gt;_GH__UCOPROJECT__ONTOLOGY_UNIFIEDCYBERONTOLOGY_ORG -->
<g id="edge25" class="edge">
<title>_GH__UCOPROJECT__UCO&#45;&gt;_GH__UCOPROJECT__ONTOLOGY_UNIFIEDCYBERONTOLOGY_ORG</title>
<path fill="none" stroke="black" d="M131.67,-365.61C145.74,-360.3 161.34,-354.93 176,-351 193.88,-346.21 213.42,-342.26 231.82,-339.09"/>
<polygon fill="black" stroke="black" points="232.22,-342.41 241.51,-337.32 231.07,-335.5 232.22,-342.41"/>
<text text-anchor="middle" x="198.5" y="-369.8" font-family="Times,serif" font-size="14.00">Git sub&#45;</text>
<text text-anchor="middle" x="198.5" y="-354.8" font-family="Times,serif" font-size="14.00">module</text>
</g>
<!-- _GH__UCOPROJECT__UCO_PROFILE_EXAMPLE -->
<g id="node5" class="node">
<title>_GH__UCOPROJECT__UCO_PROFILE_EXAMPLE</title>
<g id="a_node5"><a xlink:href="https://github.com/ucoProject/UCO-Profile-Example" xlink:title="UCO Profile Example\nupdates">
<path fill="#8ec7d2" stroke="#0d6986" d="M365,-404C365,-404 251,-404 251,-404 245,-404 239,-398 239,-392 239,-392 239,-378 239,-378 239,-372 245,-366 251,-366 251,-366 365,-366 365,-366 371,-366 377,-372 377,-378 377,-378 377,-392 377,-392 377,-398 371,-404 365,-404"/>
<text text-anchor="middle" x="308" y="-388.8" font-family="Times,serif" font-size="14.00">UCO Profile Example</text>
<text text-anchor="middle" x="308" y="-373.8" font-family="Times,serif" font-size="14.00">updates</text>
</a>
</g>
</g>
<!-- _GH__UCOPROJECT__UCO&#45;&gt;_GH__UCOPROJECT__UCO_PROFILE_EXAMPLE -->
<g id="edge26" class="edge">
<title>_GH__UCOPROJECT__UCO&#45;&gt;_GH__UCOPROJECT__UCO_PROFILE_EXAMPLE</title>
<path fill="none" stroke="black" d="M134.27,-385C161.69,-385 196.49,-385 227.65,-385"/>
<polygon fill="black" stroke="black" points="227.51,-388.5 237.51,-385 227.51,-381.5 227.51,-388.5"/>
<text text-anchor="middle" x="198.5" y="-403.8" font-family="Times,serif" font-size="14.00">Git sub&#45;</text>
<text text-anchor="middle" x="198.5" y="-388.8" font-family="Times,serif" font-size="14.00">module</text>
</g>
<!-- _GH__CASEWORK__CASE -->
<g id="node6" class="node">
<title>_GH__CASEWORK__CASE</title>
<g id="a_node6"><a xlink:href="https://github.com/casework/CASE" xlink:title="CASE Ontology\nreleases">
<path fill="#8ec7d2" stroke="#0d6986" d="M349,-706C349,-706 267,-706 267,-706 261,-706 255,-700 255,-694 255,-694 255,-680 255,-680 255,-674 261,-668 267,-668 267,-668 349,-668 349,-668 355,-668 361,-674 361,-680 361,-680 361,-694 361,-694 361,-700 355,-706 349,-706"/>
<text text-anchor="middle" x="308" y="-690.8" font-family="Times,serif" font-size="14.00">CASE Ontology</text>
<text text-anchor="middle" x="308" y="-675.8" font-family="Times,serif" font-size="14.00">releases</text>
</a>
</g>
</g>
<!-- _GH__UCOPROJECT__UCO&#45;&gt;_GH__CASEWORK__CASE -->
<g id="edge24" class="edge">
<title>_GH__UCOPROJECT__UCO&#45;&gt;_GH__CASEWORK__CASE</title>
<path fill="none" stroke="black" d="M90.32,-404.41C105.12,-454.79 151.56,-590.9 239,-664 241.05,-665.71 243.23,-667.3 245.51,-668.77"/>
<polygon fill="black" stroke="black" points="243.27,-672.09 253.71,-673.89 246.67,-665.97 243.27,-672.09"/>
<text text-anchor="middle" x="198.5" y="-664.8" font-family="Times,serif" font-size="14.00">Git sub&#45;</text>
<text text-anchor="middle" x="198.5" y="-649.8" font-family="Times,serif" font-size="14.00">module</text>
</g>
<!-- _GH__CASEWORK__CASE&#45;&gt;_GH__CASEWORK__ONTOLOGY_CASEONTOLOGY_ORG -->
<g id="edge4" class="edge">
<title>_GH__CASEWORK__CASE&#45;&gt;_GH__CASEWORK__ONTOLOGY_CASEONTOLOGY_ORG</title>
<path fill="none" stroke="black" d="M361.41,-674.03C367.03,-671.29 372.38,-667.99 377,-664 423.51,-623.88 419.01,-598.72 440,-541 451.15,-510.33 437.11,-492.37 455.02,-466.63"/>
<polygon fill="black" stroke="black" points="458.12,-469.35 461.66,-459.37 452.67,-464.96 458.12,-469.35"/>
<text text-anchor="middle" x="417.5" y="-663.8" font-family="Times,serif" font-size="14.00">Git sub&#45;</text>
<text text-anchor="middle" x="417.5" y="-648.8" font-family="Times,serif" font-size="14.00">module</text>
</g>
<!-- _GH__CASEWORK__CASE_UTILITIES_PYTHON -->
<g id="node12" class="node">
<title>_GH__CASEWORK__CASE_UTILITIES_PYTHON</title>
<g id="a_node12"><a xlink:href="https://github.com/casework/CASE-Utilities-Python" xlink:title="case&#45;utils\nreleases">
<path fill="#8ec7d2" stroke="#0d6986" d="M548,-908C548,-908 504,-908 504,-908 498,-908 492,-902 492,-896 492,-896 492,-882 492,-882 492,-876 498,-870 504,-870 504,-870 548,-870 548,-870 554,-870 560,-876 560,-882 560,-882 560,-896 560,-896 560,-902 554,-908 548,-908"/>
<text text-anchor="middle" x="526" y="-892.8" font-family="Times,serif" font-size="14.00">case&#45;utils</text>
<text text-anchor="middle" x="526" y="-877.8" font-family="Times,serif" font-size="14.00">releases</text>
</a>
</g>
</g>
<!-- _GH__CASEWORK__CASE&#45;&gt;_GH__CASEWORK__CASE_UTILITIES_PYTHON -->
<g id="edge2" class="edge">
<title>_GH__CASEWORK__CASE&#45;&gt;_GH__CASEWORK__CASE_UTILITIES_PYTHON</title>
<path fill="none" stroke="black" d="M320.13,-706.42C341.96,-742.87 393.92,-821.82 458,-866 465.05,-870.86 473.22,-874.78 481.38,-877.9"/>
<polygon fill="black" stroke="black" points="480.03,-881.49 490.62,-881.46 482.32,-874.87 480.03,-881.49"/>
<text text-anchor="middle" x="417.5" y="-868.8" font-family="Times,serif" font-size="14.00">Git sub&#45;</text>
<text text-anchor="middle" x="417.5" y="-853.8" font-family="Times,serif" font-size="14.00">module</text>
</g>
<!-- _GH__CIPHERTECHSOLUTIONS__CASE_BINDINGS_CSHARP -->
<g id="node22" class="node">
<title>_GH__CIPHERTECHSOLUTIONS__CASE_BINDINGS_CSHARP</title>
<g id="a_node22"><a xlink:href="https://github.com/ciphertechsolutions/CASE-Bindings-CSharp" xlink:title="CASE&#45;Bindings&#45;CSharp\nadopts new ontology version">
<path fill="#8ec7d2" stroke="#0d6986" d="M836.5,-882C836.5,-882 687.5,-882 687.5,-882 681.5,-882 675.5,-876 675.5,-870 675.5,-870 675.5,-856 675.5,-856 675.5,-850 681.5,-844 687.5,-844 687.5,-844 836.5,-844 836.5,-844 842.5,-844 848.5,-850 848.5,-856 848.5,-856 848.5,-870 848.5,-870 848.5,-876 842.5,-882 836.5,-882"/>
<text text-anchor="middle" x="762" y="-866.8" font-family="Times,serif" font-size="14.00">CASE&#45;Bindings&#45;CSharp</text>
<text text-anchor="middle" x="762" y="-851.8" font-family="Times,serif" font-size="14.00">adopts new ontology version</text>
</a>
</g>
</g>
<!-- _GH__CASEWORK__CASE&#45;&gt;_GH__CIPHERTECHSOLUTIONS__CASE_BINDINGS_CSHARP -->
<g id="edge3" class="edge">
<title>_GH__CASEWORK__CASE&#45;&gt;_GH__CIPHERTECHSOLUTIONS__CASE_BINDINGS_CSHARP</title>
<path fill="none" stroke="black" d="M308.58,-706.05C308.22,-775.73 317.43,-1017.86 458,-1118 523.52,-1164.67 579.96,-1172.64 639,-1118 676.95,-1082.88 623.09,-925.04 657,-886 659.71,-882.89 662.73,-880.14 666,-877.72"/>
<polygon fill="black" stroke="black" points="667.49,-880.29 674.16,-872.05 663.81,-874.34 667.49,-880.29"/>
</g>
<!-- _GH__AJNELSON_NIST__CASE_EXAMPLES_QC -->
<g id="node8" class="node">
<title>_GH__AJNELSON_NIST__CASE_EXAMPLES_QC</title>
<g id="a_node8"><a xlink:href="https://github.com/ajnelson-nist/CASE-Examples-QC" xlink:title="CASE&#45;Examples&#45;QC\nadopts CASE&#45;Examples and\nCASE website updates">
<path fill="#8ec7d2" stroke="#0d6986" d="M1190,-1066.5C1190,-1066.5 1042,-1066.5 1042,-1066.5 1036,-1066.5 1030,-1060.5 1030,-1054.5 1030,-1054.5 1030,-1025.5 1030,-1025.5 1030,-1019.5 1036,-1013.5 1042,-1013.5 1042,-1013.5 1190,-1013.5 1190,-1013.5 1196,-1013.5 1202,-1019.5 1202,-1025.5 1202,-1025.5 1202,-1054.5 1202,-1054.5 1202,-1060.5 1196,-1066.5 1190,-1066.5"/>
<text text-anchor="middle" x="1116" y="-1051.3" font-family="Times,serif" font-size="14.00">CASE&#45;Examples&#45;QC</text>
<text text-anchor="middle" x="1116" y="-1036.3" font-family="Times,serif" font-size="14.00">adopts CASE&#45;Examples and</text>
<text text-anchor="middle" x="1116" y="-1021.3" font-family="Times,serif" font-size="14.00">CASE website updates</text>
</a>
</g>
</g>
<!-- _GH__CASEWORK__CASE_IMPLEMENTATON_PROV_O -->
<g id="node15" class="node">
<title>_GH__CASEWORK__CASE_IMPLEMENTATON_PROV_O</title>
<g id="a_node15"><a xlink:href="https://github.com/casework/CASE-Implementation-PROV-O" xlink:title="case&#45;prov\nreleases">
<path fill="#8ec7d2" stroke="#0d6986" d="M1388,-1081C1388,-1081 1343,-1081 1343,-1081 1337,-1081 1331,-1075 1331,-1069 1331,-1069 1331,-1055 1331,-1055 1331,-1049 1337,-1043 1343,-1043 1343,-1043 1388,-1043 1388,-1043 1394,-1043 1400,-1049 1400,-1055 1400,-1055 1400,-1069 1400,-1069 1400,-1075 1394,-1081 1388,-1081"/>
<text text-anchor="middle" x="1365.5" y="-1065.8" font-family="Times,serif" font-size="14.00">case&#45;prov</text>
<text text-anchor="middle" x="1365.5" y="-1050.8" font-family="Times,serif" font-size="14.00">releases</text>
</a>
</g>
</g>
<!-- _GH__AJNELSON_NIST__CASE_EXAMPLES_QC&#45;&gt;_GH__CASEWORK__CASE_IMPLEMENTATON_PROV_O -->
<g id="edge1" class="edge">
<title>_GH__AJNELSON_NIST__CASE_EXAMPLES_QC&#45;&gt;_GH__CASEWORK__CASE_IMPLEMENTATON_PROV_O</title>
<path fill="none" stroke="black" d="M1202.18,-1047.57C1241.87,-1051.1 1287.46,-1055.15 1320.19,-1058.06"/>
<polygon fill="black" stroke="black" points="1319.5,-1061.6 1329.77,-1059 1320.12,-1054.63 1319.5,-1061.6"/>
<text text-anchor="middle" x="1290.5" y="-1075.8" font-family="Times,serif" font-size="14.00">Git sub&#45;</text>
<text text-anchor="middle" x="1290.5" y="-1060.8" font-family="Times,serif" font-size="14.00">module</text>
</g>
<!-- _GH__CASEWORK__CASE_EXAMPLES -->
<g id="node9" class="node">
<title>_GH__CASEWORK__CASE_EXAMPLES</title>
<g id="a_node9"><a xlink:href="https://github.com/casework/CASE-Examples" xlink:title="CASE&#45;Examples\nadopts new case&#45;utils">
<path fill="#8ec7d2" stroke="#0d6986" d="M816.5,-990C816.5,-990 707.5,-990 707.5,-990 701.5,-990 695.5,-984 695.5,-978 695.5,-978 695.5,-964 695.5,-964 695.5,-958 701.5,-952 707.5,-952 707.5,-952 816.5,-952 816.5,-952 822.5,-952 828.5,-958 828.5,-964 828.5,-964 828.5,-978 828.5,-978 828.5,-984 822.5,-990 816.5,-990"/>
<text text-anchor="middle" x="762" y="-974.8" font-family="Times,serif" font-size="14.00">CASE&#45;Examples</text>
<text text-anchor="middle" x="762" y="-959.8" font-family="Times,serif" font-size="14.00">adopts new case&#45;utils</text>
</a>
</g>
</g>
<!-- _GH__CASEWORK__CASE_EXAMPLES&#45;&gt;_GH__AJNELSON_NIST__CASE_EXAMPLES_QC -->
<g id="edge5" class="edge">
<title>_GH__CASEWORK__CASE_EXAMPLES&#45;&gt;_GH__AJNELSON_NIST__CASE_EXAMPLES_QC</title>
<path fill="none" stroke="black" d="M828.58,-976.99C868.06,-981.22 919.2,-987.78 964,-997 982.05,-1000.72 1001.1,-1005.47 1019.36,-1010.45"/>
<polygon fill="black" stroke="black" points="1018.13,-1014.02 1028.7,-1013.32 1020,-1007.27 1018.13,-1014.02"/>
<text text-anchor="middle" x="924.5" y="-1015.8" font-family="Times,serif" font-size="14.00">Git sub&#45;</text>
<text text-anchor="middle" x="924.5" y="-1000.8" font-family="Times,serif" font-size="14.00">module</text>
</g>
<!-- _GH__CASEWORK__CASE_IMPLEMENTATON_EXIFTOOL -->
<g id="node10" class="node">
<title>_GH__CASEWORK__CASE_IMPLEMENTATON_EXIFTOOL</title>
<g id="a_node10"><a xlink:href="https://github.com/casework/CASE-Implementation-ExifTool" xlink:title="CASE&#45;Implementation&#45;ExifTool\nadopts new case&#45;utils">
<path fill="#8ec7d2" stroke="#0d6986" d="M848,-512C848,-512 676,-512 676,-512 670,-512 664,-506 664,-500 664,-500 664,-486 664,-486 664,-480 670,-474 676,-474 676,-474 848,-474 848,-474 854,-474 860,-480 860,-486 860,-486 860,-500 860,-500 860,-506 854,-512 848,-512"/>
<text text-anchor="middle" x="762" y="-496.8" font-family="Times,serif" font-size="14.00">CASE&#45;Implementation&#45;ExifTool</text>
<text text-anchor="middle" x="762" y="-481.8" font-family="Times,serif" font-size="14.00">adopts new case&#45;utils</text>
</a>
</g>
</g>
<!-- _GH__CASEWORK__CASE_IMPLEMENTATON_GNU_TIME -->
<g id="node11" class="node">
<title>_GH__CASEWORK__CASE_IMPLEMENTATON_GNU_TIME</title>
<g id="a_node11"><a xlink:href="https://github.com/casework/CASE-Implementation-GNU-Time" xlink:title="CASE&#45;Implementation&#45;GNU&#45;Time\nadopts new case&#45;utils">
<path fill="#8ec7d2" stroke="#0d6986" d="M855,-568C855,-568 669,-568 669,-568 663,-568 657,-562 657,-556 657,-556 657,-542 657,-542 657,-536 663,-530 669,-530 669,-530 855,-530 855,-530 861,-530 867,-536 867,-542 867,-542 867,-556 867,-556 867,-562 861,-568 855,-568"/>
<text text-anchor="middle" x="762" y="-552.8" font-family="Times,serif" font-size="14.00">CASE&#45;Implementation&#45;GNU&#45;Time</text>
<text text-anchor="middle" x="762" y="-537.8" font-family="Times,serif" font-size="14.00">adopts new case&#45;utils</text>
</a>
</g>
</g>
<!-- _GH__CASEWORK__CASE_UTILITIES_PYTHON&#45;&gt;_GH__AJNELSON_NIST__CASE_EXAMPLES_QC -->
<g id="edge7" class="edge">
<title>_GH__CASEWORK__CASE_UTILITIES_PYTHON&#45;&gt;_GH__AJNELSON_NIST__CASE_EXAMPLES_QC</title>
<path fill="none" stroke="black" d="M535.02,-908.43C551.47,-945.35 592.99,-1024.67 657,-1055 780.42,-1113.47 828.01,-1080.5 964,-1068 981.87,-1066.36 1000.77,-1063.64 1018.94,-1060.54"/>
<polygon fill="black" stroke="black" points="1019.3,-1063.85 1028.54,-1058.66 1018.08,-1056.96 1019.3,-1063.85"/>
<text text-anchor="middle" x="762" y="-1091.8" font-family="Times,serif" font-size="14.00">PyPI</text>
</g>
<!-- _GH__CASEWORK__CASE_UTILITIES_PYTHON&#45;&gt;_GH__CASEWORK__CASE_EXAMPLES -->
<g id="edge8" class="edge">
<title>_GH__CASEWORK__CASE_UTILITIES_PYTHON&#45;&gt;_GH__CASEWORK__CASE_EXAMPLES</title>
<path fill="none" stroke="black" d="M560.03,-900.57C595.02,-912.84 651.18,-932.52 695.26,-947.96"/>
<polygon fill="black" stroke="black" points="694.01,-951.58 704.61,-951.59 696.33,-944.98 694.01,-951.58"/>
<text text-anchor="middle" x="625.5" y="-930.8" font-family="Times,serif" font-size="14.00">PyPI</text>
</g>
<!-- _GH__CASEWORK__CASE_UTILITIES_PYTHON&#45;&gt;_GH__CASEWORK__CASE_IMPLEMENTATON_EXIFTOOL -->
<g id="edge9" class="edge">
<title>_GH__CASEWORK__CASE_UTILITIES_PYTHON&#45;&gt;_GH__CASEWORK__CASE_IMPLEMENTATON_EXIFTOOL</title>
<path fill="none" stroke="black" d="M560.17,-885.38C572.71,-882.26 585.9,-876.53 594,-866 628.1,-821.68 597.68,-669.06 612,-615 623.86,-570.23 621.39,-550.61 657,-521 658.09,-520.09 659.21,-519.21 660.35,-518.36"/>
<polygon fill="black" stroke="black" points="662.07,-520.77 668.55,-512.38 658.25,-514.9 662.07,-520.77"/>
<text text-anchor="middle" x="625.5" y="-618.8" font-family="Times,serif" font-size="14.00">PyPI</text>
</g>
<!-- _GH__CASEWORK__CASE_UTILITIES_PYTHON&#45;&gt;_GH__CASEWORK__CASE_IMPLEMENTATON_GNU_TIME -->
<g id="edge10" class="edge">
<title>_GH__CASEWORK__CASE_UTILITIES_PYTHON&#45;&gt;_GH__CASEWORK__CASE_IMPLEMENTATON_GNU_TIME</title>
<path fill="none" stroke="black" d="M560.49,-884.52C572.62,-881.27 585.43,-875.66 594,-866 614.57,-842.81 630.93,-630 655.24,-577.46"/>
<polygon fill="black" stroke="black" points="658.67,-579.58 661.07,-569.26 652.76,-575.83 658.67,-579.58"/>
<text text-anchor="middle" x="625.5" y="-798.8" font-family="Times,serif" font-size="14.00">PyPI</text>
</g>
<!-- _GH__CASEWORK__CASEWORK_GITHUB_IO -->
<g id="node13" class="node">
<title>_GH__CASEWORK__CASEWORK_GITHUB_IO</title>
<g id="a_node13"><a xlink:href="https://github.com/casework/casework.github.io" xlink:title="CASE website\nadopts new case&#45;utils">
<path fill="#8ec7d2" stroke="#0d6986" d="M816.5,-1046C816.5,-1046 707.5,-1046 707.5,-1046 701.5,-1046 695.5,-1040 695.5,-1034 695.5,-1034 695.5,-1020 695.5,-1020 695.5,-1014 701.5,-1008 707.5,-1008 707.5,-1008 816.5,-1008 816.5,-1008 822.5,-1008 828.5,-1014 828.5,-1020 828.5,-1020 828.5,-1034 828.5,-1034 828.5,-1040 822.5,-1046 816.5,-1046"/>
<text text-anchor="middle" x="762" y="-1030.8" font-family="Times,serif" font-size="14.00">CASE website</text>
<text text-anchor="middle" x="762" y="-1015.8" font-family="Times,serif" font-size="14.00">adopts new case&#45;utils</text>
</a>
</g>
</g>
<!-- _GH__CASEWORK__CASE_UTILITIES_PYTHON&#45;&gt;_GH__CASEWORK__CASEWORK_GITHUB_IO -->
<g id="edge13" class="edge">
<title>_GH__CASEWORK__CASE_UTILITIES_PYTHON&#45;&gt;_GH__CASEWORK__CASEWORK_GITHUB_IO</title>
<path fill="none" stroke="black" d="M544.44,-908.28C567.75,-932.89 611.43,-975.12 657,-999 665.7,-1003.56 675.2,-1007.42 684.82,-1010.69"/>
<polygon fill="black" stroke="black" points="683.67,-1014.31 694.26,-1014 685.79,-1007.64 683.67,-1014.31"/>
<text text-anchor="middle" x="625.5" y="-990.8" font-family="Times,serif" font-size="14.00">PyPI</text>
</g>
<!-- _GH__CASEWORK__CASE_UTILITIES_PYTHON&#45;&gt;_GH__CASEWORK__CASE_IMPLEMENTATON_PROV_O -->
<g id="edge11" class="edge">
<title>_GH__CASEWORK__CASE_UTILITIES_PYTHON&#45;&gt;_GH__CASEWORK__CASE_IMPLEMENTATON_PROV_O</title>
<path fill="none" stroke="black" d="M531.45,-908.38C542.98,-953.49 578.59,-1064.87 657,-1107 724.34,-1143.18 1127.46,-1143.22 1313,-1091 1317.33,-1089.78 1321.69,-1088.13 1325.95,-1086.22"/>
<polygon fill="black" stroke="black" points="1327.21,-1089.01 1334.6,-1081.42 1324.09,-1082.74 1327.21,-1089.01"/>
<text text-anchor="middle" x="924.5" y="-1135.8" font-family="Times,serif" font-size="14.00">PyPI</text>
</g>
<!-- _GH__KCHASON__CASE_VALIDATION_ACTION -->
<g id="node20" class="node">
<title>_GH__KCHASON__CASE_VALIDATION_ACTION</title>
<g id="a_node20"><a xlink:href="https://github.com/kchason/case-validation-action" xlink:title="case&#45;validation&#45;action\nreleases">
<path fill="#8ec7d2" stroke="#0d6986" d="M818,-701C818,-701 706,-701 706,-701 700,-701 694,-695 694,-689 694,-689 694,-675 694,-675 694,-669 700,-663 706,-663 706,-663 818,-663 818,-663 824,-663 830,-669 830,-675 830,-675 830,-689 830,-689 830,-695 824,-701 818,-701"/>
<text text-anchor="middle" x="762" y="-685.8" font-family="Times,serif" font-size="14.00">case&#45;validation&#45;action</text>
<text text-anchor="middle" x="762" y="-670.8" font-family="Times,serif" font-size="14.00">releases</text>
</a>
</g>
</g>
<!-- _GH__CASEWORK__CASE_UTILITIES_PYTHON&#45;&gt;_GH__KCHASON__CASE_VALIDATION_ACTION -->
<g id="edge12" class="edge">
<title>_GH__CASEWORK__CASE_UTILITIES_PYTHON&#45;&gt;_GH__KCHASON__CASE_VALIDATION_ACTION</title>
<path fill="none" stroke="black" d="M560.22,-881.21C571.51,-877.65 583.83,-872.7 594,-866 658.55,-823.5 714.53,-750.38 742.33,-710.31"/>
<polygon fill="black" stroke="black" points="745.71,-712.57 748.47,-702.34 739.93,-708.62 745.71,-712.57"/>
<text text-anchor="middle" x="625.5" y="-853.8" font-family="Times,serif" font-size="14.00">PyPI</text>
</g>
<!-- _GH__CASEWORK__CASEWORK_GITHUB_IO&#45;&gt;_GH__AJNELSON_NIST__CASE_EXAMPLES_QC -->
<g id="edge14" class="edge">
<title>_GH__CASEWORK__CASEWORK_GITHUB_IO&#45;&gt;_GH__AJNELSON_NIST__CASE_EXAMPLES_QC</title>
<path fill="none" stroke="black" d="M828.8,-1029.43C882.29,-1031.41 958.53,-1034.22 1018.86,-1036.45"/>
<polygon fill="black" stroke="black" points="1018.43,-1039.97 1028.55,-1036.84 1018.69,-1032.98 1018.43,-1039.97"/>
<text text-anchor="middle" x="924.5" y="-1052.8" font-family="Times,serif" font-size="14.00">Git sub&#45;</text>
<text text-anchor="middle" x="924.5" y="-1037.8" font-family="Times,serif" font-size="14.00">module</text>
</g>
<!-- _GH__CASEWORK__CASE_CORPORA -->
<g id="node14" class="node">
<title>_GH__CASEWORK__CASE_CORPORA</title>
<g id="a_node14"><a xlink:href="https://github.com/casework/CASE-Corpora" xlink:title="CASE&#45;Corpora\nadopts new case&#45;prov">
<path fill="#8ec7d2" stroke="#0d6986" d="M1585,-1081C1585,-1081 1475,-1081 1475,-1081 1469,-1081 1463,-1075 1463,-1069 1463,-1069 1463,-1055 1463,-1055 1463,-1049 1469,-1043 1475,-1043 1475,-1043 1585,-1043 1585,-1043 1591,-1043 1597,-1049 1597,-1055 1597,-1055 1597,-1069 1597,-1069 1597,-1075 1591,-1081 1585,-1081"/>
<text text-anchor="middle" x="1530" y="-1065.8" font-family="Times,serif" font-size="14.00">CASE&#45;Corpora</text>
<text text-anchor="middle" x="1530" y="-1050.8" font-family="Times,serif" font-size="14.00">adopts new case&#45;prov</text>
</a>
</g>
</g>
<!-- _GH__CASEWORK__CASE_IMPLEMENTATON_PROV_O&#45;&gt;_GH__CASEWORK__CASE_CORPORA -->
<g id="edge6" class="edge">
<title>_GH__CASEWORK__CASE_IMPLEMENTATON_PROV_O&#45;&gt;_GH__CASEWORK__CASE_CORPORA</title>
<path fill="none" stroke="black" d="M1400.17,-1062C1415.18,-1062 1433.52,-1062 1451.62,-1062"/>
<polygon fill="black" stroke="black" points="1451.51,-1065.5 1461.51,-1062 1451.51,-1058.5 1451.51,-1065.5"/>
<text text-anchor="middle" x="1431.5" y="-1065.8" font-family="Times,serif" font-size="14.00">PyPI</text>
</g>
<!-- _GH__CASEWORK__CASE_IMPLEMENTATON_PYPI_PILLOW -->
<g id="node16" class="node">
<title>_GH__CASEWORK__CASE_IMPLEMENTATON_PYPI_PILLOW</title>
<g id="a_node16"><a xlink:href="https://github.com/casework/CASE-Implementation-PyPI-Pillow" xlink:title="CASE&#45;Implementation&#45;PyPI&#45;Pillow\nadopts new case&#45;validation&#45;action">
<path fill="#8ec7d2" stroke="#0d6986" d="M1210.5,-734C1210.5,-734 1021.5,-734 1021.5,-734 1015.5,-734 1009.5,-728 1009.5,-722 1009.5,-722 1009.5,-708 1009.5,-708 1009.5,-702 1015.5,-696 1021.5,-696 1021.5,-696 1210.5,-696 1210.5,-696 1216.5,-696 1222.5,-702 1222.5,-708 1222.5,-708 1222.5,-722 1222.5,-722 1222.5,-728 1216.5,-734 1210.5,-734"/>
<text text-anchor="middle" x="1116" y="-718.8" font-family="Times,serif" font-size="14.00">CASE&#45;Implementation&#45;PyPI&#45;Pillow</text>
<text text-anchor="middle" x="1116" y="-703.8" font-family="Times,serif" font-size="14.00">adopts new case&#45;validation&#45;action</text>
</a>
</g>
</g>
<!-- _GH__CASEWORK__CASE_IMPLEMENTATON_UFED_XML -->
<g id="node17" class="node">
<title>_GH__CASEWORK__CASE_IMPLEMENTATON_UFED_XML</title>
<g id="a_node17"><a xlink:href="https://github.com/casework/CASE-Implementation-UFED-XML" xlink:title="CASE&#45;Implementation&#45;UFED&#45;XML\nadopts new case&#45;validation&#45;action">
<path fill="#8ec7d2" stroke="#0d6986" d="M1213,-790C1213,-790 1019,-790 1019,-790 1013,-790 1007,-784 1007,-778 1007,-778 1007,-764 1007,-764 1007,-758 1013,-752 1019,-752 1019,-752 1213,-752 1213,-752 1219,-752 1225,-758 1225,-764 1225,-764 1225,-778 1225,-778 1225,-784 1219,-790 1213,-790"/>
<text text-anchor="middle" x="1116" y="-774.8" font-family="Times,serif" font-size="14.00">CASE&#45;Implementation&#45;UFED&#45;XML</text>
<text text-anchor="middle" x="1116" y="-759.8" font-family="Times,serif" font-size="14.00">adopts new case&#45;validation&#45;action</text>
</a>
</g>
</g>
<!-- _GH__CASEWORK__CASE_IMPLEMENTATON_XRY -->
<g id="node18" class="node">
<title>_GH__CASEWORK__CASE_IMPLEMENTATON_XRY</title>
<g id="a_node18"><a xlink:href="https://github.com/casework/CASE-Implementation-XRY" xlink:title="CASE&#45;Implementation&#45;XRY adopts\nnew case&#45;validation&#45;action">
<path fill="#8ec7d2" stroke="#0d6986" d="M1211,-622C1211,-622 1021,-622 1021,-622 1015,-622 1009,-616 1009,-610 1009,-610 1009,-596 1009,-596 1009,-590 1015,-584 1021,-584 1021,-584 1211,-584 1211,-584 1217,-584 1223,-590 1223,-596 1223,-596 1223,-610 1223,-610 1223,-616 1217,-622 1211,-622"/>
<text text-anchor="middle" x="1116" y="-606.8" font-family="Times,serif" font-size="14.00">CASE&#45;Implementation&#45;XRY adopts</text>
<text text-anchor="middle" x="1116" y="-591.8" font-family="Times,serif" font-size="14.00">new case&#45;validation&#45;action</text>
</a>
</g>
</g>
<!-- _GH__CASEWORK__CASE_MAPPING_TEMPLATE_PYTHON -->
<g id="node19" class="node">
<title>_GH__CASEWORK__CASE_MAPPING_TEMPLATE_PYTHON</title>
<g id="a_node19"><a xlink:href="https://github.com/casework/CASE-Mapping-Template-Python" xlink:title="CASE&#45;Mapping&#45;Template&#45;Python\nadopts new case&#45;validation&#45;action">
<path fill="#8ec7d2" stroke="#0d6986" d="M1206,-678C1206,-678 1026,-678 1026,-678 1020,-678 1014,-672 1014,-666 1014,-666 1014,-652 1014,-652 1014,-646 1020,-640 1026,-640 1026,-640 1206,-640 1206,-640 1212,-640 1218,-646 1218,-652 1218,-652 1218,-666 1218,-666 1218,-672 1212,-678 1206,-678"/>
<text text-anchor="middle" x="1116" y="-662.8" font-family="Times,serif" font-size="14.00">CASE&#45;Mapping&#45;Template&#45;Python</text>
<text text-anchor="middle" x="1116" y="-647.8" font-family="Times,serif" font-size="14.00">adopts new case&#45;validation&#45;action</text>
</a>
</g>
</g>
<!-- _GH__KCHASON__CASE_VALIDATION_ACTION&#45;&gt;_GH__CASEWORK__CASE_IMPLEMENTATON_PYPI_EXIFREAD -->
<g id="edge17" class="edge">
<title>_GH__KCHASON__CASE_VALIDATION_ACTION&#45;&gt;_GH__CASEWORK__CASE_IMPLEMENTATON_PYPI_EXIFREAD</title>
<path fill="none" stroke="black" d="M830.28,-679.02C844.01,-675.4 857.23,-669.23 867,-659 899.39,-625.07 869.16,-599.15 885,-555 939.42,-403.31 1048.88,-242.46 1094.4,-179.03"/>
<polygon fill="black" stroke="black" points="1097.63,-181.55 1100.64,-171.39 1091.95,-177.45 1097.63,-181.55"/>
<text text-anchor="middle" x="924.5" y="-573.8" font-family="Times,serif" font-size="14.00">GitHub</text>
<text text-anchor="middle" x="924.5" y="-558.8" font-family="Times,serif" font-size="14.00">Action</text>
</g>
<!-- _GH__KCHASON__CASE_VALIDATION_ACTION&#45;&gt;_GH__CASEWORK__CASE_IMPLEMENTATON_PYPI_PILLOW -->
<g id="edge18" class="edge">
<title>_GH__KCHASON__CASE_VALIDATION_ACTION&#45;&gt;_GH__CASEWORK__CASE_IMPLEMENTATON_PYPI_PILLOW</title>
<path fill="none" stroke="black" d="M830.45,-688.32C877.99,-692.78 942.87,-698.86 998.67,-704.09"/>
<polygon fill="black" stroke="black" points="998.06,-707.65 1008.34,-705.09 998.71,-700.68 998.06,-707.65"/>
<text text-anchor="middle" x="924.5" y="-718.8" font-family="Times,serif" font-size="14.00">GitHub</text>
<text text-anchor="middle" x="924.5" y="-703.8" font-family="Times,serif" font-size="14.00">Action</text>
</g>
<!-- _GH__KCHASON__CASE_VALIDATION_ACTION&#45;&gt;_GH__CASEWORK__CASE_IMPLEMENTATON_UFED_XML -->
<g id="edge19" class="edge">
<title>_GH__KCHASON__CASE_VALIDATION_ACTION&#45;&gt;_GH__CASEWORK__CASE_IMPLEMENTATON_UFED_XML</title>
<path fill="none" stroke="black" d="M801.94,-701.48C825.47,-712.52 856.35,-725.73 885,-734 920.54,-744.27 960.05,-751.92 996.15,-757.52"/>
<polygon fill="black" stroke="black" points="995.32,-761.08 1005.73,-759.12 996.37,-754.16 995.32,-761.08"/>
<text text-anchor="middle" x="924.5" y="-769.8" font-family="Times,serif" font-size="14.00">GitHub</text>
<text text-anchor="middle" x="924.5" y="-754.8" font-family="Times,serif" font-size="14.00">Action</text>
</g>
<!-- _GH__KCHASON__CASE_VALIDATION_ACTION&#45;&gt;_GH__CASEWORK__CASE_IMPLEMENTATON_XRY -->
<g id="edge20" class="edge">
<title>_GH__KCHASON__CASE_VALIDATION_ACTION&#45;&gt;_GH__CASEWORK__CASE_IMPLEMENTATON_XRY</title>
<path fill="none" stroke="black" d="M830.25,-676.82C843.5,-673.26 856.53,-667.67 867,-659 882.64,-646.04 868.39,-628.69 885,-617 917.29,-594.27 958.88,-586.99 997.8,-586.62"/>
<polygon fill="black" stroke="black" points="997.67,-590.12 1007.69,-586.69 997.71,-583.12 997.67,-590.12"/>
<text text-anchor="middle" x="924.5" y="-635.8" font-family="Times,serif" font-size="14.00">GitHub</text>
<text text-anchor="middle" x="924.5" y="-620.8" font-family="Times,serif" font-size="14.00">Action</text>
</g>
<!-- _GH__KCHASON__CASE_VALIDATION_ACTION&#45;&gt;_GH__CASEWORK__CASE_MAPPING_TEMPLATE_PYTHON -->
<g id="edge21" class="edge">
<title>_GH__KCHASON__CASE_VALIDATION_ACTION&#45;&gt;_GH__CASEWORK__CASE_MAPPING_TEMPLATE_PYTHON</title>
<path fill="none" stroke="black" d="M830.33,-667.03C855.29,-661.6 879.02,-656.63 885,-656 923.22,-651.97 965.22,-651.4 1002.74,-652.25"/>
<polygon fill="black" stroke="black" points="1002.63,-655.77 1012.72,-652.54 1002.81,-648.77 1002.63,-655.77"/>
<text text-anchor="middle" x="924.5" y="-674.8" font-family="Times,serif" font-size="14.00">GitHub</text>
<text text-anchor="middle" x="924.5" y="-659.8" font-family="Times,serif" font-size="14.00">Action</text>
</g>
<!-- _GH__CASEWORK__CASE_BINDINGS_CSHARP_MONITOR -->
<g id="node21" class="node">
<title>_GH__CASEWORK__CASE_BINDINGS_CSHARP_MONITOR</title>
<g id="a_node21"><a xlink:href="https://github.com/casework/CASE-Bindings-CSharp-Monitor" xlink:title="CASE Bindings CSharp Monitor\ntests NuGet package with validation action">
<path fill="#8ec7d2" stroke="#0d6986" d="M1229.5,-882C1229.5,-882 1002.5,-882 1002.5,-882 996.5,-882 990.5,-876 990.5,-870 990.5,-870 990.5,-856 990.5,-856 990.5,-850 996.5,-844 1002.5,-844 1002.5,-844 1229.5,-844 1229.5,-844 1235.5,-844 1241.5,-850 1241.5,-856 1241.5,-856 1241.5,-870 1241.5,-870 1241.5,-876 1235.5,-882 1229.5,-882"/>
<text text-anchor="middle" x="1116" y="-866.8" font-family="Times,serif" font-size="14.00">CASE Bindings CSharp Monitor</text>
<text text-anchor="middle" x="1116" y="-851.8" font-family="Times,serif" font-size="14.00">tests NuGet package with validation action</text>
</a>
</g>
</g>
<!-- _GH__KCHASON__CASE_VALIDATION_ACTION&#45;&gt;_GH__CASEWORK__CASE_BINDINGS_CSHARP_MONITOR -->
<g id="edge16" class="edge">
<title>_GH__KCHASON__CASE_VALIDATION_ACTION&#45;&gt;_GH__CASEWORK__CASE_BINDINGS_CSHARP_MONITOR</title>
<path fill="none" stroke="black" d="M783.08,-701.28C806.42,-723.13 846.66,-759.06 885,-785 917.93,-807.29 935.01,-799.78 964,-827 968.95,-831.64 966.36,-836.23 972,-840 974.78,-841.86 977.67,-843.59 980.63,-845.2"/>
<polygon fill="black" stroke="black" points="978.81,-848.69 989.34,-849.92 981.88,-842.4 978.81,-848.69"/>
<text text-anchor="middle" x="924.5" y="-845.8" font-family="Times,serif" font-size="14.00">GitHub</text>
<text text-anchor="middle" x="924.5" y="-830.8" font-family="Times,serif" font-size="14.00">Action</text>
</g>
<!-- _GH__DOD_CYBER_CRIME_CENTER__SQLITE_DISSECT -->
<g id="node23" class="node">
<title>_GH__DOD_CYBER_CRIME_CENTER__SQLITE_DISSECT</title>
<g id="a_node23"><a xlink:href="https://github.com/dod-cyber-crime-center/sqlite-dissect" xlink:title="sqlite&#45;dissect\nadopts new case&#45;validation&#45;action">
<path fill="#8ec7d2" stroke="#0d6986" d="M1204.5,-92C1204.5,-92 1027.5,-92 1027.5,-92 1021.5,-92 1015.5,-86 1015.5,-80 1015.5,-80 1015.5,-66 1015.5,-66 1015.5,-60 1021.5,-54 1027.5,-54 1027.5,-54 1204.5,-54 1204.5,-54 1210.5,-54 1216.5,-60 1216.5,-66 1216.5,-66 1216.5,-80 1216.5,-80 1216.5,-86 1210.5,-92 1204.5,-92"/>
<text text-anchor="middle" x="1116" y="-76.8" font-family="Times,serif" font-size="14.00">sqlite&#45;dissect</text>
<text text-anchor="middle" x="1116" y="-61.8" font-family="Times,serif" font-size="14.00">adopts new case&#45;validation&#45;action</text>
</a>
</g>
</g>
<!-- _GH__KCHASON__CASE_VALIDATION_ACTION&#45;&gt;_GH__DOD_CYBER_CRIME_CENTER__SQLITE_DISSECT -->
<g id="edge22" class="edge">
<title>_GH__KCHASON__CASE_VALIDATION_ACTION&#45;&gt;_GH__DOD_CYBER_CRIME_CENTER__SQLITE_DISSECT</title>
<g id="a_edge22"><a xlink:href="https://github.com/dod-cyber-crime-center/sqlite-dissect/pull/31" xlink:title="TODO: PR 31">
<path fill="none" stroke="black" d="M830.31,-679.99C844.3,-676.37 857.62,-669.96 867,-659 887.64,-634.9 878.8,-405.12 885,-374 908.3,-256.97 887.1,-203.85 972,-120 981.7,-110.42 993.4,-102.78 1005.86,-96.71"/>
<polygon fill="black" stroke="black" points="1006.84,-99.66 1014.53,-92.36 1003.97,-93.27 1006.84,-99.66"/>
</a>
</g>
<g id="a_edge22&#45;label"><a xlink:href="https://github.com/dod-cyber-crime-center/sqlite-dissect/pull/31" xlink:title="TODO: PR 31">
<text text-anchor="middle" x="924.5" y="-377.8" font-family="Times,serif" font-size="14.00">TODO: PR 31</text>
</a>
</g>
</g>
<!-- _GH__CIPHERTECHSOLUTIONS__CASE_BINDINGS_CSHARP&#45;&gt;_GH__CASEWORK__CASE_BINDINGS_CSHARP_MONITOR -->
<g id="edge15" class="edge">
<title>_GH__CIPHERTECHSOLUTIONS__CASE_BINDINGS_CSHARP&#45;&gt;_GH__CASEWORK__CASE_BINDINGS_CSHARP_MONITOR</title>
<path fill="none" stroke="black" d="M848.98,-862.21C861.08,-862.12 873.35,-862.05 885,-862 915.54,-861.87 948.36,-861.91 979.37,-862.03"/>
<polygon fill="black" stroke="black" points="979.25,-865.53 989.26,-862.07 979.28,-858.53 979.25,-865.53"/>
<text text-anchor="middle" x="924.5" y="-865.8" font-family="Times,serif" font-size="14.00">NuGet</text>
</g>
</g>
</svg>
