<?xml version="1.0" encoding="UTF-8" standalone="no"?>
<!DOCTYPE svg PUBLIC "-//W3C//DTD SVG 1.1//EN"
 "http://www.w3.org/Graphics/SVG/1.1/DTD/svg11.dtd">
<!-- Generated by graphviz version 8.0.3 (20230416.2022)
 -->
<!-- Title: cdo_release_flow Pages: 1 -->
<svg width="1841pt" height="1272pt"
 viewBox="0.00 0.00 1841.00 1272.00" xmlns="http://www.w3.org/2000/svg" xmlns:xlink="http://www.w3.org/1999/xlink">
<g id="graph0" class="graph" transform="scale(1 1) rotate(0) translate(4 1268)">
<title>cdo_release_flow</title>
<polygon fill="white" stroke="none" points="-4,4 -4,-1268 1837,-1268 1837,4 -4,4"/>
<text text-anchor="middle" x="916.5" y="-38.8" font-family="Times,serif" font-size="14.00">Release flow of CDO ontologies</text>
<text text-anchor="middle" x="916.5" y="-7.8" font-family="Times,serif" font-size="14.00">Nodes link to the respective Git repository.</text>
<g id="clust1" class="cluster">
<title>cluster_uco_0_9_1</title>
<polygon fill="none" stroke="black" points="0,-62 0,-178 168,-178 168,-62 0,-62"/>
<text text-anchor="middle" x="84" y="-162.8" font-family="Times,serif" font-size="14.00">Adoption of UCO 0.9.1</text>
</g>
<g id="clust2" class="cluster">
<title>cluster_case_0_7_1</title>
<polygon fill="none" stroke="black" points="8,-70 8,-147 160,-147 160,-70 8,-70"/>
<text text-anchor="middle" x="84" y="-131.8" font-family="Times,serif" font-size="14.00">Adoption of CASE 0.7.1</text>
</g>
<g id="clust3" class="cluster">
<title>cluster_uco_1_2_0</title>
<polygon fill="none" stroke="black" points="26,-186 26,-1256 1825,-1256 1825,-186 26,-186"/>
<text text-anchor="middle" x="925.5" y="-1240.8" font-family="Times,serif" font-size="14.00">Adoption of UCO 1.2.0</text>
</g>
<g id="clust4" class="cluster">
<title>cluster_case_1_2_0</title>
<polygon fill="none" stroke="black" points="260,-352 260,-1225 1817,-1225 1817,-352 260,-352"/>
<text text-anchor="middle" x="1038.5" y="-1209.8" font-family="Times,serif" font-size="14.00">Adoption of CASE 1.2.0</text>
</g>
<g id="clust5" class="cluster">
<title>cluster_case_utils_0_10_0</title>
<polygon fill="none" stroke="black" points="1010,-360 1010,-831 1606,-831 1606,-360 1010,-360"/>
<text text-anchor="middle" x="1308" y="-815.8" font-family="Times,serif" font-size="14.00">Adoption of case&#45;utils 0.10.0</text>
</g>
<g id="clust6" class="cluster">
<title>cluster_case_validation_action_2_6</title>
<polygon fill="none" stroke="black" points="1018,-414 1018,-800 1598,-800 1598,-414 1018,-414"/>
<text text-anchor="middle" x="1308" y="-784.8" font-family="Times,serif" font-size="14.00">Adoption of case&#45;validation&#45;action 2.6</text>
</g>
<g id="clust7" class="cluster">
<title>cluster_case_bindings_csharp_0_4_0</title>
<polygon fill="none" stroke="black" points="1043.5,-422 1043.5,-499 1590,-499 1590,-422 1043.5,-422"/>
<text text-anchor="middle" x="1316.75" y="-483.8" font-family="Times,serif" font-size="14.00">Adoption of CSharp bindings 0.4.0</text>
</g>
<g id="clust8" class="cluster">
<title>cluster_case_utils_0_11_0</title>
<polygon fill="none" stroke="black" points="536,-839 536,-1194 1809,-1194 1809,-839 536,-839"/>
<text text-anchor="middle" x="1172.5" y="-1178.8" font-family="Times,serif" font-size="14.00">Adoption of case&#45;utils 0.11.0</text>
</g>
<g id="clust10" class="cluster">
<title>cluster_case_validation_action_2_6_1</title>
<polygon fill="none" stroke="black" points="731,-847 731,-934 1233.5,-934 1233.5,-847 731,-847"/>
<text text-anchor="middle" x="982.25" y="-918.8" font-family="Times,serif" font-size="14.00">Adoption of case&#45;validation&#45;action 2.6.1</text>
</g>
<g id="clust9" class="cluster">
<title>cluster_case_prov_0_8_0</title>
<polygon fill="none" stroke="black" points="1414,-1053 1414,-1130 1801,-1130 1801,-1053 1414,-1053"/>
<text text-anchor="middle" x="1607.5" y="-1114.8" font-family="Times,serif" font-size="14.00">Adoption of case&#45;prov 0.8.0</text>
</g>
<!-- _GH__CASEWORK__CASE_MAPPING_TEMPLATE_STUBS -->
<g id="node1" class="node">
<title>_GH__CASEWORK__CASE_MAPPING_TEMPLATE_STUBS</title>
<g id="a_node1"><a xlink:href="https://github.com/casework/CASE-Mapping-Template-Stubs" xlink:title="CASE Mapping\nTemplate Stubs">
<path fill="#8ec7d2" stroke="#0d6986" d="M124,-116C124,-116 44,-116 44,-116 38,-116 32,-110 32,-104 32,-104 32,-90 32,-90 32,-84 38,-78 44,-78 44,-78 124,-78 124,-78 130,-78 136,-84 136,-90 136,-90 136,-104 136,-104 136,-110 130,-116 124,-116"/>
<text text-anchor="middle" x="84" y="-100.8" font-family="Times,serif" font-size="14.00">CASE Mapping</text>
<text text-anchor="middle" x="84" y="-85.8" font-family="Times,serif" font-size="14.00">Template Stubs</text>
</a>
</g>
</g>
<!-- _GH__CYBER_DOMAIN_ONTOLOGY__CDO_SHAPES_EXAMPLE -->
<g id="node2" class="node">
<title>_GH__CYBER_DOMAIN_ONTOLOGY__CDO_SHAPES_EXAMPLE</title>
<g id="a_node2"><a xlink:href="https://github.com/Cyber-Domain-Ontology/CDO-Shapes-Example" xlink:title="CDO example&#45;base shapes\nupdates">
<path fill="#8ec7d2" stroke="#0d6986" d="M391,-232C391,-232 251,-232 251,-232 245,-232 239,-226 239,-220 239,-220 239,-206 239,-206 239,-200 245,-194 251,-194 251,-194 391,-194 391,-194 397,-194 403,-200 403,-206 403,-206 403,-220 403,-220 403,-226 397,-232 391,-232"/>
<text text-anchor="middle" x="321" y="-216.8" font-family="Times,serif" font-size="14.00">CDO example&#45;base shapes</text>
<text text-anchor="middle" x="321" y="-201.8" font-family="Times,serif" font-size="14.00">updates</text>
</a>
</g>
</g>
<!-- _GH__UCOPROJECT__ONTOLOGY_UNIFIEDCYBERONTOLOGY_ORG -->
<g id="node3" class="node">
<title>_GH__UCOPROJECT__ONTOLOGY_UNIFIEDCYBERONTOLOGY_ORG</title>
<g id="a_node3"><a xlink:href="https://github.com/ucoProject/ontology.unifiedcyberontology.org" xlink:title="UCO documentation\nregenerated">
<path fill="#8ec7d2" stroke="#0d6986" d="M374,-344C374,-344 268,-344 268,-344 262,-344 256,-338 256,-332 256,-332 256,-318 256,-318 256,-312 262,-306 268,-306 268,-306 374,-306 374,-306 380,-306 386,-312 386,-318 386,-318 386,-332 386,-332 386,-338 380,-344 374,-344"/>
<text text-anchor="middle" x="321" y="-328.8" font-family="Times,serif" font-size="14.00">UCO documentation</text>
<text text-anchor="middle" x="321" y="-313.8" font-family="Times,serif" font-size="14.00">regenerated</text>
</a>
</g>
</g>
<!-- _GH__CASEWORK__ONTOLOGY_CASEONTOLOGY_ORG -->
<g id="node9" class="node">
<title>_GH__CASEWORK__ONTOLOGY_CASEONTOLOGY_ORG</title>
<g id="a_node9"><a xlink:href="https://github.com/casework/ontology.caseontology.org" xlink:title="CASE documentation\nregenerated">
<path fill="#8ec7d2" stroke="#0d6986" d="M634,-402C634,-402 522,-402 522,-402 516,-402 510,-396 510,-390 510,-390 510,-376 510,-376 510,-370 516,-364 522,-364 522,-364 634,-364 634,-364 640,-364 646,-370 646,-376 646,-376 646,-390 646,-390 646,-396 640,-402 634,-402"/>
<text text-anchor="middle" x="578" y="-386.8" font-family="Times,serif" font-size="14.00">CASE documentation</text>
<text text-anchor="middle" x="578" y="-371.8" font-family="Times,serif" font-size="14.00">regenerated</text>
</a>
</g>
</g>
<!-- _GH__UCOPROJECT__ONTOLOGY_UNIFIEDCYBERONTOLOGY_ORG&#45;&gt;_GH__CASEWORK__ONTOLOGY_CASEONTOLOGY_ORG -->
<g id="edge25" class="edge">
<title>_GH__UCOPROJECT__ONTOLOGY_UNIFIEDCYBERONTOLOGY_ORG&#45;&gt;_GH__CASEWORK__ONTOLOGY_CASEONTOLOGY_ORG</title>
<path fill="none" stroke="black" d="M386.23,-334.1C418.25,-339.21 457.41,-346.3 492,-355 496.09,-356.03 502.27,-357.88 509.47,-360.16"/>
<polygon fill="black" stroke="black" points="508.23,-363.76 518.82,-363.5 510.38,-357.1 508.23,-363.76"/>
<text text-anchor="middle" x="456.5" y="-373.8" font-family="Times,serif" font-size="14.00">Tech&#45;</text>
<text text-anchor="middle" x="456.5" y="-358.8" font-family="Times,serif" font-size="14.00">check</text>
</g>
<!-- _GH__UCOPROJECT__UCO -->
<g id="node4" class="node">
<title>_GH__UCOPROJECT__UCO</title>
<g id="a_node4"><a xlink:href="https://github.com/ucoProject/UCO" xlink:title="UCO Ontology\nreleases">
<path fill="#8ec7d2" stroke="#0d6986" d="M122,-316C122,-316 46,-316 46,-316 40,-316 34,-310 34,-304 34,-304 34,-290 34,-290 34,-284 40,-278 46,-278 46,-278 122,-278 122,-278 128,-278 134,-284 134,-290 134,-290 134,-304 134,-304 134,-310 128,-316 122,-316"/>
<text text-anchor="middle" x="84" y="-300.8" font-family="Times,serif" font-size="14.00">UCO Ontology</text>
<text text-anchor="middle" x="84" y="-285.8" font-family="Times,serif" font-size="14.00">releases</text>
</a>
</g>
</g>
<!-- _GH__UCOPROJECT__UCO&#45;&gt;_GH__CYBER_DOMAIN_ONTOLOGY__CDO_SHAPES_EXAMPLE -->
<g id="edge27" class="edge">
<title>_GH__UCOPROJECT__UCO&#45;&gt;_GH__CYBER_DOMAIN_ONTOLOGY__CDO_SHAPES_EXAMPLE</title>
<path fill="none" stroke="black" d="M107.3,-277.57C124.79,-263.44 150.38,-245.08 176,-235 192.43,-228.54 210.6,-223.96 228.35,-220.73"/>
<polygon fill="black" stroke="black" points="228.46,-224.09 237.73,-218.97 227.29,-217.19 228.46,-224.09"/>
<text text-anchor="middle" x="198.5" y="-253.8" font-family="Times,serif" font-size="14.00">Git sub&#45;</text>
<text text-anchor="middle" x="198.5" y="-238.8" font-family="Times,serif" font-size="14.00">module</text>
</g>
<!-- _GH__UCOPROJECT__UCO&#45;&gt;_GH__UCOPROJECT__ONTOLOGY_UNIFIEDCYBERONTOLOGY_ORG -->
<g id="edge28" class="edge">
<title>_GH__UCOPROJECT__UCO&#45;&gt;_GH__UCOPROJECT__ONTOLOGY_UNIFIEDCYBERONTOLOGY_ORG</title>
<path fill="none" stroke="black" d="M134.26,-302.87C166.36,-306.69 208.85,-311.76 245.08,-316.07"/>
<polygon fill="black" stroke="black" points="244.27,-319.62 254.62,-317.33 245.1,-312.67 244.27,-319.62"/>
<text text-anchor="middle" x="198.5" y="-330.8" font-family="Times,serif" font-size="14.00">Git sub&#45;</text>
<text text-anchor="middle" x="198.5" y="-315.8" font-family="Times,serif" font-size="14.00">module</text>
</g>
<!-- _GH__UCOPROJECT__UCO_PROFILE_EXAMPLE -->
<g id="node6" class="node">
<title>_GH__UCOPROJECT__UCO_PROFILE_EXAMPLE</title>
<g id="a_node6"><a xlink:href="https://github.com/ucoProject/UCO-Profile-Example" xlink:title="UCO example&#45;base profile\nupdates">
<path fill="#8ec7d2" stroke="#0d6986" d="M391,-288C391,-288 251,-288 251,-288 245,-288 239,-282 239,-276 239,-276 239,-262 239,-262 239,-256 245,-250 251,-250 251,-250 391,-250 391,-250 397,-250 403,-256 403,-262 403,-262 403,-276 403,-276 403,-282 397,-288 391,-288"/>
<text text-anchor="middle" x="321" y="-272.8" font-family="Times,serif" font-size="14.00">UCO example&#45;base profile</text>
<text text-anchor="middle" x="321" y="-257.8" font-family="Times,serif" font-size="14.00">updates</text>
</a>
</g>
</g>
<!-- _GH__UCOPROJECT__UCO&#45;&gt;_GH__UCOPROJECT__UCO_PROFILE_EXAMPLE -->
<g id="edge29" class="edge">
<title>_GH__UCOPROJECT__UCO&#45;&gt;_GH__UCOPROJECT__UCO_PROFILE_EXAMPLE</title>
<path fill="none" stroke="black" d="M134.21,-282.53C147.65,-279.14 162.29,-275.95 176,-274 192.72,-271.63 210.63,-270.15 227.94,-269.28"/>
<polygon fill="black" stroke="black" points="227.79,-272.74 237.63,-268.8 227.48,-265.75 227.79,-272.74"/>
<text text-anchor="middle" x="198.5" y="-292.8" font-family="Times,serif" font-size="14.00">Git sub&#45;</text>
<text text-anchor="middle" x="198.5" y="-277.8" font-family="Times,serif" font-size="14.00">module</text>
</g>
<!-- _GH__CASEWORK__CASE -->
<g id="node8" class="node">
<title>_GH__CASEWORK__CASE</title>
<g id="a_node8"><a xlink:href="https://github.com/casework/CASE" xlink:title="CASE Ontology\nreleases">
<path fill="#8ec7d2" stroke="#0d6986" d="M362,-431C362,-431 280,-431 280,-431 274,-431 268,-425 268,-419 268,-419 268,-405 268,-405 268,-399 274,-393 280,-393 280,-393 362,-393 362,-393 368,-393 374,-399 374,-405 374,-405 374,-419 374,-419 374,-425 368,-431 362,-431"/>
<text text-anchor="middle" x="321" y="-415.8" font-family="Times,serif" font-size="14.00">CASE Ontology</text>
<text text-anchor="middle" x="321" y="-400.8" font-family="Times,serif" font-size="14.00">releases</text>
</a>
</g>
</g>
<!-- _GH__UCOPROJECT__UCO&#45;&gt;_GH__CASEWORK__CASE -->
<g id="edge26" class="edge">
<title>_GH__UCOPROJECT__UCO&#45;&gt;_GH__CASEWORK__CASE</title>
<path fill="none" stroke="black" d="M112.48,-316.45C142.4,-336.89 192.25,-368.82 239,-389 244.99,-391.59 251.35,-393.97 257.77,-396.14"/>
<polygon fill="black" stroke="black" points="256.28,-399.66 266.87,-399.38 258.42,-392.99 256.28,-399.66"/>
<text text-anchor="middle" x="198.5" y="-396.8" font-family="Times,serif" font-size="14.00">Git sub&#45;</text>
<text text-anchor="middle" x="198.5" y="-381.8" font-family="Times,serif" font-size="14.00">module</text>
</g>
<!-- _GH__UCOPROJECT__UCO_PROFILE_BFO -->
<g id="node5" class="node">
<title>_GH__UCOPROJECT__UCO_PROFILE_BFO</title>
<g id="a_node5"><a xlink:href="https://github.com/ucoProject/UCO-Profile-BFO" xlink:title="UCO BFO profile\nupdates">
<path fill="#8ec7d2" stroke="#0d6986" d="M623.5,-299C623.5,-299 532.5,-299 532.5,-299 526.5,-299 520.5,-293 520.5,-287 520.5,-287 520.5,-273 520.5,-273 520.5,-267 526.5,-261 532.5,-261 532.5,-261 623.5,-261 623.5,-261 629.5,-261 635.5,-267 635.5,-273 635.5,-273 635.5,-287 635.5,-287 635.5,-293 629.5,-299 623.5,-299"/>
<text text-anchor="middle" x="578" y="-283.8" font-family="Times,serif" font-size="14.00">UCO BFO profile</text>
<text text-anchor="middle" x="578" y="-268.8" font-family="Times,serif" font-size="14.00">updates</text>
</a>
</g>
</g>
<!-- _GH__UCOPROJECT__UCO_PROFILE_EXAMPLE&#45;&gt;_GH__UCOPROJECT__UCO_PROFILE_BFO -->
<g id="edge30" class="edge">
<title>_GH__UCOPROJECT__UCO_PROFILE_EXAMPLE&#45;&gt;_GH__UCOPROJECT__UCO_PROFILE_BFO</title>
<path fill="none" stroke="black" d="M403.38,-272.51C437.56,-273.99 476.85,-275.68 509.4,-277.08"/>
<polygon fill="black" stroke="black" points="509.02,-280.61 519.16,-277.55 509.32,-273.62 509.02,-280.61"/>
<text text-anchor="middle" x="456.5" y="-294.8" font-family="Times,serif" font-size="14.00">Git merge of</text>
<text text-anchor="middle" x="456.5" y="-279.8" font-family="Times,serif" font-size="14.00">base branch</text>
</g>
<!-- _GH__UCOPROJECT__UCO_PROFILE_FOAF -->
<g id="node7" class="node">
<title>_GH__UCOPROJECT__UCO_PROFILE_FOAF</title>
<g id="a_node7"><a xlink:href="https://github.com/ucoProject/UCO-Profile-FOAF" xlink:title="UCO FOAF profile\nupdates">
<path fill="#8ec7d2" stroke="#0d6986" d="M627.5,-243C627.5,-243 528.5,-243 528.5,-243 522.5,-243 516.5,-237 516.5,-231 516.5,-231 516.5,-217 516.5,-217 516.5,-211 522.5,-205 528.5,-205 528.5,-205 627.5,-205 627.5,-205 633.5,-205 639.5,-211 639.5,-217 639.5,-217 639.5,-231 639.5,-231 639.5,-237 633.5,-243 627.5,-243"/>
<text text-anchor="middle" x="578" y="-227.8" font-family="Times,serif" font-size="14.00">UCO FOAF profile</text>
<text text-anchor="middle" x="578" y="-212.8" font-family="Times,serif" font-size="14.00">updates</text>
</a>
</g>
</g>
<!-- _GH__UCOPROJECT__UCO_PROFILE_EXAMPLE&#45;&gt;_GH__UCOPROJECT__UCO_PROFILE_FOAF -->
<g id="edge31" class="edge">
<title>_GH__UCOPROJECT__UCO_PROFILE_EXAMPLE&#45;&gt;_GH__UCOPROJECT__UCO_PROFILE_FOAF</title>
<path fill="none" stroke="black" d="M379.36,-249.52C392.89,-245.51 407.35,-241.7 421,-239 448.33,-233.6 478.76,-230.12 505.43,-227.89"/>
<polygon fill="black" stroke="black" points="505.53,-231.31 515.22,-227.04 504.97,-224.33 505.53,-231.31"/>
<text text-anchor="middle" x="456.5" y="-257.8" font-family="Times,serif" font-size="14.00">Git merge of</text>
<text text-anchor="middle" x="456.5" y="-242.8" font-family="Times,serif" font-size="14.00">base branch</text>
</g>
<!-- _GH__CASEWORK__CASE&#45;&gt;_GH__CASEWORK__ONTOLOGY_CASEONTOLOGY_ORG -->
<g id="edge4" class="edge">
<title>_GH__CASEWORK__CASE&#45;&gt;_GH__CASEWORK__ONTOLOGY_CASEONTOLOGY_ORG</title>
<path fill="none" stroke="black" d="M374.3,-402.77C389.34,-400.33 405.79,-397.86 421,-396 446.26,-392.91 473.92,-390.34 498.83,-388.33"/>
<polygon fill="black" stroke="black" points="499,-391.75 508.7,-387.47 498.45,-384.77 499,-391.75"/>
<text text-anchor="middle" x="456.5" y="-414.8" font-family="Times,serif" font-size="14.00">Git sub&#45;</text>
<text text-anchor="middle" x="456.5" y="-399.8" font-family="Times,serif" font-size="14.00">module</text>
</g>
<!-- _GH__CIPHERTECHSOLUTIONS__CASE_BINDINGS_CSHARP -->
<g id="node17" class="node">
<title>_GH__CIPHERTECHSOLUTIONS__CASE_BINDINGS_CSHARP</title>
<g id="a_node17"><a xlink:href="https://github.com/ciphertechsolutions/CASE-Bindings-CSharp" xlink:title="CASE&#45;Bindings&#45;CSharp\nadopts new ontology version">
<path fill="#8ec7d2" stroke="#0d6986" d="M1212.5,-468C1212.5,-468 1063.5,-468 1063.5,-468 1057.5,-468 1051.5,-462 1051.5,-456 1051.5,-456 1051.5,-442 1051.5,-442 1051.5,-436 1057.5,-430 1063.5,-430 1063.5,-430 1212.5,-430 1212.5,-430 1218.5,-430 1224.5,-436 1224.5,-442 1224.5,-442 1224.5,-456 1224.5,-456 1224.5,-462 1218.5,-468 1212.5,-468"/>
<text text-anchor="middle" x="1138" y="-452.8" font-family="Times,serif" font-size="14.00">CASE&#45;Bindings&#45;CSharp</text>
<text text-anchor="middle" x="1138" y="-437.8" font-family="Times,serif" font-size="14.00">adopts new ontology version</text>
</a>
</g>
</g>
<!-- _GH__CASEWORK__CASE&#45;&gt;_GH__CIPHERTECHSOLUTIONS__CASE_BINDINGS_CSHARP -->
<g id="edge3" class="edge">
<title>_GH__CASEWORK__CASE&#45;&gt;_GH__CIPHERTECHSOLUTIONS__CASE_BINDINGS_CSHARP</title>
<path fill="none" stroke="black" d="M374.29,-420.47C389.33,-422.62 405.78,-424.68 421,-426 641.92,-445.11 902.42,-448.76 1040.21,-449.21"/>
<polygon fill="black" stroke="black" points="1040.12,-452.71 1050.13,-449.24 1040.14,-445.71 1040.12,-452.71"/>
</g>
<!-- _GH__CASEWORK__CASE_UTILITIES_PYTHON -->
<g id="node21" class="node">
<title>_GH__CASEWORK__CASE_UTILITIES_PYTHON</title>
<g id="a_node21"><a xlink:href="https://github.com/casework/CASE-Utilities-Python" xlink:title="case&#45;utils\nreleases">
<path fill="#8ec7d2" stroke="#0d6986" d="M600,-979C600,-979 556,-979 556,-979 550,-979 544,-973 544,-967 544,-967 544,-953 544,-953 544,-947 550,-941 556,-941 556,-941 600,-941 600,-941 606,-941 612,-947 612,-953 612,-953 612,-967 612,-967 612,-973 606,-979 600,-979"/>
<text text-anchor="middle" x="578" y="-963.8" font-family="Times,serif" font-size="14.00">case&#45;utils</text>
<text text-anchor="middle" x="578" y="-948.8" font-family="Times,serif" font-size="14.00">releases</text>
</a>
</g>
</g>
<!-- _GH__CASEWORK__CASE&#45;&gt;_GH__CASEWORK__CASE_UTILITIES_PYTHON -->
<g id="edge2" class="edge">
<title>_GH__CASEWORK__CASE&#45;&gt;_GH__CASEWORK__CASE_UTILITIES_PYTHON</title>
<path fill="none" stroke="black" d="M323.11,-431.35C328.52,-507.2 358.4,-787.39 510,-937 516.54,-943.46 524.98,-948.1 533.64,-951.45"/>
<polygon fill="black" stroke="black" points="532.22,-955 542.82,-954.81 534.42,-948.35 532.22,-955"/>
<text text-anchor="middle" x="456.5" y="-933.8" font-family="Times,serif" font-size="14.00">Git sub&#45;</text>
<text text-anchor="middle" x="456.5" y="-918.8" font-family="Times,serif" font-size="14.00">module</text>
</g>
<!-- _GH__CASEWORK__CASE_IMPLEMENTATON_GNU_TIME -->
<g id="node10" class="node">
<title>_GH__CASEWORK__CASE_IMPLEMENTATON_GNU_TIME</title>
<g id="a_node10"><a xlink:href="https://github.com/casework/CASE-Implementation-GNU-Time" xlink:title="CASE&#45;Implementation&#45;GNU&#45;Time\nadopts new case&#45;utils">
<path fill="#8ec7d2" stroke="#0d6986" d="M1231,-406C1231,-406 1045,-406 1045,-406 1039,-406 1033,-400 1033,-394 1033,-394 1033,-380 1033,-380 1033,-374 1039,-368 1045,-368 1045,-368 1231,-368 1231,-368 1237,-368 1243,-374 1243,-380 1243,-380 1243,-394 1243,-394 1243,-400 1237,-406 1231,-406"/>
<text text-anchor="middle" x="1138" y="-390.8" font-family="Times,serif" font-size="14.00">CASE&#45;Implementation&#45;GNU&#45;Time</text>
<text text-anchor="middle" x="1138" y="-375.8" font-family="Times,serif" font-size="14.00">adopts new case&#45;utils</text>
</a>
</g>
</g>
<!-- _GH__CASEWORK__CASE_IMPLEMENTATON_PYPI_EXIFREAD -->
<g id="node11" class="node">
<title>_GH__CASEWORK__CASE_IMPLEMENTATON_PYPI_EXIFREAD</title>
<g id="a_node11"><a xlink:href="https://github.com/casework/CASE-Implementation-PyPI-Exifread" xlink:title="CASE&#45;Implementation&#45;PyPI&#45;Exifread\nadopts new case&#45;validation&#45;action">
<path fill="#8ec7d2" stroke="#0d6986" d="M1238,-545C1238,-545 1038,-545 1038,-545 1032,-545 1026,-539 1026,-533 1026,-533 1026,-519 1026,-519 1026,-513 1032,-507 1038,-507 1038,-507 1238,-507 1238,-507 1244,-507 1250,-513 1250,-519 1250,-519 1250,-533 1250,-533 1250,-539 1244,-545 1238,-545"/>
<text text-anchor="middle" x="1138" y="-529.8" font-family="Times,serif" font-size="14.00">CASE&#45;Implementation&#45;PyPI&#45;Exifread</text>
<text text-anchor="middle" x="1138" y="-514.8" font-family="Times,serif" font-size="14.00">adopts new case&#45;validation&#45;action</text>
</a>
</g>
</g>
<!-- _GH__CASEWORK__CASE_IMPLEMENTATON_PYPI_PILLOW -->
<g id="node12" class="node">
<title>_GH__CASEWORK__CASE_IMPLEMENTATON_PYPI_PILLOW</title>
<g id="a_node12"><a xlink:href="https://github.com/casework/CASE-Implementation-PyPI-Pillow" xlink:title="CASE&#45;Implementation&#45;PyPI&#45;Pillow\nadopts new case&#45;validation&#45;action">
<path fill="#8ec7d2" stroke="#0d6986" d="M1232.5,-601C1232.5,-601 1043.5,-601 1043.5,-601 1037.5,-601 1031.5,-595 1031.5,-589 1031.5,-589 1031.5,-575 1031.5,-575 1031.5,-569 1037.5,-563 1043.5,-563 1043.5,-563 1232.5,-563 1232.5,-563 1238.5,-563 1244.5,-569 1244.5,-575 1244.5,-575 1244.5,-589 1244.5,-589 1244.5,-595 1238.5,-601 1232.5,-601"/>
<text text-anchor="middle" x="1138" y="-585.8" font-family="Times,serif" font-size="14.00">CASE&#45;Implementation&#45;PyPI&#45;Pillow</text>
<text text-anchor="middle" x="1138" y="-570.8" font-family="Times,serif" font-size="14.00">adopts new case&#45;validation&#45;action</text>
</a>
</g>
</g>
<!-- _GH__CASEWORK__CASE_IMPLEMENTATON_UFED_XML -->
<g id="node13" class="node">
<title>_GH__CASEWORK__CASE_IMPLEMENTATON_UFED_XML</title>
<g id="a_node13"><a xlink:href="https://github.com/casework/CASE-Implementation-UFED-XML" xlink:title="CASE&#45;Implementation&#45;UFED&#45;XML\nadopts new case&#45;validation&#45;action">
<path fill="#8ec7d2" stroke="#0d6986" d="M1235,-657C1235,-657 1041,-657 1041,-657 1035,-657 1029,-651 1029,-645 1029,-645 1029,-631 1029,-631 1029,-625 1035,-619 1041,-619 1041,-619 1235,-619 1235,-619 1241,-619 1247,-625 1247,-631 1247,-631 1247,-645 1247,-645 1247,-651 1241,-657 1235,-657"/>
<text text-anchor="middle" x="1138" y="-641.8" font-family="Times,serif" font-size="14.00">CASE&#45;Implementation&#45;UFED&#45;XML</text>
<text text-anchor="middle" x="1138" y="-626.8" font-family="Times,serif" font-size="14.00">adopts new case&#45;validation&#45;action</text>
</a>
</g>
</g>
<!-- _GH__CASEWORK__CASE_IMPLEMENTATON_XRY -->
<g id="node14" class="node">
<title>_GH__CASEWORK__CASE_IMPLEMENTATON_XRY</title>
<g id="a_node14"><a xlink:href="https://github.com/casework/CASE-Implementation-XRY" xlink:title="CASE&#45;Implementation&#45;XRY adopts\nnew case&#45;validation&#45;action">
<path fill="#8ec7d2" stroke="#0d6986" d="M1233,-713C1233,-713 1043,-713 1043,-713 1037,-713 1031,-707 1031,-701 1031,-701 1031,-687 1031,-687 1031,-681 1037,-675 1043,-675 1043,-675 1233,-675 1233,-675 1239,-675 1245,-681 1245,-687 1245,-687 1245,-701 1245,-701 1245,-707 1239,-713 1233,-713"/>
<text text-anchor="middle" x="1138" y="-697.8" font-family="Times,serif" font-size="14.00">CASE&#45;Implementation&#45;XRY adopts</text>
<text text-anchor="middle" x="1138" y="-682.8" font-family="Times,serif" font-size="14.00">new case&#45;validation&#45;action</text>
</a>
</g>
</g>
<!-- _GH__CASEWORK__CASE_MAPPING_TEMPLATE_PYTHON -->
<g id="node15" class="node">
<title>_GH__CASEWORK__CASE_MAPPING_TEMPLATE_PYTHON</title>
<g id="a_node15"><a xlink:href="https://github.com/casework/CASE-Mapping-Template-Python" xlink:title="CASE&#45;Mapping&#45;Template&#45;Python\nadopts new case&#45;validation&#45;action">
<path fill="#8ec7d2" stroke="#0d6986" d="M1228,-769C1228,-769 1048,-769 1048,-769 1042,-769 1036,-763 1036,-757 1036,-757 1036,-743 1036,-743 1036,-737 1042,-731 1048,-731 1048,-731 1228,-731 1228,-731 1234,-731 1240,-737 1240,-743 1240,-743 1240,-757 1240,-757 1240,-763 1234,-769 1228,-769"/>
<text text-anchor="middle" x="1138" y="-753.8" font-family="Times,serif" font-size="14.00">CASE&#45;Mapping&#45;Template&#45;Python</text>
<text text-anchor="middle" x="1138" y="-738.8" font-family="Times,serif" font-size="14.00">adopts new case&#45;validation&#45;action</text>
</a>
</g>
</g>
<!-- _GH__CASEWORK__CASE_BINDINGS_CSHARP_MONITOR -->
<g id="node16" class="node">
<title>_GH__CASEWORK__CASE_BINDINGS_CSHARP_MONITOR</title>
<g id="a_node16"><a xlink:href="https://github.com/casework/CASE-Bindings-CSharp-Monitor" xlink:title="CASE Bindings CSharp Monitor\ntests NuGet package with validation action">
<path fill="#8ec7d2" stroke="#0d6986" d="M1570,-468C1570,-468 1343,-468 1343,-468 1337,-468 1331,-462 1331,-456 1331,-456 1331,-442 1331,-442 1331,-436 1337,-430 1343,-430 1343,-430 1570,-430 1570,-430 1576,-430 1582,-436 1582,-442 1582,-442 1582,-456 1582,-456 1582,-462 1576,-468 1570,-468"/>
<text text-anchor="middle" x="1456.5" y="-452.8" font-family="Times,serif" font-size="14.00">CASE Bindings CSharp Monitor</text>
<text text-anchor="middle" x="1456.5" y="-437.8" font-family="Times,serif" font-size="14.00">tests NuGet package with validation action</text>
</a>
</g>
</g>
<!-- _GH__CIPHERTECHSOLUTIONS__CASE_BINDINGS_CSHARP&#45;&gt;_GH__CASEWORK__CASE_BINDINGS_CSHARP_MONITOR -->
<g id="edge16" class="edge">
<title>_GH__CIPHERTECHSOLUTIONS__CASE_BINDINGS_CSHARP&#45;&gt;_GH__CASEWORK__CASE_BINDINGS_CSHARP_MONITOR</title>
<path fill="none" stroke="black" d="M1224.65,-449C1253.93,-449 1287.44,-449 1319.68,-449"/>
<polygon fill="black" stroke="black" points="1319.56,-452.5 1329.56,-449 1319.56,-445.5 1319.56,-452.5"/>
<text text-anchor="middle" x="1290.5" y="-452.8" font-family="Times,serif" font-size="14.00">NuGet</text>
</g>
<!-- _GH__AJNELSON_NIST__CASE_EXAMPLES_QC -->
<g id="node18" class="node">
<title>_GH__AJNELSON_NIST__CASE_EXAMPLES_QC</title>
<g id="a_node18"><a xlink:href="https://github.com/ajnelson-nist/CASE-Examples-QC" xlink:title="CASE&#45;Examples&#45;QC\nadopts CASE&#45;Examples and\nCASE website updates">
<path fill="#8ec7d2" stroke="#0d6986" d="M1212,-1053.5C1212,-1053.5 1064,-1053.5 1064,-1053.5 1058,-1053.5 1052,-1047.5 1052,-1041.5 1052,-1041.5 1052,-1012.5 1052,-1012.5 1052,-1006.5 1058,-1000.5 1064,-1000.5 1064,-1000.5 1212,-1000.5 1212,-1000.5 1218,-1000.5 1224,-1006.5 1224,-1012.5 1224,-1012.5 1224,-1041.5 1224,-1041.5 1224,-1047.5 1218,-1053.5 1212,-1053.5"/>
<text text-anchor="middle" x="1138" y="-1038.3" font-family="Times,serif" font-size="14.00">CASE&#45;Examples&#45;QC</text>
<text text-anchor="middle" x="1138" y="-1023.3" font-family="Times,serif" font-size="14.00">adopts CASE&#45;Examples and</text>
<text text-anchor="middle" x="1138" y="-1008.3" font-family="Times,serif" font-size="14.00">CASE website updates</text>
</a>
</g>
</g>
<!-- _GH__CASEWORK__CASE_IMPLEMENTATON_PROV_O -->
<g id="node24" class="node">
<title>_GH__CASEWORK__CASE_IMPLEMENTATON_PROV_O</title>
<g id="a_node24"><a xlink:href="https://github.com/casework/CASE-Implementation-PROV-O" xlink:title="case&#45;prov\nreleases">
<path fill="#8ec7d2" stroke="#0d6986" d="M1479,-1099C1479,-1099 1434,-1099 1434,-1099 1428,-1099 1422,-1093 1422,-1087 1422,-1087 1422,-1073 1422,-1073 1422,-1067 1428,-1061 1434,-1061 1434,-1061 1479,-1061 1479,-1061 1485,-1061 1491,-1067 1491,-1073 1491,-1073 1491,-1087 1491,-1087 1491,-1093 1485,-1099 1479,-1099"/>
<text text-anchor="middle" x="1456.5" y="-1083.8" font-family="Times,serif" font-size="14.00">case&#45;prov</text>
<text text-anchor="middle" x="1456.5" y="-1068.8" font-family="Times,serif" font-size="14.00">releases</text>
</a>
</g>
</g>
<!-- _GH__AJNELSON_NIST__CASE_EXAMPLES_QC&#45;&gt;_GH__CASEWORK__CASE_IMPLEMENTATON_PROV_O -->
<g id="edge1" class="edge">
<title>_GH__AJNELSON_NIST__CASE_EXAMPLES_QC&#45;&gt;_GH__CASEWORK__CASE_IMPLEMENTATON_PROV_O</title>
<path fill="none" stroke="black" d="M1224.23,-1041.27C1284.36,-1051.34 1362.51,-1064.43 1410.82,-1072.52"/>
<polygon fill="black" stroke="black" points="1410.1,-1076.11 1420.54,-1074.31 1411.25,-1069.21 1410.1,-1076.11"/>
<text text-anchor="middle" x="1290.5" y="-1073.8" font-family="Times,serif" font-size="14.00">Git sub&#45;</text>
<text text-anchor="middle" x="1290.5" y="-1058.8" font-family="Times,serif" font-size="14.00">module</text>
</g>
<!-- _GH__CASEWORK__CASE_EXAMPLES -->
<g id="node19" class="node">
<title>_GH__CASEWORK__CASE_EXAMPLES</title>
<g id="a_node19"><a xlink:href="https://github.com/casework/CASE-Examples" xlink:title="CASE&#45;Examples\nadopts new case&#45;utils">
<path fill="#8ec7d2" stroke="#0d6986" d="M861.5,-1087C861.5,-1087 752.5,-1087 752.5,-1087 746.5,-1087 740.5,-1081 740.5,-1075 740.5,-1075 740.5,-1061 740.5,-1061 740.5,-1055 746.5,-1049 752.5,-1049 752.5,-1049 861.5,-1049 861.5,-1049 867.5,-1049 873.5,-1055 873.5,-1061 873.5,-1061 873.5,-1075 873.5,-1075 873.5,-1081 867.5,-1087 861.5,-1087"/>
<text text-anchor="middle" x="807" y="-1071.8" font-family="Times,serif" font-size="14.00">CASE&#45;Examples</text>
<text text-anchor="middle" x="807" y="-1056.8" font-family="Times,serif" font-size="14.00">adopts new case&#45;utils</text>
</a>
</g>
</g>
<!-- _GH__CASEWORK__CASE_EXAMPLES&#45;&gt;_GH__AJNELSON_NIST__CASE_EXAMPLES_QC -->
<g id="edge5" class="edge">
<title>_GH__CASEWORK__CASE_EXAMPLES&#45;&gt;_GH__AJNELSON_NIST__CASE_EXAMPLES_QC</title>
<path fill="none" stroke="black" d="M873.79,-1059.8C921.69,-1053.83 987.32,-1045.65 1041.06,-1038.96"/>
<polygon fill="black" stroke="black" points="1041.15,-1042.35 1050.64,-1037.64 1040.29,-1035.4 1041.15,-1042.35"/>
<text text-anchor="middle" x="962.5" y="-1071.8" font-family="Times,serif" font-size="14.00">Git sub&#45;</text>
<text text-anchor="middle" x="962.5" y="-1056.8" font-family="Times,serif" font-size="14.00">module</text>
</g>
<!-- _GH__CASEWORK__CASE_IMPLEMENTATON_EXIFTOOL -->
<g id="node20" class="node">
<title>_GH__CASEWORK__CASE_IMPLEMENTATON_EXIFTOOL</title>
<g id="a_node20"><a xlink:href="https://github.com/casework/CASE-Implementation-ExifTool" xlink:title="CASE&#45;Implementation&#45;ExifTool\nadopts new case&#45;utils">
<path fill="#8ec7d2" stroke="#0d6986" d="M893,-1163C893,-1163 721,-1163 721,-1163 715,-1163 709,-1157 709,-1151 709,-1151 709,-1137 709,-1137 709,-1131 715,-1125 721,-1125 721,-1125 893,-1125 893,-1125 899,-1125 905,-1131 905,-1137 905,-1137 905,-1151 905,-1151 905,-1157 899,-1163 893,-1163"/>
<text text-anchor="middle" x="807" y="-1147.8" font-family="Times,serif" font-size="14.00">CASE&#45;Implementation&#45;ExifTool</text>
<text text-anchor="middle" x="807" y="-1132.8" font-family="Times,serif" font-size="14.00">adopts new case&#45;utils</text>
</a>
</g>
</g>
<!-- _GH__CASEWORK__CASE_UTILITIES_PYTHON&#45;&gt;_GH__CASEWORK__CASE_IMPLEMENTATON_GNU_TIME -->
<g id="edge10" class="edge">
<title>_GH__CASEWORK__CASE_UTILITIES_PYTHON&#45;&gt;_GH__CASEWORK__CASE_IMPLEMENTATON_GNU_TIME</title>
<path fill="none" stroke="black" d="M612.44,-955.87C624.72,-952.67 637.64,-947 646,-937 660.84,-919.23 692.96,-541.7 709,-525 800.89,-429.32 909.78,-563.36 1002,-468 1017.64,-451.82 994.74,-434.54 1010,-418 1014.04,-413.62 1018.59,-409.81 1023.49,-406.51"/>
<polygon fill="black" stroke="black" points="1024.85,-409.18 1031.68,-401.08 1021.29,-403.15 1024.85,-409.18"/>
<text text-anchor="middle" x="807" y="-528.8" font-family="Times,serif" font-size="14.00">PyPI</text>
</g>
<!-- _GH__CASEWORK__CASE_UTILITIES_PYTHON&#45;&gt;_GH__CASEWORK__CASE_IMPLEMENTATON_PYPI_EXIFREAD -->
<g id="edge12" class="edge">
<title>_GH__CASEWORK__CASE_UTILITIES_PYTHON&#45;&gt;_GH__CASEWORK__CASE_IMPLEMENTATON_PYPI_EXIFREAD</title>
<path fill="none" stroke="black" d="M612.21,-953.89C623.89,-950.46 636.46,-945.15 646,-937 659,-925.89 655.6,-917.89 664,-903 762.81,-727.86 745.23,-626.01 923,-532 950.82,-517.29 983.65,-511.65 1015.13,-510.7"/>
<polygon fill="black" stroke="black" points="1014.8,-514.19 1024.75,-510.55 1014.7,-507.19 1014.8,-514.19"/>
<text text-anchor="middle" x="807" y="-814.8" font-family="Times,serif" font-size="14.00">PyPI</text>
</g>
<!-- _GH__CASEWORK__CASE_UTILITIES_PYTHON&#45;&gt;_GH__AJNELSON_NIST__CASE_EXAMPLES_QC -->
<g id="edge7" class="edge">
<title>_GH__CASEWORK__CASE_UTILITIES_PYTHON&#45;&gt;_GH__AJNELSON_NIST__CASE_EXAMPLES_QC</title>
<path fill="none" stroke="black" d="M612.05,-958.56C671.14,-956.49 798.7,-954.42 905,-969 950.41,-975.23 999.8,-986.87 1041.29,-998.1"/>
<polygon fill="black" stroke="black" points="1040.09,-1001.67 1050.66,-1000.94 1041.94,-994.92 1040.09,-1001.67"/>
<text text-anchor="middle" x="807" y="-972.8" font-family="Times,serif" font-size="14.00">PyPI</text>
</g>
<!-- _GH__CASEWORK__CASE_UTILITIES_PYTHON&#45;&gt;_GH__CASEWORK__CASE_EXAMPLES -->
<g id="edge8" class="edge">
<title>_GH__CASEWORK__CASE_UTILITIES_PYTHON&#45;&gt;_GH__CASEWORK__CASE_EXAMPLES</title>
<path fill="none" stroke="black" d="M605.7,-979.43C631.19,-997.23 671.19,-1023.28 709,-1040 715.78,-1043 722.96,-1045.77 730.24,-1048.31"/>
<polygon fill="black" stroke="black" points="728.58,-1051.78 739.18,-1051.62 730.8,-1045.14 728.58,-1051.78"/>
<text text-anchor="middle" x="677.5" y="-1034.8" font-family="Times,serif" font-size="14.00">PyPI</text>
</g>
<!-- _GH__CASEWORK__CASE_UTILITIES_PYTHON&#45;&gt;_GH__CASEWORK__CASE_IMPLEMENTATON_EXIFTOOL -->
<g id="edge9" class="edge">
<title>_GH__CASEWORK__CASE_UTILITIES_PYTHON&#45;&gt;_GH__CASEWORK__CASE_IMPLEMENTATON_EXIFTOOL</title>
<path fill="none" stroke="black" d="M584.31,-979.38C594.25,-1011.89 618.87,-1077.17 664,-1111 674.39,-1118.79 686.31,-1124.78 698.74,-1129.38"/>
<polygon fill="black" stroke="black" points="697.2,-1132.89 707.8,-1132.78 699.45,-1126.26 697.2,-1132.89"/>
<text text-anchor="middle" x="677.5" y="-1127.8" font-family="Times,serif" font-size="14.00">PyPI</text>
</g>
<!-- _GH__CASEWORK__CASEWORK_GITHUB_IO -->
<g id="node22" class="node">
<title>_GH__CASEWORK__CASEWORK_GITHUB_IO</title>
<g id="a_node22"><a xlink:href="https://github.com/casework/casework.github.io" xlink:title="CASE website\nadopts new case&#45;utils">
<path fill="#8ec7d2" stroke="#0d6986" d="M861.5,-1031C861.5,-1031 752.5,-1031 752.5,-1031 746.5,-1031 740.5,-1025 740.5,-1019 740.5,-1019 740.5,-1005 740.5,-1005 740.5,-999 746.5,-993 752.5,-993 752.5,-993 861.5,-993 861.5,-993 867.5,-993 873.5,-999 873.5,-1005 873.5,-1005 873.5,-1019 873.5,-1019 873.5,-1025 867.5,-1031 861.5,-1031"/>
<text text-anchor="middle" x="807" y="-1015.8" font-family="Times,serif" font-size="14.00">CASE website</text>
<text text-anchor="middle" x="807" y="-1000.8" font-family="Times,serif" font-size="14.00">adopts new case&#45;utils</text>
</a>
</g>
</g>
<!-- _GH__CASEWORK__CASE_UTILITIES_PYTHON&#45;&gt;_GH__CASEWORK__CASEWORK_GITHUB_IO -->
<g id="edge14" class="edge">
<title>_GH__CASEWORK__CASE_UTILITIES_PYTHON&#45;&gt;_GH__CASEWORK__CASEWORK_GITHUB_IO</title>
<path fill="none" stroke="black" d="M612.49,-967.67C643.29,-974.73 690.07,-985.44 729.92,-994.57"/>
<polygon fill="black" stroke="black" points="728.89,-998.16 739.42,-996.98 730.45,-991.33 728.89,-998.16"/>
<text text-anchor="middle" x="677.5" y="-987.8" font-family="Times,serif" font-size="14.00">PyPI</text>
</g>
<!-- _GH__CASEWORK__CASE_UTILITIES_PYTHON&#45;&gt;_GH__CASEWORK__CASE_IMPLEMENTATON_PROV_O -->
<g id="edge11" class="edge">
<title>_GH__CASEWORK__CASE_UTILITIES_PYTHON&#45;&gt;_GH__CASEWORK__CASE_IMPLEMENTATON_PROV_O</title>
<path fill="none" stroke="black" d="M590.13,-979.41C609.52,-1010.99 652.85,-1072.38 709,-1096 773.48,-1123.12 1259.92,-1093.13 1410.93,-1083.06"/>
<polygon fill="black" stroke="black" points="1410.88,-1086.5 1420.62,-1082.34 1410.41,-1079.52 1410.88,-1086.5"/>
<text text-anchor="middle" x="962.5" y="-1109.8" font-family="Times,serif" font-size="14.00">PyPI</text>
</g>
<!-- _GH__KCHASON__CASE_VALIDATION_ACTION -->
<g id="node26" class="node">
<title>_GH__KCHASON__CASE_VALIDATION_ACTION</title>
<g id="a_node26"><a xlink:href="https://github.com/kchason/case-validation-action" xlink:title="case&#45;validation&#45;action\nreleases">
<path fill="#8ec7d2" stroke="#0d6986" d="M863,-893C863,-893 751,-893 751,-893 745,-893 739,-887 739,-881 739,-881 739,-867 739,-867 739,-861 745,-855 751,-855 751,-855 863,-855 863,-855 869,-855 875,-861 875,-867 875,-867 875,-881 875,-881 875,-887 869,-893 863,-893"/>
<text text-anchor="middle" x="807" y="-877.8" font-family="Times,serif" font-size="14.00">case&#45;validation&#45;action</text>
<text text-anchor="middle" x="807" y="-862.8" font-family="Times,serif" font-size="14.00">releases</text>
</a>
</g>
</g>
<!-- _GH__CASEWORK__CASE_UTILITIES_PYTHON&#45;&gt;_GH__KCHASON__CASE_VALIDATION_ACTION -->
<g id="edge13" class="edge">
<title>_GH__CASEWORK__CASE_UTILITIES_PYTHON&#45;&gt;_GH__KCHASON__CASE_VALIDATION_ACTION</title>
<path fill="none" stroke="black" d="M612.33,-950.27C623.28,-946.63 635.36,-942.12 646,-937 675.89,-922.63 678.44,-909.89 709,-897 715.12,-894.42 721.59,-892.09 728.16,-890"/>
<polygon fill="black" stroke="black" points="728.95,-893.12 737.54,-886.92 726.95,-886.41 728.95,-893.12"/>
<text text-anchor="middle" x="677.5" y="-929.8" font-family="Times,serif" font-size="14.00">PyPI</text>
</g>
<!-- _GH__CASEWORK__CASEWORK_GITHUB_IO&#45;&gt;_GH__AJNELSON_NIST__CASE_EXAMPLES_QC -->
<g id="edge15" class="edge">
<title>_GH__CASEWORK__CASEWORK_GITHUB_IO&#45;&gt;_GH__AJNELSON_NIST__CASE_EXAMPLES_QC</title>
<path fill="none" stroke="black" d="M873.9,-1004.61C889.95,-1003.11 907.07,-1001.76 923,-1001 958.07,-999.33 967.05,-997.66 1002,-1001 1014.75,-1002.22 1028.08,-1004.07 1041.2,-1006.23"/>
<polygon fill="black" stroke="black" points="1040.21,-1009.78 1050.66,-1008.02 1041.39,-1002.88 1040.21,-1009.78"/>
<text text-anchor="middle" x="962.5" y="-1019.8" font-family="Times,serif" font-size="14.00">Git sub&#45;</text>
<text text-anchor="middle" x="962.5" y="-1004.8" font-family="Times,serif" font-size="14.00">module</text>
</g>
<!-- _GH__CASEWORK__CASE_CORPORA -->
<g id="node23" class="node">
<title>_GH__CASEWORK__CASE_CORPORA</title>
<g id="a_node23"><a xlink:href="https://github.com/casework/CASE-Corpora" xlink:title="CASE&#45;Corpora\nadopts new case&#45;prov">
<path fill="#8ec7d2" stroke="#0d6986" d="M1781,-1099C1781,-1099 1671,-1099 1671,-1099 1665,-1099 1659,-1093 1659,-1087 1659,-1087 1659,-1073 1659,-1073 1659,-1067 1665,-1061 1671,-1061 1671,-1061 1781,-1061 1781,-1061 1787,-1061 1793,-1067 1793,-1073 1793,-1073 1793,-1087 1793,-1087 1793,-1093 1787,-1099 1781,-1099"/>
<text text-anchor="middle" x="1726" y="-1083.8" font-family="Times,serif" font-size="14.00">CASE&#45;Corpora</text>
<text text-anchor="middle" x="1726" y="-1068.8" font-family="Times,serif" font-size="14.00">adopts new case&#45;prov</text>
</a>
</g>
</g>
<!-- _GH__CASEWORK__CASE_IMPLEMENTATON_PROV_O&#45;&gt;_GH__CASEWORK__CASE_CORPORA -->
<g id="edge6" class="edge">
<title>_GH__CASEWORK__CASE_IMPLEMENTATON_PROV_O&#45;&gt;_GH__CASEWORK__CASE_CORPORA</title>
<path fill="none" stroke="black" d="M1491.38,-1080C1530.49,-1080 1596.08,-1080 1647.82,-1080"/>
<polygon fill="black" stroke="black" points="1647.63,-1083.5 1657.63,-1080 1647.63,-1076.5 1647.63,-1083.5"/>
<text text-anchor="middle" x="1627.5" y="-1083.8" font-family="Times,serif" font-size="14.00">PyPI</text>
</g>
<!-- _GH__CASEWORK__CASE_EXAMPLES_CONVERSION -->
<g id="node25" class="node">
<title>_GH__CASEWORK__CASE_EXAMPLES_CONVERSION</title>
<g id="a_node25"><a xlink:href="https://github.com/casework/CASE-Examples-Conversion" xlink:title="CASE Conversion Examples">
<path fill="#8ec7d2" stroke="#0d6986" d="M1213.5,-891C1213.5,-891 1062.5,-891 1062.5,-891 1056.5,-891 1050.5,-885 1050.5,-879 1050.5,-879 1050.5,-867 1050.5,-867 1050.5,-861 1056.5,-855 1062.5,-855 1062.5,-855 1213.5,-855 1213.5,-855 1219.5,-855 1225.5,-861 1225.5,-867 1225.5,-867 1225.5,-879 1225.5,-879 1225.5,-885 1219.5,-891 1213.5,-891"/>
<text text-anchor="middle" x="1138" y="-869.3" font-family="Times,serif" font-size="14.00">CASE Conversion Examples</text>
</a>
</g>
</g>
<!-- _GH__KCHASON__CASE_VALIDATION_ACTION&#45;&gt;_GH__CASEWORK__CASE_IMPLEMENTATON_PYPI_EXIFREAD -->
<g id="edge19" class="edge">
<title>_GH__KCHASON__CASE_VALIDATION_ACTION&#45;&gt;_GH__CASEWORK__CASE_IMPLEMENTATON_PYPI_EXIFREAD</title>
<path fill="none" stroke="black" d="M808.55,-854.89C811.28,-798.99 827.43,-634.81 923,-557 937.93,-544.84 975.27,-537.45 1014.65,-532.96"/>
<polygon fill="black" stroke="black" points="1014.95,-536.34 1024.52,-531.79 1014.2,-529.38 1014.95,-536.34"/>
<text text-anchor="middle" x="962.5" y="-575.8" font-family="Times,serif" font-size="14.00">GitHub</text>
<text text-anchor="middle" x="962.5" y="-560.8" font-family="Times,serif" font-size="14.00">Action</text>
</g>
<!-- _GH__KCHASON__CASE_VALIDATION_ACTION&#45;&gt;_GH__CASEWORK__CASE_IMPLEMENTATON_PYPI_PILLOW -->
<g id="edge20" class="edge">
<title>_GH__KCHASON__CASE_VALIDATION_ACTION&#45;&gt;_GH__CASEWORK__CASE_IMPLEMENTATON_PYPI_PILLOW</title>
<path fill="none" stroke="black" d="M810.16,-854.63C816.79,-805.15 841.63,-673.63 923,-612 939.03,-599.86 979.14,-592.63 1020.36,-588.32"/>
<polygon fill="black" stroke="black" points="1020.53,-591.72 1030.14,-587.26 1019.84,-584.76 1020.53,-591.72"/>
<text text-anchor="middle" x="962.5" y="-630.8" font-family="Times,serif" font-size="14.00">GitHub</text>
<text text-anchor="middle" x="962.5" y="-615.8" font-family="Times,serif" font-size="14.00">Action</text>
</g>
<!-- _GH__KCHASON__CASE_VALIDATION_ACTION&#45;&gt;_GH__CASEWORK__CASE_IMPLEMENTATON_UFED_XML -->
<g id="edge21" class="edge">
<title>_GH__KCHASON__CASE_VALIDATION_ACTION&#45;&gt;_GH__CASEWORK__CASE_IMPLEMENTATON_UFED_XML</title>
<path fill="none" stroke="black" d="M812.47,-854.53C823.29,-812.27 855.13,-712.22 923,-666 939.17,-654.99 977.75,-648.3 1017.77,-644.24"/>
<polygon fill="black" stroke="black" points="1017.9,-647.65 1027.52,-643.22 1017.23,-640.68 1017.9,-647.65"/>
<text text-anchor="middle" x="962.5" y="-684.8" font-family="Times,serif" font-size="14.00">GitHub</text>
<text text-anchor="middle" x="962.5" y="-669.8" font-family="Times,serif" font-size="14.00">Action</text>
</g>
<!-- _GH__KCHASON__CASE_VALIDATION_ACTION&#45;&gt;_GH__CASEWORK__CASE_IMPLEMENTATON_XRY -->
<g id="edge22" class="edge">
<title>_GH__KCHASON__CASE_VALIDATION_ACTION&#45;&gt;_GH__CASEWORK__CASE_IMPLEMENTATON_XRY</title>
<path fill="none" stroke="black" d="M815.78,-854.74C830.78,-820.38 867.23,-749.14 923,-717 940.09,-707.15 979.47,-701.51 1019.86,-698.29"/>
<polygon fill="black" stroke="black" points="1019.98,-701.72 1029.7,-697.48 1019.46,-694.74 1019.98,-701.72"/>
<text text-anchor="middle" x="962.5" y="-735.8" font-family="Times,serif" font-size="14.00">GitHub</text>
<text text-anchor="middle" x="962.5" y="-720.8" font-family="Times,serif" font-size="14.00">Action</text>
</g>
<!-- _GH__KCHASON__CASE_VALIDATION_ACTION&#45;&gt;_GH__CASEWORK__CASE_MAPPING_TEMPLATE_PYTHON -->
<g id="edge23" class="edge">
<title>_GH__KCHASON__CASE_VALIDATION_ACTION&#45;&gt;_GH__CASEWORK__CASE_MAPPING_TEMPLATE_PYTHON</title>
<path fill="none" stroke="black" d="M822.7,-854.84C842.52,-830.61 880.31,-789.77 923,-771 954.46,-757.17 990.95,-750.58 1024.8,-747.79"/>
<polygon fill="black" stroke="black" points="1024.96,-751.22 1034.69,-747.02 1024.47,-744.24 1024.96,-751.22"/>
<text text-anchor="middle" x="962.5" y="-789.8" font-family="Times,serif" font-size="14.00">GitHub</text>
<text text-anchor="middle" x="962.5" y="-774.8" font-family="Times,serif" font-size="14.00">Action</text>
</g>
<!-- _GH__KCHASON__CASE_VALIDATION_ACTION&#45;&gt;_GH__CASEWORK__CASE_BINDINGS_CSHARP_MONITOR -->
<g id="edge17" class="edge">
<title>_GH__KCHASON__CASE_VALIDATION_ACTION&#45;&gt;_GH__CASEWORK__CASE_BINDINGS_CSHARP_MONITOR</title>
<path fill="none" stroke="black" d="M867.09,-854.55C907.06,-842 961.25,-826.19 1010,-816 1115.33,-793.98 1159.79,-842.66 1250,-784 1364.87,-709.3 1425.98,-545.65 1446.98,-478.57"/>
<polygon fill="black" stroke="black" points="1450.55,-479.88 1450.12,-469.3 1443.85,-477.84 1450.55,-479.88"/>
<text text-anchor="middle" x="1138" y="-834.8" font-family="Times,serif" font-size="14.00">GitHub</text>
<text text-anchor="middle" x="1138" y="-819.8" font-family="Times,serif" font-size="14.00">Action</text>
</g>
<!-- _GH__KCHASON__CASE_VALIDATION_ACTION&#45;&gt;_GH__CASEWORK__CASE_EXAMPLES_CONVERSION -->
<g id="edge18" class="edge">
<title>_GH__KCHASON__CASE_VALIDATION_ACTION&#45;&gt;_GH__CASEWORK__CASE_EXAMPLES_CONVERSION</title>
<path fill="none" stroke="black" d="M875.22,-859.62C890.83,-856.87 907.44,-854.41 923,-853 961.05,-849.55 1002.9,-852.06 1039.42,-856.32"/>
<polygon fill="black" stroke="black" points="1038.72,-859.88 1049.07,-857.62 1039.57,-852.93 1038.72,-859.88"/>
<text text-anchor="middle" x="962.5" y="-871.8" font-family="Times,serif" font-size="14.00">GitHub</text>
<text text-anchor="middle" x="962.5" y="-856.8" font-family="Times,serif" font-size="14.00">Action</text>
</g>
<!-- _GH__DOD_CYBER_CRIME_CENTER__SQLITE_DISSECT -->
<g id="node27" class="node">
<title>_GH__DOD_CYBER_CRIME_CENTER__SQLITE_DISSECT</title>
<g id="a_node27"><a xlink:href="https://github.com/dod-cyber-crime-center/sqlite-dissect" xlink:title="sqlite&#45;dissect\nadopts new case&#45;validation&#45;action">
<path fill="#8ec7d2" stroke="#0d6986" d="M1226.5,-178C1226.5,-178 1049.5,-178 1049.5,-178 1043.5,-178 1037.5,-172 1037.5,-166 1037.5,-166 1037.5,-152 1037.5,-152 1037.5,-146 1043.5,-140 1049.5,-140 1049.5,-140 1226.5,-140 1226.5,-140 1232.5,-140 1238.5,-146 1238.5,-152 1238.5,-152 1238.5,-166 1238.5,-166 1238.5,-172 1232.5,-178 1226.5,-178"/>
<text text-anchor="middle" x="1138" y="-162.8" font-family="Times,serif" font-size="14.00">sqlite&#45;dissect</text>
<text text-anchor="middle" x="1138" y="-147.8" font-family="Times,serif" font-size="14.00">adopts new case&#45;validation&#45;action</text>
</a>
</g>
</g>
<!-- _GH__KCHASON__CASE_VALIDATION_ACTION&#45;&gt;_GH__DOD_CYBER_CRIME_CENTER__SQLITE_DISSECT -->
<g id="edge24" class="edge">
<title>_GH__KCHASON__CASE_VALIDATION_ACTION&#45;&gt;_GH__DOD_CYBER_CRIME_CENTER__SQLITE_DISSECT</title>
<g id="a_edge24"><a xlink:href="https://github.com/dod-cyber-crime-center/sqlite-dissect/pull/31" xlink:title="TODO: PR 31">
<path fill="none" stroke="black" d="M812.88,-854.52C826.84,-799.91 869.44,-641.13 923,-516 954.85,-441.59 968.71,-425.62 1010,-356 1046.36,-294.7 1092.42,-225.06 1117.88,-187.19"/>
<polygon fill="black" stroke="black" points="1121.21,-189.52 1123.89,-179.27 1115.4,-185.61 1121.21,-189.52"/>
</a>
</g>
<g id="a_edge24&#45;label"><a xlink:href="https://github.com/dod-cyber-crime-center/sqlite-dissect/pull/31" xlink:title="TODO: PR 31">
<text text-anchor="middle" x="962.5" y="-519.8" font-family="Times,serif" font-size="14.00">TODO: PR 31</text>
</a>
</g>
</g>
</g>
</svg>
