<?xml version="1.0" encoding="UTF-8" standalone="no"?>
<!DOCTYPE svg PUBLIC "-//W3C//DTD SVG 1.1//EN"
 "http://www.w3.org/Graphics/SVG/1.1/DTD/svg11.dtd">
<!-- Generated by graphviz version 8.0.3 (20230416.2022)
 -->
<!-- Title: cdo_release_flow Pages: 1 -->
<svg width="1842pt" height="980pt"
 viewBox="0.00 0.00 1842.00 980.00" xmlns="http://www.w3.org/2000/svg" xmlns:xlink="http://www.w3.org/1999/xlink">
<g id="graph0" class="graph" transform="scale(1 1) rotate(0) translate(4 976)">
<title>cdo_release_flow</title>
<polygon fill="white" stroke="none" points="-4,4 -4,-976 1838,-976 1838,4 -4,4"/>
<text text-anchor="middle" x="917" y="-38.8" font-family="Times,serif" font-size="14.00">Release flow of CDO ontologies</text>
<text text-anchor="middle" x="917" y="-7.8" font-family="Times,serif" font-size="14.00">Nodes link to the respective Git repository.</text>
<g id="clust1" class="cluster">
<title>cluster_uco_0_9_1</title>
<polygon fill="none" stroke="black" points="0,-62 0,-178 168,-178 168,-62 0,-62"/>
<text text-anchor="middle" x="84" y="-162.8" font-family="Times,serif" font-size="14.00">Adoption of UCO 0.9.1</text>
</g>
<g id="clust2" class="cluster">
<title>cluster_case_0_7_1</title>
<polygon fill="none" stroke="black" points="8,-70 8,-147 160,-147 160,-70 8,-70"/>
<text text-anchor="middle" x="84" y="-131.8" font-family="Times,serif" font-size="14.00">Adoption of CASE 0.7.1</text>
</g>
<g id="clust3" class="cluster">
<title>cluster_uco_1_2_0</title>
<polygon fill="none" stroke="black" points="26,-186 26,-964 1826,-964 1826,-186 26,-186"/>
<text text-anchor="middle" x="926" y="-948.8" font-family="Times,serif" font-size="14.00">Adoption of UCO 1.2.0</text>
</g>
<g id="clust4" class="cluster">
<title>cluster_case_1_2_0</title>
<polygon fill="none" stroke="black" points="245.5,-303 245.5,-933 1818,-933 1818,-303 245.5,-303"/>
<text text-anchor="middle" x="1031.75" y="-917.8" font-family="Times,serif" font-size="14.00">Adoption of CASE 1.2.0</text>
</g>
<g id="clust5" class="cluster">
<title>cluster_case_utils_0_10_0</title>
<polygon fill="none" stroke="black" points="1202,-311 1202,-902 1810,-902 1810,-311 1202,-311"/>
<text text-anchor="middle" x="1506" y="-886.8" font-family="Times,serif" font-size="14.00">Adoption of case&#45;utils 0.10.0</text>
</g>
<g id="clust7" class="cluster">
<title>cluster_case_validation_action_2_6</title>
<polygon fill="none" stroke="black" points="1212.5,-365 1212.5,-786 1802,-786 1802,-365 1212.5,-365"/>
<text text-anchor="middle" x="1507.25" y="-770.8" font-family="Times,serif" font-size="14.00">Adoption of case&#45;validation&#45;action 2.6</text>
</g>
<g id="clust8" class="cluster">
<title>cluster_case_bindings_csharp_0_4_0</title>
<polygon fill="none" stroke="black" points="1220.5,-678 1220.5,-755 1794,-755 1794,-678 1220.5,-678"/>
<text text-anchor="middle" x="1507.25" y="-739.8" font-family="Times,serif" font-size="14.00">Adoption of CSharp bindings 0.4.0</text>
</g>
<g id="clust6" class="cluster">
<title>cluster_case_prov_0_7_0</title>
<polygon fill="none" stroke="black" points="1272.5,-794 1272.5,-871 1735.5,-871 1735.5,-794 1272.5,-794"/>
<text text-anchor="middle" x="1504" y="-855.8" font-family="Times,serif" font-size="14.00">Adoption of case&#45;prov 0.7.0</text>
</g>
<g id="clust9" class="cluster">
<title>cluster_case_utils_0_11_0</title>
<polygon fill="none" stroke="black" points="507,-553 507,-793 1137,-793 1137,-553 507,-553"/>
<text text-anchor="middle" x="822" y="-777.8" font-family="Times,serif" font-size="14.00">Adoption of case&#45;utils 0.11.0</text>
</g>
<!-- _GH__CASEWORK__CASE_MAPPING_TEMPLATE_STUBS -->
<g id="node1" class="node">
<title>_GH__CASEWORK__CASE_MAPPING_TEMPLATE_STUBS</title>
<g id="a_node1"><a xlink:href="https://github.com/casework/CASE-Mapping-Template-Stubs" xlink:title="CASE Mapping\nTemplate Stubs">
<path fill="#8ec7d2" stroke="#0d6986" d="M124,-116C124,-116 44,-116 44,-116 38,-116 32,-110 32,-104 32,-104 32,-90 32,-90 32,-84 38,-78 44,-78 44,-78 124,-78 124,-78 130,-78 136,-84 136,-90 136,-90 136,-104 136,-104 136,-110 130,-116 124,-116"/>
<text text-anchor="middle" x="84" y="-100.8" font-family="Times,serif" font-size="14.00">CASE Mapping</text>
<text text-anchor="middle" x="84" y="-85.8" font-family="Times,serif" font-size="14.00">Template Stubs</text>
</a>
</g>
</g>
<!-- _GH__UCOPROJECT__ONTOLOGY_UNIFIEDCYBERONTOLOGY_ORG -->
<g id="node2" class="node">
<title>_GH__UCOPROJECT__ONTOLOGY_UNIFIEDCYBERONTOLOGY_ORG</title>
<g id="a_node2"><a xlink:href="https://github.com/ucoProject/ontology.unifiedcyberontology.org" xlink:title="UCO documentation\nregenerated">
<path fill="#8ec7d2" stroke="#0d6986" d="M359.5,-295C359.5,-295 253.5,-295 253.5,-295 247.5,-295 241.5,-289 241.5,-283 241.5,-283 241.5,-269 241.5,-269 241.5,-263 247.5,-257 253.5,-257 253.5,-257 359.5,-257 359.5,-257 365.5,-257 371.5,-263 371.5,-269 371.5,-269 371.5,-283 371.5,-283 371.5,-289 365.5,-295 359.5,-295"/>
<text text-anchor="middle" x="306.5" y="-279.8" font-family="Times,serif" font-size="14.00">UCO documentation</text>
<text text-anchor="middle" x="306.5" y="-264.8" font-family="Times,serif" font-size="14.00">regenerated</text>
</a>
</g>
</g>
<!-- _GH__CASEWORK__ONTOLOGY_CASEONTOLOGY_ORG -->
<g id="node8" class="node">
<title>_GH__CASEWORK__ONTOLOGY_CASEONTOLOGY_ORG</title>
<g id="a_node8"><a xlink:href="https://github.com/casework/ontology.caseontology.org" xlink:title="CASE documentation\nregenerated">
<path fill="#8ec7d2" stroke="#0d6986" d="M605,-446C605,-446 493,-446 493,-446 487,-446 481,-440 481,-434 481,-434 481,-420 481,-420 481,-414 487,-408 493,-408 493,-408 605,-408 605,-408 611,-408 617,-414 617,-420 617,-420 617,-434 617,-434 617,-440 611,-446 605,-446"/>
<text text-anchor="middle" x="549" y="-430.8" font-family="Times,serif" font-size="14.00">CASE documentation</text>
<text text-anchor="middle" x="549" y="-415.8" font-family="Times,serif" font-size="14.00">regenerated</text>
</a>
</g>
</g>
<!-- _GH__UCOPROJECT__ONTOLOGY_UNIFIEDCYBERONTOLOGY_ORG&#45;&gt;_GH__CASEWORK__ONTOLOGY_CASEONTOLOGY_ORG -->
<g id="edge23" class="edge">
<title>_GH__UCOPROJECT__ONTOLOGY_UNIFIEDCYBERONTOLOGY_ORG&#45;&gt;_GH__CASEWORK__ONTOLOGY_CASEONTOLOGY_ORG</title>
<path fill="none" stroke="black" d="M367.88,-295.5C369.98,-296.61 372.03,-297.78 374,-299 427.77,-332.3 424.79,-365.44 478.11,-401.68"/>
<polygon fill="black" stroke="black" points="475.86,-405.04 486.16,-407.52 479.66,-399.16 475.86,-405.04"/>
<text text-anchor="middle" x="427.5" y="-407.8" font-family="Times,serif" font-size="14.00">Tech&#45;</text>
<text text-anchor="middle" x="427.5" y="-392.8" font-family="Times,serif" font-size="14.00">check</text>
</g>
<!-- _GH__UCOPROJECT__UCO -->
<g id="node3" class="node">
<title>_GH__UCOPROJECT__UCO</title>
<g id="a_node3"><a xlink:href="https://github.com/ucoProject/UCO" xlink:title="UCO Ontology\nreleases">
<path fill="#8ec7d2" stroke="#0d6986" d="M122,-295C122,-295 46,-295 46,-295 40,-295 34,-289 34,-283 34,-283 34,-269 34,-269 34,-263 40,-257 46,-257 46,-257 122,-257 122,-257 128,-257 134,-263 134,-269 134,-269 134,-283 134,-283 134,-289 128,-295 122,-295"/>
<text text-anchor="middle" x="84" y="-279.8" font-family="Times,serif" font-size="14.00">UCO Ontology</text>
<text text-anchor="middle" x="84" y="-264.8" font-family="Times,serif" font-size="14.00">releases</text>
</a>
</g>
</g>
<!-- _GH__UCOPROJECT__UCO&#45;&gt;_GH__UCOPROJECT__ONTOLOGY_UNIFIEDCYBERONTOLOGY_ORG -->
<g id="edge25" class="edge">
<title>_GH__UCOPROJECT__UCO&#45;&gt;_GH__UCOPROJECT__ONTOLOGY_UNIFIEDCYBERONTOLOGY_ORG</title>
<path fill="none" stroke="black" d="M134.48,-276C162.65,-276 198.52,-276 230.12,-276"/>
<polygon fill="black" stroke="black" points="230.1,-279.5 240.1,-276 230.1,-272.5 230.1,-279.5"/>
<text text-anchor="middle" x="198.5" y="-294.8" font-family="Times,serif" font-size="14.00">Git sub&#45;</text>
<text text-anchor="middle" x="198.5" y="-279.8" font-family="Times,serif" font-size="14.00">module</text>
</g>
<!-- _GH__UCOPROJECT__UCO_PROFILE_EXAMPLE -->
<g id="node5" class="node">
<title>_GH__UCOPROJECT__UCO_PROFILE_EXAMPLE</title>
<g id="a_node5"><a xlink:href="https://github.com/ucoProject/UCO-Profile-Example" xlink:title="UCO example profile\nupdates">
<path fill="#8ec7d2" stroke="#0d6986" d="M362,-239C362,-239 251,-239 251,-239 245,-239 239,-233 239,-227 239,-227 239,-213 239,-213 239,-207 245,-201 251,-201 251,-201 362,-201 362,-201 368,-201 374,-207 374,-213 374,-213 374,-227 374,-227 374,-233 368,-239 362,-239"/>
<text text-anchor="middle" x="306.5" y="-223.8" font-family="Times,serif" font-size="14.00">UCO example profile</text>
<text text-anchor="middle" x="306.5" y="-208.8" font-family="Times,serif" font-size="14.00">updates</text>
</a>
</g>
</g>
<!-- _GH__UCOPROJECT__UCO&#45;&gt;_GH__UCOPROJECT__UCO_PROFILE_EXAMPLE -->
<g id="edge26" class="edge">
<title>_GH__UCOPROJECT__UCO&#45;&gt;_GH__UCOPROJECT__UCO_PROFILE_EXAMPLE</title>
<path fill="none" stroke="black" d="M131.68,-256.63C145.74,-251.32 161.34,-245.95 176,-242 192.69,-237.51 210.84,-233.75 228.13,-230.68"/>
<polygon fill="black" stroke="black" points="228.5,-234 237.76,-228.86 227.32,-227.1 228.5,-234"/>
<text text-anchor="middle" x="198.5" y="-260.8" font-family="Times,serif" font-size="14.00">Git sub&#45;</text>
<text text-anchor="middle" x="198.5" y="-245.8" font-family="Times,serif" font-size="14.00">module</text>
</g>
<!-- _GH__CASEWORK__CASE -->
<g id="node7" class="node">
<title>_GH__CASEWORK__CASE</title>
<g id="a_node7"><a xlink:href="https://github.com/casework/CASE" xlink:title="CASE Ontology\nreleases">
<path fill="#8ec7d2" stroke="#0d6986" d="M347.5,-518C347.5,-518 265.5,-518 265.5,-518 259.5,-518 253.5,-512 253.5,-506 253.5,-506 253.5,-492 253.5,-492 253.5,-486 259.5,-480 265.5,-480 265.5,-480 347.5,-480 347.5,-480 353.5,-480 359.5,-486 359.5,-492 359.5,-492 359.5,-506 359.5,-506 359.5,-512 353.5,-518 347.5,-518"/>
<text text-anchor="middle" x="306.5" y="-502.8" font-family="Times,serif" font-size="14.00">CASE Ontology</text>
<text text-anchor="middle" x="306.5" y="-487.8" font-family="Times,serif" font-size="14.00">releases</text>
</a>
</g>
</g>
<!-- _GH__UCOPROJECT__UCO&#45;&gt;_GH__CASEWORK__CASE -->
<g id="edge24" class="edge">
<title>_GH__UCOPROJECT__UCO&#45;&gt;_GH__CASEWORK__CASE</title>
<path fill="none" stroke="black" d="M94.76,-295.24C115.78,-334.78 169.11,-425.7 239,-476 240.5,-477.08 242.05,-478.11 243.65,-479.1"/>
<polygon fill="black" stroke="black" points="241.73,-482.58 252.19,-484.26 245.07,-476.43 241.73,-482.58"/>
<text text-anchor="middle" x="198.5" y="-477.8" font-family="Times,serif" font-size="14.00">Git sub&#45;</text>
<text text-anchor="middle" x="198.5" y="-462.8" font-family="Times,serif" font-size="14.00">module</text>
</g>
<!-- _GH__UCOPROJECT__UCO_PROFILE_BFO -->
<g id="node4" class="node">
<title>_GH__UCOPROJECT__UCO_PROFILE_BFO</title>
<g id="a_node4"><a xlink:href="https://github.com/ucoProject/UCO-Profile-BFO" xlink:title="UCO BFO profile\nupdates">
<path fill="#8ec7d2" stroke="#0d6986" d="M594.5,-288C594.5,-288 503.5,-288 503.5,-288 497.5,-288 491.5,-282 491.5,-276 491.5,-276 491.5,-262 491.5,-262 491.5,-256 497.5,-250 503.5,-250 503.5,-250 594.5,-250 594.5,-250 600.5,-250 606.5,-256 606.5,-262 606.5,-262 606.5,-276 606.5,-276 606.5,-282 600.5,-288 594.5,-288"/>
<text text-anchor="middle" x="549" y="-272.8" font-family="Times,serif" font-size="14.00">UCO BFO profile</text>
<text text-anchor="middle" x="549" y="-257.8" font-family="Times,serif" font-size="14.00">updates</text>
</a>
</g>
</g>
<!-- _GH__UCOPROJECT__UCO_PROFILE_EXAMPLE&#45;&gt;_GH__UCOPROJECT__UCO_PROFILE_BFO -->
<g id="edge27" class="edge">
<title>_GH__UCOPROJECT__UCO_PROFILE_EXAMPLE&#45;&gt;_GH__UCOPROJECT__UCO_PROFILE_BFO</title>
<path fill="none" stroke="black" d="M374.23,-238.83C380.22,-240.32 386.21,-241.73 392,-243 420.77,-249.3 452.82,-254.88 480.35,-259.24"/>
<polygon fill="black" stroke="black" points="479.63,-262.83 490.05,-260.92 480.71,-255.92 479.63,-262.83"/>
<text text-anchor="middle" x="427.5" y="-273.8" font-family="Times,serif" font-size="14.00">Git merge of</text>
<text text-anchor="middle" x="427.5" y="-258.8" font-family="Times,serif" font-size="14.00">base branch</text>
</g>
<!-- _GH__UCOPROJECT__UCO_PROFILE_FOAF -->
<g id="node6" class="node">
<title>_GH__UCOPROJECT__UCO_PROFILE_FOAF</title>
<g id="a_node6"><a xlink:href="https://github.com/ucoProject/UCO-Profile-FOAF" xlink:title="UCO FOAF profile\nupdates">
<path fill="#8ec7d2" stroke="#0d6986" d="M598.5,-232C598.5,-232 499.5,-232 499.5,-232 493.5,-232 487.5,-226 487.5,-220 487.5,-220 487.5,-206 487.5,-206 487.5,-200 493.5,-194 499.5,-194 499.5,-194 598.5,-194 598.5,-194 604.5,-194 610.5,-200 610.5,-206 610.5,-206 610.5,-220 610.5,-220 610.5,-226 604.5,-232 598.5,-232"/>
<text text-anchor="middle" x="549" y="-216.8" font-family="Times,serif" font-size="14.00">UCO FOAF profile</text>
<text text-anchor="middle" x="549" y="-201.8" font-family="Times,serif" font-size="14.00">updates</text>
</a>
</g>
</g>
<!-- _GH__UCOPROJECT__UCO_PROFILE_EXAMPLE&#45;&gt;_GH__UCOPROJECT__UCO_PROFILE_FOAF -->
<g id="edge28" class="edge">
<title>_GH__UCOPROJECT__UCO_PROFILE_EXAMPLE&#45;&gt;_GH__UCOPROJECT__UCO_PROFILE_FOAF</title>
<path fill="none" stroke="black" d="M374.35,-213.95C380.31,-213.56 386.26,-213.24 392,-213 419.59,-211.86 449.95,-211.63 476.49,-211.76"/>
<polygon fill="black" stroke="black" points="476.2,-215.27 486.23,-211.84 476.25,-208.27 476.2,-215.27"/>
<text text-anchor="middle" x="427.5" y="-231.8" font-family="Times,serif" font-size="14.00">Git merge of</text>
<text text-anchor="middle" x="427.5" y="-216.8" font-family="Times,serif" font-size="14.00">base branch</text>
</g>
<!-- _GH__CASEWORK__CASE&#45;&gt;_GH__CASEWORK__ONTOLOGY_CASEONTOLOGY_ORG -->
<g id="edge4" class="edge">
<title>_GH__CASEWORK__CASE&#45;&gt;_GH__CASEWORK__ONTOLOGY_CASEONTOLOGY_ORG</title>
<path fill="none" stroke="black" d="M359.73,-487.06C390.1,-479.75 428.98,-469.75 463,-459 471.54,-456.3 480.47,-453.23 489.2,-450.08"/>
<polygon fill="black" stroke="black" points="490.14,-453.09 498.32,-446.36 487.73,-446.52 490.14,-453.09"/>
<text text-anchor="middle" x="427.5" y="-496.8" font-family="Times,serif" font-size="14.00">Git sub&#45;</text>
<text text-anchor="middle" x="427.5" y="-481.8" font-family="Times,serif" font-size="14.00">module</text>
</g>
<!-- _GH__CIPHERTECHSOLUTIONS__CASE_BINDINGS_CSHARP -->
<g id="node19" class="node">
<title>_GH__CIPHERTECHSOLUTIONS__CASE_BINDINGS_CSHARP</title>
<g id="a_node19"><a xlink:href="https://github.com/ciphertechsolutions/CASE-Bindings-CSharp" xlink:title="CASE&#45;Bindings&#45;CSharp\nadopts new ontology version">
<path fill="#8ec7d2" stroke="#0d6986" d="M1389.5,-724C1389.5,-724 1240.5,-724 1240.5,-724 1234.5,-724 1228.5,-718 1228.5,-712 1228.5,-712 1228.5,-698 1228.5,-698 1228.5,-692 1234.5,-686 1240.5,-686 1240.5,-686 1389.5,-686 1389.5,-686 1395.5,-686 1401.5,-692 1401.5,-698 1401.5,-698 1401.5,-712 1401.5,-712 1401.5,-718 1395.5,-724 1389.5,-724"/>
<text text-anchor="middle" x="1315" y="-708.8" font-family="Times,serif" font-size="14.00">CASE&#45;Bindings&#45;CSharp</text>
<text text-anchor="middle" x="1315" y="-693.8" font-family="Times,serif" font-size="14.00">adopts new ontology version</text>
</a>
</g>
</g>
<!-- _GH__CASEWORK__CASE&#45;&gt;_GH__CIPHERTECHSOLUTIONS__CASE_BINDINGS_CSHARP -->
<g id="edge3" class="edge">
<title>_GH__CASEWORK__CASE&#45;&gt;_GH__CIPHERTECHSOLUTIONS__CASE_BINDINGS_CSHARP</title>
<path fill="none" stroke="black" d="M359.67,-507.98C370.34,-509.55 381.51,-510.99 392,-512 461.07,-518.62 478.62,-518 548,-518 548,-518 548,-518 1044,-518 1087.57,-518 1102.56,-522.32 1137,-549 1172.57,-576.56 1174.9,-592.38 1192,-634 1200.28,-654.16 1186.57,-666.61 1202,-682 1206.84,-686.83 1212.41,-690.77 1218.42,-693.99"/>
<polygon fill="black" stroke="black" points="1216.64,-697.48 1227.19,-698.45 1219.55,-691.11 1216.64,-697.48"/>
</g>
<!-- _GH__CASEWORK__CASE_UTILITIES_PYTHON -->
<g id="node23" class="node">
<title>_GH__CASEWORK__CASE_UTILITIES_PYTHON</title>
<g id="a_node23"><a xlink:href="https://github.com/casework/CASE-Utilities-Python" xlink:title="case&#45;utils\nreleases">
<path fill="#8ec7d2" stroke="#0d6986" d="M571,-599C571,-599 527,-599 527,-599 521,-599 515,-593 515,-587 515,-587 515,-573 515,-573 515,-567 521,-561 527,-561 527,-561 571,-561 571,-561 577,-561 583,-567 583,-573 583,-573 583,-587 583,-587 583,-593 577,-599 571,-599"/>
<text text-anchor="middle" x="549" y="-583.8" font-family="Times,serif" font-size="14.00">case&#45;utils</text>
<text text-anchor="middle" x="549" y="-568.8" font-family="Times,serif" font-size="14.00">releases</text>
</a>
</g>
</g>
<!-- _GH__CASEWORK__CASE&#45;&gt;_GH__CASEWORK__CASE_UTILITIES_PYTHON -->
<g id="edge2" class="edge">
<title>_GH__CASEWORK__CASE&#45;&gt;_GH__CASEWORK__CASE_UTILITIES_PYTHON</title>
<path fill="none" stroke="black" d="M359.98,-516.68C403.12,-531.2 463.53,-551.55 504.13,-565.22"/>
<polygon fill="black" stroke="black" points="502.92,-568.85 513.51,-568.72 505.15,-562.21 502.92,-568.85"/>
<text text-anchor="middle" x="427.5" y="-567.8" font-family="Times,serif" font-size="14.00">Git sub&#45;</text>
<text text-anchor="middle" x="427.5" y="-552.8" font-family="Times,serif" font-size="14.00">module</text>
</g>
<!-- _GH__CASEWORK__CASE_IMPLEMENTATON_GNU_TIME -->
<g id="node9" class="node">
<title>_GH__CASEWORK__CASE_IMPLEMENTATON_GNU_TIME</title>
<g id="a_node9"><a xlink:href="https://github.com/casework/CASE-Implementation-GNU-Time" xlink:title="CASE&#45;Implementation&#45;GNU&#45;Time\nadopts new case&#45;utils">
<path fill="#8ec7d2" stroke="#0d6986" d="M1408,-357C1408,-357 1222,-357 1222,-357 1216,-357 1210,-351 1210,-345 1210,-345 1210,-331 1210,-331 1210,-325 1216,-319 1222,-319 1222,-319 1408,-319 1408,-319 1414,-319 1420,-325 1420,-331 1420,-331 1420,-345 1420,-345 1420,-351 1414,-357 1408,-357"/>
<text text-anchor="middle" x="1315" y="-341.8" font-family="Times,serif" font-size="14.00">CASE&#45;Implementation&#45;GNU&#45;Time</text>
<text text-anchor="middle" x="1315" y="-326.8" font-family="Times,serif" font-size="14.00">adopts new case&#45;utils</text>
</a>
</g>
</g>
<!-- _GH__CASEWORK__CASE_CORPORA -->
<g id="node10" class="node">
<title>_GH__CASEWORK__CASE_CORPORA</title>
<g id="a_node10"><a xlink:href="https://github.com/casework/CASE-Corpora" xlink:title="CASE&#45;Corpora\nadopts new case&#45;prov">
<path fill="#8ec7d2" stroke="#0d6986" d="M1715.5,-840C1715.5,-840 1605.5,-840 1605.5,-840 1599.5,-840 1593.5,-834 1593.5,-828 1593.5,-828 1593.5,-814 1593.5,-814 1593.5,-808 1599.5,-802 1605.5,-802 1605.5,-802 1715.5,-802 1715.5,-802 1721.5,-802 1727.5,-808 1727.5,-814 1727.5,-814 1727.5,-828 1727.5,-828 1727.5,-834 1721.5,-840 1715.5,-840"/>
<text text-anchor="middle" x="1660.5" y="-824.8" font-family="Times,serif" font-size="14.00">CASE&#45;Corpora</text>
<text text-anchor="middle" x="1660.5" y="-809.8" font-family="Times,serif" font-size="14.00">adopts new case&#45;prov</text>
</a>
</g>
</g>
<!-- _GH__CASEWORK__CASE_IMPLEMENTATON_PROV_O -->
<g id="node11" class="node">
<title>_GH__CASEWORK__CASE_IMPLEMENTATON_PROV_O</title>
<g id="a_node11"><a xlink:href="https://github.com/casework/CASE-Implementation-PROV-O" xlink:title="case&#45;prov\nreleases">
<path fill="#8ec7d2" stroke="#0d6986" d="M1337.5,-840C1337.5,-840 1292.5,-840 1292.5,-840 1286.5,-840 1280.5,-834 1280.5,-828 1280.5,-828 1280.5,-814 1280.5,-814 1280.5,-808 1286.5,-802 1292.5,-802 1292.5,-802 1337.5,-802 1337.5,-802 1343.5,-802 1349.5,-808 1349.5,-814 1349.5,-814 1349.5,-828 1349.5,-828 1349.5,-834 1343.5,-840 1337.5,-840"/>
<text text-anchor="middle" x="1315" y="-824.8" font-family="Times,serif" font-size="14.00">case&#45;prov</text>
<text text-anchor="middle" x="1315" y="-809.8" font-family="Times,serif" font-size="14.00">releases</text>
</a>
</g>
</g>
<!-- _GH__CASEWORK__CASE_IMPLEMENTATON_PROV_O&#45;&gt;_GH__CASEWORK__CASE_CORPORA -->
<g id="edge6" class="edge">
<title>_GH__CASEWORK__CASE_IMPLEMENTATON_PROV_O&#45;&gt;_GH__CASEWORK__CASE_CORPORA</title>
<path fill="none" stroke="black" d="M1349.88,-821C1403.49,-821 1509.26,-821 1582.14,-821"/>
<polygon fill="black" stroke="black" points="1582.1,-824.5 1592.1,-821 1582.1,-817.5 1582.1,-824.5"/>
<text text-anchor="middle" x="1477.5" y="-824.8" font-family="Times,serif" font-size="14.00">PyPI</text>
</g>
<!-- _GH__CASEWORK__CASE_IMPLEMENTATON_PYPI_EXIFREAD -->
<g id="node12" class="node">
<title>_GH__CASEWORK__CASE_IMPLEMENTATON_PYPI_EXIFREAD</title>
<g id="a_node12"><a xlink:href="https://github.com/casework/CASE-Implementation-PyPI-Exifread" xlink:title="CASE&#45;Implementation&#45;PyPI&#45;Exifread\nadopts new case&#45;validation&#45;action">
<path fill="#8ec7d2" stroke="#0d6986" d="M1760.5,-467C1760.5,-467 1560.5,-467 1560.5,-467 1554.5,-467 1548.5,-461 1548.5,-455 1548.5,-455 1548.5,-441 1548.5,-441 1548.5,-435 1554.5,-429 1560.5,-429 1560.5,-429 1760.5,-429 1760.5,-429 1766.5,-429 1772.5,-435 1772.5,-441 1772.5,-441 1772.5,-455 1772.5,-455 1772.5,-461 1766.5,-467 1760.5,-467"/>
<text text-anchor="middle" x="1660.5" y="-451.8" font-family="Times,serif" font-size="14.00">CASE&#45;Implementation&#45;PyPI&#45;Exifread</text>
<text text-anchor="middle" x="1660.5" y="-436.8" font-family="Times,serif" font-size="14.00">adopts new case&#45;validation&#45;action</text>
</a>
</g>
</g>
<!-- _GH__CASEWORK__CASE_IMPLEMENTATON_PYPI_PILLOW -->
<g id="node13" class="node">
<title>_GH__CASEWORK__CASE_IMPLEMENTATON_PYPI_PILLOW</title>
<g id="a_node13"><a xlink:href="https://github.com/casework/CASE-Implementation-PyPI-Pillow" xlink:title="CASE&#45;Implementation&#45;PyPI&#45;Pillow\nadopts new case&#45;validation&#45;action">
<path fill="#8ec7d2" stroke="#0d6986" d="M1755,-523C1755,-523 1566,-523 1566,-523 1560,-523 1554,-517 1554,-511 1554,-511 1554,-497 1554,-497 1554,-491 1560,-485 1566,-485 1566,-485 1755,-485 1755,-485 1761,-485 1767,-491 1767,-497 1767,-497 1767,-511 1767,-511 1767,-517 1761,-523 1755,-523"/>
<text text-anchor="middle" x="1660.5" y="-507.8" font-family="Times,serif" font-size="14.00">CASE&#45;Implementation&#45;PyPI&#45;Pillow</text>
<text text-anchor="middle" x="1660.5" y="-492.8" font-family="Times,serif" font-size="14.00">adopts new case&#45;validation&#45;action</text>
</a>
</g>
</g>
<!-- _GH__CASEWORK__CASE_IMPLEMENTATON_UFED_XML -->
<g id="node14" class="node">
<title>_GH__CASEWORK__CASE_IMPLEMENTATON_UFED_XML</title>
<g id="a_node14"><a xlink:href="https://github.com/casework/CASE-Implementation-UFED-XML" xlink:title="CASE&#45;Implementation&#45;UFED&#45;XML\nadopts new case&#45;validation&#45;action">
<path fill="#8ec7d2" stroke="#0d6986" d="M1757.5,-579C1757.5,-579 1563.5,-579 1563.5,-579 1557.5,-579 1551.5,-573 1551.5,-567 1551.5,-567 1551.5,-553 1551.5,-553 1551.5,-547 1557.5,-541 1563.5,-541 1563.5,-541 1757.5,-541 1757.5,-541 1763.5,-541 1769.5,-547 1769.5,-553 1769.5,-553 1769.5,-567 1769.5,-567 1769.5,-573 1763.5,-579 1757.5,-579"/>
<text text-anchor="middle" x="1660.5" y="-563.8" font-family="Times,serif" font-size="14.00">CASE&#45;Implementation&#45;UFED&#45;XML</text>
<text text-anchor="middle" x="1660.5" y="-548.8" font-family="Times,serif" font-size="14.00">adopts new case&#45;validation&#45;action</text>
</a>
</g>
</g>
<!-- _GH__CASEWORK__CASE_IMPLEMENTATON_XRY -->
<g id="node15" class="node">
<title>_GH__CASEWORK__CASE_IMPLEMENTATON_XRY</title>
<g id="a_node15"><a xlink:href="https://github.com/casework/CASE-Implementation-XRY" xlink:title="CASE&#45;Implementation&#45;XRY adopts\nnew case&#45;validation&#45;action">
<path fill="#8ec7d2" stroke="#0d6986" d="M1755.5,-635C1755.5,-635 1565.5,-635 1565.5,-635 1559.5,-635 1553.5,-629 1553.5,-623 1553.5,-623 1553.5,-609 1553.5,-609 1553.5,-603 1559.5,-597 1565.5,-597 1565.5,-597 1755.5,-597 1755.5,-597 1761.5,-597 1767.5,-603 1767.5,-609 1767.5,-609 1767.5,-623 1767.5,-623 1767.5,-629 1761.5,-635 1755.5,-635"/>
<text text-anchor="middle" x="1660.5" y="-619.8" font-family="Times,serif" font-size="14.00">CASE&#45;Implementation&#45;XRY adopts</text>
<text text-anchor="middle" x="1660.5" y="-604.8" font-family="Times,serif" font-size="14.00">new case&#45;validation&#45;action</text>
</a>
</g>
</g>
<!-- _GH__CASEWORK__CASE_MAPPING_TEMPLATE_PYTHON -->
<g id="node16" class="node">
<title>_GH__CASEWORK__CASE_MAPPING_TEMPLATE_PYTHON</title>
<g id="a_node16"><a xlink:href="https://github.com/casework/CASE-Mapping-Template-Python" xlink:title="CASE&#45;Mapping&#45;Template&#45;Python\nadopts new case&#45;validation&#45;action">
<path fill="#8ec7d2" stroke="#0d6986" d="M1750.5,-411C1750.5,-411 1570.5,-411 1570.5,-411 1564.5,-411 1558.5,-405 1558.5,-399 1558.5,-399 1558.5,-385 1558.5,-385 1558.5,-379 1564.5,-373 1570.5,-373 1570.5,-373 1750.5,-373 1750.5,-373 1756.5,-373 1762.5,-379 1762.5,-385 1762.5,-385 1762.5,-399 1762.5,-399 1762.5,-405 1756.5,-411 1750.5,-411"/>
<text text-anchor="middle" x="1660.5" y="-395.8" font-family="Times,serif" font-size="14.00">CASE&#45;Mapping&#45;Template&#45;Python</text>
<text text-anchor="middle" x="1660.5" y="-380.8" font-family="Times,serif" font-size="14.00">adopts new case&#45;validation&#45;action</text>
</a>
</g>
</g>
<!-- _GH__KCHASON__CASE_VALIDATION_ACTION -->
<g id="node17" class="node">
<title>_GH__KCHASON__CASE_VALIDATION_ACTION</title>
<g id="a_node17"><a xlink:href="https://github.com/kchason/case-validation-action" xlink:title="case&#45;validation&#45;action\nreleases">
<path fill="#8ec7d2" stroke="#0d6986" d="M1371,-516C1371,-516 1259,-516 1259,-516 1253,-516 1247,-510 1247,-504 1247,-504 1247,-490 1247,-490 1247,-484 1253,-478 1259,-478 1259,-478 1371,-478 1371,-478 1377,-478 1383,-484 1383,-490 1383,-490 1383,-504 1383,-504 1383,-510 1377,-516 1371,-516"/>
<text text-anchor="middle" x="1315" y="-500.8" font-family="Times,serif" font-size="14.00">case&#45;validation&#45;action</text>
<text text-anchor="middle" x="1315" y="-485.8" font-family="Times,serif" font-size="14.00">releases</text>
</a>
</g>
</g>
<!-- _GH__KCHASON__CASE_VALIDATION_ACTION&#45;&gt;_GH__CASEWORK__CASE_IMPLEMENTATON_PYPI_EXIFREAD -->
<g id="edge17" class="edge">
<title>_GH__KCHASON__CASE_VALIDATION_ACTION&#45;&gt;_GH__CASEWORK__CASE_IMPLEMENTATON_PYPI_EXIFREAD</title>
<path fill="none" stroke="black" d="M1383.44,-485.91C1395.86,-482.81 1408.52,-478.89 1420,-474 1428.85,-470.23 1428.89,-465.08 1438,-462 1469.3,-451.44 1504.47,-446.38 1537.41,-444.32"/>
<polygon fill="black" stroke="black" points="1537.22,-447.78 1547.02,-443.75 1536.85,-440.79 1537.22,-447.78"/>
<text text-anchor="middle" x="1477.5" y="-480.8" font-family="Times,serif" font-size="14.00">GitHub</text>
<text text-anchor="middle" x="1477.5" y="-465.8" font-family="Times,serif" font-size="14.00">Action</text>
</g>
<!-- _GH__KCHASON__CASE_VALIDATION_ACTION&#45;&gt;_GH__CASEWORK__CASE_IMPLEMENTATON_PYPI_PILLOW -->
<g id="edge18" class="edge">
<title>_GH__KCHASON__CASE_VALIDATION_ACTION&#45;&gt;_GH__CASEWORK__CASE_IMPLEMENTATON_PYPI_PILLOW</title>
<path fill="none" stroke="black" d="M1383.47,-496.71C1422.49,-496.7 1472.52,-496.95 1517,-498 1525.45,-498.2 1534.18,-498.45 1542.96,-498.74"/>
<polygon fill="black" stroke="black" points="1542.57,-502.26 1552.68,-499.11 1542.81,-495.27 1542.57,-502.26"/>
<text text-anchor="middle" x="1477.5" y="-516.8" font-family="Times,serif" font-size="14.00">GitHub</text>
<text text-anchor="middle" x="1477.5" y="-501.8" font-family="Times,serif" font-size="14.00">Action</text>
</g>
<!-- _GH__KCHASON__CASE_VALIDATION_ACTION&#45;&gt;_GH__CASEWORK__CASE_IMPLEMENTATON_UFED_XML -->
<g id="edge19" class="edge">
<title>_GH__KCHASON__CASE_VALIDATION_ACTION&#45;&gt;_GH__CASEWORK__CASE_IMPLEMENTATON_UFED_XML</title>
<path fill="none" stroke="black" d="M1383.47,-515.49C1401.13,-519.96 1420.21,-524.46 1438,-528 1471.1,-534.58 1507.23,-540.37 1540.53,-545.16"/>
<polygon fill="black" stroke="black" points="1539.85,-548.74 1550.24,-546.68 1540.83,-541.81 1539.85,-548.74"/>
<text text-anchor="middle" x="1477.5" y="-559.8" font-family="Times,serif" font-size="14.00">GitHub</text>
<text text-anchor="middle" x="1477.5" y="-544.8" font-family="Times,serif" font-size="14.00">Action</text>
</g>
<!-- _GH__KCHASON__CASE_VALIDATION_ACTION&#45;&gt;_GH__CASEWORK__CASE_IMPLEMENTATON_XRY -->
<g id="edge20" class="edge">
<title>_GH__KCHASON__CASE_VALIDATION_ACTION&#45;&gt;_GH__CASEWORK__CASE_IMPLEMENTATON_XRY</title>
<path fill="none" stroke="black" d="M1340.15,-516.47C1363.72,-534.46 1401.29,-560.51 1438,-575 1470.88,-587.98 1508.16,-596.91 1542.63,-603.02"/>
<polygon fill="black" stroke="black" points="1541.79,-606.6 1552.23,-604.83 1542.97,-599.7 1541.79,-606.6"/>
<text text-anchor="middle" x="1477.5" y="-615.8" font-family="Times,serif" font-size="14.00">GitHub</text>
<text text-anchor="middle" x="1477.5" y="-600.8" font-family="Times,serif" font-size="14.00">Action</text>
</g>
<!-- _GH__KCHASON__CASE_VALIDATION_ACTION&#45;&gt;_GH__CASEWORK__CASE_MAPPING_TEMPLATE_PYTHON -->
<g id="edge21" class="edge">
<title>_GH__KCHASON__CASE_VALIDATION_ACTION&#45;&gt;_GH__CASEWORK__CASE_MAPPING_TEMPLATE_PYTHON</title>
<path fill="none" stroke="black" d="M1383.27,-492.99C1396.76,-489.38 1409.88,-483.48 1420,-474 1440.94,-454.38 1415.85,-430.25 1438,-412 1468.1,-387.2 1508.93,-378.86 1547.33,-377.85"/>
<polygon fill="black" stroke="black" points="1547.12,-381.34 1557.09,-377.75 1547.06,-374.34 1547.12,-381.34"/>
<text text-anchor="middle" x="1477.5" y="-430.8" font-family="Times,serif" font-size="14.00">GitHub</text>
<text text-anchor="middle" x="1477.5" y="-415.8" font-family="Times,serif" font-size="14.00">Action</text>
</g>
<!-- _GH__CASEWORK__CASE_BINDINGS_CSHARP_MONITOR -->
<g id="node18" class="node">
<title>_GH__CASEWORK__CASE_BINDINGS_CSHARP_MONITOR</title>
<g id="a_node18"><a xlink:href="https://github.com/casework/CASE-Bindings-CSharp-Monitor" xlink:title="CASE Bindings CSharp Monitor\ntests NuGet package with validation action">
<path fill="#8ec7d2" stroke="#0d6986" d="M1774,-724C1774,-724 1547,-724 1547,-724 1541,-724 1535,-718 1535,-712 1535,-712 1535,-698 1535,-698 1535,-692 1541,-686 1547,-686 1547,-686 1774,-686 1774,-686 1780,-686 1786,-692 1786,-698 1786,-698 1786,-712 1786,-712 1786,-718 1780,-724 1774,-724"/>
<text text-anchor="middle" x="1660.5" y="-708.8" font-family="Times,serif" font-size="14.00">CASE Bindings CSharp Monitor</text>
<text text-anchor="middle" x="1660.5" y="-693.8" font-family="Times,serif" font-size="14.00">tests NuGet package with validation action</text>
</a>
</g>
</g>
<!-- _GH__KCHASON__CASE_VALIDATION_ACTION&#45;&gt;_GH__CASEWORK__CASE_BINDINGS_CSHARP_MONITOR -->
<g id="edge16" class="edge">
<title>_GH__KCHASON__CASE_VALIDATION_ACTION&#45;&gt;_GH__CASEWORK__CASE_BINDINGS_CSHARP_MONITOR</title>
<path fill="none" stroke="black" d="M1329.96,-516.35C1350.93,-544.39 1392.93,-596.71 1438,-631 1469.32,-654.83 1482.63,-651.83 1517,-671 1523.4,-674.57 1525.44,-677.23 1535,-681.52"/>
<polygon fill="black" stroke="black" points="1533.47,-685.09 1544.06,-685.57 1536.09,-678.59 1533.47,-685.09"/>
<text text-anchor="middle" x="1477.5" y="-689.8" font-family="Times,serif" font-size="14.00">GitHub</text>
<text text-anchor="middle" x="1477.5" y="-674.8" font-family="Times,serif" font-size="14.00">Action</text>
</g>
<!-- _GH__DOD_CYBER_CRIME_CENTER__SQLITE_DISSECT -->
<g id="node25" class="node">
<title>_GH__DOD_CYBER_CRIME_CENTER__SQLITE_DISSECT</title>
<g id="a_node25"><a xlink:href="https://github.com/dod-cyber-crime-center/sqlite-dissect" xlink:title="sqlite&#45;dissect\nadopts new case&#45;validation&#45;action">
<path fill="#8ec7d2" stroke="#0d6986" d="M1749,-178C1749,-178 1572,-178 1572,-178 1566,-178 1560,-172 1560,-166 1560,-166 1560,-152 1560,-152 1560,-146 1566,-140 1572,-140 1572,-140 1749,-140 1749,-140 1755,-140 1761,-146 1761,-152 1761,-152 1761,-166 1761,-166 1761,-172 1755,-178 1749,-178"/>
<text text-anchor="middle" x="1660.5" y="-162.8" font-family="Times,serif" font-size="14.00">sqlite&#45;dissect</text>
<text text-anchor="middle" x="1660.5" y="-147.8" font-family="Times,serif" font-size="14.00">adopts new case&#45;validation&#45;action</text>
</a>
</g>
</g>
<!-- _GH__KCHASON__CASE_VALIDATION_ACTION&#45;&gt;_GH__DOD_CYBER_CRIME_CENTER__SQLITE_DISSECT -->
<g id="edge22" class="edge">
<title>_GH__KCHASON__CASE_VALIDATION_ACTION&#45;&gt;_GH__DOD_CYBER_CRIME_CENTER__SQLITE_DISSECT</title>
<g id="a_edge22"><a xlink:href="https://github.com/dod-cyber-crime-center/sqlite-dissect/pull/31" xlink:title="TODO: PR 31">
<path fill="none" stroke="black" d="M1383.38,-494.12C1397.11,-490.49 1410.3,-484.3 1420,-474 1454.87,-436.98 1413.86,-405.76 1438,-361 1480.57,-282.09 1566.15,-217.9 1617.58,-184.36"/>
<polygon fill="black" stroke="black" points="1619.25,-186.81 1625.77,-178.46 1615.46,-180.92 1619.25,-186.81"/>
</a>
</g>
<g id="a_edge22&#45;label"><a xlink:href="https://github.com/dod-cyber-crime-center/sqlite-dissect/pull/31" xlink:title="TODO: PR 31">
<text text-anchor="middle" x="1477.5" y="-364.8" font-family="Times,serif" font-size="14.00">TODO: PR 31</text>
</a>
</g>
</g>
<!-- _GH__CIPHERTECHSOLUTIONS__CASE_BINDINGS_CSHARP&#45;&gt;_GH__CASEWORK__CASE_BINDINGS_CSHARP_MONITOR -->
<g id="edge15" class="edge">
<title>_GH__CIPHERTECHSOLUTIONS__CASE_BINDINGS_CSHARP&#45;&gt;_GH__CASEWORK__CASE_BINDINGS_CSHARP_MONITOR</title>
<path fill="none" stroke="black" d="M1401.79,-705C1438.64,-705 1482.6,-705 1523.69,-705"/>
<polygon fill="black" stroke="black" points="1523.63,-708.5 1533.63,-705 1523.63,-701.5 1523.63,-708.5"/>
<text text-anchor="middle" x="1477.5" y="-708.8" font-family="Times,serif" font-size="14.00">NuGet</text>
</g>
<!-- _GH__AJNELSON_NIST__CASE_EXAMPLES_QC -->
<g id="node20" class="node">
<title>_GH__AJNELSON_NIST__CASE_EXAMPLES_QC</title>
<g id="a_node20"><a xlink:href="https://github.com/ajnelson-nist/CASE-Examples-QC" xlink:title="CASE&#45;Examples&#45;QC\nadopts CASE&#45;Examples and\nCASE website updates">
<path fill="#8ec7d2" stroke="#0d6986" d="M1117,-691.5C1117,-691.5 969,-691.5 969,-691.5 963,-691.5 957,-685.5 957,-679.5 957,-679.5 957,-650.5 957,-650.5 957,-644.5 963,-638.5 969,-638.5 969,-638.5 1117,-638.5 1117,-638.5 1123,-638.5 1129,-644.5 1129,-650.5 1129,-650.5 1129,-679.5 1129,-679.5 1129,-685.5 1123,-691.5 1117,-691.5"/>
<text text-anchor="middle" x="1043" y="-676.3" font-family="Times,serif" font-size="14.00">CASE&#45;Examples&#45;QC</text>
<text text-anchor="middle" x="1043" y="-661.3" font-family="Times,serif" font-size="14.00">adopts CASE&#45;Examples and</text>
<text text-anchor="middle" x="1043" y="-646.3" font-family="Times,serif" font-size="14.00">CASE website updates</text>
</a>
</g>
</g>
<!-- _GH__AJNELSON_NIST__CASE_EXAMPLES_QC&#45;&gt;_GH__CASEWORK__CASE_IMPLEMENTATON_PROV_O -->
<g id="edge1" class="edge">
<title>_GH__AJNELSON_NIST__CASE_EXAMPLES_QC&#45;&gt;_GH__CASEWORK__CASE_IMPLEMENTATON_PROV_O</title>
<path fill="none" stroke="black" d="M1088.39,-691.91C1119.94,-710.91 1163.38,-736.83 1202,-759 1224.46,-771.9 1249.69,-785.9 1270.5,-797.33"/>
<polygon fill="black" stroke="black" points="1268.58,-800.81 1279.03,-802.55 1271.94,-794.68 1268.58,-800.81"/>
<text text-anchor="middle" x="1169.5" y="-769.8" font-family="Times,serif" font-size="14.00">Git sub&#45;</text>
<text text-anchor="middle" x="1169.5" y="-754.8" font-family="Times,serif" font-size="14.00">module</text>
</g>
<!-- _GH__CASEWORK__CASE_EXAMPLES -->
<g id="node21" class="node">
<title>_GH__CASEWORK__CASE_EXAMPLES</title>
<g id="a_node21"><a xlink:href="https://github.com/casework/CASE-Examples" xlink:title="CASE&#45;Examples\nadopts new case&#45;utils">
<path fill="#8ec7d2" stroke="#0d6986" d="M832.5,-599C832.5,-599 723.5,-599 723.5,-599 717.5,-599 711.5,-593 711.5,-587 711.5,-587 711.5,-573 711.5,-573 711.5,-567 717.5,-561 723.5,-561 723.5,-561 832.5,-561 832.5,-561 838.5,-561 844.5,-567 844.5,-573 844.5,-573 844.5,-587 844.5,-587 844.5,-593 838.5,-599 832.5,-599"/>
<text text-anchor="middle" x="778" y="-583.8" font-family="Times,serif" font-size="14.00">CASE&#45;Examples</text>
<text text-anchor="middle" x="778" y="-568.8" font-family="Times,serif" font-size="14.00">adopts new case&#45;utils</text>
</a>
</g>
</g>
<!-- _GH__CASEWORK__CASE_EXAMPLES&#45;&gt;_GH__AJNELSON_NIST__CASE_EXAMPLES_QC -->
<g id="edge5" class="edge">
<title>_GH__CASEWORK__CASE_EXAMPLES&#45;&gt;_GH__AJNELSON_NIST__CASE_EXAMPLES_QC</title>
<path fill="none" stroke="black" d="M844.73,-581.74C874.24,-584.15 909.08,-589.29 939,-600 960.02,-607.52 981.23,-619.9 998.89,-631.84"/>
<polygon fill="black" stroke="black" points="996.57,-635.19 1006.78,-638.02 1000.56,-629.44 996.57,-635.19"/>
<text text-anchor="middle" x="916.5" y="-618.8" font-family="Times,serif" font-size="14.00">Git sub&#45;</text>
<text text-anchor="middle" x="916.5" y="-603.8" font-family="Times,serif" font-size="14.00">module</text>
</g>
<!-- _GH__CASEWORK__CASE_IMPLEMENTATON_EXIFTOOL -->
<g id="node22" class="node">
<title>_GH__CASEWORK__CASE_IMPLEMENTATON_EXIFTOOL</title>
<g id="a_node22"><a xlink:href="https://github.com/casework/CASE-Implementation-ExifTool" xlink:title="CASE&#45;Implementation&#45;ExifTool\nadopts new case&#45;utils">
<path fill="#8ec7d2" stroke="#0d6986" d="M864,-706C864,-706 692,-706 692,-706 686,-706 680,-700 680,-694 680,-694 680,-680 680,-680 680,-674 686,-668 692,-668 692,-668 864,-668 864,-668 870,-668 876,-674 876,-680 876,-680 876,-694 876,-694 876,-700 870,-706 864,-706"/>
<text text-anchor="middle" x="778" y="-690.8" font-family="Times,serif" font-size="14.00">CASE&#45;Implementation&#45;ExifTool</text>
<text text-anchor="middle" x="778" y="-675.8" font-family="Times,serif" font-size="14.00">adopts new case&#45;utils</text>
</a>
</g>
</g>
<!-- _GH__CASEWORK__CASE_UTILITIES_PYTHON&#45;&gt;_GH__CASEWORK__CASE_IMPLEMENTATON_GNU_TIME -->
<g id="edge10" class="edge">
<title>_GH__CASEWORK__CASE_UTILITIES_PYTHON&#45;&gt;_GH__CASEWORK__CASE_IMPLEMENTATON_GNU_TIME</title>
<path fill="none" stroke="black" d="M583.37,-574.07C595.06,-570.65 607.61,-565.31 617,-557 630.7,-544.88 625.34,-535.53 635,-520 652.23,-492.29 652.22,-479.11 680,-462 840.97,-362.86 1064.82,-340.51 1198.97,-336.82"/>
<polygon fill="black" stroke="black" points="1198.75,-340.3 1208.67,-336.56 1198.58,-333.3 1198.75,-340.3"/>
<text text-anchor="middle" x="916.5" y="-377.8" font-family="Times,serif" font-size="14.00">PyPI</text>
</g>
<!-- _GH__CASEWORK__CASE_UTILITIES_PYTHON&#45;&gt;_GH__CASEWORK__CASE_IMPLEMENTATON_PROV_O -->
<g id="edge11" class="edge">
<title>_GH__CASEWORK__CASE_UTILITIES_PYTHON&#45;&gt;_GH__CASEWORK__CASE_IMPLEMENTATON_PROV_O</title>
<path fill="none" stroke="black" d="M583.35,-570.77C609.43,-564.06 646.71,-555.54 680,-552 766.62,-542.78 789.64,-540.55 876,-552 945.49,-561.21 1100.38,-600.98 1137,-630 1174.94,-660.06 1172.98,-679.49 1192,-724 1198.36,-738.88 1191.93,-746.34 1202,-759 1219.41,-780.9 1246.78,-796.25 1270.1,-806.2"/>
<polygon fill="black" stroke="black" points="1268.56,-809.76 1279.14,-810.27 1271.19,-803.27 1268.56,-809.76"/>
<text text-anchor="middle" x="916.5" y="-566.8" font-family="Times,serif" font-size="14.00">PyPI</text>
</g>
<!-- _GH__CASEWORK__CASE_UTILITIES_PYTHON&#45;&gt;_GH__KCHASON__CASE_VALIDATION_ACTION -->
<g id="edge12" class="edge">
<title>_GH__CASEWORK__CASE_UTILITIES_PYTHON&#45;&gt;_GH__KCHASON__CASE_VALIDATION_ACTION</title>
<path fill="none" stroke="black" d="M583.23,-572.24C594.52,-568.68 606.84,-563.72 617,-557 626.97,-550.4 624.53,-542.79 635,-537 828.95,-429.78 1103.43,-458.27 1236.15,-481.11"/>
<polygon fill="black" stroke="black" points="1235.16,-484.67 1245.61,-482.95 1236.37,-477.77 1235.16,-484.67"/>
<text text-anchor="middle" x="916.5" y="-466.8" font-family="Times,serif" font-size="14.00">PyPI</text>
</g>
<!-- _GH__CASEWORK__CASE_UTILITIES_PYTHON&#45;&gt;_GH__AJNELSON_NIST__CASE_EXAMPLES_QC -->
<g id="edge7" class="edge">
<title>_GH__CASEWORK__CASE_UTILITIES_PYTHON&#45;&gt;_GH__AJNELSON_NIST__CASE_EXAMPLES_QC</title>
<path fill="none" stroke="black" d="M583.47,-587.66C599.11,-591.2 617.99,-595.4 635,-599 740.67,-621.37 863.16,-640.3 945.94,-652.07"/>
<polygon fill="black" stroke="black" points="945.2,-655.64 955.59,-653.58 946.18,-648.71 945.2,-655.64"/>
<text text-anchor="middle" x="778" y="-644.8" font-family="Times,serif" font-size="14.00">PyPI</text>
</g>
<!-- _GH__CASEWORK__CASE_UTILITIES_PYTHON&#45;&gt;_GH__CASEWORK__CASE_EXAMPLES -->
<g id="edge8" class="edge">
<title>_GH__CASEWORK__CASE_UTILITIES_PYTHON&#45;&gt;_GH__CASEWORK__CASE_EXAMPLES</title>
<path fill="none" stroke="black" d="M583.49,-580C614.22,-580 660.87,-580 700.66,-580"/>
<polygon fill="black" stroke="black" points="700.42,-583.5 710.42,-580 700.42,-576.5 700.42,-583.5"/>
<text text-anchor="middle" x="648.5" y="-583.8" font-family="Times,serif" font-size="14.00">PyPI</text>
</g>
<!-- _GH__CASEWORK__CASE_UTILITIES_PYTHON&#45;&gt;_GH__CASEWORK__CASE_IMPLEMENTATON_EXIFTOOL -->
<g id="edge9" class="edge">
<title>_GH__CASEWORK__CASE_UTILITIES_PYTHON&#45;&gt;_GH__CASEWORK__CASE_IMPLEMENTATON_EXIFTOOL</title>
<path fill="none" stroke="black" d="M573.34,-599.34C589.78,-612.22 612.74,-628.77 635,-640 653.56,-649.36 674.4,-657.46 694.27,-664.18"/>
<polygon fill="black" stroke="black" points="692.97,-667.76 703.56,-667.56 695.15,-661.11 692.97,-667.76"/>
<text text-anchor="middle" x="648.5" y="-654.8" font-family="Times,serif" font-size="14.00">PyPI</text>
</g>
<!-- _GH__CASEWORK__CASEWORK_GITHUB_IO -->
<g id="node24" class="node">
<title>_GH__CASEWORK__CASEWORK_GITHUB_IO</title>
<g id="a_node24"><a xlink:href="https://github.com/casework/casework.github.io" xlink:title="CASE website\nadopts new case&#45;utils">
<path fill="#8ec7d2" stroke="#0d6986" d="M832.5,-762C832.5,-762 723.5,-762 723.5,-762 717.5,-762 711.5,-756 711.5,-750 711.5,-750 711.5,-736 711.5,-736 711.5,-730 717.5,-724 723.5,-724 723.5,-724 832.5,-724 832.5,-724 838.5,-724 844.5,-730 844.5,-736 844.5,-736 844.5,-750 844.5,-750 844.5,-756 838.5,-762 832.5,-762"/>
<text text-anchor="middle" x="778" y="-746.8" font-family="Times,serif" font-size="14.00">CASE website</text>
<text text-anchor="middle" x="778" y="-731.8" font-family="Times,serif" font-size="14.00">adopts new case&#45;utils</text>
</a>
</g>
</g>
<!-- _GH__CASEWORK__CASE_UTILITIES_PYTHON&#45;&gt;_GH__CASEWORK__CASEWORK_GITHUB_IO -->
<g id="edge13" class="edge">
<title>_GH__CASEWORK__CASE_UTILITIES_PYTHON&#45;&gt;_GH__CASEWORK__CASEWORK_GITHUB_IO</title>
<path fill="none" stroke="black" d="M563.17,-599.29C584.33,-628.75 628.72,-684.73 680,-715 686.59,-718.89 693.75,-722.27 701.1,-725.19"/>
<polygon fill="black" stroke="black" points="699.61,-728.74 710.2,-728.91 702.03,-722.17 699.61,-728.74"/>
<text text-anchor="middle" x="648.5" y="-703.8" font-family="Times,serif" font-size="14.00">PyPI</text>
</g>
<!-- _GH__CASEWORK__CASEWORK_GITHUB_IO&#45;&gt;_GH__AJNELSON_NIST__CASE_EXAMPLES_QC -->
<g id="edge14" class="edge">
<title>_GH__CASEWORK__CASEWORK_GITHUB_IO&#45;&gt;_GH__AJNELSON_NIST__CASE_EXAMPLES_QC</title>
<path fill="none" stroke="black" d="M844.77,-724.12C855.23,-721.09 865.91,-717.97 876,-715 898.78,-708.28 923.29,-700.95 946.3,-694.03"/>
<polygon fill="black" stroke="black" points="947.19,-697.12 955.75,-690.88 945.17,-690.41 947.19,-697.12"/>
<text text-anchor="middle" x="916.5" y="-727.8" font-family="Times,serif" font-size="14.00">Git sub&#45;</text>
<text text-anchor="middle" x="916.5" y="-712.8" font-family="Times,serif" font-size="14.00">module</text>
</g>
</g>
</svg>
