<?xml version="1.0" encoding="UTF-8" standalone="no"?>
<!DOCTYPE svg PUBLIC "-//W3C//DTD SVG 1.1//EN"
 "http://www.w3.org/Graphics/SVG/1.1/DTD/svg11.dtd">
<!-- Generated by graphviz version 8.0.3 (20230416.2022)
 -->
<!-- Title: cdo_release_flow Pages: 1 -->
<svg width="1609pt" height="1338pt"
 viewBox="0.00 0.00 1609.00 1338.00" xmlns="http://www.w3.org/2000/svg" xmlns:xlink="http://www.w3.org/1999/xlink">
<g id="graph0" class="graph" transform="scale(1 1) rotate(0) translate(4 1334)">
<title>cdo_release_flow</title>
<polygon fill="white" stroke="none" points="-4,4 -4,-1334 1605,-1334 1605,4 -4,4"/>
<text text-anchor="middle" x="800.5" y="-38.8" font-family="Times,serif" font-size="14.00">Release flow of CDO ontologies</text>
<text text-anchor="middle" x="800.5" y="-7.8" font-family="Times,serif" font-size="14.00">Nodes link to the respective Git repository.</text>
<g id="clust1" class="cluster">
<title>cluster_uco_0_9_1</title>
<polygon fill="none" stroke="black" points="8,-62 8,-178 176,-178 176,-62 8,-62"/>
<text text-anchor="middle" x="92" y="-162.8" font-family="Times,serif" font-size="14.00">Adoption of UCO 0.9.1</text>
</g>
<g id="clust2" class="cluster">
<title>cluster_case_0_7_1</title>
<polygon fill="none" stroke="black" points="16,-70 16,-147 168,-147 168,-70 16,-70"/>
<text text-anchor="middle" x="92" y="-131.8" font-family="Times,serif" font-size="14.00">Adoption of CASE 0.7.1</text>
</g>
<g id="clust3" class="cluster">
<title>cluster_uco_1_2_0</title>
<polygon fill="none" stroke="black" points="34,-186 34,-1322 1593,-1322 1593,-186 34,-186"/>
<text text-anchor="middle" x="813.5" y="-1306.8" font-family="Times,serif" font-size="14.00">Adoption of UCO 1.2.0</text>
</g>
<g id="clust4" class="cluster">
<title>cluster_case_1_2_0</title>
<polygon fill="none" stroke="black" points="253.5,-303 253.5,-1291 1585,-1291 1585,-303 253.5,-303"/>
<text text-anchor="middle" x="919.25" y="-1275.8" font-family="Times,serif" font-size="14.00">Adoption of CASE 1.2.0</text>
</g>
<g id="clust5" class="cluster">
<title>cluster_case_utils_0_10_0</title>
<polygon fill="none" stroke="black" points="989,-700 989,-1260 1577,-1260 1577,-700 989,-700"/>
<text text-anchor="middle" x="1283" y="-1244.8" font-family="Times,serif" font-size="14.00">Adoption of case&#45;utils 0.10.0</text>
</g>
<g id="clust7" class="cluster">
<title>cluster_case_validation_action_2_6</title>
<polygon fill="none" stroke="black" points="997,-708 997,-1096 1569,-1096 1569,-708 997,-708"/>
<text text-anchor="middle" x="1283" y="-1080.8" font-family="Times,serif" font-size="14.00">Adoption of case&#45;validation&#45;action 2.6</text>
</g>
<g id="clust8" class="cluster">
<title>cluster_case_bindings_csharp_0_4_0</title>
<polygon fill="none" stroke="black" points="1022.5,-988 1022.5,-1065 1561,-1065 1561,-988 1022.5,-988"/>
<text text-anchor="middle" x="1291.75" y="-1049.8" font-family="Times,serif" font-size="14.00">Adoption of CSharp bindings 0.4.0</text>
</g>
<g id="clust6" class="cluster">
<title>cluster_case_prov_0_7_0</title>
<polygon fill="none" stroke="black" points="1074.5,-1152 1074.5,-1229 1502.5,-1229 1502.5,-1152 1074.5,-1152"/>
<text text-anchor="middle" x="1288.5" y="-1213.8" font-family="Times,serif" font-size="14.00">Adoption of case&#45;prov 0.7.0</text>
</g>
<g id="clust9" class="cluster">
<title>cluster_case_utils_0_11_0</title>
<polygon fill="none" stroke="black" points="515,-357 515,-692 1220.5,-692 1220.5,-357 515,-357"/>
<text text-anchor="middle" x="867.75" y="-676.8" font-family="Times,serif" font-size="14.00">Adoption of case&#45;utils 0.11.0</text>
</g>
<g id="clust10" class="cluster">
<title>cluster_case_validation_action_2_6_1</title>
<polygon fill="none" stroke="black" points="710,-574 710,-661 1212.5,-661 1212.5,-574 710,-574"/>
<text text-anchor="middle" x="961.25" y="-645.8" font-family="Times,serif" font-size="14.00">Adoption of case&#45;validation&#45;action 2.6.1</text>
</g>
<!-- _GH__CASEWORK__CASE_MAPPING_TEMPLATE_STUBS -->
<g id="node1" class="node">
<title>_GH__CASEWORK__CASE_MAPPING_TEMPLATE_STUBS</title>
<g id="a_node1"><a xlink:href="https://github.com/casework/CASE-Mapping-Template-Stubs" xlink:title="CASE Mapping\nTemplate Stubs">
<path fill="#8ec7d2" stroke="#0d6986" d="M132,-116C132,-116 52,-116 52,-116 46,-116 40,-110 40,-104 40,-104 40,-90 40,-90 40,-84 46,-78 52,-78 52,-78 132,-78 132,-78 138,-78 144,-84 144,-90 144,-90 144,-104 144,-104 144,-110 138,-116 132,-116"/>
<text text-anchor="middle" x="92" y="-100.8" font-family="Times,serif" font-size="14.00">CASE Mapping</text>
<text text-anchor="middle" x="92" y="-85.8" font-family="Times,serif" font-size="14.00">Template Stubs</text>
</a>
</g>
</g>
<!-- _GH__UCOPROJECT__ONTOLOGY_UNIFIEDCYBERONTOLOGY_ORG -->
<g id="node2" class="node">
<title>_GH__UCOPROJECT__ONTOLOGY_UNIFIEDCYBERONTOLOGY_ORG</title>
<g id="a_node2"><a xlink:href="https://github.com/ucoProject/ontology.unifiedcyberontology.org" xlink:title="UCO documentation\nregenerated">
<path fill="#8ec7d2" stroke="#0d6986" d="M367.5,-295C367.5,-295 261.5,-295 261.5,-295 255.5,-295 249.5,-289 249.5,-283 249.5,-283 249.5,-269 249.5,-269 249.5,-263 255.5,-257 261.5,-257 261.5,-257 367.5,-257 367.5,-257 373.5,-257 379.5,-263 379.5,-269 379.5,-269 379.5,-283 379.5,-283 379.5,-289 373.5,-295 367.5,-295"/>
<text text-anchor="middle" x="314.5" y="-279.8" font-family="Times,serif" font-size="14.00">UCO documentation</text>
<text text-anchor="middle" x="314.5" y="-264.8" font-family="Times,serif" font-size="14.00">regenerated</text>
</a>
</g>
</g>
<!-- _GH__CASEWORK__ONTOLOGY_CASEONTOLOGY_ORG -->
<g id="node8" class="node">
<title>_GH__CASEWORK__ONTOLOGY_CASEONTOLOGY_ORG</title>
<g id="a_node8"><a xlink:href="https://github.com/casework/ontology.caseontology.org" xlink:title="CASE documentation\nregenerated">
<path fill="#8ec7d2" stroke="#0d6986" d="M613,-349C613,-349 501,-349 501,-349 495,-349 489,-343 489,-337 489,-337 489,-323 489,-323 489,-317 495,-311 501,-311 501,-311 613,-311 613,-311 619,-311 625,-317 625,-323 625,-323 625,-337 625,-337 625,-343 619,-349 613,-349"/>
<text text-anchor="middle" x="557" y="-333.8" font-family="Times,serif" font-size="14.00">CASE documentation</text>
<text text-anchor="middle" x="557" y="-318.8" font-family="Times,serif" font-size="14.00">regenerated</text>
</a>
</g>
</g>
<!-- _GH__UCOPROJECT__ONTOLOGY_UNIFIEDCYBERONTOLOGY_ORG&#45;&gt;_GH__CASEWORK__ONTOLOGY_CASEONTOLOGY_ORG -->
<g id="edge25" class="edge">
<title>_GH__UCOPROJECT__ONTOLOGY_UNIFIEDCYBERONTOLOGY_ORG&#45;&gt;_GH__CASEWORK__ONTOLOGY_CASEONTOLOGY_ORG</title>
<path fill="none" stroke="black" d="M379.95,-290.47C410.2,-297.26 446.51,-305.42 478.27,-312.55"/>
<polygon fill="black" stroke="black" points="477.33,-316.15 487.85,-314.92 478.86,-309.32 477.33,-316.15"/>
<text text-anchor="middle" x="435.5" y="-327.8" font-family="Times,serif" font-size="14.00">Tech&#45;</text>
<text text-anchor="middle" x="435.5" y="-312.8" font-family="Times,serif" font-size="14.00">check</text>
</g>
<!-- _GH__UCOPROJECT__UCO -->
<g id="node3" class="node">
<title>_GH__UCOPROJECT__UCO</title>
<g id="a_node3"><a xlink:href="https://github.com/ucoProject/UCO" xlink:title="UCO Ontology\nreleases">
<path fill="#8ec7d2" stroke="#0d6986" d="M130,-295C130,-295 54,-295 54,-295 48,-295 42,-289 42,-283 42,-283 42,-269 42,-269 42,-263 48,-257 54,-257 54,-257 130,-257 130,-257 136,-257 142,-263 142,-269 142,-269 142,-283 142,-283 142,-289 136,-295 130,-295"/>
<text text-anchor="middle" x="92" y="-279.8" font-family="Times,serif" font-size="14.00">UCO Ontology</text>
<text text-anchor="middle" x="92" y="-264.8" font-family="Times,serif" font-size="14.00">releases</text>
</a>
</g>
</g>
<!-- _GH__UCOPROJECT__UCO&#45;&gt;_GH__UCOPROJECT__ONTOLOGY_UNIFIEDCYBERONTOLOGY_ORG -->
<g id="edge27" class="edge">
<title>_GH__UCOPROJECT__UCO&#45;&gt;_GH__UCOPROJECT__ONTOLOGY_UNIFIEDCYBERONTOLOGY_ORG</title>
<path fill="none" stroke="black" d="M142.48,-276C170.65,-276 206.52,-276 238.12,-276"/>
<polygon fill="black" stroke="black" points="238.1,-279.5 248.1,-276 238.1,-272.5 238.1,-279.5"/>
<text text-anchor="middle" x="206.5" y="-294.8" font-family="Times,serif" font-size="14.00">Git sub&#45;</text>
<text text-anchor="middle" x="206.5" y="-279.8" font-family="Times,serif" font-size="14.00">module</text>
</g>
<!-- _GH__UCOPROJECT__UCO_PROFILE_EXAMPLE -->
<g id="node5" class="node">
<title>_GH__UCOPROJECT__UCO_PROFILE_EXAMPLE</title>
<g id="a_node5"><a xlink:href="https://github.com/ucoProject/UCO-Profile-Example" xlink:title="UCO example profile\nupdates">
<path fill="#8ec7d2" stroke="#0d6986" d="M370,-239C370,-239 259,-239 259,-239 253,-239 247,-233 247,-227 247,-227 247,-213 247,-213 247,-207 253,-201 259,-201 259,-201 370,-201 370,-201 376,-201 382,-207 382,-213 382,-213 382,-227 382,-227 382,-233 376,-239 370,-239"/>
<text text-anchor="middle" x="314.5" y="-223.8" font-family="Times,serif" font-size="14.00">UCO example profile</text>
<text text-anchor="middle" x="314.5" y="-208.8" font-family="Times,serif" font-size="14.00">updates</text>
</a>
</g>
</g>
<!-- _GH__UCOPROJECT__UCO&#45;&gt;_GH__UCOPROJECT__UCO_PROFILE_EXAMPLE -->
<g id="edge28" class="edge">
<title>_GH__UCOPROJECT__UCO&#45;&gt;_GH__UCOPROJECT__UCO_PROFILE_EXAMPLE</title>
<path fill="none" stroke="black" d="M139.68,-256.63C153.74,-251.32 169.34,-245.95 184,-242 200.69,-237.51 218.84,-233.75 236.13,-230.68"/>
<polygon fill="black" stroke="black" points="236.5,-234 245.76,-228.86 235.32,-227.1 236.5,-234"/>
<text text-anchor="middle" x="206.5" y="-260.8" font-family="Times,serif" font-size="14.00">Git sub&#45;</text>
<text text-anchor="middle" x="206.5" y="-245.8" font-family="Times,serif" font-size="14.00">module</text>
</g>
<!-- _GH__CASEWORK__CASE -->
<g id="node7" class="node">
<title>_GH__CASEWORK__CASE</title>
<g id="a_node7"><a xlink:href="https://github.com/casework/CASE" xlink:title="CASE Ontology\nreleases">
<path fill="#8ec7d2" stroke="#0d6986" d="M355.5,-495C355.5,-495 273.5,-495 273.5,-495 267.5,-495 261.5,-489 261.5,-483 261.5,-483 261.5,-469 261.5,-469 261.5,-463 267.5,-457 273.5,-457 273.5,-457 355.5,-457 355.5,-457 361.5,-457 367.5,-463 367.5,-469 367.5,-469 367.5,-483 367.5,-483 367.5,-489 361.5,-495 355.5,-495"/>
<text text-anchor="middle" x="314.5" y="-479.8" font-family="Times,serif" font-size="14.00">CASE Ontology</text>
<text text-anchor="middle" x="314.5" y="-464.8" font-family="Times,serif" font-size="14.00">releases</text>
</a>
</g>
</g>
<!-- _GH__UCOPROJECT__UCO&#45;&gt;_GH__CASEWORK__CASE -->
<g id="edge26" class="edge">
<title>_GH__UCOPROJECT__UCO&#45;&gt;_GH__CASEWORK__CASE</title>
<path fill="none" stroke="black" d="M104.91,-295.45C127.97,-331.56 182.19,-409.24 247,-453 248.5,-454.01 250.04,-454.98 251.63,-455.91"/>
<polygon fill="black" stroke="black" points="249.56,-459.3 260.04,-460.83 252.8,-453.1 249.56,-459.3"/>
<text text-anchor="middle" x="206.5" y="-455.8" font-family="Times,serif" font-size="14.00">Git sub&#45;</text>
<text text-anchor="middle" x="206.5" y="-440.8" font-family="Times,serif" font-size="14.00">module</text>
</g>
<!-- _GH__UCOPROJECT__UCO_PROFILE_BFO -->
<g id="node4" class="node">
<title>_GH__UCOPROJECT__UCO_PROFILE_BFO</title>
<g id="a_node4"><a xlink:href="https://github.com/ucoProject/UCO-Profile-BFO" xlink:title="UCO BFO profile\nupdates">
<path fill="#8ec7d2" stroke="#0d6986" d="M602.5,-288C602.5,-288 511.5,-288 511.5,-288 505.5,-288 499.5,-282 499.5,-276 499.5,-276 499.5,-262 499.5,-262 499.5,-256 505.5,-250 511.5,-250 511.5,-250 602.5,-250 602.5,-250 608.5,-250 614.5,-256 614.5,-262 614.5,-262 614.5,-276 614.5,-276 614.5,-282 608.5,-288 602.5,-288"/>
<text text-anchor="middle" x="557" y="-272.8" font-family="Times,serif" font-size="14.00">UCO BFO profile</text>
<text text-anchor="middle" x="557" y="-257.8" font-family="Times,serif" font-size="14.00">updates</text>
</a>
</g>
</g>
<!-- _GH__UCOPROJECT__UCO_PROFILE_EXAMPLE&#45;&gt;_GH__UCOPROJECT__UCO_PROFILE_BFO -->
<g id="edge29" class="edge">
<title>_GH__UCOPROJECT__UCO_PROFILE_EXAMPLE&#45;&gt;_GH__UCOPROJECT__UCO_PROFILE_BFO</title>
<path fill="none" stroke="black" d="M382.23,-238.83C388.22,-240.32 394.21,-241.73 400,-243 428.77,-249.3 460.82,-254.88 488.35,-259.24"/>
<polygon fill="black" stroke="black" points="487.63,-262.83 498.05,-260.92 488.71,-255.92 487.63,-262.83"/>
<text text-anchor="middle" x="435.5" y="-273.8" font-family="Times,serif" font-size="14.00">Git merge of</text>
<text text-anchor="middle" x="435.5" y="-258.8" font-family="Times,serif" font-size="14.00">base branch</text>
</g>
<!-- _GH__UCOPROJECT__UCO_PROFILE_FOAF -->
<g id="node6" class="node">
<title>_GH__UCOPROJECT__UCO_PROFILE_FOAF</title>
<g id="a_node6"><a xlink:href="https://github.com/ucoProject/UCO-Profile-FOAF" xlink:title="UCO FOAF profile\nupdates">
<path fill="#8ec7d2" stroke="#0d6986" d="M606.5,-232C606.5,-232 507.5,-232 507.5,-232 501.5,-232 495.5,-226 495.5,-220 495.5,-220 495.5,-206 495.5,-206 495.5,-200 501.5,-194 507.5,-194 507.5,-194 606.5,-194 606.5,-194 612.5,-194 618.5,-200 618.5,-206 618.5,-206 618.5,-220 618.5,-220 618.5,-226 612.5,-232 606.5,-232"/>
<text text-anchor="middle" x="557" y="-216.8" font-family="Times,serif" font-size="14.00">UCO FOAF profile</text>
<text text-anchor="middle" x="557" y="-201.8" font-family="Times,serif" font-size="14.00">updates</text>
</a>
</g>
</g>
<!-- _GH__UCOPROJECT__UCO_PROFILE_EXAMPLE&#45;&gt;_GH__UCOPROJECT__UCO_PROFILE_FOAF -->
<g id="edge30" class="edge">
<title>_GH__UCOPROJECT__UCO_PROFILE_EXAMPLE&#45;&gt;_GH__UCOPROJECT__UCO_PROFILE_FOAF</title>
<path fill="none" stroke="black" d="M382.35,-213.95C388.31,-213.56 394.26,-213.24 400,-213 427.59,-211.86 457.95,-211.63 484.49,-211.76"/>
<polygon fill="black" stroke="black" points="484.2,-215.27 494.23,-211.84 484.25,-208.27 484.2,-215.27"/>
<text text-anchor="middle" x="435.5" y="-231.8" font-family="Times,serif" font-size="14.00">Git merge of</text>
<text text-anchor="middle" x="435.5" y="-216.8" font-family="Times,serif" font-size="14.00">base branch</text>
</g>
<!-- _GH__CASEWORK__CASE&#45;&gt;_GH__CASEWORK__ONTOLOGY_CASEONTOLOGY_ORG -->
<g id="edge4" class="edge">
<title>_GH__CASEWORK__CASE&#45;&gt;_GH__CASEWORK__ONTOLOGY_CASEONTOLOGY_ORG</title>
<path fill="none" stroke="black" d="M367.64,-467.36C401.69,-459.05 444.59,-443.11 471,-413 487.13,-394.6 473.91,-377.7 486.13,-357.85"/>
<polygon fill="black" stroke="black" points="489.31,-360.48 492.78,-350.47 483.82,-356.13 489.31,-360.48"/>
<text text-anchor="middle" x="435.5" y="-474.8" font-family="Times,serif" font-size="14.00">Git sub&#45;</text>
<text text-anchor="middle" x="435.5" y="-459.8" font-family="Times,serif" font-size="14.00">module</text>
</g>
<!-- _GH__CIPHERTECHSOLUTIONS__CASE_BINDINGS_CSHARP -->
<g id="node18" class="node">
<title>_GH__CIPHERTECHSOLUTIONS__CASE_BINDINGS_CSHARP</title>
<g id="a_node18"><a xlink:href="https://github.com/ciphertechsolutions/CASE-Bindings-CSharp" xlink:title="CASE&#45;Bindings&#45;CSharp\nadopts new ontology version">
<path fill="#8ec7d2" stroke="#0d6986" d="M1191.5,-1034C1191.5,-1034 1042.5,-1034 1042.5,-1034 1036.5,-1034 1030.5,-1028 1030.5,-1022 1030.5,-1022 1030.5,-1008 1030.5,-1008 1030.5,-1002 1036.5,-996 1042.5,-996 1042.5,-996 1191.5,-996 1191.5,-996 1197.5,-996 1203.5,-1002 1203.5,-1008 1203.5,-1008 1203.5,-1022 1203.5,-1022 1203.5,-1028 1197.5,-1034 1191.5,-1034"/>
<text text-anchor="middle" x="1117" y="-1018.8" font-family="Times,serif" font-size="14.00">CASE&#45;Bindings&#45;CSharp</text>
<text text-anchor="middle" x="1117" y="-1003.8" font-family="Times,serif" font-size="14.00">adopts new ontology version</text>
</a>
</g>
</g>
<!-- _GH__CASEWORK__CASE&#45;&gt;_GH__CIPHERTECHSOLUTIONS__CASE_BINDINGS_CSHARP -->
<g id="edge3" class="edge">
<title>_GH__CASEWORK__CASE&#45;&gt;_GH__CIPHERTECHSOLUTIONS__CASE_BINDINGS_CSHARP</title>
<path fill="none" stroke="black" d="M320.95,-495.3C345.77,-578.74 456.91,-908.74 688,-1007 794.47,-1052.27 929.72,-1045.44 1019.37,-1033.14"/>
<polygon fill="black" stroke="black" points="1019.67,-1036.49 1029.08,-1031.61 1018.68,-1029.56 1019.67,-1036.49"/>
</g>
<!-- _GH__CASEWORK__CASE_UTILITIES_PYTHON -->
<g id="node22" class="node">
<title>_GH__CASEWORK__CASE_UTILITIES_PYTHON</title>
<g id="a_node22"><a xlink:href="https://github.com/casework/CASE-Utilities-Python" xlink:title="case&#45;utils\nreleases">
<path fill="#8ec7d2" stroke="#0d6986" d="M579,-566C579,-566 535,-566 535,-566 529,-566 523,-560 523,-554 523,-554 523,-540 523,-540 523,-534 529,-528 535,-528 535,-528 579,-528 579,-528 585,-528 591,-534 591,-540 591,-540 591,-554 591,-554 591,-560 585,-566 579,-566"/>
<text text-anchor="middle" x="557" y="-550.8" font-family="Times,serif" font-size="14.00">case&#45;utils</text>
<text text-anchor="middle" x="557" y="-535.8" font-family="Times,serif" font-size="14.00">releases</text>
</a>
</g>
</g>
<!-- _GH__CASEWORK__CASE&#45;&gt;_GH__CASEWORK__CASE_UTILITIES_PYTHON -->
<g id="edge2" class="edge">
<title>_GH__CASEWORK__CASE&#45;&gt;_GH__CASEWORK__CASE_UTILITIES_PYTHON</title>
<path fill="none" stroke="black" d="M367.98,-491.49C411.12,-504.23 471.53,-522.06 512.13,-534.05"/>
<polygon fill="black" stroke="black" points="510.93,-537.64 521.51,-537.11 512.91,-530.92 510.93,-537.64"/>
<text text-anchor="middle" x="435.5" y="-537.8" font-family="Times,serif" font-size="14.00">Git sub&#45;</text>
<text text-anchor="middle" x="435.5" y="-522.8" font-family="Times,serif" font-size="14.00">module</text>
</g>
<!-- _GH__CASEWORK__CASE_IMPLEMENTATON_GNU_TIME -->
<g id="node9" class="node">
<title>_GH__CASEWORK__CASE_IMPLEMENTATON_GNU_TIME</title>
<g id="a_node9"><a xlink:href="https://github.com/casework/CASE-Implementation-GNU-Time" xlink:title="CASE&#45;Implementation&#45;GNU&#45;Time\nadopts new case&#45;utils">
<path fill="#8ec7d2" stroke="#0d6986" d="M1210,-1142C1210,-1142 1024,-1142 1024,-1142 1018,-1142 1012,-1136 1012,-1130 1012,-1130 1012,-1116 1012,-1116 1012,-1110 1018,-1104 1024,-1104 1024,-1104 1210,-1104 1210,-1104 1216,-1104 1222,-1110 1222,-1116 1222,-1116 1222,-1130 1222,-1130 1222,-1136 1216,-1142 1210,-1142"/>
<text text-anchor="middle" x="1117" y="-1126.8" font-family="Times,serif" font-size="14.00">CASE&#45;Implementation&#45;GNU&#45;Time</text>
<text text-anchor="middle" x="1117" y="-1111.8" font-family="Times,serif" font-size="14.00">adopts new case&#45;utils</text>
</a>
</g>
</g>
<!-- _GH__CASEWORK__CASE_CORPORA -->
<g id="node10" class="node">
<title>_GH__CASEWORK__CASE_CORPORA</title>
<g id="a_node10"><a xlink:href="https://github.com/casework/CASE-Corpora" xlink:title="CASE&#45;Corpora\nadopts new case&#45;prov">
<path fill="#8ec7d2" stroke="#0d6986" d="M1482.5,-1198C1482.5,-1198 1372.5,-1198 1372.5,-1198 1366.5,-1198 1360.5,-1192 1360.5,-1186 1360.5,-1186 1360.5,-1172 1360.5,-1172 1360.5,-1166 1366.5,-1160 1372.5,-1160 1372.5,-1160 1482.5,-1160 1482.5,-1160 1488.5,-1160 1494.5,-1166 1494.5,-1172 1494.5,-1172 1494.5,-1186 1494.5,-1186 1494.5,-1192 1488.5,-1198 1482.5,-1198"/>
<text text-anchor="middle" x="1427.5" y="-1182.8" font-family="Times,serif" font-size="14.00">CASE&#45;Corpora</text>
<text text-anchor="middle" x="1427.5" y="-1167.8" font-family="Times,serif" font-size="14.00">adopts new case&#45;prov</text>
</a>
</g>
</g>
<!-- _GH__CASEWORK__CASE_IMPLEMENTATON_PROV_O -->
<g id="node11" class="node">
<title>_GH__CASEWORK__CASE_IMPLEMENTATON_PROV_O</title>
<g id="a_node11"><a xlink:href="https://github.com/casework/CASE-Implementation-PROV-O" xlink:title="case&#45;prov\nreleases">
<path fill="#8ec7d2" stroke="#0d6986" d="M1139.5,-1198C1139.5,-1198 1094.5,-1198 1094.5,-1198 1088.5,-1198 1082.5,-1192 1082.5,-1186 1082.5,-1186 1082.5,-1172 1082.5,-1172 1082.5,-1166 1088.5,-1160 1094.5,-1160 1094.5,-1160 1139.5,-1160 1139.5,-1160 1145.5,-1160 1151.5,-1166 1151.5,-1172 1151.5,-1172 1151.5,-1186 1151.5,-1186 1151.5,-1192 1145.5,-1198 1139.5,-1198"/>
<text text-anchor="middle" x="1117" y="-1182.8" font-family="Times,serif" font-size="14.00">case&#45;prov</text>
<text text-anchor="middle" x="1117" y="-1167.8" font-family="Times,serif" font-size="14.00">releases</text>
</a>
</g>
</g>
<!-- _GH__CASEWORK__CASE_IMPLEMENTATON_PROV_O&#45;&gt;_GH__CASEWORK__CASE_CORPORA -->
<g id="edge6" class="edge">
<title>_GH__CASEWORK__CASE_IMPLEMENTATON_PROV_O&#45;&gt;_GH__CASEWORK__CASE_CORPORA</title>
<path fill="none" stroke="black" d="M1151.9,-1179C1199.1,-1179 1285.96,-1179 1349.38,-1179"/>
<polygon fill="black" stroke="black" points="1349.14,-1182.5 1359.14,-1179 1349.14,-1175.5 1349.14,-1182.5"/>
<text text-anchor="middle" x="1265.5" y="-1182.8" font-family="Times,serif" font-size="14.00">PyPI</text>
</g>
<!-- _GH__CASEWORK__CASE_IMPLEMENTATON_PYPI_EXIFREAD -->
<g id="node12" class="node">
<title>_GH__CASEWORK__CASE_IMPLEMENTATON_PYPI_EXIFREAD</title>
<g id="a_node12"><a xlink:href="https://github.com/casework/CASE-Implementation-PyPI-Exifread" xlink:title="CASE&#45;Implementation&#45;PyPI&#45;Exifread\nadopts new case&#45;validation&#45;action">
<path fill="#8ec7d2" stroke="#0d6986" d="M1217,-978C1217,-978 1017,-978 1017,-978 1011,-978 1005,-972 1005,-966 1005,-966 1005,-952 1005,-952 1005,-946 1011,-940 1017,-940 1017,-940 1217,-940 1217,-940 1223,-940 1229,-946 1229,-952 1229,-952 1229,-966 1229,-966 1229,-972 1223,-978 1217,-978"/>
<text text-anchor="middle" x="1117" y="-962.8" font-family="Times,serif" font-size="14.00">CASE&#45;Implementation&#45;PyPI&#45;Exifread</text>
<text text-anchor="middle" x="1117" y="-947.8" font-family="Times,serif" font-size="14.00">adopts new case&#45;validation&#45;action</text>
</a>
</g>
</g>
<!-- _GH__CASEWORK__CASE_IMPLEMENTATON_PYPI_PILLOW -->
<g id="node13" class="node">
<title>_GH__CASEWORK__CASE_IMPLEMENTATON_PYPI_PILLOW</title>
<g id="a_node13"><a xlink:href="https://github.com/casework/CASE-Implementation-PyPI-Pillow" xlink:title="CASE&#45;Implementation&#45;PyPI&#45;Pillow\nadopts new case&#45;validation&#45;action">
<path fill="#8ec7d2" stroke="#0d6986" d="M1211.5,-922C1211.5,-922 1022.5,-922 1022.5,-922 1016.5,-922 1010.5,-916 1010.5,-910 1010.5,-910 1010.5,-896 1010.5,-896 1010.5,-890 1016.5,-884 1022.5,-884 1022.5,-884 1211.5,-884 1211.5,-884 1217.5,-884 1223.5,-890 1223.5,-896 1223.5,-896 1223.5,-910 1223.5,-910 1223.5,-916 1217.5,-922 1211.5,-922"/>
<text text-anchor="middle" x="1117" y="-906.8" font-family="Times,serif" font-size="14.00">CASE&#45;Implementation&#45;PyPI&#45;Pillow</text>
<text text-anchor="middle" x="1117" y="-891.8" font-family="Times,serif" font-size="14.00">adopts new case&#45;validation&#45;action</text>
</a>
</g>
</g>
<!-- _GH__CASEWORK__CASE_IMPLEMENTATON_UFED_XML -->
<g id="node14" class="node">
<title>_GH__CASEWORK__CASE_IMPLEMENTATON_UFED_XML</title>
<g id="a_node14"><a xlink:href="https://github.com/casework/CASE-Implementation-UFED-XML" xlink:title="CASE&#45;Implementation&#45;UFED&#45;XML\nadopts new case&#45;validation&#45;action">
<path fill="#8ec7d2" stroke="#0d6986" d="M1214,-754C1214,-754 1020,-754 1020,-754 1014,-754 1008,-748 1008,-742 1008,-742 1008,-728 1008,-728 1008,-722 1014,-716 1020,-716 1020,-716 1214,-716 1214,-716 1220,-716 1226,-722 1226,-728 1226,-728 1226,-742 1226,-742 1226,-748 1220,-754 1214,-754"/>
<text text-anchor="middle" x="1117" y="-738.8" font-family="Times,serif" font-size="14.00">CASE&#45;Implementation&#45;UFED&#45;XML</text>
<text text-anchor="middle" x="1117" y="-723.8" font-family="Times,serif" font-size="14.00">adopts new case&#45;validation&#45;action</text>
</a>
</g>
</g>
<!-- _GH__CASEWORK__CASE_IMPLEMENTATON_XRY -->
<g id="node15" class="node">
<title>_GH__CASEWORK__CASE_IMPLEMENTATON_XRY</title>
<g id="a_node15"><a xlink:href="https://github.com/casework/CASE-Implementation-XRY" xlink:title="CASE&#45;Implementation&#45;XRY adopts\nnew case&#45;validation&#45;action">
<path fill="#8ec7d2" stroke="#0d6986" d="M1212,-810C1212,-810 1022,-810 1022,-810 1016,-810 1010,-804 1010,-798 1010,-798 1010,-784 1010,-784 1010,-778 1016,-772 1022,-772 1022,-772 1212,-772 1212,-772 1218,-772 1224,-778 1224,-784 1224,-784 1224,-798 1224,-798 1224,-804 1218,-810 1212,-810"/>
<text text-anchor="middle" x="1117" y="-794.8" font-family="Times,serif" font-size="14.00">CASE&#45;Implementation&#45;XRY adopts</text>
<text text-anchor="middle" x="1117" y="-779.8" font-family="Times,serif" font-size="14.00">new case&#45;validation&#45;action</text>
</a>
</g>
</g>
<!-- _GH__CASEWORK__CASE_MAPPING_TEMPLATE_PYTHON -->
<g id="node16" class="node">
<title>_GH__CASEWORK__CASE_MAPPING_TEMPLATE_PYTHON</title>
<g id="a_node16"><a xlink:href="https://github.com/casework/CASE-Mapping-Template-Python" xlink:title="CASE&#45;Mapping&#45;Template&#45;Python\nadopts new case&#45;validation&#45;action">
<path fill="#8ec7d2" stroke="#0d6986" d="M1207,-866C1207,-866 1027,-866 1027,-866 1021,-866 1015,-860 1015,-854 1015,-854 1015,-840 1015,-840 1015,-834 1021,-828 1027,-828 1027,-828 1207,-828 1207,-828 1213,-828 1219,-834 1219,-840 1219,-840 1219,-854 1219,-854 1219,-860 1213,-866 1207,-866"/>
<text text-anchor="middle" x="1117" y="-850.8" font-family="Times,serif" font-size="14.00">CASE&#45;Mapping&#45;Template&#45;Python</text>
<text text-anchor="middle" x="1117" y="-835.8" font-family="Times,serif" font-size="14.00">adopts new case&#45;validation&#45;action</text>
</a>
</g>
</g>
<!-- _GH__CASEWORK__CASE_BINDINGS_CSHARP_MONITOR -->
<g id="node17" class="node">
<title>_GH__CASEWORK__CASE_BINDINGS_CSHARP_MONITOR</title>
<g id="a_node17"><a xlink:href="https://github.com/casework/CASE-Bindings-CSharp-Monitor" xlink:title="CASE Bindings CSharp Monitor\ntests NuGet package with validation action">
<path fill="#8ec7d2" stroke="#0d6986" d="M1541,-1034C1541,-1034 1314,-1034 1314,-1034 1308,-1034 1302,-1028 1302,-1022 1302,-1022 1302,-1008 1302,-1008 1302,-1002 1308,-996 1314,-996 1314,-996 1541,-996 1541,-996 1547,-996 1553,-1002 1553,-1008 1553,-1008 1553,-1022 1553,-1022 1553,-1028 1547,-1034 1541,-1034"/>
<text text-anchor="middle" x="1427.5" y="-1018.8" font-family="Times,serif" font-size="14.00">CASE Bindings CSharp Monitor</text>
<text text-anchor="middle" x="1427.5" y="-1003.8" font-family="Times,serif" font-size="14.00">tests NuGet package with validation action</text>
</a>
</g>
</g>
<!-- _GH__CIPHERTECHSOLUTIONS__CASE_BINDINGS_CSHARP&#45;&gt;_GH__CASEWORK__CASE_BINDINGS_CSHARP_MONITOR -->
<g id="edge16" class="edge">
<title>_GH__CIPHERTECHSOLUTIONS__CASE_BINDINGS_CSHARP&#45;&gt;_GH__CASEWORK__CASE_BINDINGS_CSHARP_MONITOR</title>
<path fill="none" stroke="black" d="M1203.93,-1015C1230.85,-1015 1261.24,-1015 1290.72,-1015"/>
<polygon fill="black" stroke="black" points="1290.53,-1018.5 1300.53,-1015 1290.53,-1011.5 1290.53,-1018.5"/>
<text text-anchor="middle" x="1265.5" y="-1018.8" font-family="Times,serif" font-size="14.00">NuGet</text>
</g>
<!-- _GH__AJNELSON_NIST__CASE_EXAMPLES_QC -->
<g id="node19" class="node">
<title>_GH__AJNELSON_NIST__CASE_EXAMPLES_QC</title>
<g id="a_node19"><a xlink:href="https://github.com/ajnelson-nist/CASE-Examples-QC" xlink:title="CASE&#45;Examples&#45;QC\nadopts CASE&#45;Examples and\nCASE website updates">
<path fill="#8ec7d2" stroke="#0d6986" d="M1191,-562.5C1191,-562.5 1043,-562.5 1043,-562.5 1037,-562.5 1031,-556.5 1031,-550.5 1031,-550.5 1031,-521.5 1031,-521.5 1031,-515.5 1037,-509.5 1043,-509.5 1043,-509.5 1191,-509.5 1191,-509.5 1197,-509.5 1203,-515.5 1203,-521.5 1203,-521.5 1203,-550.5 1203,-550.5 1203,-556.5 1197,-562.5 1191,-562.5"/>
<text text-anchor="middle" x="1117" y="-547.3" font-family="Times,serif" font-size="14.00">CASE&#45;Examples&#45;QC</text>
<text text-anchor="middle" x="1117" y="-532.3" font-family="Times,serif" font-size="14.00">adopts CASE&#45;Examples and</text>
<text text-anchor="middle" x="1117" y="-517.3" font-family="Times,serif" font-size="14.00">CASE website updates</text>
</a>
</g>
</g>
<!-- _GH__AJNELSON_NIST__CASE_EXAMPLES_QC&#45;&gt;_GH__CASEWORK__CASE_IMPLEMENTATON_PROV_O -->
<g id="edge1" class="edge">
<title>_GH__AJNELSON_NIST__CASE_EXAMPLES_QC&#45;&gt;_GH__CASEWORK__CASE_IMPLEMENTATON_PROV_O</title>
<path fill="none" stroke="black" d="M1030.79,-545.16C1015.19,-550.37 1000.31,-558.23 989,-570 935.07,-626.16 959.43,-663.6 950.92,-741 942.29,-819.41 903.82,-1063.79 989,-1156 1009.49,-1178.18 1043.51,-1183.46 1071.33,-1183.45"/>
<polygon fill="black" stroke="black" points="1071.12,-1186.93 1081.03,-1183.19 1070.95,-1179.93 1071.12,-1186.93"/>
<text text-anchor="middle" x="941.5" y="-759.8" font-family="Times,serif" font-size="14.00">Git sub&#45;</text>
<text text-anchor="middle" x="941.5" y="-744.8" font-family="Times,serif" font-size="14.00">module</text>
</g>
<!-- _GH__CASEWORK__CASE_EXAMPLES -->
<g id="node20" class="node">
<title>_GH__CASEWORK__CASE_EXAMPLES</title>
<g id="a_node20"><a xlink:href="https://github.com/casework/CASE-Examples" xlink:title="CASE&#45;Examples\nadopts new case&#45;utils">
<path fill="#8ec7d2" stroke="#0d6986" d="M840.5,-566C840.5,-566 731.5,-566 731.5,-566 725.5,-566 719.5,-560 719.5,-554 719.5,-554 719.5,-540 719.5,-540 719.5,-534 725.5,-528 731.5,-528 731.5,-528 840.5,-528 840.5,-528 846.5,-528 852.5,-534 852.5,-540 852.5,-540 852.5,-554 852.5,-554 852.5,-560 846.5,-566 840.5,-566"/>
<text text-anchor="middle" x="786" y="-550.8" font-family="Times,serif" font-size="14.00">CASE&#45;Examples</text>
<text text-anchor="middle" x="786" y="-535.8" font-family="Times,serif" font-size="14.00">adopts new case&#45;utils</text>
</a>
</g>
</g>
<!-- _GH__CASEWORK__CASE_EXAMPLES&#45;&gt;_GH__AJNELSON_NIST__CASE_EXAMPLES_QC -->
<g id="edge5" class="edge">
<title>_GH__CASEWORK__CASE_EXAMPLES&#45;&gt;_GH__AJNELSON_NIST__CASE_EXAMPLES_QC</title>
<path fill="none" stroke="black" d="M852.96,-542.51C869,-541.55 886.11,-540.63 902,-540 940.53,-538.47 982.98,-537.52 1019.84,-536.94"/>
<polygon fill="black" stroke="black" points="1019.64,-540.42 1029.59,-536.77 1019.53,-533.43 1019.64,-540.42"/>
<text text-anchor="middle" x="941.5" y="-558.8" font-family="Times,serif" font-size="14.00">Git sub&#45;</text>
<text text-anchor="middle" x="941.5" y="-543.8" font-family="Times,serif" font-size="14.00">module</text>
</g>
<!-- _GH__CASEWORK__CASE_IMPLEMENTATON_EXIFTOOL -->
<g id="node21" class="node">
<title>_GH__CASEWORK__CASE_IMPLEMENTATON_EXIFTOOL</title>
<g id="a_node21"><a xlink:href="https://github.com/casework/CASE-Implementation-ExifTool" xlink:title="CASE&#45;Implementation&#45;ExifTool\nadopts new case&#45;utils">
<path fill="#8ec7d2" stroke="#0d6986" d="M872,-510C872,-510 700,-510 700,-510 694,-510 688,-504 688,-498 688,-498 688,-484 688,-484 688,-478 694,-472 700,-472 700,-472 872,-472 872,-472 878,-472 884,-478 884,-484 884,-484 884,-498 884,-498 884,-504 878,-510 872,-510"/>
<text text-anchor="middle" x="786" y="-494.8" font-family="Times,serif" font-size="14.00">CASE&#45;Implementation&#45;ExifTool</text>
<text text-anchor="middle" x="786" y="-479.8" font-family="Times,serif" font-size="14.00">adopts new case&#45;utils</text>
</a>
</g>
</g>
<!-- _GH__CASEWORK__CASE_UTILITIES_PYTHON&#45;&gt;_GH__CASEWORK__CASE_IMPLEMENTATON_GNU_TIME -->
<g id="edge10" class="edge">
<title>_GH__CASEWORK__CASE_UTILITIES_PYTHON&#45;&gt;_GH__CASEWORK__CASE_IMPLEMENTATON_GNU_TIME</title>
<path fill="none" stroke="black" d="M591.32,-553.49C602.88,-556.96 615.35,-562.18 625,-570 637.09,-579.78 634.57,-586.93 643,-600 662.05,-629.52 666.9,-636.9 688,-665 770.91,-775.39 800.07,-796.38 884,-906 892.32,-916.87 890.23,-924 902,-931 917.21,-940.04 968.89,-928.1 981,-941 1000.5,-961.78 972.54,-1045.73 989,-1069 997.94,-1081.64 1010.45,-1091.33 1024.16,-1098.77"/>
<polygon fill="black" stroke="black" points="1022.31,-1102.25 1032.82,-1103.56 1025.42,-1095.98 1022.31,-1102.25"/>
<text text-anchor="middle" x="786" y="-909.8" font-family="Times,serif" font-size="14.00">PyPI</text>
</g>
<!-- _GH__CASEWORK__CASE_UTILITIES_PYTHON&#45;&gt;_GH__CASEWORK__CASE_IMPLEMENTATON_PROV_O -->
<g id="edge11" class="edge">
<title>_GH__CASEWORK__CASE_UTILITIES_PYTHON&#45;&gt;_GH__CASEWORK__CASE_IMPLEMENTATON_PROV_O</title>
<path fill="none" stroke="black" d="M591.31,-551.24C603.57,-554.46 616.51,-560.1 625,-570 650.79,-600.08 659.97,-892.99 688,-921 750.6,-983.54 812.6,-903.72 884,-956 965,-1015.31 908.07,-1096.59 989,-1156 1012.55,-1173.29 1045.05,-1178.93 1071.28,-1180.31"/>
<polygon fill="black" stroke="black" points="1070.98,-1183.83 1081.09,-1180.66 1071.21,-1176.84 1070.98,-1183.83"/>
<text text-anchor="middle" x="786" y="-959.8" font-family="Times,serif" font-size="14.00">PyPI</text>
</g>
<!-- _GH__CASEWORK__CASE_UTILITIES_PYTHON&#45;&gt;_GH__CASEWORK__CASE_IMPLEMENTATON_PYPI_EXIFREAD -->
<g id="edge12" class="edge">
<title>_GH__CASEWORK__CASE_UTILITIES_PYTHON&#45;&gt;_GH__CASEWORK__CASE_IMPLEMENTATON_PYPI_EXIFREAD</title>
<path fill="none" stroke="black" d="M591.29,-550.52C603.86,-553.62 617.03,-559.38 625,-570 675.48,-637.26 591.55,-881.48 643,-948 684.33,-1001.43 867.76,-990.75 993.66,-976.28"/>
<polygon fill="black" stroke="black" points="993.99,-979.65 1003.52,-975.01 993.18,-972.7 993.99,-979.65"/>
<text text-anchor="middle" x="786" y="-991.8" font-family="Times,serif" font-size="14.00">PyPI</text>
</g>
<!-- _GH__CASEWORK__CASE_UTILITIES_PYTHON&#45;&gt;_GH__AJNELSON_NIST__CASE_EXAMPLES_QC -->
<g id="edge7" class="edge">
<title>_GH__CASEWORK__CASE_UTILITIES_PYTHON&#45;&gt;_GH__AJNELSON_NIST__CASE_EXAMPLES_QC</title>
<path fill="none" stroke="black" d="M591.39,-539.47C602.69,-535.93 614.98,-530.92 625,-524 661.09,-499.06 648.29,-466.66 688,-448 813.31,-389.11 977.51,-458.93 1061.43,-503.86"/>
<polygon fill="black" stroke="black" points="1059.56,-507.37 1070.02,-509.07 1062.9,-501.22 1059.56,-507.37"/>
<text text-anchor="middle" x="786" y="-451.8" font-family="Times,serif" font-size="14.00">PyPI</text>
</g>
<!-- _GH__CASEWORK__CASE_UTILITIES_PYTHON&#45;&gt;_GH__CASEWORK__CASE_EXAMPLES -->
<g id="edge8" class="edge">
<title>_GH__CASEWORK__CASE_UTILITIES_PYTHON&#45;&gt;_GH__CASEWORK__CASE_EXAMPLES</title>
<path fill="none" stroke="black" d="M591.49,-547C622.22,-547 668.87,-547 708.66,-547"/>
<polygon fill="black" stroke="black" points="708.42,-550.5 718.42,-547 708.42,-543.5 708.42,-550.5"/>
<text text-anchor="middle" x="656.5" y="-550.8" font-family="Times,serif" font-size="14.00">PyPI</text>
</g>
<!-- _GH__CASEWORK__CASE_UTILITIES_PYTHON&#45;&gt;_GH__CASEWORK__CASE_IMPLEMENTATON_EXIFTOOL -->
<g id="edge9" class="edge">
<title>_GH__CASEWORK__CASE_UTILITIES_PYTHON&#45;&gt;_GH__CASEWORK__CASE_IMPLEMENTATON_EXIFTOOL</title>
<path fill="none" stroke="black" d="M591.49,-538.74C619,-531.95 659.26,-522.02 695.95,-512.97"/>
<polygon fill="black" stroke="black" points="696.31,-516.24 705.18,-510.44 694.64,-509.44 696.31,-516.24"/>
<text text-anchor="middle" x="656.5" y="-528.8" font-family="Times,serif" font-size="14.00">PyPI</text>
</g>
<!-- _GH__CASEWORK__CASEWORK_GITHUB_IO -->
<g id="node23" class="node">
<title>_GH__CASEWORK__CASEWORK_GITHUB_IO</title>
<g id="a_node23"><a xlink:href="https://github.com/casework/casework.github.io" xlink:title="CASE website\nadopts new case&#45;utils">
<path fill="#8ec7d2" stroke="#0d6986" d="M840.5,-403C840.5,-403 731.5,-403 731.5,-403 725.5,-403 719.5,-397 719.5,-391 719.5,-391 719.5,-377 719.5,-377 719.5,-371 725.5,-365 731.5,-365 731.5,-365 840.5,-365 840.5,-365 846.5,-365 852.5,-371 852.5,-377 852.5,-377 852.5,-391 852.5,-391 852.5,-397 846.5,-403 840.5,-403"/>
<text text-anchor="middle" x="786" y="-387.8" font-family="Times,serif" font-size="14.00">CASE website</text>
<text text-anchor="middle" x="786" y="-372.8" font-family="Times,serif" font-size="14.00">adopts new case&#45;utils</text>
</a>
</g>
</g>
<!-- _GH__CASEWORK__CASE_UTILITIES_PYTHON&#45;&gt;_GH__CASEWORK__CASEWORK_GITHUB_IO -->
<g id="edge14" class="edge">
<title>_GH__CASEWORK__CASE_UTILITIES_PYTHON&#45;&gt;_GH__CASEWORK__CASEWORK_GITHUB_IO</title>
<path fill="none" stroke="black" d="M591.35,-542.79C603.61,-539.58 616.55,-533.93 625,-524 655.68,-487.94 610.75,-453.66 643,-419 659.88,-400.87 684.51,-391.47 708.54,-386.79"/>
<polygon fill="black" stroke="black" points="708.86,-390.11 718.15,-385 707.7,-383.21 708.86,-390.11"/>
<text text-anchor="middle" x="656.5" y="-422.8" font-family="Times,serif" font-size="14.00">PyPI</text>
</g>
<!-- _GH__KCHASON__CASE_VALIDATION_ACTION -->
<g id="node25" class="node">
<title>_GH__KCHASON__CASE_VALIDATION_ACTION</title>
<g id="a_node25"><a xlink:href="https://github.com/kchason/case-validation-action" xlink:title="case&#45;validation&#45;action\nreleases">
<path fill="#8ec7d2" stroke="#0d6986" d="M842,-630C842,-630 730,-630 730,-630 724,-630 718,-624 718,-618 718,-618 718,-604 718,-604 718,-598 724,-592 730,-592 730,-592 842,-592 842,-592 848,-592 854,-598 854,-604 854,-604 854,-618 854,-618 854,-624 848,-630 842,-630"/>
<text text-anchor="middle" x="786" y="-614.8" font-family="Times,serif" font-size="14.00">case&#45;validation&#45;action</text>
<text text-anchor="middle" x="786" y="-599.8" font-family="Times,serif" font-size="14.00">releases</text>
</a>
</g>
</g>
<!-- _GH__CASEWORK__CASE_UTILITIES_PYTHON&#45;&gt;_GH__KCHASON__CASE_VALIDATION_ACTION -->
<g id="edge13" class="edge">
<title>_GH__CASEWORK__CASE_UTILITIES_PYTHON&#45;&gt;_GH__KCHASON__CASE_VALIDATION_ACTION</title>
<path fill="none" stroke="black" d="M591.47,-558.29C617.61,-566.93 654.92,-578.87 688,-588 694.24,-589.72 700.73,-591.43 707.26,-593.1"/>
<polygon fill="black" stroke="black" points="705.97,-596.63 716.52,-595.67 707.68,-589.84 705.97,-596.63"/>
<text text-anchor="middle" x="656.5" y="-584.8" font-family="Times,serif" font-size="14.00">PyPI</text>
</g>
<!-- _GH__CASEWORK__CASEWORK_GITHUB_IO&#45;&gt;_GH__AJNELSON_NIST__CASE_EXAMPLES_QC -->
<g id="edge15" class="edge">
<title>_GH__CASEWORK__CASEWORK_GITHUB_IO&#45;&gt;_GH__AJNELSON_NIST__CASE_EXAMPLES_QC</title>
<path fill="none" stroke="black" d="M852.81,-379.18C892.03,-379.05 941.67,-383.85 981,-404 985.76,-406.44 985.3,-409.14 989,-413 1018.64,-443.93 1053.7,-477.69 1079.47,-502.01"/>
<polygon fill="black" stroke="black" points="1076.47,-503.93 1086.16,-508.24 1081.27,-498.83 1076.47,-503.93"/>
<text text-anchor="middle" x="941.5" y="-422.8" font-family="Times,serif" font-size="14.00">Git sub&#45;</text>
<text text-anchor="middle" x="941.5" y="-407.8" font-family="Times,serif" font-size="14.00">module</text>
</g>
<!-- _GH__CASEWORK__CASE_EXAMPLES_CONVERSION -->
<g id="node24" class="node">
<title>_GH__CASEWORK__CASE_EXAMPLES_CONVERSION</title>
<g id="a_node24"><a xlink:href="https://github.com/casework/CASE-Examples-Conversion" xlink:title="CASE Conversion Examples">
<path fill="#8ec7d2" stroke="#0d6986" d="M1192.5,-618C1192.5,-618 1041.5,-618 1041.5,-618 1035.5,-618 1029.5,-612 1029.5,-606 1029.5,-606 1029.5,-594 1029.5,-594 1029.5,-588 1035.5,-582 1041.5,-582 1041.5,-582 1192.5,-582 1192.5,-582 1198.5,-582 1204.5,-588 1204.5,-594 1204.5,-594 1204.5,-606 1204.5,-606 1204.5,-612 1198.5,-618 1192.5,-618"/>
<text text-anchor="middle" x="1117" y="-596.3" font-family="Times,serif" font-size="14.00">CASE Conversion Examples</text>
</a>
</g>
</g>
<!-- _GH__KCHASON__CASE_VALIDATION_ACTION&#45;&gt;_GH__CASEWORK__CASE_IMPLEMENTATON_PYPI_EXIFREAD -->
<g id="edge19" class="edge">
<title>_GH__KCHASON__CASE_VALIDATION_ACTION&#45;&gt;_GH__CASEWORK__CASE_IMPLEMENTATON_PYPI_EXIFREAD</title>
<path fill="none" stroke="black" d="M789.64,-630.41C797.36,-679.49 824.47,-809.49 902,-878 929.4,-902.21 955.44,-874.85 981,-901 990.65,-910.87 979.03,-921.46 989,-931 991.22,-933.12 993.56,-935.1 996,-936.94"/>
<polygon fill="black" stroke="black" points="993.41,-940.08 1003.68,-942.68 997.27,-934.24 993.41,-940.08"/>
<text text-anchor="middle" x="941.5" y="-919.8" font-family="Times,serif" font-size="14.00">GitHub</text>
<text text-anchor="middle" x="941.5" y="-904.8" font-family="Times,serif" font-size="14.00">Action</text>
</g>
<!-- _GH__KCHASON__CASE_VALIDATION_ACTION&#45;&gt;_GH__CASEWORK__CASE_IMPLEMENTATON_PYPI_PILLOW -->
<g id="edge20" class="edge">
<title>_GH__KCHASON__CASE_VALIDATION_ACTION&#45;&gt;_GH__CASEWORK__CASE_IMPLEMENTATON_PYPI_PILLOW</title>
<path fill="none" stroke="black" d="M791.86,-630.25C803.46,-672.17 836.76,-772.19 902,-825 930.42,-848.01 955.08,-822.2 981,-848 989.87,-856.83 979.84,-866.47 989,-875 992.63,-878.38 996.57,-881.39 1000.75,-884.06"/>
<polygon fill="black" stroke="black" points="998.79,-887.54 1009.22,-889.39 1002.22,-881.44 998.79,-887.54"/>
<text text-anchor="middle" x="941.5" y="-866.8" font-family="Times,serif" font-size="14.00">GitHub</text>
<text text-anchor="middle" x="941.5" y="-851.8" font-family="Times,serif" font-size="14.00">Action</text>
</g>
<!-- _GH__KCHASON__CASE_VALIDATION_ACTION&#45;&gt;_GH__CASEWORK__CASE_IMPLEMENTATON_UFED_XML -->
<g id="edge21" class="edge">
<title>_GH__KCHASON__CASE_VALIDATION_ACTION&#45;&gt;_GH__CASEWORK__CASE_IMPLEMENTATON_UFED_XML</title>
<path fill="none" stroke="black" d="M854.45,-623.52C906.08,-633.5 970.23,-646.95 981,-654 986.06,-657.31 984.47,-661 989,-665 1009.9,-683.44 1036.47,-699.01 1059.9,-710.76"/>
<polygon fill="black" stroke="black" points="1058.2,-714.32 1068.72,-715.56 1061.27,-708.03 1058.2,-714.32"/>
<text text-anchor="middle" x="941.5" y="-672.8" font-family="Times,serif" font-size="14.00">GitHub</text>
<text text-anchor="middle" x="941.5" y="-657.8" font-family="Times,serif" font-size="14.00">Action</text>
</g>
<!-- _GH__KCHASON__CASE_VALIDATION_ACTION&#45;&gt;_GH__CASEWORK__CASE_IMPLEMENTATON_XRY -->
<g id="edge22" class="edge">
<title>_GH__KCHASON__CASE_VALIDATION_ACTION&#45;&gt;_GH__CASEWORK__CASE_IMPLEMENTATON_XRY</title>
<path fill="none" stroke="black" d="M812.75,-630.35C835.3,-646.54 869.46,-669.29 902,-684 935.32,-699.06 957.03,-679.38 981,-707 997.48,-725.99 971.9,-744.57 989,-763 992.42,-766.68 996.2,-769.94 1000.26,-772.81"/>
<polygon fill="black" stroke="black" points="998.2,-776.27 1008.55,-778.51 1001.86,-770.3 998.2,-776.27"/>
<text text-anchor="middle" x="941.5" y="-725.8" font-family="Times,serif" font-size="14.00">GitHub</text>
<text text-anchor="middle" x="941.5" y="-710.8" font-family="Times,serif" font-size="14.00">Action</text>
</g>
<!-- _GH__KCHASON__CASE_VALIDATION_ACTION&#45;&gt;_GH__CASEWORK__CASE_MAPPING_TEMPLATE_PYTHON -->
<g id="edge23" class="edge">
<title>_GH__KCHASON__CASE_VALIDATION_ACTION&#45;&gt;_GH__CASEWORK__CASE_MAPPING_TEMPLATE_PYTHON</title>
<path fill="none" stroke="black" d="M795.5,-630.32C811.4,-664.22 848.91,-734.34 902,-772 931.83,-793.16 954.65,-769.64 981,-795 989.1,-802.8 980.64,-811.48 989,-819 993.96,-823.46 999.46,-827.27 1005.31,-830.51"/>
<polygon fill="black" stroke="black" points="1003.26,-833.89 1013.78,-835.15 1006.34,-827.6 1003.26,-833.89"/>
<text text-anchor="middle" x="941.5" y="-813.8" font-family="Times,serif" font-size="14.00">GitHub</text>
<text text-anchor="middle" x="941.5" y="-798.8" font-family="Times,serif" font-size="14.00">Action</text>
</g>
<!-- _GH__KCHASON__CASE_VALIDATION_ACTION&#45;&gt;_GH__CASEWORK__CASE_BINDINGS_CSHARP_MONITOR -->
<g id="edge17" class="edge">
<title>_GH__KCHASON__CASE_VALIDATION_ACTION&#45;&gt;_GH__CASEWORK__CASE_BINDINGS_CSHARP_MONITOR</title>
<path fill="none" stroke="black" d="M854.15,-606.57C865.54,-602.87 876.19,-597.03 884,-588 913.77,-553.58 870.44,-416.78 902,-384 926.55,-358.5 951.86,-394.08 981,-374 987.22,-369.71 982.52,-362.89 989,-359 1080.47,-304.12 1143.39,-295.37 1229,-359 1334.2,-437.19 1404.65,-867.02 1422.21,-985.02"/>
<polygon fill="black" stroke="black" points="1418.87,-985.37 1423.79,-994.75 1425.79,-984.35 1418.87,-985.37"/>
<text text-anchor="middle" x="1117" y="-377.8" font-family="Times,serif" font-size="14.00">GitHub</text>
<text text-anchor="middle" x="1117" y="-362.8" font-family="Times,serif" font-size="14.00">Action</text>
</g>
<!-- _GH__KCHASON__CASE_VALIDATION_ACTION&#45;&gt;_GH__CASEWORK__CASE_EXAMPLES_CONVERSION -->
<g id="edge18" class="edge">
<title>_GH__KCHASON__CASE_VALIDATION_ACTION&#45;&gt;_GH__CASEWORK__CASE_EXAMPLES_CONVERSION</title>
<path fill="none" stroke="black" d="M854.44,-604.2C870.04,-602.89 886.58,-601.71 902,-601 940,-599.26 981.84,-598.75 1018.37,-598.77"/>
<polygon fill="black" stroke="black" points="1018.01,-602.27 1028.02,-598.79 1018.02,-595.27 1018.01,-602.27"/>
<text text-anchor="middle" x="941.5" y="-619.8" font-family="Times,serif" font-size="14.00">GitHub</text>
<text text-anchor="middle" x="941.5" y="-604.8" font-family="Times,serif" font-size="14.00">Action</text>
</g>
<!-- _GH__DOD_CYBER_CRIME_CENTER__SQLITE_DISSECT -->
<g id="node26" class="node">
<title>_GH__DOD_CYBER_CRIME_CENTER__SQLITE_DISSECT</title>
<g id="a_node26"><a xlink:href="https://github.com/dod-cyber-crime-center/sqlite-dissect" xlink:title="sqlite&#45;dissect\nadopts new case&#45;validation&#45;action">
<path fill="#8ec7d2" stroke="#0d6986" d="M1205.5,-178C1205.5,-178 1028.5,-178 1028.5,-178 1022.5,-178 1016.5,-172 1016.5,-166 1016.5,-166 1016.5,-152 1016.5,-152 1016.5,-146 1022.5,-140 1028.5,-140 1028.5,-140 1205.5,-140 1205.5,-140 1211.5,-140 1217.5,-146 1217.5,-152 1217.5,-152 1217.5,-166 1217.5,-166 1217.5,-172 1211.5,-178 1205.5,-178"/>
<text text-anchor="middle" x="1117" y="-162.8" font-family="Times,serif" font-size="14.00">sqlite&#45;dissect</text>
<text text-anchor="middle" x="1117" y="-147.8" font-family="Times,serif" font-size="14.00">adopts new case&#45;validation&#45;action</text>
</a>
</g>
</g>
<!-- _GH__KCHASON__CASE_VALIDATION_ACTION&#45;&gt;_GH__DOD_CYBER_CRIME_CENTER__SQLITE_DISSECT -->
<g id="edge24" class="edge">
<title>_GH__KCHASON__CASE_VALIDATION_ACTION&#45;&gt;_GH__DOD_CYBER_CRIME_CENTER__SQLITE_DISSECT</title>
<g id="a_edge24"><a xlink:href="https://github.com/dod-cyber-crime-center/sqlite-dissect/pull/31" xlink:title="TODO: PR 31">
<path fill="none" stroke="black" d="M854.22,-606.63C865.6,-602.92 876.23,-597.07 884,-588 917.2,-549.23 879.85,-404.99 902,-359 939.91,-280.29 1023.32,-217.14 1074.09,-184.13"/>
<polygon fill="black" stroke="black" points="1075.63,-186.65 1082.17,-178.31 1071.86,-180.76 1075.63,-186.65"/>
</a>
</g>
<g id="a_edge24&#45;label"><a xlink:href="https://github.com/dod-cyber-crime-center/sqlite-dissect/pull/31" xlink:title="TODO: PR 31">
<text text-anchor="middle" x="941.5" y="-362.8" font-family="Times,serif" font-size="14.00">TODO: PR 31</text>
</a>
</g>
</g>
</g>
</svg>
