<?xml version="1.0" encoding="UTF-8" standalone="no"?>
<!DOCTYPE svg PUBLIC "-//W3C//DTD SVG 1.1//EN"
 "http://www.w3.org/Graphics/SVG/1.1/DTD/svg11.dtd">
<!-- Generated by graphviz version 8.0.3 (20230416.2022)
 -->
<!-- Title: cdo_release_flow Pages: 1 -->
<svg width="1668pt" height="1187pt"
 viewBox="0.00 0.00 1668.00 1187.00" xmlns="http://www.w3.org/2000/svg" xmlns:xlink="http://www.w3.org/1999/xlink">
<g id="graph0" class="graph" transform="scale(1 1) rotate(0) translate(4 1183)">
<title>cdo_release_flow</title>
<polygon fill="white" stroke="none" points="-4,4 -4,-1183 1664,-1183 1664,4 -4,4"/>
<text text-anchor="middle" x="830" y="-38.8" font-family="Times,serif" font-size="14.00">Release flow of CDO ontologies</text>
<text text-anchor="middle" x="830" y="-7.8" font-family="Times,serif" font-size="14.00">Nodes link to the respective Git repository.</text>
<g id="clust1" class="cluster">
<title>cluster_uco_0_9_1</title>
<polygon fill="none" stroke="black" points="0,-139 0,-255 168,-255 168,-139 0,-139"/>
<text text-anchor="middle" x="84" y="-239.8" font-family="Times,serif" font-size="14.00">Adoption of UCO 0.9.1</text>
</g>
<g id="clust2" class="cluster">
<title>cluster_case_0_7_1</title>
<polygon fill="none" stroke="black" points="8,-147 8,-224 160,-224 160,-147 8,-147"/>
<text text-anchor="middle" x="84" y="-208.8" font-family="Times,serif" font-size="14.00">Adoption of CASE 0.7.1</text>
</g>
<g id="clust3" class="cluster">
<title>cluster_uco_1_1_0</title>
<polygon fill="none" stroke="black" points="995,-100 995,-294 1283,-294 1283,-100 995,-100"/>
<text text-anchor="middle" x="1139" y="-278.8" font-family="Times,serif" font-size="14.00">Adoption of UCO 1.1.0</text>
</g>
<g id="clust4" class="cluster">
<title>cluster_case_1_1_0</title>
<polygon fill="none" stroke="black" points="1003,-108 1003,-263 1275,-263 1275,-108 1003,-108"/>
<text text-anchor="middle" x="1139" y="-247.8" font-family="Times,serif" font-size="14.00">Adoption of CASE 1.1.0</text>
</g>
<g id="clust5" class="cluster">
<title>cluster_case_utils_0_9_0</title>
<polygon fill="none" stroke="black" points="1011,-116 1011,-232 1267,-232 1267,-116 1011,-116"/>
<text text-anchor="middle" x="1139" y="-216.8" font-family="Times,serif" font-size="14.00">Adoption of case&#45;utils 0.9.0</text>
</g>
<g id="clust6" class="cluster">
<title>cluster_case_validation_action_2_5</title>
<polygon fill="none" stroke="black" points="1019,-124 1019,-201 1259,-201 1259,-124 1019,-124"/>
<text text-anchor="middle" x="1139" y="-185.8" font-family="Times,serif" font-size="14.00">Adoption of case&#45;validation&#45;action 2.5</text>
</g>
<g id="clust7" class="cluster">
<title>cluster_uco_1_2_0</title>
<polygon fill="none" stroke="black" points="26,-302 26,-1171 1652,-1171 1652,-302 26,-302"/>
<text text-anchor="middle" x="839" y="-1155.8" font-family="Times,serif" font-size="14.00">Adoption of UCO 1.2.0</text>
</g>
<g id="clust8" class="cluster">
<title>cluster_case_1_2_0</title>
<polygon fill="none" stroke="black" points="245.5,-419 245.5,-1140 1644,-1140 1644,-419 245.5,-419"/>
<text text-anchor="middle" x="944.75" y="-1124.8" font-family="Times,serif" font-size="14.00">Adoption of CASE 1.2.0</text>
</g>
<g id="clust13" class="cluster">
<title>cluster_case_utils_0_11_0</title>
<polygon fill="none" stroke="black" points="507,-1032 507,-1109 891,-1109 891,-1032 507,-1032"/>
<text text-anchor="middle" x="699" y="-1093.8" font-family="Times,serif" font-size="14.00">Adoption of case&#45;utils 0.11.0</text>
</g>
<g id="clust9" class="cluster">
<title>cluster_case_utils_0_10_0</title>
<polygon fill="none" stroke="black" points="672,-427 672,-989 1636,-989 1636,-427 672,-427"/>
<text text-anchor="middle" x="1154" y="-973.8" font-family="Times,serif" font-size="14.00">Adoption of case&#45;utils 0.10.0</text>
</g>
<g id="clust10" class="cluster">
<title>cluster_case_prov_0_7_0</title>
<polygon fill="none" stroke="black" points="1346,-881 1346,-958 1628,-958 1628,-881 1346,-881"/>
<text text-anchor="middle" x="1487" y="-942.8" font-family="Times,serif" font-size="14.00">Adoption of case&#45;prov 0.7.0</text>
</g>
<g id="clust11" class="cluster">
<title>cluster_case_validation_action_2_6</title>
<polygon fill="none" stroke="black" points="682.5,-481 682.5,-849 1280.5,-849 1280.5,-481 682.5,-481"/>
<text text-anchor="middle" x="981.5" y="-833.8" font-family="Times,serif" font-size="14.00">Adoption of case&#45;validation&#45;action 2.6</text>
</g>
<g id="clust12" class="cluster">
<title>cluster_case_bindings_csharp_0_4_0</title>
<polygon fill="none" stroke="black" points="690.5,-741 690.5,-818 1272.5,-818 1272.5,-741 690.5,-741"/>
<text text-anchor="middle" x="981.5" y="-802.8" font-family="Times,serif" font-size="14.00">Adoption of CSharp bindings 0.4.0</text>
</g>
<!-- _GH__CASEWORK__CASE_MAPPING_TEMPLATE_STUBS -->
<g id="node1" class="node">
<title>_GH__CASEWORK__CASE_MAPPING_TEMPLATE_STUBS</title>
<g id="a_node1"><a xlink:href="https://github.com/casework/CASE-Mapping-Template-Stubs" xlink:title="CASE Mapping\nTemplate Stubs">
<path fill="#8ec7d2" stroke="#0d6986" d="M124,-193C124,-193 44,-193 44,-193 38,-193 32,-187 32,-181 32,-181 32,-167 32,-167 32,-161 38,-155 44,-155 44,-155 124,-155 124,-155 130,-155 136,-161 136,-167 136,-167 136,-181 136,-181 136,-187 130,-193 124,-193"/>
<text text-anchor="middle" x="84" y="-177.8" font-family="Times,serif" font-size="14.00">CASE Mapping</text>
<text text-anchor="middle" x="84" y="-162.8" font-family="Times,serif" font-size="14.00">Template Stubs</text>
</a>
</g>
</g>
<!-- _GH__CASEWORK__CASE_IMPLEMENTATON_PYPI_EXIFREAD -->
<g id="node2" class="node">
<title>_GH__CASEWORK__CASE_IMPLEMENTATON_PYPI_EXIFREAD</title>
<g id="a_node2"><a xlink:href="https://github.com/casework/CASE-Implementation-PyPI-Exifread" xlink:title="CASE&#45;Implementation&#45;PyPI&#45;Exifread\nadopts new case&#45;validation&#45;action">
<path fill="#8ec7d2" stroke="#0d6986" d="M1239,-170C1239,-170 1039,-170 1039,-170 1033,-170 1027,-164 1027,-158 1027,-158 1027,-144 1027,-144 1027,-138 1033,-132 1039,-132 1039,-132 1239,-132 1239,-132 1245,-132 1251,-138 1251,-144 1251,-144 1251,-158 1251,-158 1251,-164 1245,-170 1239,-170"/>
<text text-anchor="middle" x="1139" y="-154.8" font-family="Times,serif" font-size="14.00">CASE&#45;Implementation&#45;PyPI&#45;Exifread</text>
<text text-anchor="middle" x="1139" y="-139.8" font-family="Times,serif" font-size="14.00">adopts new case&#45;validation&#45;action</text>
</a>
</g>
</g>
<!-- _GH__UCOPROJECT__ONTOLOGY_UNIFIEDCYBERONTOLOGY_ORG -->
<g id="node3" class="node">
<title>_GH__UCOPROJECT__ONTOLOGY_UNIFIEDCYBERONTOLOGY_ORG</title>
<g id="a_node3"><a xlink:href="https://github.com/ucoProject/ontology.unifiedcyberontology.org" xlink:title="UCO documentation\nregenerated">
<path fill="#8ec7d2" stroke="#0d6986" d="M359.5,-411C359.5,-411 253.5,-411 253.5,-411 247.5,-411 241.5,-405 241.5,-399 241.5,-399 241.5,-385 241.5,-385 241.5,-379 247.5,-373 253.5,-373 253.5,-373 359.5,-373 359.5,-373 365.5,-373 371.5,-379 371.5,-385 371.5,-385 371.5,-399 371.5,-399 371.5,-405 365.5,-411 359.5,-411"/>
<text text-anchor="middle" x="306.5" y="-395.8" font-family="Times,serif" font-size="14.00">UCO documentation</text>
<text text-anchor="middle" x="306.5" y="-380.8" font-family="Times,serif" font-size="14.00">regenerated</text>
</a>
</g>
</g>
<!-- _GH__CASEWORK__ONTOLOGY_CASEONTOLOGY_ORG -->
<g id="node9" class="node">
<title>_GH__CASEWORK__ONTOLOGY_CASEONTOLOGY_ORG</title>
<g id="a_node9"><a xlink:href="https://github.com/casework/ontology.caseontology.org" xlink:title="CASE documentation\nregenerated">
<path fill="#8ec7d2" stroke="#0d6986" d="M605,-496C605,-496 493,-496 493,-496 487,-496 481,-490 481,-484 481,-484 481,-470 481,-470 481,-464 487,-458 493,-458 493,-458 605,-458 605,-458 611,-458 617,-464 617,-470 617,-470 617,-484 617,-484 617,-490 611,-496 605,-496"/>
<text text-anchor="middle" x="549" y="-480.8" font-family="Times,serif" font-size="14.00">CASE documentation</text>
<text text-anchor="middle" x="549" y="-465.8" font-family="Times,serif" font-size="14.00">regenerated</text>
</a>
</g>
</g>
<!-- _GH__UCOPROJECT__ONTOLOGY_UNIFIEDCYBERONTOLOGY_ORG&#45;&gt;_GH__CASEWORK__ONTOLOGY_CASEONTOLOGY_ORG -->
<g id="edge23" class="edge">
<title>_GH__UCOPROJECT__ONTOLOGY_UNIFIEDCYBERONTOLOGY_ORG&#45;&gt;_GH__CASEWORK__ONTOLOGY_CASEONTOLOGY_ORG</title>
<path fill="none" stroke="black" d="M363.76,-411.38C367.23,-412.6 370.66,-413.81 374,-415 418.72,-430.88 431.69,-436.42 480.96,-453.95"/>
<polygon fill="black" stroke="black" points="479.72,-457.58 490.32,-457.62 482.06,-450.98 479.72,-457.58"/>
<text text-anchor="middle" x="427.5" y="-465.8" font-family="Times,serif" font-size="14.00">Tech&#45;</text>
<text text-anchor="middle" x="427.5" y="-450.8" font-family="Times,serif" font-size="14.00">check</text>
</g>
<!-- _GH__UCOPROJECT__UCO -->
<g id="node4" class="node">
<title>_GH__UCOPROJECT__UCO</title>
<g id="a_node4"><a xlink:href="https://github.com/ucoProject/UCO" xlink:title="UCO Ontology\nreleases">
<path fill="#8ec7d2" stroke="#0d6986" d="M122,-411C122,-411 46,-411 46,-411 40,-411 34,-405 34,-399 34,-399 34,-385 34,-385 34,-379 40,-373 46,-373 46,-373 122,-373 122,-373 128,-373 134,-379 134,-385 134,-385 134,-399 134,-399 134,-405 128,-411 122,-411"/>
<text text-anchor="middle" x="84" y="-395.8" font-family="Times,serif" font-size="14.00">UCO Ontology</text>
<text text-anchor="middle" x="84" y="-380.8" font-family="Times,serif" font-size="14.00">releases</text>
</a>
</g>
</g>
<!-- _GH__UCOPROJECT__UCO&#45;&gt;_GH__UCOPROJECT__ONTOLOGY_UNIFIEDCYBERONTOLOGY_ORG -->
<g id="edge25" class="edge">
<title>_GH__UCOPROJECT__UCO&#45;&gt;_GH__UCOPROJECT__ONTOLOGY_UNIFIEDCYBERONTOLOGY_ORG</title>
<path fill="none" stroke="black" d="M134.48,-392C162.65,-392 198.52,-392 230.12,-392"/>
<polygon fill="black" stroke="black" points="230.1,-395.5 240.1,-392 230.1,-388.5 230.1,-395.5"/>
<text text-anchor="middle" x="198.5" y="-410.8" font-family="Times,serif" font-size="14.00">Git sub&#45;</text>
<text text-anchor="middle" x="198.5" y="-395.8" font-family="Times,serif" font-size="14.00">module</text>
</g>
<!-- _GH__UCOPROJECT__UCO_PROFILE_EXAMPLE -->
<g id="node6" class="node">
<title>_GH__UCOPROJECT__UCO_PROFILE_EXAMPLE</title>
<g id="a_node6"><a xlink:href="https://github.com/ucoProject/UCO-Profile-Example" xlink:title="UCO example profile\nupdates">
<path fill="#8ec7d2" stroke="#0d6986" d="M362,-355C362,-355 251,-355 251,-355 245,-355 239,-349 239,-343 239,-343 239,-329 239,-329 239,-323 245,-317 251,-317 251,-317 362,-317 362,-317 368,-317 374,-323 374,-329 374,-329 374,-343 374,-343 374,-349 368,-355 362,-355"/>
<text text-anchor="middle" x="306.5" y="-339.8" font-family="Times,serif" font-size="14.00">UCO example profile</text>
<text text-anchor="middle" x="306.5" y="-324.8" font-family="Times,serif" font-size="14.00">updates</text>
</a>
</g>
</g>
<!-- _GH__UCOPROJECT__UCO&#45;&gt;_GH__UCOPROJECT__UCO_PROFILE_EXAMPLE -->
<g id="edge26" class="edge">
<title>_GH__UCOPROJECT__UCO&#45;&gt;_GH__UCOPROJECT__UCO_PROFILE_EXAMPLE</title>
<path fill="none" stroke="black" d="M131.68,-372.63C145.74,-367.32 161.34,-361.95 176,-358 192.69,-353.51 210.84,-349.75 228.13,-346.68"/>
<polygon fill="black" stroke="black" points="228.5,-350 237.76,-344.86 227.32,-343.1 228.5,-350"/>
<text text-anchor="middle" x="198.5" y="-376.8" font-family="Times,serif" font-size="14.00">Git sub&#45;</text>
<text text-anchor="middle" x="198.5" y="-361.8" font-family="Times,serif" font-size="14.00">module</text>
</g>
<!-- _GH__CASEWORK__CASE -->
<g id="node8" class="node">
<title>_GH__CASEWORK__CASE</title>
<g id="a_node8"><a xlink:href="https://github.com/casework/CASE" xlink:title="CASE Ontology\nreleases">
<path fill="#8ec7d2" stroke="#0d6986" d="M347.5,-600C347.5,-600 265.5,-600 265.5,-600 259.5,-600 253.5,-594 253.5,-588 253.5,-588 253.5,-574 253.5,-574 253.5,-568 259.5,-562 265.5,-562 265.5,-562 347.5,-562 347.5,-562 353.5,-562 359.5,-568 359.5,-574 359.5,-574 359.5,-588 359.5,-588 359.5,-594 353.5,-600 347.5,-600"/>
<text text-anchor="middle" x="306.5" y="-584.8" font-family="Times,serif" font-size="14.00">CASE Ontology</text>
<text text-anchor="middle" x="306.5" y="-569.8" font-family="Times,serif" font-size="14.00">releases</text>
</a>
</g>
</g>
<!-- _GH__UCOPROJECT__UCO&#45;&gt;_GH__CASEWORK__CASE -->
<g id="edge24" class="edge">
<title>_GH__UCOPROJECT__UCO&#45;&gt;_GH__CASEWORK__CASE</title>
<path fill="none" stroke="black" d="M97.96,-411.28C121.91,-445.52 176.44,-517.2 239,-558 240.51,-558.99 242.07,-559.94 243.67,-560.85"/>
<polygon fill="black" stroke="black" points="241.64,-564.25 252.14,-565.69 244.82,-558.02 241.64,-564.25"/>
<text text-anchor="middle" x="198.5" y="-561.8" font-family="Times,serif" font-size="14.00">Git sub&#45;</text>
<text text-anchor="middle" x="198.5" y="-546.8" font-family="Times,serif" font-size="14.00">module</text>
</g>
<!-- _GH__UCOPROJECT__UCO_PROFILE_BFO -->
<g id="node5" class="node">
<title>_GH__UCOPROJECT__UCO_PROFILE_BFO</title>
<g id="a_node5"><a xlink:href="https://github.com/ucoProject/UCO-Profile-BFO" xlink:title="UCO BFO profile\nupdates">
<path fill="#8ec7d2" stroke="#0d6986" d="M594.5,-404C594.5,-404 503.5,-404 503.5,-404 497.5,-404 491.5,-398 491.5,-392 491.5,-392 491.5,-378 491.5,-378 491.5,-372 497.5,-366 503.5,-366 503.5,-366 594.5,-366 594.5,-366 600.5,-366 606.5,-372 606.5,-378 606.5,-378 606.5,-392 606.5,-392 606.5,-398 600.5,-404 594.5,-404"/>
<text text-anchor="middle" x="549" y="-388.8" font-family="Times,serif" font-size="14.00">UCO BFO profile</text>
<text text-anchor="middle" x="549" y="-373.8" font-family="Times,serif" font-size="14.00">updates</text>
</a>
</g>
</g>
<!-- _GH__UCOPROJECT__UCO_PROFILE_EXAMPLE&#45;&gt;_GH__UCOPROJECT__UCO_PROFILE_BFO -->
<g id="edge27" class="edge">
<title>_GH__UCOPROJECT__UCO_PROFILE_EXAMPLE&#45;&gt;_GH__UCOPROJECT__UCO_PROFILE_BFO</title>
<path fill="none" stroke="black" d="M374.23,-354.83C380.22,-356.32 386.21,-357.73 392,-359 420.77,-365.3 452.82,-370.88 480.35,-375.24"/>
<polygon fill="black" stroke="black" points="479.63,-378.83 490.05,-376.92 480.71,-371.92 479.63,-378.83"/>
<text text-anchor="middle" x="427.5" y="-389.8" font-family="Times,serif" font-size="14.00">Git merge of</text>
<text text-anchor="middle" x="427.5" y="-374.8" font-family="Times,serif" font-size="14.00">base branch</text>
</g>
<!-- _GH__UCOPROJECT__UCO_PROFILE_FOAF -->
<g id="node7" class="node">
<title>_GH__UCOPROJECT__UCO_PROFILE_FOAF</title>
<g id="a_node7"><a xlink:href="https://github.com/ucoProject/UCO-Profile-FOAF" xlink:title="UCO FOAF profile\nupdates">
<path fill="#8ec7d2" stroke="#0d6986" d="M598.5,-348C598.5,-348 499.5,-348 499.5,-348 493.5,-348 487.5,-342 487.5,-336 487.5,-336 487.5,-322 487.5,-322 487.5,-316 493.5,-310 499.5,-310 499.5,-310 598.5,-310 598.5,-310 604.5,-310 610.5,-316 610.5,-322 610.5,-322 610.5,-336 610.5,-336 610.5,-342 604.5,-348 598.5,-348"/>
<text text-anchor="middle" x="549" y="-332.8" font-family="Times,serif" font-size="14.00">UCO FOAF profile</text>
<text text-anchor="middle" x="549" y="-317.8" font-family="Times,serif" font-size="14.00">updates</text>
</a>
</g>
</g>
<!-- _GH__UCOPROJECT__UCO_PROFILE_EXAMPLE&#45;&gt;_GH__UCOPROJECT__UCO_PROFILE_FOAF -->
<g id="edge28" class="edge">
<title>_GH__UCOPROJECT__UCO_PROFILE_EXAMPLE&#45;&gt;_GH__UCOPROJECT__UCO_PROFILE_FOAF</title>
<path fill="none" stroke="black" d="M374.35,-329.95C380.31,-329.56 386.26,-329.24 392,-329 419.59,-327.86 449.95,-327.63 476.49,-327.76"/>
<polygon fill="black" stroke="black" points="476.2,-331.27 486.23,-327.84 476.25,-324.27 476.2,-331.27"/>
<text text-anchor="middle" x="427.5" y="-347.8" font-family="Times,serif" font-size="14.00">Git merge of</text>
<text text-anchor="middle" x="427.5" y="-332.8" font-family="Times,serif" font-size="14.00">base branch</text>
</g>
<!-- _GH__CASEWORK__CASE&#45;&gt;_GH__CASEWORK__ONTOLOGY_CASEONTOLOGY_ORG -->
<g id="edge4" class="edge">
<title>_GH__CASEWORK__CASE&#45;&gt;_GH__CASEWORK__ONTOLOGY_CASEONTOLOGY_ORG</title>
<path fill="none" stroke="black" d="M359.96,-563.42C364.73,-561.65 369.47,-559.83 374,-558 417.16,-540.55 465.03,-518.02 499.62,-501.15"/>
<polygon fill="black" stroke="black" points="501.02,-503.88 508.46,-496.33 497.94,-497.59 501.02,-503.88"/>
<text text-anchor="middle" x="427.5" y="-568.8" font-family="Times,serif" font-size="14.00">Git sub&#45;</text>
<text text-anchor="middle" x="427.5" y="-553.8" font-family="Times,serif" font-size="14.00">module</text>
</g>
<!-- _GH__CIPHERTECHSOLUTIONS__CASE_BINDINGS_CSHARP -->
<g id="node22" class="node">
<title>_GH__CIPHERTECHSOLUTIONS__CASE_BINDINGS_CSHARP</title>
<g id="a_node22"><a xlink:href="https://github.com/ciphertechsolutions/CASE-Bindings-CSharp" xlink:title="CASE&#45;Bindings&#45;CSharp\nadopts new ontology version">
<path fill="#8ec7d2" stroke="#0d6986" d="M859.5,-787C859.5,-787 710.5,-787 710.5,-787 704.5,-787 698.5,-781 698.5,-775 698.5,-775 698.5,-761 698.5,-761 698.5,-755 704.5,-749 710.5,-749 710.5,-749 859.5,-749 859.5,-749 865.5,-749 871.5,-755 871.5,-761 871.5,-761 871.5,-775 871.5,-775 871.5,-781 865.5,-787 859.5,-787"/>
<text text-anchor="middle" x="785" y="-771.8" font-family="Times,serif" font-size="14.00">CASE&#45;Bindings&#45;CSharp</text>
<text text-anchor="middle" x="785" y="-756.8" font-family="Times,serif" font-size="14.00">adopts new ontology version</text>
</a>
</g>
</g>
<!-- _GH__CASEWORK__CASE&#45;&gt;_GH__CIPHERTECHSOLUTIONS__CASE_BINDINGS_CSHARP -->
<g id="edge3" class="edge">
<title>_GH__CASEWORK__CASE&#45;&gt;_GH__CIPHERTECHSOLUTIONS__CASE_BINDINGS_CSHARP</title>
<path fill="none" stroke="black" d="M359.78,-585.51C448.34,-594.28 622.13,-616.78 662,-661 687.17,-688.92 646.56,-717.32 672,-745 676.72,-750.13 682.25,-754.29 688.28,-757.64"/>
<polygon fill="black" stroke="black" points="686.58,-761.18 697.12,-762.27 689.56,-754.85 686.58,-761.18"/>
</g>
<!-- _GH__CASEWORK__CASE_UTILITIES_PYTHON -->
<g id="node24" class="node">
<title>_GH__CASEWORK__CASE_UTILITIES_PYTHON</title>
<g id="a_node24"><a xlink:href="https://github.com/casework/CASE-Utilities-Python" xlink:title="case&#45;utils\nreleases">
<path fill="#8ec7d2" stroke="#0d6986" d="M571,-1078C571,-1078 527,-1078 527,-1078 521,-1078 515,-1072 515,-1066 515,-1066 515,-1052 515,-1052 515,-1046 521,-1040 527,-1040 527,-1040 571,-1040 571,-1040 577,-1040 583,-1046 583,-1052 583,-1052 583,-1066 583,-1066 583,-1072 577,-1078 571,-1078"/>
<text text-anchor="middle" x="549" y="-1062.8" font-family="Times,serif" font-size="14.00">case&#45;utils</text>
<text text-anchor="middle" x="549" y="-1047.8" font-family="Times,serif" font-size="14.00">releases</text>
</a>
</g>
</g>
<!-- _GH__CASEWORK__CASE&#45;&gt;_GH__CASEWORK__CASE_UTILITIES_PYTHON -->
<g id="edge2" class="edge">
<title>_GH__CASEWORK__CASE&#45;&gt;_GH__CASEWORK__CASE_UTILITIES_PYTHON</title>
<path fill="none" stroke="black" d="M309.12,-600.1C316,-669.12 348.81,-908.18 481,-1036 487.47,-1042.26 495.73,-1046.82 504.21,-1050.14"/>
<polygon fill="black" stroke="black" points="502.97,-1053.75 513.57,-1053.61 505.2,-1047.12 502.97,-1053.75"/>
<text text-anchor="middle" x="427.5" y="-1035.8" font-family="Times,serif" font-size="14.00">Git sub&#45;</text>
<text text-anchor="middle" x="427.5" y="-1020.8" font-family="Times,serif" font-size="14.00">module</text>
</g>
<!-- _GH__AJNELSON_NIST__CASE_EXAMPLES_QC -->
<g id="node10" class="node">
<title>_GH__AJNELSON_NIST__CASE_EXAMPLES_QC</title>
<g id="a_node10"><a xlink:href="https://github.com/ajnelson-nist/CASE-Examples-QC" xlink:title="CASE&#45;Examples&#45;QC\nadopts CASE&#45;Examples and\nCASE website updates">
<path fill="#8ec7d2" stroke="#0d6986" d="M1213,-944.5C1213,-944.5 1065,-944.5 1065,-944.5 1059,-944.5 1053,-938.5 1053,-932.5 1053,-932.5 1053,-903.5 1053,-903.5 1053,-897.5 1059,-891.5 1065,-891.5 1065,-891.5 1213,-891.5 1213,-891.5 1219,-891.5 1225,-897.5 1225,-903.5 1225,-903.5 1225,-932.5 1225,-932.5 1225,-938.5 1219,-944.5 1213,-944.5"/>
<text text-anchor="middle" x="1139" y="-929.3" font-family="Times,serif" font-size="14.00">CASE&#45;Examples&#45;QC</text>
<text text-anchor="middle" x="1139" y="-914.3" font-family="Times,serif" font-size="14.00">adopts CASE&#45;Examples and</text>
<text text-anchor="middle" x="1139" y="-899.3" font-family="Times,serif" font-size="14.00">CASE website updates</text>
</a>
</g>
</g>
<!-- _GH__CASEWORK__CASE_IMPLEMENTATON_PROV_O -->
<g id="node15" class="node">
<title>_GH__CASEWORK__CASE_IMPLEMENTATON_PROV_O</title>
<g id="a_node15"><a xlink:href="https://github.com/casework/CASE-Implementation-PROV-O" xlink:title="case&#45;prov\nreleases">
<path fill="#8ec7d2" stroke="#0d6986" d="M1411,-927C1411,-927 1366,-927 1366,-927 1360,-927 1354,-921 1354,-915 1354,-915 1354,-901 1354,-901 1354,-895 1360,-889 1366,-889 1366,-889 1411,-889 1411,-889 1417,-889 1423,-895 1423,-901 1423,-901 1423,-915 1423,-915 1423,-921 1417,-927 1411,-927"/>
<text text-anchor="middle" x="1388.5" y="-911.8" font-family="Times,serif" font-size="14.00">case&#45;prov</text>
<text text-anchor="middle" x="1388.5" y="-896.8" font-family="Times,serif" font-size="14.00">releases</text>
</a>
</g>
</g>
<!-- _GH__AJNELSON_NIST__CASE_EXAMPLES_QC&#45;&gt;_GH__CASEWORK__CASE_IMPLEMENTATON_PROV_O -->
<g id="edge1" class="edge">
<title>_GH__AJNELSON_NIST__CASE_EXAMPLES_QC&#45;&gt;_GH__CASEWORK__CASE_IMPLEMENTATON_PROV_O</title>
<path fill="none" stroke="black" d="M1225.18,-914.56C1264.87,-912.95 1310.46,-911.11 1343.19,-909.79"/>
<polygon fill="black" stroke="black" points="1342.92,-913.26 1352.77,-909.36 1342.64,-906.27 1342.92,-913.26"/>
<text text-anchor="middle" x="1313.5" y="-929.8" font-family="Times,serif" font-size="14.00">Git sub&#45;</text>
<text text-anchor="middle" x="1313.5" y="-914.8" font-family="Times,serif" font-size="14.00">module</text>
</g>
<!-- _GH__CASEWORK__CASE_EXAMPLES -->
<g id="node11" class="node">
<title>_GH__CASEWORK__CASE_EXAMPLES</title>
<g id="a_node11"><a xlink:href="https://github.com/casework/CASE-Examples" xlink:title="CASE&#45;Examples\nadopts new case&#45;utils">
<path fill="#8ec7d2" stroke="#0d6986" d="M839.5,-895C839.5,-895 730.5,-895 730.5,-895 724.5,-895 718.5,-889 718.5,-883 718.5,-883 718.5,-869 718.5,-869 718.5,-863 724.5,-857 730.5,-857 730.5,-857 839.5,-857 839.5,-857 845.5,-857 851.5,-863 851.5,-869 851.5,-869 851.5,-883 851.5,-883 851.5,-889 845.5,-895 839.5,-895"/>
<text text-anchor="middle" x="785" y="-879.8" font-family="Times,serif" font-size="14.00">CASE&#45;Examples</text>
<text text-anchor="middle" x="785" y="-864.8" font-family="Times,serif" font-size="14.00">adopts new case&#45;utils</text>
</a>
</g>
</g>
<!-- _GH__CASEWORK__CASE_EXAMPLES&#45;&gt;_GH__AJNELSON_NIST__CASE_EXAMPLES_QC -->
<g id="edge5" class="edge">
<title>_GH__CASEWORK__CASE_EXAMPLES&#45;&gt;_GH__AJNELSON_NIST__CASE_EXAMPLES_QC</title>
<path fill="none" stroke="black" d="M851.82,-878.69C891.15,-880.77 942.06,-884.29 987,-890 1004.91,-892.28 1023.91,-895.31 1042.17,-898.54"/>
<polygon fill="black" stroke="black" points="1041.36,-902.13 1051.82,-900.45 1042.6,-895.24 1041.36,-902.13"/>
<text text-anchor="middle" x="947.5" y="-908.8" font-family="Times,serif" font-size="14.00">Git sub&#45;</text>
<text text-anchor="middle" x="947.5" y="-893.8" font-family="Times,serif" font-size="14.00">module</text>
</g>
<!-- _GH__CASEWORK__CASE_IMPLEMENTATON_GNU_TIME -->
<g id="node12" class="node">
<title>_GH__CASEWORK__CASE_IMPLEMENTATON_GNU_TIME</title>
<g id="a_node12"><a xlink:href="https://github.com/casework/CASE-Implementation-GNU-Time" xlink:title="CASE&#45;Implementation&#45;GNU&#45;Time\nadopts new case&#45;utils">
<path fill="#8ec7d2" stroke="#0d6986" d="M878,-473C878,-473 692,-473 692,-473 686,-473 680,-467 680,-461 680,-461 680,-447 680,-447 680,-441 686,-435 692,-435 692,-435 878,-435 878,-435 884,-435 890,-441 890,-447 890,-447 890,-461 890,-461 890,-467 884,-473 878,-473"/>
<text text-anchor="middle" x="785" y="-457.8" font-family="Times,serif" font-size="14.00">CASE&#45;Implementation&#45;GNU&#45;Time</text>
<text text-anchor="middle" x="785" y="-442.8" font-family="Times,serif" font-size="14.00">adopts new case&#45;utils</text>
</a>
</g>
</g>
<!-- _GH__CASEWORK__CASEWORK_GITHUB_IO -->
<g id="node13" class="node">
<title>_GH__CASEWORK__CASEWORK_GITHUB_IO</title>
<g id="a_node13"><a xlink:href="https://github.com/casework/casework.github.io" xlink:title="CASE website\nadopts new case&#45;utils">
<path fill="#8ec7d2" stroke="#0d6986" d="M839.5,-951C839.5,-951 730.5,-951 730.5,-951 724.5,-951 718.5,-945 718.5,-939 718.5,-939 718.5,-925 718.5,-925 718.5,-919 724.5,-913 730.5,-913 730.5,-913 839.5,-913 839.5,-913 845.5,-913 851.5,-919 851.5,-925 851.5,-925 851.5,-939 851.5,-939 851.5,-945 845.5,-951 839.5,-951"/>
<text text-anchor="middle" x="785" y="-935.8" font-family="Times,serif" font-size="14.00">CASE website</text>
<text text-anchor="middle" x="785" y="-920.8" font-family="Times,serif" font-size="14.00">adopts new case&#45;utils</text>
</a>
</g>
</g>
<!-- _GH__CASEWORK__CASEWORK_GITHUB_IO&#45;&gt;_GH__AJNELSON_NIST__CASE_EXAMPLES_QC -->
<g id="edge14" class="edge">
<title>_GH__CASEWORK__CASEWORK_GITHUB_IO&#45;&gt;_GH__AJNELSON_NIST__CASE_EXAMPLES_QC</title>
<path fill="none" stroke="black" d="M851.8,-929.38C905.29,-927.26 981.53,-924.22 1041.86,-921.82"/>
<polygon fill="black" stroke="black" points="1041.7,-925.29 1051.55,-921.4 1041.42,-918.3 1041.7,-925.29"/>
<text text-anchor="middle" x="947.5" y="-945.8" font-family="Times,serif" font-size="14.00">Git sub&#45;</text>
<text text-anchor="middle" x="947.5" y="-930.8" font-family="Times,serif" font-size="14.00">module</text>
</g>
<!-- _GH__CASEWORK__CASE_CORPORA -->
<g id="node14" class="node">
<title>_GH__CASEWORK__CASE_CORPORA</title>
<g id="a_node14"><a xlink:href="https://github.com/casework/CASE-Corpora" xlink:title="CASE&#45;Corpora\nadopts new case&#45;prov">
<path fill="#8ec7d2" stroke="#0d6986" d="M1608,-927C1608,-927 1498,-927 1498,-927 1492,-927 1486,-921 1486,-915 1486,-915 1486,-901 1486,-901 1486,-895 1492,-889 1498,-889 1498,-889 1608,-889 1608,-889 1614,-889 1620,-895 1620,-901 1620,-901 1620,-915 1620,-915 1620,-921 1614,-927 1608,-927"/>
<text text-anchor="middle" x="1553" y="-911.8" font-family="Times,serif" font-size="14.00">CASE&#45;Corpora</text>
<text text-anchor="middle" x="1553" y="-896.8" font-family="Times,serif" font-size="14.00">adopts new case&#45;prov</text>
</a>
</g>
</g>
<!-- _GH__CASEWORK__CASE_IMPLEMENTATON_PROV_O&#45;&gt;_GH__CASEWORK__CASE_CORPORA -->
<g id="edge6" class="edge">
<title>_GH__CASEWORK__CASE_IMPLEMENTATON_PROV_O&#45;&gt;_GH__CASEWORK__CASE_CORPORA</title>
<path fill="none" stroke="black" d="M1423.17,-908C1438.18,-908 1456.52,-908 1474.62,-908"/>
<polygon fill="black" stroke="black" points="1474.51,-911.5 1484.51,-908 1474.51,-904.5 1474.51,-911.5"/>
<text text-anchor="middle" x="1454.5" y="-911.8" font-family="Times,serif" font-size="14.00">PyPI</text>
</g>
<!-- _GH__CASEWORK__CASE_IMPLEMENTATON_PYPI_PILLOW -->
<g id="node16" class="node">
<title>_GH__CASEWORK__CASE_IMPLEMENTATON_PYPI_PILLOW</title>
<g id="a_node16"><a xlink:href="https://github.com/casework/CASE-Implementation-PyPI-Pillow" xlink:title="CASE&#45;Implementation&#45;PyPI&#45;Pillow\nadopts new case&#45;validation&#45;action">
<path fill="#8ec7d2" stroke="#0d6986" d="M1233.5,-639C1233.5,-639 1044.5,-639 1044.5,-639 1038.5,-639 1032.5,-633 1032.5,-627 1032.5,-627 1032.5,-613 1032.5,-613 1032.5,-607 1038.5,-601 1044.5,-601 1044.5,-601 1233.5,-601 1233.5,-601 1239.5,-601 1245.5,-607 1245.5,-613 1245.5,-613 1245.5,-627 1245.5,-627 1245.5,-633 1239.5,-639 1233.5,-639"/>
<text text-anchor="middle" x="1139" y="-623.8" font-family="Times,serif" font-size="14.00">CASE&#45;Implementation&#45;PyPI&#45;Pillow</text>
<text text-anchor="middle" x="1139" y="-608.8" font-family="Times,serif" font-size="14.00">adopts new case&#45;validation&#45;action</text>
</a>
</g>
</g>
<!-- _GH__CASEWORK__CASE_IMPLEMENTATON_UFED_XML -->
<g id="node17" class="node">
<title>_GH__CASEWORK__CASE_IMPLEMENTATON_UFED_XML</title>
<g id="a_node17"><a xlink:href="https://github.com/casework/CASE-Implementation-UFED-XML" xlink:title="CASE&#45;Implementation&#45;UFED&#45;XML\nadopts new case&#45;validation&#45;action">
<path fill="#8ec7d2" stroke="#0d6986" d="M1236,-695C1236,-695 1042,-695 1042,-695 1036,-695 1030,-689 1030,-683 1030,-683 1030,-669 1030,-669 1030,-663 1036,-657 1042,-657 1042,-657 1236,-657 1236,-657 1242,-657 1248,-663 1248,-669 1248,-669 1248,-683 1248,-683 1248,-689 1242,-695 1236,-695"/>
<text text-anchor="middle" x="1139" y="-679.8" font-family="Times,serif" font-size="14.00">CASE&#45;Implementation&#45;UFED&#45;XML</text>
<text text-anchor="middle" x="1139" y="-664.8" font-family="Times,serif" font-size="14.00">adopts new case&#45;validation&#45;action</text>
</a>
</g>
</g>
<!-- _GH__CASEWORK__CASE_IMPLEMENTATON_XRY -->
<g id="node18" class="node">
<title>_GH__CASEWORK__CASE_IMPLEMENTATON_XRY</title>
<g id="a_node18"><a xlink:href="https://github.com/casework/CASE-Implementation-XRY" xlink:title="CASE&#45;Implementation&#45;XRY adopts\nnew case&#45;validation&#45;action">
<path fill="#8ec7d2" stroke="#0d6986" d="M1234,-527C1234,-527 1044,-527 1044,-527 1038,-527 1032,-521 1032,-515 1032,-515 1032,-501 1032,-501 1032,-495 1038,-489 1044,-489 1044,-489 1234,-489 1234,-489 1240,-489 1246,-495 1246,-501 1246,-501 1246,-515 1246,-515 1246,-521 1240,-527 1234,-527"/>
<text text-anchor="middle" x="1139" y="-511.8" font-family="Times,serif" font-size="14.00">CASE&#45;Implementation&#45;XRY adopts</text>
<text text-anchor="middle" x="1139" y="-496.8" font-family="Times,serif" font-size="14.00">new case&#45;validation&#45;action</text>
</a>
</g>
</g>
<!-- _GH__CASEWORK__CASE_MAPPING_TEMPLATE_PYTHON -->
<g id="node19" class="node">
<title>_GH__CASEWORK__CASE_MAPPING_TEMPLATE_PYTHON</title>
<g id="a_node19"><a xlink:href="https://github.com/casework/CASE-Mapping-Template-Python" xlink:title="CASE&#45;Mapping&#45;Template&#45;Python\nadopts new case&#45;validation&#45;action">
<path fill="#8ec7d2" stroke="#0d6986" d="M1229,-583C1229,-583 1049,-583 1049,-583 1043,-583 1037,-577 1037,-571 1037,-571 1037,-557 1037,-557 1037,-551 1043,-545 1049,-545 1049,-545 1229,-545 1229,-545 1235,-545 1241,-551 1241,-557 1241,-557 1241,-571 1241,-571 1241,-577 1235,-583 1229,-583"/>
<text text-anchor="middle" x="1139" y="-567.8" font-family="Times,serif" font-size="14.00">CASE&#45;Mapping&#45;Template&#45;Python</text>
<text text-anchor="middle" x="1139" y="-552.8" font-family="Times,serif" font-size="14.00">adopts new case&#45;validation&#45;action</text>
</a>
</g>
</g>
<!-- _GH__KCHASON__CASE_VALIDATION_ACTION -->
<g id="node20" class="node">
<title>_GH__KCHASON__CASE_VALIDATION_ACTION</title>
<g id="a_node20"><a xlink:href="https://github.com/kchason/case-validation-action" xlink:title="case&#45;validation&#45;action\nreleases">
<path fill="#8ec7d2" stroke="#0d6986" d="M841,-628C841,-628 729,-628 729,-628 723,-628 717,-622 717,-616 717,-616 717,-602 717,-602 717,-596 723,-590 729,-590 729,-590 841,-590 841,-590 847,-590 853,-596 853,-602 853,-602 853,-616 853,-616 853,-622 847,-628 841,-628"/>
<text text-anchor="middle" x="785" y="-612.8" font-family="Times,serif" font-size="14.00">case&#45;validation&#45;action</text>
<text text-anchor="middle" x="785" y="-597.8" font-family="Times,serif" font-size="14.00">releases</text>
</a>
</g>
</g>
<!-- _GH__KCHASON__CASE_VALIDATION_ACTION&#45;&gt;_GH__CASEWORK__CASE_IMPLEMENTATON_PYPI_EXIFREAD -->
<g id="edge17" class="edge">
<title>_GH__KCHASON__CASE_VALIDATION_ACTION&#45;&gt;_GH__CASEWORK__CASE_IMPLEMENTATON_PYPI_EXIFREAD</title>
<path fill="none" stroke="black" d="M853.37,-606.61C867.52,-603.01 881.12,-596.69 891,-586 928.74,-545.14 887.03,-513.52 908,-462 956.42,-343.03 1060.88,-228.23 1110.61,-177.78"/>
<polygon fill="black" stroke="black" points="1112.53,-180.8 1117.1,-171.24 1107.57,-175.87 1112.53,-180.8"/>
<text text-anchor="middle" x="947.5" y="-480.8" font-family="Times,serif" font-size="14.00">GitHub</text>
<text text-anchor="middle" x="947.5" y="-465.8" font-family="Times,serif" font-size="14.00">Action</text>
</g>
<!-- _GH__KCHASON__CASE_VALIDATION_ACTION&#45;&gt;_GH__CASEWORK__CASE_IMPLEMENTATON_PYPI_PILLOW -->
<g id="edge18" class="edge">
<title>_GH__KCHASON__CASE_VALIDATION_ACTION&#45;&gt;_GH__CASEWORK__CASE_IMPLEMENTATON_PYPI_PILLOW</title>
<path fill="none" stroke="black" d="M853.47,-610.43C892.49,-611.32 942.52,-612.56 987,-614 998.24,-614.36 1009.96,-614.77 1021.66,-615.2"/>
<polygon fill="black" stroke="black" points="1021.28,-618.73 1031.4,-615.6 1021.54,-611.73 1021.28,-618.73"/>
<text text-anchor="middle" x="947.5" y="-632.8" font-family="Times,serif" font-size="14.00">GitHub</text>
<text text-anchor="middle" x="947.5" y="-617.8" font-family="Times,serif" font-size="14.00">Action</text>
</g>
<!-- _GH__KCHASON__CASE_VALIDATION_ACTION&#45;&gt;_GH__CASEWORK__CASE_IMPLEMENTATON_UFED_XML -->
<g id="edge19" class="edge">
<title>_GH__KCHASON__CASE_VALIDATION_ACTION&#45;&gt;_GH__CASEWORK__CASE_IMPLEMENTATON_UFED_XML</title>
<path fill="none" stroke="black" d="M847.33,-628.42C866.6,-634.03 888.06,-639.77 908,-644 943.81,-651.59 983.14,-657.82 1019,-662.7"/>
<polygon fill="black" stroke="black" points="1018.14,-666.25 1028.51,-664.11 1019.07,-659.31 1018.14,-666.25"/>
<text text-anchor="middle" x="947.5" y="-675.8" font-family="Times,serif" font-size="14.00">GitHub</text>
<text text-anchor="middle" x="947.5" y="-660.8" font-family="Times,serif" font-size="14.00">Action</text>
</g>
<!-- _GH__KCHASON__CASE_VALIDATION_ACTION&#45;&gt;_GH__CASEWORK__CASE_IMPLEMENTATON_XRY -->
<g id="edge20" class="edge">
<title>_GH__KCHASON__CASE_VALIDATION_ACTION&#45;&gt;_GH__CASEWORK__CASE_IMPLEMENTATON_XRY</title>
<path fill="none" stroke="black" d="M853.32,-605.19C867.13,-601.6 880.61,-595.65 891,-586 910.37,-568.01 887.54,-545.75 908,-529 939.12,-503.52 981.16,-494.79 1020.79,-493.58"/>
<polygon fill="black" stroke="black" points="1020.67,-497.07 1030.62,-493.44 1020.57,-490.07 1020.67,-497.07"/>
<text text-anchor="middle" x="947.5" y="-547.8" font-family="Times,serif" font-size="14.00">GitHub</text>
<text text-anchor="middle" x="947.5" y="-532.8" font-family="Times,serif" font-size="14.00">Action</text>
</g>
<!-- _GH__KCHASON__CASE_VALIDATION_ACTION&#45;&gt;_GH__CASEWORK__CASE_MAPPING_TEMPLATE_PYTHON -->
<g id="edge21" class="edge">
<title>_GH__KCHASON__CASE_VALIDATION_ACTION&#45;&gt;_GH__CASEWORK__CASE_MAPPING_TEMPLATE_PYTHON</title>
<path fill="none" stroke="black" d="M853.43,-597.07C866.09,-594.04 879.09,-590.37 891,-586 899.03,-583.06 899.76,-579.29 908,-577 945.59,-566.53 987.94,-562.15 1025.96,-560.74"/>
<polygon fill="black" stroke="black" points="1025.67,-564.22 1035.56,-560.42 1025.46,-557.23 1025.67,-564.22"/>
<text text-anchor="middle" x="947.5" y="-595.8" font-family="Times,serif" font-size="14.00">GitHub</text>
<text text-anchor="middle" x="947.5" y="-580.8" font-family="Times,serif" font-size="14.00">Action</text>
</g>
<!-- _GH__CASEWORK__CASE_BINDINGS_CSHARP_MONITOR -->
<g id="node21" class="node">
<title>_GH__CASEWORK__CASE_BINDINGS_CSHARP_MONITOR</title>
<g id="a_node21"><a xlink:href="https://github.com/casework/CASE-Bindings-CSharp-Monitor" xlink:title="CASE Bindings CSharp Monitor\ntests NuGet package with validation action">
<path fill="#8ec7d2" stroke="#0d6986" d="M1252.5,-787C1252.5,-787 1025.5,-787 1025.5,-787 1019.5,-787 1013.5,-781 1013.5,-775 1013.5,-775 1013.5,-761 1013.5,-761 1013.5,-755 1019.5,-749 1025.5,-749 1025.5,-749 1252.5,-749 1252.5,-749 1258.5,-749 1264.5,-755 1264.5,-761 1264.5,-761 1264.5,-775 1264.5,-775 1264.5,-781 1258.5,-787 1252.5,-787"/>
<text text-anchor="middle" x="1139" y="-771.8" font-family="Times,serif" font-size="14.00">CASE Bindings CSharp Monitor</text>
<text text-anchor="middle" x="1139" y="-756.8" font-family="Times,serif" font-size="14.00">tests NuGet package with validation action</text>
</a>
</g>
</g>
<!-- _GH__KCHASON__CASE_VALIDATION_ACTION&#45;&gt;_GH__CASEWORK__CASE_BINDINGS_CSHARP_MONITOR -->
<g id="edge16" class="edge">
<title>_GH__KCHASON__CASE_VALIDATION_ACTION&#45;&gt;_GH__CASEWORK__CASE_BINDINGS_CSHARP_MONITOR</title>
<path fill="none" stroke="black" d="M813.05,-628.47C837.4,-645.68 874.41,-671.08 908,-691 942.03,-711.18 958.03,-705.07 987,-732 991.97,-736.62 989.36,-741.23 995,-745 997.78,-746.86 1000.67,-748.59 1003.63,-750.2"/>
<polygon fill="black" stroke="black" points="1001.81,-753.69 1012.34,-754.92 1004.88,-747.4 1001.81,-753.69"/>
<text text-anchor="middle" x="947.5" y="-750.8" font-family="Times,serif" font-size="14.00">GitHub</text>
<text text-anchor="middle" x="947.5" y="-735.8" font-family="Times,serif" font-size="14.00">Action</text>
</g>
<!-- _GH__DOD_CYBER_CRIME_CENTER__SQLITE_DISSECT -->
<g id="node25" class="node">
<title>_GH__DOD_CYBER_CRIME_CENTER__SQLITE_DISSECT</title>
<g id="a_node25"><a xlink:href="https://github.com/dod-cyber-crime-center/sqlite-dissect" xlink:title="sqlite&#45;dissect\nadopts new case&#45;validation&#45;action">
<path fill="#8ec7d2" stroke="#0d6986" d="M1227.5,-92C1227.5,-92 1050.5,-92 1050.5,-92 1044.5,-92 1038.5,-86 1038.5,-80 1038.5,-80 1038.5,-66 1038.5,-66 1038.5,-60 1044.5,-54 1050.5,-54 1050.5,-54 1227.5,-54 1227.5,-54 1233.5,-54 1239.5,-60 1239.5,-66 1239.5,-66 1239.5,-80 1239.5,-80 1239.5,-86 1233.5,-92 1227.5,-92"/>
<text text-anchor="middle" x="1139" y="-76.8" font-family="Times,serif" font-size="14.00">sqlite&#45;dissect</text>
<text text-anchor="middle" x="1139" y="-61.8" font-family="Times,serif" font-size="14.00">adopts new case&#45;validation&#45;action</text>
</a>
</g>
</g>
<!-- _GH__KCHASON__CASE_VALIDATION_ACTION&#45;&gt;_GH__DOD_CYBER_CRIME_CENTER__SQLITE_DISSECT -->
<g id="edge22" class="edge">
<title>_GH__KCHASON__CASE_VALIDATION_ACTION&#45;&gt;_GH__DOD_CYBER_CRIME_CENTER__SQLITE_DISSECT</title>
<g id="a_edge22"><a xlink:href="https://github.com/dod-cyber-crime-center/sqlite-dissect/pull/31" xlink:title="TODO: PR 31">
<path fill="none" stroke="black" d="M853.43,-607.28C867.75,-603.68 881.42,-597.2 891,-586 911.34,-562.23 900.26,-335.31 908,-305 930.48,-216.96 926.95,-180.21 995,-120 1005.87,-110.38 1018.75,-102.73 1032.25,-96.64"/>
<polygon fill="black" stroke="black" points="1033.32,-99.57 1041.18,-92.47 1030.61,-93.11 1033.32,-99.57"/>
</a>
</g>
<g id="a_edge22&#45;label"><a xlink:href="https://github.com/dod-cyber-crime-center/sqlite-dissect/pull/31" xlink:title="TODO: PR 31">
<text text-anchor="middle" x="947.5" y="-308.8" font-family="Times,serif" font-size="14.00">TODO: PR 31</text>
</a>
</g>
</g>
<!-- _GH__CIPHERTECHSOLUTIONS__CASE_BINDINGS_CSHARP&#45;&gt;_GH__CASEWORK__CASE_BINDINGS_CSHARP_MONITOR -->
<g id="edge15" class="edge">
<title>_GH__CIPHERTECHSOLUTIONS__CASE_BINDINGS_CSHARP&#45;&gt;_GH__CASEWORK__CASE_BINDINGS_CSHARP_MONITOR</title>
<path fill="none" stroke="black" d="M871.98,-767.21C884.08,-767.12 896.35,-767.05 908,-767 938.54,-766.87 971.36,-766.91 1002.37,-767.03"/>
<polygon fill="black" stroke="black" points="1002.25,-770.53 1012.26,-767.07 1002.28,-763.53 1002.25,-770.53"/>
<text text-anchor="middle" x="947.5" y="-770.8" font-family="Times,serif" font-size="14.00">NuGet</text>
</g>
<!-- _GH__CASEWORK__CASE_IMPLEMENTATON_EXIFTOOL -->
<g id="node23" class="node">
<title>_GH__CASEWORK__CASE_IMPLEMENTATON_EXIFTOOL</title>
<g id="a_node23"><a xlink:href="https://github.com/casework/CASE-Implementation-ExifTool" xlink:title="CASE&#45;Implementation&#45;ExifTool\nadopts new case&#45;utils">
<path fill="#8ec7d2" stroke="#0d6986" d="M871,-1078C871,-1078 699,-1078 699,-1078 693,-1078 687,-1072 687,-1066 687,-1066 687,-1052 687,-1052 687,-1046 693,-1040 699,-1040 699,-1040 871,-1040 871,-1040 877,-1040 883,-1046 883,-1052 883,-1052 883,-1066 883,-1066 883,-1072 877,-1078 871,-1078"/>
<text text-anchor="middle" x="785" y="-1062.8" font-family="Times,serif" font-size="14.00">CASE&#45;Implementation&#45;ExifTool</text>
<text text-anchor="middle" x="785" y="-1047.8" font-family="Times,serif" font-size="14.00">adopts new case&#45;utils</text>
</a>
</g>
</g>
<!-- _GH__CASEWORK__CASE_UTILITIES_PYTHON&#45;&gt;_GH__AJNELSON_NIST__CASE_EXAMPLES_QC -->
<g id="edge7" class="edge">
<title>_GH__CASEWORK__CASE_UTILITIES_PYTHON&#45;&gt;_GH__AJNELSON_NIST__CASE_EXAMPLES_QC</title>
<path fill="none" stroke="black" d="M583.23,-1051.24C594.52,-1047.68 606.84,-1042.72 617,-1036 626.97,-1029.4 625.21,-1022.87 635,-1016 649.53,-1005.81 654.83,-1005.49 672,-1001 808.53,-965.3 848.74,-989.3 987,-961 1005.05,-957.31 1024.1,-952.56 1042.36,-947.58"/>
<polygon fill="black" stroke="black" points="1043.01,-950.76 1051.71,-944.72 1041.14,-944.01 1043.01,-950.76"/>
<text text-anchor="middle" x="785" y="-1004.8" font-family="Times,serif" font-size="14.00">PyPI</text>
</g>
<!-- _GH__CASEWORK__CASE_UTILITIES_PYTHON&#45;&gt;_GH__CASEWORK__CASE_EXAMPLES -->
<g id="edge8" class="edge">
<title>_GH__CASEWORK__CASE_UTILITIES_PYTHON&#45;&gt;_GH__CASEWORK__CASE_EXAMPLES</title>
<path fill="none" stroke="black" d="M583.37,-1054.8C595.63,-1051.59 608.57,-1045.94 617,-1036 648.19,-999.22 608.91,-969.56 635,-929 645.74,-912.31 653.88,-912.09 672,-904 683.3,-898.96 695.66,-894.72 707.91,-891.19"/>
<polygon fill="black" stroke="black" points="708.43,-894.41 717.15,-888.4 706.58,-887.66 708.43,-894.41"/>
<text text-anchor="middle" x="648.5" y="-932.8" font-family="Times,serif" font-size="14.00">PyPI</text>
</g>
<!-- _GH__CASEWORK__CASE_UTILITIES_PYTHON&#45;&gt;_GH__CASEWORK__CASE_IMPLEMENTATON_GNU_TIME -->
<g id="edge10" class="edge">
<title>_GH__CASEWORK__CASE_UTILITIES_PYTHON&#45;&gt;_GH__CASEWORK__CASE_IMPLEMENTATON_GNU_TIME</title>
<path fill="none" stroke="black" d="M583.22,-1055.42C595.77,-1052.31 608.96,-1046.57 617,-1036 636.89,-1009.87 631.72,-773.67 635,-741 646.5,-626.45 594.03,-566.82 672.71,-477.78"/>
<polygon fill="black" stroke="black" points="674.74,-480.65 678.92,-470.92 669.58,-475.92 674.74,-480.65"/>
<text text-anchor="middle" x="648.5" y="-744.8" font-family="Times,serif" font-size="14.00">PyPI</text>
</g>
<!-- _GH__CASEWORK__CASE_UTILITIES_PYTHON&#45;&gt;_GH__CASEWORK__CASEWORK_GITHUB_IO -->
<g id="edge13" class="edge">
<title>_GH__CASEWORK__CASE_UTILITIES_PYTHON&#45;&gt;_GH__CASEWORK__CASEWORK_GITHUB_IO</title>
<path fill="none" stroke="black" d="M583.27,-1054.32C595.37,-1051.04 608.22,-1045.47 617,-1036 638.55,-1012.76 612.32,-989.13 635,-967 654.22,-948.24 681.49,-938.84 707.46,-934.33"/>
<polygon fill="black" stroke="black" points="707.72,-937.68 717.09,-932.73 706.68,-930.76 707.72,-937.68"/>
<text text-anchor="middle" x="648.5" y="-970.8" font-family="Times,serif" font-size="14.00">PyPI</text>
</g>
<!-- _GH__CASEWORK__CASE_UTILITIES_PYTHON&#45;&gt;_GH__CASEWORK__CASE_IMPLEMENTATON_PROV_O -->
<g id="edge11" class="edge">
<title>_GH__CASEWORK__CASE_UTILITIES_PYTHON&#45;&gt;_GH__CASEWORK__CASE_IMPLEMENTATON_PROV_O</title>
<path fill="none" stroke="black" d="M583.37,-1049.74C607.74,-1043.37 641.66,-1035.32 672,-1031 818.32,-1010.17 1209.36,-1069.19 1336,-993 1356.46,-980.69 1369.85,-956.85 1377.83,-937.55"/>
<polygon fill="black" stroke="black" points="1381.41,-938.98 1381.72,-928.39 1374.88,-936.48 1381.41,-938.98"/>
<text text-anchor="middle" x="947.5" y="-1035.8" font-family="Times,serif" font-size="14.00">PyPI</text>
</g>
<!-- _GH__CASEWORK__CASE_UTILITIES_PYTHON&#45;&gt;_GH__KCHASON__CASE_VALIDATION_ACTION -->
<g id="edge12" class="edge">
<title>_GH__CASEWORK__CASE_UTILITIES_PYTHON&#45;&gt;_GH__KCHASON__CASE_VALIDATION_ACTION</title>
<path fill="none" stroke="black" d="M583.25,-1055.09C595.65,-1051.92 608.72,-1046.22 617,-1036 637.72,-1010.43 629.1,-921.38 635,-889 647.47,-820.6 639.97,-798.71 672,-737 692.62,-697.27 728.1,-659.71 753.6,-635.68"/>
<polygon fill="black" stroke="black" points="755.54,-638.73 760.5,-629.37 750.78,-633.59 755.54,-638.73"/>
<text text-anchor="middle" x="648.5" y="-892.8" font-family="Times,serif" font-size="14.00">PyPI</text>
</g>
<!-- _GH__CASEWORK__CASE_UTILITIES_PYTHON&#45;&gt;_GH__CASEWORK__CASE_IMPLEMENTATON_EXIFTOOL -->
<g id="edge9" class="edge">
<title>_GH__CASEWORK__CASE_UTILITIES_PYTHON&#45;&gt;_GH__CASEWORK__CASE_IMPLEMENTATON_EXIFTOOL</title>
<path fill="none" stroke="black" d="M583.03,-1059C607.41,-1059 642.08,-1059 675.78,-1059"/>
<polygon fill="black" stroke="black" points="675.67,-1062.5 685.67,-1059 675.67,-1055.5 675.67,-1062.5"/>
<text text-anchor="middle" x="648.5" y="-1062.8" font-family="Times,serif" font-size="14.00">PyPI</text>
</g>
</g>
</svg>
