<?xml version="1.0" encoding="UTF-8" standalone="no"?>
<!DOCTYPE svg PUBLIC "-//W3C//DTD SVG 1.1//EN"
 "http://www.w3.org/Graphics/SVG/1.1/DTD/svg11.dtd">
<!-- Generated by graphviz version 7.1.0 (20230121.1956)
 -->
<!-- Title: cdo_release_flow Pages: 1 -->
<svg width="1617pt" height="1130pt"
 viewBox="0.00 0.00 1617.00 1130.00" xmlns="http://www.w3.org/2000/svg" xmlns:xlink="http://www.w3.org/1999/xlink">
<g id="graph0" class="graph" transform="scale(1 1) rotate(0) translate(4 1126)">
<title>cdo_release_flow</title>
<polygon fill="white" stroke="none" points="-4,4 -4,-1126 1613,-1126 1613,4 -4,4"/>
<text text-anchor="middle" x="804.5" y="-38.8" font-family="Times,serif" font-size="14.00">Release flow of CDO ontologies</text>
<text text-anchor="middle" x="804.5" y="-7.8" font-family="Times,serif" font-size="14.00">Nodes link to the respective Git repository.</text>
<g id="clust1" class="cluster">
<title>cluster_uco_0_9_1</title>
<polygon fill="none" stroke="black" points="189,-242 189,-406 357,-406 357,-242 189,-242"/>
<text text-anchor="middle" x="273" y="-390.8" font-family="Times,serif" font-size="14.00">Adoption of UCO 0.9.1</text>
</g>
<g id="clust2" class="cluster">
<title>cluster_case_0_7_1</title>
<polygon fill="none" stroke="black" points="197,-298 197,-375 349,-375 349,-298 197,-298"/>
<text text-anchor="middle" x="273" y="-359.8" font-family="Times,serif" font-size="14.00">Adoption of CASE 0.7.1</text>
</g>
<g id="clust3" class="cluster">
<title>cluster_uco_1_1_0</title>
<polygon fill="none" stroke="black" points="944,-100 944,-406 1232,-406 1232,-100 944,-100"/>
<text text-anchor="middle" x="1088" y="-390.8" font-family="Times,serif" font-size="14.00">Adoption of UCO 1.1.0</text>
</g>
<g id="clust4" class="cluster">
<title>cluster_case_1_1_0</title>
<polygon fill="none" stroke="black" points="952,-108 952,-375 1224,-375 1224,-108 952,-108"/>
<text text-anchor="middle" x="1088" y="-359.8" font-family="Times,serif" font-size="14.00">Adoption of CASE 1.1.0</text>
</g>
<g id="clust5" class="cluster">
<title>cluster_case_utils_0_9_0</title>
<polygon fill="none" stroke="black" points="960,-116 960,-344 1216,-344 1216,-116 960,-116"/>
<text text-anchor="middle" x="1088" y="-328.8" font-family="Times,serif" font-size="14.00">Adoption of case&#45;utils 0.9.0</text>
</g>
<g id="clust6" class="cluster">
<title>cluster_case_validation_action_2_5</title>
<polygon fill="none" stroke="black" points="968,-124 968,-313 1208,-313 1208,-124 968,-124"/>
<text text-anchor="middle" x="1088" y="-297.8" font-family="Times,serif" font-size="14.00">Adoption of case&#45;validation&#45;action 2.5</text>
</g>
<g id="clust7" class="cluster">
<title>cluster_uco_1_2_0</title>
<polygon fill="none" stroke="black" points="8,-414 8,-1114 1601,-1114 1601,-414 8,-414"/>
<text text-anchor="middle" x="804.5" y="-1098.8" font-family="Times,serif" font-size="14.00">Adoption of UCO 1.2.0</text>
</g>
<g id="clust8" class="cluster">
<title>cluster_case_1_2_0</title>
<polygon fill="none" stroke="black" points="212,-422 212,-1083 1593,-1083 1593,-422 212,-422"/>
<text text-anchor="middle" x="902.5" y="-1067.8" font-family="Times,serif" font-size="14.00">Adoption of CASE 1.2.0</text>
</g>
<g id="clust9" class="cluster">
<title>cluster_case_utils_0_10_0</title>
<polygon fill="none" stroke="black" points="456,-476 456,-1052 1585,-1052 1585,-476 456,-476"/>
<text text-anchor="middle" x="1020.5" y="-1036.8" font-family="Times,serif" font-size="14.00">Adoption of case&#45;utils 0.10.0</text>
</g>
<g id="clust11" class="cluster">
<title>cluster_case_validation_action_2_6</title>
<polygon fill="none" stroke="black" points="631.5,-586 631.5,-848 1229.5,-848 1229.5,-586 631.5,-586"/>
<text text-anchor="middle" x="930.5" y="-832.8" font-family="Times,serif" font-size="14.00">Adoption of case&#45;validation&#45;action 2.6</text>
</g>
<g id="clust12" class="cluster">
<title>cluster_case_bindings_csharp_0_4_0</title>
<polygon fill="none" stroke="black" points="639.5,-740 639.5,-817 1221.5,-817 1221.5,-740 639.5,-740"/>
<text text-anchor="middle" x="930.5" y="-801.8" font-family="Times,serif" font-size="14.00">Adoption of CSharp bindings 0.4.0</text>
</g>
<g id="clust10" class="cluster">
<title>cluster_case_prov_0_7_0</title>
<polygon fill="none" stroke="black" points="1295,-939 1295,-1016 1577,-1016 1577,-939 1295,-939"/>
<text text-anchor="middle" x="1436" y="-1000.8" font-family="Times,serif" font-size="14.00">Adoption of case&#45;prov 0.7.0</text>
</g>
<!-- _GH__UCOPROJECT__ONTOLOGY_UNIFIEDCYBERONTOLOGY_ORG -->
<g id="node1" class="node">
<title>_GH__UCOPROJECT__ONTOLOGY_UNIFIEDCYBERONTOLOGY_ORG</title>
<g id="a_node1"><a xlink:href="https://github.com/ucoProject/ontology.unifiedcyberontology.org" xlink:title="UCO documentation\nregenerated">
<path fill="#8ec7d2" stroke="#0d6986" d="M326,-288C326,-288 220,-288 220,-288 214,-288 208,-282 208,-276 208,-276 208,-262 208,-262 208,-256 214,-250 220,-250 220,-250 326,-250 326,-250 332,-250 338,-256 338,-262 338,-262 338,-276 338,-276 338,-282 332,-288 326,-288"/>
<text text-anchor="middle" x="273" y="-272.8" font-family="Times,serif" font-size="14.00">UCO documentation</text>
<text text-anchor="middle" x="273" y="-257.8" font-family="Times,serif" font-size="14.00">regenerated</text>
</a>
</g>
</g>
<!-- _GH__CASEWORK__CASE_MAPPING_TEMPLATE_STUBS -->
<g id="node2" class="node">
<title>_GH__CASEWORK__CASE_MAPPING_TEMPLATE_STUBS</title>
<g id="a_node2"><a xlink:href="https://github.com/casework/CASE-Mapping-Template-Stubs" xlink:title="CASE Mapping\nTemplate Stubs">
<path fill="#8ec7d2" stroke="#0d6986" d="M313,-344C313,-344 233,-344 233,-344 227,-344 221,-338 221,-332 221,-332 221,-318 221,-318 221,-312 227,-306 233,-306 233,-306 313,-306 313,-306 319,-306 325,-312 325,-318 325,-318 325,-332 325,-332 325,-338 319,-344 313,-344"/>
<text text-anchor="middle" x="273" y="-328.8" font-family="Times,serif" font-size="14.00">CASE Mapping</text>
<text text-anchor="middle" x="273" y="-313.8" font-family="Times,serif" font-size="14.00">Template Stubs</text>
</a>
</g>
</g>
<!-- _GH__CASEWORK__CASE_IMPLEMENTATON_PYPI_EXIFREAD -->
<g id="node3" class="node">
<title>_GH__CASEWORK__CASE_IMPLEMENTATON_PYPI_EXIFREAD</title>
<g id="a_node3"><a xlink:href="https://github.com/casework/CASE-Implementation-PyPI-Exifread" xlink:title="CASE&#45;Implementation&#45;PyPI&#45;Exifread\nadopts new case&#45;validation&#45;action">
<path fill="#8ec7d2" stroke="#0d6986" d="M1188,-282C1188,-282 988,-282 988,-282 982,-282 976,-276 976,-270 976,-270 976,-256 976,-256 976,-250 982,-244 988,-244 988,-244 1188,-244 1188,-244 1194,-244 1200,-250 1200,-256 1200,-256 1200,-270 1200,-270 1200,-276 1194,-282 1188,-282"/>
<text text-anchor="middle" x="1088" y="-266.8" font-family="Times,serif" font-size="14.00">CASE&#45;Implementation&#45;PyPI&#45;Exifread</text>
<text text-anchor="middle" x="1088" y="-251.8" font-family="Times,serif" font-size="14.00">adopts new case&#45;validation&#45;action</text>
</a>
</g>
</g>
<!-- _GH__CASEWORK__CASE_IMPLEMENTATON_PYPI_PILLOW -->
<g id="node4" class="node">
<title>_GH__CASEWORK__CASE_IMPLEMENTATON_PYPI_PILLOW</title>
<g id="a_node4"><a xlink:href="https://github.com/casework/CASE-Implementation-PyPI-Pillow" xlink:title="CASE&#45;Implementation&#45;PyPI&#45;Pillow\nadopts new case&#45;validation&#45;action">
<path fill="#8ec7d2" stroke="#0d6986" d="M1182.5,-226C1182.5,-226 993.5,-226 993.5,-226 987.5,-226 981.5,-220 981.5,-214 981.5,-214 981.5,-200 981.5,-200 981.5,-194 987.5,-188 993.5,-188 993.5,-188 1182.5,-188 1182.5,-188 1188.5,-188 1194.5,-194 1194.5,-200 1194.5,-200 1194.5,-214 1194.5,-214 1194.5,-220 1188.5,-226 1182.5,-226"/>
<text text-anchor="middle" x="1088" y="-210.8" font-family="Times,serif" font-size="14.00">CASE&#45;Implementation&#45;PyPI&#45;Pillow</text>
<text text-anchor="middle" x="1088" y="-195.8" font-family="Times,serif" font-size="14.00">adopts new case&#45;validation&#45;action</text>
</a>
</g>
</g>
<!-- _GH__CASEWORK__CASE_MAPPING_TEMPLATE_PYTHON -->
<g id="node5" class="node">
<title>_GH__CASEWORK__CASE_MAPPING_TEMPLATE_PYTHON</title>
<g id="a_node5"><a xlink:href="https://github.com/casework/CASE-Mapping-Template-Python" xlink:title="CASE&#45;Mapping&#45;Template&#45;Python\nadopts new case&#45;validation&#45;action">
<path fill="#8ec7d2" stroke="#0d6986" d="M1178,-170C1178,-170 998,-170 998,-170 992,-170 986,-164 986,-158 986,-158 986,-144 986,-144 986,-138 992,-132 998,-132 998,-132 1178,-132 1178,-132 1184,-132 1190,-138 1190,-144 1190,-144 1190,-158 1190,-158 1190,-164 1184,-170 1178,-170"/>
<text text-anchor="middle" x="1088" y="-154.8" font-family="Times,serif" font-size="14.00">CASE&#45;Mapping&#45;Template&#45;Python</text>
<text text-anchor="middle" x="1088" y="-139.8" font-family="Times,serif" font-size="14.00">adopts new case&#45;validation&#45;action</text>
</a>
</g>
</g>
<!-- _GH__UCOPROJECT__UCO -->
<g id="node6" class="node">
<title>_GH__UCOPROJECT__UCO</title>
<g id="a_node6"><a xlink:href="https://github.com/ucoProject/UCO" xlink:title="UCO Ontology\nreleases">
<path fill="#8ec7d2" stroke="#0d6986" d="M104,-464C104,-464 28,-464 28,-464 22,-464 16,-458 16,-452 16,-452 16,-438 16,-438 16,-432 22,-426 28,-426 28,-426 104,-426 104,-426 110,-426 116,-432 116,-438 116,-438 116,-452 116,-452 116,-458 110,-464 104,-464"/>
<text text-anchor="middle" x="66" y="-448.8" font-family="Times,serif" font-size="14.00">UCO Ontology</text>
<text text-anchor="middle" x="66" y="-433.8" font-family="Times,serif" font-size="14.00">releases</text>
</a>
</g>
</g>
<!-- _GH__UCOPROJECT__UCO&#45;&gt;_GH__UCOPROJECT__ONTOLOGY_UNIFIEDCYBERONTOLOGY_ORG -->
<g id="edge24" class="edge">
<title>_GH__UCOPROJECT__UCO&#45;&gt;_GH__UCOPROJECT__ONTOLOGY_UNIFIEDCYBERONTOLOGY_ORG</title>
<path fill="none" stroke="black" d="M77.41,-425.67C95.71,-393.53 136.7,-329.16 189,-294 191.69,-292.19 194.52,-290.51 197.44,-288.94"/>
<polygon fill="black" stroke="black" points="198.78,-292.18 206.31,-284.72 195.77,-285.86 198.78,-292.18"/>
<text text-anchor="middle" x="156.5" y="-361.8" font-family="Times,serif" font-size="14.00">Git sub&#45;</text>
<text text-anchor="middle" x="156.5" y="-346.8" font-family="Times,serif" font-size="14.00">module</text>
</g>
<!-- _GH__CASEWORK__CASE -->
<g id="node7" class="node">
<title>_GH__CASEWORK__CASE</title>
<g id="a_node7"><a xlink:href="https://github.com/casework/CASE" xlink:title="CASE Ontology\nreleases">
<path fill="#8ec7d2" stroke="#0d6986" d="M314,-662C314,-662 232,-662 232,-662 226,-662 220,-656 220,-650 220,-650 220,-636 220,-636 220,-630 226,-624 232,-624 232,-624 314,-624 314,-624 320,-624 326,-630 326,-636 326,-636 326,-650 326,-650 326,-656 320,-662 314,-662"/>
<text text-anchor="middle" x="273" y="-646.8" font-family="Times,serif" font-size="14.00">CASE Ontology</text>
<text text-anchor="middle" x="273" y="-631.8" font-family="Times,serif" font-size="14.00">releases</text>
</a>
</g>
</g>
<!-- _GH__UCOPROJECT__UCO&#45;&gt;_GH__CASEWORK__CASE -->
<g id="edge23" class="edge">
<title>_GH__UCOPROJECT__UCO&#45;&gt;_GH__CASEWORK__CASE</title>
<path fill="none" stroke="black" d="M87.03,-464.35C123.69,-499.76 201.69,-575.09 243.74,-615.7"/>
<polygon fill="black" stroke="black" points="241.18,-618.09 250.8,-622.52 246.04,-613.06 241.18,-618.09"/>
<text text-anchor="middle" x="156.5" y="-567.8" font-family="Times,serif" font-size="14.00">Git sub&#45;</text>
<text text-anchor="middle" x="156.5" y="-552.8" font-family="Times,serif" font-size="14.00">module</text>
</g>
<!-- _GH__CASEWORK__ONTOLOGY_CASEONTOLOGY_ORG -->
<g id="node8" class="node">
<title>_GH__CASEWORK__ONTOLOGY_CASEONTOLOGY_ORG</title>
<g id="a_node8"><a xlink:href="https://github.com/casework/ontology.caseontology.org" xlink:title="CASE documentation\nregenerated">
<path fill="#8ec7d2" stroke="#0d6986" d="M554,-468C554,-468 442,-468 442,-468 436,-468 430,-462 430,-456 430,-456 430,-442 430,-442 430,-436 436,-430 442,-430 442,-430 554,-430 554,-430 560,-430 566,-436 566,-442 566,-442 566,-456 566,-456 566,-462 560,-468 554,-468"/>
<text text-anchor="middle" x="498" y="-452.8" font-family="Times,serif" font-size="14.00">CASE documentation</text>
<text text-anchor="middle" x="498" y="-437.8" font-family="Times,serif" font-size="14.00">regenerated</text>
</a>
</g>
</g>
<!-- _GH__CASEWORK__CASE&#45;&gt;_GH__CASEWORK__ONTOLOGY_CASEONTOLOGY_ORG -->
<g id="edge4" class="edge">
<title>_GH__CASEWORK__CASE&#45;&gt;_GH__CASEWORK__ONTOLOGY_CASEONTOLOGY_ORG</title>
<path fill="none" stroke="black" d="M286.65,-623.67C309.5,-590.16 360.94,-520.73 426.7,-474.68"/>
<polygon fill="black" stroke="black" points="428.5,-477.69 434.82,-469.19 424.58,-471.89 428.5,-477.69"/>
<text text-anchor="middle" x="389.5" y="-542.8" font-family="Times,serif" font-size="14.00">Git sub&#45;</text>
<text text-anchor="middle" x="389.5" y="-527.8" font-family="Times,serif" font-size="14.00">module</text>
</g>
<!-- _GH__CASEWORK__CASE_UTILITIES_PYTHON -->
<g id="node13" class="node">
<title>_GH__CASEWORK__CASE_UTILITIES_PYTHON</title>
<g id="a_node13"><a xlink:href="https://github.com/casework/CASE-Utilities-Python" xlink:title="case&#45;utils\nreleases">
<path fill="#8ec7d2" stroke="#0d6986" d="M520,-829C520,-829 476,-829 476,-829 470,-829 464,-823 464,-817 464,-817 464,-803 464,-803 464,-797 470,-791 476,-791 476,-791 520,-791 520,-791 526,-791 532,-797 532,-803 532,-803 532,-817 532,-817 532,-823 526,-829 520,-829"/>
<text text-anchor="middle" x="498" y="-813.8" font-family="Times,serif" font-size="14.00">case&#45;utils</text>
<text text-anchor="middle" x="498" y="-798.8" font-family="Times,serif" font-size="14.00">releases</text>
</a>
</g>
</g>
<!-- _GH__CASEWORK__CASE&#45;&gt;_GH__CASEWORK__CASE_UTILITIES_PYTHON -->
<g id="edge2" class="edge">
<title>_GH__CASEWORK__CASE&#45;&gt;_GH__CASEWORK__CASE_UTILITIES_PYTHON</title>
<path fill="none" stroke="black" d="M289.83,-662.02C316.05,-692.42 371.45,-752.06 430,-787 437.12,-791.25 445.13,-794.85 453.07,-797.86"/>
<polygon fill="black" stroke="black" points="451.74,-801.1 462.34,-801.09 454.05,-794.49 451.74,-801.1"/>
<text text-anchor="middle" x="389.5" y="-792.8" font-family="Times,serif" font-size="14.00">Git sub&#45;</text>
<text text-anchor="middle" x="389.5" y="-777.8" font-family="Times,serif" font-size="14.00">module</text>
</g>
<!-- _GH__CIPHERTECHSOLUTIONS__CASE_BINDINGS_CSHARP -->
<g id="node21" class="node">
<title>_GH__CIPHERTECHSOLUTIONS__CASE_BINDINGS_CSHARP</title>
<g id="a_node21"><a xlink:href="https://github.com/ciphertechsolutions/CASE-Bindings-CSharp" xlink:title="CASE&#45;Bindings&#45;CSharp\nadopts new ontology version">
<path fill="#8ec7d2" stroke="#0d6986" d="M808.5,-786C808.5,-786 659.5,-786 659.5,-786 653.5,-786 647.5,-780 647.5,-774 647.5,-774 647.5,-760 647.5,-760 647.5,-754 653.5,-748 659.5,-748 659.5,-748 808.5,-748 808.5,-748 814.5,-748 820.5,-754 820.5,-760 820.5,-760 820.5,-774 820.5,-774 820.5,-780 814.5,-786 808.5,-786"/>
<text text-anchor="middle" x="734" y="-770.8" font-family="Times,serif" font-size="14.00">CASE&#45;Bindings&#45;CSharp</text>
<text text-anchor="middle" x="734" y="-755.8" font-family="Times,serif" font-size="14.00">adopts new ontology version</text>
</a>
</g>
</g>
<!-- _GH__CASEWORK__CASE&#45;&gt;_GH__CIPHERTECHSOLUTIONS__CASE_BINDINGS_CSHARP -->
<g id="edge3" class="edge">
<title>_GH__CASEWORK__CASE&#45;&gt;_GH__CIPHERTECHSOLUTIONS__CASE_BINDINGS_CSHARP</title>
<path fill="none" stroke="black" d="M274.94,-662.5C279.25,-727.41 302.89,-936.87 430,-1022 496.84,-1066.77 551.96,-1076.64 611,-1022 648.95,-986.88 595.09,-829.04 629,-790 631.55,-787.07 634.38,-784.46 637.42,-782.15"/>
<polygon fill="black" stroke="black" points="639.26,-785.13 645.87,-776.86 635.54,-779.2 639.26,-785.13"/>
</g>
<!-- _GH__AJNELSON_NIST__CASE_EXAMPLES_QC -->
<g id="node9" class="node">
<title>_GH__AJNELSON_NIST__CASE_EXAMPLES_QC</title>
<g id="a_node9"><a xlink:href="https://github.com/ajnelson-nist/CASE-Examples-QC" xlink:title="CASE&#45;Examples&#45;QC\nadopts CASE&#45;Examples and\nCASE website updates">
<path fill="#8ec7d2" stroke="#0d6986" d="M1162,-970.5C1162,-970.5 1014,-970.5 1014,-970.5 1008,-970.5 1002,-964.5 1002,-958.5 1002,-958.5 1002,-929.5 1002,-929.5 1002,-923.5 1008,-917.5 1014,-917.5 1014,-917.5 1162,-917.5 1162,-917.5 1168,-917.5 1174,-923.5 1174,-929.5 1174,-929.5 1174,-958.5 1174,-958.5 1174,-964.5 1168,-970.5 1162,-970.5"/>
<text text-anchor="middle" x="1088" y="-955.3" font-family="Times,serif" font-size="14.00">CASE&#45;Examples&#45;QC</text>
<text text-anchor="middle" x="1088" y="-940.3" font-family="Times,serif" font-size="14.00">adopts CASE&#45;Examples and</text>
<text text-anchor="middle" x="1088" y="-925.3" font-family="Times,serif" font-size="14.00">CASE website updates</text>
</a>
</g>
</g>
<!-- _GH__CASEWORK__CASE_IMPLEMENTATON_PROV_O -->
<g id="node16" class="node">
<title>_GH__CASEWORK__CASE_IMPLEMENTATON_PROV_O</title>
<g id="a_node16"><a xlink:href="https://github.com/casework/CASE-Implementation-PROV-O" xlink:title="case&#45;prov\nreleases">
<path fill="#8ec7d2" stroke="#0d6986" d="M1360,-985C1360,-985 1315,-985 1315,-985 1309,-985 1303,-979 1303,-973 1303,-973 1303,-959 1303,-959 1303,-953 1309,-947 1315,-947 1315,-947 1360,-947 1360,-947 1366,-947 1372,-953 1372,-959 1372,-959 1372,-973 1372,-973 1372,-979 1366,-985 1360,-985"/>
<text text-anchor="middle" x="1337.5" y="-969.8" font-family="Times,serif" font-size="14.00">case&#45;prov</text>
<text text-anchor="middle" x="1337.5" y="-954.8" font-family="Times,serif" font-size="14.00">releases</text>
</a>
</g>
</g>
<!-- _GH__AJNELSON_NIST__CASE_EXAMPLES_QC&#45;&gt;_GH__CASEWORK__CASE_IMPLEMENTATON_PROV_O -->
<g id="edge1" class="edge">
<title>_GH__AJNELSON_NIST__CASE_EXAMPLES_QC&#45;&gt;_GH__CASEWORK__CASE_IMPLEMENTATON_PROV_O</title>
<path fill="none" stroke="black" d="M1174.18,-951.57C1213.53,-955.07 1258.67,-959.08 1291.34,-961.99"/>
<polygon fill="black" stroke="black" points="1291,-965.47 1301.27,-962.87 1291.62,-958.5 1291,-965.47"/>
<text text-anchor="middle" x="1262.5" y="-979.8" font-family="Times,serif" font-size="14.00">Git sub&#45;</text>
<text text-anchor="middle" x="1262.5" y="-964.8" font-family="Times,serif" font-size="14.00">module</text>
</g>
<!-- _GH__CASEWORK__CASE_EXAMPLES -->
<g id="node10" class="node">
<title>_GH__CASEWORK__CASE_EXAMPLES</title>
<g id="a_node10"><a xlink:href="https://github.com/casework/CASE-Examples" xlink:title="CASE&#45;Examples\nadopts new case&#45;utils">
<path fill="#8ec7d2" stroke="#0d6986" d="M788.5,-894C788.5,-894 679.5,-894 679.5,-894 673.5,-894 667.5,-888 667.5,-882 667.5,-882 667.5,-868 667.5,-868 667.5,-862 673.5,-856 679.5,-856 679.5,-856 788.5,-856 788.5,-856 794.5,-856 800.5,-862 800.5,-868 800.5,-868 800.5,-882 800.5,-882 800.5,-888 794.5,-894 788.5,-894"/>
<text text-anchor="middle" x="734" y="-878.8" font-family="Times,serif" font-size="14.00">CASE&#45;Examples</text>
<text text-anchor="middle" x="734" y="-863.8" font-family="Times,serif" font-size="14.00">adopts new case&#45;utils</text>
</a>
</g>
</g>
<!-- _GH__CASEWORK__CASE_EXAMPLES&#45;&gt;_GH__AJNELSON_NIST__CASE_EXAMPLES_QC -->
<g id="edge5" class="edge">
<title>_GH__CASEWORK__CASE_EXAMPLES&#45;&gt;_GH__AJNELSON_NIST__CASE_EXAMPLES_QC</title>
<path fill="none" stroke="black" d="M800.58,-880.99C840.06,-885.22 891.2,-891.78 936,-901 953.88,-904.68 972.74,-909.38 990.85,-914.31"/>
<polygon fill="black" stroke="black" points="989.67,-917.62 1000.25,-916.92 991.54,-910.87 989.67,-917.62"/>
<text text-anchor="middle" x="896.5" y="-919.8" font-family="Times,serif" font-size="14.00">Git sub&#45;</text>
<text text-anchor="middle" x="896.5" y="-904.8" font-family="Times,serif" font-size="14.00">module</text>
</g>
<!-- _GH__CASEWORK__CASE_IMPLEMENTATON_EXIFTOOL -->
<g id="node11" class="node">
<title>_GH__CASEWORK__CASE_IMPLEMENTATON_EXIFTOOL</title>
<g id="a_node11"><a xlink:href="https://github.com/casework/CASE-Implementation-ExifTool" xlink:title="CASE&#45;Implementation&#45;ExifTool\nadopts new case&#45;utils">
<path fill="#8ec7d2" stroke="#0d6986" d="M820,-522C820,-522 648,-522 648,-522 642,-522 636,-516 636,-510 636,-510 636,-496 636,-496 636,-490 642,-484 648,-484 648,-484 820,-484 820,-484 826,-484 832,-490 832,-496 832,-496 832,-510 832,-510 832,-516 826,-522 820,-522"/>
<text text-anchor="middle" x="734" y="-506.8" font-family="Times,serif" font-size="14.00">CASE&#45;Implementation&#45;ExifTool</text>
<text text-anchor="middle" x="734" y="-491.8" font-family="Times,serif" font-size="14.00">adopts new case&#45;utils</text>
</a>
</g>
</g>
<!-- _GH__CASEWORK__CASE_IMPLEMENTATON_GNU_TIME -->
<g id="node12" class="node">
<title>_GH__CASEWORK__CASE_IMPLEMENTATON_GNU_TIME</title>
<g id="a_node12"><a xlink:href="https://github.com/casework/CASE-Implementation-GNU-Time" xlink:title="CASE&#45;Implementation&#45;GNU&#45;Time\nadopts new case&#45;utils">
<path fill="#8ec7d2" stroke="#0d6986" d="M827,-578C827,-578 641,-578 641,-578 635,-578 629,-572 629,-566 629,-566 629,-552 629,-552 629,-546 635,-540 641,-540 641,-540 827,-540 827,-540 833,-540 839,-546 839,-552 839,-552 839,-566 839,-566 839,-572 833,-578 827,-578"/>
<text text-anchor="middle" x="734" y="-562.8" font-family="Times,serif" font-size="14.00">CASE&#45;Implementation&#45;GNU&#45;Time</text>
<text text-anchor="middle" x="734" y="-547.8" font-family="Times,serif" font-size="14.00">adopts new case&#45;utils</text>
</a>
</g>
</g>
<!-- _GH__CASEWORK__CASE_UTILITIES_PYTHON&#45;&gt;_GH__AJNELSON_NIST__CASE_EXAMPLES_QC -->
<g id="edge7" class="edge">
<title>_GH__CASEWORK__CASE_UTILITIES_PYTHON&#45;&gt;_GH__AJNELSON_NIST__CASE_EXAMPLES_QC</title>
<path fill="none" stroke="black" d="M508.8,-829.42C527.07,-863.2 569.92,-931.76 629,-959 753.02,-1016.18 800.01,-984.5 936,-972 953.7,-970.37 972.42,-967.69 990.43,-964.62"/>
<polygon fill="black" stroke="black" points="990.81,-968.11 1000.05,-962.93 989.59,-961.22 990.81,-968.11"/>
<text text-anchor="middle" x="734" y="-995.8" font-family="Times,serif" font-size="14.00">PyPI</text>
</g>
<!-- _GH__CASEWORK__CASE_UTILITIES_PYTHON&#45;&gt;_GH__CASEWORK__CASE_EXAMPLES -->
<g id="edge8" class="edge">
<title>_GH__CASEWORK__CASE_UTILITIES_PYTHON&#45;&gt;_GH__CASEWORK__CASE_EXAMPLES</title>
<path fill="none" stroke="black" d="M532.03,-819.18C564.18,-828.11 614.21,-842 656.31,-853.7"/>
<polygon fill="black" stroke="black" points="655.35,-857.06 665.92,-856.37 657.23,-850.32 655.35,-857.06"/>
<text text-anchor="middle" x="597.5" y="-843.8" font-family="Times,serif" font-size="14.00">PyPI</text>
</g>
<!-- _GH__CASEWORK__CASE_UTILITIES_PYTHON&#45;&gt;_GH__CASEWORK__CASE_IMPLEMENTATON_EXIFTOOL -->
<g id="edge9" class="edge">
<title>_GH__CASEWORK__CASE_UTILITIES_PYTHON&#45;&gt;_GH__CASEWORK__CASE_IMPLEMENTATON_EXIFTOOL</title>
<path fill="none" stroke="black" d="M532.31,-806.14C544.72,-802.98 557.78,-797.27 566,-787 588.77,-758.55 573.92,-659.02 584,-624 596.7,-579.87 593.63,-560.28 629,-531 629.97,-530.2 630.97,-529.41 631.98,-528.65"/>
<polygon fill="black" stroke="black" points="633.83,-531.62 640.29,-523.23 630.01,-525.76 633.83,-531.62"/>
<text text-anchor="middle" x="597.5" y="-627.8" font-family="Times,serif" font-size="14.00">PyPI</text>
</g>
<!-- _GH__CASEWORK__CASE_UTILITIES_PYTHON&#45;&gt;_GH__CASEWORK__CASE_IMPLEMENTATON_GNU_TIME -->
<g id="edge10" class="edge">
<title>_GH__CASEWORK__CASE_UTILITIES_PYTHON&#45;&gt;_GH__CASEWORK__CASE_IMPLEMENTATON_GNU_TIME</title>
<path fill="none" stroke="black" d="M532.4,-805.02C544.38,-801.71 557.1,-796.19 566,-787 569.65,-783.23 612.35,-630.17 628.36,-588.55"/>
<polygon fill="black" stroke="black" points="631.4,-590.32 632.57,-579.79 625.09,-587.29 631.4,-590.32"/>
<text text-anchor="middle" x="597.5" y="-728.8" font-family="Times,serif" font-size="14.00">PyPI</text>
</g>
<!-- _GH__CASEWORK__CASEWORK_GITHUB_IO -->
<g id="node14" class="node">
<title>_GH__CASEWORK__CASEWORK_GITHUB_IO</title>
<g id="a_node14"><a xlink:href="https://github.com/casework/casework.github.io" xlink:title="CASE website\nadopts new case&#45;utils">
<path fill="#8ec7d2" stroke="#0d6986" d="M788.5,-950C788.5,-950 679.5,-950 679.5,-950 673.5,-950 667.5,-944 667.5,-938 667.5,-938 667.5,-924 667.5,-924 667.5,-918 673.5,-912 679.5,-912 679.5,-912 788.5,-912 788.5,-912 794.5,-912 800.5,-918 800.5,-924 800.5,-924 800.5,-938 800.5,-938 800.5,-944 794.5,-950 788.5,-950"/>
<text text-anchor="middle" x="734" y="-934.8" font-family="Times,serif" font-size="14.00">CASE website</text>
<text text-anchor="middle" x="734" y="-919.8" font-family="Times,serif" font-size="14.00">adopts new case&#45;utils</text>
</a>
</g>
</g>
<!-- _GH__CASEWORK__CASE_UTILITIES_PYTHON&#45;&gt;_GH__CASEWORK__CASEWORK_GITHUB_IO -->
<g id="edge13" class="edge">
<title>_GH__CASEWORK__CASE_UTILITIES_PYTHON&#45;&gt;_GH__CASEWORK__CASEWORK_GITHUB_IO</title>
<path fill="none" stroke="black" d="M520.91,-829.48C545.57,-850.44 587.61,-883.42 629,-903 637.56,-907.05 646.81,-910.6 656.14,-913.68"/>
<polygon fill="black" stroke="black" points="655.05,-917.01 665.64,-916.63 657.13,-910.32 655.05,-917.01"/>
<text text-anchor="middle" x="597.5" y="-896.8" font-family="Times,serif" font-size="14.00">PyPI</text>
</g>
<!-- _GH__CASEWORK__CASE_UTILITIES_PYTHON&#45;&gt;_GH__CASEWORK__CASE_IMPLEMENTATON_PROV_O -->
<g id="edge11" class="edge">
<title>_GH__CASEWORK__CASE_UTILITIES_PYTHON&#45;&gt;_GH__CASEWORK__CASE_IMPLEMENTATON_PROV_O</title>
<path fill="none" stroke="black" d="M504.51,-829.35C517.75,-871.72 555.83,-972 629,-1011 696.7,-1047.08 1100.24,-1047 1285,-995 1289.21,-993.81 1293.45,-992.22 1297.59,-990.38"/>
<polygon fill="black" stroke="black" points="1298.84,-993.67 1306.25,-986.09 1295.73,-987.4 1298.84,-993.67"/>
<text text-anchor="middle" x="896.5" y="-1039.8" font-family="Times,serif" font-size="14.00">PyPI</text>
</g>
<!-- _GH__KCHASON__CASE_VALIDATION_ACTION -->
<g id="node19" class="node">
<title>_GH__KCHASON__CASE_VALIDATION_ACTION</title>
<g id="a_node19"><a xlink:href="https://github.com/kchason/case-validation-action" xlink:title="case&#45;validation&#45;action\nreleases">
<path fill="#8ec7d2" stroke="#0d6986" d="M790,-634C790,-634 678,-634 678,-634 672,-634 666,-628 666,-622 666,-622 666,-608 666,-608 666,-602 672,-596 678,-596 678,-596 790,-596 790,-596 796,-596 802,-602 802,-608 802,-608 802,-622 802,-622 802,-628 796,-634 790,-634"/>
<text text-anchor="middle" x="734" y="-618.8" font-family="Times,serif" font-size="14.00">case&#45;validation&#45;action</text>
<text text-anchor="middle" x="734" y="-603.8" font-family="Times,serif" font-size="14.00">releases</text>
</a>
</g>
</g>
<!-- _GH__CASEWORK__CASE_UTILITIES_PYTHON&#45;&gt;_GH__KCHASON__CASE_VALIDATION_ACTION -->
<g id="edge12" class="edge">
<title>_GH__CASEWORK__CASE_UTILITIES_PYTHON&#45;&gt;_GH__KCHASON__CASE_VALIDATION_ACTION</title>
<path fill="none" stroke="black" d="M532.43,-801.91C543.62,-798.34 555.82,-793.46 566,-787 598.4,-766.44 670.76,-686.27 708.71,-643.02"/>
<polygon fill="black" stroke="black" points="711.32,-645.36 715.26,-635.53 706.05,-640.75 711.32,-645.36"/>
<text text-anchor="middle" x="597.5" y="-775.8" font-family="Times,serif" font-size="14.00">PyPI</text>
</g>
<!-- _GH__CASEWORK__CASEWORK_GITHUB_IO&#45;&gt;_GH__AJNELSON_NIST__CASE_EXAMPLES_QC -->
<g id="edge14" class="edge">
<title>_GH__CASEWORK__CASEWORK_GITHUB_IO&#45;&gt;_GH__AJNELSON_NIST__CASE_EXAMPLES_QC</title>
<path fill="none" stroke="black" d="M800.8,-933.43C854.07,-935.4 929.9,-938.2 990.11,-940.42"/>
<polygon fill="black" stroke="black" points="989.92,-943.92 1000.04,-940.79 990.18,-936.92 989.92,-943.92"/>
<text text-anchor="middle" x="896.5" y="-956.8" font-family="Times,serif" font-size="14.00">Git sub&#45;</text>
<text text-anchor="middle" x="896.5" y="-941.8" font-family="Times,serif" font-size="14.00">module</text>
</g>
<!-- _GH__CASEWORK__CASE_CORPORA -->
<g id="node15" class="node">
<title>_GH__CASEWORK__CASE_CORPORA</title>
<g id="a_node15"><a xlink:href="https://github.com/casework/CASE-Corpora" xlink:title="CASE&#45;Corpora\nadopts new case&#45;prov">
<path fill="#8ec7d2" stroke="#0d6986" d="M1557,-985C1557,-985 1447,-985 1447,-985 1441,-985 1435,-979 1435,-973 1435,-973 1435,-959 1435,-959 1435,-953 1441,-947 1447,-947 1447,-947 1557,-947 1557,-947 1563,-947 1569,-953 1569,-959 1569,-959 1569,-973 1569,-973 1569,-979 1563,-985 1557,-985"/>
<text text-anchor="middle" x="1502" y="-969.8" font-family="Times,serif" font-size="14.00">CASE&#45;Corpora</text>
<text text-anchor="middle" x="1502" y="-954.8" font-family="Times,serif" font-size="14.00">adopts new case&#45;prov</text>
</a>
</g>
</g>
<!-- _GH__CASEWORK__CASE_IMPLEMENTATON_PROV_O&#45;&gt;_GH__CASEWORK__CASE_CORPORA -->
<g id="edge6" class="edge">
<title>_GH__CASEWORK__CASE_IMPLEMENTATON_PROV_O&#45;&gt;_GH__CASEWORK__CASE_CORPORA</title>
<path fill="none" stroke="black" d="M1372.17,-966C1387.03,-966 1405.18,-966 1423.11,-966"/>
<polygon fill="black" stroke="black" points="1423,-969.5 1433,-966 1423,-962.5 1423,-969.5"/>
<text text-anchor="middle" x="1403.5" y="-969.8" font-family="Times,serif" font-size="14.00">PyPI</text>
</g>
<!-- _GH__CASEWORK__CASE_IMPLEMENTATON_UFED_XML -->
<g id="node17" class="node">
<title>_GH__CASEWORK__CASE_IMPLEMENTATON_UFED_XML</title>
<g id="a_node17"><a xlink:href="https://github.com/casework/CASE-Implementation-UFED-XML" xlink:title="CASE&#45;Implementation&#45;UFED&#45;XML\nadopts new case&#45;validation&#45;action">
<path fill="#8ec7d2" stroke="#0d6986" d="M1185,-632C1185,-632 991,-632 991,-632 985,-632 979,-626 979,-620 979,-620 979,-606 979,-606 979,-600 985,-594 991,-594 991,-594 1185,-594 1185,-594 1191,-594 1197,-600 1197,-606 1197,-606 1197,-620 1197,-620 1197,-626 1191,-632 1185,-632"/>
<text text-anchor="middle" x="1088" y="-616.8" font-family="Times,serif" font-size="14.00">CASE&#45;Implementation&#45;UFED&#45;XML</text>
<text text-anchor="middle" x="1088" y="-601.8" font-family="Times,serif" font-size="14.00">adopts new case&#45;validation&#45;action</text>
</a>
</g>
</g>
<!-- _GH__CASEWORK__CASE_IMPLEMENTATON_XRY -->
<g id="node18" class="node">
<title>_GH__CASEWORK__CASE_IMPLEMENTATON_XRY</title>
<g id="a_node18"><a xlink:href="https://github.com/casework/CASE-Implementation-XRY" xlink:title="CASE&#45;Implementation&#45;XRY adopts\nnew case&#45;validation&#45;action">
<path fill="#8ec7d2" stroke="#0d6986" d="M1183,-688C1183,-688 993,-688 993,-688 987,-688 981,-682 981,-676 981,-676 981,-662 981,-662 981,-656 987,-650 993,-650 993,-650 1183,-650 1183,-650 1189,-650 1195,-656 1195,-662 1195,-662 1195,-676 1195,-676 1195,-682 1189,-688 1183,-688"/>
<text text-anchor="middle" x="1088" y="-672.8" font-family="Times,serif" font-size="14.00">CASE&#45;Implementation&#45;XRY adopts</text>
<text text-anchor="middle" x="1088" y="-657.8" font-family="Times,serif" font-size="14.00">new case&#45;validation&#45;action</text>
</a>
</g>
</g>
<!-- _GH__KCHASON__CASE_VALIDATION_ACTION&#45;&gt;_GH__CASEWORK__CASE_IMPLEMENTATON_PYPI_EXIFREAD -->
<g id="edge17" class="edge">
<title>_GH__KCHASON__CASE_VALIDATION_ACTION&#45;&gt;_GH__CASEWORK__CASE_IMPLEMENTATON_PYPI_EXIFREAD</title>
<path fill="none" stroke="black" d="M802.41,-607.38C815.22,-603.96 828.03,-599.05 839,-592 900.78,-552.29 1023.01,-364.61 1068.97,-291.89"/>
<polygon fill="black" stroke="black" points="1071.76,-294.02 1074.12,-283.7 1065.83,-290.29 1071.76,-294.02"/>
<text text-anchor="middle" x="896.5" y="-593.8" font-family="Times,serif" font-size="14.00">GitHub</text>
<text text-anchor="middle" x="896.5" y="-578.8" font-family="Times,serif" font-size="14.00">Action</text>
</g>
<!-- _GH__KCHASON__CASE_VALIDATION_ACTION&#45;&gt;_GH__CASEWORK__CASE_IMPLEMENTATON_PYPI_PILLOW -->
<g id="edge18" class="edge">
<title>_GH__KCHASON__CASE_VALIDATION_ACTION&#45;&gt;_GH__CASEWORK__CASE_IMPLEMENTATON_PYPI_PILLOW</title>
<path fill="none" stroke="black" d="M802.32,-612.38C816.13,-608.75 829.37,-602.49 839,-592 859.61,-569.54 849.36,-485.51 857,-456 883.45,-353.81 862.9,-302.56 944,-235 951.92,-228.4 960.95,-223.19 970.52,-219.1"/>
<polygon fill="black" stroke="black" points="971.58,-222.44 979.69,-215.62 969.09,-215.9 971.58,-222.44"/>
<text text-anchor="middle" x="896.5" y="-474.8" font-family="Times,serif" font-size="14.00">GitHub</text>
<text text-anchor="middle" x="896.5" y="-459.8" font-family="Times,serif" font-size="14.00">Action</text>
</g>
<!-- _GH__KCHASON__CASE_VALIDATION_ACTION&#45;&gt;_GH__CASEWORK__CASE_MAPPING_TEMPLATE_PYTHON -->
<g id="edge21" class="edge">
<title>_GH__KCHASON__CASE_VALIDATION_ACTION&#45;&gt;_GH__CASEWORK__CASE_MAPPING_TEMPLATE_PYTHON</title>
<path fill="none" stroke="black" d="M802.44,-613.1C816.42,-609.48 829.71,-603.03 839,-592 866.45,-559.42 831.46,-243.1 857,-209 884.14,-172.77 930.38,-156.96 974.32,-150.71"/>
<polygon fill="black" stroke="black" points="974.73,-154.19 984.22,-149.48 973.87,-147.24 974.73,-154.19"/>
<text text-anchor="middle" x="896.5" y="-227.8" font-family="Times,serif" font-size="14.00">GitHub</text>
<text text-anchor="middle" x="896.5" y="-212.8" font-family="Times,serif" font-size="14.00">Action</text>
</g>
<!-- _GH__KCHASON__CASE_VALIDATION_ACTION&#45;&gt;_GH__CASEWORK__CASE_IMPLEMENTATON_UFED_XML -->
<g id="edge19" class="edge">
<title>_GH__KCHASON__CASE_VALIDATION_ACTION&#45;&gt;_GH__CASEWORK__CASE_IMPLEMENTATON_UFED_XML</title>
<path fill="none" stroke="black" d="M802.44,-613.7C820.18,-613.41 839.31,-613.14 857,-613 892.85,-612.71 931.84,-612.62 967.37,-612.63"/>
<polygon fill="black" stroke="black" points="967.25,-616.13 977.26,-612.63 967.26,-609.13 967.25,-616.13"/>
<text text-anchor="middle" x="896.5" y="-631.8" font-family="Times,serif" font-size="14.00">GitHub</text>
<text text-anchor="middle" x="896.5" y="-616.8" font-family="Times,serif" font-size="14.00">Action</text>
</g>
<!-- _GH__KCHASON__CASE_VALIDATION_ACTION&#45;&gt;_GH__CASEWORK__CASE_IMPLEMENTATON_XRY -->
<g id="edge20" class="edge">
<title>_GH__KCHASON__CASE_VALIDATION_ACTION&#45;&gt;_GH__CASEWORK__CASE_IMPLEMENTATON_XRY</title>
<path fill="none" stroke="black" d="M802.48,-631.92C820.15,-635.95 839.22,-639.96 857,-643 893.44,-649.22 933.38,-654.33 969.61,-658.32"/>
<polygon fill="black" stroke="black" points="968.91,-661.76 979.23,-659.36 969.66,-654.8 968.91,-661.76"/>
<text text-anchor="middle" x="896.5" y="-671.8" font-family="Times,serif" font-size="14.00">GitHub</text>
<text text-anchor="middle" x="896.5" y="-656.8" font-family="Times,serif" font-size="14.00">Action</text>
</g>
<!-- _GH__CASEWORK__CASE_BINDINGS_CSHARP_MONITOR -->
<g id="node20" class="node">
<title>_GH__CASEWORK__CASE_BINDINGS_CSHARP_MONITOR</title>
<g id="a_node20"><a xlink:href="https://github.com/casework/CASE-Bindings-CSharp-Monitor" xlink:title="CASE Bindings CSharp Monitor\ntests NuGet package with validation action">
<path fill="#8ec7d2" stroke="#0d6986" d="M1201.5,-786C1201.5,-786 974.5,-786 974.5,-786 968.5,-786 962.5,-780 962.5,-774 962.5,-774 962.5,-760 962.5,-760 962.5,-754 968.5,-748 974.5,-748 974.5,-748 1201.5,-748 1201.5,-748 1207.5,-748 1213.5,-754 1213.5,-760 1213.5,-760 1213.5,-774 1213.5,-774 1213.5,-780 1207.5,-786 1201.5,-786"/>
<text text-anchor="middle" x="1088" y="-770.8" font-family="Times,serif" font-size="14.00">CASE Bindings CSharp Monitor</text>
<text text-anchor="middle" x="1088" y="-755.8" font-family="Times,serif" font-size="14.00">tests NuGet package with validation action</text>
</a>
</g>
</g>
<!-- _GH__KCHASON__CASE_VALIDATION_ACTION&#45;&gt;_GH__CASEWORK__CASE_BINDINGS_CSHARP_MONITOR -->
<g id="edge16" class="edge">
<title>_GH__KCHASON__CASE_VALIDATION_ACTION&#45;&gt;_GH__CASEWORK__CASE_BINDINGS_CSHARP_MONITOR</title>
<path fill="none" stroke="black" d="M767.49,-634.47C792,-649.09 826.49,-669.5 857,-687 891.86,-706.99 906.97,-703.21 936,-731 940.9,-735.69 938.36,-740.23 944,-744 946.6,-745.74 949.29,-747.37 952.06,-748.89"/>
<polygon fill="black" stroke="black" points="950.46,-752 960.98,-753.26 953.54,-745.71 950.46,-752"/>
<text text-anchor="middle" x="896.5" y="-749.8" font-family="Times,serif" font-size="14.00">GitHub</text>
<text text-anchor="middle" x="896.5" y="-734.8" font-family="Times,serif" font-size="14.00">Action</text>
</g>
<!-- _GH__DOD_CYBER_CRIME_CENTER__SQLITE_DISSECT -->
<g id="node22" class="node">
<title>_GH__DOD_CYBER_CRIME_CENTER__SQLITE_DISSECT</title>
<g id="a_node22"><a xlink:href="https://github.com/dod-cyber-crime-center/sqlite-dissect" xlink:title="sqlite&#45;dissect\nadopts new case&#45;validation&#45;action">
<path fill="#8ec7d2" stroke="#0d6986" d="M1176.5,-92C1176.5,-92 999.5,-92 999.5,-92 993.5,-92 987.5,-86 987.5,-80 987.5,-80 987.5,-66 987.5,-66 987.5,-60 993.5,-54 999.5,-54 999.5,-54 1176.5,-54 1176.5,-54 1182.5,-54 1188.5,-60 1188.5,-66 1188.5,-66 1188.5,-80 1188.5,-80 1188.5,-86 1182.5,-92 1176.5,-92"/>
<text text-anchor="middle" x="1088" y="-76.8" font-family="Times,serif" font-size="14.00">sqlite&#45;dissect</text>
<text text-anchor="middle" x="1088" y="-61.8" font-family="Times,serif" font-size="14.00">adopts new case&#45;validation&#45;action</text>
</a>
</g>
</g>
<!-- _GH__KCHASON__CASE_VALIDATION_ACTION&#45;&gt;_GH__DOD_CYBER_CRIME_CENTER__SQLITE_DISSECT -->
<g id="edge22" class="edge">
<title>_GH__KCHASON__CASE_VALIDATION_ACTION&#45;&gt;_GH__DOD_CYBER_CRIME_CENTER__SQLITE_DISSECT</title>
<g id="a_edge22"><a xlink:href="https://github.com/dod-cyber-crime-center/sqlite-dissect/pull/31" xlink:title="TODO: PR 31">
<path fill="none" stroke="black" d="M802.5,-613.15C816.48,-609.52 829.75,-603.06 839,-592 871.24,-553.44 826.04,-179.6 857,-140 885.34,-103.75 932.13,-86.32 976.14,-78.21"/>
<polygon fill="black" stroke="black" points="976.48,-81.71 985.77,-76.6 975.33,-74.8 976.48,-81.71"/>
</a>
</g>
<g id="a_edge22&#45;label"><a xlink:href="https://github.com/dod-cyber-crime-center/sqlite-dissect/pull/31" xlink:title="TODO: PR 31">
<text text-anchor="middle" x="896.5" y="-143.8" font-family="Times,serif" font-size="14.00">TODO: PR 31</text>
</a>
</g>
</g>
<!-- _GH__CIPHERTECHSOLUTIONS__CASE_BINDINGS_CSHARP&#45;&gt;_GH__CASEWORK__CASE_BINDINGS_CSHARP_MONITOR -->
<g id="edge15" class="edge">
<title>_GH__CIPHERTECHSOLUTIONS__CASE_BINDINGS_CSHARP&#45;&gt;_GH__CASEWORK__CASE_BINDINGS_CSHARP_MONITOR</title>
<path fill="none" stroke="black" d="M820.98,-766.21C833.08,-766.12 845.35,-766.05 857,-766 887.41,-765.88 920.07,-765.91 950.97,-766.03"/>
<polygon fill="black" stroke="black" points="950.73,-769.53 960.75,-766.07 950.76,-762.53 950.73,-769.53"/>
<text text-anchor="middle" x="896.5" y="-769.8" font-family="Times,serif" font-size="14.00">NuGet</text>
</g>
</g>
</svg>
