<?xml version="1.0" encoding="UTF-8" standalone="no"?>
<!DOCTYPE svg PUBLIC "-//W3C//DTD SVG 1.1//EN"
 "http://www.w3.org/Graphics/SVG/1.1/DTD/svg11.dtd">
<!-- Generated by graphviz version 8.0.3 (20230416.2022)
 -->
<!-- Title: cdo_release_flow Pages: 1 -->
<svg width="2146pt" height="1022pt"
 viewBox="0.00 0.00 2146.00 1022.00" xmlns="http://www.w3.org/2000/svg" xmlns:xlink="http://www.w3.org/1999/xlink">
<g id="graph0" class="graph" transform="scale(1 1) rotate(0) translate(4 1018)">
<title>cdo_release_flow</title>
<polygon fill="white" stroke="none" points="-4,4 -4,-1018 2142,-1018 2142,4 -4,4"/>
<text text-anchor="middle" x="1069" y="-38.8" font-family="Times,serif" font-size="14.00">Release flow of CDO ontologies</text>
<text text-anchor="middle" x="1069" y="-7.8" font-family="Times,serif" font-size="14.00">Nodes link to the respective Git repository.</text>
<g id="clust1" class="cluster">
<title>cluster_uco_0_9_1</title>
<polygon fill="none" stroke="black" points="0,-62 0,-178 168,-178 168,-62 0,-62"/>
<text text-anchor="middle" x="84" y="-162.8" font-family="Times,serif" font-size="14.00">Adoption of UCO 0.9.1</text>
</g>
<g id="clust2" class="cluster">
<title>cluster_case_0_7_1</title>
<polygon fill="none" stroke="black" points="8,-70 8,-147 160,-147 160,-70 8,-70"/>
<text text-anchor="middle" x="84" y="-131.8" font-family="Times,serif" font-size="14.00">Adoption of CASE 0.7.1</text>
</g>
<g id="clust3" class="cluster">
<title>cluster_uco_1_2_0</title>
<polygon fill="none" stroke="black" points="26,-186 26,-980 2130,-980 2130,-186 26,-186"/>
<text text-anchor="middle" x="1078" y="-964.8" font-family="Times,serif" font-size="14.00">Adoption of UCO 1.2.0</text>
</g>
<g id="clust4" class="cluster">
<title>cluster_case_1_2_0</title>
<polygon fill="none" stroke="black" points="245.5,-352 245.5,-949 2122,-949 2122,-352 245.5,-352"/>
<text text-anchor="middle" x="1183.75" y="-933.8" font-family="Times,serif" font-size="14.00">Adoption of CASE 1.2.0</text>
</g>
<g id="clust5" class="cluster">
<title>cluster_case_utils_0_10_0</title>
<polygon fill="none" stroke="black" points="1526,-360 1526,-918 2114,-918 2114,-360 1526,-360"/>
<text text-anchor="middle" x="1820" y="-902.8" font-family="Times,serif" font-size="14.00">Adoption of case&#45;utils 0.10.0</text>
</g>
<g id="clust7" class="cluster">
<title>cluster_case_validation_action_2_6</title>
<polygon fill="none" stroke="black" points="1534,-368 1534,-756 2106,-756 2106,-368 1534,-368"/>
<text text-anchor="middle" x="1820" y="-740.8" font-family="Times,serif" font-size="14.00">Adoption of case&#45;validation&#45;action 2.6</text>
</g>
<g id="clust8" class="cluster">
<title>cluster_case_bindings_csharp_0_4_0</title>
<polygon fill="none" stroke="black" points="1559.5,-648 1559.5,-725 2098,-725 2098,-648 1559.5,-648"/>
<text text-anchor="middle" x="1828.75" y="-709.8" font-family="Times,serif" font-size="14.00">Adoption of CSharp bindings 0.4.0</text>
</g>
<g id="clust6" class="cluster">
<title>cluster_case_prov_0_7_0</title>
<polygon fill="none" stroke="black" points="1569,-764 1569,-841 1739,-841 1739,-764 1569,-764"/>
<text text-anchor="middle" x="1654" y="-825.8" font-family="Times,serif" font-size="14.00">Adoption of case&#45;prov 0.7.0</text>
</g>
<g id="clust9" class="cluster">
<title>cluster_case_utils_0_11_0</title>
<polygon fill="none" stroke="black" points="507,-463 507,-818 1467,-818 1467,-463 507,-463"/>
<text text-anchor="middle" x="987" y="-802.8" font-family="Times,serif" font-size="14.00">Adoption of case&#45;utils 0.11.0</text>
</g>
<g id="clust11" class="cluster">
<title>cluster_case_validation_action_2_6_1</title>
<polygon fill="none" stroke="black" points="702,-471 702,-558 1187,-558 1187,-471 702,-471"/>
<text text-anchor="middle" x="944.5" y="-542.8" font-family="Times,serif" font-size="14.00">Adoption of case&#45;validation&#45;action 2.6.1</text>
</g>
<g id="clust10" class="cluster">
<title>cluster_case_prov_0_8_0</title>
<polygon fill="none" stroke="black" points="1289,-707 1289,-784 1459,-784 1459,-707 1289,-707"/>
<text text-anchor="middle" x="1374" y="-768.8" font-family="Times,serif" font-size="14.00">Adoption of case&#45;prov 0.8.0</text>
</g>
<!-- _GH__CASEWORK__CASE_MAPPING_TEMPLATE_STUBS -->
<g id="node1" class="node">
<title>_GH__CASEWORK__CASE_MAPPING_TEMPLATE_STUBS</title>
<g id="a_node1"><a xlink:href="https://github.com/casework/CASE-Mapping-Template-Stubs" xlink:title="CASE Mapping\nTemplate Stubs">
<path fill="#8ec7d2" stroke="#0d6986" d="M124,-116C124,-116 44,-116 44,-116 38,-116 32,-110 32,-104 32,-104 32,-90 32,-90 32,-84 38,-78 44,-78 44,-78 124,-78 124,-78 130,-78 136,-84 136,-90 136,-90 136,-104 136,-104 136,-110 130,-116 124,-116"/>
<text text-anchor="middle" x="84" y="-100.8" font-family="Times,serif" font-size="14.00">CASE Mapping</text>
<text text-anchor="middle" x="84" y="-85.8" font-family="Times,serif" font-size="14.00">Template Stubs</text>
</a>
</g>
</g>
<!-- _GH__CYBER_DOMAIN_ONTOLOGY__CDO_SHAPES_EXAMPLE -->
<g id="node2" class="node">
<title>_GH__CYBER_DOMAIN_ONTOLOGY__CDO_SHAPES_EXAMPLE</title>
<g id="a_node2"><a xlink:href="https://github.com/Cyber-Domain-Ontology/CDO-Shapes-Example" xlink:title="CDO shapes profile\nupdates">
<path fill="#8ec7d2" stroke="#0d6986" d="M357,-232C357,-232 256,-232 256,-232 250,-232 244,-226 244,-220 244,-220 244,-206 244,-206 244,-200 250,-194 256,-194 256,-194 357,-194 357,-194 363,-194 369,-200 369,-206 369,-206 369,-220 369,-220 369,-226 363,-232 357,-232"/>
<text text-anchor="middle" x="306.5" y="-216.8" font-family="Times,serif" font-size="14.00">CDO shapes profile</text>
<text text-anchor="middle" x="306.5" y="-201.8" font-family="Times,serif" font-size="14.00">updates</text>
</a>
</g>
</g>
<!-- _GH__UCOPROJECT__ONTOLOGY_UNIFIEDCYBERONTOLOGY_ORG -->
<g id="node3" class="node">
<title>_GH__UCOPROJECT__ONTOLOGY_UNIFIEDCYBERONTOLOGY_ORG</title>
<g id="a_node3"><a xlink:href="https://github.com/ucoProject/ontology.unifiedcyberontology.org" xlink:title="UCO documentation\nregenerated">
<path fill="#8ec7d2" stroke="#0d6986" d="M359.5,-344C359.5,-344 253.5,-344 253.5,-344 247.5,-344 241.5,-338 241.5,-332 241.5,-332 241.5,-318 241.5,-318 241.5,-312 247.5,-306 253.5,-306 253.5,-306 359.5,-306 359.5,-306 365.5,-306 371.5,-312 371.5,-318 371.5,-318 371.5,-332 371.5,-332 371.5,-338 365.5,-344 359.5,-344"/>
<text text-anchor="middle" x="306.5" y="-328.8" font-family="Times,serif" font-size="14.00">UCO documentation</text>
<text text-anchor="middle" x="306.5" y="-313.8" font-family="Times,serif" font-size="14.00">regenerated</text>
</a>
</g>
</g>
<!-- _GH__CASEWORK__ONTOLOGY_CASEONTOLOGY_ORG -->
<g id="node9" class="node">
<title>_GH__CASEWORK__ONTOLOGY_CASEONTOLOGY_ORG</title>
<g id="a_node9"><a xlink:href="https://github.com/casework/ontology.caseontology.org" xlink:title="CASE documentation\nregenerated">
<path fill="#8ec7d2" stroke="#0d6986" d="M605,-432C605,-432 493,-432 493,-432 487,-432 481,-426 481,-420 481,-420 481,-406 481,-406 481,-400 487,-394 493,-394 493,-394 605,-394 605,-394 611,-394 617,-400 617,-406 617,-406 617,-420 617,-420 617,-426 611,-432 605,-432"/>
<text text-anchor="middle" x="549" y="-416.8" font-family="Times,serif" font-size="14.00">CASE documentation</text>
<text text-anchor="middle" x="549" y="-401.8" font-family="Times,serif" font-size="14.00">regenerated</text>
</a>
</g>
</g>
<!-- _GH__UCOPROJECT__ONTOLOGY_UNIFIEDCYBERONTOLOGY_ORG&#45;&gt;_GH__CASEWORK__ONTOLOGY_CASEONTOLOGY_ORG -->
<g id="edge25" class="edge">
<title>_GH__UCOPROJECT__ONTOLOGY_UNIFIEDCYBERONTOLOGY_ORG&#45;&gt;_GH__CASEWORK__ONTOLOGY_CASEONTOLOGY_ORG</title>
<path fill="none" stroke="black" d="M364.15,-344.42C367.49,-345.62 370.79,-346.82 374,-348 419.03,-364.62 431.57,-371.52 480.9,-389.89"/>
<polygon fill="black" stroke="black" points="479.33,-393.41 489.92,-393.59 481.75,-386.84 479.33,-393.41"/>
<text text-anchor="middle" x="427.5" y="-401.8" font-family="Times,serif" font-size="14.00">Tech&#45;</text>
<text text-anchor="middle" x="427.5" y="-386.8" font-family="Times,serif" font-size="14.00">check</text>
</g>
<!-- _GH__UCOPROJECT__UCO -->
<g id="node4" class="node">
<title>_GH__UCOPROJECT__UCO</title>
<g id="a_node4"><a xlink:href="https://github.com/ucoProject/UCO" xlink:title="UCO Ontology\nreleases">
<path fill="#8ec7d2" stroke="#0d6986" d="M122,-316C122,-316 46,-316 46,-316 40,-316 34,-310 34,-304 34,-304 34,-290 34,-290 34,-284 40,-278 46,-278 46,-278 122,-278 122,-278 128,-278 134,-284 134,-290 134,-290 134,-304 134,-304 134,-310 128,-316 122,-316"/>
<text text-anchor="middle" x="84" y="-300.8" font-family="Times,serif" font-size="14.00">UCO Ontology</text>
<text text-anchor="middle" x="84" y="-285.8" font-family="Times,serif" font-size="14.00">releases</text>
</a>
</g>
</g>
<!-- _GH__UCOPROJECT__UCO&#45;&gt;_GH__CYBER_DOMAIN_ONTOLOGY__CDO_SHAPES_EXAMPLE -->
<g id="edge27" class="edge">
<title>_GH__UCOPROJECT__UCO&#45;&gt;_GH__CYBER_DOMAIN_ONTOLOGY__CDO_SHAPES_EXAMPLE</title>
<path fill="none" stroke="black" d="M107.79,-277.78C125.34,-264.01 150.77,-246.17 176,-236 193.88,-228.79 214.04,-223.84 233.04,-220.44"/>
<polygon fill="black" stroke="black" points="233.47,-223.75 242.76,-218.65 232.33,-216.84 233.47,-223.75"/>
<text text-anchor="middle" x="198.5" y="-254.8" font-family="Times,serif" font-size="14.00">Git sub&#45;</text>
<text text-anchor="middle" x="198.5" y="-239.8" font-family="Times,serif" font-size="14.00">module</text>
</g>
<!-- _GH__UCOPROJECT__UCO&#45;&gt;_GH__UCOPROJECT__ONTOLOGY_UNIFIEDCYBERONTOLOGY_ORG -->
<g id="edge28" class="edge">
<title>_GH__UCOPROJECT__UCO&#45;&gt;_GH__UCOPROJECT__ONTOLOGY_UNIFIEDCYBERONTOLOGY_ORG</title>
<path fill="none" stroke="black" d="M134.48,-303.28C162.78,-306.88 198.83,-311.45 230.53,-315.48"/>
<polygon fill="black" stroke="black" points="229.74,-319.03 240.1,-316.82 230.62,-312.09 229.74,-319.03"/>
<text text-anchor="middle" x="198.5" y="-331.8" font-family="Times,serif" font-size="14.00">Git sub&#45;</text>
<text text-anchor="middle" x="198.5" y="-316.8" font-family="Times,serif" font-size="14.00">module</text>
</g>
<!-- _GH__UCOPROJECT__UCO_PROFILE_EXAMPLE -->
<g id="node6" class="node">
<title>_GH__UCOPROJECT__UCO_PROFILE_EXAMPLE</title>
<g id="a_node6"><a xlink:href="https://github.com/ucoProject/UCO-Profile-Example" xlink:title="UCO example profile\nupdates">
<path fill="#8ec7d2" stroke="#0d6986" d="M362,-288C362,-288 251,-288 251,-288 245,-288 239,-282 239,-276 239,-276 239,-262 239,-262 239,-256 245,-250 251,-250 251,-250 362,-250 362,-250 368,-250 374,-256 374,-262 374,-262 374,-276 374,-276 374,-282 368,-288 362,-288"/>
<text text-anchor="middle" x="306.5" y="-272.8" font-family="Times,serif" font-size="14.00">UCO example profile</text>
<text text-anchor="middle" x="306.5" y="-257.8" font-family="Times,serif" font-size="14.00">updates</text>
</a>
</g>
</g>
<!-- _GH__UCOPROJECT__UCO&#45;&gt;_GH__UCOPROJECT__UCO_PROFILE_EXAMPLE -->
<g id="edge29" class="edge">
<title>_GH__UCOPROJECT__UCO&#45;&gt;_GH__UCOPROJECT__UCO_PROFILE_EXAMPLE</title>
<path fill="none" stroke="black" d="M134.26,-283.28C147.7,-280.03 162.32,-276.95 176,-275 192.79,-272.6 210.92,-271.1 228.14,-270.17"/>
<polygon fill="black" stroke="black" points="227.91,-273.63 237.73,-269.66 227.57,-266.64 227.91,-273.63"/>
<text text-anchor="middle" x="198.5" y="-293.8" font-family="Times,serif" font-size="14.00">Git sub&#45;</text>
<text text-anchor="middle" x="198.5" y="-278.8" font-family="Times,serif" font-size="14.00">module</text>
</g>
<!-- _GH__CASEWORK__CASE -->
<g id="node8" class="node">
<title>_GH__CASEWORK__CASE</title>
<g id="a_node8"><a xlink:href="https://github.com/casework/CASE" xlink:title="CASE Ontology\nreleases">
<path fill="#8ec7d2" stroke="#0d6986" d="M347.5,-565C347.5,-565 265.5,-565 265.5,-565 259.5,-565 253.5,-559 253.5,-553 253.5,-553 253.5,-539 253.5,-539 253.5,-533 259.5,-527 265.5,-527 265.5,-527 347.5,-527 347.5,-527 353.5,-527 359.5,-533 359.5,-539 359.5,-539 359.5,-553 359.5,-553 359.5,-559 353.5,-565 347.5,-565"/>
<text text-anchor="middle" x="306.5" y="-549.8" font-family="Times,serif" font-size="14.00">CASE Ontology</text>
<text text-anchor="middle" x="306.5" y="-534.8" font-family="Times,serif" font-size="14.00">releases</text>
</a>
</g>
</g>
<!-- _GH__UCOPROJECT__UCO&#45;&gt;_GH__CASEWORK__CASE -->
<g id="edge26" class="edge">
<title>_GH__UCOPROJECT__UCO&#45;&gt;_GH__CASEWORK__CASE</title>
<path fill="none" stroke="black" d="M93.05,-316.43C112,-359.83 163.57,-465.32 239,-523 240.47,-524.12 241.99,-525.19 243.57,-526.21"/>
<polygon fill="black" stroke="black" points="241.57,-529.67 252,-531.52 245,-523.57 241.57,-529.67"/>
<text text-anchor="middle" x="198.5" y="-521.8" font-family="Times,serif" font-size="14.00">Git sub&#45;</text>
<text text-anchor="middle" x="198.5" y="-506.8" font-family="Times,serif" font-size="14.00">module</text>
</g>
<!-- _GH__UCOPROJECT__UCO_PROFILE_BFO -->
<g id="node5" class="node">
<title>_GH__UCOPROJECT__UCO_PROFILE_BFO</title>
<g id="a_node5"><a xlink:href="https://github.com/ucoProject/UCO-Profile-BFO" xlink:title="UCO BFO profile\nupdates">
<path fill="#8ec7d2" stroke="#0d6986" d="M594.5,-312C594.5,-312 503.5,-312 503.5,-312 497.5,-312 491.5,-306 491.5,-300 491.5,-300 491.5,-286 491.5,-286 491.5,-280 497.5,-274 503.5,-274 503.5,-274 594.5,-274 594.5,-274 600.5,-274 606.5,-280 606.5,-286 606.5,-286 606.5,-300 606.5,-300 606.5,-306 600.5,-312 594.5,-312"/>
<text text-anchor="middle" x="549" y="-296.8" font-family="Times,serif" font-size="14.00">UCO BFO profile</text>
<text text-anchor="middle" x="549" y="-281.8" font-family="Times,serif" font-size="14.00">updates</text>
</a>
</g>
</g>
<!-- _GH__UCOPROJECT__UCO_PROFILE_EXAMPLE&#45;&gt;_GH__UCOPROJECT__UCO_PROFILE_BFO -->
<g id="edge30" class="edge">
<title>_GH__UCOPROJECT__UCO_PROFILE_EXAMPLE&#45;&gt;_GH__UCOPROJECT__UCO_PROFILE_BFO</title>
<path fill="none" stroke="black" d="M374.49,-275.69C407.46,-278.98 447.12,-282.93 480.19,-286.23"/>
<polygon fill="black" stroke="black" points="479.84,-289.82 490.14,-287.33 480.54,-282.85 479.84,-289.82"/>
<text text-anchor="middle" x="427.5" y="-301.8" font-family="Times,serif" font-size="14.00">Git merge of</text>
<text text-anchor="middle" x="427.5" y="-286.8" font-family="Times,serif" font-size="14.00">base branch</text>
</g>
<!-- _GH__UCOPROJECT__UCO_PROFILE_FOAF -->
<g id="node7" class="node">
<title>_GH__UCOPROJECT__UCO_PROFILE_FOAF</title>
<g id="a_node7"><a xlink:href="https://github.com/ucoProject/UCO-Profile-FOAF" xlink:title="UCO FOAF profile\nupdates">
<path fill="#8ec7d2" stroke="#0d6986" d="M598.5,-256C598.5,-256 499.5,-256 499.5,-256 493.5,-256 487.5,-250 487.5,-244 487.5,-244 487.5,-230 487.5,-230 487.5,-224 493.5,-218 499.5,-218 499.5,-218 598.5,-218 598.5,-218 604.5,-218 610.5,-224 610.5,-230 610.5,-230 610.5,-244 610.5,-244 610.5,-250 604.5,-256 598.5,-256"/>
<text text-anchor="middle" x="549" y="-240.8" font-family="Times,serif" font-size="14.00">UCO FOAF profile</text>
<text text-anchor="middle" x="549" y="-225.8" font-family="Times,serif" font-size="14.00">updates</text>
</a>
</g>
</g>
<!-- _GH__UCOPROJECT__UCO_PROFILE_EXAMPLE&#45;&gt;_GH__UCOPROJECT__UCO_PROFILE_FOAF -->
<g id="edge31" class="edge">
<title>_GH__UCOPROJECT__UCO_PROFILE_EXAMPLE&#45;&gt;_GH__UCOPROJECT__UCO_PROFILE_FOAF</title>
<path fill="none" stroke="black" d="M363.37,-249.59C372.82,-246.94 382.62,-244.6 392,-243 419.36,-238.35 449.79,-236.46 476.46,-235.86"/>
<polygon fill="black" stroke="black" points="476.3,-239.35 486.25,-235.69 476.19,-232.35 476.3,-239.35"/>
<text text-anchor="middle" x="427.5" y="-261.8" font-family="Times,serif" font-size="14.00">Git merge of</text>
<text text-anchor="middle" x="427.5" y="-246.8" font-family="Times,serif" font-size="14.00">base branch</text>
</g>
<!-- _GH__CASEWORK__CASE&#45;&gt;_GH__CASEWORK__ONTOLOGY_CASEONTOLOGY_ORG -->
<g id="edge4" class="edge">
<title>_GH__CASEWORK__CASE&#45;&gt;_GH__CASEWORK__ONTOLOGY_CASEONTOLOGY_ORG</title>
<path fill="none" stroke="black" d="M359.64,-540.8C392.62,-535.09 434.3,-523.12 463,-498 477.37,-485.43 468.69,-473.59 481,-459 487.41,-451.4 495.38,-444.49 503.55,-438.48"/>
<polygon fill="black" stroke="black" points="505.21,-440.89 511.43,-432.31 501.22,-435.14 505.21,-440.89"/>
<text text-anchor="middle" x="427.5" y="-551.8" font-family="Times,serif" font-size="14.00">Git sub&#45;</text>
<text text-anchor="middle" x="427.5" y="-536.8" font-family="Times,serif" font-size="14.00">module</text>
</g>
<!-- _GH__CIPHERTECHSOLUTIONS__CASE_BINDINGS_CSHARP -->
<g id="node18" class="node">
<title>_GH__CIPHERTECHSOLUTIONS__CASE_BINDINGS_CSHARP</title>
<g id="a_node18"><a xlink:href="https://github.com/ciphertechsolutions/CASE-Bindings-CSharp" xlink:title="CASE&#45;Bindings&#45;CSharp\nadopts new ontology version">
<path fill="#8ec7d2" stroke="#0d6986" d="M1728.5,-694C1728.5,-694 1579.5,-694 1579.5,-694 1573.5,-694 1567.5,-688 1567.5,-682 1567.5,-682 1567.5,-668 1567.5,-668 1567.5,-662 1573.5,-656 1579.5,-656 1579.5,-656 1728.5,-656 1728.5,-656 1734.5,-656 1740.5,-662 1740.5,-668 1740.5,-668 1740.5,-682 1740.5,-682 1740.5,-688 1734.5,-694 1728.5,-694"/>
<text text-anchor="middle" x="1654" y="-678.8" font-family="Times,serif" font-size="14.00">CASE&#45;Bindings&#45;CSharp</text>
<text text-anchor="middle" x="1654" y="-663.8" font-family="Times,serif" font-size="14.00">adopts new ontology version</text>
</a>
</g>
</g>
<!-- _GH__CASEWORK__CASE&#45;&gt;_GH__CIPHERTECHSOLUTIONS__CASE_BINDINGS_CSHARP -->
<g id="edge3" class="edge">
<title>_GH__CASEWORK__CASE&#45;&gt;_GH__CIPHERTECHSOLUTIONS__CASE_BINDINGS_CSHARP</title>
<path fill="none" stroke="black" d="M312.75,-565.27C328.21,-617.77 378.98,-763.25 481,-822 506.88,-836.9 518.14,-827 548,-827 548,-827 548,-827 1233.5,-827 1337.3,-827 1372.04,-863.93 1467,-822 1501.8,-806.64 1496.91,-784.51 1526,-760 1552.57,-737.62 1585.18,-715.9 1610.7,-700.02"/>
<polygon fill="black" stroke="black" points="1612.08,-702.67 1618.76,-694.44 1608.41,-696.7 1612.08,-702.67"/>
</g>
<!-- _GH__CASEWORK__CASE_UTILITIES_PYTHON -->
<g id="node22" class="node">
<title>_GH__CASEWORK__CASE_UTILITIES_PYTHON</title>
<g id="a_node22"><a xlink:href="https://github.com/casework/CASE-Utilities-Python" xlink:title="case&#45;utils\nreleases">
<path fill="#8ec7d2" stroke="#0d6986" d="M571,-711C571,-711 527,-711 527,-711 521,-711 515,-705 515,-699 515,-699 515,-685 515,-685 515,-679 521,-673 527,-673 527,-673 571,-673 571,-673 577,-673 583,-679 583,-685 583,-685 583,-699 583,-699 583,-705 577,-711 571,-711"/>
<text text-anchor="middle" x="549" y="-695.8" font-family="Times,serif" font-size="14.00">case&#45;utils</text>
<text text-anchor="middle" x="549" y="-680.8" font-family="Times,serif" font-size="14.00">releases</text>
</a>
</g>
</g>
<!-- _GH__CASEWORK__CASE&#45;&gt;_GH__CASEWORK__CASE_UTILITIES_PYTHON -->
<g id="edge2" class="edge">
<title>_GH__CASEWORK__CASE&#45;&gt;_GH__CASEWORK__CASE_UTILITIES_PYTHON</title>
<path fill="none" stroke="black" d="M330.25,-565.39C362.17,-591.8 422.84,-639.19 481,-669 488.31,-672.74 496.36,-676.1 504.27,-679.02"/>
<polygon fill="black" stroke="black" points="502.92,-682.6 513.51,-682.59 505.22,-675.99 502.92,-682.6"/>
<text text-anchor="middle" x="427.5" y="-676.8" font-family="Times,serif" font-size="14.00">Git sub&#45;</text>
<text text-anchor="middle" x="427.5" y="-661.8" font-family="Times,serif" font-size="14.00">module</text>
</g>
<!-- _GH__CASEWORK__CASE_IMPLEMENTATON_GNU_TIME -->
<g id="node10" class="node">
<title>_GH__CASEWORK__CASE_IMPLEMENTATON_GNU_TIME</title>
<g id="a_node10"><a xlink:href="https://github.com/casework/CASE-Implementation-GNU-Time" xlink:title="CASE&#45;Implementation&#45;GNU&#45;Time\nadopts new case&#45;utils">
<path fill="#8ec7d2" stroke="#0d6986" d="M1747,-887C1747,-887 1561,-887 1561,-887 1555,-887 1549,-881 1549,-875 1549,-875 1549,-861 1549,-861 1549,-855 1555,-849 1561,-849 1561,-849 1747,-849 1747,-849 1753,-849 1759,-855 1759,-861 1759,-861 1759,-875 1759,-875 1759,-881 1753,-887 1747,-887"/>
<text text-anchor="middle" x="1654" y="-871.8" font-family="Times,serif" font-size="14.00">CASE&#45;Implementation&#45;GNU&#45;Time</text>
<text text-anchor="middle" x="1654" y="-856.8" font-family="Times,serif" font-size="14.00">adopts new case&#45;utils</text>
</a>
</g>
</g>
<!-- _GH__CASEWORK__CASE_CORPORA -->
<g id="node11" class="node">
<title>_GH__CASEWORK__CASE_CORPORA</title>
<g id="a_node11"><a xlink:href="https://github.com/casework/CASE-Corpora" xlink:title="CASE&#45;Corpora\nadopts new case&#45;prov">
<path fill="#8ec7d2" stroke="#0d6986" d="M1709,-810C1709,-810 1599,-810 1599,-810 1593,-810 1587,-804 1587,-798 1587,-798 1587,-784 1587,-784 1587,-778 1593,-772 1599,-772 1599,-772 1709,-772 1709,-772 1715,-772 1721,-778 1721,-784 1721,-784 1721,-798 1721,-798 1721,-804 1715,-810 1709,-810"/>
<text text-anchor="middle" x="1654" y="-794.8" font-family="Times,serif" font-size="14.00">CASE&#45;Corpora</text>
<text text-anchor="middle" x="1654" y="-779.8" font-family="Times,serif" font-size="14.00">adopts new case&#45;prov</text>
</a>
</g>
</g>
<!-- _GH__CASEWORK__CASE_IMPLEMENTATON_PYPI_EXIFREAD -->
<g id="node12" class="node">
<title>_GH__CASEWORK__CASE_IMPLEMENTATON_PYPI_EXIFREAD</title>
<g id="a_node12"><a xlink:href="https://github.com/casework/CASE-Implementation-PyPI-Exifread" xlink:title="CASE&#45;Implementation&#45;PyPI&#45;Exifread\nadopts new case&#45;validation&#45;action">
<path fill="#8ec7d2" stroke="#0d6986" d="M1754,-638C1754,-638 1554,-638 1554,-638 1548,-638 1542,-632 1542,-626 1542,-626 1542,-612 1542,-612 1542,-606 1548,-600 1554,-600 1554,-600 1754,-600 1754,-600 1760,-600 1766,-606 1766,-612 1766,-612 1766,-626 1766,-626 1766,-632 1760,-638 1754,-638"/>
<text text-anchor="middle" x="1654" y="-622.8" font-family="Times,serif" font-size="14.00">CASE&#45;Implementation&#45;PyPI&#45;Exifread</text>
<text text-anchor="middle" x="1654" y="-607.8" font-family="Times,serif" font-size="14.00">adopts new case&#45;validation&#45;action</text>
</a>
</g>
</g>
<!-- _GH__CASEWORK__CASE_IMPLEMENTATON_PYPI_PILLOW -->
<g id="node13" class="node">
<title>_GH__CASEWORK__CASE_IMPLEMENTATON_PYPI_PILLOW</title>
<g id="a_node13"><a xlink:href="https://github.com/casework/CASE-Implementation-PyPI-Pillow" xlink:title="CASE&#45;Implementation&#45;PyPI&#45;Pillow\nadopts new case&#45;validation&#45;action">
<path fill="#8ec7d2" stroke="#0d6986" d="M1748.5,-414C1748.5,-414 1559.5,-414 1559.5,-414 1553.5,-414 1547.5,-408 1547.5,-402 1547.5,-402 1547.5,-388 1547.5,-388 1547.5,-382 1553.5,-376 1559.5,-376 1559.5,-376 1748.5,-376 1748.5,-376 1754.5,-376 1760.5,-382 1760.5,-388 1760.5,-388 1760.5,-402 1760.5,-402 1760.5,-408 1754.5,-414 1748.5,-414"/>
<text text-anchor="middle" x="1654" y="-398.8" font-family="Times,serif" font-size="14.00">CASE&#45;Implementation&#45;PyPI&#45;Pillow</text>
<text text-anchor="middle" x="1654" y="-383.8" font-family="Times,serif" font-size="14.00">adopts new case&#45;validation&#45;action</text>
</a>
</g>
</g>
<!-- _GH__CASEWORK__CASE_IMPLEMENTATON_UFED_XML -->
<g id="node14" class="node">
<title>_GH__CASEWORK__CASE_IMPLEMENTATON_UFED_XML</title>
<g id="a_node14"><a xlink:href="https://github.com/casework/CASE-Implementation-UFED-XML" xlink:title="CASE&#45;Implementation&#45;UFED&#45;XML\nadopts new case&#45;validation&#45;action">
<path fill="#8ec7d2" stroke="#0d6986" d="M1751,-470C1751,-470 1557,-470 1557,-470 1551,-470 1545,-464 1545,-458 1545,-458 1545,-444 1545,-444 1545,-438 1551,-432 1557,-432 1557,-432 1751,-432 1751,-432 1757,-432 1763,-438 1763,-444 1763,-444 1763,-458 1763,-458 1763,-464 1757,-470 1751,-470"/>
<text text-anchor="middle" x="1654" y="-454.8" font-family="Times,serif" font-size="14.00">CASE&#45;Implementation&#45;UFED&#45;XML</text>
<text text-anchor="middle" x="1654" y="-439.8" font-family="Times,serif" font-size="14.00">adopts new case&#45;validation&#45;action</text>
</a>
</g>
</g>
<!-- _GH__CASEWORK__CASE_IMPLEMENTATON_XRY -->
<g id="node15" class="node">
<title>_GH__CASEWORK__CASE_IMPLEMENTATON_XRY</title>
<g id="a_node15"><a xlink:href="https://github.com/casework/CASE-Implementation-XRY" xlink:title="CASE&#45;Implementation&#45;XRY adopts\nnew case&#45;validation&#45;action">
<path fill="#8ec7d2" stroke="#0d6986" d="M1749,-526C1749,-526 1559,-526 1559,-526 1553,-526 1547,-520 1547,-514 1547,-514 1547,-500 1547,-500 1547,-494 1553,-488 1559,-488 1559,-488 1749,-488 1749,-488 1755,-488 1761,-494 1761,-500 1761,-500 1761,-514 1761,-514 1761,-520 1755,-526 1749,-526"/>
<text text-anchor="middle" x="1654" y="-510.8" font-family="Times,serif" font-size="14.00">CASE&#45;Implementation&#45;XRY adopts</text>
<text text-anchor="middle" x="1654" y="-495.8" font-family="Times,serif" font-size="14.00">new case&#45;validation&#45;action</text>
</a>
</g>
</g>
<!-- _GH__CASEWORK__CASE_MAPPING_TEMPLATE_PYTHON -->
<g id="node16" class="node">
<title>_GH__CASEWORK__CASE_MAPPING_TEMPLATE_PYTHON</title>
<g id="a_node16"><a xlink:href="https://github.com/casework/CASE-Mapping-Template-Python" xlink:title="CASE&#45;Mapping&#45;Template&#45;Python\nadopts new case&#45;validation&#45;action">
<path fill="#8ec7d2" stroke="#0d6986" d="M1744,-582C1744,-582 1564,-582 1564,-582 1558,-582 1552,-576 1552,-570 1552,-570 1552,-556 1552,-556 1552,-550 1558,-544 1564,-544 1564,-544 1744,-544 1744,-544 1750,-544 1756,-550 1756,-556 1756,-556 1756,-570 1756,-570 1756,-576 1750,-582 1744,-582"/>
<text text-anchor="middle" x="1654" y="-566.8" font-family="Times,serif" font-size="14.00">CASE&#45;Mapping&#45;Template&#45;Python</text>
<text text-anchor="middle" x="1654" y="-551.8" font-family="Times,serif" font-size="14.00">adopts new case&#45;validation&#45;action</text>
</a>
</g>
</g>
<!-- _GH__CASEWORK__CASE_BINDINGS_CSHARP_MONITOR -->
<g id="node17" class="node">
<title>_GH__CASEWORK__CASE_BINDINGS_CSHARP_MONITOR</title>
<g id="a_node17"><a xlink:href="https://github.com/casework/CASE-Bindings-CSharp-Monitor" xlink:title="CASE Bindings CSharp Monitor\ntests NuGet package with validation action">
<path fill="#8ec7d2" stroke="#0d6986" d="M2078,-694C2078,-694 1851,-694 1851,-694 1845,-694 1839,-688 1839,-682 1839,-682 1839,-668 1839,-668 1839,-662 1845,-656 1851,-656 1851,-656 2078,-656 2078,-656 2084,-656 2090,-662 2090,-668 2090,-668 2090,-682 2090,-682 2090,-688 2084,-694 2078,-694"/>
<text text-anchor="middle" x="1964.5" y="-678.8" font-family="Times,serif" font-size="14.00">CASE Bindings CSharp Monitor</text>
<text text-anchor="middle" x="1964.5" y="-663.8" font-family="Times,serif" font-size="14.00">tests NuGet package with validation action</text>
</a>
</g>
</g>
<!-- _GH__CIPHERTECHSOLUTIONS__CASE_BINDINGS_CSHARP&#45;&gt;_GH__CASEWORK__CASE_BINDINGS_CSHARP_MONITOR -->
<g id="edge16" class="edge">
<title>_GH__CIPHERTECHSOLUTIONS__CASE_BINDINGS_CSHARP&#45;&gt;_GH__CASEWORK__CASE_BINDINGS_CSHARP_MONITOR</title>
<path fill="none" stroke="black" d="M1740.93,-675C1767.85,-675 1798.24,-675 1827.72,-675"/>
<polygon fill="black" stroke="black" points="1827.53,-678.5 1837.53,-675 1827.53,-671.5 1827.53,-678.5"/>
<text text-anchor="middle" x="1802.5" y="-678.8" font-family="Times,serif" font-size="14.00">NuGet</text>
</g>
<!-- _GH__AJNELSON_NIST__CASE_EXAMPLES_QC -->
<g id="node19" class="node">
<title>_GH__AJNELSON_NIST__CASE_EXAMPLES_QC</title>
<g id="a_node19"><a xlink:href="https://github.com/ajnelson-nist/CASE-Examples-QC" xlink:title="CASE&#45;Examples&#45;QC\nadopts CASE&#45;Examples and\nCASE website updates">
<path fill="#8ec7d2" stroke="#0d6986" d="M1165.5,-714.5C1165.5,-714.5 1017.5,-714.5 1017.5,-714.5 1011.5,-714.5 1005.5,-708.5 1005.5,-702.5 1005.5,-702.5 1005.5,-673.5 1005.5,-673.5 1005.5,-667.5 1011.5,-661.5 1017.5,-661.5 1017.5,-661.5 1165.5,-661.5 1165.5,-661.5 1171.5,-661.5 1177.5,-667.5 1177.5,-673.5 1177.5,-673.5 1177.5,-702.5 1177.5,-702.5 1177.5,-708.5 1171.5,-714.5 1165.5,-714.5"/>
<text text-anchor="middle" x="1091.5" y="-699.3" font-family="Times,serif" font-size="14.00">CASE&#45;Examples&#45;QC</text>
<text text-anchor="middle" x="1091.5" y="-684.3" font-family="Times,serif" font-size="14.00">adopts CASE&#45;Examples and</text>
<text text-anchor="middle" x="1091.5" y="-669.3" font-family="Times,serif" font-size="14.00">CASE website updates</text>
</a>
</g>
</g>
<!-- _GH__CASEWORK__CASE_IMPLEMENTATON_PROV_O -->
<g id="node24" class="node">
<title>_GH__CASEWORK__CASE_IMPLEMENTATON_PROV_O</title>
<g id="a_node24"><a xlink:href="https://github.com/casework/CASE-Implementation-PROV-O" xlink:title="case&#45;prov\nreleases">
<path fill="#8ec7d2" stroke="#0d6986" d="M1396,-753C1396,-753 1351,-753 1351,-753 1345,-753 1339,-747 1339,-741 1339,-741 1339,-727 1339,-727 1339,-721 1345,-715 1351,-715 1351,-715 1396,-715 1396,-715 1402,-715 1408,-721 1408,-727 1408,-727 1408,-741 1408,-741 1408,-747 1402,-753 1396,-753"/>
<text text-anchor="middle" x="1373.5" y="-737.8" font-family="Times,serif" font-size="14.00">case&#45;prov</text>
<text text-anchor="middle" x="1373.5" y="-722.8" font-family="Times,serif" font-size="14.00">releases</text>
</a>
</g>
</g>
<!-- _GH__AJNELSON_NIST__CASE_EXAMPLES_QC&#45;&gt;_GH__CASEWORK__CASE_IMPLEMENTATON_PROV_O -->
<g id="edge1" class="edge">
<title>_GH__AJNELSON_NIST__CASE_EXAMPLES_QC&#45;&gt;_GH__CASEWORK__CASE_IMPLEMENTATON_PROV_O</title>
<path fill="none" stroke="black" d="M1177.65,-701.99C1227.21,-710.13 1287.67,-720.06 1327.97,-726.68"/>
<polygon fill="black" stroke="black" points="1327.34,-730.29 1337.77,-728.46 1328.47,-723.38 1327.34,-730.29"/>
<text text-anchor="middle" x="1232.5" y="-731.8" font-family="Times,serif" font-size="14.00">Git sub&#45;</text>
<text text-anchor="middle" x="1232.5" y="-716.8" font-family="Times,serif" font-size="14.00">module</text>
</g>
<!-- _GH__CASEWORK__CASE_EXAMPLES -->
<g id="node20" class="node">
<title>_GH__CASEWORK__CASE_EXAMPLES</title>
<g id="a_node20"><a xlink:href="https://github.com/casework/CASE-Examples" xlink:title="CASE&#45;Examples\nadopts new case&#45;utils">
<path fill="#8ec7d2" stroke="#0d6986" d="M832.5,-711C832.5,-711 723.5,-711 723.5,-711 717.5,-711 711.5,-705 711.5,-699 711.5,-699 711.5,-685 711.5,-685 711.5,-679 717.5,-673 723.5,-673 723.5,-673 832.5,-673 832.5,-673 838.5,-673 844.5,-679 844.5,-685 844.5,-685 844.5,-699 844.5,-699 844.5,-705 838.5,-711 832.5,-711"/>
<text text-anchor="middle" x="778" y="-695.8" font-family="Times,serif" font-size="14.00">CASE&#45;Examples</text>
<text text-anchor="middle" x="778" y="-680.8" font-family="Times,serif" font-size="14.00">adopts new case&#45;utils</text>
</a>
</g>
</g>
<!-- _GH__CASEWORK__CASE_EXAMPLES&#45;&gt;_GH__AJNELSON_NIST__CASE_EXAMPLES_QC -->
<g id="edge5" class="edge">
<title>_GH__CASEWORK__CASE_EXAMPLES&#45;&gt;_GH__AJNELSON_NIST__CASE_EXAMPLES_QC</title>
<path fill="none" stroke="black" d="M844.89,-675.15C860.86,-671.77 877.95,-668.72 894,-667 928.91,-663.25 938.03,-663.9 973,-667 979.92,-667.61 987.05,-668.43 994.2,-669.38"/>
<polygon fill="black" stroke="black" points="993.67,-672.98 1004.06,-670.92 994.65,-666.05 993.67,-672.98"/>
<text text-anchor="middle" x="933.5" y="-685.8" font-family="Times,serif" font-size="14.00">Git sub&#45;</text>
<text text-anchor="middle" x="933.5" y="-670.8" font-family="Times,serif" font-size="14.00">module</text>
</g>
<!-- _GH__CASEWORK__CASE_IMPLEMENTATON_EXIFTOOL -->
<g id="node21" class="node">
<title>_GH__CASEWORK__CASE_IMPLEMENTATON_EXIFTOOL</title>
<g id="a_node21"><a xlink:href="https://github.com/casework/CASE-Implementation-ExifTool" xlink:title="CASE&#45;Implementation&#45;ExifTool\nadopts new case&#45;utils">
<path fill="#8ec7d2" stroke="#0d6986" d="M864,-604C864,-604 692,-604 692,-604 686,-604 680,-598 680,-592 680,-592 680,-578 680,-578 680,-572 686,-566 692,-566 692,-566 864,-566 864,-566 870,-566 876,-572 876,-578 876,-578 876,-592 876,-592 876,-598 870,-604 864,-604"/>
<text text-anchor="middle" x="778" y="-588.8" font-family="Times,serif" font-size="14.00">CASE&#45;Implementation&#45;ExifTool</text>
<text text-anchor="middle" x="778" y="-573.8" font-family="Times,serif" font-size="14.00">adopts new case&#45;utils</text>
</a>
</g>
</g>
<!-- _GH__CASEWORK__CASE_UTILITIES_PYTHON&#45;&gt;_GH__CASEWORK__CASE_IMPLEMENTATON_GNU_TIME -->
<g id="edge10" class="edge">
<title>_GH__CASEWORK__CASE_UTILITIES_PYTHON&#45;&gt;_GH__CASEWORK__CASE_IMPLEMENTATON_GNU_TIME</title>
<path fill="none" stroke="black" d="M567.83,-711.27C584.34,-728.53 610.03,-753.98 635,-773 731.49,-846.49 773.9,-842.02 894,-859 897.93,-859.56 1326.32,-864.38 1537.69,-866.73"/>
<polygon fill="black" stroke="black" points="1537.48,-870.23 1547.52,-866.85 1537.56,-863.24 1537.48,-870.23"/>
<text text-anchor="middle" x="1091.5" y="-865.8" font-family="Times,serif" font-size="14.00">PyPI</text>
</g>
<!-- _GH__CASEWORK__CASE_UTILITIES_PYTHON&#45;&gt;_GH__CASEWORK__CASE_IMPLEMENTATON_PYPI_EXIFREAD -->
<g id="edge12" class="edge">
<title>_GH__CASEWORK__CASE_UTILITIES_PYTHON&#45;&gt;_GH__CASEWORK__CASE_IMPLEMENTATON_PYPI_EXIFREAD</title>
<path fill="none" stroke="black" d="M583.2,-697.63C595.01,-701.02 607.68,-706.42 617,-715 631.64,-728.48 622.44,-740.57 635,-756 650.49,-775.03 656.73,-780.21 680,-788 770.23,-818.21 798.86,-792.67 894,-794 929.11,-794.49 938.34,-799.62 973,-794 981.32,-792.65 982.68,-789.35 991,-788 991,-788 1467,-788 1467,-788 1524.43,-749.46 1472.58,-687.93 1526,-644 1528.13,-642.25 1530.34,-640.61 1532.63,-639.08"/>
<polygon fill="black" stroke="black" points="1533.97,-641.76 1540.79,-633.66 1530.4,-635.74 1533.97,-641.76"/>
<text text-anchor="middle" x="1091.5" y="-791.8" font-family="Times,serif" font-size="14.00">PyPI</text>
</g>
<!-- _GH__CASEWORK__CASE_UTILITIES_PYTHON&#45;&gt;_GH__AJNELSON_NIST__CASE_EXAMPLES_QC -->
<g id="edge7" class="edge">
<title>_GH__CASEWORK__CASE_UTILITIES_PYTHON&#45;&gt;_GH__AJNELSON_NIST__CASE_EXAMPLES_QC</title>
<path fill="none" stroke="black" d="M583.45,-680.64C620.3,-668.17 675.06,-649.8 680,-649 808.66,-628.27 844.64,-637.51 973,-660 980.01,-661.23 987.22,-662.62 994.47,-664.12"/>
<polygon fill="black" stroke="black" points="993.57,-667.72 1004.08,-666.37 995.02,-660.87 993.57,-667.72"/>
<text text-anchor="middle" x="778" y="-652.8" font-family="Times,serif" font-size="14.00">PyPI</text>
</g>
<!-- _GH__CASEWORK__CASE_UTILITIES_PYTHON&#45;&gt;_GH__CASEWORK__CASE_EXAMPLES -->
<g id="edge8" class="edge">
<title>_GH__CASEWORK__CASE_UTILITIES_PYTHON&#45;&gt;_GH__CASEWORK__CASE_EXAMPLES</title>
<path fill="none" stroke="black" d="M583.49,-692C614.22,-692 660.87,-692 700.66,-692"/>
<polygon fill="black" stroke="black" points="700.42,-695.5 710.42,-692 700.42,-688.5 700.42,-695.5"/>
<text text-anchor="middle" x="648.5" y="-695.8" font-family="Times,serif" font-size="14.00">PyPI</text>
</g>
<!-- _GH__CASEWORK__CASE_UTILITIES_PYTHON&#45;&gt;_GH__CASEWORK__CASE_IMPLEMENTATON_EXIFTOOL -->
<g id="edge9" class="edge">
<title>_GH__CASEWORK__CASE_UTILITIES_PYTHON&#45;&gt;_GH__CASEWORK__CASE_IMPLEMENTATON_EXIFTOOL</title>
<path fill="none" stroke="black" d="M583.49,-686.67C595.33,-683.31 607.95,-677.86 617,-669 633.58,-652.77 617.71,-635.48 635,-620 645,-611.05 656.93,-604.3 669.56,-599.23"/>
<polygon fill="black" stroke="black" points="670.6,-602.21 678.81,-595.51 668.22,-595.63 670.6,-602.21"/>
<text text-anchor="middle" x="648.5" y="-623.8" font-family="Times,serif" font-size="14.00">PyPI</text>
</g>
<!-- _GH__CASEWORK__CASEWORK_GITHUB_IO -->
<g id="node23" class="node">
<title>_GH__CASEWORK__CASEWORK_GITHUB_IO</title>
<g id="a_node23"><a xlink:href="https://github.com/casework/casework.github.io" xlink:title="CASE website\nadopts new case&#45;utils">
<path fill="#8ec7d2" stroke="#0d6986" d="M832.5,-767C832.5,-767 723.5,-767 723.5,-767 717.5,-767 711.5,-761 711.5,-755 711.5,-755 711.5,-741 711.5,-741 711.5,-735 717.5,-729 723.5,-729 723.5,-729 832.5,-729 832.5,-729 838.5,-729 844.5,-735 844.5,-741 844.5,-741 844.5,-755 844.5,-755 844.5,-761 838.5,-767 832.5,-767"/>
<text text-anchor="middle" x="778" y="-751.8" font-family="Times,serif" font-size="14.00">CASE website</text>
<text text-anchor="middle" x="778" y="-736.8" font-family="Times,serif" font-size="14.00">adopts new case&#45;utils</text>
</a>
</g>
</g>
<!-- _GH__CASEWORK__CASE_UTILITIES_PYTHON&#45;&gt;_GH__CASEWORK__CASEWORK_GITHUB_IO -->
<g id="edge14" class="edge">
<title>_GH__CASEWORK__CASE_UTILITIES_PYTHON&#45;&gt;_GH__CASEWORK__CASEWORK_GITHUB_IO</title>
<path fill="none" stroke="black" d="M583.49,-700.26C614.29,-707.86 661.07,-719.4 700.92,-729.23"/>
<polygon fill="black" stroke="black" points="699.87,-732.82 710.42,-731.82 701.55,-726.03 699.87,-732.82"/>
<text text-anchor="middle" x="648.5" y="-721.8" font-family="Times,serif" font-size="14.00">PyPI</text>
</g>
<!-- _GH__CASEWORK__CASE_UTILITIES_PYTHON&#45;&gt;_GH__CASEWORK__CASE_IMPLEMENTATON_PROV_O -->
<g id="edge11" class="edge">
<title>_GH__CASEWORK__CASE_UTILITIES_PYTHON&#45;&gt;_GH__CASEWORK__CASE_IMPLEMENTATON_PROV_O</title>
<path fill="none" stroke="black" d="M583.41,-699.5C594.72,-703.03 607.01,-708.05 617,-715 627.37,-722.22 626.19,-727.94 635,-737 653.45,-755.98 655.2,-766.75 680,-776 761.62,-806.45 788.95,-779.33 876,-776 1044.81,-769.55 1086.8,-762.74 1255,-747 1279.12,-744.74 1305.99,-741.8 1327.93,-739.29"/>
<polygon fill="black" stroke="black" points="1328.06,-742.68 1337.59,-738.06 1327.26,-735.73 1328.06,-742.68"/>
<text text-anchor="middle" x="933.5" y="-778.8" font-family="Times,serif" font-size="14.00">PyPI</text>
</g>
<!-- _GH__KCHASON__CASE_VALIDATION_ACTION -->
<g id="node26" class="node">
<title>_GH__KCHASON__CASE_VALIDATION_ACTION</title>
<g id="a_node26"><a xlink:href="https://github.com/kchason/case-validation-action" xlink:title="case&#45;validation&#45;action\nreleases">
<path fill="#8ec7d2" stroke="#0d6986" d="M834,-517C834,-517 722,-517 722,-517 716,-517 710,-511 710,-505 710,-505 710,-491 710,-491 710,-485 716,-479 722,-479 722,-479 834,-479 834,-479 840,-479 846,-485 846,-491 846,-491 846,-505 846,-505 846,-511 840,-517 834,-517"/>
<text text-anchor="middle" x="778" y="-501.8" font-family="Times,serif" font-size="14.00">case&#45;validation&#45;action</text>
<text text-anchor="middle" x="778" y="-486.8" font-family="Times,serif" font-size="14.00">releases</text>
</a>
</g>
</g>
<!-- _GH__CASEWORK__CASE_UTILITIES_PYTHON&#45;&gt;_GH__KCHASON__CASE_VALIDATION_ACTION -->
<g id="edge13" class="edge">
<title>_GH__CASEWORK__CASE_UTILITIES_PYTHON&#45;&gt;_GH__KCHASON__CASE_VALIDATION_ACTION</title>
<path fill="none" stroke="black" d="M583.17,-687.63C595.4,-684.4 608.37,-678.77 617,-669 642.84,-639.72 619.18,-618.7 635,-583 648.79,-551.87 651.67,-539.88 680,-521 686,-517 692.61,-513.7 699.49,-510.96"/>
<polygon fill="black" stroke="black" points="700.43,-513.99 708.7,-507.35 698.1,-507.39 700.43,-513.99"/>
<text text-anchor="middle" x="648.5" y="-586.8" font-family="Times,serif" font-size="14.00">PyPI</text>
</g>
<!-- _GH__CASEWORK__CASEWORK_GITHUB_IO&#45;&gt;_GH__AJNELSON_NIST__CASE_EXAMPLES_QC -->
<g id="edge15" class="edge">
<title>_GH__CASEWORK__CASEWORK_GITHUB_IO&#45;&gt;_GH__AJNELSON_NIST__CASE_EXAMPLES_QC</title>
<path fill="none" stroke="black" d="M844.79,-731.05C860.83,-727.18 877.99,-723.25 894,-720 926.56,-713.39 962.38,-707.24 994.41,-702.12"/>
<polygon fill="black" stroke="black" points="994.79,-705.45 1004.12,-700.43 993.7,-698.54 994.79,-705.45"/>
<text text-anchor="middle" x="933.5" y="-738.8" font-family="Times,serif" font-size="14.00">Git sub&#45;</text>
<text text-anchor="middle" x="933.5" y="-723.8" font-family="Times,serif" font-size="14.00">module</text>
</g>
<!-- _GH__CASEWORK__CASE_IMPLEMENTATON_PROV_O&#45;&gt;_GH__CASEWORK__CASE_CORPORA -->
<g id="edge6" class="edge">
<title>_GH__CASEWORK__CASE_IMPLEMENTATON_PROV_O&#45;&gt;_GH__CASEWORK__CASE_CORPORA</title>
<path fill="none" stroke="black" d="M1408.37,-740.93C1449.69,-749.39 1520.8,-763.94 1575.74,-775.19"/>
<polygon fill="black" stroke="black" points="1575,-778.81 1585.5,-777.39 1576.41,-771.96 1575,-778.81"/>
<text text-anchor="middle" x="1504.5" y="-765.8" font-family="Times,serif" font-size="14.00">PyPI</text>
</g>
<!-- _GH__CASEWORK__CASE_EXAMPLES_CONVERSION -->
<g id="node25" class="node">
<title>_GH__CASEWORK__CASE_EXAMPLES_CONVERSION</title>
<g id="a_node25"><a xlink:href="https://github.com/casework/CASE-Examples-Conversion" xlink:title="CASE Conversion Examples">
<path fill="#8ec7d2" stroke="#0d6986" d="M1167,-527C1167,-527 1016,-527 1016,-527 1010,-527 1004,-521 1004,-515 1004,-515 1004,-503 1004,-503 1004,-497 1010,-491 1016,-491 1016,-491 1167,-491 1167,-491 1173,-491 1179,-497 1179,-503 1179,-503 1179,-515 1179,-515 1179,-521 1173,-527 1167,-527"/>
<text text-anchor="middle" x="1091.5" y="-505.3" font-family="Times,serif" font-size="14.00">CASE Conversion Examples</text>
</a>
</g>
</g>
<!-- _GH__KCHASON__CASE_VALIDATION_ACTION&#45;&gt;_GH__CASEWORK__CASE_IMPLEMENTATON_PYPI_EXIFREAD -->
<g id="edge19" class="edge">
<title>_GH__KCHASON__CASE_VALIDATION_ACTION&#45;&gt;_GH__CASEWORK__CASE_IMPLEMENTATON_PYPI_EXIFREAD</title>
<path fill="none" stroke="black" d="M846.22,-483.62C861.83,-480.87 878.44,-478.41 894,-477 928.97,-473.83 937.89,-476.6 973,-477 1021.68,-477.56 1154.46,-451.01 1192,-482 1221.11,-506.03 1181.97,-539.72 1210,-565 1217.47,-571.74 1245.01,-568.83 1255,-570 1347.65,-580.85 1452.34,-593.76 1531.08,-603.61"/>
<polygon fill="black" stroke="black" points="1530.17,-607.15 1540.53,-604.92 1531.04,-600.2 1530.17,-607.15"/>
<text text-anchor="middle" x="1232.5" y="-588.8" font-family="Times,serif" font-size="14.00">GitHub</text>
<text text-anchor="middle" x="1232.5" y="-573.8" font-family="Times,serif" font-size="14.00">Action</text>
</g>
<!-- _GH__KCHASON__CASE_VALIDATION_ACTION&#45;&gt;_GH__CASEWORK__CASE_IMPLEMENTATON_PYPI_PILLOW -->
<g id="edge20" class="edge">
<title>_GH__KCHASON__CASE_VALIDATION_ACTION&#45;&gt;_GH__CASEWORK__CASE_IMPLEMENTATON_PYPI_PILLOW</title>
<path fill="none" stroke="black" d="M798.16,-478.62C819.49,-458.39 856,-427.62 894,-413 1108.6,-330.47 1383.15,-352.05 1536.31,-374.18"/>
<polygon fill="black" stroke="black" points="1535.72,-377.78 1546.13,-375.78 1536.74,-370.86 1535.72,-377.78"/>
<text text-anchor="middle" x="1232.5" y="-373.8" font-family="Times,serif" font-size="14.00">GitHub</text>
<text text-anchor="middle" x="1232.5" y="-358.8" font-family="Times,serif" font-size="14.00">Action</text>
</g>
<!-- _GH__KCHASON__CASE_VALIDATION_ACTION&#45;&gt;_GH__CASEWORK__CASE_IMPLEMENTATON_UFED_XML -->
<g id="edge21" class="edge">
<title>_GH__KCHASON__CASE_VALIDATION_ACTION&#45;&gt;_GH__CASEWORK__CASE_IMPLEMENTATON_UFED_XML</title>
<path fill="none" stroke="black" d="M802.42,-478.68C824.55,-461.62 859.41,-437.69 894,-426 935.02,-412.14 947.75,-419 991,-417 1181,-408.2 1401.59,-424.94 1534.09,-437.9"/>
<polygon fill="black" stroke="black" points="1533.36,-441.45 1543.65,-438.95 1534.05,-434.48 1533.36,-441.45"/>
<text text-anchor="middle" x="1232.5" y="-435.8" font-family="Times,serif" font-size="14.00">GitHub</text>
<text text-anchor="middle" x="1232.5" y="-420.8" font-family="Times,serif" font-size="14.00">Action</text>
</g>
<!-- _GH__KCHASON__CASE_VALIDATION_ACTION&#45;&gt;_GH__CASEWORK__CASE_IMPLEMENTATON_XRY -->
<g id="edge22" class="edge">
<title>_GH__KCHASON__CASE_VALIDATION_ACTION&#45;&gt;_GH__CASEWORK__CASE_IMPLEMENTATON_XRY</title>
<path fill="none" stroke="black" d="M812.46,-478.68C834.75,-466.96 865.16,-453.11 894,-447 1023.57,-419.56 1067.47,-401.91 1192,-447 1201.79,-450.55 1200.4,-457.96 1210,-462 1314.2,-505.81 1443.88,-514.25 1535.94,-513.44"/>
<polygon fill="black" stroke="black" points="1535.74,-516.93 1545.7,-513.3 1535.65,-509.93 1535.74,-516.93"/>
<text text-anchor="middle" x="1232.5" y="-495.8" font-family="Times,serif" font-size="14.00">GitHub</text>
<text text-anchor="middle" x="1232.5" y="-480.8" font-family="Times,serif" font-size="14.00">Action</text>
</g>
<!-- _GH__KCHASON__CASE_VALIDATION_ACTION&#45;&gt;_GH__CASEWORK__CASE_MAPPING_TEMPLATE_PYTHON -->
<g id="edge23" class="edge">
<title>_GH__KCHASON__CASE_VALIDATION_ACTION&#45;&gt;_GH__CASEWORK__CASE_MAPPING_TEMPLATE_PYTHON</title>
<path fill="none" stroke="black" d="M839.27,-478.56C856.73,-473.8 875.96,-469.39 894,-467 959.65,-458.31 1137.02,-430.09 1192,-467 1209.54,-478.78 1193.18,-498.22 1210,-511 1260.36,-549.26 1426.83,-559.87 1540.73,-562.53"/>
<polygon fill="black" stroke="black" points="1540.51,-566.05 1550.58,-562.76 1540.66,-559.05 1540.51,-566.05"/>
<text text-anchor="middle" x="1232.5" y="-549.8" font-family="Times,serif" font-size="14.00">GitHub</text>
<text text-anchor="middle" x="1232.5" y="-534.8" font-family="Times,serif" font-size="14.00">Action</text>
</g>
<!-- _GH__KCHASON__CASE_VALIDATION_ACTION&#45;&gt;_GH__CASEWORK__CASE_BINDINGS_CSHARP_MONITOR -->
<g id="edge17" class="edge">
<title>_GH__KCHASON__CASE_VALIDATION_ACTION&#45;&gt;_GH__CASEWORK__CASE_BINDINGS_CSHARP_MONITOR</title>
<path fill="none" stroke="black" d="M846.36,-502.25C857.73,-505.97 868.32,-511.86 876,-521 919.11,-572.3 859.43,-764.6 894,-822 920.03,-865.23 942.68,-866.48 991,-881 1320.98,-980.16 1452.28,-1043.48 1766,-901 1856.29,-859.99 1921.49,-755.06 1949,-703.9"/>
<polygon fill="black" stroke="black" points="1952.43,-705.9 1953.99,-695.43 1946.23,-702.64 1952.43,-705.9"/>
<text text-anchor="middle" x="1373.5" y="-1002.8" font-family="Times,serif" font-size="14.00">GitHub</text>
<text text-anchor="middle" x="1373.5" y="-987.8" font-family="Times,serif" font-size="14.00">Action</text>
</g>
<!-- _GH__KCHASON__CASE_VALIDATION_ACTION&#45;&gt;_GH__CASEWORK__CASE_EXAMPLES_CONVERSION -->
<g id="edge18" class="edge">
<title>_GH__KCHASON__CASE_VALIDATION_ACTION&#45;&gt;_GH__CASEWORK__CASE_EXAMPLES_CONVERSION</title>
<path fill="none" stroke="black" d="M846.22,-483.62C861.83,-480.87 878.44,-478.41 894,-477 911.48,-475.42 955.6,-474.67 973,-477 989.92,-479.26 1007.86,-483.28 1024.48,-487.72"/>
<polygon fill="black" stroke="black" points="1023.07,-491.24 1033.65,-490.53 1024.94,-484.49 1023.07,-491.24"/>
<text text-anchor="middle" x="933.5" y="-495.8" font-family="Times,serif" font-size="14.00">GitHub</text>
<text text-anchor="middle" x="933.5" y="-480.8" font-family="Times,serif" font-size="14.00">Action</text>
</g>
<!-- _GH__DOD_CYBER_CRIME_CENTER__SQLITE_DISSECT -->
<g id="node27" class="node">
<title>_GH__DOD_CYBER_CRIME_CENTER__SQLITE_DISSECT</title>
<g id="a_node27"><a xlink:href="https://github.com/dod-cyber-crime-center/sqlite-dissect" xlink:title="sqlite&#45;dissect\nadopts new case&#45;validation&#45;action">
<path fill="#8ec7d2" stroke="#0d6986" d="M1180,-178C1180,-178 1003,-178 1003,-178 997,-178 991,-172 991,-166 991,-166 991,-152 991,-152 991,-146 997,-140 1003,-140 1003,-140 1180,-140 1180,-140 1186,-140 1192,-146 1192,-152 1192,-152 1192,-166 1192,-166 1192,-172 1186,-178 1180,-178"/>
<text text-anchor="middle" x="1091.5" y="-162.8" font-family="Times,serif" font-size="14.00">sqlite&#45;dissect</text>
<text text-anchor="middle" x="1091.5" y="-147.8" font-family="Times,serif" font-size="14.00">adopts new case&#45;validation&#45;action</text>
</a>
</g>
</g>
<!-- _GH__KCHASON__CASE_VALIDATION_ACTION&#45;&gt;_GH__DOD_CYBER_CRIME_CENTER__SQLITE_DISSECT -->
<g id="edge24" class="edge">
<title>_GH__KCHASON__CASE_VALIDATION_ACTION&#45;&gt;_GH__DOD_CYBER_CRIME_CENTER__SQLITE_DISSECT</title>
<g id="a_edge24"><a xlink:href="https://github.com/dod-cyber-crime-center/sqlite-dissect/pull/31" xlink:title="TODO: PR 31">
<path fill="none" stroke="black" d="M794.08,-478.51C815.56,-451.03 856.52,-399.6 894,-358 951.5,-294.18 1023.37,-223.53 1062.29,-185.97"/>
<polygon fill="black" stroke="black" points="1064.3,-188.93 1069.08,-179.47 1059.45,-183.89 1064.3,-188.93"/>
</a>
</g>
<g id="a_edge24&#45;label"><a xlink:href="https://github.com/dod-cyber-crime-center/sqlite-dissect/pull/31" xlink:title="TODO: PR 31">
<text text-anchor="middle" x="933.5" y="-361.8" font-family="Times,serif" font-size="14.00">TODO: PR 31</text>
</a>
</g>
</g>
</g>
</svg>
