<?xml version="1.0" encoding="UTF-8" standalone="no"?>
<!DOCTYPE svg PUBLIC "-//W3C//DTD SVG 1.1//EN"
 "http://www.w3.org/Graphics/SVG/1.1/DTD/svg11.dtd">
<!-- Generated by graphviz version 8.0.3 (20230416.2022)
 -->
<!-- Title: cdo_release_flow Pages: 1 -->
<svg width="1842pt" height="957pt"
 viewBox="0.00 0.00 1842.00 957.00" xmlns="http://www.w3.org/2000/svg" xmlns:xlink="http://www.w3.org/1999/xlink">
<g id="graph0" class="graph" transform="scale(1 1) rotate(0) translate(4 953)">
<title>cdo_release_flow</title>
<polygon fill="white" stroke="none" points="-4,4 -4,-953 1838,-953 1838,4 -4,4"/>
<text text-anchor="middle" x="917" y="-38.8" font-family="Times,serif" font-size="14.00">Release flow of CDO ontologies</text>
<text text-anchor="middle" x="917" y="-7.8" font-family="Times,serif" font-size="14.00">Nodes link to the respective Git repository.</text>
<g id="clust1" class="cluster">
<title>cluster_uco_0_9_1</title>
<polygon fill="none" stroke="black" points="0,-62 0,-178 168,-178 168,-62 0,-62"/>
<text text-anchor="middle" x="84" y="-162.8" font-family="Times,serif" font-size="14.00">Adoption of UCO 0.9.1</text>
</g>
<g id="clust2" class="cluster">
<title>cluster_case_0_7_1</title>
<polygon fill="none" stroke="black" points="8,-70 8,-147 160,-147 160,-70 8,-70"/>
<text text-anchor="middle" x="84" y="-131.8" font-family="Times,serif" font-size="14.00">Adoption of CASE 0.7.1</text>
</g>
<g id="clust3" class="cluster">
<title>cluster_uco_1_2_0</title>
<polygon fill="none" stroke="black" points="26,-186 26,-941 1826,-941 1826,-186 26,-186"/>
<text text-anchor="middle" x="926" y="-925.8" font-family="Times,serif" font-size="14.00">Adoption of UCO 1.2.0</text>
</g>
<g id="clust4" class="cluster">
<title>cluster_case_1_2_0</title>
<polygon fill="none" stroke="black" points="245.5,-303 245.5,-910 1818,-910 1818,-303 245.5,-303"/>
<text text-anchor="middle" x="1031.75" y="-894.8" font-family="Times,serif" font-size="14.00">Adoption of CASE 1.2.0</text>
</g>
<g id="clust5" class="cluster">
<title>cluster_case_utils_0_10_0</title>
<polygon fill="none" stroke="black" points="1202,-311 1202,-879 1810,-879 1810,-311 1202,-311"/>
<text text-anchor="middle" x="1506" y="-863.8" font-family="Times,serif" font-size="14.00">Adoption of case&#45;utils 0.10.0</text>
</g>
<g id="clust6" class="cluster">
<title>cluster_case_prov_0_7_0</title>
<polygon fill="none" stroke="black" points="1272.5,-771 1272.5,-848 1735.5,-848 1735.5,-771 1272.5,-771"/>
<text text-anchor="middle" x="1504" y="-832.8" font-family="Times,serif" font-size="14.00">Adoption of case&#45;prov 0.7.0</text>
</g>
<g id="clust7" class="cluster">
<title>cluster_case_validation_action_2_6</title>
<polygon fill="none" stroke="black" points="1212.5,-365 1212.5,-763 1802,-763 1802,-365 1212.5,-365"/>
<text text-anchor="middle" x="1507.25" y="-747.8" font-family="Times,serif" font-size="14.00">Adoption of case&#45;validation&#45;action 2.6</text>
</g>
<g id="clust8" class="cluster">
<title>cluster_case_bindings_csharp_0_4_0</title>
<polygon fill="none" stroke="black" points="1220.5,-373 1220.5,-450 1794,-450 1794,-373 1220.5,-373"/>
<text text-anchor="middle" x="1507.25" y="-434.8" font-family="Times,serif" font-size="14.00">Adoption of CSharp bindings 0.4.0</text>
</g>
<g id="clust9" class="cluster">
<title>cluster_case_utils_0_11_0</title>
<polygon fill="none" stroke="black" points="507,-624 507,-864 1137,-864 1137,-624 507,-624"/>
<text text-anchor="middle" x="822" y="-848.8" font-family="Times,serif" font-size="14.00">Adoption of case&#45;utils 0.11.0</text>
</g>
<!-- _GH__CASEWORK__CASE_MAPPING_TEMPLATE_STUBS -->
<g id="node1" class="node">
<title>_GH__CASEWORK__CASE_MAPPING_TEMPLATE_STUBS</title>
<g id="a_node1"><a xlink:href="https://github.com/casework/CASE-Mapping-Template-Stubs" xlink:title="CASE Mapping\nTemplate Stubs">
<path fill="#8ec7d2" stroke="#0d6986" d="M124,-116C124,-116 44,-116 44,-116 38,-116 32,-110 32,-104 32,-104 32,-90 32,-90 32,-84 38,-78 44,-78 44,-78 124,-78 124,-78 130,-78 136,-84 136,-90 136,-90 136,-104 136,-104 136,-110 130,-116 124,-116"/>
<text text-anchor="middle" x="84" y="-100.8" font-family="Times,serif" font-size="14.00">CASE Mapping</text>
<text text-anchor="middle" x="84" y="-85.8" font-family="Times,serif" font-size="14.00">Template Stubs</text>
</a>
</g>
</g>
<!-- _GH__UCOPROJECT__ONTOLOGY_UNIFIEDCYBERONTOLOGY_ORG -->
<g id="node2" class="node">
<title>_GH__UCOPROJECT__ONTOLOGY_UNIFIEDCYBERONTOLOGY_ORG</title>
<g id="a_node2"><a xlink:href="https://github.com/ucoProject/ontology.unifiedcyberontology.org" xlink:title="UCO documentation\nregenerated">
<path fill="#8ec7d2" stroke="#0d6986" d="M359.5,-295C359.5,-295 253.5,-295 253.5,-295 247.5,-295 241.5,-289 241.5,-283 241.5,-283 241.5,-269 241.5,-269 241.5,-263 247.5,-257 253.5,-257 253.5,-257 359.5,-257 359.5,-257 365.5,-257 371.5,-263 371.5,-269 371.5,-269 371.5,-283 371.5,-283 371.5,-289 365.5,-295 359.5,-295"/>
<text text-anchor="middle" x="306.5" y="-279.8" font-family="Times,serif" font-size="14.00">UCO documentation</text>
<text text-anchor="middle" x="306.5" y="-264.8" font-family="Times,serif" font-size="14.00">regenerated</text>
</a>
</g>
</g>
<!-- _GH__CASEWORK__ONTOLOGY_CASEONTOLOGY_ORG -->
<g id="node8" class="node">
<title>_GH__CASEWORK__ONTOLOGY_CASEONTOLOGY_ORG</title>
<g id="a_node8"><a xlink:href="https://github.com/casework/ontology.caseontology.org" xlink:title="CASE documentation\nregenerated">
<path fill="#8ec7d2" stroke="#0d6986" d="M605,-369C605,-369 493,-369 493,-369 487,-369 481,-363 481,-357 481,-357 481,-343 481,-343 481,-337 487,-331 493,-331 493,-331 605,-331 605,-331 611,-331 617,-337 617,-343 617,-343 617,-357 617,-357 617,-363 611,-369 605,-369"/>
<text text-anchor="middle" x="549" y="-353.8" font-family="Times,serif" font-size="14.00">CASE documentation</text>
<text text-anchor="middle" x="549" y="-338.8" font-family="Times,serif" font-size="14.00">regenerated</text>
</a>
</g>
</g>
<!-- _GH__UCOPROJECT__ONTOLOGY_UNIFIEDCYBERONTOLOGY_ORG&#45;&gt;_GH__CASEWORK__ONTOLOGY_CASEONTOLOGY_ORG -->
<g id="edge24" class="edge">
<title>_GH__UCOPROJECT__ONTOLOGY_UNIFIEDCYBERONTOLOGY_ORG&#45;&gt;_GH__CASEWORK__ONTOLOGY_CASEONTOLOGY_ORG</title>
<path fill="none" stroke="black" d="M370.69,-295.44C402.6,-305.26 441.49,-317.23 474.7,-327.45"/>
<polygon fill="black" stroke="black" points="473.23,-330.96 483.82,-330.56 475.29,-324.27 473.23,-330.96"/>
<text text-anchor="middle" x="427.5" y="-339.8" font-family="Times,serif" font-size="14.00">Tech&#45;</text>
<text text-anchor="middle" x="427.5" y="-324.8" font-family="Times,serif" font-size="14.00">check</text>
</g>
<!-- _GH__UCOPROJECT__UCO -->
<g id="node3" class="node">
<title>_GH__UCOPROJECT__UCO</title>
<g id="a_node3"><a xlink:href="https://github.com/ucoProject/UCO" xlink:title="UCO Ontology\nreleases">
<path fill="#8ec7d2" stroke="#0d6986" d="M122,-295C122,-295 46,-295 46,-295 40,-295 34,-289 34,-283 34,-283 34,-269 34,-269 34,-263 40,-257 46,-257 46,-257 122,-257 122,-257 128,-257 134,-263 134,-269 134,-269 134,-283 134,-283 134,-289 128,-295 122,-295"/>
<text text-anchor="middle" x="84" y="-279.8" font-family="Times,serif" font-size="14.00">UCO Ontology</text>
<text text-anchor="middle" x="84" y="-264.8" font-family="Times,serif" font-size="14.00">releases</text>
</a>
</g>
</g>
<!-- _GH__UCOPROJECT__UCO&#45;&gt;_GH__UCOPROJECT__ONTOLOGY_UNIFIEDCYBERONTOLOGY_ORG -->
<g id="edge26" class="edge">
<title>_GH__UCOPROJECT__UCO&#45;&gt;_GH__UCOPROJECT__ONTOLOGY_UNIFIEDCYBERONTOLOGY_ORG</title>
<path fill="none" stroke="black" d="M134.48,-276C162.65,-276 198.52,-276 230.12,-276"/>
<polygon fill="black" stroke="black" points="230.1,-279.5 240.1,-276 230.1,-272.5 230.1,-279.5"/>
<text text-anchor="middle" x="198.5" y="-294.8" font-family="Times,serif" font-size="14.00">Git sub&#45;</text>
<text text-anchor="middle" x="198.5" y="-279.8" font-family="Times,serif" font-size="14.00">module</text>
</g>
<!-- _GH__UCOPROJECT__UCO_PROFILE_EXAMPLE -->
<g id="node5" class="node">
<title>_GH__UCOPROJECT__UCO_PROFILE_EXAMPLE</title>
<g id="a_node5"><a xlink:href="https://github.com/ucoProject/UCO-Profile-Example" xlink:title="UCO example profile\nupdates">
<path fill="#8ec7d2" stroke="#0d6986" d="M362,-239C362,-239 251,-239 251,-239 245,-239 239,-233 239,-227 239,-227 239,-213 239,-213 239,-207 245,-201 251,-201 251,-201 362,-201 362,-201 368,-201 374,-207 374,-213 374,-213 374,-227 374,-227 374,-233 368,-239 362,-239"/>
<text text-anchor="middle" x="306.5" y="-223.8" font-family="Times,serif" font-size="14.00">UCO example profile</text>
<text text-anchor="middle" x="306.5" y="-208.8" font-family="Times,serif" font-size="14.00">updates</text>
</a>
</g>
</g>
<!-- _GH__UCOPROJECT__UCO&#45;&gt;_GH__UCOPROJECT__UCO_PROFILE_EXAMPLE -->
<g id="edge27" class="edge">
<title>_GH__UCOPROJECT__UCO&#45;&gt;_GH__UCOPROJECT__UCO_PROFILE_EXAMPLE</title>
<path fill="none" stroke="black" d="M131.68,-256.63C145.74,-251.32 161.34,-245.95 176,-242 192.69,-237.51 210.84,-233.75 228.13,-230.68"/>
<polygon fill="black" stroke="black" points="228.5,-234 237.76,-228.86 227.32,-227.1 228.5,-234"/>
<text text-anchor="middle" x="198.5" y="-260.8" font-family="Times,serif" font-size="14.00">Git sub&#45;</text>
<text text-anchor="middle" x="198.5" y="-245.8" font-family="Times,serif" font-size="14.00">module</text>
</g>
<!-- _GH__CASEWORK__CASE -->
<g id="node7" class="node">
<title>_GH__CASEWORK__CASE</title>
<g id="a_node7"><a xlink:href="https://github.com/casework/CASE" xlink:title="CASE Ontology\nreleases">
<path fill="#8ec7d2" stroke="#0d6986" d="M347.5,-408C347.5,-408 265.5,-408 265.5,-408 259.5,-408 253.5,-402 253.5,-396 253.5,-396 253.5,-382 253.5,-382 253.5,-376 259.5,-370 265.5,-370 265.5,-370 347.5,-370 347.5,-370 353.5,-370 359.5,-376 359.5,-382 359.5,-382 359.5,-396 359.5,-396 359.5,-402 353.5,-408 347.5,-408"/>
<text text-anchor="middle" x="306.5" y="-392.8" font-family="Times,serif" font-size="14.00">CASE Ontology</text>
<text text-anchor="middle" x="306.5" y="-377.8" font-family="Times,serif" font-size="14.00">releases</text>
</a>
</g>
</g>
<!-- _GH__UCOPROJECT__UCO&#45;&gt;_GH__CASEWORK__CASE -->
<g id="edge25" class="edge">
<title>_GH__UCOPROJECT__UCO&#45;&gt;_GH__CASEWORK__CASE</title>
<path fill="none" stroke="black" d="M114.17,-295.38C144.47,-314.95 193.7,-345.17 239,-366 240.42,-366.65 241.87,-367.3 243.33,-367.94"/>
<polygon fill="black" stroke="black" points="241.62,-371.43 252.2,-372.01 244.29,-364.96 241.62,-371.43"/>
<text text-anchor="middle" x="198.5" y="-373.8" font-family="Times,serif" font-size="14.00">Git sub&#45;</text>
<text text-anchor="middle" x="198.5" y="-358.8" font-family="Times,serif" font-size="14.00">module</text>
</g>
<!-- _GH__UCOPROJECT__UCO_PROFILE_BFO -->
<g id="node4" class="node">
<title>_GH__UCOPROJECT__UCO_PROFILE_BFO</title>
<g id="a_node4"><a xlink:href="https://github.com/ucoProject/UCO-Profile-BFO" xlink:title="UCO BFO profile\nupdates">
<path fill="#8ec7d2" stroke="#0d6986" d="M594.5,-288C594.5,-288 503.5,-288 503.5,-288 497.5,-288 491.5,-282 491.5,-276 491.5,-276 491.5,-262 491.5,-262 491.5,-256 497.5,-250 503.5,-250 503.5,-250 594.5,-250 594.5,-250 600.5,-250 606.5,-256 606.5,-262 606.5,-262 606.5,-276 606.5,-276 606.5,-282 600.5,-288 594.5,-288"/>
<text text-anchor="middle" x="549" y="-272.8" font-family="Times,serif" font-size="14.00">UCO BFO profile</text>
<text text-anchor="middle" x="549" y="-257.8" font-family="Times,serif" font-size="14.00">updates</text>
</a>
</g>
</g>
<!-- _GH__UCOPROJECT__UCO_PROFILE_EXAMPLE&#45;&gt;_GH__UCOPROJECT__UCO_PROFILE_BFO -->
<g id="edge28" class="edge">
<title>_GH__UCOPROJECT__UCO_PROFILE_EXAMPLE&#45;&gt;_GH__UCOPROJECT__UCO_PROFILE_BFO</title>
<path fill="none" stroke="black" d="M374.23,-238.83C380.22,-240.32 386.21,-241.73 392,-243 420.77,-249.3 452.82,-254.88 480.35,-259.24"/>
<polygon fill="black" stroke="black" points="479.63,-262.83 490.05,-260.92 480.71,-255.92 479.63,-262.83"/>
<text text-anchor="middle" x="427.5" y="-273.8" font-family="Times,serif" font-size="14.00">Git merge of</text>
<text text-anchor="middle" x="427.5" y="-258.8" font-family="Times,serif" font-size="14.00">base branch</text>
</g>
<!-- _GH__UCOPROJECT__UCO_PROFILE_FOAF -->
<g id="node6" class="node">
<title>_GH__UCOPROJECT__UCO_PROFILE_FOAF</title>
<g id="a_node6"><a xlink:href="https://github.com/ucoProject/UCO-Profile-FOAF" xlink:title="UCO FOAF profile\nupdates">
<path fill="#8ec7d2" stroke="#0d6986" d="M598.5,-232C598.5,-232 499.5,-232 499.5,-232 493.5,-232 487.5,-226 487.5,-220 487.5,-220 487.5,-206 487.5,-206 487.5,-200 493.5,-194 499.5,-194 499.5,-194 598.5,-194 598.5,-194 604.5,-194 610.5,-200 610.5,-206 610.5,-206 610.5,-220 610.5,-220 610.5,-226 604.5,-232 598.5,-232"/>
<text text-anchor="middle" x="549" y="-216.8" font-family="Times,serif" font-size="14.00">UCO FOAF profile</text>
<text text-anchor="middle" x="549" y="-201.8" font-family="Times,serif" font-size="14.00">updates</text>
</a>
</g>
</g>
<!-- _GH__UCOPROJECT__UCO_PROFILE_EXAMPLE&#45;&gt;_GH__UCOPROJECT__UCO_PROFILE_FOAF -->
<g id="edge29" class="edge">
<title>_GH__UCOPROJECT__UCO_PROFILE_EXAMPLE&#45;&gt;_GH__UCOPROJECT__UCO_PROFILE_FOAF</title>
<path fill="none" stroke="black" d="M374.35,-213.95C380.31,-213.56 386.26,-213.24 392,-213 419.59,-211.86 449.95,-211.63 476.49,-211.76"/>
<polygon fill="black" stroke="black" points="476.2,-215.27 486.23,-211.84 476.25,-208.27 476.2,-215.27"/>
<text text-anchor="middle" x="427.5" y="-231.8" font-family="Times,serif" font-size="14.00">Git merge of</text>
<text text-anchor="middle" x="427.5" y="-216.8" font-family="Times,serif" font-size="14.00">base branch</text>
</g>
<!-- _GH__CASEWORK__CASE&#45;&gt;_GH__CASEWORK__ONTOLOGY_CASEONTOLOGY_ORG -->
<g id="edge4" class="edge">
<title>_GH__CASEWORK__CASE&#45;&gt;_GH__CASEWORK__ONTOLOGY_CASEONTOLOGY_ORG</title>
<path fill="none" stroke="black" d="M359.7,-378C370.36,-375.9 381.53,-373.79 392,-372 417.25,-367.68 444.9,-363.58 469.81,-360.11"/>
<polygon fill="black" stroke="black" points="470.25,-363.45 479.68,-358.62 469.29,-356.52 470.25,-363.45"/>
<text text-anchor="middle" x="427.5" y="-390.8" font-family="Times,serif" font-size="14.00">Git sub&#45;</text>
<text text-anchor="middle" x="427.5" y="-375.8" font-family="Times,serif" font-size="14.00">module</text>
</g>
<!-- _GH__CIPHERTECHSOLUTIONS__CASE_BINDINGS_CSHARP -->
<g id="node19" class="node">
<title>_GH__CIPHERTECHSOLUTIONS__CASE_BINDINGS_CSHARP</title>
<g id="a_node19"><a xlink:href="https://github.com/ciphertechsolutions/CASE-Bindings-CSharp" xlink:title="CASE&#45;Bindings&#45;CSharp\nadopts new ontology version">
<path fill="#8ec7d2" stroke="#0d6986" d="M1389.5,-419C1389.5,-419 1240.5,-419 1240.5,-419 1234.5,-419 1228.5,-413 1228.5,-407 1228.5,-407 1228.5,-393 1228.5,-393 1228.5,-387 1234.5,-381 1240.5,-381 1240.5,-381 1389.5,-381 1389.5,-381 1395.5,-381 1401.5,-387 1401.5,-393 1401.5,-393 1401.5,-407 1401.5,-407 1401.5,-413 1395.5,-419 1389.5,-419"/>
<text text-anchor="middle" x="1315" y="-403.8" font-family="Times,serif" font-size="14.00">CASE&#45;Bindings&#45;CSharp</text>
<text text-anchor="middle" x="1315" y="-388.8" font-family="Times,serif" font-size="14.00">adopts new ontology version</text>
</a>
</g>
</g>
<!-- _GH__CASEWORK__CASE&#45;&gt;_GH__CIPHERTECHSOLUTIONS__CASE_BINDINGS_CSHARP -->
<g id="edge3" class="edge">
<title>_GH__CASEWORK__CASE&#45;&gt;_GH__CIPHERTECHSOLUTIONS__CASE_BINDINGS_CSHARP</title>
<path fill="none" stroke="black" d="M359.67,-398.03C370.33,-399.6 381.51,-401.03 392,-402 461.07,-408.4 478.63,-407 548,-407 548,-407 548,-407 1044,-407 1101.57,-407 1166.01,-405.39 1217.5,-403.71"/>
<polygon fill="black" stroke="black" points="1217.41,-407.19 1227.29,-403.36 1217.18,-400.19 1217.41,-407.19"/>
</g>
<!-- _GH__CASEWORK__CASE_UTILITIES_PYTHON -->
<g id="node23" class="node">
<title>_GH__CASEWORK__CASE_UTILITIES_PYTHON</title>
<g id="a_node23"><a xlink:href="https://github.com/casework/CASE-Utilities-Python" xlink:title="case&#45;utils\nreleases">
<path fill="#8ec7d2" stroke="#0d6986" d="M571,-670C571,-670 527,-670 527,-670 521,-670 515,-664 515,-658 515,-658 515,-644 515,-644 515,-638 521,-632 527,-632 527,-632 571,-632 571,-632 577,-632 583,-638 583,-644 583,-644 583,-658 583,-658 583,-664 577,-670 571,-670"/>
<text text-anchor="middle" x="549" y="-654.8" font-family="Times,serif" font-size="14.00">case&#45;utils</text>
<text text-anchor="middle" x="549" y="-639.8" font-family="Times,serif" font-size="14.00">releases</text>
</a>
</g>
</g>
<!-- _GH__CASEWORK__CASE&#45;&gt;_GH__CASEWORK__CASE_UTILITIES_PYTHON -->
<g id="edge2" class="edge">
<title>_GH__CASEWORK__CASE&#45;&gt;_GH__CASEWORK__CASE_UTILITIES_PYTHON</title>
<path fill="none" stroke="black" d="M316.29,-408.2C337.84,-453.21 397.73,-566.42 481,-628 487.95,-633.14 496.14,-637.19 504.36,-640.37"/>
<polygon fill="black" stroke="black" points="503.1,-643.98 513.7,-643.93 505.39,-637.36 503.1,-643.98"/>
<text text-anchor="middle" x="427.5" y="-631.8" font-family="Times,serif" font-size="14.00">Git sub&#45;</text>
<text text-anchor="middle" x="427.5" y="-616.8" font-family="Times,serif" font-size="14.00">module</text>
</g>
<!-- _GH__CASEWORK__CASE_IMPLEMENTATON_GNU_TIME -->
<g id="node9" class="node">
<title>_GH__CASEWORK__CASE_IMPLEMENTATON_GNU_TIME</title>
<g id="a_node9"><a xlink:href="https://github.com/casework/CASE-Implementation-GNU-Time" xlink:title="CASE&#45;Implementation&#45;GNU&#45;Time\nadopts new case&#45;utils">
<path fill="#8ec7d2" stroke="#0d6986" d="M1408,-357C1408,-357 1222,-357 1222,-357 1216,-357 1210,-351 1210,-345 1210,-345 1210,-331 1210,-331 1210,-325 1216,-319 1222,-319 1222,-319 1408,-319 1408,-319 1414,-319 1420,-325 1420,-331 1420,-331 1420,-345 1420,-345 1420,-351 1414,-357 1408,-357"/>
<text text-anchor="middle" x="1315" y="-341.8" font-family="Times,serif" font-size="14.00">CASE&#45;Implementation&#45;GNU&#45;Time</text>
<text text-anchor="middle" x="1315" y="-326.8" font-family="Times,serif" font-size="14.00">adopts new case&#45;utils</text>
</a>
</g>
</g>
<!-- _GH__CASEWORK__CASE_CORPORA -->
<g id="node10" class="node">
<title>_GH__CASEWORK__CASE_CORPORA</title>
<g id="a_node10"><a xlink:href="https://github.com/casework/CASE-Corpora" xlink:title="CASE&#45;Corpora\nadopts new case&#45;prov">
<path fill="#8ec7d2" stroke="#0d6986" d="M1715.5,-817C1715.5,-817 1605.5,-817 1605.5,-817 1599.5,-817 1593.5,-811 1593.5,-805 1593.5,-805 1593.5,-791 1593.5,-791 1593.5,-785 1599.5,-779 1605.5,-779 1605.5,-779 1715.5,-779 1715.5,-779 1721.5,-779 1727.5,-785 1727.5,-791 1727.5,-791 1727.5,-805 1727.5,-805 1727.5,-811 1721.5,-817 1715.5,-817"/>
<text text-anchor="middle" x="1660.5" y="-801.8" font-family="Times,serif" font-size="14.00">CASE&#45;Corpora</text>
<text text-anchor="middle" x="1660.5" y="-786.8" font-family="Times,serif" font-size="14.00">adopts new case&#45;prov</text>
</a>
</g>
</g>
<!-- _GH__CASEWORK__CASE_IMPLEMENTATON_PROV_O -->
<g id="node11" class="node">
<title>_GH__CASEWORK__CASE_IMPLEMENTATON_PROV_O</title>
<g id="a_node11"><a xlink:href="https://github.com/casework/CASE-Implementation-PROV-O" xlink:title="case&#45;prov\nreleases">
<path fill="#8ec7d2" stroke="#0d6986" d="M1337.5,-817C1337.5,-817 1292.5,-817 1292.5,-817 1286.5,-817 1280.5,-811 1280.5,-805 1280.5,-805 1280.5,-791 1280.5,-791 1280.5,-785 1286.5,-779 1292.5,-779 1292.5,-779 1337.5,-779 1337.5,-779 1343.5,-779 1349.5,-785 1349.5,-791 1349.5,-791 1349.5,-805 1349.5,-805 1349.5,-811 1343.5,-817 1337.5,-817"/>
<text text-anchor="middle" x="1315" y="-801.8" font-family="Times,serif" font-size="14.00">case&#45;prov</text>
<text text-anchor="middle" x="1315" y="-786.8" font-family="Times,serif" font-size="14.00">releases</text>
</a>
</g>
</g>
<!-- _GH__CASEWORK__CASE_IMPLEMENTATON_PROV_O&#45;&gt;_GH__CASEWORK__CASE_CORPORA -->
<g id="edge6" class="edge">
<title>_GH__CASEWORK__CASE_IMPLEMENTATON_PROV_O&#45;&gt;_GH__CASEWORK__CASE_CORPORA</title>
<path fill="none" stroke="black" d="M1349.88,-798C1403.49,-798 1509.26,-798 1582.14,-798"/>
<polygon fill="black" stroke="black" points="1582.1,-801.5 1592.1,-798 1582.1,-794.5 1582.1,-801.5"/>
<text text-anchor="middle" x="1477.5" y="-801.8" font-family="Times,serif" font-size="14.00">PyPI</text>
</g>
<!-- _GH__CASEWORK__CASE_IMPLEMENTATON_PYPI_EXIFREAD -->
<g id="node12" class="node">
<title>_GH__CASEWORK__CASE_IMPLEMENTATON_PYPI_EXIFREAD</title>
<g id="a_node12"><a xlink:href="https://github.com/casework/CASE-Implementation-PyPI-Exifread" xlink:title="CASE&#45;Implementation&#45;PyPI&#45;Exifread\nadopts new case&#45;validation&#45;action">
<path fill="#8ec7d2" stroke="#0d6986" d="M1760.5,-730C1760.5,-730 1560.5,-730 1560.5,-730 1554.5,-730 1548.5,-724 1548.5,-718 1548.5,-718 1548.5,-704 1548.5,-704 1548.5,-698 1554.5,-692 1560.5,-692 1560.5,-692 1760.5,-692 1760.5,-692 1766.5,-692 1772.5,-698 1772.5,-704 1772.5,-704 1772.5,-718 1772.5,-718 1772.5,-724 1766.5,-730 1760.5,-730"/>
<text text-anchor="middle" x="1660.5" y="-714.8" font-family="Times,serif" font-size="14.00">CASE&#45;Implementation&#45;PyPI&#45;Exifread</text>
<text text-anchor="middle" x="1660.5" y="-699.8" font-family="Times,serif" font-size="14.00">adopts new case&#45;validation&#45;action</text>
</a>
</g>
</g>
<!-- _GH__CASEWORK__CASE_IMPLEMENTATON_PYPI_PILLOW -->
<g id="node13" class="node">
<title>_GH__CASEWORK__CASE_IMPLEMENTATON_PYPI_PILLOW</title>
<g id="a_node13"><a xlink:href="https://github.com/casework/CASE-Implementation-PyPI-Pillow" xlink:title="CASE&#45;Implementation&#45;PyPI&#45;Pillow\nadopts new case&#45;validation&#45;action">
<path fill="#8ec7d2" stroke="#0d6986" d="M1755,-672C1755,-672 1566,-672 1566,-672 1560,-672 1554,-666 1554,-660 1554,-660 1554,-646 1554,-646 1554,-640 1560,-634 1566,-634 1566,-634 1755,-634 1755,-634 1761,-634 1767,-640 1767,-646 1767,-646 1767,-660 1767,-660 1767,-666 1761,-672 1755,-672"/>
<text text-anchor="middle" x="1660.5" y="-656.8" font-family="Times,serif" font-size="14.00">CASE&#45;Implementation&#45;PyPI&#45;Pillow</text>
<text text-anchor="middle" x="1660.5" y="-641.8" font-family="Times,serif" font-size="14.00">adopts new case&#45;validation&#45;action</text>
</a>
</g>
</g>
<!-- _GH__CASEWORK__CASE_IMPLEMENTATON_UFED_XML -->
<g id="node14" class="node">
<title>_GH__CASEWORK__CASE_IMPLEMENTATON_UFED_XML</title>
<g id="a_node14"><a xlink:href="https://github.com/casework/CASE-Implementation-UFED-XML" xlink:title="CASE&#45;Implementation&#45;UFED&#45;XML\nadopts new case&#45;validation&#45;action">
<path fill="#8ec7d2" stroke="#0d6986" d="M1757.5,-504C1757.5,-504 1563.5,-504 1563.5,-504 1557.5,-504 1551.5,-498 1551.5,-492 1551.5,-492 1551.5,-478 1551.5,-478 1551.5,-472 1557.5,-466 1563.5,-466 1563.5,-466 1757.5,-466 1757.5,-466 1763.5,-466 1769.5,-472 1769.5,-478 1769.5,-478 1769.5,-492 1769.5,-492 1769.5,-498 1763.5,-504 1757.5,-504"/>
<text text-anchor="middle" x="1660.5" y="-488.8" font-family="Times,serif" font-size="14.00">CASE&#45;Implementation&#45;UFED&#45;XML</text>
<text text-anchor="middle" x="1660.5" y="-473.8" font-family="Times,serif" font-size="14.00">adopts new case&#45;validation&#45;action</text>
</a>
</g>
</g>
<!-- _GH__CASEWORK__CASE_IMPLEMENTATON_XRY -->
<g id="node15" class="node">
<title>_GH__CASEWORK__CASE_IMPLEMENTATON_XRY</title>
<g id="a_node15"><a xlink:href="https://github.com/casework/CASE-Implementation-XRY" xlink:title="CASE&#45;Implementation&#45;XRY adopts\nnew case&#45;validation&#45;action">
<path fill="#8ec7d2" stroke="#0d6986" d="M1755.5,-560C1755.5,-560 1565.5,-560 1565.5,-560 1559.5,-560 1553.5,-554 1553.5,-548 1553.5,-548 1553.5,-534 1553.5,-534 1553.5,-528 1559.5,-522 1565.5,-522 1565.5,-522 1755.5,-522 1755.5,-522 1761.5,-522 1767.5,-528 1767.5,-534 1767.5,-534 1767.5,-548 1767.5,-548 1767.5,-554 1761.5,-560 1755.5,-560"/>
<text text-anchor="middle" x="1660.5" y="-544.8" font-family="Times,serif" font-size="14.00">CASE&#45;Implementation&#45;XRY adopts</text>
<text text-anchor="middle" x="1660.5" y="-529.8" font-family="Times,serif" font-size="14.00">new case&#45;validation&#45;action</text>
</a>
</g>
</g>
<!-- _GH__CASEWORK__CASE_MAPPING_TEMPLATE_PYTHON -->
<g id="node16" class="node">
<title>_GH__CASEWORK__CASE_MAPPING_TEMPLATE_PYTHON</title>
<g id="a_node16"><a xlink:href="https://github.com/casework/CASE-Mapping-Template-Python" xlink:title="CASE&#45;Mapping&#45;Template&#45;Python\nadopts new case&#45;validation&#45;action">
<path fill="#8ec7d2" stroke="#0d6986" d="M1750.5,-616C1750.5,-616 1570.5,-616 1570.5,-616 1564.5,-616 1558.5,-610 1558.5,-604 1558.5,-604 1558.5,-590 1558.5,-590 1558.5,-584 1564.5,-578 1570.5,-578 1570.5,-578 1750.5,-578 1750.5,-578 1756.5,-578 1762.5,-584 1762.5,-590 1762.5,-590 1762.5,-604 1762.5,-604 1762.5,-610 1756.5,-616 1750.5,-616"/>
<text text-anchor="middle" x="1660.5" y="-600.8" font-family="Times,serif" font-size="14.00">CASE&#45;Mapping&#45;Template&#45;Python</text>
<text text-anchor="middle" x="1660.5" y="-585.8" font-family="Times,serif" font-size="14.00">adopts new case&#45;validation&#45;action</text>
</a>
</g>
</g>
<!-- _GH__KCHASON__CASE_VALIDATION_ACTION -->
<g id="node17" class="node">
<title>_GH__KCHASON__CASE_VALIDATION_ACTION</title>
<g id="a_node17"><a xlink:href="https://github.com/kchason/case-validation-action" xlink:title="case&#45;validation&#45;action\nreleases">
<path fill="#8ec7d2" stroke="#0d6986" d="M1371,-571C1371,-571 1259,-571 1259,-571 1253,-571 1247,-565 1247,-559 1247,-559 1247,-545 1247,-545 1247,-539 1253,-533 1259,-533 1259,-533 1371,-533 1371,-533 1377,-533 1383,-539 1383,-545 1383,-545 1383,-559 1383,-559 1383,-565 1377,-571 1371,-571"/>
<text text-anchor="middle" x="1315" y="-555.8" font-family="Times,serif" font-size="14.00">case&#45;validation&#45;action</text>
<text text-anchor="middle" x="1315" y="-540.8" font-family="Times,serif" font-size="14.00">releases</text>
</a>
</g>
</g>
<!-- _GH__KCHASON__CASE_VALIDATION_ACTION&#45;&gt;_GH__CASEWORK__CASE_IMPLEMENTATON_PYPI_EXIFREAD -->
<g id="edge18" class="edge">
<title>_GH__KCHASON__CASE_VALIDATION_ACTION&#45;&gt;_GH__CASEWORK__CASE_IMPLEMENTATON_PYPI_EXIFREAD</title>
<path fill="none" stroke="black" d="M1330.09,-571.5C1350.61,-598.31 1391.38,-645.97 1438,-670 1468.35,-685.64 1503.76,-695.38 1537.25,-701.43"/>
<polygon fill="black" stroke="black" points="1536.6,-705.04 1547.04,-703.27 1537.77,-698.14 1536.6,-705.04"/>
<text text-anchor="middle" x="1477.5" y="-714.8" font-family="Times,serif" font-size="14.00">GitHub</text>
<text text-anchor="middle" x="1477.5" y="-699.8" font-family="Times,serif" font-size="14.00">Action</text>
</g>
<!-- _GH__KCHASON__CASE_VALIDATION_ACTION&#45;&gt;_GH__CASEWORK__CASE_IMPLEMENTATON_PYPI_PILLOW -->
<g id="edge19" class="edge">
<title>_GH__KCHASON__CASE_VALIDATION_ACTION&#45;&gt;_GH__CASEWORK__CASE_IMPLEMENTATON_PYPI_PILLOW</title>
<path fill="none" stroke="black" d="M1345.83,-571.49C1369.79,-586.23 1404.8,-605.8 1438,-617 1471.29,-628.23 1508.61,-636.01 1542.99,-641.39"/>
<polygon fill="black" stroke="black" points="1542.14,-644.95 1552.55,-642.98 1543.19,-638.03 1542.14,-644.95"/>
<text text-anchor="middle" x="1477.5" y="-654.8" font-family="Times,serif" font-size="14.00">GitHub</text>
<text text-anchor="middle" x="1477.5" y="-639.8" font-family="Times,serif" font-size="14.00">Action</text>
</g>
<!-- _GH__KCHASON__CASE_VALIDATION_ACTION&#45;&gt;_GH__CASEWORK__CASE_IMPLEMENTATON_UFED_XML -->
<g id="edge20" class="edge">
<title>_GH__KCHASON__CASE_VALIDATION_ACTION&#45;&gt;_GH__CASEWORK__CASE_IMPLEMENTATON_UFED_XML</title>
<path fill="none" stroke="black" d="M1360.36,-532.54C1383.14,-523.34 1411.6,-513.08 1438,-507 1470.79,-499.45 1506.9,-494.5 1540.28,-491.24"/>
<polygon fill="black" stroke="black" points="1540.38,-494.65 1550.02,-490.24 1539.73,-487.68 1540.38,-494.65"/>
<text text-anchor="middle" x="1477.5" y="-525.8" font-family="Times,serif" font-size="14.00">GitHub</text>
<text text-anchor="middle" x="1477.5" y="-510.8" font-family="Times,serif" font-size="14.00">Action</text>
</g>
<!-- _GH__KCHASON__CASE_VALIDATION_ACTION&#45;&gt;_GH__CASEWORK__CASE_IMPLEMENTATON_XRY -->
<g id="edge21" class="edge">
<title>_GH__KCHASON__CASE_VALIDATION_ACTION&#45;&gt;_GH__CASEWORK__CASE_IMPLEMENTATON_XRY</title>
<path fill="none" stroke="black" d="M1383.41,-546.95C1401.15,-545.79 1420.29,-544.7 1438,-544 1471.81,-542.66 1508.54,-541.89 1542.19,-541.45"/>
<polygon fill="black" stroke="black" points="1542.05,-544.94 1552,-541.32 1541.96,-537.94 1542.05,-544.94"/>
<text text-anchor="middle" x="1477.5" y="-562.8" font-family="Times,serif" font-size="14.00">GitHub</text>
<text text-anchor="middle" x="1477.5" y="-547.8" font-family="Times,serif" font-size="14.00">Action</text>
</g>
<!-- _GH__KCHASON__CASE_VALIDATION_ACTION&#45;&gt;_GH__CASEWORK__CASE_MAPPING_TEMPLATE_PYTHON -->
<g id="edge22" class="edge">
<title>_GH__KCHASON__CASE_VALIDATION_ACTION&#45;&gt;_GH__CASEWORK__CASE_MAPPING_TEMPLATE_PYTHON</title>
<path fill="none" stroke="black" d="M1383.29,-565.07C1401.04,-568.26 1420.21,-571.48 1438,-574 1473.47,-579.03 1512.28,-583.44 1547.37,-587"/>
<polygon fill="black" stroke="black" points="1546.83,-590.57 1557.13,-588.09 1547.53,-583.6 1546.83,-590.57"/>
<text text-anchor="middle" x="1477.5" y="-601.8" font-family="Times,serif" font-size="14.00">GitHub</text>
<text text-anchor="middle" x="1477.5" y="-586.8" font-family="Times,serif" font-size="14.00">Action</text>
</g>
<!-- _GH__CASEWORK__CASE_BINDINGS_CSHARP_MONITOR -->
<g id="node18" class="node">
<title>_GH__CASEWORK__CASE_BINDINGS_CSHARP_MONITOR</title>
<g id="a_node18"><a xlink:href="https://github.com/casework/CASE-Bindings-CSharp-Monitor" xlink:title="CASE Bindings CSharp Monitor\ntests NuGet package with validation action">
<path fill="#8ec7d2" stroke="#0d6986" d="M1774,-419C1774,-419 1547,-419 1547,-419 1541,-419 1535,-413 1535,-407 1535,-407 1535,-393 1535,-393 1535,-387 1541,-381 1547,-381 1547,-381 1774,-381 1774,-381 1780,-381 1786,-387 1786,-393 1786,-393 1786,-407 1786,-407 1786,-413 1780,-419 1774,-419"/>
<text text-anchor="middle" x="1660.5" y="-403.8" font-family="Times,serif" font-size="14.00">CASE Bindings CSharp Monitor</text>
<text text-anchor="middle" x="1660.5" y="-388.8" font-family="Times,serif" font-size="14.00">tests NuGet package with validation action</text>
</a>
</g>
</g>
<!-- _GH__KCHASON__CASE_VALIDATION_ACTION&#45;&gt;_GH__CASEWORK__CASE_BINDINGS_CSHARP_MONITOR -->
<g id="edge17" class="edge">
<title>_GH__KCHASON__CASE_VALIDATION_ACTION&#45;&gt;_GH__CASEWORK__CASE_BINDINGS_CSHARP_MONITOR</title>
<path fill="none" stroke="black" d="M1337.12,-532.76C1360.43,-512.31 1399.74,-480.07 1438,-459 1478.28,-436.82 1490.67,-435.22 1535,-423 1536.11,-422.69 1537.23,-422.39 1538.36,-422.09"/>
<polygon fill="black" stroke="black" points="1538.81,-425.33 1547.63,-419.46 1537.07,-418.55 1538.81,-425.33"/>
<text text-anchor="middle" x="1477.5" y="-477.8" font-family="Times,serif" font-size="14.00">GitHub</text>
<text text-anchor="middle" x="1477.5" y="-462.8" font-family="Times,serif" font-size="14.00">Action</text>
</g>
<!-- _GH__DOD_CYBER_CRIME_CENTER__SQLITE_DISSECT -->
<g id="node25" class="node">
<title>_GH__DOD_CYBER_CRIME_CENTER__SQLITE_DISSECT</title>
<g id="a_node25"><a xlink:href="https://github.com/dod-cyber-crime-center/sqlite-dissect" xlink:title="sqlite&#45;dissect\nadopts new case&#45;validation&#45;action">
<path fill="#8ec7d2" stroke="#0d6986" d="M1749,-178C1749,-178 1572,-178 1572,-178 1566,-178 1560,-172 1560,-166 1560,-166 1560,-152 1560,-152 1560,-146 1566,-140 1572,-140 1572,-140 1749,-140 1749,-140 1755,-140 1761,-146 1761,-152 1761,-152 1761,-166 1761,-166 1761,-172 1755,-178 1749,-178"/>
<text text-anchor="middle" x="1660.5" y="-162.8" font-family="Times,serif" font-size="14.00">sqlite&#45;dissect</text>
<text text-anchor="middle" x="1660.5" y="-147.8" font-family="Times,serif" font-size="14.00">adopts new case&#45;validation&#45;action</text>
</a>
</g>
</g>
<!-- _GH__KCHASON__CASE_VALIDATION_ACTION&#45;&gt;_GH__DOD_CYBER_CRIME_CENTER__SQLITE_DISSECT -->
<g id="edge23" class="edge">
<title>_GH__KCHASON__CASE_VALIDATION_ACTION&#45;&gt;_GH__DOD_CYBER_CRIME_CENTER__SQLITE_DISSECT</title>
<g id="a_edge23"><a xlink:href="https://github.com/dod-cyber-crime-center/sqlite-dissect/pull/31" xlink:title="TODO: PR 31">
<path fill="none" stroke="black" d="M1345.13,-532.69C1369.18,-515.11 1402.15,-486.94 1420,-454 1441.52,-414.3 1415.82,-393.33 1438,-354 1481,-277.75 1565.28,-216.42 1616.57,-184.06"/>
<polygon fill="black" stroke="black" points="1618.1,-186.6 1624.75,-178.35 1614.41,-180.66 1618.1,-186.6"/>
</a>
</g>
<g id="a_edge23&#45;label"><a xlink:href="https://github.com/dod-cyber-crime-center/sqlite-dissect/pull/31" xlink:title="TODO: PR 31">
<text text-anchor="middle" x="1477.5" y="-357.8" font-family="Times,serif" font-size="14.00">TODO: PR 31</text>
</a>
</g>
</g>
<!-- _GH__CIPHERTECHSOLUTIONS__CASE_BINDINGS_CSHARP&#45;&gt;_GH__CASEWORK__CASE_BINDINGS_CSHARP_MONITOR -->
<g id="edge16" class="edge">
<title>_GH__CIPHERTECHSOLUTIONS__CASE_BINDINGS_CSHARP&#45;&gt;_GH__CASEWORK__CASE_BINDINGS_CSHARP_MONITOR</title>
<path fill="none" stroke="black" d="M1401.96,-395.24C1414.06,-394.73 1426.34,-394.29 1438,-394 1465.79,-393.32 1495.54,-393.5 1523.94,-394.11"/>
<polygon fill="black" stroke="black" points="1523.66,-397.63 1533.74,-394.36 1523.83,-390.63 1523.66,-397.63"/>
<text text-anchor="middle" x="1477.5" y="-397.8" font-family="Times,serif" font-size="14.00">NuGet</text>
</g>
<!-- _GH__AJNELSON_NIST__CASE_EXAMPLES_QC -->
<g id="node20" class="node">
<title>_GH__AJNELSON_NIST__CASE_EXAMPLES_QC</title>
<g id="a_node20"><a xlink:href="https://github.com/ajnelson-nist/CASE-Examples-QC" xlink:title="CASE&#45;Examples&#45;QC\nadopts CASE&#45;Examples and\nCASE website updates">
<path fill="#8ec7d2" stroke="#0d6986" d="M1117,-756.5C1117,-756.5 969,-756.5 969,-756.5 963,-756.5 957,-750.5 957,-744.5 957,-744.5 957,-715.5 957,-715.5 957,-709.5 963,-703.5 969,-703.5 969,-703.5 1117,-703.5 1117,-703.5 1123,-703.5 1129,-709.5 1129,-715.5 1129,-715.5 1129,-744.5 1129,-744.5 1129,-750.5 1123,-756.5 1117,-756.5"/>
<text text-anchor="middle" x="1043" y="-741.3" font-family="Times,serif" font-size="14.00">CASE&#45;Examples&#45;QC</text>
<text text-anchor="middle" x="1043" y="-726.3" font-family="Times,serif" font-size="14.00">adopts CASE&#45;Examples and</text>
<text text-anchor="middle" x="1043" y="-711.3" font-family="Times,serif" font-size="14.00">CASE website updates</text>
</a>
</g>
</g>
<!-- _GH__AJNELSON_NIST__CASE_EXAMPLES_QC&#45;&gt;_GH__CASEWORK__CASE_IMPLEMENTATON_PROV_O -->
<g id="edge1" class="edge">
<title>_GH__AJNELSON_NIST__CASE_EXAMPLES_QC&#45;&gt;_GH__CASEWORK__CASE_IMPLEMENTATON_PROV_O</title>
<path fill="none" stroke="black" d="M1129.43,-751.52C1176.17,-763.29 1232.12,-777.38 1270.08,-786.94"/>
<polygon fill="black" stroke="black" points="1268.73,-790.46 1279.28,-789.51 1270.44,-783.67 1268.73,-790.46"/>
<text text-anchor="middle" x="1169.5" y="-784.8" font-family="Times,serif" font-size="14.00">Git sub&#45;</text>
<text text-anchor="middle" x="1169.5" y="-769.8" font-family="Times,serif" font-size="14.00">module</text>
</g>
<!-- _GH__CASEWORK__CASE_EXAMPLES -->
<g id="node21" class="node">
<title>_GH__CASEWORK__CASE_EXAMPLES</title>
<g id="a_node21"><a xlink:href="https://github.com/casework/CASE-Examples" xlink:title="CASE&#45;Examples\nadopts new case&#45;utils">
<path fill="#8ec7d2" stroke="#0d6986" d="M832.5,-721C832.5,-721 723.5,-721 723.5,-721 717.5,-721 711.5,-715 711.5,-709 711.5,-709 711.5,-695 711.5,-695 711.5,-689 717.5,-683 723.5,-683 723.5,-683 832.5,-683 832.5,-683 838.5,-683 844.5,-689 844.5,-695 844.5,-695 844.5,-709 844.5,-709 844.5,-715 838.5,-721 832.5,-721"/>
<text text-anchor="middle" x="778" y="-705.8" font-family="Times,serif" font-size="14.00">CASE&#45;Examples</text>
<text text-anchor="middle" x="778" y="-690.8" font-family="Times,serif" font-size="14.00">adopts new case&#45;utils</text>
</a>
</g>
</g>
<!-- _GH__CASEWORK__CASE_EXAMPLES&#45;&gt;_GH__AJNELSON_NIST__CASE_EXAMPLES_QC -->
<g id="edge5" class="edge">
<title>_GH__CASEWORK__CASE_EXAMPLES&#45;&gt;_GH__AJNELSON_NIST__CASE_EXAMPLES_QC</title>
<path fill="none" stroke="black" d="M844.63,-700C873.66,-699.94 908.14,-701.01 939,-705 941.25,-705.29 943.51,-705.61 945.8,-705.96"/>
<polygon fill="black" stroke="black" points="945.12,-709.56 955.56,-707.76 946.27,-702.65 945.12,-709.56"/>
<text text-anchor="middle" x="916.5" y="-723.8" font-family="Times,serif" font-size="14.00">Git sub&#45;</text>
<text text-anchor="middle" x="916.5" y="-708.8" font-family="Times,serif" font-size="14.00">module</text>
</g>
<!-- _GH__CASEWORK__CASE_IMPLEMENTATON_EXIFTOOL -->
<g id="node22" class="node">
<title>_GH__CASEWORK__CASE_IMPLEMENTATON_EXIFTOOL</title>
<g id="a_node22"><a xlink:href="https://github.com/casework/CASE-Implementation-ExifTool" xlink:title="CASE&#45;Implementation&#45;ExifTool\nadopts new case&#45;utils">
<path fill="#8ec7d2" stroke="#0d6986" d="M864,-833C864,-833 692,-833 692,-833 686,-833 680,-827 680,-821 680,-821 680,-807 680,-807 680,-801 686,-795 692,-795 692,-795 864,-795 864,-795 870,-795 876,-801 876,-807 876,-807 876,-821 876,-821 876,-827 870,-833 864,-833"/>
<text text-anchor="middle" x="778" y="-817.8" font-family="Times,serif" font-size="14.00">CASE&#45;Implementation&#45;ExifTool</text>
<text text-anchor="middle" x="778" y="-802.8" font-family="Times,serif" font-size="14.00">adopts new case&#45;utils</text>
</a>
</g>
</g>
<!-- _GH__CASEWORK__CASE_UTILITIES_PYTHON&#45;&gt;_GH__CASEWORK__CASE_IMPLEMENTATON_GNU_TIME -->
<g id="edge10" class="edge">
<title>_GH__CASEWORK__CASE_UTILITIES_PYTHON&#45;&gt;_GH__CASEWORK__CASE_IMPLEMENTATON_GNU_TIME</title>
<path fill="none" stroke="black" d="M583.45,-644.66C595.01,-641.21 607.46,-635.95 617,-628 629.54,-617.56 623.43,-607.51 635,-596 651.22,-579.86 659.28,-580.71 680,-571 905.26,-465.45 965.83,-447.16 1202,-369 1210.77,-366.1 1219.98,-363.24 1229.2,-360.51"/>
<polygon fill="black" stroke="black" points="1229.97,-363.64 1238.59,-357.48 1228.01,-356.92 1229.97,-363.64"/>
<text text-anchor="middle" x="916.5" y="-478.8" font-family="Times,serif" font-size="14.00">PyPI</text>
</g>
<!-- _GH__CASEWORK__CASE_UTILITIES_PYTHON&#45;&gt;_GH__CASEWORK__CASE_IMPLEMENTATON_PROV_O -->
<g id="edge11" class="edge">
<title>_GH__CASEWORK__CASE_UTILITIES_PYTHON&#45;&gt;_GH__CASEWORK__CASE_IMPLEMENTATON_PROV_O</title>
<path fill="none" stroke="black" d="M583.48,-643.95C678.17,-625.89 952.93,-586.65 1137,-695 1167.61,-713.02 1169.4,-725.59 1192,-753 1196.86,-758.9 1195.73,-762.62 1202,-767 1221.8,-780.85 1247.59,-788.52 1269.43,-792.77"/>
<polygon fill="black" stroke="black" points="1268.66,-796.37 1279.11,-794.64 1269.86,-789.47 1268.66,-796.37"/>
<text text-anchor="middle" x="916.5" y="-632.8" font-family="Times,serif" font-size="14.00">PyPI</text>
</g>
<!-- _GH__CASEWORK__CASE_UTILITIES_PYTHON&#45;&gt;_GH__CASEWORK__CASE_IMPLEMENTATON_PYPI_EXIFREAD -->
<g id="edge12" class="edge">
<title>_GH__CASEWORK__CASE_UTILITIES_PYTHON&#45;&gt;_GH__CASEWORK__CASE_IMPLEMENTATON_PYPI_EXIFREAD</title>
<path fill="none" stroke="black" d="M556.4,-670.35C570.95,-710.79 610.68,-803.64 680,-842 718.17,-863.12 733.38,-857 777,-857 777,-857 777,-857 1316,-857 1405.36,-857 1448.28,-909.12 1517,-852 1546.7,-827.32 1510.77,-797.07 1535,-767 1545.96,-753.4 1560.93,-742.99 1576.69,-735.06"/>
<polygon fill="black" stroke="black" points="1578,-737.84 1585.58,-730.43 1575.04,-731.5 1578,-737.84"/>
<text text-anchor="middle" x="1043" y="-860.8" font-family="Times,serif" font-size="14.00">PyPI</text>
</g>
<!-- _GH__CASEWORK__CASE_UTILITIES_PYTHON&#45;&gt;_GH__KCHASON__CASE_VALIDATION_ACTION -->
<g id="edge13" class="edge">
<title>_GH__CASEWORK__CASE_UTILITIES_PYTHON&#45;&gt;_GH__KCHASON__CASE_VALIDATION_ACTION</title>
<path fill="none" stroke="black" d="M583.23,-643.24C594.52,-639.68 606.84,-634.72 617,-628 626.97,-621.4 624.4,-613.53 635,-608 687.19,-580.8 1068.64,-562.04 1235.84,-555.04"/>
<polygon fill="black" stroke="black" points="1235.93,-558.5 1245.78,-554.59 1235.64,-551.51 1235.93,-558.5"/>
<text text-anchor="middle" x="916.5" y="-576.8" font-family="Times,serif" font-size="14.00">PyPI</text>
</g>
<!-- _GH__CASEWORK__CASE_UTILITIES_PYTHON&#45;&gt;_GH__AJNELSON_NIST__CASE_EXAMPLES_QC -->
<g id="edge7" class="edge">
<title>_GH__CASEWORK__CASE_UTILITIES_PYTHON&#45;&gt;_GH__AJNELSON_NIST__CASE_EXAMPLES_QC</title>
<path fill="none" stroke="black" d="M583.34,-647.72C642.91,-642.76 771.17,-636.18 876,-659 913.03,-667.06 952.12,-683.35 983.05,-698.29"/>
<polygon fill="black" stroke="black" points="981.28,-701.81 991.79,-703.08 984.37,-695.53 981.28,-701.81"/>
<text text-anchor="middle" x="778" y="-662.8" font-family="Times,serif" font-size="14.00">PyPI</text>
</g>
<!-- _GH__CASEWORK__CASE_UTILITIES_PYTHON&#45;&gt;_GH__CASEWORK__CASE_EXAMPLES -->
<g id="edge8" class="edge">
<title>_GH__CASEWORK__CASE_UTILITIES_PYTHON&#45;&gt;_GH__CASEWORK__CASE_EXAMPLES</title>
<path fill="none" stroke="black" d="M583.49,-658.53C614.29,-665.44 661.07,-675.95 700.92,-684.91"/>
<polygon fill="black" stroke="black" points="699.89,-688.49 710.42,-687.27 701.43,-681.66 699.89,-688.49"/>
<text text-anchor="middle" x="648.5" y="-677.8" font-family="Times,serif" font-size="14.00">PyPI</text>
</g>
<!-- _GH__CASEWORK__CASE_UTILITIES_PYTHON&#45;&gt;_GH__CASEWORK__CASE_IMPLEMENTATON_EXIFTOOL -->
<g id="edge9" class="edge">
<title>_GH__CASEWORK__CASE_UTILITIES_PYTHON&#45;&gt;_GH__CASEWORK__CASE_IMPLEMENTATON_EXIFTOOL</title>
<path fill="none" stroke="black" d="M563.22,-670.22C584.42,-699.59 628.89,-755.45 680,-786 682.37,-787.42 684.81,-788.76 687.32,-790.05"/>
<polygon fill="black" stroke="black" points="685.67,-793.61 696.22,-794.68 688.64,-787.27 685.67,-793.61"/>
<text text-anchor="middle" x="648.5" y="-774.8" font-family="Times,serif" font-size="14.00">PyPI</text>
</g>
<!-- _GH__CASEWORK__CASEWORK_GITHUB_IO -->
<g id="node24" class="node">
<title>_GH__CASEWORK__CASEWORK_GITHUB_IO</title>
<g id="a_node24"><a xlink:href="https://github.com/casework/casework.github.io" xlink:title="CASE website\nadopts new case&#45;utils">
<path fill="#8ec7d2" stroke="#0d6986" d="M832.5,-777C832.5,-777 723.5,-777 723.5,-777 717.5,-777 711.5,-771 711.5,-765 711.5,-765 711.5,-751 711.5,-751 711.5,-745 717.5,-739 723.5,-739 723.5,-739 832.5,-739 832.5,-739 838.5,-739 844.5,-745 844.5,-751 844.5,-751 844.5,-765 844.5,-765 844.5,-771 838.5,-777 832.5,-777"/>
<text text-anchor="middle" x="778" y="-761.8" font-family="Times,serif" font-size="14.00">CASE website</text>
<text text-anchor="middle" x="778" y="-746.8" font-family="Times,serif" font-size="14.00">adopts new case&#45;utils</text>
</a>
</g>
</g>
<!-- _GH__CASEWORK__CASE_UTILITIES_PYTHON&#45;&gt;_GH__CASEWORK__CASEWORK_GITHUB_IO -->
<g id="edge14" class="edge">
<title>_GH__CASEWORK__CASE_UTILITIES_PYTHON&#45;&gt;_GH__CASEWORK__CASEWORK_GITHUB_IO</title>
<path fill="none" stroke="black" d="M576.74,-670.17C602.25,-687.73 642.27,-713.44 680,-730 686.79,-732.98 693.98,-735.74 701.25,-738.27"/>
<polygon fill="black" stroke="black" points="699.6,-741.74 710.2,-741.57 701.81,-735.1 699.6,-741.74"/>
<text text-anchor="middle" x="648.5" y="-724.8" font-family="Times,serif" font-size="14.00">PyPI</text>
</g>
<!-- _GH__CASEWORK__CASEWORK_GITHUB_IO&#45;&gt;_GH__AJNELSON_NIST__CASE_EXAMPLES_QC -->
<g id="edge15" class="edge">
<title>_GH__CASEWORK__CASEWORK_GITHUB_IO&#45;&gt;_GH__AJNELSON_NIST__CASE_EXAMPLES_QC</title>
<path fill="none" stroke="black" d="M844.69,-751.01C875.3,-747.75 912.33,-743.81 946,-740.22"/>
<polygon fill="black" stroke="black" points="946.23,-743.61 955.8,-739.07 945.49,-736.65 946.23,-743.61"/>
<text text-anchor="middle" x="916.5" y="-763.8" font-family="Times,serif" font-size="14.00">Git sub&#45;</text>
<text text-anchor="middle" x="916.5" y="-748.8" font-family="Times,serif" font-size="14.00">module</text>
</g>
</g>
</svg>
