<?xml version="1.0" encoding="UTF-8" standalone="no"?>
<!DOCTYPE svg PUBLIC "-//W3C//DTD SVG 1.1//EN"
 "http://www.w3.org/Graphics/SVG/1.1/DTD/svg11.dtd">
<!-- Generated by graphviz version 7.1.0 (20230121.1956)
 -->
<!-- Title: cdo_release_flow Pages: 1 -->
<svg width="1606pt" height="1151pt"
 viewBox="0.00 0.00 1606.00 1151.00" xmlns="http://www.w3.org/2000/svg" xmlns:xlink="http://www.w3.org/1999/xlink">
<g id="graph0" class="graph" transform="scale(1 1) rotate(0) translate(4 1147)">
<title>cdo_release_flow</title>
<polygon fill="white" stroke="none" points="-4,4 -4,-1147 1602,-1147 1602,4 -4,4"/>
<text text-anchor="middle" x="799" y="-38.8" font-family="Times,serif" font-size="14.00">Release flow of CDO ontologies</text>
<text text-anchor="middle" x="799" y="-7.8" font-family="Times,serif" font-size="14.00">Nodes link to the respective Git repository.</text>
<g id="clust1" class="cluster">
<title>cluster_uco_0_9_1</title>
<polygon fill="none" stroke="black" points="189,-62 189,-226 357,-226 357,-62 189,-62"/>
<text text-anchor="middle" x="273" y="-210.8" font-family="Times,serif" font-size="14.00">Adoption of UCO 0.9.1</text>
</g>
<g id="clust2" class="cluster">
<title>cluster_case_0_7_1</title>
<polygon fill="none" stroke="black" points="197,-118 197,-195 349,-195 349,-118 197,-118"/>
<text text-anchor="middle" x="273" y="-179.8" font-family="Times,serif" font-size="14.00">Adoption of CASE 0.7.1</text>
</g>
<g id="clust3" class="cluster">
<title>cluster_uco_1_1_0</title>
<polygon fill="none" stroke="black" points="8,-234 8,-1135 1590,-1135 1590,-234 8,-234"/>
<text text-anchor="middle" x="799" y="-1119.8" font-family="Times,serif" font-size="14.00">Adoption of UCO 1.1.0</text>
</g>
<g id="clust4" class="cluster">
<title>cluster_case_1_1_0</title>
<polygon fill="none" stroke="black" points="212,-242 212,-1104 1582,-1104 1582,-242 212,-242"/>
<text text-anchor="middle" x="897" y="-1088.8" font-family="Times,serif" font-size="14.00">Adoption of CASE 1.1.0</text>
</g>
<g id="clust5" class="cluster">
<title>cluster_case_utils_0_9_0</title>
<polygon fill="none" stroke="black" points="456,-296 456,-1073 1574,-1073 1574,-296 456,-296"/>
<text text-anchor="middle" x="1015" y="-1057.8" font-family="Times,serif" font-size="14.00">Adoption of case&#45;utils 0.9.0</text>
</g>
<g id="clust6" class="cluster">
<title>cluster_case_prov_0_6_0</title>
<polygon fill="none" stroke="black" points="1284,-409 1284,-486 1566,-486 1566,-409 1284,-409"/>
<text text-anchor="middle" x="1425" y="-470.8" font-family="Times,serif" font-size="14.00">Adoption of case&#45;prov 0.6.0</text>
</g>
<g id="clust7" class="cluster">
<title>cluster_case_validation_action_2_3</title>
<polygon fill="none" stroke="black" points="962.5,-965 962.5,-1042 1196.5,-1042 1196.5,-965 962.5,-965"/>
<text text-anchor="middle" x="1079.5" y="-1026.8" font-family="Times,serif" font-size="14.00">Adoption of case&#45;validation&#45;action 2.3</text>
</g>
<g id="clust8" class="cluster">
<title>cluster_case_validation_action_2_5</title>
<polygon fill="none" stroke="black" points="631.5,-589 631.5,-957 1221,-957 1221,-589 631.5,-589"/>
<text text-anchor="middle" x="926.25" y="-941.8" font-family="Times,serif" font-size="14.00">Adoption of case&#45;validation&#45;action 2.5</text>
</g>
<g id="clust9" class="cluster">
<title>cluster_case_bindings_csharp_0_3_0</title>
<polygon fill="none" stroke="black" points="639.5,-849 639.5,-926 1213,-926 1213,-849 639.5,-849"/>
<text text-anchor="middle" x="926.25" y="-910.8" font-family="Times,serif" font-size="14.00">Adoption of CSharp bindings 0.3.0</text>
</g>
<!-- _GH__UCOPROJECT__ONTOLOGY_UNIFIEDCYBERONTOLOGY_ORG -->
<g id="node1" class="node">
<title>_GH__UCOPROJECT__ONTOLOGY_UNIFIEDCYBERONTOLOGY_ORG</title>
<g id="a_node1"><a xlink:href="https://github.com/ucoProject/ontology.unifiedcyberontology.org" xlink:title="UCO documentation\nregenerated">
<path fill="#8ec7d2" stroke="#0d6986" d="M326,-108C326,-108 220,-108 220,-108 214,-108 208,-102 208,-96 208,-96 208,-82 208,-82 208,-76 214,-70 220,-70 220,-70 326,-70 326,-70 332,-70 338,-76 338,-82 338,-82 338,-96 338,-96 338,-102 332,-108 326,-108"/>
<text text-anchor="middle" x="273" y="-92.8" font-family="Times,serif" font-size="14.00">UCO documentation</text>
<text text-anchor="middle" x="273" y="-77.8" font-family="Times,serif" font-size="14.00">regenerated</text>
</a>
</g>
</g>
<!-- _GH__CASEWORK__CASE_MAPPING_TEMPLATE_STUBS -->
<g id="node2" class="node">
<title>_GH__CASEWORK__CASE_MAPPING_TEMPLATE_STUBS</title>
<g id="a_node2"><a xlink:href="https://github.com/casework/CASE-Mapping-Template-Stubs" xlink:title="CASE Mapping\nTemplate Stubs">
<path fill="#8ec7d2" stroke="#0d6986" d="M313,-164C313,-164 233,-164 233,-164 227,-164 221,-158 221,-152 221,-152 221,-138 221,-138 221,-132 227,-126 233,-126 233,-126 313,-126 313,-126 319,-126 325,-132 325,-138 325,-138 325,-152 325,-152 325,-158 319,-164 313,-164"/>
<text text-anchor="middle" x="273" y="-148.8" font-family="Times,serif" font-size="14.00">CASE Mapping</text>
<text text-anchor="middle" x="273" y="-133.8" font-family="Times,serif" font-size="14.00">Template Stubs</text>
</a>
</g>
</g>
<!-- _GH__UCOPROJECT__UCO -->
<g id="node3" class="node">
<title>_GH__UCOPROJECT__UCO</title>
<g id="a_node3"><a xlink:href="https://github.com/ucoProject/UCO" xlink:title="UCO Ontology\nreleases">
<path fill="#8ec7d2" stroke="#0d6986" d="M104,-284C104,-284 28,-284 28,-284 22,-284 16,-278 16,-272 16,-272 16,-258 16,-258 16,-252 22,-246 28,-246 28,-246 104,-246 104,-246 110,-246 116,-252 116,-258 116,-258 116,-272 116,-272 116,-278 110,-284 104,-284"/>
<text text-anchor="middle" x="66" y="-268.8" font-family="Times,serif" font-size="14.00">UCO Ontology</text>
<text text-anchor="middle" x="66" y="-253.8" font-family="Times,serif" font-size="14.00">releases</text>
</a>
</g>
</g>
<!-- _GH__UCOPROJECT__UCO&#45;&gt;_GH__UCOPROJECT__ONTOLOGY_UNIFIEDCYBERONTOLOGY_ORG -->
<g id="edge24" class="edge">
<title>_GH__UCOPROJECT__UCO&#45;&gt;_GH__UCOPROJECT__ONTOLOGY_UNIFIEDCYBERONTOLOGY_ORG</title>
<path fill="none" stroke="black" d="M77.41,-245.67C95.71,-213.53 136.7,-149.16 189,-114 191.69,-112.19 194.52,-110.51 197.44,-108.94"/>
<polygon fill="black" stroke="black" points="198.78,-112.18 206.31,-104.72 195.77,-105.86 198.78,-112.18"/>
<text text-anchor="middle" x="156.5" y="-182.8" font-family="Times,serif" font-size="14.00">Git sub&#45;</text>
<text text-anchor="middle" x="156.5" y="-167.8" font-family="Times,serif" font-size="14.00">module</text>
</g>
<!-- _GH__CASEWORK__CASE -->
<g id="node4" class="node">
<title>_GH__CASEWORK__CASE</title>
<g id="a_node4"><a xlink:href="https://github.com/casework/CASE" xlink:title="CASE Ontology\nreleases">
<path fill="#8ec7d2" stroke="#0d6986" d="M314,-362C314,-362 232,-362 232,-362 226,-362 220,-356 220,-350 220,-350 220,-336 220,-336 220,-330 226,-324 232,-324 232,-324 314,-324 314,-324 320,-324 326,-330 326,-336 326,-336 326,-350 326,-350 326,-356 320,-362 314,-362"/>
<text text-anchor="middle" x="273" y="-346.8" font-family="Times,serif" font-size="14.00">CASE Ontology</text>
<text text-anchor="middle" x="273" y="-331.8" font-family="Times,serif" font-size="14.00">releases</text>
</a>
</g>
</g>
<!-- _GH__UCOPROJECT__UCO&#45;&gt;_GH__CASEWORK__CASE -->
<g id="edge23" class="edge">
<title>_GH__UCOPROJECT__UCO&#45;&gt;_GH__CASEWORK__CASE</title>
<path fill="none" stroke="black" d="M116.36,-283.78C144.66,-294.55 180.42,-308.16 210.53,-319.61"/>
<polygon fill="black" stroke="black" points="208.92,-322.74 219.51,-323.03 211.41,-316.2 208.92,-322.74"/>
<text text-anchor="middle" x="156.5" y="-324.8" font-family="Times,serif" font-size="14.00">Git sub&#45;</text>
<text text-anchor="middle" x="156.5" y="-309.8" font-family="Times,serif" font-size="14.00">module</text>
</g>
<!-- _GH__CASEWORK__ONTOLOGY_CASEONTOLOGY_ORG -->
<g id="node5" class="node">
<title>_GH__CASEWORK__ONTOLOGY_CASEONTOLOGY_ORG</title>
<g id="a_node5"><a xlink:href="https://github.com/casework/ontology.caseontology.org" xlink:title="CASE documentation\nregenerated">
<path fill="#8ec7d2" stroke="#0d6986" d="M554,-288C554,-288 442,-288 442,-288 436,-288 430,-282 430,-276 430,-276 430,-262 430,-262 430,-256 436,-250 442,-250 442,-250 554,-250 554,-250 560,-250 566,-256 566,-262 566,-262 566,-276 566,-276 566,-282 560,-288 554,-288"/>
<text text-anchor="middle" x="498" y="-272.8" font-family="Times,serif" font-size="14.00">CASE documentation</text>
<text text-anchor="middle" x="498" y="-257.8" font-family="Times,serif" font-size="14.00">regenerated</text>
</a>
</g>
</g>
<!-- _GH__CASEWORK__CASE&#45;&gt;_GH__CASEWORK__ONTOLOGY_CASEONTOLOGY_ORG -->
<g id="edge4" class="edge">
<title>_GH__CASEWORK__CASE&#45;&gt;_GH__CASEWORK__ONTOLOGY_CASEONTOLOGY_ORG</title>
<path fill="none" stroke="black" d="M326.28,-325.65C356.47,-315.63 394.82,-302.91 427.51,-292.06"/>
<polygon fill="black" stroke="black" points="428.54,-295.4 436.93,-288.93 426.34,-288.76 428.54,-295.4"/>
<text text-anchor="middle" x="389.5" y="-328.8" font-family="Times,serif" font-size="14.00">Git sub&#45;</text>
<text text-anchor="middle" x="389.5" y="-313.8" font-family="Times,serif" font-size="14.00">module</text>
</g>
<!-- _GH__CASEWORK__CASE_UTILITIES_PYTHON -->
<g id="node10" class="node">
<title>_GH__CASEWORK__CASE_UTILITIES_PYTHON</title>
<g id="a_node10"><a xlink:href="https://github.com/casework/CASE-Utilities-Python" xlink:title="case&#45;utils\nreleases">
<path fill="#8ec7d2" stroke="#0d6986" d="M520,-451C520,-451 476,-451 476,-451 470,-451 464,-445 464,-439 464,-439 464,-425 464,-425 464,-419 470,-413 476,-413 476,-413 520,-413 520,-413 526,-413 532,-419 532,-425 532,-425 532,-439 532,-439 532,-445 526,-451 520,-451"/>
<text text-anchor="middle" x="498" y="-435.8" font-family="Times,serif" font-size="14.00">case&#45;utils</text>
<text text-anchor="middle" x="498" y="-420.8" font-family="Times,serif" font-size="14.00">releases</text>
</a>
</g>
</g>
<!-- _GH__CASEWORK__CASE&#45;&gt;_GH__CASEWORK__CASE_UTILITIES_PYTHON -->
<g id="edge2" class="edge">
<title>_GH__CASEWORK__CASE&#45;&gt;_GH__CASEWORK__CASE_UTILITIES_PYTHON</title>
<path fill="none" stroke="black" d="M317.71,-362.46C348.81,-376.06 391.69,-394.34 430,-409 437.42,-411.84 445.35,-414.71 453.08,-417.41"/>
<polygon fill="black" stroke="black" points="451.75,-420.66 462.35,-420.61 454.04,-414.04 451.75,-420.66"/>
<text text-anchor="middle" x="389.5" y="-418.8" font-family="Times,serif" font-size="14.00">Git sub&#45;</text>
<text text-anchor="middle" x="389.5" y="-403.8" font-family="Times,serif" font-size="14.00">module</text>
</g>
<!-- _GH__CIPHERTECHSOLUTIONS__CASE_BINDINGS_CSHARP -->
<g id="node21" class="node">
<title>_GH__CIPHERTECHSOLUTIONS__CASE_BINDINGS_CSHARP</title>
<g id="a_node21"><a xlink:href="https://github.com/ciphertechsolutions/CASE-Bindings-CSharp" xlink:title="CASE&#45;Bindings&#45;CSharp\nadopts new ontology version">
<path fill="#8ec7d2" stroke="#0d6986" d="M808.5,-895C808.5,-895 659.5,-895 659.5,-895 653.5,-895 647.5,-889 647.5,-883 647.5,-883 647.5,-869 647.5,-869 647.5,-863 653.5,-857 659.5,-857 659.5,-857 808.5,-857 808.5,-857 814.5,-857 820.5,-863 820.5,-869 820.5,-869 820.5,-883 820.5,-883 820.5,-889 814.5,-895 808.5,-895"/>
<text text-anchor="middle" x="734" y="-879.8" font-family="Times,serif" font-size="14.00">CASE&#45;Bindings&#45;CSharp</text>
<text text-anchor="middle" x="734" y="-864.8" font-family="Times,serif" font-size="14.00">adopts new ontology version</text>
</a>
</g>
</g>
<!-- _GH__CASEWORK__CASE&#45;&gt;_GH__CIPHERTECHSOLUTIONS__CASE_BINDINGS_CSHARP -->
<g id="edge3" class="edge">
<title>_GH__CASEWORK__CASE&#45;&gt;_GH__CIPHERTECHSOLUTIONS__CASE_BINDINGS_CSHARP</title>
<path fill="none" stroke="black" d="M276.15,-362.08C284.27,-425.96 318.55,-635.14 430,-757 483.56,-815.56 569.54,-845.69 636.25,-860.95"/>
<polygon fill="black" stroke="black" points="635.21,-864.3 645.73,-863.03 636.71,-857.46 635.21,-864.3"/>
</g>
<!-- _GH__AJNELSON_NIST__CASE_EXAMPLES_QC -->
<g id="node6" class="node">
<title>_GH__AJNELSON_NIST__CASE_EXAMPLES_QC</title>
<g id="a_node6"><a xlink:href="https://github.com/ajnelson-nist/CASE-Examples-QC" xlink:title="CASE&#45;Examples&#45;QC\nadopts CASE&#45;Examples and\nCASE website updates">
<path fill="#8ec7d2" stroke="#0d6986" d="M1153.5,-494.5C1153.5,-494.5 1005.5,-494.5 1005.5,-494.5 999.5,-494.5 993.5,-488.5 993.5,-482.5 993.5,-482.5 993.5,-453.5 993.5,-453.5 993.5,-447.5 999.5,-441.5 1005.5,-441.5 1005.5,-441.5 1153.5,-441.5 1153.5,-441.5 1159.5,-441.5 1165.5,-447.5 1165.5,-453.5 1165.5,-453.5 1165.5,-482.5 1165.5,-482.5 1165.5,-488.5 1159.5,-494.5 1153.5,-494.5"/>
<text text-anchor="middle" x="1079.5" y="-479.3" font-family="Times,serif" font-size="14.00">CASE&#45;Examples&#45;QC</text>
<text text-anchor="middle" x="1079.5" y="-464.3" font-family="Times,serif" font-size="14.00">adopts CASE&#45;Examples and</text>
<text text-anchor="middle" x="1079.5" y="-449.3" font-family="Times,serif" font-size="14.00">CASE website updates</text>
</a>
</g>
</g>
<!-- _GH__CASEWORK__CASE_IMPLEMENTATON_PROV_O -->
<g id="node13" class="node">
<title>_GH__CASEWORK__CASE_IMPLEMENTATON_PROV_O</title>
<g id="a_node13"><a xlink:href="https://github.com/casework/CASE-Implementation-PROV-O" xlink:title="case&#45;prov\nreleases">
<path fill="#8ec7d2" stroke="#0d6986" d="M1349,-455C1349,-455 1304,-455 1304,-455 1298,-455 1292,-449 1292,-443 1292,-443 1292,-429 1292,-429 1292,-423 1298,-417 1304,-417 1304,-417 1349,-417 1349,-417 1355,-417 1361,-423 1361,-429 1361,-429 1361,-443 1361,-443 1361,-449 1355,-455 1349,-455"/>
<text text-anchor="middle" x="1326.5" y="-439.8" font-family="Times,serif" font-size="14.00">case&#45;prov</text>
<text text-anchor="middle" x="1326.5" y="-424.8" font-family="Times,serif" font-size="14.00">releases</text>
</a>
</g>
</g>
<!-- _GH__AJNELSON_NIST__CASE_EXAMPLES_QC&#45;&gt;_GH__CASEWORK__CASE_IMPLEMENTATON_PROV_O -->
<g id="edge1" class="edge">
<title>_GH__AJNELSON_NIST__CASE_EXAMPLES_QC&#45;&gt;_GH__CASEWORK__CASE_IMPLEMENTATON_PROV_O</title>
<path fill="none" stroke="black" d="M1165.85,-456.85C1204.47,-451.81 1248.53,-446.05 1280.57,-441.87"/>
<polygon fill="black" stroke="black" points="1280.83,-445.36 1290.29,-440.6 1279.92,-438.42 1280.83,-445.36"/>
<text text-anchor="middle" x="1251.5" y="-466.8" font-family="Times,serif" font-size="14.00">Git sub&#45;</text>
<text text-anchor="middle" x="1251.5" y="-451.8" font-family="Times,serif" font-size="14.00">module</text>
</g>
<!-- _GH__CASEWORK__CASE_EXAMPLES -->
<g id="node7" class="node">
<title>_GH__CASEWORK__CASE_EXAMPLES</title>
<g id="a_node7"><a xlink:href="https://github.com/casework/CASE-Examples" xlink:title="CASE&#45;Examples\nadopts new case&#45;utils">
<path fill="#8ec7d2" stroke="#0d6986" d="M788.5,-581C788.5,-581 679.5,-581 679.5,-581 673.5,-581 667.5,-575 667.5,-569 667.5,-569 667.5,-555 667.5,-555 667.5,-549 673.5,-543 679.5,-543 679.5,-543 788.5,-543 788.5,-543 794.5,-543 800.5,-549 800.5,-555 800.5,-555 800.5,-569 800.5,-569 800.5,-575 794.5,-581 788.5,-581"/>
<text text-anchor="middle" x="734" y="-565.8" font-family="Times,serif" font-size="14.00">CASE&#45;Examples</text>
<text text-anchor="middle" x="734" y="-550.8" font-family="Times,serif" font-size="14.00">adopts new case&#45;utils</text>
</a>
</g>
</g>
<!-- _GH__CASEWORK__CASE_EXAMPLES&#45;&gt;_GH__AJNELSON_NIST__CASE_EXAMPLES_QC -->
<g id="edge5" class="edge">
<title>_GH__CASEWORK__CASE_EXAMPLES&#45;&gt;_GH__AJNELSON_NIST__CASE_EXAMPLES_QC</title>
<path fill="none" stroke="black" d="M800.55,-548.22C840.02,-539.54 891.15,-527.61 936,-515 953.55,-510.06 972.15,-504.32 989.92,-498.57"/>
<polygon fill="black" stroke="black" points="991,-501.9 999.42,-495.46 988.83,-495.24 991,-501.9"/>
<text text-anchor="middle" x="896.5" y="-552.8" font-family="Times,serif" font-size="14.00">Git sub&#45;</text>
<text text-anchor="middle" x="896.5" y="-537.8" font-family="Times,serif" font-size="14.00">module</text>
</g>
<!-- _GH__CASEWORK__CASE_IMPLEMENTATON_EXIFTOOL -->
<g id="node8" class="node">
<title>_GH__CASEWORK__CASE_IMPLEMENTATON_EXIFTOOL</title>
<g id="a_node8"><a xlink:href="https://github.com/casework/CASE-Implementation-ExifTool" xlink:title="CASE&#45;Implementation&#45;ExifTool\nadopts new case&#45;utils">
<path fill="#8ec7d2" stroke="#0d6986" d="M820,-342C820,-342 648,-342 648,-342 642,-342 636,-336 636,-330 636,-330 636,-316 636,-316 636,-310 642,-304 648,-304 648,-304 820,-304 820,-304 826,-304 832,-310 832,-316 832,-316 832,-330 832,-330 832,-336 826,-342 820,-342"/>
<text text-anchor="middle" x="734" y="-326.8" font-family="Times,serif" font-size="14.00">CASE&#45;Implementation&#45;ExifTool</text>
<text text-anchor="middle" x="734" y="-311.8" font-family="Times,serif" font-size="14.00">adopts new case&#45;utils</text>
</a>
</g>
</g>
<!-- _GH__CASEWORK__CASE_IMPLEMENTATON_GNU_TIME -->
<g id="node9" class="node">
<title>_GH__CASEWORK__CASE_IMPLEMENTATON_GNU_TIME</title>
<g id="a_node9"><a xlink:href="https://github.com/casework/CASE-Implementation-GNU-Time" xlink:title="CASE&#45;Implementation&#45;GNU&#45;Time\nadopts new case&#45;utils">
<path fill="#8ec7d2" stroke="#0d6986" d="M827,-398C827,-398 641,-398 641,-398 635,-398 629,-392 629,-386 629,-386 629,-372 629,-372 629,-366 635,-360 641,-360 641,-360 827,-360 827,-360 833,-360 839,-366 839,-372 839,-372 839,-386 839,-386 839,-392 833,-398 827,-398"/>
<text text-anchor="middle" x="734" y="-382.8" font-family="Times,serif" font-size="14.00">CASE&#45;Implementation&#45;GNU&#45;Time</text>
<text text-anchor="middle" x="734" y="-367.8" font-family="Times,serif" font-size="14.00">adopts new case&#45;utils</text>
</a>
</g>
</g>
<!-- _GH__CASEWORK__CASE_UTILITIES_PYTHON&#45;&gt;_GH__AJNELSON_NIST__CASE_EXAMPLES_QC -->
<g id="edge7" class="edge">
<title>_GH__CASEWORK__CASE_UTILITIES_PYTHON&#45;&gt;_GH__AJNELSON_NIST__CASE_EXAMPLES_QC</title>
<path fill="none" stroke="black" d="M532.27,-442.78C543.1,-446.46 555.13,-450.73 566,-455 594.52,-466.21 599.22,-475.79 629,-483 761.73,-515.14 800.08,-509.23 936,-496 951.04,-494.54 966.86,-492.22 982.25,-489.54"/>
<polygon fill="black" stroke="black" points="982.67,-493.02 991.88,-487.79 981.42,-486.13 982.67,-493.02"/>
<text text-anchor="middle" x="734" y="-509.8" font-family="Times,serif" font-size="14.00">PyPI</text>
</g>
<!-- _GH__CASEWORK__CASE_UTILITIES_PYTHON&#45;&gt;_GH__CASEWORK__CASE_EXAMPLES -->
<g id="edge8" class="edge">
<title>_GH__CASEWORK__CASE_UTILITIES_PYTHON&#45;&gt;_GH__CASEWORK__CASE_EXAMPLES</title>
<path fill="none" stroke="black" d="M532.44,-436.95C544.42,-440.26 557.14,-445.78 566,-455 585.3,-475.07 564.45,-495.18 584,-515 603.16,-534.44 630.28,-545.85 656.14,-552.55"/>
<polygon fill="black" stroke="black" points="655.11,-555.91 665.65,-554.8 656.72,-549.09 655.11,-555.91"/>
<text text-anchor="middle" x="597.5" y="-537.8" font-family="Times,serif" font-size="14.00">PyPI</text>
</g>
<!-- _GH__CASEWORK__CASE_UTILITIES_PYTHON&#45;&gt;_GH__CASEWORK__CASE_IMPLEMENTATON_EXIFTOOL -->
<g id="edge9" class="edge">
<title>_GH__CASEWORK__CASE_UTILITIES_PYTHON&#45;&gt;_GH__CASEWORK__CASE_IMPLEMENTATON_EXIFTOOL</title>
<path fill="none" stroke="black" d="M532.46,-426.17C544.16,-422.77 556.69,-417.41 566,-409 580.17,-396.2 570.28,-383.28 584,-370 595.64,-358.74 609.96,-350.17 625.07,-343.66"/>
<polygon fill="black" stroke="black" points="626.23,-346.96 634.23,-340.02 623.65,-340.46 626.23,-346.96"/>
<text text-anchor="middle" x="597.5" y="-373.8" font-family="Times,serif" font-size="14.00">PyPI</text>
</g>
<!-- _GH__CASEWORK__CASE_UTILITIES_PYTHON&#45;&gt;_GH__CASEWORK__CASE_IMPLEMENTATON_GNU_TIME -->
<g id="edge10" class="edge">
<title>_GH__CASEWORK__CASE_UTILITIES_PYTHON&#45;&gt;_GH__CASEWORK__CASE_IMPLEMENTATON_GNU_TIME</title>
<path fill="none" stroke="black" d="M532.4,-422.41C543.35,-418.78 555.42,-414.23 566,-409 574.62,-404.74 574.98,-400.33 584,-397 594.65,-393.06 605.99,-389.94 617.48,-387.48"/>
<polygon fill="black" stroke="black" points="617.9,-390.97 627.04,-385.6 616.55,-384.1 617.9,-390.97"/>
<text text-anchor="middle" x="597.5" y="-400.8" font-family="Times,serif" font-size="14.00">PyPI</text>
</g>
<!-- _GH__CASEWORK__CASEWORK_GITHUB_IO -->
<g id="node11" class="node">
<title>_GH__CASEWORK__CASEWORK_GITHUB_IO</title>
<g id="a_node11"><a xlink:href="https://github.com/casework/casework.github.io" xlink:title="CASE website\nadopts new case&#45;utils">
<path fill="#8ec7d2" stroke="#0d6986" d="M788.5,-474C788.5,-474 679.5,-474 679.5,-474 673.5,-474 667.5,-468 667.5,-462 667.5,-462 667.5,-448 667.5,-448 667.5,-442 673.5,-436 679.5,-436 679.5,-436 788.5,-436 788.5,-436 794.5,-436 800.5,-442 800.5,-448 800.5,-448 800.5,-462 800.5,-462 800.5,-468 794.5,-474 788.5,-474"/>
<text text-anchor="middle" x="734" y="-458.8" font-family="Times,serif" font-size="14.00">CASE website</text>
<text text-anchor="middle" x="734" y="-443.8" font-family="Times,serif" font-size="14.00">adopts new case&#45;utils</text>
</a>
</g>
</g>
<!-- _GH__CASEWORK__CASE_UTILITIES_PYTHON&#45;&gt;_GH__CASEWORK__CASEWORK_GITHUB_IO -->
<g id="edge13" class="edge">
<title>_GH__CASEWORK__CASE_UTILITIES_PYTHON&#45;&gt;_GH__CASEWORK__CASEWORK_GITHUB_IO</title>
<path fill="none" stroke="black" d="M532.03,-435.25C564.11,-438.4 614,-443.3 656.04,-447.44"/>
<polygon fill="black" stroke="black" points="655.58,-450.91 665.88,-448.4 656.27,-443.94 655.58,-450.91"/>
<text text-anchor="middle" x="597.5" y="-445.8" font-family="Times,serif" font-size="14.00">PyPI</text>
</g>
<!-- _GH__CASEWORK__CASE_UTILITIES_PYTHON&#45;&gt;_GH__CASEWORK__CASE_IMPLEMENTATON_PROV_O -->
<g id="edge11" class="edge">
<title>_GH__CASEWORK__CASE_UTILITIES_PYTHON&#45;&gt;_GH__CASEWORK__CASE_IMPLEMENTATON_PROV_O</title>
<path fill="none" stroke="black" d="M532.39,-430.36C558.64,-429.16 596.14,-427.63 629,-427 874.86,-422.27 1169.58,-430.73 1280.42,-434.41"/>
<polygon fill="black" stroke="black" points="1280.17,-437.91 1290.28,-434.75 1280.4,-430.91 1280.17,-437.91"/>
<text text-anchor="middle" x="896.5" y="-429.8" font-family="Times,serif" font-size="14.00">PyPI</text>
</g>
<!-- _GH__KCHASON__CASE_VALIDATION_ACTION -->
<g id="node19" class="node">
<title>_GH__KCHASON__CASE_VALIDATION_ACTION</title>
<g id="a_node19"><a xlink:href="https://github.com/kchason/case-validation-action" xlink:title="case&#45;validation&#45;action\nreleases">
<path fill="#8ec7d2" stroke="#0d6986" d="M790,-713C790,-713 678,-713 678,-713 672,-713 666,-707 666,-701 666,-701 666,-687 666,-687 666,-681 672,-675 678,-675 678,-675 790,-675 790,-675 796,-675 802,-681 802,-687 802,-687 802,-701 802,-701 802,-707 796,-713 790,-713"/>
<text text-anchor="middle" x="734" y="-697.8" font-family="Times,serif" font-size="14.00">case&#45;validation&#45;action</text>
<text text-anchor="middle" x="734" y="-682.8" font-family="Times,serif" font-size="14.00">releases</text>
</a>
</g>
</g>
<!-- _GH__CASEWORK__CASE_UTILITIES_PYTHON&#45;&gt;_GH__KCHASON__CASE_VALIDATION_ACTION -->
<g id="edge12" class="edge">
<title>_GH__CASEWORK__CASE_UTILITIES_PYTHON&#45;&gt;_GH__KCHASON__CASE_VALIDATION_ACTION</title>
<path fill="none" stroke="black" d="M532.29,-436.26C544.54,-439.48 557.49,-445.12 566,-455 594.9,-488.56 571.88,-510.41 584,-553 593.02,-584.67 599.32,-591.21 611,-622 619.23,-643.69 611.53,-655.73 629,-671 636.49,-677.54 645.42,-682.35 654.85,-685.87"/>
<polygon fill="black" stroke="black" points="653.64,-689.15 664.23,-688.85 655.76,-682.48 653.64,-689.15"/>
<text text-anchor="middle" x="597.5" y="-625.8" font-family="Times,serif" font-size="14.00">PyPI</text>
</g>
<!-- _GH__CASEWORK__CASEWORK_GITHUB_IO&#45;&gt;_GH__AJNELSON_NIST__CASE_EXAMPLES_QC -->
<g id="edge14" class="edge">
<title>_GH__CASEWORK__CASEWORK_GITHUB_IO&#45;&gt;_GH__AJNELSON_NIST__CASE_EXAMPLES_QC</title>
<path fill="none" stroke="black" d="M800.82,-457.49C852.05,-459.43 923.91,-462.15 981.69,-464.34"/>
<polygon fill="black" stroke="black" points="981.41,-467.83 991.53,-464.71 981.67,-460.83 981.41,-467.83"/>
<text text-anchor="middle" x="896.5" y="-480.8" font-family="Times,serif" font-size="14.00">Git sub&#45;</text>
<text text-anchor="middle" x="896.5" y="-465.8" font-family="Times,serif" font-size="14.00">module</text>
</g>
<!-- _GH__CASEWORK__CASE_CORPORA -->
<g id="node12" class="node">
<title>_GH__CASEWORK__CASE_CORPORA</title>
<g id="a_node12"><a xlink:href="https://github.com/casework/CASE-Corpora" xlink:title="CASE&#45;Corpora\nadopts new case&#45;prov">
<path fill="#8ec7d2" stroke="#0d6986" d="M1546,-455C1546,-455 1436,-455 1436,-455 1430,-455 1424,-449 1424,-443 1424,-443 1424,-429 1424,-429 1424,-423 1430,-417 1436,-417 1436,-417 1546,-417 1546,-417 1552,-417 1558,-423 1558,-429 1558,-429 1558,-443 1558,-443 1558,-449 1552,-455 1546,-455"/>
<text text-anchor="middle" x="1491" y="-439.8" font-family="Times,serif" font-size="14.00">CASE&#45;Corpora</text>
<text text-anchor="middle" x="1491" y="-424.8" font-family="Times,serif" font-size="14.00">adopts new case&#45;prov</text>
</a>
</g>
</g>
<!-- _GH__CASEWORK__CASE_IMPLEMENTATON_PROV_O&#45;&gt;_GH__CASEWORK__CASE_CORPORA -->
<g id="edge6" class="edge">
<title>_GH__CASEWORK__CASE_IMPLEMENTATON_PROV_O&#45;&gt;_GH__CASEWORK__CASE_CORPORA</title>
<path fill="none" stroke="black" d="M1361.17,-436C1376.03,-436 1394.18,-436 1412.11,-436"/>
<polygon fill="black" stroke="black" points="1412,-439.5 1422,-436 1412,-432.5 1412,-439.5"/>
<text text-anchor="middle" x="1392.5" y="-439.8" font-family="Times,serif" font-size="14.00">PyPI</text>
</g>
<!-- _GH__CASEWORK__CASE_IMPLEMENTATON_UFED_XML -->
<g id="node14" class="node">
<title>_GH__CASEWORK__CASE_IMPLEMENTATON_UFED_XML</title>
<g id="a_node14"><a xlink:href="https://github.com/casework/CASE-Implementation-UFED-XML" xlink:title="CASE&#45;Implementation&#45;UFED&#45;XML\nadopts new case&#45;validation&#45;action">
<path fill="#8ec7d2" stroke="#0d6986" d="M1176.5,-1011C1176.5,-1011 982.5,-1011 982.5,-1011 976.5,-1011 970.5,-1005 970.5,-999 970.5,-999 970.5,-985 970.5,-985 970.5,-979 976.5,-973 982.5,-973 982.5,-973 1176.5,-973 1176.5,-973 1182.5,-973 1188.5,-979 1188.5,-985 1188.5,-985 1188.5,-999 1188.5,-999 1188.5,-1005 1182.5,-1011 1176.5,-1011"/>
<text text-anchor="middle" x="1079.5" y="-995.8" font-family="Times,serif" font-size="14.00">CASE&#45;Implementation&#45;UFED&#45;XML</text>
<text text-anchor="middle" x="1079.5" y="-980.8" font-family="Times,serif" font-size="14.00">adopts new case&#45;validation&#45;action</text>
</a>
</g>
</g>
<!-- _GH__CASEWORK__CASE_IMPLEMENTATON_PYPI_EXIFREAD -->
<g id="node15" class="node">
<title>_GH__CASEWORK__CASE_IMPLEMENTATON_PYPI_EXIFREAD</title>
<g id="a_node15"><a xlink:href="https://github.com/casework/CASE-Implementation-PyPI-Exifread" xlink:title="CASE&#45;Implementation&#45;PyPI&#45;Exifread\nadopts new case&#45;validation&#45;action">
<path fill="#8ec7d2" stroke="#0d6986" d="M1179.5,-747C1179.5,-747 979.5,-747 979.5,-747 973.5,-747 967.5,-741 967.5,-735 967.5,-735 967.5,-721 967.5,-721 967.5,-715 973.5,-709 979.5,-709 979.5,-709 1179.5,-709 1179.5,-709 1185.5,-709 1191.5,-715 1191.5,-721 1191.5,-721 1191.5,-735 1191.5,-735 1191.5,-741 1185.5,-747 1179.5,-747"/>
<text text-anchor="middle" x="1079.5" y="-731.8" font-family="Times,serif" font-size="14.00">CASE&#45;Implementation&#45;PyPI&#45;Exifread</text>
<text text-anchor="middle" x="1079.5" y="-716.8" font-family="Times,serif" font-size="14.00">adopts new case&#45;validation&#45;action</text>
</a>
</g>
</g>
<!-- _GH__CASEWORK__CASE_IMPLEMENTATON_PYPI_PILLOW -->
<g id="node16" class="node">
<title>_GH__CASEWORK__CASE_IMPLEMENTATON_PYPI_PILLOW</title>
<g id="a_node16"><a xlink:href="https://github.com/casework/CASE-Implementation-PyPI-Pillow" xlink:title="CASE&#45;Implementation&#45;PyPI&#45;Pillow\nadopts new case&#45;validation&#45;action">
<path fill="#8ec7d2" stroke="#0d6986" d="M1174,-803C1174,-803 985,-803 985,-803 979,-803 973,-797 973,-791 973,-791 973,-777 973,-777 973,-771 979,-765 985,-765 985,-765 1174,-765 1174,-765 1180,-765 1186,-771 1186,-777 1186,-777 1186,-791 1186,-791 1186,-797 1180,-803 1174,-803"/>
<text text-anchor="middle" x="1079.5" y="-787.8" font-family="Times,serif" font-size="14.00">CASE&#45;Implementation&#45;PyPI&#45;Pillow</text>
<text text-anchor="middle" x="1079.5" y="-772.8" font-family="Times,serif" font-size="14.00">adopts new case&#45;validation&#45;action</text>
</a>
</g>
</g>
<!-- _GH__CASEWORK__CASE_IMPLEMENTATON_XRY -->
<g id="node17" class="node">
<title>_GH__CASEWORK__CASE_IMPLEMENTATON_XRY</title>
<g id="a_node17"><a xlink:href="https://github.com/casework/CASE-Implementation-XRY" xlink:title="CASE&#45;Implementation&#45;XRY adopts\nnew case&#45;validation&#45;action">
<path fill="#8ec7d2" stroke="#0d6986" d="M1174.5,-635C1174.5,-635 984.5,-635 984.5,-635 978.5,-635 972.5,-629 972.5,-623 972.5,-623 972.5,-609 972.5,-609 972.5,-603 978.5,-597 984.5,-597 984.5,-597 1174.5,-597 1174.5,-597 1180.5,-597 1186.5,-603 1186.5,-609 1186.5,-609 1186.5,-623 1186.5,-623 1186.5,-629 1180.5,-635 1174.5,-635"/>
<text text-anchor="middle" x="1079.5" y="-619.8" font-family="Times,serif" font-size="14.00">CASE&#45;Implementation&#45;XRY adopts</text>
<text text-anchor="middle" x="1079.5" y="-604.8" font-family="Times,serif" font-size="14.00">new case&#45;validation&#45;action</text>
</a>
</g>
</g>
<!-- _GH__CASEWORK__CASE_MAPPING_TEMPLATE_PYTHON -->
<g id="node18" class="node">
<title>_GH__CASEWORK__CASE_MAPPING_TEMPLATE_PYTHON</title>
<g id="a_node18"><a xlink:href="https://github.com/casework/CASE-Mapping-Template-Python" xlink:title="CASE&#45;Mapping&#45;Template&#45;Python\nadopts new case&#45;validation&#45;action">
<path fill="#8ec7d2" stroke="#0d6986" d="M1169.5,-691C1169.5,-691 989.5,-691 989.5,-691 983.5,-691 977.5,-685 977.5,-679 977.5,-679 977.5,-665 977.5,-665 977.5,-659 983.5,-653 989.5,-653 989.5,-653 1169.5,-653 1169.5,-653 1175.5,-653 1181.5,-659 1181.5,-665 1181.5,-665 1181.5,-679 1181.5,-679 1181.5,-685 1175.5,-691 1169.5,-691"/>
<text text-anchor="middle" x="1079.5" y="-675.8" font-family="Times,serif" font-size="14.00">CASE&#45;Mapping&#45;Template&#45;Python</text>
<text text-anchor="middle" x="1079.5" y="-660.8" font-family="Times,serif" font-size="14.00">adopts new case&#45;validation&#45;action</text>
</a>
</g>
</g>
<!-- _GH__KCHASON__CASE_VALIDATION_ACTION&#45;&gt;_GH__CASEWORK__CASE_IMPLEMENTATON_UFED_XML -->
<g id="edge19" class="edge">
<title>_GH__KCHASON__CASE_VALIDATION_ACTION&#45;&gt;_GH__CASEWORK__CASE_IMPLEMENTATON_UFED_XML</title>
<path fill="none" stroke="black" d="M752.24,-713.48C775.55,-740.87 816.75,-793.24 839,-845 854.25,-880.48 830.59,-901.83 857,-930 883.54,-958.3 921.84,-974.05 959.15,-982.7"/>
<polygon fill="black" stroke="black" points="958.17,-986.07 968.68,-984.74 959.63,-979.22 958.17,-986.07"/>
<text text-anchor="middle" x="896.5" y="-994.8" font-family="Times,serif" font-size="14.00">GitHub</text>
<text text-anchor="middle" x="896.5" y="-979.8" font-family="Times,serif" font-size="14.00">Action</text>
</g>
<!-- _GH__KCHASON__CASE_VALIDATION_ACTION&#45;&gt;_GH__CASEWORK__CASE_IMPLEMENTATON_PYPI_EXIFREAD -->
<g id="edge17" class="edge">
<title>_GH__KCHASON__CASE_VALIDATION_ACTION&#45;&gt;_GH__CASEWORK__CASE_IMPLEMENTATON_PYPI_EXIFREAD</title>
<path fill="none" stroke="black" d="M802.45,-700.68C846.14,-705 904.32,-710.76 955.99,-715.87"/>
<polygon fill="black" stroke="black" points="955.45,-719.34 965.75,-716.84 956.14,-712.37 955.45,-719.34"/>
<text text-anchor="middle" x="896.5" y="-731.8" font-family="Times,serif" font-size="14.00">GitHub</text>
<text text-anchor="middle" x="896.5" y="-716.8" font-family="Times,serif" font-size="14.00">Action</text>
</g>
<!-- _GH__KCHASON__CASE_VALIDATION_ACTION&#45;&gt;_GH__CASEWORK__CASE_IMPLEMENTATON_PYPI_PILLOW -->
<g id="edge18" class="edge">
<title>_GH__KCHASON__CASE_VALIDATION_ACTION&#45;&gt;_GH__CASEWORK__CASE_IMPLEMENTATON_PYPI_PILLOW</title>
<path fill="none" stroke="black" d="M773.11,-713.43C796.72,-724.74 827.99,-738.42 857,-747 890.4,-756.88 927.46,-764.37 961.56,-769.94"/>
<polygon fill="black" stroke="black" points="960.6,-773.33 971.02,-771.44 961.7,-766.41 960.6,-773.33"/>
<text text-anchor="middle" x="896.5" y="-783.8" font-family="Times,serif" font-size="14.00">GitHub</text>
<text text-anchor="middle" x="896.5" y="-768.8" font-family="Times,serif" font-size="14.00">Action</text>
</g>
<!-- _GH__KCHASON__CASE_VALIDATION_ACTION&#45;&gt;_GH__CASEWORK__CASE_IMPLEMENTATON_XRY -->
<g id="edge20" class="edge">
<title>_GH__KCHASON__CASE_VALIDATION_ACTION&#45;&gt;_GH__CASEWORK__CASE_IMPLEMENTATON_XRY</title>
<path fill="none" stroke="black" d="M802.4,-688.6C815.57,-685.05 828.53,-679.52 839,-671 854.12,-658.7 841,-642.13 857,-631 886.89,-610.21 924.89,-602.72 960.94,-601.54"/>
<polygon fill="black" stroke="black" points="960.59,-605.05 970.54,-601.4 960.49,-598.05 960.59,-605.05"/>
<text text-anchor="middle" x="896.5" y="-649.8" font-family="Times,serif" font-size="14.00">GitHub</text>
<text text-anchor="middle" x="896.5" y="-634.8" font-family="Times,serif" font-size="14.00">Action</text>
</g>
<!-- _GH__KCHASON__CASE_VALIDATION_ACTION&#45;&gt;_GH__CASEWORK__CASE_MAPPING_TEMPLATE_PYTHON -->
<g id="edge21" class="edge">
<title>_GH__KCHASON__CASE_VALIDATION_ACTION&#45;&gt;_GH__CASEWORK__CASE_MAPPING_TEMPLATE_PYTHON</title>
<path fill="none" stroke="black" d="M802.38,-677.66C820.05,-674.07 839.15,-670.81 857,-669 892.3,-665.42 930.93,-664.81 965.9,-665.49"/>
<polygon fill="black" stroke="black" points="965.52,-668.99 975.6,-665.72 965.69,-661.99 965.52,-668.99"/>
<text text-anchor="middle" x="896.5" y="-687.8" font-family="Times,serif" font-size="14.00">GitHub</text>
<text text-anchor="middle" x="896.5" y="-672.8" font-family="Times,serif" font-size="14.00">Action</text>
</g>
<!-- _GH__CASEWORK__CASE_BINDINGS_CSHARP_MONITOR -->
<g id="node20" class="node">
<title>_GH__CASEWORK__CASE_BINDINGS_CSHARP_MONITOR</title>
<g id="a_node20"><a xlink:href="https://github.com/casework/CASE-Bindings-CSharp-Monitor" xlink:title="CASE Bindings CSharp Monitor\ntests NuGet package with validation action">
<path fill="#8ec7d2" stroke="#0d6986" d="M1193,-895C1193,-895 966,-895 966,-895 960,-895 954,-889 954,-883 954,-883 954,-869 954,-869 954,-863 960,-857 966,-857 966,-857 1193,-857 1193,-857 1199,-857 1205,-863 1205,-869 1205,-869 1205,-883 1205,-883 1205,-889 1199,-895 1193,-895"/>
<text text-anchor="middle" x="1079.5" y="-879.8" font-family="Times,serif" font-size="14.00">CASE Bindings CSharp Monitor</text>
<text text-anchor="middle" x="1079.5" y="-864.8" font-family="Times,serif" font-size="14.00">tests NuGet package with validation action</text>
</a>
</g>
</g>
<!-- _GH__KCHASON__CASE_VALIDATION_ACTION&#45;&gt;_GH__CASEWORK__CASE_BINDINGS_CSHARP_MONITOR -->
<g id="edge16" class="edge">
<title>_GH__KCHASON__CASE_VALIDATION_ACTION&#45;&gt;_GH__CASEWORK__CASE_BINDINGS_CSHARP_MONITOR</title>
<path fill="none" stroke="black" d="M754.64,-713.23C777.9,-735.43 818.37,-772.32 857,-799 889.89,-821.72 901.38,-822.02 936,-842 942.22,-845.59 944.33,-848.17 953.43,-852.28"/>
<polygon fill="black" stroke="black" points="952.07,-855.51 962.65,-856.01 954.69,-849.02 952.07,-855.51"/>
<text text-anchor="middle" x="896.5" y="-860.8" font-family="Times,serif" font-size="14.00">GitHub</text>
<text text-anchor="middle" x="896.5" y="-845.8" font-family="Times,serif" font-size="14.00">Action</text>
</g>
<!-- _GH__DOD_CYBER_CRIME_CENTER__SQLITE_DISSECT -->
<g id="node22" class="node">
<title>_GH__DOD_CYBER_CRIME_CENTER__SQLITE_DISSECT</title>
<g id="a_node22"><a xlink:href="https://github.com/dod-cyber-crime-center/sqlite-dissect" xlink:title="sqlite&#45;dissect\nadopts new case&#45;validation&#45;action">
<path fill="#8ec7d2" stroke="#0d6986" d="M1168,-226C1168,-226 991,-226 991,-226 985,-226 979,-220 979,-214 979,-214 979,-200 979,-200 979,-194 985,-188 991,-188 991,-188 1168,-188 1168,-188 1174,-188 1180,-194 1180,-200 1180,-200 1180,-214 1180,-214 1180,-220 1174,-226 1168,-226"/>
<text text-anchor="middle" x="1079.5" y="-210.8" font-family="Times,serif" font-size="14.00">sqlite&#45;dissect</text>
<text text-anchor="middle" x="1079.5" y="-195.8" font-family="Times,serif" font-size="14.00">adopts new case&#45;validation&#45;action</text>
</a>
</g>
</g>
<!-- _GH__KCHASON__CASE_VALIDATION_ACTION&#45;&gt;_GH__DOD_CYBER_CRIME_CENTER__SQLITE_DISSECT -->
<g id="edge22" class="edge">
<title>_GH__KCHASON__CASE_VALIDATION_ACTION&#45;&gt;_GH__DOD_CYBER_CRIME_CENTER__SQLITE_DISSECT</title>
<g id="a_edge22"><a xlink:href="https://github.com/dod-cyber-crime-center/sqlite-dissect/pull/31" xlink:title="TODO: PR 31">
<path fill="none" stroke="black" d="M802.45,-692.11C816.43,-688.48 829.71,-682.04 839,-671 867.21,-637.47 830.3,-311.75 857,-277 883.28,-242.8 926.26,-224.96 967.4,-215.78"/>
<polygon fill="black" stroke="black" points="968.08,-219.21 977.17,-213.77 966.67,-212.35 968.08,-219.21"/>
</a>
</g>
<g id="a_edge22&#45;label"><a xlink:href="https://github.com/dod-cyber-crime-center/sqlite-dissect/pull/31" xlink:title="TODO: PR 31">
<text text-anchor="middle" x="896.5" y="-280.8" font-family="Times,serif" font-size="14.00">TODO: PR 31</text>
</a>
</g>
</g>
<!-- _GH__CIPHERTECHSOLUTIONS__CASE_BINDINGS_CSHARP&#45;&gt;_GH__CASEWORK__CASE_BINDINGS_CSHARP_MONITOR -->
<g id="edge15" class="edge">
<title>_GH__CIPHERTECHSOLUTIONS__CASE_BINDINGS_CSHARP&#45;&gt;_GH__CASEWORK__CASE_BINDINGS_CSHARP_MONITOR</title>
<path fill="none" stroke="black" d="M820.79,-876C857.48,-876 901.23,-876 942.16,-876"/>
<polygon fill="black" stroke="black" points="942.11,-879.5 952.11,-876 942.11,-872.5 942.11,-879.5"/>
<text text-anchor="middle" x="896.5" y="-879.8" font-family="Times,serif" font-size="14.00">NuGet</text>
</g>
</g>
</svg>
