<?xml version="1.0" encoding="UTF-8" standalone="no"?>
<!DOCTYPE svg PUBLIC "-//W3C//DTD SVG 1.1//EN"
 "http://www.w3.org/Graphics/SVG/1.1/DTD/svg11.dtd">
<!-- Generated by graphviz version 8.0.3 (20230416.2022)
 -->
<!-- Title: cdo_release_flow Pages: 1 -->
<svg width="1859pt" height="1328pt"
 viewBox="0.00 0.00 1859.00 1328.00" xmlns="http://www.w3.org/2000/svg" xmlns:xlink="http://www.w3.org/1999/xlink">
<g id="graph0" class="graph" transform="scale(1 1) rotate(0) translate(4 1324)">
<title>cdo_release_flow</title>
<polygon fill="white" stroke="none" points="-4,4 -4,-1324 1855,-1324 1855,4 -4,4"/>
<text text-anchor="middle" x="925.5" y="-38.8" font-family="Times,serif" font-size="14.00">Release flow of CDO ontologies</text>
<text text-anchor="middle" x="925.5" y="-7.8" font-family="Times,serif" font-size="14.00">Nodes link to the respective Git repository.</text>
<g id="clust1" class="cluster">
<title>cluster_uco_0_9_1</title>
<polygon fill="none" stroke="black" points="0,-62 0,-178 168,-178 168,-62 0,-62"/>
<text text-anchor="middle" x="84" y="-162.8" font-family="Times,serif" font-size="14.00">Adoption of UCO 0.9.1</text>
</g>
<g id="clust2" class="cluster">
<title>cluster_case_0_7_1</title>
<polygon fill="none" stroke="black" points="8,-70 8,-147 160,-147 160,-70 8,-70"/>
<text text-anchor="middle" x="84" y="-131.8" font-family="Times,serif" font-size="14.00">Adoption of CASE 0.7.1</text>
</g>
<g id="clust3" class="cluster">
<title>cluster_uco_1_2_0</title>
<polygon fill="none" stroke="black" points="26,-186 26,-1312 1843,-1312 1843,-186 26,-186"/>
<text text-anchor="middle" x="934.5" y="-1296.8" font-family="Times,serif" font-size="14.00">Adoption of UCO 1.2.0</text>
</g>
<g id="clust4" class="cluster">
<title>cluster_case_1_2_0</title>
<polygon fill="none" stroke="black" points="260,-240 260,-1113 1835,-1113 1835,-240 260,-240"/>
<text text-anchor="middle" x="1047.5" y="-1097.8" font-family="Times,serif" font-size="14.00">Adoption of CASE 1.2.0</text>
</g>
<g id="clust5" class="cluster">
<title>cluster_case_utils_0_10_0</title>
<polygon fill="none" stroke="black" points="1028,-248 1028,-719 1624,-719 1624,-248 1028,-248"/>
<text text-anchor="middle" x="1326" y="-703.8" font-family="Times,serif" font-size="14.00">Adoption of case&#45;utils 0.10.0</text>
</g>
<g id="clust6" class="cluster">
<title>cluster_case_validation_action_2_6</title>
<polygon fill="none" stroke="black" points="1036,-302 1036,-688 1616,-688 1616,-302 1036,-302"/>
<text text-anchor="middle" x="1326" y="-672.8" font-family="Times,serif" font-size="14.00">Adoption of case&#45;validation&#45;action 2.6</text>
</g>
<g id="clust7" class="cluster">
<title>cluster_case_bindings_csharp_0_4_0</title>
<polygon fill="none" stroke="black" points="1061.5,-310 1061.5,-387 1608,-387 1608,-310 1061.5,-310"/>
<text text-anchor="middle" x="1334.75" y="-371.8" font-family="Times,serif" font-size="14.00">Adoption of CSharp bindings 0.4.0</text>
</g>
<g id="clust8" class="cluster">
<title>cluster_case_utils_0_11_0</title>
<polygon fill="none" stroke="black" points="536,-727 536,-1082 1827,-1082 1827,-727 536,-727"/>
<text text-anchor="middle" x="1181.5" y="-1066.8" font-family="Times,serif" font-size="14.00">Adoption of case&#45;utils 0.11.0</text>
</g>
<g id="clust10" class="cluster">
<title>cluster_case_validation_action_2_6_1</title>
<polygon fill="none" stroke="black" points="749,-735 749,-822 1251.5,-822 1251.5,-735 749,-735"/>
<text text-anchor="middle" x="1000.25" y="-806.8" font-family="Times,serif" font-size="14.00">Adoption of case&#45;validation&#45;action 2.6.1</text>
</g>
<g id="clust9" class="cluster">
<title>cluster_case_prov_0_8_0</title>
<polygon fill="none" stroke="black" points="1432,-839 1432,-916 1819,-916 1819,-839 1432,-839"/>
<text text-anchor="middle" x="1625.5" y="-900.8" font-family="Times,serif" font-size="14.00">Adoption of case&#45;prov 0.8.0</text>
</g>
<!-- _GH__CASEWORK__CASE_MAPPING_TEMPLATE_STUBS -->
<g id="node1" class="node">
<title>_GH__CASEWORK__CASE_MAPPING_TEMPLATE_STUBS</title>
<g id="a_node1"><a xlink:href="https://github.com/casework/CASE-Mapping-Template-Stubs" xlink:title="CASE Mapping\nTemplate Stubs">
<path fill="#8ec7d2" stroke="#0d6986" d="M124,-116C124,-116 44,-116 44,-116 38,-116 32,-110 32,-104 32,-104 32,-90 32,-90 32,-84 38,-78 44,-78 44,-78 124,-78 124,-78 130,-78 136,-84 136,-90 136,-90 136,-104 136,-104 136,-110 130,-116 124,-116"/>
<text text-anchor="middle" x="84" y="-100.8" font-family="Times,serif" font-size="14.00">CASE Mapping</text>
<text text-anchor="middle" x="84" y="-85.8" font-family="Times,serif" font-size="14.00">Template Stubs</text>
</a>
</g>
</g>
<!-- _GH__CYBER_DOMAIN_ONTOLOGY__CDO_SHAPES_EXAMPLE -->
<g id="node2" class="node">
<title>_GH__CYBER_DOMAIN_ONTOLOGY__CDO_SHAPES_EXAMPLE</title>
<g id="a_node2"><a xlink:href="https://github.com/Cyber-Domain-Ontology/CDO-Shapes-Example" xlink:title="CDO example&#45;base shapes\nupdates">
<path fill="#8ec7d2" stroke="#0d6986" d="M391,-1225C391,-1225 251,-1225 251,-1225 245,-1225 239,-1219 239,-1213 239,-1213 239,-1199 239,-1199 239,-1193 245,-1187 251,-1187 251,-1187 391,-1187 391,-1187 397,-1187 403,-1193 403,-1199 403,-1199 403,-1213 403,-1213 403,-1219 397,-1225 391,-1225"/>
<text text-anchor="middle" x="321" y="-1209.8" font-family="Times,serif" font-size="14.00">CDO example&#45;base shapes</text>
<text text-anchor="middle" x="321" y="-1194.8" font-family="Times,serif" font-size="14.00">updates</text>
</a>
</g>
</g>
<!-- _GH__CYBER_DOMAIN_ONTOLOGY__CDO_SHAPES_FOAF -->
<g id="node3" class="node">
<title>_GH__CYBER_DOMAIN_ONTOLOGY__CDO_SHAPES_FOAF</title>
<g id="a_node3"><a xlink:href="https://github.com/Cyber-Domain-Ontology/CDO-Shapes-FOAF" xlink:title="CDO FOAF shapes\nupdates">
<path fill="#8ec7d2" stroke="#0d6986" d="M627.5,-1281C627.5,-1281 528.5,-1281 528.5,-1281 522.5,-1281 516.5,-1275 516.5,-1269 516.5,-1269 516.5,-1255 516.5,-1255 516.5,-1249 522.5,-1243 528.5,-1243 528.5,-1243 627.5,-1243 627.5,-1243 633.5,-1243 639.5,-1249 639.5,-1255 639.5,-1255 639.5,-1269 639.5,-1269 639.5,-1275 633.5,-1281 627.5,-1281"/>
<text text-anchor="middle" x="578" y="-1265.8" font-family="Times,serif" font-size="14.00">CDO FOAF shapes</text>
<text text-anchor="middle" x="578" y="-1250.8" font-family="Times,serif" font-size="14.00">updates</text>
</a>
</g>
</g>
<!-- _GH__CYBER_DOMAIN_ONTOLOGY__CDO_SHAPES_EXAMPLE&#45;&gt;_GH__CYBER_DOMAIN_ONTOLOGY__CDO_SHAPES_FOAF -->
<g id="edge17" class="edge">
<title>_GH__CYBER_DOMAIN_ONTOLOGY__CDO_SHAPES_EXAMPLE&#45;&gt;_GH__CYBER_DOMAIN_ONTOLOGY__CDO_SHAPES_FOAF</title>
<path fill="none" stroke="black" d="M403.38,-1223.87C436.25,-1231.09 473.85,-1239.35 505.63,-1246.33"/>
<polygon fill="black" stroke="black" points="504.65,-1249.91 515.17,-1248.64 506.15,-1243.08 504.65,-1249.91"/>
<text text-anchor="middle" x="456.5" y="-1260.8" font-family="Times,serif" font-size="14.00">Git sub&#45;</text>
<text text-anchor="middle" x="456.5" y="-1245.8" font-family="Times,serif" font-size="14.00">module</text>
</g>
<!-- _GH__UCOPROJECT__UCO_PROFILE_FOAF -->
<g id="node8" class="node">
<title>_GH__UCOPROJECT__UCO_PROFILE_FOAF</title>
<g id="a_node8"><a xlink:href="https://github.com/ucoProject/UCO-Profile-FOAF" xlink:title="UCO FOAF profile\nupdates">
<path fill="#8ec7d2" stroke="#0d6986" d="M874.5,-1192C874.5,-1192 775.5,-1192 775.5,-1192 769.5,-1192 763.5,-1186 763.5,-1180 763.5,-1180 763.5,-1166 763.5,-1166 763.5,-1160 769.5,-1154 775.5,-1154 775.5,-1154 874.5,-1154 874.5,-1154 880.5,-1154 886.5,-1160 886.5,-1166 886.5,-1166 886.5,-1180 886.5,-1180 886.5,-1186 880.5,-1192 874.5,-1192"/>
<text text-anchor="middle" x="825" y="-1176.8" font-family="Times,serif" font-size="14.00">UCO FOAF profile</text>
<text text-anchor="middle" x="825" y="-1161.8" font-family="Times,serif" font-size="14.00">updates</text>
</a>
</g>
</g>
<!-- _GH__CYBER_DOMAIN_ONTOLOGY__CDO_SHAPES_FOAF&#45;&gt;_GH__UCOPROJECT__UCO_PROFILE_FOAF -->
<g id="edge18" class="edge">
<title>_GH__CYBER_DOMAIN_ONTOLOGY__CDO_SHAPES_FOAF&#45;&gt;_GH__UCOPROJECT__UCO_PROFILE_FOAF</title>
<path fill="none" stroke="black" d="M632.46,-1242.58C670.15,-1228.89 720.79,-1210.49 760.54,-1196.05"/>
<polygon fill="black" stroke="black" points="761.45,-1199.08 769.65,-1192.38 759.06,-1192.5 761.45,-1199.08"/>
<text text-anchor="middle" x="686.5" y="-1248.8" font-family="Times,serif" font-size="14.00">Git sub&#45;</text>
<text text-anchor="middle" x="686.5" y="-1233.8" font-family="Times,serif" font-size="14.00">module</text>
</g>
<!-- _GH__UCOPROJECT__ONTOLOGY_UNIFIEDCYBERONTOLOGY_ORG -->
<g id="node4" class="node">
<title>_GH__UCOPROJECT__ONTOLOGY_UNIFIEDCYBERONTOLOGY_ORG</title>
<g id="a_node4"><a xlink:href="https://github.com/ucoProject/ontology.unifiedcyberontology.org" xlink:title="UCO documentation\nregenerated">
<path fill="#8ec7d2" stroke="#0d6986" d="M374,-232C374,-232 268,-232 268,-232 262,-232 256,-226 256,-220 256,-220 256,-206 256,-206 256,-200 262,-194 268,-194 268,-194 374,-194 374,-194 380,-194 386,-200 386,-206 386,-206 386,-220 386,-220 386,-226 380,-232 374,-232"/>
<text text-anchor="middle" x="321" y="-216.8" font-family="Times,serif" font-size="14.00">UCO documentation</text>
<text text-anchor="middle" x="321" y="-201.8" font-family="Times,serif" font-size="14.00">regenerated</text>
</a>
</g>
</g>
<!-- _GH__CASEWORK__ONTOLOGY_CASEONTOLOGY_ORG -->
<g id="node10" class="node">
<title>_GH__CASEWORK__ONTOLOGY_CASEONTOLOGY_ORG</title>
<g id="a_node10"><a xlink:href="https://github.com/casework/ontology.caseontology.org" xlink:title="CASE documentation\nregenerated">
<path fill="#8ec7d2" stroke="#0d6986" d="M634,-302C634,-302 522,-302 522,-302 516,-302 510,-296 510,-290 510,-290 510,-276 510,-276 510,-270 516,-264 522,-264 522,-264 634,-264 634,-264 640,-264 646,-270 646,-276 646,-276 646,-290 646,-290 646,-296 640,-302 634,-302"/>
<text text-anchor="middle" x="578" y="-286.8" font-family="Times,serif" font-size="14.00">CASE documentation</text>
<text text-anchor="middle" x="578" y="-271.8" font-family="Times,serif" font-size="14.00">regenerated</text>
</a>
</g>
</g>
<!-- _GH__UCOPROJECT__ONTOLOGY_UNIFIEDCYBERONTOLOGY_ORG&#45;&gt;_GH__CASEWORK__ONTOLOGY_CASEONTOLOGY_ORG -->
<g id="edge27" class="edge">
<title>_GH__UCOPROJECT__ONTOLOGY_UNIFIEDCYBERONTOLOGY_ORG&#45;&gt;_GH__CASEWORK__ONTOLOGY_CASEONTOLOGY_ORG</title>
<path fill="none" stroke="black" d="M386.49,-223.33C418.57,-229.21 457.71,-237.51 492,-248 502.64,-251.25 513.79,-255.33 524.38,-259.54"/>
<polygon fill="black" stroke="black" points="522.75,-263.07 533.33,-263.6 525.39,-256.58 522.75,-263.07"/>
<text text-anchor="middle" x="456.5" y="-266.8" font-family="Times,serif" font-size="14.00">Tech&#45;</text>
<text text-anchor="middle" x="456.5" y="-251.8" font-family="Times,serif" font-size="14.00">check</text>
</g>
<!-- _GH__UCOPROJECT__UCO -->
<g id="node5" class="node">
<title>_GH__UCOPROJECT__UCO</title>
<g id="a_node5"><a xlink:href="https://github.com/ucoProject/UCO" xlink:title="UCO Ontology\nreleases">
<path fill="#8ec7d2" stroke="#0d6986" d="M122,-719C122,-719 46,-719 46,-719 40,-719 34,-713 34,-707 34,-707 34,-693 34,-693 34,-687 40,-681 46,-681 46,-681 122,-681 122,-681 128,-681 134,-687 134,-693 134,-693 134,-707 134,-707 134,-713 128,-719 122,-719"/>
<text text-anchor="middle" x="84" y="-703.8" font-family="Times,serif" font-size="14.00">UCO Ontology</text>
<text text-anchor="middle" x="84" y="-688.8" font-family="Times,serif" font-size="14.00">releases</text>
</a>
</g>
</g>
<!-- _GH__UCOPROJECT__UCO&#45;&gt;_GH__CYBER_DOMAIN_ONTOLOGY__CDO_SHAPES_EXAMPLE -->
<g id="edge29" class="edge">
<title>_GH__UCOPROJECT__UCO&#45;&gt;_GH__CYBER_DOMAIN_ONTOLOGY__CDO_SHAPES_EXAMPLE</title>
<path fill="none" stroke="black" d="M84.28,-719.29C82.86,-783.06 85.76,-990.63 176,-1125 193.38,-1150.87 221.94,-1169.38 249.07,-1182.1"/>
<polygon fill="black" stroke="black" points="247.42,-1185.64 257.98,-1186.53 250.28,-1179.25 247.42,-1185.64"/>
<text text-anchor="middle" x="198.5" y="-1182.8" font-family="Times,serif" font-size="14.00">Git sub&#45;</text>
<text text-anchor="middle" x="198.5" y="-1167.8" font-family="Times,serif" font-size="14.00">module</text>
</g>
<!-- _GH__UCOPROJECT__UCO&#45;&gt;_GH__UCOPROJECT__ONTOLOGY_UNIFIEDCYBERONTOLOGY_ORG -->
<g id="edge30" class="edge">
<title>_GH__UCOPROJECT__UCO&#45;&gt;_GH__UCOPROJECT__ONTOLOGY_UNIFIEDCYBERONTOLOGY_ORG</title>
<path fill="none" stroke="black" d="M85.34,-680.82C87.64,-610.46 105.33,-363.94 239,-236 241.28,-233.82 243.75,-231.84 246.36,-230.05"/>
<polygon fill="black" stroke="black" points="247.8,-232.68 254.71,-224.65 244.3,-226.62 247.8,-232.68"/>
<text text-anchor="middle" x="198.5" y="-325.8" font-family="Times,serif" font-size="14.00">Git sub&#45;</text>
<text text-anchor="middle" x="198.5" y="-310.8" font-family="Times,serif" font-size="14.00">module</text>
</g>
<!-- _GH__UCOPROJECT__UCO_PROFILE_EXAMPLE -->
<g id="node7" class="node">
<title>_GH__UCOPROJECT__UCO_PROFILE_EXAMPLE</title>
<g id="a_node7"><a xlink:href="https://github.com/ucoProject/UCO-Profile-Example" xlink:title="UCO example&#45;base profile\nupdates">
<path fill="#8ec7d2" stroke="#0d6986" d="M391,-1159C391,-1159 251,-1159 251,-1159 245,-1159 239,-1153 239,-1147 239,-1147 239,-1133 239,-1133 239,-1127 245,-1121 251,-1121 251,-1121 391,-1121 391,-1121 397,-1121 403,-1127 403,-1133 403,-1133 403,-1147 403,-1147 403,-1153 397,-1159 391,-1159"/>
<text text-anchor="middle" x="321" y="-1143.8" font-family="Times,serif" font-size="14.00">UCO example&#45;base profile</text>
<text text-anchor="middle" x="321" y="-1128.8" font-family="Times,serif" font-size="14.00">updates</text>
</a>
</g>
</g>
<!-- _GH__UCOPROJECT__UCO&#45;&gt;_GH__UCOPROJECT__UCO_PROFILE_EXAMPLE -->
<g id="edge31" class="edge">
<title>_GH__UCOPROJECT__UCO&#45;&gt;_GH__UCOPROJECT__UCO_PROFILE_EXAMPLE</title>
<path fill="none" stroke="black" d="M86.14,-719.07C91.04,-783.4 115.63,-994.84 235.71,-1113.34"/>
<polygon fill="black" stroke="black" points="232.72,-1115.29 242.38,-1119.66 237.56,-1110.23 232.72,-1115.29"/>
<text text-anchor="middle" x="198.5" y="-1109.8" font-family="Times,serif" font-size="14.00">Git sub&#45;</text>
<text text-anchor="middle" x="198.5" y="-1094.8" font-family="Times,serif" font-size="14.00">module</text>
</g>
<!-- _GH__CASEWORK__CASE -->
<g id="node9" class="node">
<title>_GH__CASEWORK__CASE</title>
<g id="a_node9"><a xlink:href="https://github.com/casework/CASE" xlink:title="CASE Ontology\nreleases">
<path fill="#8ec7d2" stroke="#0d6986" d="M362,-455C362,-455 280,-455 280,-455 274,-455 268,-449 268,-443 268,-443 268,-429 268,-429 268,-423 274,-417 280,-417 280,-417 362,-417 362,-417 368,-417 374,-423 374,-429 374,-429 374,-443 374,-443 374,-449 368,-455 362,-455"/>
<text text-anchor="middle" x="321" y="-439.8" font-family="Times,serif" font-size="14.00">CASE Ontology</text>
<text text-anchor="middle" x="321" y="-424.8" font-family="Times,serif" font-size="14.00">releases</text>
</a>
</g>
</g>
<!-- _GH__UCOPROJECT__UCO&#45;&gt;_GH__CASEWORK__CASE -->
<g id="edge28" class="edge">
<title>_GH__UCOPROJECT__UCO&#45;&gt;_GH__CASEWORK__CASE</title>
<path fill="none" stroke="black" d="M91.8,-680.68C108.92,-634.87 158.32,-519 239,-459 244.67,-454.78 251.1,-451.33 257.78,-448.52"/>
<polygon fill="black" stroke="black" points="258.55,-451.6 266.71,-444.83 256.11,-445.03 258.55,-451.6"/>
<text text-anchor="middle" x="198.5" y="-537.8" font-family="Times,serif" font-size="14.00">Git sub&#45;</text>
<text text-anchor="middle" x="198.5" y="-522.8" font-family="Times,serif" font-size="14.00">module</text>
</g>
<!-- _GH__UCOPROJECT__UCO_PROFILE_BFO -->
<g id="node6" class="node">
<title>_GH__UCOPROJECT__UCO_PROFILE_BFO</title>
<g id="a_node6"><a xlink:href="https://github.com/ucoProject/UCO-Profile-BFO" xlink:title="UCO BFO profile\nupdates">
<path fill="#8ec7d2" stroke="#0d6986" d="M623.5,-1225C623.5,-1225 532.5,-1225 532.5,-1225 526.5,-1225 520.5,-1219 520.5,-1213 520.5,-1213 520.5,-1199 520.5,-1199 520.5,-1193 526.5,-1187 532.5,-1187 532.5,-1187 623.5,-1187 623.5,-1187 629.5,-1187 635.5,-1193 635.5,-1199 635.5,-1199 635.5,-1213 635.5,-1213 635.5,-1219 629.5,-1225 623.5,-1225"/>
<text text-anchor="middle" x="578" y="-1209.8" font-family="Times,serif" font-size="14.00">UCO BFO profile</text>
<text text-anchor="middle" x="578" y="-1194.8" font-family="Times,serif" font-size="14.00">updates</text>
</a>
</g>
</g>
<!-- _GH__UCOPROJECT__UCO_PROFILE_EXAMPLE&#45;&gt;_GH__UCOPROJECT__UCO_PROFILE_BFO -->
<g id="edge32" class="edge">
<title>_GH__UCOPROJECT__UCO_PROFILE_EXAMPLE&#45;&gt;_GH__UCOPROJECT__UCO_PROFILE_BFO</title>
<path fill="none" stroke="black" d="M397.13,-1159.45C432.81,-1168.68 475.11,-1179.63 509.73,-1188.59"/>
<polygon fill="black" stroke="black" points="508.65,-1192.18 519.21,-1191.3 510.41,-1185.41 508.65,-1192.18"/>
<text text-anchor="middle" x="456.5" y="-1200.8" font-family="Times,serif" font-size="14.00">Git merge of</text>
<text text-anchor="middle" x="456.5" y="-1185.8" font-family="Times,serif" font-size="14.00">base branch</text>
</g>
<!-- _GH__UCOPROJECT__UCO_PROFILE_EXAMPLE&#45;&gt;_GH__UCOPROJECT__UCO_PROFILE_FOAF -->
<g id="edge33" class="edge">
<title>_GH__UCOPROJECT__UCO_PROFILE_EXAMPLE&#45;&gt;_GH__UCOPROJECT__UCO_PROFILE_FOAF</title>
<path fill="none" stroke="black" d="M403.36,-1139.43C468.97,-1139.59 563.57,-1141.22 646,-1148 681.21,-1150.9 720.08,-1156.12 752.5,-1161.05"/>
<polygon fill="black" stroke="black" points="751.81,-1164.64 762.23,-1162.7 752.88,-1157.72 751.81,-1164.64"/>
<text text-anchor="middle" x="578" y="-1166.8" font-family="Times,serif" font-size="14.00">Git merge of</text>
<text text-anchor="middle" x="578" y="-1151.8" font-family="Times,serif" font-size="14.00">base branch</text>
</g>
<!-- _GH__CASEWORK__CASE&#45;&gt;_GH__CASEWORK__ONTOLOGY_CASEONTOLOGY_ORG -->
<g id="edge4" class="edge">
<title>_GH__CASEWORK__CASE&#45;&gt;_GH__CASEWORK__ONTOLOGY_CASEONTOLOGY_ORG</title>
<path fill="none" stroke="black" d="M374.45,-430.32C385.2,-426.84 395.52,-421.41 403,-413 436.23,-375.67 384.97,-336.63 421,-302 432.49,-290.95 466,-286.03 499.02,-283.95"/>
<polygon fill="black" stroke="black" points="498.91,-287.4 508.7,-283.37 498.53,-280.41 498.91,-287.4"/>
<text text-anchor="middle" x="456.5" y="-320.8" font-family="Times,serif" font-size="14.00">Git sub&#45;</text>
<text text-anchor="middle" x="456.5" y="-305.8" font-family="Times,serif" font-size="14.00">module</text>
</g>
<!-- _GH__CIPHERTECHSOLUTIONS__CASE_BINDINGS_CSHARP -->
<g id="node18" class="node">
<title>_GH__CIPHERTECHSOLUTIONS__CASE_BINDINGS_CSHARP</title>
<g id="a_node18"><a xlink:href="https://github.com/ciphertechsolutions/CASE-Bindings-CSharp" xlink:title="CASE&#45;Bindings&#45;CSharp\nadopts new ontology version">
<path fill="#8ec7d2" stroke="#0d6986" d="M1230.5,-356C1230.5,-356 1081.5,-356 1081.5,-356 1075.5,-356 1069.5,-350 1069.5,-344 1069.5,-344 1069.5,-330 1069.5,-330 1069.5,-324 1075.5,-318 1081.5,-318 1081.5,-318 1230.5,-318 1230.5,-318 1236.5,-318 1242.5,-324 1242.5,-330 1242.5,-330 1242.5,-344 1242.5,-344 1242.5,-350 1236.5,-356 1230.5,-356"/>
<text text-anchor="middle" x="1156" y="-340.8" font-family="Times,serif" font-size="14.00">CASE&#45;Bindings&#45;CSharp</text>
<text text-anchor="middle" x="1156" y="-325.8" font-family="Times,serif" font-size="14.00">adopts new ontology version</text>
</a>
</g>
</g>
<!-- _GH__CASEWORK__CASE&#45;&gt;_GH__CIPHERTECHSOLUTIONS__CASE_BINDINGS_CSHARP -->
<g id="edge3" class="edge">
<title>_GH__CASEWORK__CASE&#45;&gt;_GH__CIPHERTECHSOLUTIONS__CASE_BINDINGS_CSHARP</title>
<path fill="none" stroke="black" d="M374.42,-429.77C511.38,-413.49 881.48,-369.51 1058.34,-348.49"/>
<polygon fill="black" stroke="black" points="1058.67,-351.85 1068.19,-347.2 1057.85,-344.9 1058.67,-351.85"/>
</g>
<!-- _GH__CASEWORK__CASE_UTILITIES_PYTHON -->
<g id="node22" class="node">
<title>_GH__CASEWORK__CASE_UTILITIES_PYTHON</title>
<g id="a_node22"><a xlink:href="https://github.com/casework/CASE-Utilities-Python" xlink:title="case&#45;utils\nreleases">
<path fill="#8ec7d2" stroke="#0d6986" d="M600,-850C600,-850 556,-850 556,-850 550,-850 544,-844 544,-838 544,-838 544,-824 544,-824 544,-818 550,-812 556,-812 556,-812 600,-812 600,-812 606,-812 612,-818 612,-824 612,-824 612,-838 612,-838 612,-844 606,-850 600,-850"/>
<text text-anchor="middle" x="578" y="-834.8" font-family="Times,serif" font-size="14.00">case&#45;utils</text>
<text text-anchor="middle" x="578" y="-819.8" font-family="Times,serif" font-size="14.00">releases</text>
</a>
</g>
</g>
<!-- _GH__CASEWORK__CASE&#45;&gt;_GH__CASEWORK__CASE_UTILITIES_PYTHON -->
<g id="edge2" class="edge">
<title>_GH__CASEWORK__CASE&#45;&gt;_GH__CASEWORK__CASE_UTILITIES_PYTHON</title>
<path fill="none" stroke="black" d="M374.33,-445.51C384.38,-448.78 394.43,-453.15 403,-459 456.98,-495.81 468.75,-514.94 492,-576 510.4,-624.32 478.35,-767.11 510,-808 515.85,-815.56 524.33,-820.65 533.3,-824.07"/>
<polygon fill="black" stroke="black" points="531.93,-827.62 542.52,-827.27 534.02,-820.94 531.93,-827.62"/>
<text text-anchor="middle" x="456.5" y="-594.8" font-family="Times,serif" font-size="14.00">Git sub&#45;</text>
<text text-anchor="middle" x="456.5" y="-579.8" font-family="Times,serif" font-size="14.00">module</text>
</g>
<!-- _GH__CASEWORK__CASE_IMPLEMENTATON_GNU_TIME -->
<g id="node11" class="node">
<title>_GH__CASEWORK__CASE_IMPLEMENTATON_GNU_TIME</title>
<g id="a_node11"><a xlink:href="https://github.com/casework/CASE-Implementation-GNU-Time" xlink:title="CASE&#45;Implementation&#45;GNU&#45;Time\nadopts new case&#45;utils">
<path fill="#8ec7d2" stroke="#0d6986" d="M1249,-294C1249,-294 1063,-294 1063,-294 1057,-294 1051,-288 1051,-282 1051,-282 1051,-268 1051,-268 1051,-262 1057,-256 1063,-256 1063,-256 1249,-256 1249,-256 1255,-256 1261,-262 1261,-268 1261,-268 1261,-282 1261,-282 1261,-288 1255,-294 1249,-294"/>
<text text-anchor="middle" x="1156" y="-278.8" font-family="Times,serif" font-size="14.00">CASE&#45;Implementation&#45;GNU&#45;Time</text>
<text text-anchor="middle" x="1156" y="-263.8" font-family="Times,serif" font-size="14.00">adopts new case&#45;utils</text>
</a>
</g>
</g>
<!-- _GH__CASEWORK__CASE_IMPLEMENTATON_PYPI_EXIFREAD -->
<g id="node12" class="node">
<title>_GH__CASEWORK__CASE_IMPLEMENTATON_PYPI_EXIFREAD</title>
<g id="a_node12"><a xlink:href="https://github.com/casework/CASE-Implementation-PyPI-Exifread" xlink:title="CASE&#45;Implementation&#45;PyPI&#45;Exifread\nadopts new case&#45;validation&#45;action">
<path fill="#8ec7d2" stroke="#0d6986" d="M1256,-433C1256,-433 1056,-433 1056,-433 1050,-433 1044,-427 1044,-421 1044,-421 1044,-407 1044,-407 1044,-401 1050,-395 1056,-395 1056,-395 1256,-395 1256,-395 1262,-395 1268,-401 1268,-407 1268,-407 1268,-421 1268,-421 1268,-427 1262,-433 1256,-433"/>
<text text-anchor="middle" x="1156" y="-417.8" font-family="Times,serif" font-size="14.00">CASE&#45;Implementation&#45;PyPI&#45;Exifread</text>
<text text-anchor="middle" x="1156" y="-402.8" font-family="Times,serif" font-size="14.00">adopts new case&#45;validation&#45;action</text>
</a>
</g>
</g>
<!-- _GH__CASEWORK__CASE_IMPLEMENTATON_PYPI_PILLOW -->
<g id="node13" class="node">
<title>_GH__CASEWORK__CASE_IMPLEMENTATON_PYPI_PILLOW</title>
<g id="a_node13"><a xlink:href="https://github.com/casework/CASE-Implementation-PyPI-Pillow" xlink:title="CASE&#45;Implementation&#45;PyPI&#45;Pillow\nadopts new case&#45;validation&#45;action">
<path fill="#8ec7d2" stroke="#0d6986" d="M1250.5,-489C1250.5,-489 1061.5,-489 1061.5,-489 1055.5,-489 1049.5,-483 1049.5,-477 1049.5,-477 1049.5,-463 1049.5,-463 1049.5,-457 1055.5,-451 1061.5,-451 1061.5,-451 1250.5,-451 1250.5,-451 1256.5,-451 1262.5,-457 1262.5,-463 1262.5,-463 1262.5,-477 1262.5,-477 1262.5,-483 1256.5,-489 1250.5,-489"/>
<text text-anchor="middle" x="1156" y="-473.8" font-family="Times,serif" font-size="14.00">CASE&#45;Implementation&#45;PyPI&#45;Pillow</text>
<text text-anchor="middle" x="1156" y="-458.8" font-family="Times,serif" font-size="14.00">adopts new case&#45;validation&#45;action</text>
</a>
</g>
</g>
<!-- _GH__CASEWORK__CASE_IMPLEMENTATON_UFED_XML -->
<g id="node14" class="node">
<title>_GH__CASEWORK__CASE_IMPLEMENTATON_UFED_XML</title>
<g id="a_node14"><a xlink:href="https://github.com/casework/CASE-Implementation-UFED-XML" xlink:title="CASE&#45;Implementation&#45;UFED&#45;XML\nadopts new case&#45;validation&#45;action">
<path fill="#8ec7d2" stroke="#0d6986" d="M1253,-545C1253,-545 1059,-545 1059,-545 1053,-545 1047,-539 1047,-533 1047,-533 1047,-519 1047,-519 1047,-513 1053,-507 1059,-507 1059,-507 1253,-507 1253,-507 1259,-507 1265,-513 1265,-519 1265,-519 1265,-533 1265,-533 1265,-539 1259,-545 1253,-545"/>
<text text-anchor="middle" x="1156" y="-529.8" font-family="Times,serif" font-size="14.00">CASE&#45;Implementation&#45;UFED&#45;XML</text>
<text text-anchor="middle" x="1156" y="-514.8" font-family="Times,serif" font-size="14.00">adopts new case&#45;validation&#45;action</text>
</a>
</g>
</g>
<!-- _GH__CASEWORK__CASE_IMPLEMENTATON_XRY -->
<g id="node15" class="node">
<title>_GH__CASEWORK__CASE_IMPLEMENTATON_XRY</title>
<g id="a_node15"><a xlink:href="https://github.com/casework/CASE-Implementation-XRY" xlink:title="CASE&#45;Implementation&#45;XRY adopts\nnew case&#45;validation&#45;action">
<path fill="#8ec7d2" stroke="#0d6986" d="M1251,-601C1251,-601 1061,-601 1061,-601 1055,-601 1049,-595 1049,-589 1049,-589 1049,-575 1049,-575 1049,-569 1055,-563 1061,-563 1061,-563 1251,-563 1251,-563 1257,-563 1263,-569 1263,-575 1263,-575 1263,-589 1263,-589 1263,-595 1257,-601 1251,-601"/>
<text text-anchor="middle" x="1156" y="-585.8" font-family="Times,serif" font-size="14.00">CASE&#45;Implementation&#45;XRY adopts</text>
<text text-anchor="middle" x="1156" y="-570.8" font-family="Times,serif" font-size="14.00">new case&#45;validation&#45;action</text>
</a>
</g>
</g>
<!-- _GH__CASEWORK__CASE_MAPPING_TEMPLATE_PYTHON -->
<g id="node16" class="node">
<title>_GH__CASEWORK__CASE_MAPPING_TEMPLATE_PYTHON</title>
<g id="a_node16"><a xlink:href="https://github.com/casework/CASE-Mapping-Template-Python" xlink:title="CASE&#45;Mapping&#45;Template&#45;Python\nadopts new case&#45;validation&#45;action">
<path fill="#8ec7d2" stroke="#0d6986" d="M1246,-657C1246,-657 1066,-657 1066,-657 1060,-657 1054,-651 1054,-645 1054,-645 1054,-631 1054,-631 1054,-625 1060,-619 1066,-619 1066,-619 1246,-619 1246,-619 1252,-619 1258,-625 1258,-631 1258,-631 1258,-645 1258,-645 1258,-651 1252,-657 1246,-657"/>
<text text-anchor="middle" x="1156" y="-641.8" font-family="Times,serif" font-size="14.00">CASE&#45;Mapping&#45;Template&#45;Python</text>
<text text-anchor="middle" x="1156" y="-626.8" font-family="Times,serif" font-size="14.00">adopts new case&#45;validation&#45;action</text>
</a>
</g>
</g>
<!-- _GH__CASEWORK__CASE_BINDINGS_CSHARP_MONITOR -->
<g id="node17" class="node">
<title>_GH__CASEWORK__CASE_BINDINGS_CSHARP_MONITOR</title>
<g id="a_node17"><a xlink:href="https://github.com/casework/CASE-Bindings-CSharp-Monitor" xlink:title="CASE Bindings CSharp Monitor\ntests NuGet package with validation action">
<path fill="#8ec7d2" stroke="#0d6986" d="M1588,-356C1588,-356 1361,-356 1361,-356 1355,-356 1349,-350 1349,-344 1349,-344 1349,-330 1349,-330 1349,-324 1355,-318 1361,-318 1361,-318 1588,-318 1588,-318 1594,-318 1600,-324 1600,-330 1600,-330 1600,-344 1600,-344 1600,-350 1594,-356 1588,-356"/>
<text text-anchor="middle" x="1474.5" y="-340.8" font-family="Times,serif" font-size="14.00">CASE Bindings CSharp Monitor</text>
<text text-anchor="middle" x="1474.5" y="-325.8" font-family="Times,serif" font-size="14.00">tests NuGet package with validation action</text>
</a>
</g>
</g>
<!-- _GH__CIPHERTECHSOLUTIONS__CASE_BINDINGS_CSHARP&#45;&gt;_GH__CASEWORK__CASE_BINDINGS_CSHARP_MONITOR -->
<g id="edge16" class="edge">
<title>_GH__CIPHERTECHSOLUTIONS__CASE_BINDINGS_CSHARP&#45;&gt;_GH__CASEWORK__CASE_BINDINGS_CSHARP_MONITOR</title>
<path fill="none" stroke="black" d="M1242.65,-337C1271.93,-337 1305.44,-337 1337.68,-337"/>
<polygon fill="black" stroke="black" points="1337.56,-340.5 1347.56,-337 1337.56,-333.5 1337.56,-340.5"/>
<text text-anchor="middle" x="1308.5" y="-340.8" font-family="Times,serif" font-size="14.00">NuGet</text>
</g>
<!-- _GH__AJNELSON_NIST__CASE_EXAMPLES_QC -->
<g id="node19" class="node">
<title>_GH__AJNELSON_NIST__CASE_EXAMPLES_QC</title>
<g id="a_node19"><a xlink:href="https://github.com/ajnelson-nist/CASE-Examples-QC" xlink:title="CASE&#45;Examples&#45;QC\nadopts CASE&#45;Examples and\nCASE website updates">
<path fill="#8ec7d2" stroke="#0d6986" d="M1230,-929.5C1230,-929.5 1082,-929.5 1082,-929.5 1076,-929.5 1070,-923.5 1070,-917.5 1070,-917.5 1070,-888.5 1070,-888.5 1070,-882.5 1076,-876.5 1082,-876.5 1082,-876.5 1230,-876.5 1230,-876.5 1236,-876.5 1242,-882.5 1242,-888.5 1242,-888.5 1242,-917.5 1242,-917.5 1242,-923.5 1236,-929.5 1230,-929.5"/>
<text text-anchor="middle" x="1156" y="-914.3" font-family="Times,serif" font-size="14.00">CASE&#45;Examples&#45;QC</text>
<text text-anchor="middle" x="1156" y="-899.3" font-family="Times,serif" font-size="14.00">adopts CASE&#45;Examples and</text>
<text text-anchor="middle" x="1156" y="-884.3" font-family="Times,serif" font-size="14.00">CASE website updates</text>
</a>
</g>
</g>
<!-- _GH__CASEWORK__CASE_IMPLEMENTATON_PROV_O -->
<g id="node25" class="node">
<title>_GH__CASEWORK__CASE_IMPLEMENTATON_PROV_O</title>
<g id="a_node25"><a xlink:href="https://github.com/casework/CASE-Implementation-PROV-O" xlink:title="case&#45;prov\nreleases">
<path fill="#8ec7d2" stroke="#0d6986" d="M1497,-885C1497,-885 1452,-885 1452,-885 1446,-885 1440,-879 1440,-873 1440,-873 1440,-859 1440,-859 1440,-853 1446,-847 1452,-847 1452,-847 1497,-847 1497,-847 1503,-847 1509,-853 1509,-859 1509,-859 1509,-873 1509,-873 1509,-879 1503,-885 1497,-885"/>
<text text-anchor="middle" x="1474.5" y="-869.8" font-family="Times,serif" font-size="14.00">case&#45;prov</text>
<text text-anchor="middle" x="1474.5" y="-854.8" font-family="Times,serif" font-size="14.00">releases</text>
</a>
</g>
</g>
<!-- _GH__AJNELSON_NIST__CASE_EXAMPLES_QC&#45;&gt;_GH__CASEWORK__CASE_IMPLEMENTATON_PROV_O -->
<g id="edge1" class="edge">
<title>_GH__AJNELSON_NIST__CASE_EXAMPLES_QC&#45;&gt;_GH__CASEWORK__CASE_IMPLEMENTATON_PROV_O</title>
<path fill="none" stroke="black" d="M1242.23,-893.04C1302.36,-886.01 1380.51,-876.87 1428.82,-871.22"/>
<polygon fill="black" stroke="black" points="1429.01,-874.61 1438.54,-869.97 1428.2,-867.66 1429.01,-874.61"/>
<text text-anchor="middle" x="1308.5" y="-905.8" font-family="Times,serif" font-size="14.00">Git sub&#45;</text>
<text text-anchor="middle" x="1308.5" y="-890.8" font-family="Times,serif" font-size="14.00">module</text>
</g>
<!-- _GH__CASEWORK__CASE_EXAMPLES -->
<g id="node20" class="node">
<title>_GH__CASEWORK__CASE_EXAMPLES</title>
<g id="a_node20"><a xlink:href="https://github.com/casework/CASE-Examples" xlink:title="CASE&#45;Examples\nadopts new case&#45;utils">
<path fill="#8ec7d2" stroke="#0d6986" d="M879.5,-995C879.5,-995 770.5,-995 770.5,-995 764.5,-995 758.5,-989 758.5,-983 758.5,-983 758.5,-969 758.5,-969 758.5,-963 764.5,-957 770.5,-957 770.5,-957 879.5,-957 879.5,-957 885.5,-957 891.5,-963 891.5,-969 891.5,-969 891.5,-983 891.5,-983 891.5,-989 885.5,-995 879.5,-995"/>
<text text-anchor="middle" x="825" y="-979.8" font-family="Times,serif" font-size="14.00">CASE&#45;Examples</text>
<text text-anchor="middle" x="825" y="-964.8" font-family="Times,serif" font-size="14.00">adopts new case&#45;utils</text>
</a>
</g>
</g>
<!-- _GH__CASEWORK__CASE_EXAMPLES&#45;&gt;_GH__AJNELSON_NIST__CASE_EXAMPLES_QC -->
<g id="edge5" class="edge">
<title>_GH__CASEWORK__CASE_EXAMPLES&#45;&gt;_GH__AJNELSON_NIST__CASE_EXAMPLES_QC</title>
<path fill="none" stroke="black" d="M891.79,-961.4C939.69,-950.77 1005.32,-936.21 1059.06,-924.29"/>
<polygon fill="black" stroke="black" points="1059.64,-927.52 1068.64,-921.94 1058.12,-920.69 1059.64,-927.52"/>
<text text-anchor="middle" x="980.5" y="-968.8" font-family="Times,serif" font-size="14.00">Git sub&#45;</text>
<text text-anchor="middle" x="980.5" y="-953.8" font-family="Times,serif" font-size="14.00">module</text>
</g>
<!-- _GH__CASEWORK__CASE_IMPLEMENTATON_EXIFTOOL -->
<g id="node21" class="node">
<title>_GH__CASEWORK__CASE_IMPLEMENTATON_EXIFTOOL</title>
<g id="a_node21"><a xlink:href="https://github.com/casework/CASE-Implementation-ExifTool" xlink:title="CASE&#45;Implementation&#45;ExifTool\nadopts new case&#45;utils">
<path fill="#8ec7d2" stroke="#0d6986" d="M911,-939C911,-939 739,-939 739,-939 733,-939 727,-933 727,-927 727,-927 727,-913 727,-913 727,-907 733,-901 739,-901 739,-901 911,-901 911,-901 917,-901 923,-907 923,-913 923,-913 923,-927 923,-927 923,-933 917,-939 911,-939"/>
<text text-anchor="middle" x="825" y="-923.8" font-family="Times,serif" font-size="14.00">CASE&#45;Implementation&#45;ExifTool</text>
<text text-anchor="middle" x="825" y="-908.8" font-family="Times,serif" font-size="14.00">adopts new case&#45;utils</text>
</a>
</g>
</g>
<!-- _GH__CASEWORK__CASE_UTILITIES_PYTHON&#45;&gt;_GH__CASEWORK__CASE_IMPLEMENTATON_GNU_TIME -->
<g id="edge10" class="edge">
<title>_GH__CASEWORK__CASE_UTILITIES_PYTHON&#45;&gt;_GH__CASEWORK__CASE_IMPLEMENTATON_GNU_TIME</title>
<path fill="none" stroke="black" d="M612.48,-826.51C624.61,-823.26 637.42,-817.65 646,-808 646.88,-807 726.06,-433.94 727,-433 774.07,-385.82 975.01,-418.17 1020,-369 1039.05,-348.18 1009.2,-327.05 1028,-306 1032.02,-301.5 1036.56,-297.61 1041.49,-294.23"/>
<polygon fill="black" stroke="black" points="1042.95,-296.84 1049.74,-288.71 1039.36,-290.83 1042.95,-296.84"/>
<text text-anchor="middle" x="825" y="-436.8" font-family="Times,serif" font-size="14.00">PyPI</text>
</g>
<!-- _GH__CASEWORK__CASE_UTILITIES_PYTHON&#45;&gt;_GH__CASEWORK__CASE_IMPLEMENTATON_PYPI_EXIFREAD -->
<g id="edge12" class="edge">
<title>_GH__CASEWORK__CASE_UTILITIES_PYTHON&#45;&gt;_GH__CASEWORK__CASE_IMPLEMENTATON_PYPI_EXIFREAD</title>
<path fill="none" stroke="black" d="M612.16,-823.74C623.57,-820.21 635.99,-815.14 646,-808 651.42,-804.13 935.13,-433.14 941,-430 968.82,-415.11 1001.64,-408.33 1033.12,-405.91"/>
<polygon fill="black" stroke="black" points="1032.98,-409.36 1042.74,-405.25 1032.54,-402.37 1032.98,-409.36"/>
<text text-anchor="middle" x="825" y="-706.8" font-family="Times,serif" font-size="14.00">PyPI</text>
</g>
<!-- _GH__CASEWORK__CASE_UTILITIES_PYTHON&#45;&gt;_GH__AJNELSON_NIST__CASE_EXAMPLES_QC -->
<g id="edge7" class="edge">
<title>_GH__CASEWORK__CASE_UTILITIES_PYTHON&#45;&gt;_GH__AJNELSON_NIST__CASE_EXAMPLES_QC</title>
<path fill="none" stroke="black" d="M612.46,-835.18C697.99,-845.87 927.14,-874.52 1058.66,-890.96"/>
<polygon fill="black" stroke="black" points="1058.16,-894.55 1068.51,-892.31 1059.02,-887.6 1058.16,-894.55"/>
<text text-anchor="middle" x="825" y="-875.8" font-family="Times,serif" font-size="14.00">PyPI</text>
</g>
<!-- _GH__CASEWORK__CASE_UTILITIES_PYTHON&#45;&gt;_GH__CASEWORK__CASE_EXAMPLES -->
<g id="edge8" class="edge">
<title>_GH__CASEWORK__CASE_UTILITIES_PYTHON&#45;&gt;_GH__CASEWORK__CASE_EXAMPLES</title>
<path fill="none" stroke="black" d="M612.37,-836.01C624.34,-839.33 637.07,-844.84 646,-854 664.55,-873.02 647.44,-890.22 664,-911 684.24,-936.4 697.17,-935.17 727,-948 733.81,-950.93 741.01,-953.65 748.3,-956.16"/>
<polygon fill="black" stroke="black" points="746.66,-959.63 757.25,-959.44 748.85,-952.99 746.66,-959.63"/>
<text text-anchor="middle" x="686.5" y="-943.8" font-family="Times,serif" font-size="14.00">PyPI</text>
</g>
<!-- _GH__CASEWORK__CASE_UTILITIES_PYTHON&#45;&gt;_GH__CASEWORK__CASE_IMPLEMENTATON_EXIFTOOL -->
<g id="edge9" class="edge">
<title>_GH__CASEWORK__CASE_UTILITIES_PYTHON&#45;&gt;_GH__CASEWORK__CASE_IMPLEMENTATON_EXIFTOOL</title>
<path fill="none" stroke="black" d="M612.48,-839.02C623.67,-842.58 635.86,-847.48 646,-854 655.78,-860.29 654.08,-866.93 664,-873 680.25,-882.94 698.72,-890.88 717.2,-897.19"/>
<polygon fill="black" stroke="black" points="715.86,-900.76 726.45,-900.52 718.02,-894.1 715.86,-900.76"/>
<text text-anchor="middle" x="686.5" y="-895.8" font-family="Times,serif" font-size="14.00">PyPI</text>
</g>
<!-- _GH__CASEWORK__CASEWORK_GITHUB_IO -->
<g id="node23" class="node">
<title>_GH__CASEWORK__CASEWORK_GITHUB_IO</title>
<g id="a_node23"><a xlink:href="https://github.com/casework/casework.github.io" xlink:title="CASE website\nadopts new case&#45;utils">
<path fill="#8ec7d2" stroke="#0d6986" d="M879.5,-1051C879.5,-1051 770.5,-1051 770.5,-1051 764.5,-1051 758.5,-1045 758.5,-1039 758.5,-1039 758.5,-1025 758.5,-1025 758.5,-1019 764.5,-1013 770.5,-1013 770.5,-1013 879.5,-1013 879.5,-1013 885.5,-1013 891.5,-1019 891.5,-1025 891.5,-1025 891.5,-1039 891.5,-1039 891.5,-1045 885.5,-1051 879.5,-1051"/>
<text text-anchor="middle" x="825" y="-1035.8" font-family="Times,serif" font-size="14.00">CASE website</text>
<text text-anchor="middle" x="825" y="-1020.8" font-family="Times,serif" font-size="14.00">adopts new case&#45;utils</text>
</a>
</g>
</g>
<!-- _GH__CASEWORK__CASE_UTILITIES_PYTHON&#45;&gt;_GH__CASEWORK__CASEWORK_GITHUB_IO -->
<g id="edge14" class="edge">
<title>_GH__CASEWORK__CASE_UTILITIES_PYTHON&#45;&gt;_GH__CASEWORK__CASEWORK_GITHUB_IO</title>
<path fill="none" stroke="black" d="M612.35,-835.21C624.61,-838.42 637.55,-844.07 646,-854 676.68,-890.06 638.84,-918.89 664,-959 682.28,-988.15 696.03,-989.01 727,-1004 733.73,-1007.25 740.9,-1010.2 748.19,-1012.85"/>
<polygon fill="black" stroke="black" points="746.57,-1016.34 757.17,-1016.29 748.85,-1009.72 746.57,-1016.34"/>
<text text-anchor="middle" x="686.5" y="-998.8" font-family="Times,serif" font-size="14.00">PyPI</text>
</g>
<!-- _GH__CASEWORK__CASE_UTILITIES_PYTHON&#45;&gt;_GH__CASEWORK__CASE_IMPLEMENTATON_PROV_O -->
<g id="edge11" class="edge">
<title>_GH__CASEWORK__CASE_UTILITIES_PYTHON&#45;&gt;_GH__CASEWORK__CASE_IMPLEMENTATON_PROV_O</title>
<path fill="none" stroke="black" d="M612.43,-832.31C750.11,-837.7 1273.27,-858.17 1429.31,-864.27"/>
<polygon fill="black" stroke="black" points="1428.77,-867.79 1438.9,-864.69 1429.04,-860.8 1428.77,-867.79"/>
<text text-anchor="middle" x="980.5" y="-851.8" font-family="Times,serif" font-size="14.00">PyPI</text>
</g>
<!-- _GH__KCHASON__CASE_VALIDATION_ACTION -->
<g id="node27" class="node">
<title>_GH__KCHASON__CASE_VALIDATION_ACTION</title>
<g id="a_node27"><a xlink:href="https://github.com/kchason/case-validation-action" xlink:title="case&#45;validation&#45;action\nreleases">
<path fill="#8ec7d2" stroke="#0d6986" d="M881,-781C881,-781 769,-781 769,-781 763,-781 757,-775 757,-769 757,-769 757,-755 757,-755 757,-749 763,-743 769,-743 769,-743 881,-743 881,-743 887,-743 893,-749 893,-755 893,-755 893,-769 893,-769 893,-775 887,-781 881,-781"/>
<text text-anchor="middle" x="825" y="-765.8" font-family="Times,serif" font-size="14.00">case&#45;validation&#45;action</text>
<text text-anchor="middle" x="825" y="-750.8" font-family="Times,serif" font-size="14.00">releases</text>
</a>
</g>
</g>
<!-- _GH__CASEWORK__CASE_UTILITIES_PYTHON&#45;&gt;_GH__KCHASON__CASE_VALIDATION_ACTION -->
<g id="edge13" class="edge">
<title>_GH__CASEWORK__CASE_UTILITIES_PYTHON&#45;&gt;_GH__KCHASON__CASE_VALIDATION_ACTION</title>
<path fill="none" stroke="black" d="M612.31,-819.93C642.18,-810.17 687.29,-795.86 727,-785 733.24,-783.29 739.74,-781.59 746.27,-779.93"/>
<polygon fill="black" stroke="black" points="746.68,-783.19 755.53,-777.37 744.98,-776.4 746.68,-783.19"/>
<text text-anchor="middle" x="686.5" y="-805.8" font-family="Times,serif" font-size="14.00">PyPI</text>
</g>
<!-- _GH__CASEWORK__CASEWORK_GITHUB_IO&#45;&gt;_GH__AJNELSON_NIST__CASE_EXAMPLES_QC -->
<g id="edge15" class="edge">
<title>_GH__CASEWORK__CASEWORK_GITHUB_IO&#45;&gt;_GH__AJNELSON_NIST__CASE_EXAMPLES_QC</title>
<path fill="none" stroke="black" d="M891.76,-1020.8C930.07,-1013.04 978.79,-1001.01 1020,-984 1050.83,-971.27 1082.94,-952.28 1108.1,-935.88"/>
<polygon fill="black" stroke="black" points="1109.63,-938.41 1116.04,-929.97 1105.77,-932.57 1109.63,-938.41"/>
<text text-anchor="middle" x="980.5" y="-1027.8" font-family="Times,serif" font-size="14.00">Git sub&#45;</text>
<text text-anchor="middle" x="980.5" y="-1012.8" font-family="Times,serif" font-size="14.00">module</text>
</g>
<!-- _GH__CASEWORK__CASE_CORPORA -->
<g id="node24" class="node">
<title>_GH__CASEWORK__CASE_CORPORA</title>
<g id="a_node24"><a xlink:href="https://github.com/casework/CASE-Corpora" xlink:title="CASE&#45;Corpora\nadopts new case&#45;prov">
<path fill="#8ec7d2" stroke="#0d6986" d="M1799,-885C1799,-885 1689,-885 1689,-885 1683,-885 1677,-879 1677,-873 1677,-873 1677,-859 1677,-859 1677,-853 1683,-847 1689,-847 1689,-847 1799,-847 1799,-847 1805,-847 1811,-853 1811,-859 1811,-859 1811,-873 1811,-873 1811,-879 1805,-885 1799,-885"/>
<text text-anchor="middle" x="1744" y="-869.8" font-family="Times,serif" font-size="14.00">CASE&#45;Corpora</text>
<text text-anchor="middle" x="1744" y="-854.8" font-family="Times,serif" font-size="14.00">adopts new case&#45;prov</text>
</a>
</g>
</g>
<!-- _GH__CASEWORK__CASE_IMPLEMENTATON_PROV_O&#45;&gt;_GH__CASEWORK__CASE_CORPORA -->
<g id="edge6" class="edge">
<title>_GH__CASEWORK__CASE_IMPLEMENTATON_PROV_O&#45;&gt;_GH__CASEWORK__CASE_CORPORA</title>
<path fill="none" stroke="black" d="M1509.38,-866C1548.49,-866 1614.08,-866 1665.82,-866"/>
<polygon fill="black" stroke="black" points="1665.63,-869.5 1675.63,-866 1665.63,-862.5 1665.63,-869.5"/>
<text text-anchor="middle" x="1645.5" y="-869.8" font-family="Times,serif" font-size="14.00">PyPI</text>
</g>
<!-- _GH__CASEWORK__CASE_EXAMPLES_CONVERSION -->
<g id="node26" class="node">
<title>_GH__CASEWORK__CASE_EXAMPLES_CONVERSION</title>
<g id="a_node26"><a xlink:href="https://github.com/casework/CASE-Examples-Conversion" xlink:title="CASE Conversion Examples">
<path fill="#8ec7d2" stroke="#0d6986" d="M1231.5,-781C1231.5,-781 1080.5,-781 1080.5,-781 1074.5,-781 1068.5,-775 1068.5,-769 1068.5,-769 1068.5,-757 1068.5,-757 1068.5,-751 1074.5,-745 1080.5,-745 1080.5,-745 1231.5,-745 1231.5,-745 1237.5,-745 1243.5,-751 1243.5,-757 1243.5,-757 1243.5,-769 1243.5,-769 1243.5,-775 1237.5,-781 1231.5,-781"/>
<text text-anchor="middle" x="1156" y="-759.3" font-family="Times,serif" font-size="14.00">CASE Conversion Examples</text>
</a>
</g>
</g>
<!-- _GH__KCHASON__CASE_VALIDATION_ACTION&#45;&gt;_GH__CASEWORK__CASE_IMPLEMENTATON_PYPI_EXIFREAD -->
<g id="edge21" class="edge">
<title>_GH__KCHASON__CASE_VALIDATION_ACTION&#45;&gt;_GH__CASEWORK__CASE_IMPLEMENTATON_PYPI_EXIFREAD</title>
<path fill="none" stroke="black" d="M826.76,-742.89C830.07,-687.75 847.67,-527.37 941,-450 948.94,-443.42 989.22,-435.88 1032.73,-429.41"/>
<polygon fill="black" stroke="black" points="1033.16,-432.74 1042.55,-427.84 1032.15,-425.82 1033.16,-432.74"/>
<text text-anchor="middle" x="980.5" y="-468.8" font-family="Times,serif" font-size="14.00">GitHub</text>
<text text-anchor="middle" x="980.5" y="-453.8" font-family="Times,serif" font-size="14.00">Action</text>
</g>
<!-- _GH__KCHASON__CASE_VALIDATION_ACTION&#45;&gt;_GH__CASEWORK__CASE_IMPLEMENTATON_PYPI_PILLOW -->
<g id="edge22" class="edge">
<title>_GH__KCHASON__CASE_VALIDATION_ACTION&#45;&gt;_GH__CASEWORK__CASE_IMPLEMENTATON_PYPI_PILLOW</title>
<path fill="none" stroke="black" d="M828.2,-742.72C834.93,-693.47 859.98,-562.57 941,-501 949.53,-494.52 992.97,-487.66 1038.51,-482.04"/>
<polygon fill="black" stroke="black" points="1038.67,-485.43 1048.18,-480.75 1037.83,-478.48 1038.67,-485.43"/>
<text text-anchor="middle" x="980.5" y="-519.8" font-family="Times,serif" font-size="14.00">GitHub</text>
<text text-anchor="middle" x="980.5" y="-504.8" font-family="Times,serif" font-size="14.00">Action</text>
</g>
<!-- _GH__KCHASON__CASE_VALIDATION_ACTION&#45;&gt;_GH__CASEWORK__CASE_IMPLEMENTATON_UFED_XML -->
<g id="edge23" class="edge">
<title>_GH__KCHASON__CASE_VALIDATION_ACTION&#45;&gt;_GH__CASEWORK__CASE_IMPLEMENTATON_UFED_XML</title>
<path fill="none" stroke="black" d="M830.52,-742.65C841.43,-700.63 873.44,-601.14 941,-555 957.16,-543.96 995.75,-537.1 1035.77,-532.85"/>
<polygon fill="black" stroke="black" points="1035.92,-536.25 1045.52,-531.77 1035.22,-529.29 1035.92,-536.25"/>
<text text-anchor="middle" x="980.5" y="-573.8" font-family="Times,serif" font-size="14.00">GitHub</text>
<text text-anchor="middle" x="980.5" y="-558.8" font-family="Times,serif" font-size="14.00">Action</text>
</g>
<!-- _GH__KCHASON__CASE_VALIDATION_ACTION&#45;&gt;_GH__CASEWORK__CASE_IMPLEMENTATON_XRY -->
<g id="edge24" class="edge">
<title>_GH__KCHASON__CASE_VALIDATION_ACTION&#45;&gt;_GH__CASEWORK__CASE_IMPLEMENTATON_XRY</title>
<path fill="none" stroke="black" d="M834,-742.76C849.24,-708.82 885.89,-638.88 941,-607 958.09,-597.11 997.48,-591.13 1037.86,-587.51"/>
<polygon fill="black" stroke="black" points="1038.03,-590.93 1047.7,-586.6 1037.44,-583.95 1038.03,-590.93"/>
<text text-anchor="middle" x="980.5" y="-625.8" font-family="Times,serif" font-size="14.00">GitHub</text>
<text text-anchor="middle" x="980.5" y="-610.8" font-family="Times,serif" font-size="14.00">Action</text>
</g>
<!-- _GH__KCHASON__CASE_VALIDATION_ACTION&#45;&gt;_GH__CASEWORK__CASE_MAPPING_TEMPLATE_PYTHON -->
<g id="edge25" class="edge">
<title>_GH__KCHASON__CASE_VALIDATION_ACTION&#45;&gt;_GH__CASEWORK__CASE_MAPPING_TEMPLATE_PYTHON</title>
<path fill="none" stroke="black" d="M841.56,-742.67C861.74,-719.15 899.33,-680.29 941,-662 972.51,-648.17 1009.02,-641.18 1042.87,-637.9"/>
<polygon fill="black" stroke="black" points="1043.09,-641.31 1052.75,-636.96 1042.49,-634.33 1043.09,-641.31"/>
<text text-anchor="middle" x="980.5" y="-680.8" font-family="Times,serif" font-size="14.00">GitHub</text>
<text text-anchor="middle" x="980.5" y="-665.8" font-family="Times,serif" font-size="14.00">Action</text>
</g>
<!-- _GH__KCHASON__CASE_VALIDATION_ACTION&#45;&gt;_GH__CASEWORK__CASE_BINDINGS_CSHARP_MONITOR -->
<g id="edge19" class="edge">
<title>_GH__KCHASON__CASE_VALIDATION_ACTION&#45;&gt;_GH__CASEWORK__CASE_BINDINGS_CSHARP_MONITOR</title>
<path fill="none" stroke="black" d="M887.34,-742.55C927.1,-730.55 980.2,-715.66 1028,-706 1133.42,-684.69 1177.83,-733.63 1268,-675 1383.62,-599.83 1444.3,-434.6 1465.09,-366.86"/>
<polygon fill="black" stroke="black" points="1468.68,-368.07 1468.19,-357.49 1461.97,-366.07 1468.68,-368.07"/>
<text text-anchor="middle" x="1156" y="-724.8" font-family="Times,serif" font-size="14.00">GitHub</text>
<text text-anchor="middle" x="1156" y="-709.8" font-family="Times,serif" font-size="14.00">Action</text>
</g>
<!-- _GH__KCHASON__CASE_VALIDATION_ACTION&#45;&gt;_GH__CASEWORK__CASE_EXAMPLES_CONVERSION -->
<g id="edge20" class="edge">
<title>_GH__KCHASON__CASE_VALIDATION_ACTION&#45;&gt;_GH__CASEWORK__CASE_EXAMPLES_CONVERSION</title>
<path fill="none" stroke="black" d="M893.22,-747.62C908.83,-744.87 925.44,-742.41 941,-741 975.97,-737.83 985,-738.17 1020,-741 1032.2,-741.99 1044.97,-743.47 1057.57,-745.21"/>
<polygon fill="black" stroke="black" points="1056.71,-748.76 1067.11,-746.72 1057.71,-741.84 1056.71,-748.76"/>
<text text-anchor="middle" x="980.5" y="-759.8" font-family="Times,serif" font-size="14.00">GitHub</text>
<text text-anchor="middle" x="980.5" y="-744.8" font-family="Times,serif" font-size="14.00">Action</text>
</g>
<!-- _GH__DOD_CYBER_CRIME_CENTER__SQLITE_DISSECT -->
<g id="node28" class="node">
<title>_GH__DOD_CYBER_CRIME_CENTER__SQLITE_DISSECT</title>
<g id="a_node28"><a xlink:href="https://github.com/dod-cyber-crime-center/sqlite-dissect" xlink:title="sqlite&#45;dissect\nadopts new case&#45;validation&#45;action">
<path fill="#8ec7d2" stroke="#0d6986" d="M1244.5,-178C1244.5,-178 1067.5,-178 1067.5,-178 1061.5,-178 1055.5,-172 1055.5,-166 1055.5,-166 1055.5,-152 1055.5,-152 1055.5,-146 1061.5,-140 1067.5,-140 1067.5,-140 1244.5,-140 1244.5,-140 1250.5,-140 1256.5,-146 1256.5,-152 1256.5,-152 1256.5,-166 1256.5,-166 1256.5,-172 1250.5,-178 1244.5,-178"/>
<text text-anchor="middle" x="1156" y="-162.8" font-family="Times,serif" font-size="14.00">sqlite&#45;dissect</text>
<text text-anchor="middle" x="1156" y="-147.8" font-family="Times,serif" font-size="14.00">adopts new case&#45;validation&#45;action</text>
</a>
</g>
</g>
<!-- _GH__KCHASON__CASE_VALIDATION_ACTION&#45;&gt;_GH__DOD_CYBER_CRIME_CENTER__SQLITE_DISSECT -->
<g id="edge26" class="edge">
<title>_GH__KCHASON__CASE_VALIDATION_ACTION&#45;&gt;_GH__DOD_CYBER_CRIME_CENTER__SQLITE_DISSECT</title>
<g id="a_edge26"><a xlink:href="https://github.com/dod-cyber-crime-center/sqlite-dissect/pull/31" xlink:title="TODO: PR 31">
<path fill="none" stroke="black" d="M831.18,-742.64C845.76,-689.05 889.48,-534.66 941,-412 973.56,-334.48 971.96,-306.69 1028,-244 1049.95,-219.44 1080.48,-198.72 1106.1,-183.88"/>
<polygon fill="black" stroke="black" points="1107.66,-186.45 1114.65,-178.48 1104.22,-180.35 1107.66,-186.45"/>
</a>
</g>
<g id="a_edge26&#45;label"><a xlink:href="https://github.com/dod-cyber-crime-center/sqlite-dissect/pull/31" xlink:title="TODO: PR 31">
<text text-anchor="middle" x="980.5" y="-415.8" font-family="Times,serif" font-size="14.00">TODO: PR 31</text>
</a>
</g>
</g>
</g>
</svg>
