<?xml version="1.0" encoding="UTF-8" standalone="no"?>
<!DOCTYPE svg PUBLIC "-//W3C//DTD SVG 1.1//EN"
 "http://www.w3.org/Graphics/SVG/1.1/DTD/svg11.dtd">
<!-- Generated by graphviz version 7.1.0 (20230121.1956)
 -->
<!-- Title: cdo_release_flow Pages: 1 -->
<svg width="2142pt" height="881pt"
 viewBox="0.00 0.00 2142.00 881.00" xmlns="http://www.w3.org/2000/svg" xmlns:xlink="http://www.w3.org/1999/xlink">
<g id="graph0" class="graph" transform="scale(1 1) rotate(0) translate(4 877)">
<title>cdo_release_flow</title>
<polygon fill="white" stroke="none" points="-4,4 -4,-877 2138,-877 2138,4 -4,4"/>
<text text-anchor="middle" x="1067" y="-38.8" font-family="Times,serif" font-size="14.00">Release flow of CDO ontologies</text>
<text text-anchor="middle" x="1067" y="-7.8" font-family="Times,serif" font-size="14.00">Nodes link to the respective Git repository.</text>
<g id="clust1" class="cluster">
<title>cluster_uco_0_9_1</title>
<polygon fill="none" stroke="black" points="189,-62 189,-226 357,-226 357,-62 189,-62"/>
<text text-anchor="middle" x="273" y="-210.8" font-family="Times,serif" font-size="14.00">Adoption of UCO 0.9.1</text>
</g>
<g id="clust2" class="cluster">
<title>cluster_case_0_7_1</title>
<polygon fill="none" stroke="black" points="197,-118 197,-195 349,-195 349,-118 197,-118"/>
<text text-anchor="middle" x="273" y="-179.8" font-family="Times,serif" font-size="14.00">Adoption of CASE 0.7.1</text>
</g>
<g id="clust3" class="cluster">
<title>cluster_uco_1_1_0</title>
<polygon fill="none" stroke="black" points="1506,-96 1506,-676 2126,-676 2126,-96 1506,-96"/>
<text text-anchor="middle" x="1816" y="-660.8" font-family="Times,serif" font-size="14.00">Adoption of UCO 1.1.0</text>
</g>
<g id="clust4" class="cluster">
<title>cluster_case_1_1_0</title>
<polygon fill="none" stroke="black" points="1514,-104 1514,-645 2118,-645 2118,-104 1514,-104"/>
<text text-anchor="middle" x="1816" y="-629.8" font-family="Times,serif" font-size="14.00">Adoption of CASE 1.1.0</text>
</g>
<g id="clust5" class="cluster">
<title>cluster_case_utils_0_9_0</title>
<polygon fill="none" stroke="black" points="1522,-112 1522,-614 2110,-614 2110,-112 1522,-112"/>
<text text-anchor="middle" x="1816" y="-598.8" font-family="Times,serif" font-size="14.00">Adoption of case&#45;utils 0.9.0</text>
</g>
<g id="clust6" class="cluster">
<title>cluster_case_prov_0_6_0</title>
<polygon fill="none" stroke="black" points="1565,-460 1565,-537 1735,-537 1735,-460 1565,-460"/>
<text text-anchor="middle" x="1650" y="-521.8" font-family="Times,serif" font-size="14.00">Adoption of case&#45;prov 0.6.0</text>
</g>
<g id="clust7" class="cluster">
<title>cluster_case_validation_action_2_5</title>
<polygon fill="none" stroke="black" points="1530,-120 1530,-452 2102,-452 2102,-120 1530,-120"/>
<text text-anchor="middle" x="1816" y="-436.8" font-family="Times,serif" font-size="14.00">Adoption of case&#45;validation&#45;action 2.5</text>
</g>
<g id="clust8" class="cluster">
<title>cluster_case_bindings_csharp_0_3_0</title>
<polygon fill="none" stroke="black" points="1555.5,-344 1555.5,-421 2094,-421 2094,-344 1555.5,-344"/>
<text text-anchor="middle" x="1824.75" y="-405.8" font-family="Times,serif" font-size="14.00">Adoption of CSharp bindings 0.3.0</text>
</g>
<g id="clust9" class="cluster">
<title>cluster_uco_1_2_0</title>
<polygon fill="none" stroke="black" points="8,-234 8,-713 1463,-713 1463,-234 8,-234"/>
<text text-anchor="middle" x="735.5" y="-697.8" font-family="Times,serif" font-size="14.00">Adoption of UCO 1.2.0</text>
</g>
<g id="clust10" class="cluster">
<title>cluster_case_1_2_0</title>
<polygon fill="none" stroke="black" points="212,-242 212,-682 1455,-682 1455,-242 212,-242"/>
<text text-anchor="middle" x="833.5" y="-666.8" font-family="Times,serif" font-size="14.00">Adoption of CASE 1.2.0</text>
</g>
<g id="clust11" class="cluster">
<title>cluster_case_utils_0_10_0</title>
<polygon fill="none" stroke="black" points="456,-296 456,-651 1447,-651 1447,-296 456,-296"/>
<text text-anchor="middle" x="951.5" y="-635.8" font-family="Times,serif" font-size="14.00">Adoption of case&#45;utils 0.10.0</text>
</g>
<g id="clust12" class="cluster">
<title>cluster_case_prov_0_7_0</title>
<polygon fill="none" stroke="black" points="1269,-460 1269,-537 1439,-537 1439,-460 1269,-460"/>
<text text-anchor="middle" x="1354" y="-521.8" font-family="Times,serif" font-size="14.00">Adoption of case&#45;prov 0.7.0</text>
</g>
<g id="clust13" class="cluster">
<title>cluster_case_validation_action_2_6</title>
<polygon fill="none" stroke="black" points="658,-304 658,-391 1180,-391 1180,-304 658,-304"/>
<text text-anchor="middle" x="919" y="-375.8" font-family="Times,serif" font-size="14.00">Adoption of case&#45;validation&#45;action 2.6</text>
</g>
<!-- _GH__UCOPROJECT__ONTOLOGY_UNIFIEDCYBERONTOLOGY_ORG -->
<g id="node1" class="node">
<title>_GH__UCOPROJECT__ONTOLOGY_UNIFIEDCYBERONTOLOGY_ORG</title>
<g id="a_node1"><a xlink:href="https://github.com/ucoProject/ontology.unifiedcyberontology.org" xlink:title="UCO documentation\nregenerated">
<path fill="#8ec7d2" stroke="#0d6986" d="M326,-108C326,-108 220,-108 220,-108 214,-108 208,-102 208,-96 208,-96 208,-82 208,-82 208,-76 214,-70 220,-70 220,-70 326,-70 326,-70 332,-70 338,-76 338,-82 338,-82 338,-96 338,-96 338,-102 332,-108 326,-108"/>
<text text-anchor="middle" x="273" y="-92.8" font-family="Times,serif" font-size="14.00">UCO documentation</text>
<text text-anchor="middle" x="273" y="-77.8" font-family="Times,serif" font-size="14.00">regenerated</text>
</a>
</g>
</g>
<!-- _GH__CASEWORK__CASE_MAPPING_TEMPLATE_STUBS -->
<g id="node2" class="node">
<title>_GH__CASEWORK__CASE_MAPPING_TEMPLATE_STUBS</title>
<g id="a_node2"><a xlink:href="https://github.com/casework/CASE-Mapping-Template-Stubs" xlink:title="CASE Mapping\nTemplate Stubs">
<path fill="#8ec7d2" stroke="#0d6986" d="M313,-164C313,-164 233,-164 233,-164 227,-164 221,-158 221,-152 221,-152 221,-138 221,-138 221,-132 227,-126 233,-126 233,-126 313,-126 313,-126 319,-126 325,-132 325,-138 325,-138 325,-152 325,-152 325,-158 319,-164 313,-164"/>
<text text-anchor="middle" x="273" y="-148.8" font-family="Times,serif" font-size="14.00">CASE Mapping</text>
<text text-anchor="middle" x="273" y="-133.8" font-family="Times,serif" font-size="14.00">Template Stubs</text>
</a>
</g>
</g>
<!-- _GH__CASEWORK__CASE_IMPLEMENTATON_EXIFTOOL -->
<g id="node3" class="node">
<title>_GH__CASEWORK__CASE_IMPLEMENTATON_EXIFTOOL</title>
<g id="a_node3"><a xlink:href="https://github.com/casework/CASE-Implementation-ExifTool" xlink:title="CASE&#45;Implementation&#45;ExifTool\nadopts new case&#45;utils">
<path fill="#8ec7d2" stroke="#0d6986" d="M1736,-583C1736,-583 1564,-583 1564,-583 1558,-583 1552,-577 1552,-571 1552,-571 1552,-557 1552,-557 1552,-551 1558,-545 1564,-545 1564,-545 1736,-545 1736,-545 1742,-545 1748,-551 1748,-557 1748,-557 1748,-571 1748,-571 1748,-577 1742,-583 1736,-583"/>
<text text-anchor="middle" x="1650" y="-567.8" font-family="Times,serif" font-size="14.00">CASE&#45;Implementation&#45;ExifTool</text>
<text text-anchor="middle" x="1650" y="-552.8" font-family="Times,serif" font-size="14.00">adopts new case&#45;utils</text>
</a>
</g>
</g>
<!-- _GH__CASEWORK__CASE_CORPORA -->
<g id="node4" class="node">
<title>_GH__CASEWORK__CASE_CORPORA</title>
<g id="a_node4"><a xlink:href="https://github.com/casework/CASE-Corpora" xlink:title="CASE&#45;Corpora\nadopts new case&#45;prov">
<path fill="#8ec7d2" stroke="#0d6986" d="M1705,-506C1705,-506 1595,-506 1595,-506 1589,-506 1583,-500 1583,-494 1583,-494 1583,-480 1583,-480 1583,-474 1589,-468 1595,-468 1595,-468 1705,-468 1705,-468 1711,-468 1717,-474 1717,-480 1717,-480 1717,-494 1717,-494 1717,-500 1711,-506 1705,-506"/>
<text text-anchor="middle" x="1650" y="-490.8" font-family="Times,serif" font-size="14.00">CASE&#45;Corpora</text>
<text text-anchor="middle" x="1650" y="-475.8" font-family="Times,serif" font-size="14.00">adopts new case&#45;prov</text>
</a>
</g>
</g>
<!-- _GH__CASEWORK__CASE_IMPLEMENTATON_PYPI_EXIFREAD -->
<g id="node5" class="node">
<title>_GH__CASEWORK__CASE_IMPLEMENTATON_PYPI_EXIFREAD</title>
<g id="a_node5"><a xlink:href="https://github.com/casework/CASE-Implementation-PyPI-Exifread" xlink:title="CASE&#45;Implementation&#45;PyPI&#45;Exifread\nadopts new case&#45;validation&#45;action">
<path fill="#8ec7d2" stroke="#0d6986" d="M1750,-334C1750,-334 1550,-334 1550,-334 1544,-334 1538,-328 1538,-322 1538,-322 1538,-308 1538,-308 1538,-302 1544,-296 1550,-296 1550,-296 1750,-296 1750,-296 1756,-296 1762,-302 1762,-308 1762,-308 1762,-322 1762,-322 1762,-328 1756,-334 1750,-334"/>
<text text-anchor="middle" x="1650" y="-318.8" font-family="Times,serif" font-size="14.00">CASE&#45;Implementation&#45;PyPI&#45;Exifread</text>
<text text-anchor="middle" x="1650" y="-303.8" font-family="Times,serif" font-size="14.00">adopts new case&#45;validation&#45;action</text>
</a>
</g>
</g>
<!-- _GH__CASEWORK__CASE_IMPLEMENTATON_PYPI_PILLOW -->
<g id="node6" class="node">
<title>_GH__CASEWORK__CASE_IMPLEMENTATON_PYPI_PILLOW</title>
<g id="a_node6"><a xlink:href="https://github.com/casework/CASE-Implementation-PyPI-Pillow" xlink:title="CASE&#45;Implementation&#45;PyPI&#45;Pillow\nadopts new case&#45;validation&#45;action">
<path fill="#8ec7d2" stroke="#0d6986" d="M1744.5,-278C1744.5,-278 1555.5,-278 1555.5,-278 1549.5,-278 1543.5,-272 1543.5,-266 1543.5,-266 1543.5,-252 1543.5,-252 1543.5,-246 1549.5,-240 1555.5,-240 1555.5,-240 1744.5,-240 1744.5,-240 1750.5,-240 1756.5,-246 1756.5,-252 1756.5,-252 1756.5,-266 1756.5,-266 1756.5,-272 1750.5,-278 1744.5,-278"/>
<text text-anchor="middle" x="1650" y="-262.8" font-family="Times,serif" font-size="14.00">CASE&#45;Implementation&#45;PyPI&#45;Pillow</text>
<text text-anchor="middle" x="1650" y="-247.8" font-family="Times,serif" font-size="14.00">adopts new case&#45;validation&#45;action</text>
</a>
</g>
</g>
<!-- _GH__CASEWORK__CASE_IMPLEMENTATON_XRY -->
<g id="node7" class="node">
<title>_GH__CASEWORK__CASE_IMPLEMENTATON_XRY</title>
<g id="a_node7"><a xlink:href="https://github.com/casework/CASE-Implementation-XRY" xlink:title="CASE&#45;Implementation&#45;XRY adopts\nnew case&#45;validation&#45;action">
<path fill="#8ec7d2" stroke="#0d6986" d="M1745,-222C1745,-222 1555,-222 1555,-222 1549,-222 1543,-216 1543,-210 1543,-210 1543,-196 1543,-196 1543,-190 1549,-184 1555,-184 1555,-184 1745,-184 1745,-184 1751,-184 1757,-190 1757,-196 1757,-196 1757,-210 1757,-210 1757,-216 1751,-222 1745,-222"/>
<text text-anchor="middle" x="1650" y="-206.8" font-family="Times,serif" font-size="14.00">CASE&#45;Implementation&#45;XRY adopts</text>
<text text-anchor="middle" x="1650" y="-191.8" font-family="Times,serif" font-size="14.00">new case&#45;validation&#45;action</text>
</a>
</g>
</g>
<!-- _GH__CASEWORK__CASE_MAPPING_TEMPLATE_PYTHON -->
<g id="node8" class="node">
<title>_GH__CASEWORK__CASE_MAPPING_TEMPLATE_PYTHON</title>
<g id="a_node8"><a xlink:href="https://github.com/casework/CASE-Mapping-Template-Python" xlink:title="CASE&#45;Mapping&#45;Template&#45;Python\nadopts new case&#45;validation&#45;action">
<path fill="#8ec7d2" stroke="#0d6986" d="M1740,-166C1740,-166 1560,-166 1560,-166 1554,-166 1548,-160 1548,-154 1548,-154 1548,-140 1548,-140 1548,-134 1554,-128 1560,-128 1560,-128 1740,-128 1740,-128 1746,-128 1752,-134 1752,-140 1752,-140 1752,-154 1752,-154 1752,-160 1746,-166 1740,-166"/>
<text text-anchor="middle" x="1650" y="-150.8" font-family="Times,serif" font-size="14.00">CASE&#45;Mapping&#45;Template&#45;Python</text>
<text text-anchor="middle" x="1650" y="-135.8" font-family="Times,serif" font-size="14.00">adopts new case&#45;validation&#45;action</text>
</a>
</g>
</g>
<!-- _GH__CASEWORK__CASE_BINDINGS_CSHARP_MONITOR -->
<g id="node9" class="node">
<title>_GH__CASEWORK__CASE_BINDINGS_CSHARP_MONITOR</title>
<g id="a_node9"><a xlink:href="https://github.com/casework/CASE-Bindings-CSharp-Monitor" xlink:title="CASE Bindings CSharp Monitor\ntests NuGet package with validation action">
<path fill="#8ec7d2" stroke="#0d6986" d="M2074,-390C2074,-390 1847,-390 1847,-390 1841,-390 1835,-384 1835,-378 1835,-378 1835,-364 1835,-364 1835,-358 1841,-352 1847,-352 1847,-352 2074,-352 2074,-352 2080,-352 2086,-358 2086,-364 2086,-364 2086,-378 2086,-378 2086,-384 2080,-390 2074,-390"/>
<text text-anchor="middle" x="1960.5" y="-374.8" font-family="Times,serif" font-size="14.00">CASE Bindings CSharp Monitor</text>
<text text-anchor="middle" x="1960.5" y="-359.8" font-family="Times,serif" font-size="14.00">tests NuGet package with validation action</text>
</a>
</g>
</g>
<!-- _GH__CIPHERTECHSOLUTIONS__CASE_BINDINGS_CSHARP -->
<g id="node10" class="node">
<title>_GH__CIPHERTECHSOLUTIONS__CASE_BINDINGS_CSHARP</title>
<g id="a_node10"><a xlink:href="https://github.com/ciphertechsolutions/CASE-Bindings-CSharp" xlink:title="CASE&#45;Bindings&#45;CSharp\nadopts new ontology version">
<path fill="#8ec7d2" stroke="#0d6986" d="M1724.5,-390C1724.5,-390 1575.5,-390 1575.5,-390 1569.5,-390 1563.5,-384 1563.5,-378 1563.5,-378 1563.5,-364 1563.5,-364 1563.5,-358 1569.5,-352 1575.5,-352 1575.5,-352 1724.5,-352 1724.5,-352 1730.5,-352 1736.5,-358 1736.5,-364 1736.5,-364 1736.5,-378 1736.5,-378 1736.5,-384 1730.5,-390 1724.5,-390"/>
<text text-anchor="middle" x="1650" y="-374.8" font-family="Times,serif" font-size="14.00">CASE&#45;Bindings&#45;CSharp</text>
<text text-anchor="middle" x="1650" y="-359.8" font-family="Times,serif" font-size="14.00">adopts new ontology version</text>
</a>
</g>
</g>
<!-- _GH__CIPHERTECHSOLUTIONS__CASE_BINDINGS_CSHARP&#45;&gt;_GH__CASEWORK__CASE_BINDINGS_CSHARP_MONITOR -->
<g id="edge15" class="edge">
<title>_GH__CIPHERTECHSOLUTIONS__CASE_BINDINGS_CSHARP&#45;&gt;_GH__CASEWORK__CASE_BINDINGS_CSHARP_MONITOR</title>
<path fill="none" stroke="black" d="M1736.93,-371C1763.73,-371 1793.97,-371 1823.33,-371"/>
<polygon fill="black" stroke="black" points="1823.02,-374.5 1833.02,-371 1823.02,-367.5 1823.02,-374.5"/>
<text text-anchor="middle" x="1798.5" y="-374.8" font-family="Times,serif" font-size="14.00">NuGet</text>
</g>
<!-- _GH__UCOPROJECT__UCO -->
<g id="node11" class="node">
<title>_GH__UCOPROJECT__UCO</title>
<g id="a_node11"><a xlink:href="https://github.com/ucoProject/UCO" xlink:title="UCO Ontology\nreleases">
<path fill="#8ec7d2" stroke="#0d6986" d="M104,-385C104,-385 28,-385 28,-385 22,-385 16,-379 16,-373 16,-373 16,-359 16,-359 16,-353 22,-347 28,-347 28,-347 104,-347 104,-347 110,-347 116,-353 116,-359 116,-359 116,-373 116,-373 116,-379 110,-385 104,-385"/>
<text text-anchor="middle" x="66" y="-369.8" font-family="Times,serif" font-size="14.00">UCO Ontology</text>
<text text-anchor="middle" x="66" y="-354.8" font-family="Times,serif" font-size="14.00">releases</text>
</a>
</g>
</g>
<!-- _GH__UCOPROJECT__UCO&#45;&gt;_GH__UCOPROJECT__ONTOLOGY_UNIFIEDCYBERONTOLOGY_ORG -->
<g id="edge24" class="edge">
<title>_GH__UCOPROJECT__UCO&#45;&gt;_GH__UCOPROJECT__ONTOLOGY_UNIFIEDCYBERONTOLOGY_ORG</title>
<path fill="none" stroke="black" d="M70.79,-346.65C81.04,-299.57 113.74,-178.19 189,-114 191.66,-111.73 194.53,-109.66 197.53,-107.79"/>
<polygon fill="black" stroke="black" points="199.06,-110.94 206.21,-103.12 195.74,-104.77 199.06,-110.94"/>
<text text-anchor="middle" x="156.5" y="-196.8" font-family="Times,serif" font-size="14.00">Git sub&#45;</text>
<text text-anchor="middle" x="156.5" y="-181.8" font-family="Times,serif" font-size="14.00">module</text>
</g>
<!-- _GH__CASEWORK__CASE -->
<g id="node12" class="node">
<title>_GH__CASEWORK__CASE</title>
<g id="a_node12"><a xlink:href="https://github.com/casework/CASE" xlink:title="CASE Ontology\nreleases">
<path fill="#8ec7d2" stroke="#0d6986" d="M314,-431C314,-431 232,-431 232,-431 226,-431 220,-425 220,-419 220,-419 220,-405 220,-405 220,-399 226,-393 232,-393 232,-393 314,-393 314,-393 320,-393 326,-399 326,-405 326,-405 326,-419 326,-419 326,-425 320,-431 314,-431"/>
<text text-anchor="middle" x="273" y="-415.8" font-family="Times,serif" font-size="14.00">CASE Ontology</text>
<text text-anchor="middle" x="273" y="-400.8" font-family="Times,serif" font-size="14.00">releases</text>
</a>
</g>
</g>
<!-- _GH__UCOPROJECT__UCO&#45;&gt;_GH__CASEWORK__CASE -->
<g id="edge23" class="edge">
<title>_GH__UCOPROJECT__UCO&#45;&gt;_GH__CASEWORK__CASE</title>
<path fill="none" stroke="black" d="M116.36,-377.08C144.1,-383.3 179.01,-391.13 208.73,-397.8"/>
<polygon fill="black" stroke="black" points="207.84,-401.19 218.37,-399.97 209.38,-394.36 207.84,-401.19"/>
<text text-anchor="middle" x="156.5" y="-409.8" font-family="Times,serif" font-size="14.00">Git sub&#45;</text>
<text text-anchor="middle" x="156.5" y="-394.8" font-family="Times,serif" font-size="14.00">module</text>
</g>
<!-- _GH__CASEWORK__CASE&#45;&gt;_GH__CIPHERTECHSOLUTIONS__CASE_BINDINGS_CSHARP -->
<g id="edge3" class="edge">
<title>_GH__CASEWORK__CASE&#45;&gt;_GH__CIPHERTECHSOLUTIONS__CASE_BINDINGS_CSHARP</title>
<path fill="none" stroke="black" d="M276.01,-431.37C285.14,-508.16 329.79,-787 497,-787 497,-787 497,-787 1354.5,-787 1494.73,-787 1454.5,-639.31 1498,-506 1504.98,-484.61 1493.36,-474.62 1506,-456 1524.57,-428.66 1555.12,-408.77 1583.22,-395.14"/>
<polygon fill="black" stroke="black" points="1584.46,-398.43 1592.06,-391.04 1581.52,-392.08 1584.46,-398.43"/>
</g>
<!-- _GH__CASEWORK__ONTOLOGY_CASEONTOLOGY_ORG -->
<g id="node13" class="node">
<title>_GH__CASEWORK__ONTOLOGY_CASEONTOLOGY_ORG</title>
<g id="a_node13"><a xlink:href="https://github.com/casework/ontology.caseontology.org" xlink:title="CASE documentation\nregenerated">
<path fill="#8ec7d2" stroke="#0d6986" d="M554,-288C554,-288 442,-288 442,-288 436,-288 430,-282 430,-276 430,-276 430,-262 430,-262 430,-256 436,-250 442,-250 442,-250 554,-250 554,-250 560,-250 566,-256 566,-262 566,-262 566,-276 566,-276 566,-282 560,-288 554,-288"/>
<text text-anchor="middle" x="498" y="-272.8" font-family="Times,serif" font-size="14.00">CASE documentation</text>
<text text-anchor="middle" x="498" y="-257.8" font-family="Times,serif" font-size="14.00">regenerated</text>
</a>
</g>
</g>
<!-- _GH__CASEWORK__CASE&#45;&gt;_GH__CASEWORK__ONTOLOGY_CASEONTOLOGY_ORG -->
<g id="edge4" class="edge">
<title>_GH__CASEWORK__CASE&#45;&gt;_GH__CASEWORK__ONTOLOGY_CASEONTOLOGY_ORG</title>
<path fill="none" stroke="black" d="M294.66,-392.51C321.6,-367.94 371.21,-325.45 427.24,-293.84"/>
<polygon fill="black" stroke="black" points="428.62,-297.08 435.7,-289.2 425.25,-290.94 428.62,-297.08"/>
<text text-anchor="middle" x="389.5" y="-348.8" font-family="Times,serif" font-size="14.00">Git sub&#45;</text>
<text text-anchor="middle" x="389.5" y="-333.8" font-family="Times,serif" font-size="14.00">module</text>
</g>
<!-- _GH__CASEWORK__CASE_UTILITIES_PYTHON -->
<g id="node17" class="node">
<title>_GH__CASEWORK__CASE_UTILITIES_PYTHON</title>
<g id="a_node17"><a xlink:href="https://github.com/casework/CASE-Utilities-Python" xlink:title="case&#45;utils\nreleases">
<path fill="#8ec7d2" stroke="#0d6986" d="M520,-524C520,-524 476,-524 476,-524 470,-524 464,-518 464,-512 464,-512 464,-498 464,-498 464,-492 470,-486 476,-486 476,-486 520,-486 520,-486 526,-486 532,-492 532,-498 532,-498 532,-512 532,-512 532,-518 526,-524 520,-524"/>
<text text-anchor="middle" x="498" y="-508.8" font-family="Times,serif" font-size="14.00">case&#45;utils</text>
<text text-anchor="middle" x="498" y="-493.8" font-family="Times,serif" font-size="14.00">releases</text>
</a>
</g>
</g>
<!-- _GH__CASEWORK__CASE&#45;&gt;_GH__CASEWORK__CASE_UTILITIES_PYTHON -->
<g id="edge2" class="edge">
<title>_GH__CASEWORK__CASE&#45;&gt;_GH__CASEWORK__CASE_UTILITIES_PYTHON</title>
<path fill="none" stroke="black" d="M314.62,-431.45C345.85,-446.11 390.24,-466.29 430,-482 437.39,-484.92 445.31,-487.83 453.03,-490.55"/>
<polygon fill="black" stroke="black" points="451.7,-493.79 462.29,-493.75 453.99,-487.17 451.7,-493.79"/>
<text text-anchor="middle" x="389.5" y="-492.8" font-family="Times,serif" font-size="14.00">Git sub&#45;</text>
<text text-anchor="middle" x="389.5" y="-477.8" font-family="Times,serif" font-size="14.00">module</text>
</g>
<!-- _GH__AJNELSON_NIST__CASE_EXAMPLES_QC -->
<g id="node14" class="node">
<title>_GH__AJNELSON_NIST__CASE_EXAMPLES_QC</title>
<g id="a_node14"><a xlink:href="https://github.com/ajnelson-nist/CASE-Examples-QC" xlink:title="CASE&#45;Examples&#45;QC\nadopts CASE&#45;Examples and\nCASE website updates">
<path fill="#8ec7d2" stroke="#0d6986" d="M1137,-503.5C1137,-503.5 989,-503.5 989,-503.5 983,-503.5 977,-497.5 977,-491.5 977,-491.5 977,-462.5 977,-462.5 977,-456.5 983,-450.5 989,-450.5 989,-450.5 1137,-450.5 1137,-450.5 1143,-450.5 1149,-456.5 1149,-462.5 1149,-462.5 1149,-491.5 1149,-491.5 1149,-497.5 1143,-503.5 1137,-503.5"/>
<text text-anchor="middle" x="1063" y="-488.3" font-family="Times,serif" font-size="14.00">CASE&#45;Examples&#45;QC</text>
<text text-anchor="middle" x="1063" y="-473.3" font-family="Times,serif" font-size="14.00">adopts CASE&#45;Examples and</text>
<text text-anchor="middle" x="1063" y="-458.3" font-family="Times,serif" font-size="14.00">CASE website updates</text>
</a>
</g>
</g>
<!-- _GH__CASEWORK__CASE_IMPLEMENTATON_PROV_O -->
<g id="node19" class="node">
<title>_GH__CASEWORK__CASE_IMPLEMENTATON_PROV_O</title>
<g id="a_node19"><a xlink:href="https://github.com/casework/CASE-Implementation-PROV-O" xlink:title="case&#45;prov\nreleases">
<path fill="#8ec7d2" stroke="#0d6986" d="M1376,-506C1376,-506 1331,-506 1331,-506 1325,-506 1319,-500 1319,-494 1319,-494 1319,-480 1319,-480 1319,-474 1325,-468 1331,-468 1331,-468 1376,-468 1376,-468 1382,-468 1388,-474 1388,-480 1388,-480 1388,-494 1388,-494 1388,-500 1382,-506 1376,-506"/>
<text text-anchor="middle" x="1353.5" y="-490.8" font-family="Times,serif" font-size="14.00">case&#45;prov</text>
<text text-anchor="middle" x="1353.5" y="-475.8" font-family="Times,serif" font-size="14.00">releases</text>
</a>
</g>
</g>
<!-- _GH__AJNELSON_NIST__CASE_EXAMPLES_QC&#45;&gt;_GH__CASEWORK__CASE_IMPLEMENTATON_PROV_O -->
<g id="edge1" class="edge">
<title>_GH__AJNELSON_NIST__CASE_EXAMPLES_QC&#45;&gt;_GH__CASEWORK__CASE_IMPLEMENTATON_PROV_O</title>
<path fill="none" stroke="black" d="M1149.39,-479.96C1201.18,-481.75 1265.19,-483.97 1307.34,-485.43"/>
<polygon fill="black" stroke="black" points="1307,-488.92 1317.11,-485.77 1307.24,-481.93 1307,-488.92"/>
<text text-anchor="middle" x="1212.5" y="-501.8" font-family="Times,serif" font-size="14.00">Git sub&#45;</text>
<text text-anchor="middle" x="1212.5" y="-486.8" font-family="Times,serif" font-size="14.00">module</text>
</g>
<!-- _GH__CASEWORK__CASE_EXAMPLES -->
<g id="node15" class="node">
<title>_GH__CASEWORK__CASE_EXAMPLES</title>
<g id="a_node15"><a xlink:href="https://github.com/casework/CASE-Examples" xlink:title="CASE&#45;Examples\nadopts new case&#45;utils">
<path fill="#8ec7d2" stroke="#0d6986" d="M788.5,-544C788.5,-544 679.5,-544 679.5,-544 673.5,-544 667.5,-538 667.5,-532 667.5,-532 667.5,-518 667.5,-518 667.5,-512 673.5,-506 679.5,-506 679.5,-506 788.5,-506 788.5,-506 794.5,-506 800.5,-512 800.5,-518 800.5,-518 800.5,-532 800.5,-532 800.5,-538 794.5,-544 788.5,-544"/>
<text text-anchor="middle" x="734" y="-528.8" font-family="Times,serif" font-size="14.00">CASE&#45;Examples</text>
<text text-anchor="middle" x="734" y="-513.8" font-family="Times,serif" font-size="14.00">adopts new case&#45;utils</text>
</a>
</g>
</g>
<!-- _GH__CASEWORK__CASE_EXAMPLES&#45;&gt;_GH__AJNELSON_NIST__CASE_EXAMPLES_QC -->
<g id="edge5" class="edge">
<title>_GH__CASEWORK__CASE_EXAMPLES&#45;&gt;_GH__AJNELSON_NIST__CASE_EXAMPLES_QC</title>
<path fill="none" stroke="black" d="M800.78,-515.34C848.05,-508.41 912.54,-498.94 965.61,-491.15"/>
<polygon fill="black" stroke="black" points="965.87,-494.65 975.26,-489.73 964.85,-487.72 965.87,-494.65"/>
<text text-anchor="middle" x="896.5" y="-525.8" font-family="Times,serif" font-size="14.00">Git sub&#45;</text>
<text text-anchor="middle" x="896.5" y="-510.8" font-family="Times,serif" font-size="14.00">module</text>
</g>
<!-- _GH__CASEWORK__CASE_IMPLEMENTATON_GNU_TIME -->
<g id="node16" class="node">
<title>_GH__CASEWORK__CASE_IMPLEMENTATON_GNU_TIME</title>
<g id="a_node16"><a xlink:href="https://github.com/casework/CASE-Implementation-GNU-Time" xlink:title="CASE&#45;Implementation&#45;GNU&#45;Time\nadopts new case&#45;utils">
<path fill="#8ec7d2" stroke="#0d6986" d="M827,-620C827,-620 641,-620 641,-620 635,-620 629,-614 629,-608 629,-608 629,-594 629,-594 629,-588 635,-582 641,-582 641,-582 827,-582 827,-582 833,-582 839,-588 839,-594 839,-594 839,-608 839,-608 839,-614 833,-620 827,-620"/>
<text text-anchor="middle" x="734" y="-604.8" font-family="Times,serif" font-size="14.00">CASE&#45;Implementation&#45;GNU&#45;Time</text>
<text text-anchor="middle" x="734" y="-589.8" font-family="Times,serif" font-size="14.00">adopts new case&#45;utils</text>
</a>
</g>
</g>
<!-- _GH__CASEWORK__CASE_UTILITIES_PYTHON&#45;&gt;_GH__CASEWORK__CASE_IMPLEMENTATON_EXIFTOOL -->
<g id="edge9" class="edge">
<title>_GH__CASEWORK__CASE_UTILITIES_PYTHON&#45;&gt;_GH__CASEWORK__CASE_IMPLEMENTATON_EXIFTOOL</title>
<path fill="none" stroke="black" d="M515.29,-524.46C531.73,-543.6 558.3,-573.18 584,-596 699.09,-698.19 903.84,-788.55 954,-801 1188.65,-859.26 1286.02,-917.29 1498,-801 1579.29,-756.4 1623.11,-647.4 1640.29,-594.2"/>
<polygon fill="black" stroke="black" points="1643.56,-595.47 1643.19,-584.88 1636.87,-593.39 1643.56,-595.47"/>
<text text-anchor="middle" x="1063" y="-861.8" font-family="Times,serif" font-size="14.00">PyPI</text>
</g>
<!-- _GH__CASEWORK__CASE_UTILITIES_PYTHON&#45;&gt;_GH__AJNELSON_NIST__CASE_EXAMPLES_QC -->
<g id="edge7" class="edge">
<title>_GH__CASEWORK__CASE_UTILITIES_PYTHON&#45;&gt;_GH__AJNELSON_NIST__CASE_EXAMPLES_QC</title>
<path fill="none" stroke="black" d="M532.46,-497.52C558.6,-492.06 595.91,-485.1 629,-482 744.27,-471.21 877.55,-471.59 965.46,-473.61"/>
<polygon fill="black" stroke="black" points="965.15,-477.1 975.24,-473.85 965.32,-470.11 965.15,-477.1"/>
<text text-anchor="middle" x="734" y="-485.8" font-family="Times,serif" font-size="14.00">PyPI</text>
</g>
<!-- _GH__CASEWORK__CASE_UTILITIES_PYTHON&#45;&gt;_GH__CASEWORK__CASE_EXAMPLES -->
<g id="edge8" class="edge">
<title>_GH__CASEWORK__CASE_UTILITIES_PYTHON&#45;&gt;_GH__CASEWORK__CASE_EXAMPLES</title>
<path fill="none" stroke="black" d="M532.03,-507.82C564.11,-510.57 614,-514.83 656.04,-518.42"/>
<polygon fill="black" stroke="black" points="655.61,-521.9 665.87,-519.26 656.21,-514.92 655.61,-521.9"/>
<text text-anchor="middle" x="597.5" y="-518.8" font-family="Times,serif" font-size="14.00">PyPI</text>
</g>
<!-- _GH__CASEWORK__CASE_UTILITIES_PYTHON&#45;&gt;_GH__CASEWORK__CASE_IMPLEMENTATON_GNU_TIME -->
<g id="edge10" class="edge">
<title>_GH__CASEWORK__CASE_UTILITIES_PYTHON&#45;&gt;_GH__CASEWORK__CASE_IMPLEMENTATON_GNU_TIME</title>
<path fill="none" stroke="black" d="M519.75,-524.32C536.05,-538.46 559.93,-557.02 584,-568 594.7,-572.88 606.18,-577.06 617.83,-580.64"/>
<polygon fill="black" stroke="black" points="616.54,-583.91 627.12,-583.34 618.49,-577.19 616.54,-583.91"/>
<text text-anchor="middle" x="597.5" y="-580.8" font-family="Times,serif" font-size="14.00">PyPI</text>
</g>
<!-- _GH__CASEWORK__CASEWORK_GITHUB_IO -->
<g id="node18" class="node">
<title>_GH__CASEWORK__CASEWORK_GITHUB_IO</title>
<g id="a_node18"><a xlink:href="https://github.com/casework/casework.github.io" xlink:title="CASE website\nadopts new case&#45;utils">
<path fill="#8ec7d2" stroke="#0d6986" d="M788.5,-437C788.5,-437 679.5,-437 679.5,-437 673.5,-437 667.5,-431 667.5,-425 667.5,-425 667.5,-411 667.5,-411 667.5,-405 673.5,-399 679.5,-399 679.5,-399 788.5,-399 788.5,-399 794.5,-399 800.5,-405 800.5,-411 800.5,-411 800.5,-425 800.5,-425 800.5,-431 794.5,-437 788.5,-437"/>
<text text-anchor="middle" x="734" y="-421.8" font-family="Times,serif" font-size="14.00">CASE website</text>
<text text-anchor="middle" x="734" y="-406.8" font-family="Times,serif" font-size="14.00">adopts new case&#45;utils</text>
</a>
</g>
</g>
<!-- _GH__CASEWORK__CASE_UTILITIES_PYTHON&#45;&gt;_GH__CASEWORK__CASEWORK_GITHUB_IO -->
<g id="edge13" class="edge">
<title>_GH__CASEWORK__CASE_UTILITIES_PYTHON&#45;&gt;_GH__CASEWORK__CASEWORK_GITHUB_IO</title>
<path fill="none" stroke="black" d="M532.26,-498.43C543.81,-494.96 556.29,-489.74 566,-482 577.86,-472.54 571.68,-461.85 584,-453 604.87,-438.01 631.23,-429.35 655.95,-424.38"/>
<polygon fill="black" stroke="black" points="656.47,-427.84 665.68,-422.61 655.22,-420.95 656.47,-427.84"/>
<text text-anchor="middle" x="597.5" y="-456.8" font-family="Times,serif" font-size="14.00">PyPI</text>
</g>
<!-- _GH__CASEWORK__CASE_UTILITIES_PYTHON&#45;&gt;_GH__CASEWORK__CASE_IMPLEMENTATON_PROV_O -->
<g id="edge11" class="edge">
<title>_GH__CASEWORK__CASE_UTILITIES_PYTHON&#45;&gt;_GH__CASEWORK__CASE_IMPLEMENTATON_PROV_O</title>
<path fill="none" stroke="black" d="M532.29,-521.02C558.03,-532.48 594.9,-546.9 629,-553 761.8,-576.73 1102.05,-539.87 1235,-517 1259.3,-512.82 1285.95,-506.19 1307.72,-500.22"/>
<polygon fill="black" stroke="black" points="1308.47,-503.65 1317.16,-497.59 1306.59,-496.9 1308.47,-503.65"/>
<text text-anchor="middle" x="896.5" y="-561.8" font-family="Times,serif" font-size="14.00">PyPI</text>
</g>
<!-- _GH__KCHASON__CASE_VALIDATION_ACTION -->
<g id="node21" class="node">
<title>_GH__KCHASON__CASE_VALIDATION_ACTION</title>
<g id="a_node21"><a xlink:href="https://github.com/kchason/case-validation-action" xlink:title="case&#45;validation&#45;action\nreleases">
<path fill="#8ec7d2" stroke="#0d6986" d="M790,-350C790,-350 678,-350 678,-350 672,-350 666,-344 666,-338 666,-338 666,-324 666,-324 666,-318 672,-312 678,-312 678,-312 790,-312 790,-312 796,-312 802,-318 802,-324 802,-324 802,-338 802,-338 802,-344 796,-350 790,-350"/>
<text text-anchor="middle" x="734" y="-334.8" font-family="Times,serif" font-size="14.00">case&#45;validation&#45;action</text>
<text text-anchor="middle" x="734" y="-319.8" font-family="Times,serif" font-size="14.00">releases</text>
</a>
</g>
</g>
<!-- _GH__CASEWORK__CASE_UTILITIES_PYTHON&#45;&gt;_GH__KCHASON__CASE_VALIDATION_ACTION -->
<g id="edge12" class="edge">
<title>_GH__CASEWORK__CASE_UTILITIES_PYTHON&#45;&gt;_GH__KCHASON__CASE_VALIDATION_ACTION</title>
<path fill="none" stroke="black" d="M532.48,-500.1C544.46,-496.79 557.18,-491.26 566,-482 585.8,-461.23 571.77,-445.95 584,-420 599.14,-387.89 599.6,-373.9 629,-354 636.81,-348.71 645.65,-344.62 654.78,-341.45"/>
<polygon fill="black" stroke="black" points="655.61,-344.86 664.15,-338.59 653.56,-338.16 655.61,-344.86"/>
<text text-anchor="middle" x="597.5" y="-423.8" font-family="Times,serif" font-size="14.00">PyPI</text>
</g>
<!-- _GH__CASEWORK__CASEWORK_GITHUB_IO&#45;&gt;_GH__AJNELSON_NIST__CASE_EXAMPLES_QC -->
<g id="edge14" class="edge">
<title>_GH__CASEWORK__CASEWORK_GITHUB_IO&#45;&gt;_GH__AJNELSON_NIST__CASE_EXAMPLES_QC</title>
<path fill="none" stroke="black" d="M800.67,-421.19C840.18,-423.94 891.32,-428.96 936,-438 948.06,-440.44 960.62,-443.58 972.92,-447.01"/>
<polygon fill="black" stroke="black" points="971.62,-450.28 982.2,-449.67 973.55,-443.55 971.62,-450.28"/>
<text text-anchor="middle" x="896.5" y="-456.8" font-family="Times,serif" font-size="14.00">Git sub&#45;</text>
<text text-anchor="middle" x="896.5" y="-441.8" font-family="Times,serif" font-size="14.00">module</text>
</g>
<!-- _GH__CASEWORK__CASE_IMPLEMENTATON_PROV_O&#45;&gt;_GH__CASEWORK__CASE_CORPORA -->
<g id="edge6" class="edge">
<title>_GH__CASEWORK__CASE_IMPLEMENTATON_PROV_O&#45;&gt;_GH__CASEWORK__CASE_CORPORA</title>
<path fill="none" stroke="black" d="M1388.28,-487C1432.64,-487 1511.85,-487 1571.36,-487"/>
<polygon fill="black" stroke="black" points="1571.09,-490.5 1581.09,-487 1571.09,-483.5 1571.09,-490.5"/>
<text text-anchor="middle" x="1484.5" y="-490.8" font-family="Times,serif" font-size="14.00">PyPI</text>
</g>
<!-- _GH__CASEWORK__CASE_IMPLEMENTATON_UFED_XML -->
<g id="node20" class="node">
<title>_GH__CASEWORK__CASE_IMPLEMENTATON_UFED_XML</title>
<g id="a_node20"><a xlink:href="https://github.com/casework/CASE-Implementation-UFED-XML" xlink:title="CASE&#45;Implementation&#45;UFED&#45;XML\nadopts new case&#45;validation&#45;action">
<path fill="#8ec7d2" stroke="#0d6986" d="M1160,-360C1160,-360 966,-360 966,-360 960,-360 954,-354 954,-348 954,-348 954,-334 954,-334 954,-328 960,-322 966,-322 966,-322 1160,-322 1160,-322 1166,-322 1172,-328 1172,-334 1172,-334 1172,-348 1172,-348 1172,-354 1166,-360 1160,-360"/>
<text text-anchor="middle" x="1063" y="-344.8" font-family="Times,serif" font-size="14.00">CASE&#45;Implementation&#45;UFED&#45;XML</text>
<text text-anchor="middle" x="1063" y="-329.8" font-family="Times,serif" font-size="14.00">adopts new case&#45;validation&#45;action</text>
</a>
</g>
</g>
<!-- _GH__KCHASON__CASE_VALIDATION_ACTION&#45;&gt;_GH__CASEWORK__CASE_IMPLEMENTATON_PYPI_EXIFREAD -->
<g id="edge17" class="edge">
<title>_GH__KCHASON__CASE_VALIDATION_ACTION&#45;&gt;_GH__CASEWORK__CASE_IMPLEMENTATON_PYPI_EXIFREAD</title>
<path fill="none" stroke="black" d="M802.2,-316.72C819.95,-313.39 839.14,-310.18 857,-308 1023.97,-287.58 1066.87,-283.73 1235,-289 1332.97,-292.07 1443.78,-299.23 1526.09,-305.25"/>
<polygon fill="black" stroke="black" points="1525.77,-308.74 1536,-305.99 1526.29,-301.76 1525.77,-308.74"/>
<text text-anchor="middle" x="1212.5" y="-307.8" font-family="Times,serif" font-size="14.00">GitHub</text>
<text text-anchor="middle" x="1212.5" y="-292.8" font-family="Times,serif" font-size="14.00">Action</text>
</g>
<!-- _GH__KCHASON__CASE_VALIDATION_ACTION&#45;&gt;_GH__CASEWORK__CASE_IMPLEMENTATON_PYPI_PILLOW -->
<g id="edge18" class="edge">
<title>_GH__KCHASON__CASE_VALIDATION_ACTION&#45;&gt;_GH__CASEWORK__CASE_IMPLEMENTATON_PYPI_PILLOW</title>
<path fill="none" stroke="black" d="M793.77,-311.54C813.67,-305.52 836.14,-299.34 857,-295 899.53,-286.16 910.89,-288.32 954,-283 1058.88,-270.07 1084.52,-260.46 1190,-254 1306.06,-246.9 1438.94,-249.51 1531.75,-253.08"/>
<polygon fill="black" stroke="black" points="1531.51,-256.57 1541.64,-253.47 1531.79,-249.58 1531.51,-256.57"/>
<text text-anchor="middle" x="1212.5" y="-272.8" font-family="Times,serif" font-size="14.00">GitHub</text>
<text text-anchor="middle" x="1212.5" y="-257.8" font-family="Times,serif" font-size="14.00">Action</text>
</g>
<!-- _GH__KCHASON__CASE_VALIDATION_ACTION&#45;&gt;_GH__CASEWORK__CASE_IMPLEMENTATON_XRY -->
<g id="edge20" class="edge">
<title>_GH__KCHASON__CASE_VALIDATION_ACTION&#45;&gt;_GH__CASEWORK__CASE_IMPLEMENTATON_XRY</title>
<path fill="none" stroke="black" d="M778.06,-311.58C821.53,-292.87 891.05,-265.35 954,-251 1153.2,-205.59 1392.13,-199.21 1531.62,-200.12"/>
<polygon fill="black" stroke="black" points="1531.19,-203.62 1541.22,-200.2 1531.24,-196.62 1531.19,-203.62"/>
<text text-anchor="middle" x="1212.5" y="-233.8" font-family="Times,serif" font-size="14.00">GitHub</text>
<text text-anchor="middle" x="1212.5" y="-218.8" font-family="Times,serif" font-size="14.00">Action</text>
</g>
<!-- _GH__KCHASON__CASE_VALIDATION_ACTION&#45;&gt;_GH__CASEWORK__CASE_MAPPING_TEMPLATE_PYTHON -->
<g id="edge21" class="edge">
<title>_GH__KCHASON__CASE_VALIDATION_ACTION&#45;&gt;_GH__CASEWORK__CASE_MAPPING_TEMPLATE_PYTHON</title>
<path fill="none" stroke="black" d="M761.75,-311.63C785.91,-294.64 822.81,-269.93 857,-252 898.3,-230.35 909.05,-224.4 954,-212 1153.84,-156.87 1396.94,-146.39 1536.25,-145.51"/>
<polygon fill="black" stroke="black" points="1536.25,-149.01 1546.24,-145.47 1536.22,-142.01 1536.25,-149.01"/>
<text text-anchor="middle" x="1212.5" y="-185.8" font-family="Times,serif" font-size="14.00">GitHub</text>
<text text-anchor="middle" x="1212.5" y="-170.8" font-family="Times,serif" font-size="14.00">Action</text>
</g>
<!-- _GH__KCHASON__CASE_VALIDATION_ACTION&#45;&gt;_GH__CASEWORK__CASE_BINDINGS_CSHARP_MONITOR -->
<g id="edge16" class="edge">
<title>_GH__KCHASON__CASE_VALIDATION_ACTION&#45;&gt;_GH__CASEWORK__CASE_BINDINGS_CSHARP_MONITOR</title>
<path fill="none" stroke="black" d="M747.73,-311.85C787.1,-255.13 913.28,-92 1062,-92 1062,-92 1062,-92 1651,-92 1701.47,-92 1719.3,-89.09 1762,-116 1852.63,-173.12 1918.11,-287.29 1945.4,-341.33"/>
<polygon fill="black" stroke="black" points="1942.25,-342.84 1949.83,-350.25 1948.52,-339.74 1942.25,-342.84"/>
<text text-anchor="middle" x="1353.5" y="-110.8" font-family="Times,serif" font-size="14.00">GitHub</text>
<text text-anchor="middle" x="1353.5" y="-95.8" font-family="Times,serif" font-size="14.00">Action</text>
</g>
<!-- _GH__KCHASON__CASE_VALIDATION_ACTION&#45;&gt;_GH__CASEWORK__CASE_IMPLEMENTATON_UFED_XML -->
<g id="edge19" class="edge">
<title>_GH__KCHASON__CASE_VALIDATION_ACTION&#45;&gt;_GH__CASEWORK__CASE_IMPLEMENTATON_UFED_XML</title>
<path fill="none" stroke="black" d="M802.49,-317.27C820.15,-314.26 839.23,-311.52 857,-310 874.49,-308.51 918.57,-307.89 936,-310 951.99,-311.94 968.88,-315.21 984.91,-318.92"/>
<polygon fill="black" stroke="black" points="983.84,-322.27 994.38,-321.2 985.48,-315.46 983.84,-322.27"/>
<text text-anchor="middle" x="896.5" y="-328.8" font-family="Times,serif" font-size="14.00">GitHub</text>
<text text-anchor="middle" x="896.5" y="-313.8" font-family="Times,serif" font-size="14.00">Action</text>
</g>
<!-- _GH__DOD_CYBER_CRIME_CENTER__SQLITE_DISSECT -->
<g id="node22" class="node">
<title>_GH__DOD_CYBER_CRIME_CENTER__SQLITE_DISSECT</title>
<g id="a_node22"><a xlink:href="https://github.com/dod-cyber-crime-center/sqlite-dissect" xlink:title="sqlite&#45;dissect\nadopts new case&#45;validation&#45;action">
<path fill="#8ec7d2" stroke="#0d6986" d="M1151.5,-759C1151.5,-759 974.5,-759 974.5,-759 968.5,-759 962.5,-753 962.5,-747 962.5,-747 962.5,-733 962.5,-733 962.5,-727 968.5,-721 974.5,-721 974.5,-721 1151.5,-721 1151.5,-721 1157.5,-721 1163.5,-727 1163.5,-733 1163.5,-733 1163.5,-747 1163.5,-747 1163.5,-753 1157.5,-759 1151.5,-759"/>
<text text-anchor="middle" x="1063" y="-743.8" font-family="Times,serif" font-size="14.00">sqlite&#45;dissect</text>
<text text-anchor="middle" x="1063" y="-728.8" font-family="Times,serif" font-size="14.00">adopts new case&#45;validation&#45;action</text>
</a>
</g>
</g>
<!-- _GH__KCHASON__CASE_VALIDATION_ACTION&#45;&gt;_GH__DOD_CYBER_CRIME_CENTER__SQLITE_DISSECT -->
<g id="edge22" class="edge">
<title>_GH__KCHASON__CASE_VALIDATION_ACTION&#45;&gt;_GH__DOD_CYBER_CRIME_CENTER__SQLITE_DISSECT</title>
<g id="a_edge22"><a xlink:href="https://github.com/dod-cyber-crime-center/sqlite-dissect/pull/31" xlink:title="TODO: PR 31">
<path fill="none" stroke="black" d="M802.34,-332.98C816.33,-336.61 829.64,-343.03 839,-354 882.5,-404.97 818.13,-600.41 857,-655 879.37,-686.42 915.6,-706.27 951.42,-718.79"/>
<polygon fill="black" stroke="black" points="949.98,-721.99 960.57,-721.81 952.17,-715.35 949.98,-721.99"/>
</a>
</g>
<g id="a_edge22&#45;label"><a xlink:href="https://github.com/dod-cyber-crime-center/sqlite-dissect/pull/31" xlink:title="TODO: PR 31">
<text text-anchor="middle" x="896.5" y="-714.8" font-family="Times,serif" font-size="14.00">TODO: PR 31</text>
</a>
</g>
</g>
</g>
</svg>
