<?xml version="1.0" encoding="UTF-8" standalone="no"?>
<!DOCTYPE svg PUBLIC "-//W3C//DTD SVG 1.1//EN"
 "http://www.w3.org/Graphics/SVG/1.1/DTD/svg11.dtd">
<!-- Generated by graphviz version 6.0.2 (20221011.1828)
 -->
<!-- Title: cdo_release_flow Pages: 1 -->
<svg width="1618pt" height="850pt"
 viewBox="0.00 0.00 1618.00 850.00" xmlns="http://www.w3.org/2000/svg" xmlns:xlink="http://www.w3.org/1999/xlink">
<g id="graph0" class="graph" transform="scale(1 1) rotate(0) translate(4 846)">
<title>cdo_release_flow</title>
<polygon fill="white" stroke="none" points="-4,4 -4,-846 1614,-846 1614,4 -4,4"/>
<text text-anchor="middle" x="805" y="-38.8" font-family="Times,serif" font-size="14.00">Release flow of CDO ontologies</text>
<text text-anchor="middle" x="805" y="-7.8" font-family="Times,serif" font-size="14.00">Nodes link to the respective Git repository.</text>
<g id="clust1" class="cluster">
<title>cluster_case_0_3_0</title>
<polygon fill="none" stroke="black" points="673.5,-72 673.5,-149 884.5,-149 884.5,-72 673.5,-72"/>
<text text-anchor="middle" x="779" y="-133.8" font-family="Times,serif" font-size="14.00">Adoption of CASE 0.3.0</text>
</g>
<g id="clust2" class="cluster">
<title>cluster_uco_0_9_1</title>
<polygon fill="none" stroke="black" points="189,-62 189,-149 552,-149 552,-62 189,-62"/>
<text text-anchor="middle" x="370.5" y="-133.8" font-family="Times,serif" font-size="14.00">Adoption of UCO 0.9.1</text>
</g>
<g id="clust3" class="cluster">
<title>cluster_uco_1_1_0</title>
<polygon fill="none" stroke="black" points="8,-157 8,-834 1602,-834 1602,-157 8,-157"/>
<text text-anchor="middle" x="805" y="-818.8" font-family="Times,serif" font-size="14.00">Adoption of UCO 1.1.0</text>
</g>
<g id="clust4" class="cluster">
<title>cluster_case_1_1_0</title>
<polygon fill="none" stroke="black" points="201,-165 201,-803 1594,-803 1594,-165 201,-165"/>
<text text-anchor="middle" x="897.5" y="-787.8" font-family="Times,serif" font-size="14.00">Adoption of CASE 1.1.0</text>
</g>
<g id="clust5" class="cluster">
<title>cluster_case_utils_0_9_0</title>
<polygon fill="none" stroke="black" points="434,-173 434,-772 1586,-772 1586,-173 434,-173"/>
<text text-anchor="middle" x="1010" y="-756.8" font-family="Times,serif" font-size="14.00">Adoption of case&#45;utils 0.9.0</text>
</g>
<g id="clust6" class="cluster">
<title>cluster_case_prov_0_6_0</title>
<polygon fill="none" stroke="black" points="1296,-232 1296,-309 1578,-309 1578,-232 1296,-232"/>
<text text-anchor="middle" x="1437" y="-293.8" font-family="Times,serif" font-size="14.00">Adoption of case&#45;prov 0.6.0</text>
</g>
<g id="clust7" class="cluster">
<title>cluster_case_validation_action_2_3</title>
<polygon fill="none" stroke="black" points="994,-664 994,-741 1228,-741 1228,-664 994,-664"/>
<text text-anchor="middle" x="1111" y="-725.8" font-family="Times,serif" font-size="14.00">Adoption of case&#45;validation&#45;action 2.3</text>
</g>
<g id="clust8" class="cluster">
<title>cluster_case_validation_action_2_5</title>
<polygon fill="none" stroke="black" points="703,-410 703,-656 1231,-656 1231,-410 703,-410"/>
<text text-anchor="middle" x="967" y="-640.8" font-family="Times,serif" font-size="14.00">Adoption of case&#45;validation&#45;action 2.5</text>
</g>
<!-- _GH__CASEWORK__CASE_IMPLEMENTATON_EXIFTOOL -->
<g id="node1" class="node">
<title>_GH__CASEWORK__CASE_IMPLEMENTATON_EXIFTOOL</title>
<g id="a_node1"><a xlink:href="https://github.com/casework/CASE-Implementation-ExifTool" xlink:title="CASE&#45;Implementation&#45;ExifTool\nadopts new case&#45;utils">
<path fill="#8ec7d2" stroke="#0d6986" d="M864.5,-118C864.5,-118 693.5,-118 693.5,-118 687.5,-118 681.5,-112 681.5,-106 681.5,-106 681.5,-92 681.5,-92 681.5,-86 687.5,-80 693.5,-80 693.5,-80 864.5,-80 864.5,-80 870.5,-80 876.5,-86 876.5,-92 876.5,-92 876.5,-106 876.5,-106 876.5,-112 870.5,-118 864.5,-118"/>
<text text-anchor="middle" x="779" y="-102.8" font-family="Times,serif" font-size="14.00">CASE&#45;Implementation&#45;ExifTool</text>
<text text-anchor="middle" x="779" y="-87.8" font-family="Times,serif" font-size="14.00">adopts new case&#45;utils</text>
</a>
</g>
</g>
<!-- _GH__CASEWORK__ONTOLOGY_CASEONTOLOGY_ORG -->
<g id="node2" class="node">
<title>_GH__CASEWORK__ONTOLOGY_CASEONTOLOGY_ORG</title>
<g id="a_node2"><a xlink:href="https://github.com/casework/ontology.caseontology.org" xlink:title="CASE documentation\nregenerated">
<path fill="#8ec7d2" stroke="#0d6986" d="M532,-113C532,-113 420,-113 420,-113 414,-113 408,-107 408,-101 408,-101 408,-87 408,-87 408,-81 414,-75 420,-75 420,-75 532,-75 532,-75 538,-75 544,-81 544,-87 544,-87 544,-101 544,-101 544,-107 538,-113 532,-113"/>
<text text-anchor="middle" x="476" y="-97.8" font-family="Times,serif" font-size="14.00">CASE documentation</text>
<text text-anchor="middle" x="476" y="-82.8" font-family="Times,serif" font-size="14.00">regenerated</text>
</a>
</g>
</g>
<!-- _GH__UCOPROJECT__ONTOLOGY_UNIFIEDCYBERONTOLOGY_ORG -->
<g id="node3" class="node">
<title>_GH__UCOPROJECT__ONTOLOGY_UNIFIEDCYBERONTOLOGY_ORG</title>
<g id="a_node3"><a xlink:href="https://github.com/ucoProject/ontology.unifiedcyberontology.org" xlink:title="UCO documentation\nregenerated">
<path fill="#8ec7d2" stroke="#0d6986" d="M315,-113C315,-113 209,-113 209,-113 203,-113 197,-107 197,-101 197,-101 197,-87 197,-87 197,-81 203,-75 209,-75 209,-75 315,-75 315,-75 321,-75 327,-81 327,-87 327,-87 327,-101 327,-101 327,-107 321,-113 315,-113"/>
<text text-anchor="middle" x="262" y="-97.8" font-family="Times,serif" font-size="14.00">UCO documentation</text>
<text text-anchor="middle" x="262" y="-82.8" font-family="Times,serif" font-size="14.00">regenerated</text>
</a>
</g>
</g>
<!-- _GH__UCOPROJECT__ONTOLOGY_UNIFIEDCYBERONTOLOGY_ORG&#45;&gt;_GH__CASEWORK__ONTOLOGY_CASEONTOLOGY_ORG -->
<g id="edge20" class="edge">
<title>_GH__UCOPROJECT__ONTOLOGY_UNIFIEDCYBERONTOLOGY_ORG&#45;&gt;_GH__CASEWORK__ONTOLOGY_CASEONTOLOGY_ORG</title>
<path fill="none" stroke="black" d="M327.18,-94C349.37,-94 374.47,-94 397.6,-94"/>
<polygon fill="black" stroke="black" points="397.73,-97.5 407.73,-94 397.73,-90.5 397.73,-97.5"/>
<text text-anchor="middle" x="367.5" y="-112.8" font-family="Times,serif" font-size="14.00">Tech&#45;</text>
<text text-anchor="middle" x="367.5" y="-97.8" font-family="Times,serif" font-size="14.00">check</text>
</g>
<!-- _GH__UCOPROJECT__UCO -->
<g id="node4" class="node">
<title>_GH__UCOPROJECT__UCO</title>
<g id="a_node4"><a xlink:href="https://github.com/ucoProject/UCO" xlink:title="UCO Ontology\nreleases">
<path fill="#8ec7d2" stroke="#0d6986" d="M104,-207C104,-207 28,-207 28,-207 22,-207 16,-201 16,-195 16,-195 16,-181 16,-181 16,-175 22,-169 28,-169 28,-169 104,-169 104,-169 110,-169 116,-175 116,-181 116,-181 116,-195 116,-195 116,-201 110,-207 104,-207"/>
<text text-anchor="middle" x="66" y="-191.8" font-family="Times,serif" font-size="14.00">UCO Ontology</text>
<text text-anchor="middle" x="66" y="-176.8" font-family="Times,serif" font-size="14.00">releases</text>
</a>
</g>
</g>
<!-- _GH__UCOPROJECT__UCO&#45;&gt;_GH__UCOPROJECT__ONTOLOGY_UNIFIEDCYBERONTOLOGY_ORG -->
<g id="edge22" class="edge">
<title>_GH__UCOPROJECT__UCO&#45;&gt;_GH__UCOPROJECT__ONTOLOGY_UNIFIEDCYBERONTOLOGY_ORG</title>
<path fill="none" stroke="black" d="M105.59,-168.91C114.88,-164.34 124.79,-159.48 134,-155 159.63,-142.53 188.24,-128.78 211.81,-117.49"/>
<polygon fill="black" stroke="black" points="213.4,-120.61 220.91,-113.13 210.38,-114.29 213.4,-120.61"/>
<text text-anchor="middle" x="156.5" y="-173.8" font-family="Times,serif" font-size="14.00">Git sub&#45;</text>
<text text-anchor="middle" x="156.5" y="-158.8" font-family="Times,serif" font-size="14.00">module</text>
</g>
<!-- _GH__CASEWORK__CASE -->
<g id="node5" class="node">
<title>_GH__CASEWORK__CASE</title>
<g id="a_node5"><a xlink:href="https://github.com/casework/CASE" xlink:title="CASE Ontology\nreleases">
<path fill="#8ec7d2" stroke="#0d6986" d="M303,-211C303,-211 221,-211 221,-211 215,-211 209,-205 209,-199 209,-199 209,-185 209,-185 209,-179 215,-173 221,-173 221,-173 303,-173 303,-173 309,-173 315,-179 315,-185 315,-185 315,-199 315,-199 315,-205 309,-211 303,-211"/>
<text text-anchor="middle" x="262" y="-195.8" font-family="Times,serif" font-size="14.00">CASE Ontology</text>
<text text-anchor="middle" x="262" y="-180.8" font-family="Times,serif" font-size="14.00">releases</text>
</a>
</g>
</g>
<!-- _GH__UCOPROJECT__UCO&#45;&gt;_GH__CASEWORK__CASE -->
<g id="edge21" class="edge">
<title>_GH__UCOPROJECT__UCO&#45;&gt;_GH__CASEWORK__CASE</title>
<path fill="none" stroke="black" d="M116.21,-189.01C141.29,-189.53 172.06,-190.17 198.77,-190.72"/>
<polygon fill="black" stroke="black" points="198.72,-194.22 208.79,-190.92 198.86,-187.22 198.72,-194.22"/>
<text text-anchor="middle" x="156.5" y="-208.8" font-family="Times,serif" font-size="14.00">Git sub&#45;</text>
<text text-anchor="middle" x="156.5" y="-193.8" font-family="Times,serif" font-size="14.00">module</text>
</g>
<!-- _GH__CASEWORK__CASE&#45;&gt;_GH__CASEWORK__ONTOLOGY_CASEONTOLOGY_ORG -->
<g id="edge3" class="edge">
<title>_GH__CASEWORK__CASE&#45;&gt;_GH__CASEWORK__ONTOLOGY_CASEONTOLOGY_ORG</title>
<path fill="none" stroke="black" d="M304.13,-172.99C338.39,-157.15 387.35,-134.52 424.09,-117.53"/>
<polygon fill="black" stroke="black" points="426.02,-120.5 433.63,-113.13 423.08,-114.14 426.02,-120.5"/>
<text text-anchor="middle" x="367.5" y="-169.8" font-family="Times,serif" font-size="14.00">Git sub&#45;</text>
<text text-anchor="middle" x="367.5" y="-154.8" font-family="Times,serif" font-size="14.00">module</text>
</g>
<!-- _GH__CASEWORK__CASE_UTILITIES_PYTHON -->
<g id="node9" class="node">
<title>_GH__CASEWORK__CASE_UTILITIES_PYTHON</title>
<g id="a_node9"><a xlink:href="https://github.com/casework/CASE-Utilities-Python" xlink:title="case&#45;utils\nreleases">
<path fill="#8ec7d2" stroke="#0d6986" d="M498,-275C498,-275 454,-275 454,-275 448,-275 442,-269 442,-263 442,-263 442,-249 442,-249 442,-243 448,-237 454,-237 454,-237 498,-237 498,-237 504,-237 510,-243 510,-249 510,-249 510,-263 510,-263 510,-269 504,-275 498,-275"/>
<text text-anchor="middle" x="476" y="-259.8" font-family="Times,serif" font-size="14.00">case&#45;utils</text>
<text text-anchor="middle" x="476" y="-244.8" font-family="Times,serif" font-size="14.00">releases</text>
</a>
</g>
</g>
<!-- _GH__CASEWORK__CASE&#45;&gt;_GH__CASEWORK__CASE_UTILITIES_PYTHON -->
<g id="edge2" class="edge">
<title>_GH__CASEWORK__CASE&#45;&gt;_GH__CASEWORK__CASE_UTILITIES_PYTHON</title>
<path fill="none" stroke="black" d="M315.13,-207.74C351.17,-218.62 398.53,-232.92 432.33,-243.12"/>
<polygon fill="black" stroke="black" points="431.33,-246.47 441.92,-246.01 433.36,-239.77 431.33,-246.47"/>
<text text-anchor="middle" x="367.5" y="-247.8" font-family="Times,serif" font-size="14.00">Git sub&#45;</text>
<text text-anchor="middle" x="367.5" y="-232.8" font-family="Times,serif" font-size="14.00">module</text>
</g>
<!-- _GH__AJNELSON_NIST__CASE_EXAMPLES_QC -->
<g id="node6" class="node">
<title>_GH__AJNELSON_NIST__CASE_EXAMPLES_QC</title>
<g id="a_node6"><a xlink:href="https://github.com/ajnelson-nist/CASE-Examples-QC" xlink:title="CASE&#45;Examples&#45;QC\nadopts CASE&#45;Examples and\nCASE website updates">
<path fill="#8ec7d2" stroke="#0d6986" d="M1185,-322.5C1185,-322.5 1037,-322.5 1037,-322.5 1031,-322.5 1025,-316.5 1025,-310.5 1025,-310.5 1025,-281.5 1025,-281.5 1025,-275.5 1031,-269.5 1037,-269.5 1037,-269.5 1185,-269.5 1185,-269.5 1191,-269.5 1197,-275.5 1197,-281.5 1197,-281.5 1197,-310.5 1197,-310.5 1197,-316.5 1191,-322.5 1185,-322.5"/>
<text text-anchor="middle" x="1111" y="-307.3" font-family="Times,serif" font-size="14.00">CASE&#45;Examples&#45;QC</text>
<text text-anchor="middle" x="1111" y="-292.3" font-family="Times,serif" font-size="14.00">adopts CASE&#45;Examples and</text>
<text text-anchor="middle" x="1111" y="-277.3" font-family="Times,serif" font-size="14.00">CASE website updates</text>
</a>
</g>
</g>
<!-- _GH__CASEWORK__CASE_IMPLEMENTATON_PROV_O -->
<g id="node12" class="node">
<title>_GH__CASEWORK__CASE_IMPLEMENTATON_PROV_O</title>
<g id="a_node12"><a xlink:href="https://github.com/casework/CASE-Implementation-PROV-O" xlink:title="case&#45;prov\nreleases">
<path fill="#8ec7d2" stroke="#0d6986" d="M1361,-278C1361,-278 1316,-278 1316,-278 1310,-278 1304,-272 1304,-266 1304,-266 1304,-252 1304,-252 1304,-246 1310,-240 1316,-240 1316,-240 1361,-240 1361,-240 1367,-240 1373,-246 1373,-252 1373,-252 1373,-266 1373,-266 1373,-272 1367,-278 1361,-278"/>
<text text-anchor="middle" x="1338.5" y="-262.8" font-family="Times,serif" font-size="14.00">case&#45;prov</text>
<text text-anchor="middle" x="1338.5" y="-247.8" font-family="Times,serif" font-size="14.00">releases</text>
</a>
</g>
</g>
<!-- _GH__AJNELSON_NIST__CASE_EXAMPLES_QC&#45;&gt;_GH__CASEWORK__CASE_IMPLEMENTATON_PROV_O -->
<g id="edge1" class="edge">
<title>_GH__AJNELSON_NIST__CASE_EXAMPLES_QC&#45;&gt;_GH__CASEWORK__CASE_IMPLEMENTATON_PROV_O</title>
<path fill="none" stroke="black" d="M1197.25,-282.01C1230.21,-276.6 1266.5,-270.65 1293.91,-266.15"/>
<polygon fill="black" stroke="black" points="1294.66,-269.58 1303.96,-264.5 1293.52,-262.67 1294.66,-269.58"/>
<text text-anchor="middle" x="1263.5" y="-292.8" font-family="Times,serif" font-size="14.00">Git sub&#45;</text>
<text text-anchor="middle" x="1263.5" y="-277.8" font-family="Times,serif" font-size="14.00">module</text>
</g>
<!-- _GH__CASEWORK__CASE_EXAMPLES -->
<g id="node7" class="node">
<title>_GH__CASEWORK__CASE_EXAMPLES</title>
<g id="a_node7"><a xlink:href="https://github.com/casework/CASE-Examples" xlink:title="CASE&#45;Examples\nadopts new case&#45;utils">
<path fill="#8ec7d2" stroke="#0d6986" d="M833.5,-346C833.5,-346 724.5,-346 724.5,-346 718.5,-346 712.5,-340 712.5,-334 712.5,-334 712.5,-320 712.5,-320 712.5,-314 718.5,-308 724.5,-308 724.5,-308 833.5,-308 833.5,-308 839.5,-308 845.5,-314 845.5,-320 845.5,-320 845.5,-334 845.5,-334 845.5,-340 839.5,-346 833.5,-346"/>
<text text-anchor="middle" x="779" y="-330.8" font-family="Times,serif" font-size="14.00">CASE&#45;Examples</text>
<text text-anchor="middle" x="779" y="-315.8" font-family="Times,serif" font-size="14.00">adopts new case&#45;utils</text>
</a>
</g>
</g>
<!-- _GH__CASEWORK__CASE_EXAMPLES&#45;&gt;_GH__AJNELSON_NIST__CASE_EXAMPLES_QC -->
<g id="edge4" class="edge">
<title>_GH__CASEWORK__CASE_EXAMPLES&#45;&gt;_GH__AJNELSON_NIST__CASE_EXAMPLES_QC</title>
<path fill="none" stroke="black" d="M845.52,-320.47C863.8,-318.67 883.67,-316.74 902,-315 938.8,-311.51 979.27,-307.79 1014.66,-304.57"/>
<polygon fill="black" stroke="black" points="1015.34,-308.02 1024.98,-303.63 1014.7,-301.05 1015.34,-308.02"/>
<text text-anchor="middle" x="941.5" y="-333.8" font-family="Times,serif" font-size="14.00">Git sub&#45;</text>
<text text-anchor="middle" x="941.5" y="-318.8" font-family="Times,serif" font-size="14.00">module</text>
</g>
<!-- _GH__CASEWORK__CASE_IMPLEMENTATON_GNU_TIME -->
<g id="node8" class="node">
<title>_GH__CASEWORK__CASE_IMPLEMENTATON_GNU_TIME</title>
<g id="a_node8"><a xlink:href="https://github.com/casework/CASE-Implementation-GNU-Time" xlink:title="CASE&#45;Implementation&#45;GNU&#45;Time\nadopts new case&#45;utils">
<path fill="#8ec7d2" stroke="#0d6986" d="M872,-219C872,-219 686,-219 686,-219 680,-219 674,-213 674,-207 674,-207 674,-193 674,-193 674,-187 680,-181 686,-181 686,-181 872,-181 872,-181 878,-181 884,-187 884,-193 884,-193 884,-207 884,-207 884,-213 878,-219 872,-219"/>
<text text-anchor="middle" x="779" y="-203.8" font-family="Times,serif" font-size="14.00">CASE&#45;Implementation&#45;GNU&#45;Time</text>
<text text-anchor="middle" x="779" y="-188.8" font-family="Times,serif" font-size="14.00">adopts new case&#45;utils</text>
</a>
</g>
</g>
<!-- _GH__CASEWORK__CASE_UTILITIES_PYTHON&#45;&gt;_GH__CASEWORK__CASE_IMPLEMENTATON_EXIFTOOL -->
<g id="edge8" class="edge">
<title>_GH__CASEWORK__CASE_UTILITIES_PYTHON&#45;&gt;_GH__CASEWORK__CASE_IMPLEMENTATON_EXIFTOOL</title>
<path fill="none" stroke="black" d="M495.46,-236.86C511.76,-220.79 536.81,-198.11 562,-183 606.11,-156.55 660.03,-135.57 702.96,-121.19"/>
<polygon fill="black" stroke="black" points="704.1,-124.5 712.5,-118.04 701.91,-117.85 704.1,-124.5"/>
<text text-anchor="middle" x="609" y="-186.8" font-family="Times,serif" font-size="14.00">TODO: Integrate</text>
</g>
<!-- _GH__CASEWORK__CASE_UTILITIES_PYTHON&#45;&gt;_GH__AJNELSON_NIST__CASE_EXAMPLES_QC -->
<g id="edge6" class="edge">
<title>_GH__CASEWORK__CASE_UTILITIES_PYTHON&#45;&gt;_GH__AJNELSON_NIST__CASE_EXAMPLES_QC</title>
<path fill="none" stroke="black" d="M510.14,-258.09C603.36,-263.98 870.43,-280.86 1014.74,-289.98"/>
<polygon fill="black" stroke="black" points="1014.71,-293.49 1024.91,-290.62 1015.15,-286.5 1014.71,-293.49"/>
<text text-anchor="middle" x="779" y="-284.8" font-family="Times,serif" font-size="14.00">PyPI</text>
</g>
<!-- _GH__CASEWORK__CASE_UTILITIES_PYTHON&#45;&gt;_GH__CASEWORK__CASE_EXAMPLES -->
<g id="edge7" class="edge">
<title>_GH__CASEWORK__CASE_UTILITIES_PYTHON&#45;&gt;_GH__CASEWORK__CASE_EXAMPLES</title>
<path fill="none" stroke="black" d="M510.38,-265.93C526,-270.45 544.89,-275.73 562,-280 608.27,-291.55 660.51,-302.96 702.02,-311.65"/>
<polygon fill="black" stroke="black" points="701.56,-315.13 712.06,-313.74 702.99,-308.27 701.56,-315.13"/>
<text text-anchor="middle" x="609" y="-303.8" font-family="Times,serif" font-size="14.00">PyPI</text>
</g>
<!-- _GH__CASEWORK__CASE_UTILITIES_PYTHON&#45;&gt;_GH__CASEWORK__CASE_IMPLEMENTATON_GNU_TIME -->
<g id="edge9" class="edge">
<title>_GH__CASEWORK__CASE_UTILITIES_PYTHON&#45;&gt;_GH__CASEWORK__CASE_IMPLEMENTATON_GNU_TIME</title>
<path fill="none" stroke="black" d="M510.38,-237.94C525.68,-230.49 544.31,-222.55 562,-218 594.45,-209.65 630.46,-204.93 663.62,-202.33"/>
<polygon fill="black" stroke="black" points="664.09,-205.81 673.81,-201.59 663.59,-198.82 664.09,-205.81"/>
<text text-anchor="middle" x="609" y="-221.8" font-family="Times,serif" font-size="14.00">PyPI</text>
</g>
<!-- _GH__CASEWORK__CASEWORK_GITHUB_IO -->
<g id="node10" class="node">
<title>_GH__CASEWORK__CASEWORK_GITHUB_IO</title>
<g id="a_node10"><a xlink:href="https://github.com/casework/casework.github.io" xlink:title="CASE website\nadopts new case&#45;utils">
<path fill="#8ec7d2" stroke="#0d6986" d="M833.5,-402C833.5,-402 724.5,-402 724.5,-402 718.5,-402 712.5,-396 712.5,-390 712.5,-390 712.5,-376 712.5,-376 712.5,-370 718.5,-364 724.5,-364 724.5,-364 833.5,-364 833.5,-364 839.5,-364 845.5,-370 845.5,-376 845.5,-376 845.5,-390 845.5,-390 845.5,-396 839.5,-402 833.5,-402"/>
<text text-anchor="middle" x="779" y="-386.8" font-family="Times,serif" font-size="14.00">CASE website</text>
<text text-anchor="middle" x="779" y="-371.8" font-family="Times,serif" font-size="14.00">adopts new case&#45;utils</text>
</a>
</g>
</g>
<!-- _GH__CASEWORK__CASE_UTILITIES_PYTHON&#45;&gt;_GH__CASEWORK__CASEWORK_GITHUB_IO -->
<g id="edge12" class="edge">
<title>_GH__CASEWORK__CASE_UTILITIES_PYTHON&#45;&gt;_GH__CASEWORK__CASEWORK_GITHUB_IO</title>
<path fill="none" stroke="black" d="M498.76,-275.26C515.19,-288.99 538.81,-307.07 562,-319 606.21,-341.74 659.76,-357.67 702.48,-367.96"/>
<polygon fill="black" stroke="black" points="701.72,-371.37 712.26,-370.26 703.33,-364.56 701.72,-371.37"/>
<text text-anchor="middle" x="609" y="-357.8" font-family="Times,serif" font-size="14.00">PyPI</text>
</g>
<!-- _GH__CASEWORK__CASE_UTILITIES_PYTHON&#45;&gt;_GH__CASEWORK__CASE_IMPLEMENTATON_PROV_O -->
<g id="edge10" class="edge">
<title>_GH__CASEWORK__CASE_UTILITIES_PYTHON&#45;&gt;_GH__CASEWORK__CASE_IMPLEMENTATON_PROV_O</title>
<path fill="none" stroke="black" d="M510.21,-256.12C643.83,-256.58 1142.29,-258.32 1293.64,-258.85"/>
<polygon fill="black" stroke="black" points="1293.92,-262.35 1303.93,-258.88 1293.94,-255.35 1293.92,-262.35"/>
<text text-anchor="middle" x="941.5" y="-260.8" font-family="Times,serif" font-size="14.00">PyPI</text>
</g>
<!-- _GH__KCHASON__CASE_VALIDATION_ACTION -->
<g id="node18" class="node">
<title>_GH__KCHASON__CASE_VALIDATION_ACTION</title>
<g id="a_node18"><a xlink:href="https://github.com/kchason/case-validation-action" xlink:title="case&#45;validation&#45;action\nreleases">
<path fill="#8ec7d2" stroke="#0d6986" d="M835,-508C835,-508 723,-508 723,-508 717,-508 711,-502 711,-496 711,-496 711,-482 711,-482 711,-476 717,-470 723,-470 723,-470 835,-470 835,-470 841,-470 847,-476 847,-482 847,-482 847,-496 847,-496 847,-502 841,-508 835,-508"/>
<text text-anchor="middle" x="779" y="-492.8" font-family="Times,serif" font-size="14.00">case&#45;validation&#45;action</text>
<text text-anchor="middle" x="779" y="-477.8" font-family="Times,serif" font-size="14.00">releases</text>
</a>
</g>
</g>
<!-- _GH__CASEWORK__CASE_UTILITIES_PYTHON&#45;&gt;_GH__KCHASON__CASE_VALIDATION_ACTION -->
<g id="edge11" class="edge">
<title>_GH__CASEWORK__CASE_UTILITIES_PYTHON&#45;&gt;_GH__KCHASON__CASE_VALIDATION_ACTION</title>
<path fill="none" stroke="black" d="M488.03,-275.12C513.99,-318.07 583.62,-421.92 673.5,-466 682.1,-470.22 691.48,-473.67 700.98,-476.5"/>
<polygon fill="black" stroke="black" points="700.31,-479.94 710.88,-479.22 702.17,-473.19 700.31,-479.94"/>
<text text-anchor="middle" x="609" y="-457.8" font-family="Times,serif" font-size="14.00">PyPI</text>
</g>
<!-- _GH__CASEWORK__CASEWORK_GITHUB_IO&#45;&gt;_GH__AJNELSON_NIST__CASE_EXAMPLES_QC -->
<g id="edge13" class="edge">
<title>_GH__CASEWORK__CASEWORK_GITHUB_IO&#45;&gt;_GH__AJNELSON_NIST__CASE_EXAMPLES_QC</title>
<path fill="none" stroke="black" d="M845.85,-373.55C885.43,-367.14 936.57,-357.53 981,-345 999.55,-339.77 1019.19,-332.98 1037.4,-326.14"/>
<polygon fill="black" stroke="black" points="1038.68,-329.39 1046.77,-322.56 1036.18,-322.85 1038.68,-329.39"/>
<text text-anchor="middle" x="941.5" y="-381.8" font-family="Times,serif" font-size="14.00">Git sub&#45;</text>
<text text-anchor="middle" x="941.5" y="-366.8" font-family="Times,serif" font-size="14.00">module</text>
</g>
<!-- _GH__CASEWORK__CASE_CORPORA -->
<g id="node11" class="node">
<title>_GH__CASEWORK__CASE_CORPORA</title>
<g id="a_node11"><a xlink:href="https://github.com/casework/CASE-Corpora" xlink:title="CASE&#45;Corpora\nadopts new case&#45;prov">
<path fill="#8ec7d2" stroke="#0d6986" d="M1558,-278C1558,-278 1448,-278 1448,-278 1442,-278 1436,-272 1436,-266 1436,-266 1436,-252 1436,-252 1436,-246 1442,-240 1448,-240 1448,-240 1558,-240 1558,-240 1564,-240 1570,-246 1570,-252 1570,-252 1570,-266 1570,-266 1570,-272 1564,-278 1558,-278"/>
<text text-anchor="middle" x="1503" y="-262.8" font-family="Times,serif" font-size="14.00">CASE&#45;Corpora</text>
<text text-anchor="middle" x="1503" y="-247.8" font-family="Times,serif" font-size="14.00">adopts new case&#45;prov</text>
</a>
</g>
</g>
<!-- _GH__CASEWORK__CASE_IMPLEMENTATON_PROV_O&#45;&gt;_GH__CASEWORK__CASE_CORPORA -->
<g id="edge5" class="edge">
<title>_GH__CASEWORK__CASE_IMPLEMENTATON_PROV_O&#45;&gt;_GH__CASEWORK__CASE_CORPORA</title>
<path fill="none" stroke="black" d="M1373.17,-259C1388.47,-259 1407.23,-259 1425.66,-259"/>
<polygon fill="black" stroke="black" points="1425.84,-262.5 1435.84,-259 1425.84,-255.5 1425.84,-262.5"/>
<text text-anchor="middle" x="1404.5" y="-262.8" font-family="Times,serif" font-size="14.00">PyPI</text>
</g>
<!-- _GH__CASEWORK__CASE_IMPLEMENTATON_UFED_XML -->
<g id="node13" class="node">
<title>_GH__CASEWORK__CASE_IMPLEMENTATON_UFED_XML</title>
<g id="a_node13"><a xlink:href="https://github.com/casework/CASE-Implementation-UFED-XML" xlink:title="CASE&#45;Implementation&#45;UFED&#45;XML\nadopts new case&#45;validation&#45;action">
<path fill="#8ec7d2" stroke="#0d6986" d="M1208,-710C1208,-710 1014,-710 1014,-710 1008,-710 1002,-704 1002,-698 1002,-698 1002,-684 1002,-684 1002,-678 1008,-672 1014,-672 1014,-672 1208,-672 1208,-672 1214,-672 1220,-678 1220,-684 1220,-684 1220,-698 1220,-698 1220,-704 1214,-710 1208,-710"/>
<text text-anchor="middle" x="1111" y="-694.8" font-family="Times,serif" font-size="14.00">CASE&#45;Implementation&#45;UFED&#45;XML</text>
<text text-anchor="middle" x="1111" y="-679.8" font-family="Times,serif" font-size="14.00">adopts new case&#45;validation&#45;action</text>
</a>
</g>
</g>
<!-- _GH__CASEWORK__CASE_IMPLEMENTATON_PYPI_EXIFREAD -->
<g id="node14" class="node">
<title>_GH__CASEWORK__CASE_IMPLEMENTATON_PYPI_EXIFREAD</title>
<g id="a_node14"><a xlink:href="https://github.com/casework/CASE-Implementation-PyPI-Exifread" xlink:title="CASE&#45;Implementation&#45;PyPI&#45;Exifread\nadopts new case&#45;validation&#45;action">
<path fill="#8ec7d2" stroke="#0d6986" d="M1211,-456C1211,-456 1011,-456 1011,-456 1005,-456 999,-450 999,-444 999,-444 999,-430 999,-430 999,-424 1005,-418 1011,-418 1011,-418 1211,-418 1211,-418 1217,-418 1223,-424 1223,-430 1223,-430 1223,-444 1223,-444 1223,-450 1217,-456 1211,-456"/>
<text text-anchor="middle" x="1111" y="-440.8" font-family="Times,serif" font-size="14.00">CASE&#45;Implementation&#45;PyPI&#45;Exifread</text>
<text text-anchor="middle" x="1111" y="-425.8" font-family="Times,serif" font-size="14.00">adopts new case&#45;validation&#45;action</text>
</a>
</g>
</g>
<!-- _GH__CASEWORK__CASE_IMPLEMENTATON_PYPI_PILLOW -->
<g id="node15" class="node">
<title>_GH__CASEWORK__CASE_IMPLEMENTATON_PYPI_PILLOW</title>
<g id="a_node15"><a xlink:href="https://github.com/casework/CASE-Implementation-PyPI-Pillow" xlink:title="CASE&#45;Implementation&#45;PyPI&#45;Pillow\nadopts new case&#45;validation&#45;action">
<path fill="#8ec7d2" stroke="#0d6986" d="M1205.5,-512C1205.5,-512 1016.5,-512 1016.5,-512 1010.5,-512 1004.5,-506 1004.5,-500 1004.5,-500 1004.5,-486 1004.5,-486 1004.5,-480 1010.5,-474 1016.5,-474 1016.5,-474 1205.5,-474 1205.5,-474 1211.5,-474 1217.5,-480 1217.5,-486 1217.5,-486 1217.5,-500 1217.5,-500 1217.5,-506 1211.5,-512 1205.5,-512"/>
<text text-anchor="middle" x="1111" y="-496.8" font-family="Times,serif" font-size="14.00">CASE&#45;Implementation&#45;PyPI&#45;Pillow</text>
<text text-anchor="middle" x="1111" y="-481.8" font-family="Times,serif" font-size="14.00">adopts new case&#45;validation&#45;action</text>
</a>
</g>
</g>
<!-- _GH__CASEWORK__CASE_IMPLEMENTATON_XRY -->
<g id="node16" class="node">
<title>_GH__CASEWORK__CASE_IMPLEMENTATON_XRY</title>
<g id="a_node16"><a xlink:href="https://github.com/casework/CASE-Implementation-XRY" xlink:title="CASE&#45;Implementation&#45;XRY adopts\nnew case&#45;validation&#45;action">
<path fill="#8ec7d2" stroke="#0d6986" d="M1206,-568C1206,-568 1016,-568 1016,-568 1010,-568 1004,-562 1004,-556 1004,-556 1004,-542 1004,-542 1004,-536 1010,-530 1016,-530 1016,-530 1206,-530 1206,-530 1212,-530 1218,-536 1218,-542 1218,-542 1218,-556 1218,-556 1218,-562 1212,-568 1206,-568"/>
<text text-anchor="middle" x="1111" y="-552.8" font-family="Times,serif" font-size="14.00">CASE&#45;Implementation&#45;XRY adopts</text>
<text text-anchor="middle" x="1111" y="-537.8" font-family="Times,serif" font-size="14.00">new case&#45;validation&#45;action</text>
</a>
</g>
</g>
<!-- _GH__CASEWORK__CASE_MAPPING_TEMPLATE_PYTHON -->
<g id="node17" class="node">
<title>_GH__CASEWORK__CASE_MAPPING_TEMPLATE_PYTHON</title>
<g id="a_node17"><a xlink:href="https://github.com/casework/CASE-Mapping-Template-Python" xlink:title="CASE&#45;Mapping&#45;Template&#45;Python\nadopts new case&#45;validation&#45;action">
<path fill="#8ec7d2" stroke="#0d6986" d="M1200.5,-624C1200.5,-624 1021.5,-624 1021.5,-624 1015.5,-624 1009.5,-618 1009.5,-612 1009.5,-612 1009.5,-598 1009.5,-598 1009.5,-592 1015.5,-586 1021.5,-586 1021.5,-586 1200.5,-586 1200.5,-586 1206.5,-586 1212.5,-592 1212.5,-598 1212.5,-598 1212.5,-612 1212.5,-612 1212.5,-618 1206.5,-624 1200.5,-624"/>
<text text-anchor="middle" x="1111" y="-608.8" font-family="Times,serif" font-size="14.00">CASE&#45;Mapping&#45;Template&#45;Python</text>
<text text-anchor="middle" x="1111" y="-593.8" font-family="Times,serif" font-size="14.00">adopts new case&#45;validation&#45;action</text>
</a>
</g>
</g>
<!-- _GH__KCHASON__CASE_VALIDATION_ACTION&#45;&gt;_GH__CASEWORK__CASE_IMPLEMENTATON_UFED_XML -->
<g id="edge16" class="edge">
<title>_GH__KCHASON__CASE_VALIDATION_ACTION&#45;&gt;_GH__CASEWORK__CASE_IMPLEMENTATON_UFED_XML</title>
<path fill="none" stroke="black" d="M793.31,-508.19C813.78,-536.47 855.52,-589.51 902,-622 932.64,-643.42 970.4,-658.56 1005.31,-669.09"/>
<polygon fill="black" stroke="black" points="1004.49,-672.5 1015.07,-671.94 1006.45,-665.78 1004.49,-672.5"/>
<text text-anchor="middle" x="941.5" y="-677.8" font-family="Times,serif" font-size="14.00">GitHub</text>
<text text-anchor="middle" x="941.5" y="-662.8" font-family="Times,serif" font-size="14.00">Action</text>
</g>
<!-- _GH__KCHASON__CASE_VALIDATION_ACTION&#45;&gt;_GH__CASEWORK__CASE_IMPLEMENTATON_PYPI_EXIFREAD -->
<g id="edge14" class="edge">
<title>_GH__KCHASON__CASE_VALIDATION_ACTION&#45;&gt;_GH__CASEWORK__CASE_IMPLEMENTATON_PYPI_EXIFREAD</title>
<path fill="none" stroke="black" d="M847.11,-477.82C859.77,-474.71 872.73,-470.82 884.5,-466 893,-462.52 893.29,-457.92 902,-455 929.36,-445.82 959.82,-440.61 988.8,-437.79"/>
<polygon fill="black" stroke="black" points="989.33,-441.25 998.98,-436.88 988.71,-434.28 989.33,-441.25"/>
<text text-anchor="middle" x="941.5" y="-473.8" font-family="Times,serif" font-size="14.00">GitHub</text>
<text text-anchor="middle" x="941.5" y="-458.8" font-family="Times,serif" font-size="14.00">Action</text>
</g>
<!-- _GH__KCHASON__CASE_VALIDATION_ACTION&#45;&gt;_GH__CASEWORK__CASE_IMPLEMENTATON_PYPI_PILLOW -->
<g id="edge15" class="edge">
<title>_GH__KCHASON__CASE_VALIDATION_ACTION&#45;&gt;_GH__CASEWORK__CASE_IMPLEMENTATON_PYPI_PILLOW</title>
<path fill="none" stroke="black" d="M847,-489.03C886.09,-489.12 936.34,-489.37 981,-490 985.28,-490.06 989.65,-490.13 994.06,-490.2"/>
<polygon fill="black" stroke="black" points="994.34,-493.71 1004.4,-490.39 994.47,-486.71 994.34,-493.71"/>
<text text-anchor="middle" x="941.5" y="-508.8" font-family="Times,serif" font-size="14.00">GitHub</text>
<text text-anchor="middle" x="941.5" y="-493.8" font-family="Times,serif" font-size="14.00">Action</text>
</g>
<!-- _GH__KCHASON__CASE_VALIDATION_ACTION&#45;&gt;_GH__CASEWORK__CASE_IMPLEMENTATON_XRY -->
<g id="edge17" class="edge">
<title>_GH__KCHASON__CASE_VALIDATION_ACTION&#45;&gt;_GH__CASEWORK__CASE_IMPLEMENTATON_XRY</title>
<path fill="none" stroke="black" d="M847.14,-507.47C864.89,-511.97 884.09,-516.49 902,-520 931.57,-525.8 963.73,-530.88 993.73,-535.1"/>
<polygon fill="black" stroke="black" points="993.42,-538.59 1003.81,-536.49 994.38,-531.65 993.42,-538.59"/>
<text text-anchor="middle" x="941.5" y="-550.8" font-family="Times,serif" font-size="14.00">GitHub</text>
<text text-anchor="middle" x="941.5" y="-535.8" font-family="Times,serif" font-size="14.00">Action</text>
</g>
<!-- _GH__KCHASON__CASE_VALIDATION_ACTION&#45;&gt;_GH__CASEWORK__CASE_MAPPING_TEMPLATE_PYTHON -->
<g id="edge18" class="edge">
<title>_GH__KCHASON__CASE_VALIDATION_ACTION&#45;&gt;_GH__CASEWORK__CASE_MAPPING_TEMPLATE_PYTHON</title>
<path fill="none" stroke="black" d="M804.2,-508.19C827.8,-525.92 865.4,-551.63 902,-566 932.68,-578.05 967.41,-586.44 999.57,-592.26"/>
<polygon fill="black" stroke="black" points="999.01,-595.72 1009.46,-593.99 1000.21,-588.82 999.01,-595.72"/>
<text text-anchor="middle" x="941.5" y="-606.8" font-family="Times,serif" font-size="14.00">GitHub</text>
<text text-anchor="middle" x="941.5" y="-591.8" font-family="Times,serif" font-size="14.00">Action</text>
</g>
<!-- _GH__DOD_CYBER_CRIME_CENTER__SQLITE_DISSECT -->
<g id="node19" class="node">
<title>_GH__DOD_CYBER_CRIME_CENTER__SQLITE_DISSECT</title>
<g id="a_node19"><a xlink:href="https://github.com/dod-cyber-crime-center/sqlite-dissect" xlink:title="sqlite&#45;dissect\nadopts new case&#45;validation&#45;action">
<path fill="#8ec7d2" stroke="#0d6986" d="M1199.5,-149C1199.5,-149 1022.5,-149 1022.5,-149 1016.5,-149 1010.5,-143 1010.5,-137 1010.5,-137 1010.5,-123 1010.5,-123 1010.5,-117 1016.5,-111 1022.5,-111 1022.5,-111 1199.5,-111 1199.5,-111 1205.5,-111 1211.5,-117 1211.5,-123 1211.5,-123 1211.5,-137 1211.5,-137 1211.5,-143 1205.5,-149 1199.5,-149"/>
<text text-anchor="middle" x="1111" y="-133.8" font-family="Times,serif" font-size="14.00">sqlite&#45;dissect</text>
<text text-anchor="middle" x="1111" y="-118.8" font-family="Times,serif" font-size="14.00">adopts new case&#45;validation&#45;action</text>
</a>
</g>
</g>
<!-- _GH__KCHASON__CASE_VALIDATION_ACTION&#45;&gt;_GH__DOD_CYBER_CRIME_CENTER__SQLITE_DISSECT -->
<g id="edge19" class="edge">
<title>_GH__KCHASON__CASE_VALIDATION_ACTION&#45;&gt;_GH__DOD_CYBER_CRIME_CENTER__SQLITE_DISSECT</title>
<g id="a_edge19"><a xlink:href="https://github.com/dod-cyber-crime-center/sqlite-dissect/pull/31" xlink:title="TODO: PR 31">
<path fill="none" stroke="black" d="M847.15,-487.25C861.4,-483.64 874.99,-477.18 884.5,-466 929.51,-413.12 854.36,-204.53 902,-154 926.96,-127.53 964.2,-118.09 1000.3,-116.41"/>
<polygon fill="black" stroke="black" points="1000.54,-119.9 1010.44,-116.13 1000.35,-112.9 1000.54,-119.9"/>
</a>
</g>
<g id="a_edge19&#45;label"><a xlink:href="https://github.com/dod-cyber-crime-center/sqlite-dissect/pull/31" xlink:title="TODO: PR 31">
<text text-anchor="middle" x="941.5" y="-157.8" font-family="Times,serif" font-size="14.00">TODO: PR 31</text>
</a>
</g>
</g>
</g>
</svg>
