<?xml version="1.0" encoding="UTF-8" standalone="no"?>
<!DOCTYPE svg PUBLIC "-//W3C//DTD SVG 1.1//EN"
 "http://www.w3.org/Graphics/SVG/1.1/DTD/svg11.dtd">
<!-- Generated by graphviz version 2.43.0 (0)
 -->
<!-- Title: cdo_release_flow Pages: 1 -->
<svg width="2060pt" height="795pt"
 viewBox="0.00 0.00 2060.00 795.00" xmlns="http://www.w3.org/2000/svg" xmlns:xlink="http://www.w3.org/1999/xlink">
<g id="graph0" class="graph" transform="scale(1 1) rotate(0) translate(4 791)">
<title>cdo_release_flow</title>
<polygon fill="white" stroke="transparent" points="-4,4 -4,-791 2056,-791 2056,4 -4,4"/>
<text text-anchor="middle" x="1026" y="-38.8" font-family="Times,serif" font-size="14.00">Release flow of CDO ontologies</text>
<text text-anchor="middle" x="1026" y="-7.8" font-family="Times,serif" font-size="14.00">Nodes link to the respective Git repository.</text>
<g id="clust1" class="cluster">
<title>cluster_case_0_3_0</title>
<polygon fill="none" stroke="black" points="805.5,-147 805.5,-224 1058.5,-224 1058.5,-147 805.5,-147"/>
<text text-anchor="middle" x="932" y="-208.8" font-family="Times,serif" font-size="14.00">Adoption of CASE 0.3.0</text>
</g>
<g id="clust2" class="cluster">
<title>cluster_case_utils_0_3_0</title>
<polygon fill="none" stroke="black" points="797,-62 797,-139 1067,-139 1067,-62 797,-62"/>
<text text-anchor="middle" x="932" y="-123.8" font-family="Times,serif" font-size="14.00">Adoption of case&#45;utils 0.3.0</text>
</g>
<g id="clust3" class="cluster">
<title>cluster_uco_0_9_1</title>
<polygon fill="none" stroke="black" points="220,-137 220,-224 658,-224 658,-137 220,-137"/>
<text text-anchor="middle" x="439" y="-208.8" font-family="Times,serif" font-size="14.00">Adoption of UCO 0.9.1</text>
</g>
<g id="clust4" class="cluster">
<title>cluster_uco_1_1_0</title>
<polygon fill="none" stroke="black" points="8,-232 8,-779 2044,-779 2044,-232 8,-232"/>
<text text-anchor="middle" x="1026" y="-763.8" font-family="Times,serif" font-size="14.00">Adoption of UCO 1.1.0</text>
</g>
<g id="clust5" class="cluster">
<title>cluster_case_1_1_0</title>
<polygon fill="none" stroke="black" points="237.5,-240 237.5,-748 2036,-748 2036,-240 237.5,-240"/>
<text text-anchor="middle" x="1136.75" y="-732.8" font-family="Times,serif" font-size="14.00">Adoption of CASE 1.1.0</text>
</g>
<g id="clust6" class="cluster">
<title>cluster_case_utils_0_9_0</title>
<polygon fill="none" stroke="black" points="516,-248 516,-717 2028,-717 2028,-248 516,-248"/>
<text text-anchor="middle" x="1272" y="-701.8" font-family="Times,serif" font-size="14.00">Adoption of case&#45;utils 0.9.0</text>
</g>
<g id="clust7" class="cluster">
<title>cluster_case_prov_0_6_0</title>
<polygon fill="none" stroke="black" points="1678,-369 1678,-446 2020,-446 2020,-369 1678,-369"/>
<text text-anchor="middle" x="1849" y="-430.8" font-family="Times,serif" font-size="14.00">Adoption of case&#45;prov 0.6.0</text>
</g>
<g id="clust8" class="cluster">
<title>cluster_case_validation_action_2_3</title>
<polygon fill="none" stroke="black" points="1261,-524 1261,-601 1545,-601 1545,-524 1261,-524"/>
<text text-anchor="middle" x="1403" y="-585.8" font-family="Times,serif" font-size="14.00">Adoption of case&#45;validation&#45;action 2.3</text>
</g>
<g id="clust9" class="cluster">
<title>cluster_case_validation_action_2_4</title>
<polygon fill="none" stroke="black" points="1261.5,-609 1261.5,-686 1545.5,-686 1545.5,-609 1261.5,-609"/>
<text text-anchor="middle" x="1403.5" y="-670.8" font-family="Times,serif" font-size="14.00">Adoption of case&#45;validation&#45;action 2.4</text>
</g>
<g id="clust10" class="cluster">
<title>cluster_case_validation_action_2_5</title>
<polygon fill="none" stroke="black" points="838.5,-429 838.5,-516 1541,-516 1541,-429 838.5,-429"/>
<text text-anchor="middle" x="1189.75" y="-500.8" font-family="Times,serif" font-size="14.00">Adoption of case&#45;validation&#45;action 2.5</text>
</g>
<!-- _GH__CASEWORK__CASE_IMPLEMENTATON_EXIFTOOL -->
<g id="node1" class="node">
<title>_GH__CASEWORK__CASE_IMPLEMENTATON_EXIFTOOL</title>
<g id="a_node1"><a xlink:href="https://github.com/casework/CASE-Implementation-ExifTool" xlink:title="CASE&#45;Implementation&#45;ExifTool\nadopts new case&#45;utils">
<path fill="#8ec7d2" stroke="#0d6986" d="M1038.5,-193C1038.5,-193 825.5,-193 825.5,-193 819.5,-193 813.5,-187 813.5,-181 813.5,-181 813.5,-167 813.5,-167 813.5,-161 819.5,-155 825.5,-155 825.5,-155 1038.5,-155 1038.5,-155 1044.5,-155 1050.5,-161 1050.5,-167 1050.5,-167 1050.5,-181 1050.5,-181 1050.5,-187 1044.5,-193 1038.5,-193"/>
<text text-anchor="middle" x="932" y="-177.8" font-family="Times,serif" font-size="14.00">CASE&#45;Implementation&#45;ExifTool</text>
<text text-anchor="middle" x="932" y="-162.8" font-family="Times,serif" font-size="14.00">adopts new case&#45;utils</text>
</a>
</g>
</g>
<!-- _GH__CASEWORK__CASE_IMPLEMENTATON_GNU_TIME -->
<g id="node2" class="node">
<title>_GH__CASEWORK__CASE_IMPLEMENTATON_GNU_TIME</title>
<g id="a_node2"><a xlink:href="https://github.com/casework/CASE-Implementation-GNU-Time" xlink:title="CASE&#45;Implementation&#45;GNU&#45;Time\nadopts new case&#45;utils">
<path fill="#8ec7d2" stroke="#0d6986" d="M1047,-108C1047,-108 817,-108 817,-108 811,-108 805,-102 805,-96 805,-96 805,-82 805,-82 805,-76 811,-70 817,-70 817,-70 1047,-70 1047,-70 1053,-70 1059,-76 1059,-82 1059,-82 1059,-96 1059,-96 1059,-102 1053,-108 1047,-108"/>
<text text-anchor="middle" x="932" y="-92.8" font-family="Times,serif" font-size="14.00">CASE&#45;Implementation&#45;GNU&#45;Time</text>
<text text-anchor="middle" x="932" y="-77.8" font-family="Times,serif" font-size="14.00">adopts new case&#45;utils</text>
</a>
</g>
</g>
<!-- _GH__CASEWORK__ONTOLOGY_CASEONTOLOGY_ORG -->
<g id="node3" class="node">
<title>_GH__CASEWORK__ONTOLOGY_CASEONTOLOGY_ORG</title>
<g id="a_node3"><a xlink:href="https://github.com/casework/ontology.caseontology.org" xlink:title="CASE documentation\nregenerated">
<path fill="#8ec7d2" stroke="#0d6986" d="M638,-188C638,-188 494,-188 494,-188 488,-188 482,-182 482,-176 482,-176 482,-162 482,-162 482,-156 488,-150 494,-150 494,-150 638,-150 638,-150 644,-150 650,-156 650,-162 650,-162 650,-176 650,-176 650,-182 644,-188 638,-188"/>
<text text-anchor="middle" x="566" y="-172.8" font-family="Times,serif" font-size="14.00">CASE documentation</text>
<text text-anchor="middle" x="566" y="-157.8" font-family="Times,serif" font-size="14.00">regenerated</text>
</a>
</g>
</g>
<!-- _GH__UCOPROJECT__ONTOLOGY_UNIFIEDCYBERONTOLOGY_ORG -->
<g id="node4" class="node">
<title>_GH__UCOPROJECT__ONTOLOGY_UNIFIEDCYBERONTOLOGY_ORG</title>
<g id="a_node4"><a xlink:href="https://github.com/ucoProject/ontology.unifiedcyberontology.org" xlink:title="UCO documentation\nregenerated">
<path fill="#8ec7d2" stroke="#0d6986" d="M377,-188C377,-188 240,-188 240,-188 234,-188 228,-182 228,-176 228,-176 228,-162 228,-162 228,-156 234,-150 240,-150 240,-150 377,-150 377,-150 383,-150 389,-156 389,-162 389,-162 389,-176 389,-176 389,-182 383,-188 377,-188"/>
<text text-anchor="middle" x="308.5" y="-172.8" font-family="Times,serif" font-size="14.00">UCO documentation</text>
<text text-anchor="middle" x="308.5" y="-157.8" font-family="Times,serif" font-size="14.00">regenerated</text>
</a>
</g>
</g>
<!-- _GH__UCOPROJECT__ONTOLOGY_UNIFIEDCYBERONTOLOGY_ORG&#45;&gt;_GH__CASEWORK__ONTOLOGY_CASEONTOLOGY_ORG -->
<g id="edge20" class="edge">
<title>_GH__UCOPROJECT__ONTOLOGY_UNIFIEDCYBERONTOLOGY_ORG&#45;&gt;_GH__CASEWORK__ONTOLOGY_CASEONTOLOGY_ORG</title>
<path fill="none" stroke="black" d="M389.04,-165.47C395.12,-165.28 401.16,-165.12 407,-165 432.33,-164.48 438.67,-164.5 464,-165 466.53,-165.05 469.1,-165.11 471.69,-165.17"/>
<polygon fill="black" stroke="black" points="471.69,-168.67 481.78,-165.44 471.88,-161.67 471.69,-168.67"/>
<text text-anchor="middle" x="435.5" y="-183.8" font-family="Times,serif" font-size="14.00">Tech&#45;</text>
<text text-anchor="middle" x="435.5" y="-168.8" font-family="Times,serif" font-size="14.00">check</text>
</g>
<!-- _GH__UCOPROJECT__UCO -->
<g id="node5" class="node">
<title>_GH__UCOPROJECT__UCO</title>
<g id="a_node5"><a xlink:href="https://github.com/ucoProject/UCO" xlink:title="UCO Ontology\nreleases">
<path fill="#8ec7d2" stroke="#0d6986" d="M123,-282C123,-282 28,-282 28,-282 22,-282 16,-276 16,-270 16,-270 16,-256 16,-256 16,-250 22,-244 28,-244 28,-244 123,-244 123,-244 129,-244 135,-250 135,-256 135,-256 135,-270 135,-270 135,-276 129,-282 123,-282"/>
<text text-anchor="middle" x="75.5" y="-266.8" font-family="Times,serif" font-size="14.00">UCO Ontology</text>
<text text-anchor="middle" x="75.5" y="-251.8" font-family="Times,serif" font-size="14.00">releases</text>
</a>
</g>
</g>
<!-- _GH__UCOPROJECT__UCO&#45;&gt;_GH__UCOPROJECT__ONTOLOGY_UNIFIEDCYBERONTOLOGY_ORG -->
<g id="edge22" class="edge">
<title>_GH__UCOPROJECT__UCO&#45;&gt;_GH__UCOPROJECT__ONTOLOGY_UNIFIEDCYBERONTOLOGY_ORG</title>
<path fill="none" stroke="black" d="M120.09,-243.92C130.82,-239.3 142.3,-234.42 153,-230 184.37,-217.04 219.55,-203.11 248.41,-191.83"/>
<polygon fill="black" stroke="black" points="249.9,-195.01 257.94,-188.11 247.35,-188.49 249.9,-195.01"/>
<text text-anchor="middle" x="181.5" y="-248.8" font-family="Times,serif" font-size="14.00">Git sub&#45;</text>
<text text-anchor="middle" x="181.5" y="-233.8" font-family="Times,serif" font-size="14.00">module</text>
</g>
<!-- _GH__CASEWORK__CASE -->
<g id="node6" class="node">
<title>_GH__CASEWORK__CASE</title>
<g id="a_node6"><a xlink:href="https://github.com/casework/CASE" xlink:title="CASE Ontology\nreleases">
<path fill="#8ec7d2" stroke="#0d6986" d="M359.5,-286C359.5,-286 257.5,-286 257.5,-286 251.5,-286 245.5,-280 245.5,-274 245.5,-274 245.5,-260 245.5,-260 245.5,-254 251.5,-248 257.5,-248 257.5,-248 359.5,-248 359.5,-248 365.5,-248 371.5,-254 371.5,-260 371.5,-260 371.5,-274 371.5,-274 371.5,-280 365.5,-286 359.5,-286"/>
<text text-anchor="middle" x="308.5" y="-270.8" font-family="Times,serif" font-size="14.00">CASE Ontology</text>
<text text-anchor="middle" x="308.5" y="-255.8" font-family="Times,serif" font-size="14.00">releases</text>
</a>
</g>
</g>
<!-- _GH__UCOPROJECT__UCO&#45;&gt;_GH__CASEWORK__CASE -->
<g id="edge21" class="edge">
<title>_GH__UCOPROJECT__UCO&#45;&gt;_GH__CASEWORK__CASE</title>
<path fill="none" stroke="black" d="M135.09,-264.01C165.48,-264.54 202.89,-265.19 235.08,-265.75"/>
<polygon fill="black" stroke="black" points="235.27,-269.25 245.33,-265.92 235.39,-262.25 235.27,-269.25"/>
<text text-anchor="middle" x="181.5" y="-283.8" font-family="Times,serif" font-size="14.00">Git sub&#45;</text>
<text text-anchor="middle" x="181.5" y="-268.8" font-family="Times,serif" font-size="14.00">module</text>
</g>
<!-- _GH__CASEWORK__CASE&#45;&gt;_GH__CASEWORK__ONTOLOGY_CASEONTOLOGY_ORG -->
<g id="edge3" class="edge">
<title>_GH__CASEWORK__CASE&#45;&gt;_GH__CASEWORK__ONTOLOGY_CASEONTOLOGY_ORG</title>
<path fill="none" stroke="black" d="M359.07,-247.99C400.98,-231.91 461.13,-208.84 505.61,-191.78"/>
<polygon fill="black" stroke="black" points="507.05,-194.97 515.14,-188.13 504.55,-188.44 507.05,-194.97"/>
<text text-anchor="middle" x="435.5" y="-244.8" font-family="Times,serif" font-size="14.00">Git sub&#45;</text>
<text text-anchor="middle" x="435.5" y="-229.8" font-family="Times,serif" font-size="14.00">module</text>
</g>
<!-- _GH__CASEWORK__CASE_UTILITIES_PYTHON -->
<g id="node9" class="node">
<title>_GH__CASEWORK__CASE_UTILITIES_PYTHON</title>
<g id="a_node9"><a xlink:href="https://github.com/casework/CASE-Utilities-Python" xlink:title="case&#45;utils\nreleases">
<path fill="#8ec7d2" stroke="#0d6986" d="M596,-321C596,-321 536,-321 536,-321 530,-321 524,-315 524,-309 524,-309 524,-295 524,-295 524,-289 530,-283 536,-283 536,-283 596,-283 596,-283 602,-283 608,-289 608,-295 608,-295 608,-309 608,-309 608,-315 602,-321 596,-321"/>
<text text-anchor="middle" x="566" y="-305.8" font-family="Times,serif" font-size="14.00">case&#45;utils</text>
<text text-anchor="middle" x="566" y="-290.8" font-family="Times,serif" font-size="14.00">releases</text>
</a>
</g>
</g>
<!-- _GH__CASEWORK__CASE&#45;&gt;_GH__CASEWORK__CASE_UTILITIES_PYTHON -->
<g id="edge2" class="edge">
<title>_GH__CASEWORK__CASE&#45;&gt;_GH__CASEWORK__CASE_UTILITIES_PYTHON</title>
<path fill="none" stroke="black" d="M371.68,-275.52C415.25,-281.49 472.79,-289.37 513.74,-294.98"/>
<polygon fill="black" stroke="black" points="513.39,-298.46 523.77,-296.35 514.34,-291.53 513.39,-298.46"/>
<text text-anchor="middle" x="435.5" y="-305.8" font-family="Times,serif" font-size="14.00">Git sub&#45;</text>
<text text-anchor="middle" x="435.5" y="-290.8" font-family="Times,serif" font-size="14.00">module</text>
</g>
<!-- _GH__AJNELSON_NIST__CASE_EXAMPLES_QC -->
<g id="node7" class="node">
<title>_GH__AJNELSON_NIST__CASE_EXAMPLES_QC</title>
<g id="a_node7"><a xlink:href="https://github.com/ajnelson-nist/CASE-Examples-QC" xlink:title="CASE&#45;Examples&#45;QC\nadopts CASE&#45;Examples and\nCASE website updates">
<path fill="#8ec7d2" stroke="#0d6986" d="M1498.5,-365.5C1498.5,-365.5 1307.5,-365.5 1307.5,-365.5 1301.5,-365.5 1295.5,-359.5 1295.5,-353.5 1295.5,-353.5 1295.5,-324.5 1295.5,-324.5 1295.5,-318.5 1301.5,-312.5 1307.5,-312.5 1307.5,-312.5 1498.5,-312.5 1498.5,-312.5 1504.5,-312.5 1510.5,-318.5 1510.5,-324.5 1510.5,-324.5 1510.5,-353.5 1510.5,-353.5 1510.5,-359.5 1504.5,-365.5 1498.5,-365.5"/>
<text text-anchor="middle" x="1403" y="-350.3" font-family="Times,serif" font-size="14.00">CASE&#45;Examples&#45;QC</text>
<text text-anchor="middle" x="1403" y="-335.3" font-family="Times,serif" font-size="14.00">adopts CASE&#45;Examples and</text>
<text text-anchor="middle" x="1403" y="-320.3" font-family="Times,serif" font-size="14.00">CASE website updates</text>
</a>
</g>
</g>
<!-- _GH__CASEWORK__CASE_IMPLEMENTATON_PROV_O -->
<g id="node12" class="node">
<title>_GH__CASEWORK__CASE_IMPLEMENTATON_PROV_O</title>
<g id="a_node12"><a xlink:href="https://github.com/casework/CASE-Implementation-PROV-O" xlink:title="case&#45;prov\nreleases">
<path fill="#8ec7d2" stroke="#0d6986" d="M1759,-415C1759,-415 1698,-415 1698,-415 1692,-415 1686,-409 1686,-403 1686,-403 1686,-389 1686,-389 1686,-383 1692,-377 1698,-377 1698,-377 1759,-377 1759,-377 1765,-377 1771,-383 1771,-389 1771,-389 1771,-403 1771,-403 1771,-409 1765,-415 1759,-415"/>
<text text-anchor="middle" x="1728.5" y="-399.8" font-family="Times,serif" font-size="14.00">case&#45;prov</text>
<text text-anchor="middle" x="1728.5" y="-384.8" font-family="Times,serif" font-size="14.00">releases</text>
</a>
</g>
</g>
<!-- _GH__AJNELSON_NIST__CASE_EXAMPLES_QC&#45;&gt;_GH__CASEWORK__CASE_IMPLEMENTATON_PROV_O -->
<g id="edge1" class="edge">
<title>_GH__AJNELSON_NIST__CASE_EXAMPLES_QC&#45;&gt;_GH__CASEWORK__CASE_IMPLEMENTATON_PROV_O</title>
<path fill="none" stroke="black" d="M1510.61,-345.16C1559.21,-349.69 1617.13,-357.51 1668,-371 1670.79,-371.74 1673.63,-372.59 1676.46,-373.51"/>
<polygon fill="black" stroke="black" points="1675.48,-376.87 1686.08,-376.89 1677.8,-370.27 1675.48,-376.87"/>
<text text-anchor="middle" x="1639.5" y="-389.8" font-family="Times,serif" font-size="14.00">Git sub&#45;</text>
<text text-anchor="middle" x="1639.5" y="-374.8" font-family="Times,serif" font-size="14.00">module</text>
</g>
<!-- _GH__CASEWORK__CASE_EXAMPLES -->
<g id="node8" class="node">
<title>_GH__CASEWORK__CASE_EXAMPLES</title>
<g id="a_node8"><a xlink:href="https://github.com/casework/CASE-Examples" xlink:title="CASE&#45;Examples\nadopts new case&#45;utils">
<path fill="#8ec7d2" stroke="#0d6986" d="M1005,-294C1005,-294 859,-294 859,-294 853,-294 847,-288 847,-282 847,-282 847,-268 847,-268 847,-262 853,-256 859,-256 859,-256 1005,-256 1005,-256 1011,-256 1017,-262 1017,-268 1017,-268 1017,-282 1017,-282 1017,-288 1011,-294 1005,-294"/>
<text text-anchor="middle" x="932" y="-278.8" font-family="Times,serif" font-size="14.00">CASE&#45;Examples</text>
<text text-anchor="middle" x="932" y="-263.8" font-family="Times,serif" font-size="14.00">adopts new case&#45;utils</text>
</a>
</g>
</g>
<!-- _GH__CASEWORK__CASE_EXAMPLES&#45;&gt;_GH__AJNELSON_NIST__CASE_EXAMPLES_QC -->
<g id="edge4" class="edge">
<title>_GH__CASEWORK__CASE_EXAMPLES&#45;&gt;_GH__AJNELSON_NIST__CASE_EXAMPLES_QC</title>
<path fill="none" stroke="black" d="M1017.13,-278.01C1068.91,-280.63 1136.53,-285.4 1196,-294 1225.21,-298.22 1256.46,-304.25 1285.56,-310.53"/>
<polygon fill="black" stroke="black" points="1284.83,-313.95 1295.35,-312.66 1286.32,-307.11 1284.83,-313.95"/>
<text text-anchor="middle" x="1136.5" y="-312.8" font-family="Times,serif" font-size="14.00">Git sub&#45;</text>
<text text-anchor="middle" x="1136.5" y="-297.8" font-family="Times,serif" font-size="14.00">module</text>
</g>
<!-- _GH__CASEWORK__CASE_UTILITIES_PYTHON&#45;&gt;_GH__CASEWORK__CASE_IMPLEMENTATON_EXIFTOOL -->
<g id="edge8" class="edge">
<title>_GH__CASEWORK__CASE_UTILITIES_PYTHON&#45;&gt;_GH__CASEWORK__CASE_IMPLEMENTATON_EXIFTOOL</title>
<path fill="none" stroke="black" d="M608.05,-287.57C671.13,-265.38 792.41,-222.73 867.07,-196.48"/>
<polygon fill="black" stroke="black" points="868.56,-199.67 876.83,-193.05 866.24,-193.06 868.56,-199.67"/>
<text text-anchor="middle" x="727.5" y="-267.8" font-family="Times,serif" font-size="14.00">TODO: Integrate</text>
</g>
<!-- _GH__CASEWORK__CASE_UTILITIES_PYTHON&#45;&gt;_GH__CASEWORK__CASE_IMPLEMENTATON_GNU_TIME -->
<g id="edge9" class="edge">
<title>_GH__CASEWORK__CASE_UTILITIES_PYTHON&#45;&gt;_GH__CASEWORK__CASE_IMPLEMENTATON_GNU_TIME</title>
<path fill="none" stroke="black" d="M596.96,-282.82C616.27,-269.3 640.88,-249.77 658,-228 664.39,-219.87 660.75,-214.37 668,-207 712.89,-161.38 738.61,-169.2 797,-143 821.13,-132.17 848.13,-121.1 871.53,-111.82"/>
<polygon fill="black" stroke="black" points="872.96,-115.02 880.98,-108.09 870.39,-108.51 872.96,-115.02"/>
<text text-anchor="middle" x="727.5" y="-210.8" font-family="Times,serif" font-size="14.00">TODO: Update</text>
</g>
<!-- _GH__CASEWORK__CASE_UTILITIES_PYTHON&#45;&gt;_GH__AJNELSON_NIST__CASE_EXAMPLES_QC -->
<g id="edge6" class="edge">
<title>_GH__CASEWORK__CASE_UTILITIES_PYTHON&#45;&gt;_GH__AJNELSON_NIST__CASE_EXAMPLES_QC</title>
<path fill="none" stroke="black" d="M608.22,-307.18C626.5,-309.3 648.3,-311.58 668,-313 885.5,-328.68 1139.98,-335.01 1284.96,-337.49"/>
<polygon fill="black" stroke="black" points="1285.15,-340.99 1295.2,-337.66 1285.26,-333.99 1285.15,-340.99"/>
<text text-anchor="middle" x="932" y="-334.8" font-family="Times,serif" font-size="14.00">PyPI</text>
</g>
<!-- _GH__CASEWORK__CASE_UTILITIES_PYTHON&#45;&gt;_GH__CASEWORK__CASE_EXAMPLES -->
<g id="edge7" class="edge">
<title>_GH__CASEWORK__CASE_UTILITIES_PYTHON&#45;&gt;_GH__CASEWORK__CASE_EXAMPLES</title>
<path fill="none" stroke="black" d="M608.05,-298.96C663.1,-294.87 762.47,-287.5 836.5,-282.01"/>
<polygon fill="black" stroke="black" points="837.06,-285.48 846.77,-281.25 836.54,-278.5 837.06,-285.48"/>
<text text-anchor="middle" x="727.5" y="-297.8" font-family="Times,serif" font-size="14.00">PyPI</text>
</g>
<!-- _GH__CASEWORK__CASEWORK_GITHUB_IO -->
<g id="node10" class="node">
<title>_GH__CASEWORK__CASEWORK_GITHUB_IO</title>
<g id="a_node10"><a xlink:href="https://github.com/casework/casework.github.io" xlink:title="CASE website\nadopts new case&#45;utils">
<path fill="#8ec7d2" stroke="#0d6986" d="M1005,-401C1005,-401 859,-401 859,-401 853,-401 847,-395 847,-389 847,-389 847,-375 847,-375 847,-369 853,-363 859,-363 859,-363 1005,-363 1005,-363 1011,-363 1017,-369 1017,-375 1017,-375 1017,-389 1017,-389 1017,-395 1011,-401 1005,-401"/>
<text text-anchor="middle" x="932" y="-385.8" font-family="Times,serif" font-size="14.00">CASE website</text>
<text text-anchor="middle" x="932" y="-370.8" font-family="Times,serif" font-size="14.00">adopts new case&#45;utils</text>
</a>
</g>
</g>
<!-- _GH__CASEWORK__CASE_UTILITIES_PYTHON&#45;&gt;_GH__CASEWORK__CASEWORK_GITHUB_IO -->
<g id="edge12" class="edge">
<title>_GH__CASEWORK__CASE_UTILITIES_PYTHON&#45;&gt;_GH__CASEWORK__CASEWORK_GITHUB_IO</title>
<path fill="none" stroke="black" d="M608.39,-316.96C626.52,-323.14 648.14,-330.01 668,-335 723.46,-348.94 786.49,-360.36 836.95,-368.44"/>
<polygon fill="black" stroke="black" points="836.44,-371.91 846.86,-370.02 837.54,-364.99 836.44,-371.91"/>
<text text-anchor="middle" x="727.5" y="-362.8" font-family="Times,serif" font-size="14.00">PyPI</text>
</g>
<!-- _GH__CASEWORK__CASE_UTILITIES_PYTHON&#45;&gt;_GH__CASEWORK__CASE_IMPLEMENTATON_PROV_O -->
<g id="edge10" class="edge">
<title>_GH__CASEWORK__CASE_UTILITIES_PYTHON&#45;&gt;_GH__CASEWORK__CASE_IMPLEMENTATON_PROV_O</title>
<path fill="none" stroke="black" d="M587.42,-321.33C606.74,-338.61 637.29,-363.39 668,-378 721.34,-403.38 738.37,-402.84 797,-410 916.11,-424.55 947,-410.9 1067,-410 1334.13,-408 1401.18,-414.19 1668,-401 1670.54,-400.87 1673.13,-400.73 1675.75,-400.56"/>
<polygon fill="black" stroke="black" points="1676.18,-404.04 1685.91,-399.86 1675.69,-397.06 1676.18,-404.04"/>
<text text-anchor="middle" x="1136.5" y="-412.8" font-family="Times,serif" font-size="14.00">PyPI</text>
</g>
<!-- _GH__KCHASON__CASE_VALIDATION_ACTION -->
<g id="node16" class="node">
<title>_GH__KCHASON__CASE_VALIDATION_ACTION</title>
<g id="a_node16"><a xlink:href="https://github.com/kchason/case-validation-action" xlink:title="case&#45;validation&#45;action\nreleases">
<path fill="#8ec7d2" stroke="#0d6986" d="M1005.5,-477C1005.5,-477 858.5,-477 858.5,-477 852.5,-477 846.5,-471 846.5,-465 846.5,-465 846.5,-451 846.5,-451 846.5,-445 852.5,-439 858.5,-439 858.5,-439 1005.5,-439 1005.5,-439 1011.5,-439 1017.5,-445 1017.5,-451 1017.5,-451 1017.5,-465 1017.5,-465 1017.5,-471 1011.5,-477 1005.5,-477"/>
<text text-anchor="middle" x="932" y="-461.8" font-family="Times,serif" font-size="14.00">case&#45;validation&#45;action</text>
<text text-anchor="middle" x="932" y="-446.8" font-family="Times,serif" font-size="14.00">releases</text>
</a>
</g>
</g>
<!-- _GH__CASEWORK__CASE_UTILITIES_PYTHON&#45;&gt;_GH__KCHASON__CASE_VALIDATION_ACTION -->
<g id="edge11" class="edge">
<title>_GH__CASEWORK__CASE_UTILITIES_PYTHON&#45;&gt;_GH__KCHASON__CASE_VALIDATION_ACTION</title>
<path fill="none" stroke="black" d="M576.65,-321.27C591.85,-349.36 624.21,-400.84 668,-425 719.01,-453.14 783.88,-461.52 836.43,-462.8"/>
<polygon fill="black" stroke="black" points="836.38,-466.3 846.43,-462.96 836.49,-459.3 836.38,-466.3"/>
<text text-anchor="middle" x="727.5" y="-462.8" font-family="Times,serif" font-size="14.00">PyPI</text>
</g>
<!-- _GH__CASEWORK__CASEWORK_GITHUB_IO&#45;&gt;_GH__AJNELSON_NIST__CASE_EXAMPLES_QC -->
<g id="edge13" class="edge">
<title>_GH__CASEWORK__CASEWORK_GITHUB_IO&#45;&gt;_GH__AJNELSON_NIST__CASE_EXAMPLES_QC</title>
<path fill="none" stroke="black" d="M1017.19,-363.49C1036.74,-359.79 1057.53,-356.33 1077,-354 1145.67,-345.78 1222.99,-342 1284.98,-340.28"/>
<polygon fill="black" stroke="black" points="1285.29,-343.77 1295.19,-340.01 1285.1,-336.78 1285.29,-343.77"/>
<text text-anchor="middle" x="1136.5" y="-372.8" font-family="Times,serif" font-size="14.00">Git sub&#45;</text>
<text text-anchor="middle" x="1136.5" y="-357.8" font-family="Times,serif" font-size="14.00">module</text>
</g>
<!-- _GH__CASEWORK__CASE_CORPORA -->
<g id="node11" class="node">
<title>_GH__CASEWORK__CASE_CORPORA</title>
<g id="a_node11"><a xlink:href="https://github.com/casework/CASE-Corpora" xlink:title="CASE&#45;Corpora\nadopts new case&#45;prov">
<path fill="#8ec7d2" stroke="#0d6986" d="M2000,-415C2000,-415 1853,-415 1853,-415 1847,-415 1841,-409 1841,-403 1841,-403 1841,-389 1841,-389 1841,-383 1847,-377 1853,-377 1853,-377 2000,-377 2000,-377 2006,-377 2012,-383 2012,-389 2012,-389 2012,-403 2012,-403 2012,-409 2006,-415 2000,-415"/>
<text text-anchor="middle" x="1926.5" y="-399.8" font-family="Times,serif" font-size="14.00">CASE&#45;Corpora</text>
<text text-anchor="middle" x="1926.5" y="-384.8" font-family="Times,serif" font-size="14.00">adopts new case&#45;prov</text>
</a>
</g>
</g>
<!-- _GH__CASEWORK__CASE_IMPLEMENTATON_PROV_O&#45;&gt;_GH__CASEWORK__CASE_CORPORA -->
<g id="edge5" class="edge">
<title>_GH__CASEWORK__CASE_IMPLEMENTATON_PROV_O&#45;&gt;_GH__CASEWORK__CASE_CORPORA</title>
<path fill="none" stroke="black" d="M1771.07,-396C1788.55,-396 1809.66,-396 1830.58,-396"/>
<polygon fill="black" stroke="black" points="1830.82,-399.5 1840.82,-396 1830.82,-392.5 1830.82,-399.5"/>
<text text-anchor="middle" x="1806" y="-399.8" font-family="Times,serif" font-size="14.00">PyPI</text>
</g>
<!-- _GH__CASEWORK__CASE_IMPLEMENTATON_UFED_XML -->
<g id="node13" class="node">
<title>_GH__CASEWORK__CASE_IMPLEMENTATON_UFED_XML</title>
<g id="a_node13"><a xlink:href="https://github.com/casework/CASE-Implementation-UFED-XML" xlink:title="CASE&#45;Implementation&#45;UFED&#45;XML\nadopts new case&#45;validation&#45;action">
<path fill="#8ec7d2" stroke="#0d6986" d="M1521,-570C1521,-570 1285,-570 1285,-570 1279,-570 1273,-564 1273,-558 1273,-558 1273,-544 1273,-544 1273,-538 1279,-532 1285,-532 1285,-532 1521,-532 1521,-532 1527,-532 1533,-538 1533,-544 1533,-544 1533,-558 1533,-558 1533,-564 1527,-570 1521,-570"/>
<text text-anchor="middle" x="1403" y="-554.8" font-family="Times,serif" font-size="14.00">CASE&#45;Implementation&#45;UFED&#45;XML</text>
<text text-anchor="middle" x="1403" y="-539.8" font-family="Times,serif" font-size="14.00">adopts new case&#45;validation&#45;action</text>
</a>
</g>
</g>
<!-- _GH__CASEWORK__CASE_MAPPING_TEMPLATE_PYTHON -->
<g id="node14" class="node">
<title>_GH__CASEWORK__CASE_MAPPING_TEMPLATE_PYTHON</title>
<g id="a_node14"><a xlink:href="https://github.com/casework/CASE-Mapping-Template-Python" xlink:title="CASE&#45;Mapping&#45;Template&#45;Python\nadopts new case&#45;validation&#45;action">
<path fill="#8ec7d2" stroke="#0d6986" d="M1519.5,-655C1519.5,-655 1286.5,-655 1286.5,-655 1280.5,-655 1274.5,-649 1274.5,-643 1274.5,-643 1274.5,-629 1274.5,-629 1274.5,-623 1280.5,-617 1286.5,-617 1286.5,-617 1519.5,-617 1519.5,-617 1525.5,-617 1531.5,-623 1531.5,-629 1531.5,-629 1531.5,-643 1531.5,-643 1531.5,-649 1525.5,-655 1519.5,-655"/>
<text text-anchor="middle" x="1403" y="-639.8" font-family="Times,serif" font-size="14.00">CASE&#45;Mapping&#45;Template&#45;Python</text>
<text text-anchor="middle" x="1403" y="-624.8" font-family="Times,serif" font-size="14.00">adopts new case&#45;validation&#45;action</text>
</a>
</g>
</g>
<!-- _GH__CASEWORK__CASE_IMPLEMENTATON_XRY -->
<g id="node15" class="node">
<title>_GH__CASEWORK__CASE_IMPLEMENTATON_XRY</title>
<g id="a_node15"><a xlink:href="https://github.com/casework/CASE-Implementation-XRY" xlink:title="CASE&#45;Implementation&#45;XRY adopts\nnew case&#45;validation&#45;action">
<path fill="#8ec7d2" stroke="#0d6986" d="M1521,-475C1521,-475 1285,-475 1285,-475 1279,-475 1273,-469 1273,-463 1273,-463 1273,-449 1273,-449 1273,-443 1279,-437 1285,-437 1285,-437 1521,-437 1521,-437 1527,-437 1533,-443 1533,-449 1533,-449 1533,-463 1533,-463 1533,-469 1527,-475 1521,-475"/>
<text text-anchor="middle" x="1403" y="-459.8" font-family="Times,serif" font-size="14.00">CASE&#45;Implementation&#45;XRY adopts</text>
<text text-anchor="middle" x="1403" y="-444.8" font-family="Times,serif" font-size="14.00">new case&#45;validation&#45;action</text>
</a>
</g>
</g>
<!-- _GH__KCHASON__CASE_VALIDATION_ACTION&#45;&gt;_GH__CASEWORK__CASE_IMPLEMENTATON_UFED_XML -->
<g id="edge17" class="edge">
<title>_GH__KCHASON__CASE_VALIDATION_ACTION&#45;&gt;_GH__CASEWORK__CASE_IMPLEMENTATON_UFED_XML</title>
<path fill="none" stroke="black" d="M1013.22,-477.02C1033.96,-481.76 1056.28,-486.72 1077,-491 1144.73,-505.01 1220.73,-519.12 1282.2,-530.14"/>
<polygon fill="black" stroke="black" points="1281.87,-533.64 1292.33,-531.96 1283.1,-526.75 1281.87,-533.64"/>
<text text-anchor="middle" x="1136.5" y="-531.8" font-family="Times,serif" font-size="14.00">GitHub</text>
<text text-anchor="middle" x="1136.5" y="-516.8" font-family="Times,serif" font-size="14.00">Action</text>
</g>
<!-- _GH__KCHASON__CASE_VALIDATION_ACTION&#45;&gt;_GH__CASEWORK__CASE_MAPPING_TEMPLATE_PYTHON -->
<g id="edge19" class="edge">
<title>_GH__KCHASON__CASE_VALIDATION_ACTION&#45;&gt;_GH__CASEWORK__CASE_MAPPING_TEMPLATE_PYTHON</title>
<path fill="none" stroke="black" d="M959.48,-477.17C987.55,-496.8 1033.71,-527.18 1077,-547 1154.96,-582.7 1178.16,-582.88 1261,-605 1273.54,-608.35 1286.78,-611.61 1299.92,-614.69"/>
<polygon fill="black" stroke="black" points="1299.41,-618.16 1309.94,-617 1300.98,-611.34 1299.41,-618.16"/>
<text text-anchor="middle" x="1136.5" y="-605.8" font-family="Times,serif" font-size="14.00">GitHub</text>
<text text-anchor="middle" x="1136.5" y="-590.8" font-family="Times,serif" font-size="14.00">Action</text>
</g>
<!-- _GH__KCHASON__CASE_VALIDATION_ACTION&#45;&gt;_GH__CASEWORK__CASE_IMPLEMENTATON_XRY -->
<g id="edge18" class="edge">
<title>_GH__KCHASON__CASE_VALIDATION_ACTION&#45;&gt;_GH__CASEWORK__CASE_IMPLEMENTATON_XRY</title>
<path fill="none" stroke="black" d="M1017.66,-457.64C1085.85,-457.35 1183.13,-456.93 1262.76,-456.59"/>
<polygon fill="black" stroke="black" points="1262.89,-460.09 1272.87,-456.55 1262.86,-453.09 1262.89,-460.09"/>
<text text-anchor="middle" x="1136.5" y="-475.8" font-family="Times,serif" font-size="14.00">GitHub</text>
<text text-anchor="middle" x="1136.5" y="-460.8" font-family="Times,serif" font-size="14.00">Action</text>
</g>
<!-- _GH__CASEWORK__CASE_IMPLEMENTATON_PYPI_EXIFREAD -->
<g id="node17" class="node">
<title>_GH__CASEWORK__CASE_IMPLEMENTATON_PYPI_EXIFREAD</title>
<g id="a_node17"><a xlink:href="https://github.com/casework/CASE-Implementation-PyPI-Exifread" xlink:title="CASE&#45;Implementation&#45;PyPI&#45;Exifread\nadopts new case&#45;validation&#45;action">
<path fill="#8ec7d2" stroke="#0d6986" d="M1530,-112C1530,-112 1276,-112 1276,-112 1270,-112 1264,-106 1264,-100 1264,-100 1264,-86 1264,-86 1264,-80 1270,-74 1276,-74 1276,-74 1530,-74 1530,-74 1536,-74 1542,-80 1542,-86 1542,-86 1542,-100 1542,-100 1542,-106 1536,-112 1530,-112"/>
<text text-anchor="middle" x="1403" y="-96.8" font-family="Times,serif" font-size="14.00">CASE&#45;Implementation&#45;PyPI&#45;Exifread</text>
<text text-anchor="middle" x="1403" y="-81.8" font-family="Times,serif" font-size="14.00">adopts new case&#45;validation&#45;action</text>
</a>
</g>
</g>
<!-- _GH__KCHASON__CASE_VALIDATION_ACTION&#45;&gt;_GH__CASEWORK__CASE_IMPLEMENTATON_PYPI_EXIFREAD -->
<g id="edge15" class="edge">
<title>_GH__KCHASON__CASE_VALIDATION_ACTION&#45;&gt;_GH__CASEWORK__CASE_IMPLEMENTATON_PYPI_EXIFREAD</title>
<path fill="none" stroke="black" d="M1017.66,-460.68C1036.43,-457.03 1054.46,-449.43 1067,-435 1090.85,-407.57 1051.5,-133.9 1077,-108 1141.66,-42.32 1255.93,-54.28 1330.3,-71.58"/>
<polygon fill="black" stroke="black" points="1329.53,-74.99 1340.07,-73.94 1331.17,-68.19 1329.53,-74.99"/>
<text text-anchor="middle" x="1136.5" y="-111.8" font-family="Times,serif" font-size="14.00">TODO: Integrate</text>
</g>
<!-- _GH__CASEWORK__CASE_IMPLEMENTATON_PYPI_PILLOW -->
<g id="node18" class="node">
<title>_GH__CASEWORK__CASE_IMPLEMENTATON_PYPI_PILLOW</title>
<g id="a_node18"><a xlink:href="https://github.com/casework/CASE-Implementation-PyPI-Pillow" xlink:title="CASE&#45;Implementation&#45;PyPI&#45;Pillow\nadopts new case&#45;validation&#45;action">
<path fill="#8ec7d2" stroke="#0d6986" d="M1521,-224C1521,-224 1285,-224 1285,-224 1279,-224 1273,-218 1273,-212 1273,-212 1273,-198 1273,-198 1273,-192 1279,-186 1285,-186 1285,-186 1521,-186 1521,-186 1527,-186 1533,-192 1533,-198 1533,-198 1533,-212 1533,-212 1533,-218 1527,-224 1521,-224"/>
<text text-anchor="middle" x="1403" y="-208.8" font-family="Times,serif" font-size="14.00">CASE&#45;Implementation&#45;PyPI&#45;Pillow</text>
<text text-anchor="middle" x="1403" y="-193.8" font-family="Times,serif" font-size="14.00">adopts new case&#45;validation&#45;action</text>
</a>
</g>
</g>
<!-- _GH__KCHASON__CASE_VALIDATION_ACTION&#45;&gt;_GH__CASEWORK__CASE_IMPLEMENTATON_PYPI_PILLOW -->
<g id="edge16" class="edge">
<title>_GH__KCHASON__CASE_VALIDATION_ACTION&#45;&gt;_GH__CASEWORK__CASE_IMPLEMENTATON_PYPI_PILLOW</title>
<path fill="none" stroke="black" d="M1017.82,-460.45C1036.48,-456.78 1054.4,-449.23 1067,-435 1082.19,-417.84 1061,-245.41 1077,-229 1102.75,-202.59 1186.59,-196.86 1262.66,-197.59"/>
<polygon fill="black" stroke="black" points="1262.81,-201.09 1272.85,-197.73 1262.9,-194.09 1262.81,-201.09"/>
<text text-anchor="middle" x="1136.5" y="-232.8" font-family="Times,serif" font-size="14.00">TODO: Integrate</text>
</g>
<!-- _GH__DOD_CYBER_CRIME_CENTER__SQLITE_DISSECT -->
<g id="node19" class="node">
<title>_GH__DOD_CYBER_CRIME_CENTER__SQLITE_DISSECT</title>
<g id="a_node19"><a xlink:href="https://github.com/dod-cyber-crime-center/sqlite-dissect" xlink:title="sqlite&#45;dissect\nadopts new case&#45;validation&#45;action">
<path fill="#8ec7d2" stroke="#0d6986" d="M1519.5,-168C1519.5,-168 1286.5,-168 1286.5,-168 1280.5,-168 1274.5,-162 1274.5,-156 1274.5,-156 1274.5,-142 1274.5,-142 1274.5,-136 1280.5,-130 1286.5,-130 1286.5,-130 1519.5,-130 1519.5,-130 1525.5,-130 1531.5,-136 1531.5,-142 1531.5,-142 1531.5,-156 1531.5,-156 1531.5,-162 1525.5,-168 1519.5,-168"/>
<text text-anchor="middle" x="1403" y="-152.8" font-family="Times,serif" font-size="14.00">sqlite&#45;dissect</text>
<text text-anchor="middle" x="1403" y="-137.8" font-family="Times,serif" font-size="14.00">adopts new case&#45;validation&#45;action</text>
</a>
</g>
</g>
<!-- _GH__KCHASON__CASE_VALIDATION_ACTION&#45;&gt;_GH__DOD_CYBER_CRIME_CENTER__SQLITE_DISSECT -->
<g id="edge14" class="edge">
<title>_GH__KCHASON__CASE_VALIDATION_ACTION&#45;&gt;_GH__DOD_CYBER_CRIME_CENTER__SQLITE_DISSECT</title>
<g id="a_edge14"><a xlink:href="https://github.com/dod-cyber-crime-center/sqlite-dissect/pull/31" xlink:title="TODO: PR 31">
<path fill="none" stroke="black" d="M1017.57,-460.6C1036.35,-456.96 1054.39,-449.37 1067,-435 1085.77,-413.6 1057.41,-199.65 1077,-179 1135.37,-117.45 1236.62,-117.63 1310.63,-128.39"/>
<polygon fill="black" stroke="black" points="1310.47,-131.9 1320.89,-129.97 1311.54,-124.99 1310.47,-131.9"/>
</a>
</g>
<g id="a_edge14&#45;label"><a xlink:href="https://github.com/dod-cyber-crime-center/sqlite-dissect/pull/31" xlink:title="TODO: PR 31">
<text text-anchor="middle" x="1136.5" y="-182.8" font-family="Times,serif" font-size="14.00">TODO: PR 31</text>
</a>
</g>
</g>
</g>
</svg>
