<?xml version="1.0" encoding="UTF-8" standalone="no"?>
<!DOCTYPE svg PUBLIC "-//W3C//DTD SVG 1.1//EN"
 "http://www.w3.org/Graphics/SVG/1.1/DTD/svg11.dtd">
<!-- Generated by graphviz version 7.1.0 (20230121.1956)
 -->
<!-- Title: cdo_release_flow Pages: 1 -->
<svg width="1830pt" height="916pt"
 viewBox="0.00 0.00 1830.00 916.02" xmlns="http://www.w3.org/2000/svg" xmlns:xlink="http://www.w3.org/1999/xlink">
<g id="graph0" class="graph" transform="scale(1 1) rotate(0) translate(4 912.02)">
<title>cdo_release_flow</title>
<polygon fill="white" stroke="none" points="-4,4 -4,-912.02 1826,-912.02 1826,4 -4,4"/>
<text text-anchor="middle" x="911" y="-38.8" font-family="Times,serif" font-size="14.00">Release flow of CDO ontologies</text>
<text text-anchor="middle" x="911" y="-7.8" font-family="Times,serif" font-size="14.00">Nodes link to the respective Git repository.</text>
<g id="clust1" class="cluster">
<title>cluster_uco_0_9_1</title>
<polygon fill="none" stroke="black" points="189,-334 189,-498 357,-498 357,-334 189,-334"/>
<text text-anchor="middle" x="273" y="-482.8" font-family="Times,serif" font-size="14.00">Adoption of UCO 0.9.1</text>
</g>
<g id="clust2" class="cluster">
<title>cluster_case_0_7_1</title>
<polygon fill="none" stroke="black" points="197,-390 197,-467 349,-467 349,-390 197,-390"/>
<text text-anchor="middle" x="273" y="-451.8" font-family="Times,serif" font-size="14.00">Adoption of CASE 0.7.1</text>
</g>
<g id="clust3" class="cluster">
<title>cluster_uco_1_1_0</title>
<polygon fill="none" stroke="black" points="991,-62 991,-758 1814,-758 1814,-62 991,-62"/>
<text text-anchor="middle" x="1402.5" y="-742.8" font-family="Times,serif" font-size="14.00">Adoption of UCO 1.1.0</text>
</g>
<g id="clust4" class="cluster">
<title>cluster_case_1_1_0</title>
<polygon fill="none" stroke="black" points="999,-70 999,-727 1806,-727 1806,-70 999,-70"/>
<text text-anchor="middle" x="1402.5" y="-711.8" font-family="Times,serif" font-size="14.00">Adoption of CASE 1.1.0</text>
</g>
<g id="clust5" class="cluster">
<title>cluster_case_utils_0_9_0</title>
<polygon fill="none" stroke="black" points="1007,-78 1007,-696 1798,-696 1798,-78 1007,-78"/>
<text text-anchor="middle" x="1402.5" y="-680.8" font-family="Times,serif" font-size="14.00">Adoption of case&#45;utils 0.9.0</text>
</g>
<g id="clust6" class="cluster">
<title>cluster_case_prov_0_6_0</title>
<polygon fill="none" stroke="black" points="1411,-588 1411,-665 1790,-665 1790,-588 1411,-588"/>
<text text-anchor="middle" x="1600.5" y="-649.8" font-family="Times,serif" font-size="14.00">Adoption of case&#45;prov 0.6.0</text>
</g>
<g id="clust7" class="cluster">
<title>cluster_case_validation_action_2_3</title>
<polygon fill="none" stroke="black" points="1018,-526 1018,-603 1252,-603 1252,-526 1018,-526"/>
<text text-anchor="middle" x="1135" y="-587.8" font-family="Times,serif" font-size="14.00">Adoption of case&#45;validation&#45;action 2.3</text>
</g>
<g id="clust8" class="cluster">
<title>cluster_case_validation_action_2_5</title>
<polygon fill="none" stroke="black" points="1015,-188 1015,-518 1595,-518 1595,-188 1015,-188"/>
<text text-anchor="middle" x="1305" y="-502.8" font-family="Times,serif" font-size="14.00">Adoption of case&#45;validation&#45;action 2.5</text>
</g>
<g id="clust9" class="cluster">
<title>cluster_case_bindings_csharp_0_3_0</title>
<polygon fill="none" stroke="black" points="1040.5,-196 1040.5,-273 1587,-273 1587,-196 1040.5,-196"/>
<text text-anchor="middle" x="1313.75" y="-257.8" font-family="Times,serif" font-size="14.00">Adoption of CSharp bindings 0.3.0</text>
</g>
<g id="clust10" class="cluster">
<title>cluster_uco_1_2_0</title>
<polygon fill="none" stroke="black" points="8,-506 8,-850 896,-850 896,-506 8,-506"/>
<text text-anchor="middle" x="452" y="-834.8" font-family="Times,serif" font-size="14.00">Adoption of UCO 1.2.0</text>
</g>
<g id="clust11" class="cluster">
<title>cluster_case_1_2_0</title>
<polygon fill="none" stroke="black" points="212,-514 212,-819 888,-819 888,-514 212,-514"/>
<text text-anchor="middle" x="550" y="-803.8" font-family="Times,serif" font-size="14.00">Adoption of CASE 1.2.0</text>
</g>
<g id="clust12" class="cluster">
<title>cluster_case_utils_0_10_0</title>
<polygon fill="none" stroke="black" points="456,-568 456,-788 880,-788 880,-568 456,-568"/>
<text text-anchor="middle" x="668" y="-772.8" font-family="Times,serif" font-size="14.00">Adoption of case&#45;utils 0.10.0</text>
</g>
<g id="clust13" class="cluster">
<title>cluster_case_validation_action_2_6</title>
<polygon fill="none" stroke="black" points="645,-680 645,-757 872,-757 872,-680 645,-680"/>
<text text-anchor="middle" x="758.5" y="-741.8" font-family="Times,serif" font-size="14.00">Adoption of case&#45;validation&#45;action 2.6</text>
</g>
<!-- _GH__UCOPROJECT__ONTOLOGY_UNIFIEDCYBERONTOLOGY_ORG -->
<g id="node1" class="node">
<title>_GH__UCOPROJECT__ONTOLOGY_UNIFIEDCYBERONTOLOGY_ORG</title>
<g id="a_node1"><a xlink:href="https://github.com/ucoProject/ontology.unifiedcyberontology.org" xlink:title="UCO documentation\nregenerated">
<path fill="#8ec7d2" stroke="#0d6986" d="M326,-380C326,-380 220,-380 220,-380 214,-380 208,-374 208,-368 208,-368 208,-354 208,-354 208,-348 214,-342 220,-342 220,-342 326,-342 326,-342 332,-342 338,-348 338,-354 338,-354 338,-368 338,-368 338,-374 332,-380 326,-380"/>
<text text-anchor="middle" x="273" y="-364.8" font-family="Times,serif" font-size="14.00">UCO documentation</text>
<text text-anchor="middle" x="273" y="-349.8" font-family="Times,serif" font-size="14.00">regenerated</text>
</a>
</g>
</g>
<!-- _GH__CASEWORK__CASE_MAPPING_TEMPLATE_STUBS -->
<g id="node2" class="node">
<title>_GH__CASEWORK__CASE_MAPPING_TEMPLATE_STUBS</title>
<g id="a_node2"><a xlink:href="https://github.com/casework/CASE-Mapping-Template-Stubs" xlink:title="CASE Mapping\nTemplate Stubs">
<path fill="#8ec7d2" stroke="#0d6986" d="M313,-436C313,-436 233,-436 233,-436 227,-436 221,-430 221,-424 221,-424 221,-410 221,-410 221,-404 227,-398 233,-398 233,-398 313,-398 313,-398 319,-398 325,-404 325,-410 325,-410 325,-424 325,-424 325,-430 319,-436 313,-436"/>
<text text-anchor="middle" x="273" y="-420.8" font-family="Times,serif" font-size="14.00">CASE Mapping</text>
<text text-anchor="middle" x="273" y="-405.8" font-family="Times,serif" font-size="14.00">Template Stubs</text>
</a>
</g>
</g>
<!-- _GH__AJNELSON_NIST__CASE_EXAMPLES_QC -->
<g id="node3" class="node">
<title>_GH__AJNELSON_NIST__CASE_EXAMPLES_QC</title>
<g id="a_node3"><a xlink:href="https://github.com/ajnelson-nist/CASE-Examples-QC" xlink:title="CASE&#45;Examples&#45;QC\nadopts CASE&#45;Examples and\nCASE website updates">
<path fill="#8ec7d2" stroke="#0d6986" d="M1209,-664.5C1209,-664.5 1061,-664.5 1061,-664.5 1055,-664.5 1049,-658.5 1049,-652.5 1049,-652.5 1049,-623.5 1049,-623.5 1049,-617.5 1055,-611.5 1061,-611.5 1061,-611.5 1209,-611.5 1209,-611.5 1215,-611.5 1221,-617.5 1221,-623.5 1221,-623.5 1221,-652.5 1221,-652.5 1221,-658.5 1215,-664.5 1209,-664.5"/>
<text text-anchor="middle" x="1135" y="-649.3" font-family="Times,serif" font-size="14.00">CASE&#45;Examples&#45;QC</text>
<text text-anchor="middle" x="1135" y="-634.3" font-family="Times,serif" font-size="14.00">adopts CASE&#45;Examples and</text>
<text text-anchor="middle" x="1135" y="-619.3" font-family="Times,serif" font-size="14.00">CASE website updates</text>
</a>
</g>
</g>
<!-- _GH__CASEWORK__CASE_IMPLEMENTATON_PROV_O -->
<g id="node7" class="node">
<title>_GH__CASEWORK__CASE_IMPLEMENTATON_PROV_O</title>
<g id="a_node7"><a xlink:href="https://github.com/casework/CASE-Implementation-PROV-O" xlink:title="case&#45;prov\nreleases">
<path fill="#8ec7d2" stroke="#0d6986" d="M1476,-634C1476,-634 1431,-634 1431,-634 1425,-634 1419,-628 1419,-622 1419,-622 1419,-608 1419,-608 1419,-602 1425,-596 1431,-596 1431,-596 1476,-596 1476,-596 1482,-596 1488,-602 1488,-608 1488,-608 1488,-622 1488,-622 1488,-628 1482,-634 1476,-634"/>
<text text-anchor="middle" x="1453.5" y="-618.8" font-family="Times,serif" font-size="14.00">case&#45;prov</text>
<text text-anchor="middle" x="1453.5" y="-603.8" font-family="Times,serif" font-size="14.00">releases</text>
</a>
</g>
</g>
<!-- _GH__AJNELSON_NIST__CASE_EXAMPLES_QC&#45;&gt;_GH__CASEWORK__CASE_IMPLEMENTATON_PROV_O -->
<g id="edge1" class="edge">
<title>_GH__AJNELSON_NIST__CASE_EXAMPLES_QC&#45;&gt;_GH__CASEWORK__CASE_IMPLEMENTATON_PROV_O</title>
<path fill="none" stroke="black" d="M1221.23,-631.81C1281.11,-627.45 1358.85,-621.81 1407.2,-618.29"/>
<polygon fill="black" stroke="black" points="1407.31,-621.79 1417.03,-617.58 1406.8,-614.81 1407.31,-621.79"/>
<text text-anchor="middle" x="1287.5" y="-647.8" font-family="Times,serif" font-size="14.00">Git sub&#45;</text>
<text text-anchor="middle" x="1287.5" y="-632.8" font-family="Times,serif" font-size="14.00">module</text>
</g>
<!-- _GH__CASEWORK__CASE_IMPLEMENTATON_EXIFTOOL -->
<g id="node4" class="node">
<title>_GH__CASEWORK__CASE_IMPLEMENTATON_EXIFTOOL</title>
<g id="a_node4"><a xlink:href="https://github.com/casework/CASE-Implementation-ExifTool" xlink:title="CASE&#45;Implementation&#45;ExifTool\nadopts new case&#45;utils">
<path fill="#8ec7d2" stroke="#0d6986" d="M1221,-180C1221,-180 1049,-180 1049,-180 1043,-180 1037,-174 1037,-168 1037,-168 1037,-154 1037,-154 1037,-148 1043,-142 1049,-142 1049,-142 1221,-142 1221,-142 1227,-142 1233,-148 1233,-154 1233,-154 1233,-168 1233,-168 1233,-174 1227,-180 1221,-180"/>
<text text-anchor="middle" x="1135" y="-164.8" font-family="Times,serif" font-size="14.00">CASE&#45;Implementation&#45;ExifTool</text>
<text text-anchor="middle" x="1135" y="-149.8" font-family="Times,serif" font-size="14.00">adopts new case&#45;utils</text>
</a>
</g>
</g>
<!-- _GH__CASEWORK__CASE_IMPLEMENTATON_GNU_TIME -->
<g id="node5" class="node">
<title>_GH__CASEWORK__CASE_IMPLEMENTATON_GNU_TIME</title>
<g id="a_node5"><a xlink:href="https://github.com/casework/CASE-Implementation-GNU-Time" xlink:title="CASE&#45;Implementation&#45;GNU&#45;Time\nadopts new case&#45;utils">
<path fill="#8ec7d2" stroke="#0d6986" d="M1228,-124C1228,-124 1042,-124 1042,-124 1036,-124 1030,-118 1030,-112 1030,-112 1030,-98 1030,-98 1030,-92 1036,-86 1042,-86 1042,-86 1228,-86 1228,-86 1234,-86 1240,-92 1240,-98 1240,-98 1240,-112 1240,-112 1240,-118 1234,-124 1228,-124"/>
<text text-anchor="middle" x="1135" y="-108.8" font-family="Times,serif" font-size="14.00">CASE&#45;Implementation&#45;GNU&#45;Time</text>
<text text-anchor="middle" x="1135" y="-93.8" font-family="Times,serif" font-size="14.00">adopts new case&#45;utils</text>
</a>
</g>
</g>
<!-- _GH__CASEWORK__CASE_CORPORA -->
<g id="node6" class="node">
<title>_GH__CASEWORK__CASE_CORPORA</title>
<g id="a_node6"><a xlink:href="https://github.com/casework/CASE-Corpora" xlink:title="CASE&#45;Corpora\nadopts new case&#45;prov">
<path fill="#8ec7d2" stroke="#0d6986" d="M1770,-634C1770,-634 1660,-634 1660,-634 1654,-634 1648,-628 1648,-622 1648,-622 1648,-608 1648,-608 1648,-602 1654,-596 1660,-596 1660,-596 1770,-596 1770,-596 1776,-596 1782,-602 1782,-608 1782,-608 1782,-622 1782,-622 1782,-628 1776,-634 1770,-634"/>
<text text-anchor="middle" x="1715" y="-618.8" font-family="Times,serif" font-size="14.00">CASE&#45;Corpora</text>
<text text-anchor="middle" x="1715" y="-603.8" font-family="Times,serif" font-size="14.00">adopts new case&#45;prov</text>
</a>
</g>
</g>
<!-- _GH__CASEWORK__CASE_IMPLEMENTATON_PROV_O&#45;&gt;_GH__CASEWORK__CASE_CORPORA -->
<g id="edge6" class="edge">
<title>_GH__CASEWORK__CASE_IMPLEMENTATON_PROV_O&#45;&gt;_GH__CASEWORK__CASE_CORPORA</title>
<path fill="none" stroke="black" d="M1488.43,-615C1525.77,-615 1587.04,-615 1636.31,-615"/>
<polygon fill="black" stroke="black" points="1636.07,-618.5 1646.07,-615 1636.07,-611.5 1636.07,-618.5"/>
<text text-anchor="middle" x="1616.5" y="-618.8" font-family="Times,serif" font-size="14.00">PyPI</text>
</g>
<!-- _GH__CASEWORK__CASE_IMPLEMENTATON_UFED_XML -->
<g id="node8" class="node">
<title>_GH__CASEWORK__CASE_IMPLEMENTATON_UFED_XML</title>
<g id="a_node8"><a xlink:href="https://github.com/casework/CASE-Implementation-UFED-XML" xlink:title="CASE&#45;Implementation&#45;UFED&#45;XML\nadopts new case&#45;validation&#45;action">
<path fill="#8ec7d2" stroke="#0d6986" d="M1232,-572C1232,-572 1038,-572 1038,-572 1032,-572 1026,-566 1026,-560 1026,-560 1026,-546 1026,-546 1026,-540 1032,-534 1038,-534 1038,-534 1232,-534 1232,-534 1238,-534 1244,-540 1244,-546 1244,-546 1244,-560 1244,-560 1244,-566 1238,-572 1232,-572"/>
<text text-anchor="middle" x="1135" y="-556.8" font-family="Times,serif" font-size="14.00">CASE&#45;Implementation&#45;UFED&#45;XML</text>
<text text-anchor="middle" x="1135" y="-541.8" font-family="Times,serif" font-size="14.00">adopts new case&#45;validation&#45;action</text>
</a>
</g>
</g>
<!-- _GH__CASEWORK__CASE_IMPLEMENTATON_PYPI_EXIFREAD -->
<g id="node9" class="node">
<title>_GH__CASEWORK__CASE_IMPLEMENTATON_PYPI_EXIFREAD</title>
<g id="a_node9"><a xlink:href="https://github.com/casework/CASE-Implementation-PyPI-Exifread" xlink:title="CASE&#45;Implementation&#45;PyPI&#45;Exifread\nadopts new case&#45;validation&#45;action">
<path fill="#8ec7d2" stroke="#0d6986" d="M1235,-375C1235,-375 1035,-375 1035,-375 1029,-375 1023,-369 1023,-363 1023,-363 1023,-349 1023,-349 1023,-343 1029,-337 1035,-337 1035,-337 1235,-337 1235,-337 1241,-337 1247,-343 1247,-349 1247,-349 1247,-363 1247,-363 1247,-369 1241,-375 1235,-375"/>
<text text-anchor="middle" x="1135" y="-359.8" font-family="Times,serif" font-size="14.00">CASE&#45;Implementation&#45;PyPI&#45;Exifread</text>
<text text-anchor="middle" x="1135" y="-344.8" font-family="Times,serif" font-size="14.00">adopts new case&#45;validation&#45;action</text>
</a>
</g>
</g>
<!-- _GH__CASEWORK__CASE_IMPLEMENTATON_PYPI_PILLOW -->
<g id="node10" class="node">
<title>_GH__CASEWORK__CASE_IMPLEMENTATON_PYPI_PILLOW</title>
<g id="a_node10"><a xlink:href="https://github.com/casework/CASE-Implementation-PyPI-Pillow" xlink:title="CASE&#45;Implementation&#45;PyPI&#45;Pillow\nadopts new case&#45;validation&#45;action">
<path fill="#8ec7d2" stroke="#0d6986" d="M1229.5,-319C1229.5,-319 1040.5,-319 1040.5,-319 1034.5,-319 1028.5,-313 1028.5,-307 1028.5,-307 1028.5,-293 1028.5,-293 1028.5,-287 1034.5,-281 1040.5,-281 1040.5,-281 1229.5,-281 1229.5,-281 1235.5,-281 1241.5,-287 1241.5,-293 1241.5,-293 1241.5,-307 1241.5,-307 1241.5,-313 1235.5,-319 1229.5,-319"/>
<text text-anchor="middle" x="1135" y="-303.8" font-family="Times,serif" font-size="14.00">CASE&#45;Implementation&#45;PyPI&#45;Pillow</text>
<text text-anchor="middle" x="1135" y="-288.8" font-family="Times,serif" font-size="14.00">adopts new case&#45;validation&#45;action</text>
</a>
</g>
</g>
<!-- _GH__CASEWORK__CASE_IMPLEMENTATON_XRY -->
<g id="node11" class="node">
<title>_GH__CASEWORK__CASE_IMPLEMENTATON_XRY</title>
<g id="a_node11"><a xlink:href="https://github.com/casework/CASE-Implementation-XRY" xlink:title="CASE&#45;Implementation&#45;XRY adopts\nnew case&#45;validation&#45;action">
<path fill="#8ec7d2" stroke="#0d6986" d="M1230,-487C1230,-487 1040,-487 1040,-487 1034,-487 1028,-481 1028,-475 1028,-475 1028,-461 1028,-461 1028,-455 1034,-449 1040,-449 1040,-449 1230,-449 1230,-449 1236,-449 1242,-455 1242,-461 1242,-461 1242,-475 1242,-475 1242,-481 1236,-487 1230,-487"/>
<text text-anchor="middle" x="1135" y="-471.8" font-family="Times,serif" font-size="14.00">CASE&#45;Implementation&#45;XRY adopts</text>
<text text-anchor="middle" x="1135" y="-456.8" font-family="Times,serif" font-size="14.00">new case&#45;validation&#45;action</text>
</a>
</g>
</g>
<!-- _GH__CASEWORK__CASE_MAPPING_TEMPLATE_PYTHON -->
<g id="node12" class="node">
<title>_GH__CASEWORK__CASE_MAPPING_TEMPLATE_PYTHON</title>
<g id="a_node12"><a xlink:href="https://github.com/casework/CASE-Mapping-Template-Python" xlink:title="CASE&#45;Mapping&#45;Template&#45;Python\nadopts new case&#45;validation&#45;action">
<path fill="#8ec7d2" stroke="#0d6986" d="M1225,-431C1225,-431 1045,-431 1045,-431 1039,-431 1033,-425 1033,-419 1033,-419 1033,-405 1033,-405 1033,-399 1039,-393 1045,-393 1045,-393 1225,-393 1225,-393 1231,-393 1237,-399 1237,-405 1237,-405 1237,-419 1237,-419 1237,-425 1231,-431 1225,-431"/>
<text text-anchor="middle" x="1135" y="-415.8" font-family="Times,serif" font-size="14.00">CASE&#45;Mapping&#45;Template&#45;Python</text>
<text text-anchor="middle" x="1135" y="-400.8" font-family="Times,serif" font-size="14.00">adopts new case&#45;validation&#45;action</text>
</a>
</g>
</g>
<!-- _GH__CASEWORK__CASE_BINDINGS_CSHARP_MONITOR -->
<g id="node13" class="node">
<title>_GH__CASEWORK__CASE_BINDINGS_CSHARP_MONITOR</title>
<g id="a_node13"><a xlink:href="https://github.com/casework/CASE-Bindings-CSharp-Monitor" xlink:title="CASE Bindings CSharp Monitor\ntests NuGet package with validation action">
<path fill="#8ec7d2" stroke="#0d6986" d="M1567,-242C1567,-242 1340,-242 1340,-242 1334,-242 1328,-236 1328,-230 1328,-230 1328,-216 1328,-216 1328,-210 1334,-204 1340,-204 1340,-204 1567,-204 1567,-204 1573,-204 1579,-210 1579,-216 1579,-216 1579,-230 1579,-230 1579,-236 1573,-242 1567,-242"/>
<text text-anchor="middle" x="1453.5" y="-226.8" font-family="Times,serif" font-size="14.00">CASE Bindings CSharp Monitor</text>
<text text-anchor="middle" x="1453.5" y="-211.8" font-family="Times,serif" font-size="14.00">tests NuGet package with validation action</text>
</a>
</g>
</g>
<!-- _GH__CIPHERTECHSOLUTIONS__CASE_BINDINGS_CSHARP -->
<g id="node14" class="node">
<title>_GH__CIPHERTECHSOLUTIONS__CASE_BINDINGS_CSHARP</title>
<g id="a_node14"><a xlink:href="https://github.com/ciphertechsolutions/CASE-Bindings-CSharp" xlink:title="CASE&#45;Bindings&#45;CSharp\nadopts new ontology version">
<path fill="#8ec7d2" stroke="#0d6986" d="M1209.5,-242C1209.5,-242 1060.5,-242 1060.5,-242 1054.5,-242 1048.5,-236 1048.5,-230 1048.5,-230 1048.5,-216 1048.5,-216 1048.5,-210 1054.5,-204 1060.5,-204 1060.5,-204 1209.5,-204 1209.5,-204 1215.5,-204 1221.5,-210 1221.5,-216 1221.5,-216 1221.5,-230 1221.5,-230 1221.5,-236 1215.5,-242 1209.5,-242"/>
<text text-anchor="middle" x="1135" y="-226.8" font-family="Times,serif" font-size="14.00">CASE&#45;Bindings&#45;CSharp</text>
<text text-anchor="middle" x="1135" y="-211.8" font-family="Times,serif" font-size="14.00">adopts new ontology version</text>
</a>
</g>
</g>
<!-- _GH__CIPHERTECHSOLUTIONS__CASE_BINDINGS_CSHARP&#45;&gt;_GH__CASEWORK__CASE_BINDINGS_CSHARP_MONITOR -->
<g id="edge15" class="edge">
<title>_GH__CIPHERTECHSOLUTIONS__CASE_BINDINGS_CSHARP&#45;&gt;_GH__CASEWORK__CASE_BINDINGS_CSHARP_MONITOR</title>
<path fill="none" stroke="black" d="M1221.68,-219.21C1236.14,-218.71 1250.99,-218.27 1265,-218 1281.63,-217.68 1299.08,-217.68 1316.37,-217.9"/>
<polygon fill="black" stroke="black" points="1316.13,-221.39 1326.18,-218.05 1316.24,-214.4 1316.13,-221.39"/>
<text text-anchor="middle" x="1287.5" y="-221.8" font-family="Times,serif" font-size="14.00">NuGet</text>
</g>
<!-- _GH__UCOPROJECT__UCO -->
<g id="node15" class="node">
<title>_GH__UCOPROJECT__UCO</title>
<g id="a_node15"><a xlink:href="https://github.com/ucoProject/UCO" xlink:title="UCO Ontology\nreleases">
<path fill="#8ec7d2" stroke="#0d6986" d="M104,-556C104,-556 28,-556 28,-556 22,-556 16,-550 16,-544 16,-544 16,-530 16,-530 16,-524 22,-518 28,-518 28,-518 104,-518 104,-518 110,-518 116,-524 116,-530 116,-530 116,-544 116,-544 116,-550 110,-556 104,-556"/>
<text text-anchor="middle" x="66" y="-540.8" font-family="Times,serif" font-size="14.00">UCO Ontology</text>
<text text-anchor="middle" x="66" y="-525.8" font-family="Times,serif" font-size="14.00">releases</text>
</a>
</g>
</g>
<!-- _GH__UCOPROJECT__UCO&#45;&gt;_GH__UCOPROJECT__ONTOLOGY_UNIFIEDCYBERONTOLOGY_ORG -->
<g id="edge24" class="edge">
<title>_GH__UCOPROJECT__UCO&#45;&gt;_GH__UCOPROJECT__ONTOLOGY_UNIFIEDCYBERONTOLOGY_ORG</title>
<path fill="none" stroke="black" d="M77.41,-517.67C95.71,-485.53 136.7,-421.16 189,-386 191.69,-384.19 194.52,-382.51 197.44,-380.94"/>
<polygon fill="black" stroke="black" points="198.78,-384.18 206.31,-376.72 195.77,-377.86 198.78,-384.18"/>
<text text-anchor="middle" x="156.5" y="-454.8" font-family="Times,serif" font-size="14.00">Git sub&#45;</text>
<text text-anchor="middle" x="156.5" y="-439.8" font-family="Times,serif" font-size="14.00">module</text>
</g>
<!-- _GH__CASEWORK__CASE -->
<g id="node16" class="node">
<title>_GH__CASEWORK__CASE</title>
<g id="a_node16"><a xlink:href="https://github.com/casework/CASE" xlink:title="CASE Ontology\nreleases">
<path fill="#8ec7d2" stroke="#0d6986" d="M314,-560C314,-560 232,-560 232,-560 226,-560 220,-554 220,-548 220,-548 220,-534 220,-534 220,-528 226,-522 232,-522 232,-522 314,-522 314,-522 320,-522 326,-528 326,-534 326,-534 326,-548 326,-548 326,-554 320,-560 314,-560"/>
<text text-anchor="middle" x="273" y="-544.8" font-family="Times,serif" font-size="14.00">CASE Ontology</text>
<text text-anchor="middle" x="273" y="-529.8" font-family="Times,serif" font-size="14.00">releases</text>
</a>
</g>
</g>
<!-- _GH__UCOPROJECT__UCO&#45;&gt;_GH__CASEWORK__CASE -->
<g id="edge23" class="edge">
<title>_GH__UCOPROJECT__UCO&#45;&gt;_GH__CASEWORK__CASE</title>
<path fill="none" stroke="black" d="M116.36,-537.96C143.98,-538.5 178.7,-539.18 208.34,-539.76"/>
<polygon fill="black" stroke="black" points="208.26,-543.26 218.33,-539.95 208.4,-536.26 208.26,-543.26"/>
<text text-anchor="middle" x="156.5" y="-558.8" font-family="Times,serif" font-size="14.00">Git sub&#45;</text>
<text text-anchor="middle" x="156.5" y="-543.8" font-family="Times,serif" font-size="14.00">module</text>
</g>
<!-- _GH__CASEWORK__CASE&#45;&gt;_GH__CIPHERTECHSOLUTIONS__CASE_BINDINGS_CSHARP -->
<g id="edge3" class="edge">
<title>_GH__CASEWORK__CASE&#45;&gt;_GH__CIPHERTECHSOLUTIONS__CASE_BINDINGS_CSHARP</title>
<path fill="none" stroke="black" d="M312.13,-521.6C417.35,-468.89 721.86,-321.91 991,-246 1005.7,-241.85 1021.48,-238.38 1037,-235.49"/>
<polygon fill="black" stroke="black" points="1037.51,-238.96 1046.74,-233.76 1036.28,-232.06 1037.51,-238.96"/>
</g>
<!-- _GH__CASEWORK__ONTOLOGY_CASEONTOLOGY_ORG -->
<g id="node17" class="node">
<title>_GH__CASEWORK__ONTOLOGY_CASEONTOLOGY_ORG</title>
<g id="a_node17"><a xlink:href="https://github.com/casework/ontology.caseontology.org" xlink:title="CASE documentation\nregenerated">
<path fill="#8ec7d2" stroke="#0d6986" d="M554,-560C554,-560 442,-560 442,-560 436,-560 430,-554 430,-548 430,-548 430,-534 430,-534 430,-528 436,-522 442,-522 442,-522 554,-522 554,-522 560,-522 566,-528 566,-534 566,-534 566,-548 566,-548 566,-554 560,-560 554,-560"/>
<text text-anchor="middle" x="498" y="-544.8" font-family="Times,serif" font-size="14.00">CASE documentation</text>
<text text-anchor="middle" x="498" y="-529.8" font-family="Times,serif" font-size="14.00">regenerated</text>
</a>
</g>
</g>
<!-- _GH__CASEWORK__CASE&#45;&gt;_GH__CASEWORK__ONTOLOGY_CASEONTOLOGY_ORG -->
<g id="edge4" class="edge">
<title>_GH__CASEWORK__CASE&#45;&gt;_GH__CASEWORK__ONTOLOGY_CASEONTOLOGY_ORG</title>
<path fill="none" stroke="black" d="M326.28,-541C353.68,-541 387.8,-541 418.31,-541"/>
<polygon fill="black" stroke="black" points="418.3,-544.5 428.3,-541 418.3,-537.5 418.3,-544.5"/>
<text text-anchor="middle" x="389.5" y="-559.8" font-family="Times,serif" font-size="14.00">Git sub&#45;</text>
<text text-anchor="middle" x="389.5" y="-544.8" font-family="Times,serif" font-size="14.00">module</text>
</g>
<!-- _GH__CASEWORK__CASE_UTILITIES_PYTHON -->
<g id="node19" class="node">
<title>_GH__CASEWORK__CASE_UTILITIES_PYTHON</title>
<g id="a_node19"><a xlink:href="https://github.com/casework/CASE-Utilities-Python" xlink:title="case&#45;utils\nreleases">
<path fill="#8ec7d2" stroke="#0d6986" d="M520,-616C520,-616 476,-616 476,-616 470,-616 464,-610 464,-604 464,-604 464,-590 464,-590 464,-584 470,-578 476,-578 476,-578 520,-578 520,-578 526,-578 532,-584 532,-590 532,-590 532,-604 532,-604 532,-610 526,-616 520,-616"/>
<text text-anchor="middle" x="498" y="-600.8" font-family="Times,serif" font-size="14.00">case&#45;utils</text>
<text text-anchor="middle" x="498" y="-585.8" font-family="Times,serif" font-size="14.00">releases</text>
</a>
</g>
</g>
<!-- _GH__CASEWORK__CASE&#45;&gt;_GH__CASEWORK__CASE_UTILITIES_PYTHON -->
<g id="edge2" class="edge">
<title>_GH__CASEWORK__CASE&#45;&gt;_GH__CASEWORK__CASE_UTILITIES_PYTHON</title>
<path fill="none" stroke="black" d="M326.21,-560.49C339.4,-564.99 353.62,-569.48 367,-573 395.1,-580.39 427.21,-586.34 452.48,-590.46"/>
<polygon fill="black" stroke="black" points="451.65,-593.88 462.08,-591.99 452.75,-586.96 451.65,-593.88"/>
<text text-anchor="middle" x="389.5" y="-601.8" font-family="Times,serif" font-size="14.00">Git sub&#45;</text>
<text text-anchor="middle" x="389.5" y="-586.8" font-family="Times,serif" font-size="14.00">module</text>
</g>
<!-- _GH__CASEWORK__CASE_EXAMPLES -->
<g id="node18" class="node">
<title>_GH__CASEWORK__CASE_EXAMPLES</title>
<g id="a_node18"><a xlink:href="https://github.com/casework/CASE-Examples" xlink:title="CASE&#45;Examples\nadopts new case&#45;utils">
<path fill="#8ec7d2" stroke="#0d6986" d="M812.5,-614C812.5,-614 703.5,-614 703.5,-614 697.5,-614 691.5,-608 691.5,-602 691.5,-602 691.5,-588 691.5,-588 691.5,-582 697.5,-576 703.5,-576 703.5,-576 812.5,-576 812.5,-576 818.5,-576 824.5,-582 824.5,-588 824.5,-588 824.5,-602 824.5,-602 824.5,-608 818.5,-614 812.5,-614"/>
<text text-anchor="middle" x="758" y="-598.8" font-family="Times,serif" font-size="14.00">CASE&#45;Examples</text>
<text text-anchor="middle" x="758" y="-583.8" font-family="Times,serif" font-size="14.00">adopts new case&#45;utils</text>
</a>
</g>
</g>
<!-- _GH__CASEWORK__CASE_EXAMPLES&#45;&gt;_GH__AJNELSON_NIST__CASE_EXAMPLES_QC -->
<g id="edge5" class="edge">
<title>_GH__CASEWORK__CASE_EXAMPLES&#45;&gt;_GH__AJNELSON_NIST__CASE_EXAMPLES_QC</title>
<path fill="none" stroke="black" d="M824.86,-597.39C869.59,-599.51 930.02,-603.34 983,-610 1000.74,-612.23 1019.56,-615.22 1037.66,-618.41"/>
<polygon fill="black" stroke="black" points="1036.87,-621.82 1047.33,-620.15 1038.11,-614.93 1036.87,-621.82"/>
<text text-anchor="middle" x="943.5" y="-628.8" font-family="Times,serif" font-size="14.00">Git sub&#45;</text>
<text text-anchor="middle" x="943.5" y="-613.8" font-family="Times,serif" font-size="14.00">module</text>
</g>
<!-- _GH__CASEWORK__CASE_UTILITIES_PYTHON&#45;&gt;_GH__AJNELSON_NIST__CASE_EXAMPLES_QC -->
<g id="edge7" class="edge">
<title>_GH__CASEWORK__CASE_UTILITIES_PYTHON&#45;&gt;_GH__AJNELSON_NIST__CASE_EXAMPLES_QC</title>
<path fill="none" stroke="black" d="M532.38,-585.44C568.3,-573.23 623.23,-555.28 645,-552 755.31,-535.39 787.85,-524.65 896,-552 938.61,-562.77 947.76,-572.74 983,-599 987.03,-602 986.59,-604.59 991,-607 1005.31,-614.81 1021.44,-620.65 1037.57,-625.02"/>
<polygon fill="black" stroke="black" points="1036.69,-628.41 1047.25,-627.45 1038.4,-621.62 1036.69,-628.41"/>
<text text-anchor="middle" x="758" y="-555.8" font-family="Times,serif" font-size="14.00">PyPI</text>
</g>
<!-- _GH__CASEWORK__CASE_UTILITIES_PYTHON&#45;&gt;_GH__CASEWORK__CASE_IMPLEMENTATON_EXIFTOOL -->
<g id="edge9" class="edge">
<title>_GH__CASEWORK__CASE_UTILITIES_PYTHON&#45;&gt;_GH__CASEWORK__CASE_IMPLEMENTATON_EXIFTOOL</title>
<path fill="none" stroke="black" d="M532.42,-588.89C543.61,-585.32 555.81,-580.44 566,-574 577.36,-566.82 892.87,-235.53 904,-228 940.05,-203.61 985.07,-187.97 1025.69,-177.99"/>
<polygon fill="black" stroke="black" points="1026.34,-181.44 1035.27,-175.74 1024.73,-174.62 1026.34,-181.44"/>
<text text-anchor="middle" x="758" y="-496.8" font-family="Times,serif" font-size="14.00">PyPI</text>
</g>
<!-- _GH__CASEWORK__CASE_UTILITIES_PYTHON&#45;&gt;_GH__CASEWORK__CASE_IMPLEMENTATON_GNU_TIME -->
<g id="edge10" class="edge">
<title>_GH__CASEWORK__CASE_UTILITIES_PYTHON&#45;&gt;_GH__CASEWORK__CASE_IMPLEMENTATON_GNU_TIME</title>
<path fill="none" stroke="black" d="M532.45,-592.48C544.58,-589.23 557.39,-583.63 566,-574 592.93,-543.88 616.78,-247.92 645,-219 741.82,-119.77 907.07,-99.83 1018.36,-98.97"/>
<polygon fill="black" stroke="black" points="1018.12,-102.47 1028.11,-98.95 1018.1,-95.47 1018.12,-102.47"/>
<text text-anchor="middle" x="758" y="-222.8" font-family="Times,serif" font-size="14.00">PyPI</text>
</g>
<!-- _GH__CASEWORK__CASE_UTILITIES_PYTHON&#45;&gt;_GH__CASEWORK__CASE_IMPLEMENTATON_PROV_O -->
<g id="edge11" class="edge">
<title>_GH__CASEWORK__CASE_UTILITIES_PYTHON&#45;&gt;_GH__CASEWORK__CASE_IMPLEMENTATON_PROV_O</title>
<path fill="none" stroke="black" d="M511.26,-616.35C533.76,-650.34 584.87,-720.97 645,-761 780.37,-851.11 830.61,-853.19 991,-880 1105.41,-899.13 1148.14,-931.66 1252,-880 1352.69,-829.92 1416.29,-702.45 1440.91,-644.49"/>
<polygon fill="black" stroke="black" points="1444,-646.17 1444.6,-635.59 1437.53,-643.48 1444,-646.17"/>
<text text-anchor="middle" x="943.5" y="-881.8" font-family="Times,serif" font-size="14.00">PyPI</text>
</g>
<!-- _GH__CASEWORK__CASE_UTILITIES_PYTHON&#45;&gt;_GH__CASEWORK__CASE_EXAMPLES -->
<g id="edge8" class="edge">
<title>_GH__CASEWORK__CASE_UTILITIES_PYTHON&#45;&gt;_GH__CASEWORK__CASE_EXAMPLES</title>
<path fill="none" stroke="black" d="M532.46,-596.74C569.59,-596.45 630.73,-595.98 679.85,-595.6"/>
<polygon fill="black" stroke="black" points="679.6,-599.1 689.57,-595.52 679.55,-592.1 679.6,-599.1"/>
<text text-anchor="middle" x="597.5" y="-600.8" font-family="Times,serif" font-size="14.00">PyPI</text>
</g>
<!-- _GH__CASEWORK__CASEWORK_GITHUB_IO -->
<g id="node20" class="node">
<title>_GH__CASEWORK__CASEWORK_GITHUB_IO</title>
<g id="a_node20"><a xlink:href="https://github.com/casework/casework.github.io" xlink:title="CASE website\nadopts new case&#45;utils">
<path fill="#8ec7d2" stroke="#0d6986" d="M812.5,-670C812.5,-670 703.5,-670 703.5,-670 697.5,-670 691.5,-664 691.5,-658 691.5,-658 691.5,-644 691.5,-644 691.5,-638 697.5,-632 703.5,-632 703.5,-632 812.5,-632 812.5,-632 818.5,-632 824.5,-638 824.5,-644 824.5,-644 824.5,-658 824.5,-658 824.5,-664 818.5,-670 812.5,-670"/>
<text text-anchor="middle" x="758" y="-654.8" font-family="Times,serif" font-size="14.00">CASE website</text>
<text text-anchor="middle" x="758" y="-639.8" font-family="Times,serif" font-size="14.00">adopts new case&#45;utils</text>
</a>
</g>
</g>
<!-- _GH__CASEWORK__CASE_UTILITIES_PYTHON&#45;&gt;_GH__CASEWORK__CASEWORK_GITHUB_IO -->
<g id="edge13" class="edge">
<title>_GH__CASEWORK__CASE_UTILITIES_PYTHON&#45;&gt;_GH__CASEWORK__CASEWORK_GITHUB_IO</title>
<path fill="none" stroke="black" d="M532.47,-604.65C548.11,-608.18 566.99,-612.38 584,-616 615.36,-622.68 649.99,-629.74 679.97,-635.76"/>
<polygon fill="black" stroke="black" points="679.24,-639.19 689.73,-637.72 680.61,-632.32 679.24,-639.19"/>
<text text-anchor="middle" x="597.5" y="-624.8" font-family="Times,serif" font-size="14.00">PyPI</text>
</g>
<!-- _GH__KCHASON__CASE_VALIDATION_ACTION -->
<g id="node21" class="node">
<title>_GH__KCHASON__CASE_VALIDATION_ACTION</title>
<g id="a_node21"><a xlink:href="https://github.com/kchason/case-validation-action" xlink:title="case&#45;validation&#45;action\nreleases">
<path fill="#8ec7d2" stroke="#0d6986" d="M814,-726C814,-726 702,-726 702,-726 696,-726 690,-720 690,-714 690,-714 690,-700 690,-700 690,-694 696,-688 702,-688 702,-688 814,-688 814,-688 820,-688 826,-694 826,-700 826,-700 826,-714 826,-714 826,-720 820,-726 814,-726"/>
<text text-anchor="middle" x="758" y="-710.8" font-family="Times,serif" font-size="14.00">case&#45;validation&#45;action</text>
<text text-anchor="middle" x="758" y="-695.8" font-family="Times,serif" font-size="14.00">releases</text>
</a>
</g>
</g>
<!-- _GH__CASEWORK__CASE_UTILITIES_PYTHON&#45;&gt;_GH__KCHASON__CASE_VALIDATION_ACTION -->
<g id="edge12" class="edge">
<title>_GH__CASEWORK__CASE_UTILITIES_PYTHON&#45;&gt;_GH__KCHASON__CASE_VALIDATION_ACTION</title>
<path fill="none" stroke="black" d="M525.31,-616.4C553.52,-636.28 600.3,-666.66 645,-684 655.66,-688.13 667.19,-691.57 678.66,-694.42"/>
<polygon fill="black" stroke="black" points="677.61,-697.77 688.14,-696.62 679.19,-690.95 677.61,-697.77"/>
<text text-anchor="middle" x="597.5" y="-670.8" font-family="Times,serif" font-size="14.00">PyPI</text>
</g>
<!-- _GH__CASEWORK__CASEWORK_GITHUB_IO&#45;&gt;_GH__AJNELSON_NIST__CASE_EXAMPLES_QC -->
<g id="edge14" class="edge">
<title>_GH__CASEWORK__CASEWORK_GITHUB_IO&#45;&gt;_GH__AJNELSON_NIST__CASE_EXAMPLES_QC</title>
<path fill="none" stroke="black" d="M824.75,-648.72C883.53,-646.68 970.42,-643.67 1037.15,-641.36"/>
<polygon fill="black" stroke="black" points="1037.13,-644.86 1047.01,-641.02 1036.89,-637.86 1037.13,-644.86"/>
<text text-anchor="middle" x="943.5" y="-664.8" font-family="Times,serif" font-size="14.00">Git sub&#45;</text>
<text text-anchor="middle" x="943.5" y="-649.8" font-family="Times,serif" font-size="14.00">module</text>
</g>
<!-- _GH__KCHASON__CASE_VALIDATION_ACTION&#45;&gt;_GH__CASEWORK__CASE_IMPLEMENTATON_UFED_XML -->
<g id="edge19" class="edge">
<title>_GH__KCHASON__CASE_VALIDATION_ACTION&#45;&gt;_GH__CASEWORK__CASE_IMPLEMENTATON_UFED_XML</title>
<path fill="none" stroke="black" d="M826.23,-712.14C851.63,-710.33 878.58,-703.2 896,-684 913.22,-665.03 885.89,-587.11 904,-569 936.68,-536.32 986.67,-529.86 1031.71,-532.63"/>
<polygon fill="black" stroke="black" points="1031.28,-536.1 1041.53,-533.4 1031.83,-529.12 1031.28,-536.1"/>
<text text-anchor="middle" x="943.5" y="-587.8" font-family="Times,serif" font-size="14.00">GitHub</text>
<text text-anchor="middle" x="943.5" y="-572.8" font-family="Times,serif" font-size="14.00">Action</text>
</g>
<!-- _GH__KCHASON__CASE_VALIDATION_ACTION&#45;&gt;_GH__CASEWORK__CASE_IMPLEMENTATON_PYPI_EXIFREAD -->
<g id="edge17" class="edge">
<title>_GH__KCHASON__CASE_VALIDATION_ACTION&#45;&gt;_GH__CASEWORK__CASE_IMPLEMENTATON_PYPI_EXIFREAD</title>
<path fill="none" stroke="black" d="M826.31,-712.56C851.88,-710.84 878.93,-703.68 896,-684 907.83,-670.36 891.16,-371.7 904,-359 919.74,-343.44 964.98,-340.79 1011.22,-342.79"/>
<polygon fill="black" stroke="black" points="1010.98,-346.29 1021.15,-343.3 1011.34,-339.3 1010.98,-346.29"/>
<text text-anchor="middle" x="943.5" y="-377.8" font-family="Times,serif" font-size="14.00">GitHub</text>
<text text-anchor="middle" x="943.5" y="-362.8" font-family="Times,serif" font-size="14.00">Action</text>
</g>
<!-- _GH__KCHASON__CASE_VALIDATION_ACTION&#45;&gt;_GH__CASEWORK__CASE_IMPLEMENTATON_PYPI_PILLOW -->
<g id="edge18" class="edge">
<title>_GH__KCHASON__CASE_VALIDATION_ACTION&#45;&gt;_GH__CASEWORK__CASE_IMPLEMENTATON_PYPI_PILLOW</title>
<path fill="none" stroke="black" d="M826.34,-712.58C851.92,-710.88 878.96,-703.7 896,-684 909.63,-668.24 889.4,-323.87 904,-309 920.17,-292.54 968.57,-289.1 1016.83,-290.28"/>
<polygon fill="black" stroke="black" points="1016.47,-293.77 1026.57,-290.59 1016.69,-286.77 1016.47,-293.77"/>
<text text-anchor="middle" x="943.5" y="-327.8" font-family="Times,serif" font-size="14.00">GitHub</text>
<text text-anchor="middle" x="943.5" y="-312.8" font-family="Times,serif" font-size="14.00">Action</text>
</g>
<!-- _GH__KCHASON__CASE_VALIDATION_ACTION&#45;&gt;_GH__CASEWORK__CASE_IMPLEMENTATON_XRY -->
<g id="edge20" class="edge">
<title>_GH__KCHASON__CASE_VALIDATION_ACTION&#45;&gt;_GH__CASEWORK__CASE_IMPLEMENTATON_XRY</title>
<path fill="none" stroke="black" d="M826.48,-712.37C851.92,-710.59 878.83,-703.42 896,-684 909.48,-668.75 890.34,-516.08 904,-501 932.03,-470.05 975,-458.74 1016.24,-456.24"/>
<polygon fill="black" stroke="black" points="1016.17,-459.74 1026.01,-455.83 1015.87,-452.75 1016.17,-459.74"/>
<text text-anchor="middle" x="943.5" y="-519.8" font-family="Times,serif" font-size="14.00">GitHub</text>
<text text-anchor="middle" x="943.5" y="-504.8" font-family="Times,serif" font-size="14.00">Action</text>
</g>
<!-- _GH__KCHASON__CASE_VALIDATION_ACTION&#45;&gt;_GH__CASEWORK__CASE_MAPPING_TEMPLATE_PYTHON -->
<g id="edge21" class="edge">
<title>_GH__KCHASON__CASE_VALIDATION_ACTION&#45;&gt;_GH__CASEWORK__CASE_MAPPING_TEMPLATE_PYTHON</title>
<path fill="none" stroke="black" d="M826.25,-712.5C851.81,-710.78 878.87,-703.62 896,-684 914.72,-662.56 884.27,-448.5 904,-428 937.21,-393.5 989.61,-387.75 1036.01,-391.41"/>
<polygon fill="black" stroke="black" points="1035.56,-394.89 1045.85,-392.36 1036.23,-387.92 1035.56,-394.89"/>
<text text-anchor="middle" x="943.5" y="-446.8" font-family="Times,serif" font-size="14.00">GitHub</text>
<text text-anchor="middle" x="943.5" y="-431.8" font-family="Times,serif" font-size="14.00">Action</text>
</g>
<!-- _GH__KCHASON__CASE_VALIDATION_ACTION&#45;&gt;_GH__CASEWORK__CASE_BINDINGS_CSHARP_MONITOR -->
<g id="edge16" class="edge">
<title>_GH__KCHASON__CASE_VALIDATION_ACTION&#45;&gt;_GH__CASEWORK__CASE_BINDINGS_CSHARP_MONITOR</title>
<path fill="none" stroke="black" d="M787.53,-726.42C867.17,-777.99 1096.22,-908.14 1252,-813 1300.18,-783.58 1292.56,-753.69 1310,-700 1326.12,-650.38 1315.45,-634.64 1328,-584 1359.24,-458 1415.53,-313.55 1440.27,-252.59"/>
<polygon fill="black" stroke="black" points="1443.4,-254.18 1443.94,-243.6 1436.92,-251.54 1443.4,-254.18"/>
<text text-anchor="middle" x="1135" y="-864.8" font-family="Times,serif" font-size="14.00">GitHub</text>
<text text-anchor="middle" x="1135" y="-849.8" font-family="Times,serif" font-size="14.00">Action</text>
</g>
<!-- _GH__DOD_CYBER_CRIME_CENTER__SQLITE_DISSECT -->
<g id="node22" class="node">
<title>_GH__DOD_CYBER_CRIME_CENTER__SQLITE_DISSECT</title>
<g id="a_node22"><a xlink:href="https://github.com/dod-cyber-crime-center/sqlite-dissect" xlink:title="sqlite&#45;dissect\nadopts new case&#45;validation&#45;action">
<path fill="#8ec7d2" stroke="#0d6986" d="M1223.5,-804C1223.5,-804 1046.5,-804 1046.5,-804 1040.5,-804 1034.5,-798 1034.5,-792 1034.5,-792 1034.5,-778 1034.5,-778 1034.5,-772 1040.5,-766 1046.5,-766 1046.5,-766 1223.5,-766 1223.5,-766 1229.5,-766 1235.5,-772 1235.5,-778 1235.5,-778 1235.5,-792 1235.5,-792 1235.5,-798 1229.5,-804 1223.5,-804"/>
<text text-anchor="middle" x="1135" y="-788.8" font-family="Times,serif" font-size="14.00">sqlite&#45;dissect</text>
<text text-anchor="middle" x="1135" y="-773.8" font-family="Times,serif" font-size="14.00">adopts new case&#45;validation&#45;action</text>
</a>
</g>
</g>
<!-- _GH__KCHASON__CASE_VALIDATION_ACTION&#45;&gt;_GH__DOD_CYBER_CRIME_CENTER__SQLITE_DISSECT -->
<g id="edge22" class="edge">
<title>_GH__KCHASON__CASE_VALIDATION_ACTION&#45;&gt;_GH__DOD_CYBER_CRIME_CENTER__SQLITE_DISSECT</title>
<g id="a_edge22"><a xlink:href="https://github.com/dod-cyber-crime-center/sqlite-dissect/pull/31" xlink:title="TODO: PR 31">
<path fill="none" stroke="black" d="M826.48,-721.03C882.89,-732.77 964.31,-749.7 1029.2,-763.2"/>
<polygon fill="black" stroke="black" points="1028.3,-766.59 1038.81,-765.2 1029.73,-759.74 1028.3,-766.59"/>
</a>
</g>
<g id="a_edge22&#45;label"><a xlink:href="https://github.com/dod-cyber-crime-center/sqlite-dissect/pull/31" xlink:title="TODO: PR 31">
<text text-anchor="middle" x="943.5" y="-755.8" font-family="Times,serif" font-size="14.00">TODO: PR 31</text>
</a>
</g>
</g>
</g>
</svg>
