<?xml version="1.0" encoding="UTF-8" standalone="no"?>
<!DOCTYPE svg PUBLIC "-//W3C//DTD SVG 1.1//EN"
 "http://www.w3.org/Graphics/SVG/1.1/DTD/svg11.dtd">
<!-- Generated by graphviz version 7.1.0 (20230121.1956)
 -->
<!-- Title: cdo_release_flow Pages: 1 -->
<svg width="2068pt" height="825pt"
 viewBox="0.00 0.00 2068.00 825.00" xmlns="http://www.w3.org/2000/svg" xmlns:xlink="http://www.w3.org/1999/xlink">
<g id="graph0" class="graph" transform="scale(1 1) rotate(0) translate(4 821)">
<title>cdo_release_flow</title>
<polygon fill="white" stroke="none" points="-4,4 -4,-821 2064,-821 2064,4 -4,4"/>
<text text-anchor="middle" x="1030" y="-38.8" font-family="Times,serif" font-size="14.00">Release flow of CDO ontologies</text>
<text text-anchor="middle" x="1030" y="-7.8" font-family="Times,serif" font-size="14.00">Nodes link to the respective Git repository.</text>
<g id="clust1" class="cluster">
<title>cluster_uco_0_9_1</title>
<polygon fill="none" stroke="black" points="189,-197 189,-361 357,-361 357,-197 189,-197"/>
<text text-anchor="middle" x="273" y="-345.8" font-family="Times,serif" font-size="14.00">Adoption of UCO 0.9.1</text>
</g>
<g id="clust2" class="cluster">
<title>cluster_case_0_7_1</title>
<polygon fill="none" stroke="black" points="197,-253 197,-330 349,-330 349,-253 197,-253"/>
<text text-anchor="middle" x="273" y="-314.8" font-family="Times,serif" font-size="14.00">Adoption of CASE 0.7.1</text>
</g>
<g id="clust3" class="cluster">
<title>cluster_uco_1_1_0</title>
<polygon fill="none" stroke="black" points="1432,-62 1432,-700 2052,-700 2052,-62 1432,-62"/>
<text text-anchor="middle" x="1742" y="-684.8" font-family="Times,serif" font-size="14.00">Adoption of UCO 1.1.0</text>
</g>
<g id="clust4" class="cluster">
<title>cluster_case_1_1_0</title>
<polygon fill="none" stroke="black" points="1440,-70 1440,-669 2044,-669 2044,-70 1440,-70"/>
<text text-anchor="middle" x="1742" y="-653.8" font-family="Times,serif" font-size="14.00">Adoption of CASE 1.1.0</text>
</g>
<g id="clust5" class="cluster">
<title>cluster_case_utils_0_9_0</title>
<polygon fill="none" stroke="black" points="1448,-78 1448,-638 2036,-638 2036,-78 1448,-78"/>
<text text-anchor="middle" x="1742" y="-622.8" font-family="Times,serif" font-size="14.00">Adoption of case&#45;utils 0.9.0</text>
</g>
<g id="clust7" class="cluster">
<title>cluster_case_validation_action_2_5</title>
<polygon fill="none" stroke="black" points="1456,-190 1456,-522 2028,-522 2028,-190 1456,-190"/>
<text text-anchor="middle" x="1742" y="-506.8" font-family="Times,serif" font-size="14.00">Adoption of case&#45;validation&#45;action 2.5</text>
</g>
<g id="clust8" class="cluster">
<title>cluster_case_bindings_csharp_0_3_0</title>
<polygon fill="none" stroke="black" points="1481.5,-414 1481.5,-491 2020,-491 2020,-414 1481.5,-414"/>
<text text-anchor="middle" x="1750.75" y="-475.8" font-family="Times,serif" font-size="14.00">Adoption of CSharp bindings 0.3.0</text>
</g>
<g id="clust6" class="cluster">
<title>cluster_case_prov_0_6_0</title>
<polygon fill="none" stroke="black" points="1491,-530 1491,-607 1661,-607 1661,-530 1491,-530"/>
<text text-anchor="middle" x="1576" y="-591.8" font-family="Times,serif" font-size="14.00">Adoption of case&#45;prov 0.6.0</text>
</g>
<g id="clust9" class="cluster">
<title>cluster_uco_1_2_0</title>
<polygon fill="none" stroke="black" points="8,-369 8,-792 1389,-792 1389,-369 8,-369"/>
<text text-anchor="middle" x="698.5" y="-776.8" font-family="Times,serif" font-size="14.00">Adoption of UCO 1.2.0</text>
</g>
<g id="clust10" class="cluster">
<title>cluster_case_1_2_0</title>
<polygon fill="none" stroke="black" points="212,-377 212,-761 1381,-761 1381,-377 212,-377"/>
<text text-anchor="middle" x="796.5" y="-745.8" font-family="Times,serif" font-size="14.00">Adoption of CASE 1.2.0</text>
</g>
<g id="clust11" class="cluster">
<title>cluster_case_utils_0_10_0</title>
<polygon fill="none" stroke="black" points="456,-431 456,-730 1373,-730 1373,-431 456,-431"/>
<text text-anchor="middle" x="914.5" y="-714.8" font-family="Times,serif" font-size="14.00">Adoption of case&#45;utils 0.10.0</text>
</g>
<g id="clust13" class="cluster">
<title>cluster_case_validation_action_2_6</title>
<polygon fill="none" stroke="black" points="621,-612 621,-699 1106,-699 1106,-612 621,-612"/>
<text text-anchor="middle" x="863.5" y="-683.8" font-family="Times,serif" font-size="14.00">Adoption of case&#45;validation&#45;action 2.6</text>
</g>
<g id="clust12" class="cluster">
<title>cluster_case_prov_0_7_0</title>
<polygon fill="none" stroke="black" points="1195,-521 1195,-598 1365,-598 1365,-521 1195,-521"/>
<text text-anchor="middle" x="1280" y="-582.8" font-family="Times,serif" font-size="14.00">Adoption of case&#45;prov 0.7.0</text>
</g>
<!-- _GH__UCOPROJECT__ONTOLOGY_UNIFIEDCYBERONTOLOGY_ORG -->
<g id="node1" class="node">
<title>_GH__UCOPROJECT__ONTOLOGY_UNIFIEDCYBERONTOLOGY_ORG</title>
<g id="a_node1"><a xlink:href="https://github.com/ucoProject/ontology.unifiedcyberontology.org" xlink:title="UCO documentation\nregenerated">
<path fill="#8ec7d2" stroke="#0d6986" d="M326,-243C326,-243 220,-243 220,-243 214,-243 208,-237 208,-231 208,-231 208,-217 208,-217 208,-211 214,-205 220,-205 220,-205 326,-205 326,-205 332,-205 338,-211 338,-217 338,-217 338,-231 338,-231 338,-237 332,-243 326,-243"/>
<text text-anchor="middle" x="273" y="-227.8" font-family="Times,serif" font-size="14.00">UCO documentation</text>
<text text-anchor="middle" x="273" y="-212.8" font-family="Times,serif" font-size="14.00">regenerated</text>
</a>
</g>
</g>
<!-- _GH__CASEWORK__CASE_MAPPING_TEMPLATE_STUBS -->
<g id="node2" class="node">
<title>_GH__CASEWORK__CASE_MAPPING_TEMPLATE_STUBS</title>
<g id="a_node2"><a xlink:href="https://github.com/casework/CASE-Mapping-Template-Stubs" xlink:title="CASE Mapping\nTemplate Stubs">
<path fill="#8ec7d2" stroke="#0d6986" d="M313,-299C313,-299 233,-299 233,-299 227,-299 221,-293 221,-287 221,-287 221,-273 221,-273 221,-267 227,-261 233,-261 233,-261 313,-261 313,-261 319,-261 325,-267 325,-273 325,-273 325,-287 325,-287 325,-293 319,-299 313,-299"/>
<text text-anchor="middle" x="273" y="-283.8" font-family="Times,serif" font-size="14.00">CASE Mapping</text>
<text text-anchor="middle" x="273" y="-268.8" font-family="Times,serif" font-size="14.00">Template Stubs</text>
</a>
</g>
</g>
<!-- _GH__CASEWORK__CASE_IMPLEMENTATON_EXIFTOOL -->
<g id="node3" class="node">
<title>_GH__CASEWORK__CASE_IMPLEMENTATON_EXIFTOOL</title>
<g id="a_node3"><a xlink:href="https://github.com/casework/CASE-Implementation-ExifTool" xlink:title="CASE&#45;Implementation&#45;ExifTool\nadopts new case&#45;utils">
<path fill="#8ec7d2" stroke="#0d6986" d="M1662,-180C1662,-180 1490,-180 1490,-180 1484,-180 1478,-174 1478,-168 1478,-168 1478,-154 1478,-154 1478,-148 1484,-142 1490,-142 1490,-142 1662,-142 1662,-142 1668,-142 1674,-148 1674,-154 1674,-154 1674,-168 1674,-168 1674,-174 1668,-180 1662,-180"/>
<text text-anchor="middle" x="1576" y="-164.8" font-family="Times,serif" font-size="14.00">CASE&#45;Implementation&#45;ExifTool</text>
<text text-anchor="middle" x="1576" y="-149.8" font-family="Times,serif" font-size="14.00">adopts new case&#45;utils</text>
</a>
</g>
</g>
<!-- _GH__CASEWORK__CASE_IMPLEMENTATON_GNU_TIME -->
<g id="node4" class="node">
<title>_GH__CASEWORK__CASE_IMPLEMENTATON_GNU_TIME</title>
<g id="a_node4"><a xlink:href="https://github.com/casework/CASE-Implementation-GNU-Time" xlink:title="CASE&#45;Implementation&#45;GNU&#45;Time\nadopts new case&#45;utils">
<path fill="#8ec7d2" stroke="#0d6986" d="M1669,-124C1669,-124 1483,-124 1483,-124 1477,-124 1471,-118 1471,-112 1471,-112 1471,-98 1471,-98 1471,-92 1477,-86 1483,-86 1483,-86 1669,-86 1669,-86 1675,-86 1681,-92 1681,-98 1681,-98 1681,-112 1681,-112 1681,-118 1675,-124 1669,-124"/>
<text text-anchor="middle" x="1576" y="-108.8" font-family="Times,serif" font-size="14.00">CASE&#45;Implementation&#45;GNU&#45;Time</text>
<text text-anchor="middle" x="1576" y="-93.8" font-family="Times,serif" font-size="14.00">adopts new case&#45;utils</text>
</a>
</g>
</g>
<!-- _GH__CASEWORK__CASE_CORPORA -->
<g id="node5" class="node">
<title>_GH__CASEWORK__CASE_CORPORA</title>
<g id="a_node5"><a xlink:href="https://github.com/casework/CASE-Corpora" xlink:title="CASE&#45;Corpora\nadopts new case&#45;prov">
<path fill="#8ec7d2" stroke="#0d6986" d="M1631,-576C1631,-576 1521,-576 1521,-576 1515,-576 1509,-570 1509,-564 1509,-564 1509,-550 1509,-550 1509,-544 1515,-538 1521,-538 1521,-538 1631,-538 1631,-538 1637,-538 1643,-544 1643,-550 1643,-550 1643,-564 1643,-564 1643,-570 1637,-576 1631,-576"/>
<text text-anchor="middle" x="1576" y="-560.8" font-family="Times,serif" font-size="14.00">CASE&#45;Corpora</text>
<text text-anchor="middle" x="1576" y="-545.8" font-family="Times,serif" font-size="14.00">adopts new case&#45;prov</text>
</a>
</g>
</g>
<!-- _GH__CASEWORK__CASE_IMPLEMENTATON_PYPI_EXIFREAD -->
<g id="node6" class="node">
<title>_GH__CASEWORK__CASE_IMPLEMENTATON_PYPI_EXIFREAD</title>
<g id="a_node6"><a xlink:href="https://github.com/casework/CASE-Implementation-PyPI-Exifread" xlink:title="CASE&#45;Implementation&#45;PyPI&#45;Exifread\nadopts new case&#45;validation&#45;action">
<path fill="#8ec7d2" stroke="#0d6986" d="M1676,-292C1676,-292 1476,-292 1476,-292 1470,-292 1464,-286 1464,-280 1464,-280 1464,-266 1464,-266 1464,-260 1470,-254 1476,-254 1476,-254 1676,-254 1676,-254 1682,-254 1688,-260 1688,-266 1688,-266 1688,-280 1688,-280 1688,-286 1682,-292 1676,-292"/>
<text text-anchor="middle" x="1576" y="-276.8" font-family="Times,serif" font-size="14.00">CASE&#45;Implementation&#45;PyPI&#45;Exifread</text>
<text text-anchor="middle" x="1576" y="-261.8" font-family="Times,serif" font-size="14.00">adopts new case&#45;validation&#45;action</text>
</a>
</g>
</g>
<!-- _GH__CASEWORK__CASE_IMPLEMENTATON_PYPI_PILLOW -->
<g id="node7" class="node">
<title>_GH__CASEWORK__CASE_IMPLEMENTATON_PYPI_PILLOW</title>
<g id="a_node7"><a xlink:href="https://github.com/casework/CASE-Implementation-PyPI-Pillow" xlink:title="CASE&#45;Implementation&#45;PyPI&#45;Pillow\nadopts new case&#45;validation&#45;action">
<path fill="#8ec7d2" stroke="#0d6986" d="M1670.5,-236C1670.5,-236 1481.5,-236 1481.5,-236 1475.5,-236 1469.5,-230 1469.5,-224 1469.5,-224 1469.5,-210 1469.5,-210 1469.5,-204 1475.5,-198 1481.5,-198 1481.5,-198 1670.5,-198 1670.5,-198 1676.5,-198 1682.5,-204 1682.5,-210 1682.5,-210 1682.5,-224 1682.5,-224 1682.5,-230 1676.5,-236 1670.5,-236"/>
<text text-anchor="middle" x="1576" y="-220.8" font-family="Times,serif" font-size="14.00">CASE&#45;Implementation&#45;PyPI&#45;Pillow</text>
<text text-anchor="middle" x="1576" y="-205.8" font-family="Times,serif" font-size="14.00">adopts new case&#45;validation&#45;action</text>
</a>
</g>
</g>
<!-- _GH__CASEWORK__CASE_IMPLEMENTATON_XRY -->
<g id="node8" class="node">
<title>_GH__CASEWORK__CASE_IMPLEMENTATON_XRY</title>
<g id="a_node8"><a xlink:href="https://github.com/casework/CASE-Implementation-XRY" xlink:title="CASE&#45;Implementation&#45;XRY adopts\nnew case&#45;validation&#45;action">
<path fill="#8ec7d2" stroke="#0d6986" d="M1671,-404C1671,-404 1481,-404 1481,-404 1475,-404 1469,-398 1469,-392 1469,-392 1469,-378 1469,-378 1469,-372 1475,-366 1481,-366 1481,-366 1671,-366 1671,-366 1677,-366 1683,-372 1683,-378 1683,-378 1683,-392 1683,-392 1683,-398 1677,-404 1671,-404"/>
<text text-anchor="middle" x="1576" y="-388.8" font-family="Times,serif" font-size="14.00">CASE&#45;Implementation&#45;XRY adopts</text>
<text text-anchor="middle" x="1576" y="-373.8" font-family="Times,serif" font-size="14.00">new case&#45;validation&#45;action</text>
</a>
</g>
</g>
<!-- _GH__CASEWORK__CASE_MAPPING_TEMPLATE_PYTHON -->
<g id="node9" class="node">
<title>_GH__CASEWORK__CASE_MAPPING_TEMPLATE_PYTHON</title>
<g id="a_node9"><a xlink:href="https://github.com/casework/CASE-Mapping-Template-Python" xlink:title="CASE&#45;Mapping&#45;Template&#45;Python\nadopts new case&#45;validation&#45;action">
<path fill="#8ec7d2" stroke="#0d6986" d="M1666,-348C1666,-348 1486,-348 1486,-348 1480,-348 1474,-342 1474,-336 1474,-336 1474,-322 1474,-322 1474,-316 1480,-310 1486,-310 1486,-310 1666,-310 1666,-310 1672,-310 1678,-316 1678,-322 1678,-322 1678,-336 1678,-336 1678,-342 1672,-348 1666,-348"/>
<text text-anchor="middle" x="1576" y="-332.8" font-family="Times,serif" font-size="14.00">CASE&#45;Mapping&#45;Template&#45;Python</text>
<text text-anchor="middle" x="1576" y="-317.8" font-family="Times,serif" font-size="14.00">adopts new case&#45;validation&#45;action</text>
</a>
</g>
</g>
<!-- _GH__CASEWORK__CASE_BINDINGS_CSHARP_MONITOR -->
<g id="node10" class="node">
<title>_GH__CASEWORK__CASE_BINDINGS_CSHARP_MONITOR</title>
<g id="a_node10"><a xlink:href="https://github.com/casework/CASE-Bindings-CSharp-Monitor" xlink:title="CASE Bindings CSharp Monitor\ntests NuGet package with validation action">
<path fill="#8ec7d2" stroke="#0d6986" d="M2000,-460C2000,-460 1773,-460 1773,-460 1767,-460 1761,-454 1761,-448 1761,-448 1761,-434 1761,-434 1761,-428 1767,-422 1773,-422 1773,-422 2000,-422 2000,-422 2006,-422 2012,-428 2012,-434 2012,-434 2012,-448 2012,-448 2012,-454 2006,-460 2000,-460"/>
<text text-anchor="middle" x="1886.5" y="-444.8" font-family="Times,serif" font-size="14.00">CASE Bindings CSharp Monitor</text>
<text text-anchor="middle" x="1886.5" y="-429.8" font-family="Times,serif" font-size="14.00">tests NuGet package with validation action</text>
</a>
</g>
</g>
<!-- _GH__CIPHERTECHSOLUTIONS__CASE_BINDINGS_CSHARP -->
<g id="node11" class="node">
<title>_GH__CIPHERTECHSOLUTIONS__CASE_BINDINGS_CSHARP</title>
<g id="a_node11"><a xlink:href="https://github.com/ciphertechsolutions/CASE-Bindings-CSharp" xlink:title="CASE&#45;Bindings&#45;CSharp\nadopts new ontology version">
<path fill="#8ec7d2" stroke="#0d6986" d="M1650.5,-460C1650.5,-460 1501.5,-460 1501.5,-460 1495.5,-460 1489.5,-454 1489.5,-448 1489.5,-448 1489.5,-434 1489.5,-434 1489.5,-428 1495.5,-422 1501.5,-422 1501.5,-422 1650.5,-422 1650.5,-422 1656.5,-422 1662.5,-428 1662.5,-434 1662.5,-434 1662.5,-448 1662.5,-448 1662.5,-454 1656.5,-460 1650.5,-460"/>
<text text-anchor="middle" x="1576" y="-444.8" font-family="Times,serif" font-size="14.00">CASE&#45;Bindings&#45;CSharp</text>
<text text-anchor="middle" x="1576" y="-429.8" font-family="Times,serif" font-size="14.00">adopts new ontology version</text>
</a>
</g>
</g>
<!-- _GH__CIPHERTECHSOLUTIONS__CASE_BINDINGS_CSHARP&#45;&gt;_GH__CASEWORK__CASE_BINDINGS_CSHARP_MONITOR -->
<g id="edge15" class="edge">
<title>_GH__CIPHERTECHSOLUTIONS__CASE_BINDINGS_CSHARP&#45;&gt;_GH__CASEWORK__CASE_BINDINGS_CSHARP_MONITOR</title>
<path fill="none" stroke="black" d="M1662.93,-441C1689.73,-441 1719.97,-441 1749.33,-441"/>
<polygon fill="black" stroke="black" points="1749.02,-444.5 1759.02,-441 1749.02,-437.5 1749.02,-444.5"/>
<text text-anchor="middle" x="1724.5" y="-444.8" font-family="Times,serif" font-size="14.00">NuGet</text>
</g>
<!-- _GH__UCOPROJECT__UCO -->
<g id="node12" class="node">
<title>_GH__UCOPROJECT__UCO</title>
<g id="a_node12"><a xlink:href="https://github.com/ucoProject/UCO" xlink:title="UCO Ontology\nreleases">
<path fill="#8ec7d2" stroke="#0d6986" d="M104,-420C104,-420 28,-420 28,-420 22,-420 16,-414 16,-408 16,-408 16,-394 16,-394 16,-388 22,-382 28,-382 28,-382 104,-382 104,-382 110,-382 116,-388 116,-394 116,-394 116,-408 116,-408 116,-414 110,-420 104,-420"/>
<text text-anchor="middle" x="66" y="-404.8" font-family="Times,serif" font-size="14.00">UCO Ontology</text>
<text text-anchor="middle" x="66" y="-389.8" font-family="Times,serif" font-size="14.00">releases</text>
</a>
</g>
</g>
<!-- _GH__UCOPROJECT__UCO&#45;&gt;_GH__UCOPROJECT__ONTOLOGY_UNIFIEDCYBERONTOLOGY_ORG -->
<g id="edge24" class="edge">
<title>_GH__UCOPROJECT__UCO&#45;&gt;_GH__UCOPROJECT__ONTOLOGY_UNIFIEDCYBERONTOLOGY_ORG</title>
<path fill="none" stroke="black" d="M77.38,-381.54C95.63,-349.18 136.54,-284.39 189,-249 191.69,-247.19 194.52,-245.5 197.44,-243.93"/>
<polygon fill="black" stroke="black" points="198.78,-247.17 206.3,-239.7 195.76,-240.85 198.78,-247.17"/>
<text text-anchor="middle" x="156.5" y="-317.8" font-family="Times,serif" font-size="14.00">Git sub&#45;</text>
<text text-anchor="middle" x="156.5" y="-302.8" font-family="Times,serif" font-size="14.00">module</text>
</g>
<!-- _GH__CASEWORK__CASE -->
<g id="node13" class="node">
<title>_GH__CASEWORK__CASE</title>
<g id="a_node13"><a xlink:href="https://github.com/casework/CASE" xlink:title="CASE Ontology\nreleases">
<path fill="#8ec7d2" stroke="#0d6986" d="M314,-460C314,-460 232,-460 232,-460 226,-460 220,-454 220,-448 220,-448 220,-434 220,-434 220,-428 226,-422 232,-422 232,-422 314,-422 314,-422 320,-422 326,-428 326,-434 326,-434 326,-448 326,-448 326,-454 320,-460 314,-460"/>
<text text-anchor="middle" x="273" y="-444.8" font-family="Times,serif" font-size="14.00">CASE Ontology</text>
<text text-anchor="middle" x="273" y="-429.8" font-family="Times,serif" font-size="14.00">releases</text>
</a>
</g>
</g>
<!-- _GH__UCOPROJECT__UCO&#45;&gt;_GH__CASEWORK__CASE -->
<g id="edge23" class="edge">
<title>_GH__UCOPROJECT__UCO&#45;&gt;_GH__CASEWORK__CASE</title>
<path fill="none" stroke="black" d="M116.36,-410.63C144.1,-416.04 179.01,-422.85 208.73,-428.65"/>
<polygon fill="black" stroke="black" points="207.87,-432.05 218.36,-430.53 209.21,-425.18 207.87,-432.05"/>
<text text-anchor="middle" x="156.5" y="-440.8" font-family="Times,serif" font-size="14.00">Git sub&#45;</text>
<text text-anchor="middle" x="156.5" y="-425.8" font-family="Times,serif" font-size="14.00">module</text>
</g>
<!-- _GH__CASEWORK__CASE&#45;&gt;_GH__CIPHERTECHSOLUTIONS__CASE_BINDINGS_CSHARP -->
<g id="edge3" class="edge">
<title>_GH__CASEWORK__CASE&#45;&gt;_GH__CIPHERTECHSOLUTIONS__CASE_BINDINGS_CSHARP</title>
<path fill="none" stroke="black" d="M278.28,-460.45C291.06,-513.59 334.13,-662.05 430,-734 454.33,-752.26 466.58,-748 497,-748 497,-748 497,-748 1280.5,-748 1381.77,-748 1381.91,-663.11 1424,-571 1432.44,-552.52 1420.44,-542.71 1432,-526 1450.88,-498.71 1481.61,-478.8 1509.76,-465.13"/>
<polygon fill="black" stroke="black" points="1511.02,-468.41 1518.62,-461.02 1508.07,-462.06 1511.02,-468.41"/>
</g>
<!-- _GH__CASEWORK__ONTOLOGY_CASEONTOLOGY_ORG -->
<g id="node14" class="node">
<title>_GH__CASEWORK__ONTOLOGY_CASEONTOLOGY_ORG</title>
<g id="a_node14"><a xlink:href="https://github.com/casework/ontology.caseontology.org" xlink:title="CASE documentation\nregenerated">
<path fill="#8ec7d2" stroke="#0d6986" d="M554,-423C554,-423 442,-423 442,-423 436,-423 430,-417 430,-411 430,-411 430,-397 430,-397 430,-391 436,-385 442,-385 442,-385 554,-385 554,-385 560,-385 566,-391 566,-397 566,-397 566,-411 566,-411 566,-417 560,-423 554,-423"/>
<text text-anchor="middle" x="498" y="-407.8" font-family="Times,serif" font-size="14.00">CASE documentation</text>
<text text-anchor="middle" x="498" y="-392.8" font-family="Times,serif" font-size="14.00">regenerated</text>
</a>
</g>
</g>
<!-- _GH__CASEWORK__CASE&#45;&gt;_GH__CASEWORK__ONTOLOGY_CASEONTOLOGY_ORG -->
<g id="edge4" class="edge">
<title>_GH__CASEWORK__CASE&#45;&gt;_GH__CASEWORK__ONTOLOGY_CASEONTOLOGY_ORG</title>
<path fill="none" stroke="black" d="M326.4,-427.47C339.59,-424.38 353.76,-421.32 367,-419 383.61,-416.09 401.52,-413.6 418.58,-411.54"/>
<polygon fill="black" stroke="black" points="418.62,-415.06 428.14,-410.42 417.8,-408.11 418.62,-415.06"/>
<text text-anchor="middle" x="389.5" y="-437.8" font-family="Times,serif" font-size="14.00">Git sub&#45;</text>
<text text-anchor="middle" x="389.5" y="-422.8" font-family="Times,serif" font-size="14.00">module</text>
</g>
<!-- _GH__CASEWORK__CASE_UTILITIES_PYTHON -->
<g id="node17" class="node">
<title>_GH__CASEWORK__CASE_UTILITIES_PYTHON</title>
<g id="a_node17"><a xlink:href="https://github.com/casework/CASE-Utilities-Python" xlink:title="case&#45;utils\nreleases">
<path fill="#8ec7d2" stroke="#0d6986" d="M520,-488C520,-488 476,-488 476,-488 470,-488 464,-482 464,-476 464,-476 464,-462 464,-462 464,-456 470,-450 476,-450 476,-450 520,-450 520,-450 526,-450 532,-456 532,-462 532,-462 532,-476 532,-476 532,-482 526,-488 520,-488"/>
<text text-anchor="middle" x="498" y="-472.8" font-family="Times,serif" font-size="14.00">case&#45;utils</text>
<text text-anchor="middle" x="498" y="-457.8" font-family="Times,serif" font-size="14.00">releases</text>
</a>
</g>
</g>
<!-- _GH__CASEWORK__CASE&#45;&gt;_GH__CASEWORK__CASE_UTILITIES_PYTHON -->
<g id="edge2" class="edge">
<title>_GH__CASEWORK__CASE&#45;&gt;_GH__CASEWORK__CASE_UTILITIES_PYTHON</title>
<path fill="none" stroke="black" d="M326.28,-447.56C364.62,-452.38 416.11,-458.84 452.48,-463.41"/>
<polygon fill="black" stroke="black" points="451.87,-466.86 462.22,-464.63 452.74,-459.91 451.87,-466.86"/>
<text text-anchor="middle" x="389.5" y="-475.8" font-family="Times,serif" font-size="14.00">Git sub&#45;</text>
<text text-anchor="middle" x="389.5" y="-460.8" font-family="Times,serif" font-size="14.00">module</text>
</g>
<!-- _GH__AJNELSON_NIST__CASE_EXAMPLES_QC -->
<g id="node15" class="node">
<title>_GH__AJNELSON_NIST__CASE_EXAMPLES_QC</title>
<g id="a_node15"><a xlink:href="https://github.com/ajnelson-nist/CASE-Examples-QC" xlink:title="CASE&#45;Examples&#45;QC\nadopts CASE&#45;Examples and\nCASE website updates">
<path fill="#8ec7d2" stroke="#0d6986" d="M1063,-574.5C1063,-574.5 915,-574.5 915,-574.5 909,-574.5 903,-568.5 903,-562.5 903,-562.5 903,-533.5 903,-533.5 903,-527.5 909,-521.5 915,-521.5 915,-521.5 1063,-521.5 1063,-521.5 1069,-521.5 1075,-527.5 1075,-533.5 1075,-533.5 1075,-562.5 1075,-562.5 1075,-568.5 1069,-574.5 1063,-574.5"/>
<text text-anchor="middle" x="989" y="-559.3" font-family="Times,serif" font-size="14.00">CASE&#45;Examples&#45;QC</text>
<text text-anchor="middle" x="989" y="-544.3" font-family="Times,serif" font-size="14.00">adopts CASE&#45;Examples and</text>
<text text-anchor="middle" x="989" y="-529.3" font-family="Times,serif" font-size="14.00">CASE website updates</text>
</a>
</g>
</g>
<!-- _GH__CASEWORK__CASE_IMPLEMENTATON_PROV_O -->
<g id="node19" class="node">
<title>_GH__CASEWORK__CASE_IMPLEMENTATON_PROV_O</title>
<g id="a_node19"><a xlink:href="https://github.com/casework/CASE-Implementation-PROV-O" xlink:title="case&#45;prov\nreleases">
<path fill="#8ec7d2" stroke="#0d6986" d="M1302,-567C1302,-567 1257,-567 1257,-567 1251,-567 1245,-561 1245,-555 1245,-555 1245,-541 1245,-541 1245,-535 1251,-529 1257,-529 1257,-529 1302,-529 1302,-529 1308,-529 1314,-535 1314,-541 1314,-541 1314,-555 1314,-555 1314,-561 1308,-567 1302,-567"/>
<text text-anchor="middle" x="1279.5" y="-551.8" font-family="Times,serif" font-size="14.00">case&#45;prov</text>
<text text-anchor="middle" x="1279.5" y="-536.8" font-family="Times,serif" font-size="14.00">releases</text>
</a>
</g>
</g>
<!-- _GH__AJNELSON_NIST__CASE_EXAMPLES_QC&#45;&gt;_GH__CASEWORK__CASE_IMPLEMENTATON_PROV_O -->
<g id="edge1" class="edge">
<title>_GH__AJNELSON_NIST__CASE_EXAMPLES_QC&#45;&gt;_GH__CASEWORK__CASE_IMPLEMENTATON_PROV_O</title>
<path fill="none" stroke="black" d="M1075.13,-531.27C1102.51,-527.7 1133,-525.63 1161,-528 1185.03,-530.03 1211.54,-534.36 1233.28,-538.47"/>
<polygon fill="black" stroke="black" points="1232.53,-541.89 1243.02,-540.36 1233.87,-535.02 1232.53,-541.89"/>
<text text-anchor="middle" x="1138.5" y="-546.8" font-family="Times,serif" font-size="14.00">Git sub&#45;</text>
<text text-anchor="middle" x="1138.5" y="-531.8" font-family="Times,serif" font-size="14.00">module</text>
</g>
<!-- _GH__CASEWORK__CASE_EXAMPLES -->
<g id="node16" class="node">
<title>_GH__CASEWORK__CASE_EXAMPLES</title>
<g id="a_node16"><a xlink:href="https://github.com/casework/CASE-Examples" xlink:title="CASE&#45;Examples\nadopts new case&#45;utils">
<path fill="#8ec7d2" stroke="#0d6986" d="M751.5,-497C751.5,-497 642.5,-497 642.5,-497 636.5,-497 630.5,-491 630.5,-485 630.5,-485 630.5,-471 630.5,-471 630.5,-465 636.5,-459 642.5,-459 642.5,-459 751.5,-459 751.5,-459 757.5,-459 763.5,-465 763.5,-471 763.5,-471 763.5,-485 763.5,-485 763.5,-491 757.5,-497 751.5,-497"/>
<text text-anchor="middle" x="697" y="-481.8" font-family="Times,serif" font-size="14.00">CASE&#45;Examples</text>
<text text-anchor="middle" x="697" y="-466.8" font-family="Times,serif" font-size="14.00">adopts new case&#45;utils</text>
</a>
</g>
</g>
<!-- _GH__CASEWORK__CASE_EXAMPLES&#45;&gt;_GH__AJNELSON_NIST__CASE_EXAMPLES_QC -->
<g id="edge5" class="edge">
<title>_GH__CASEWORK__CASE_EXAMPLES&#45;&gt;_GH__AJNELSON_NIST__CASE_EXAMPLES_QC</title>
<path fill="none" stroke="black" d="M763.98,-485.72C794.12,-489.94 830.13,-495.98 862,-504 876.83,-507.73 892.38,-512.46 907.3,-517.43"/>
<polygon fill="black" stroke="black" points="906.01,-520.69 916.6,-520.59 908.26,-514.06 906.01,-520.69"/>
<text text-anchor="middle" x="822.5" y="-522.8" font-family="Times,serif" font-size="14.00">Git sub&#45;</text>
<text text-anchor="middle" x="822.5" y="-507.8" font-family="Times,serif" font-size="14.00">module</text>
</g>
<!-- _GH__CASEWORK__CASE_UTILITIES_PYTHON&#45;&gt;_GH__CASEWORK__CASE_IMPLEMENTATON_EXIFTOOL -->
<g id="edge9" class="edge">
<title>_GH__CASEWORK__CASE_UTILITIES_PYTHON&#45;&gt;_GH__CASEWORK__CASE_IMPLEMENTATON_EXIFTOOL</title>
<path fill="none" stroke="black" d="M532.48,-463.19C544.19,-459.79 556.71,-454.43 566,-446 669.11,-352.46 556.78,-161 696,-161 696,-161 696,-161 1280.5,-161 1341.97,-161 1410.65,-161 1466.21,-161"/>
<polygon fill="black" stroke="black" points="1465.99,-164.5 1475.99,-161 1465.99,-157.5 1465.99,-164.5"/>
<text text-anchor="middle" x="989" y="-164.8" font-family="Times,serif" font-size="14.00">PyPI</text>
</g>
<!-- _GH__CASEWORK__CASE_UTILITIES_PYTHON&#45;&gt;_GH__CASEWORK__CASE_IMPLEMENTATON_GNU_TIME -->
<g id="edge10" class="edge">
<title>_GH__CASEWORK__CASE_UTILITIES_PYTHON&#45;&gt;_GH__CASEWORK__CASE_IMPLEMENTATON_GNU_TIME</title>
<path fill="none" stroke="black" d="M532.26,-464.71C544.51,-461.49 557.46,-455.85 566,-446 568.68,-442.91 618.74,-160.41 621,-157 643.14,-123.61 655.94,-107 696,-107 696,-107 696,-107 1280.5,-107 1339.45,-107 1405.04,-106.59 1459.33,-106.15"/>
<polygon fill="black" stroke="black" points="1459.25,-109.65 1469.22,-106.07 1459.19,-102.65 1459.25,-109.65"/>
<text text-anchor="middle" x="989" y="-110.8" font-family="Times,serif" font-size="14.00">PyPI</text>
</g>
<!-- _GH__CASEWORK__CASE_UTILITIES_PYTHON&#45;&gt;_GH__AJNELSON_NIST__CASE_EXAMPLES_QC -->
<g id="edge7" class="edge">
<title>_GH__CASEWORK__CASE_UTILITIES_PYTHON&#45;&gt;_GH__AJNELSON_NIST__CASE_EXAMPLES_QC</title>
<path fill="none" stroke="black" d="M532.45,-475.34C544.01,-478.79 556.46,-484.05 566,-492 578.54,-502.44 574.23,-510.93 584,-524 598.12,-542.88 599.67,-551.97 621,-562 705.97,-601.94 814.62,-591.3 891.6,-575.05"/>
<polygon fill="black" stroke="black" points="892.22,-578.5 901.24,-572.94 890.72,-571.66 892.22,-578.5"/>
<text text-anchor="middle" x="697" y="-592.8" font-family="Times,serif" font-size="14.00">PyPI</text>
</g>
<!-- _GH__CASEWORK__CASE_UTILITIES_PYTHON&#45;&gt;_GH__CASEWORK__CASE_EXAMPLES -->
<g id="edge8" class="edge">
<title>_GH__CASEWORK__CASE_UTILITIES_PYTHON&#45;&gt;_GH__CASEWORK__CASE_EXAMPLES</title>
<path fill="none" stroke="black" d="M532.42,-470.53C556.07,-471.61 588.79,-473.1 618.75,-474.47"/>
<polygon fill="black" stroke="black" points="618.41,-477.96 628.56,-474.92 618.73,-470.97 618.41,-477.96"/>
<text text-anchor="middle" x="597.5" y="-477.8" font-family="Times,serif" font-size="14.00">PyPI</text>
</g>
<!-- _GH__CASEWORK__CASEWORK_GITHUB_IO -->
<g id="node18" class="node">
<title>_GH__CASEWORK__CASEWORK_GITHUB_IO</title>
<g id="a_node18"><a xlink:href="https://github.com/casework/casework.github.io" xlink:title="CASE website\nadopts new case&#45;utils">
<path fill="#8ec7d2" stroke="#0d6986" d="M751.5,-553C751.5,-553 642.5,-553 642.5,-553 636.5,-553 630.5,-547 630.5,-541 630.5,-541 630.5,-527 630.5,-527 630.5,-521 636.5,-515 642.5,-515 642.5,-515 751.5,-515 751.5,-515 757.5,-515 763.5,-521 763.5,-527 763.5,-527 763.5,-541 763.5,-541 763.5,-547 757.5,-553 751.5,-553"/>
<text text-anchor="middle" x="697" y="-537.8" font-family="Times,serif" font-size="14.00">CASE website</text>
<text text-anchor="middle" x="697" y="-522.8" font-family="Times,serif" font-size="14.00">adopts new case&#45;utils</text>
</a>
</g>
</g>
<!-- _GH__CASEWORK__CASE_UTILITIES_PYTHON&#45;&gt;_GH__CASEWORK__CASEWORK_GITHUB_IO -->
<g id="edge13" class="edge">
<title>_GH__CASEWORK__CASE_UTILITIES_PYTHON&#45;&gt;_GH__CASEWORK__CASEWORK_GITHUB_IO</title>
<path fill="none" stroke="black" d="M532.42,-480.03C558.16,-488.52 594.63,-500.55 626.61,-511.11"/>
<polygon fill="black" stroke="black" points="625.23,-514.34 635.83,-514.15 627.43,-507.69 625.23,-514.34"/>
<text text-anchor="middle" x="597.5" y="-508.8" font-family="Times,serif" font-size="14.00">PyPI</text>
</g>
<!-- _GH__CASEWORK__CASE_UTILITIES_PYTHON&#45;&gt;_GH__CASEWORK__CASE_IMPLEMENTATON_PROV_O -->
<g id="edge11" class="edge">
<title>_GH__CASEWORK__CASE_UTILITIES_PYTHON&#45;&gt;_GH__CASEWORK__CASE_IMPLEMENTATON_PROV_O</title>
<path fill="none" stroke="black" d="M532.5,-462.35C556.92,-457.86 590.87,-452.33 621,-450 853.31,-432.02 1128.14,-503.35 1233.94,-534.31"/>
<polygon fill="black" stroke="black" points="1232.78,-537.62 1243.37,-537.1 1234.77,-530.9 1232.78,-537.62"/>
<text text-anchor="middle" x="822.5" y="-459.8" font-family="Times,serif" font-size="14.00">PyPI</text>
</g>
<!-- _GH__KCHASON__CASE_VALIDATION_ACTION -->
<g id="node21" class="node">
<title>_GH__KCHASON__CASE_VALIDATION_ACTION</title>
<g id="a_node21"><a xlink:href="https://github.com/kchason/case-validation-action" xlink:title="case&#45;validation&#45;action\nreleases">
<path fill="#8ec7d2" stroke="#0d6986" d="M753,-660C753,-660 641,-660 641,-660 635,-660 629,-654 629,-648 629,-648 629,-634 629,-634 629,-628 635,-622 641,-622 641,-622 753,-622 753,-622 759,-622 765,-628 765,-634 765,-634 765,-648 765,-648 765,-654 759,-660 753,-660"/>
<text text-anchor="middle" x="697" y="-644.8" font-family="Times,serif" font-size="14.00">case&#45;validation&#45;action</text>
<text text-anchor="middle" x="697" y="-629.8" font-family="Times,serif" font-size="14.00">releases</text>
</a>
</g>
</g>
<!-- _GH__CASEWORK__CASE_UTILITIES_PYTHON&#45;&gt;_GH__KCHASON__CASE_VALIDATION_ACTION -->
<g id="edge12" class="edge">
<title>_GH__CASEWORK__CASE_UTILITIES_PYTHON&#45;&gt;_GH__KCHASON__CASE_VALIDATION_ACTION</title>
<path fill="none" stroke="black" d="M532.33,-473.23C544.59,-476.45 557.53,-482.09 566,-492 595.92,-526.99 558.58,-555.62 584,-594 592.39,-606.66 604.92,-615.92 618.6,-622.68"/>
<polygon fill="black" stroke="black" points="616.78,-625.71 627.34,-626.57 619.62,-619.31 616.78,-625.71"/>
<text text-anchor="middle" x="597.5" y="-620.8" font-family="Times,serif" font-size="14.00">PyPI</text>
</g>
<!-- _GH__CASEWORK__CASEWORK_GITHUB_IO&#45;&gt;_GH__AJNELSON_NIST__CASE_EXAMPLES_QC -->
<g id="edge14" class="edge">
<title>_GH__CASEWORK__CASEWORK_GITHUB_IO&#45;&gt;_GH__AJNELSON_NIST__CASE_EXAMPLES_QC</title>
<path fill="none" stroke="black" d="M763.81,-537.18C801.46,-538.99 849.4,-541.31 891.27,-543.33"/>
<polygon fill="black" stroke="black" points="890.96,-546.82 901.11,-543.81 891.29,-539.83 890.96,-546.82"/>
<text text-anchor="middle" x="822.5" y="-559.8" font-family="Times,serif" font-size="14.00">Git sub&#45;</text>
<text text-anchor="middle" x="822.5" y="-544.8" font-family="Times,serif" font-size="14.00">module</text>
</g>
<!-- _GH__CASEWORK__CASE_IMPLEMENTATON_PROV_O&#45;&gt;_GH__CASEWORK__CASE_CORPORA -->
<g id="edge6" class="edge">
<title>_GH__CASEWORK__CASE_IMPLEMENTATON_PROV_O&#45;&gt;_GH__CASEWORK__CASE_CORPORA</title>
<path fill="none" stroke="black" d="M1314.28,-549.03C1358.64,-550.39 1437.85,-552.81 1497.36,-554.63"/>
<polygon fill="black" stroke="black" points="1496.99,-558.12 1507.09,-554.92 1497.2,-551.12 1496.99,-558.12"/>
<text text-anchor="middle" x="1410.5" y="-555.8" font-family="Times,serif" font-size="14.00">PyPI</text>
</g>
<!-- _GH__CASEWORK__CASE_IMPLEMENTATON_UFED_XML -->
<g id="node20" class="node">
<title>_GH__CASEWORK__CASE_IMPLEMENTATON_UFED_XML</title>
<g id="a_node20"><a xlink:href="https://github.com/casework/CASE-Implementation-UFED-XML" xlink:title="CASE&#45;Implementation&#45;UFED&#45;XML\nadopts new case&#45;validation&#45;action">
<path fill="#8ec7d2" stroke="#0d6986" d="M1086,-658C1086,-658 892,-658 892,-658 886,-658 880,-652 880,-646 880,-646 880,-632 880,-632 880,-626 886,-620 892,-620 892,-620 1086,-620 1086,-620 1092,-620 1098,-626 1098,-632 1098,-632 1098,-646 1098,-646 1098,-652 1092,-658 1086,-658"/>
<text text-anchor="middle" x="989" y="-642.8" font-family="Times,serif" font-size="14.00">CASE&#45;Implementation&#45;UFED&#45;XML</text>
<text text-anchor="middle" x="989" y="-627.8" font-family="Times,serif" font-size="14.00">adopts new case&#45;validation&#45;action</text>
</a>
</g>
</g>
<!-- _GH__KCHASON__CASE_VALIDATION_ACTION&#45;&gt;_GH__CASEWORK__CASE_IMPLEMENTATON_PYPI_EXIFREAD -->
<g id="edge17" class="edge">
<title>_GH__KCHASON__CASE_VALIDATION_ACTION&#45;&gt;_GH__CASEWORK__CASE_IMPLEMENTATON_PYPI_EXIFREAD</title>
<path fill="none" stroke="black" d="M761.89,-621.62C762.99,-620.48 764.03,-619.27 765,-618 806.97,-562.67 735.21,-356.39 783,-306 871.48,-212.7 1252.81,-238.03 1452.29,-258.51"/>
<polygon fill="black" stroke="black" points="1451.89,-261.99 1462.2,-259.54 1452.61,-255.02 1451.89,-261.99"/>
<text text-anchor="middle" x="1138.5" y="-257.8" font-family="Times,serif" font-size="14.00">GitHub</text>
<text text-anchor="middle" x="1138.5" y="-242.8" font-family="Times,serif" font-size="14.00">Action</text>
</g>
<!-- _GH__KCHASON__CASE_VALIDATION_ACTION&#45;&gt;_GH__CASEWORK__CASE_IMPLEMENTATON_PYPI_PILLOW -->
<g id="edge18" class="edge">
<title>_GH__KCHASON__CASE_VALIDATION_ACTION&#45;&gt;_GH__CASEWORK__CASE_IMPLEMENTATON_PYPI_PILLOW</title>
<path fill="none" stroke="black" d="M761.9,-621.62C763,-620.48 764.04,-619.28 765,-618 812.9,-554.36 732.64,-321.72 783,-260 865.3,-159.13 1258.08,-183.81 1457.81,-203.6"/>
<polygon fill="black" stroke="black" points="1457.41,-207.08 1467.71,-204.6 1458.11,-200.11 1457.41,-207.08"/>
<text text-anchor="middle" x="1138.5" y="-203.8" font-family="Times,serif" font-size="14.00">GitHub</text>
<text text-anchor="middle" x="1138.5" y="-188.8" font-family="Times,serif" font-size="14.00">Action</text>
</g>
<!-- _GH__KCHASON__CASE_VALIDATION_ACTION&#45;&gt;_GH__CASEWORK__CASE_IMPLEMENTATON_XRY -->
<g id="edge20" class="edge">
<title>_GH__KCHASON__CASE_VALIDATION_ACTION&#45;&gt;_GH__CASEWORK__CASE_IMPLEMENTATON_XRY</title>
<path fill="none" stroke="black" d="M761.83,-621.57C762.95,-620.44 764.01,-619.26 765,-618 791.38,-584.51 752.79,-457.08 783,-427 829.64,-380.55 1248.54,-380.06 1457.52,-382.78"/>
<polygon fill="black" stroke="black" points="1457.28,-386.28 1467.33,-382.92 1457.37,-379.28 1457.28,-386.28"/>
<text text-anchor="middle" x="1138.5" y="-402.8" font-family="Times,serif" font-size="14.00">GitHub</text>
<text text-anchor="middle" x="1138.5" y="-387.8" font-family="Times,serif" font-size="14.00">Action</text>
</g>
<!-- _GH__KCHASON__CASE_VALIDATION_ACTION&#45;&gt;_GH__CASEWORK__CASE_MAPPING_TEMPLATE_PYTHON -->
<g id="edge21" class="edge">
<title>_GH__KCHASON__CASE_VALIDATION_ACTION&#45;&gt;_GH__CASEWORK__CASE_MAPPING_TEMPLATE_PYTHON</title>
<path fill="none" stroke="black" d="M761.88,-621.61C762.99,-620.47 764.03,-619.27 765,-618 803.49,-567.54 741.15,-380.7 783,-333 826.75,-283.14 1254.47,-306.17 1462.5,-320.54"/>
<polygon fill="black" stroke="black" points="1462.03,-324.01 1472.25,-321.21 1462.51,-317.03 1462.03,-324.01"/>
<text text-anchor="middle" x="1138.5" y="-322.8" font-family="Times,serif" font-size="14.00">GitHub</text>
<text text-anchor="middle" x="1138.5" y="-307.8" font-family="Times,serif" font-size="14.00">Action</text>
</g>
<!-- _GH__KCHASON__CASE_VALIDATION_ACTION&#45;&gt;_GH__CASEWORK__CASE_BINDINGS_CSHARP_MONITOR -->
<g id="edge16" class="edge">
<title>_GH__KCHASON__CASE_VALIDATION_ACTION&#45;&gt;_GH__CASEWORK__CASE_BINDINGS_CSHARP_MONITOR</title>
<path fill="none" stroke="black" d="M737.84,-660.33C848.81,-711.5 1169.98,-841.28 1424,-762 1613.86,-702.74 1793.89,-534.42 1859.43,-468.22"/>
<polygon fill="black" stroke="black" points="1861.63,-470.97 1866.14,-461.38 1856.64,-466.07 1861.63,-470.97"/>
<text text-anchor="middle" x="1279.5" y="-805.8" font-family="Times,serif" font-size="14.00">GitHub</text>
<text text-anchor="middle" x="1279.5" y="-790.8" font-family="Times,serif" font-size="14.00">Action</text>
</g>
<!-- _GH__KCHASON__CASE_VALIDATION_ACTION&#45;&gt;_GH__CASEWORK__CASE_IMPLEMENTATON_UFED_XML -->
<g id="edge19" class="edge">
<title>_GH__KCHASON__CASE_VALIDATION_ACTION&#45;&gt;_GH__CASEWORK__CASE_IMPLEMENTATON_UFED_XML</title>
<path fill="none" stroke="black" d="M765.26,-640.54C795.91,-640.32 833.14,-640.07 868.32,-639.83"/>
<polygon fill="black" stroke="black" points="868.16,-643.33 878.14,-639.76 868.12,-636.33 868.16,-643.33"/>
<text text-anchor="middle" x="822.5" y="-658.8" font-family="Times,serif" font-size="14.00">GitHub</text>
<text text-anchor="middle" x="822.5" y="-643.8" font-family="Times,serif" font-size="14.00">Action</text>
</g>
<!-- _GH__DOD_CYBER_CRIME_CENTER__SQLITE_DISSECT -->
<g id="node22" class="node">
<title>_GH__DOD_CYBER_CRIME_CENTER__SQLITE_DISSECT</title>
<g id="a_node22"><a xlink:href="https://github.com/dod-cyber-crime-center/sqlite-dissect" xlink:title="sqlite&#45;dissect\nadopts new case&#45;validation&#45;action">
<path fill="#8ec7d2" stroke="#0d6986" d="M1077.5,-361C1077.5,-361 900.5,-361 900.5,-361 894.5,-361 888.5,-355 888.5,-349 888.5,-349 888.5,-335 888.5,-335 888.5,-329 894.5,-323 900.5,-323 900.5,-323 1077.5,-323 1077.5,-323 1083.5,-323 1089.5,-329 1089.5,-335 1089.5,-335 1089.5,-349 1089.5,-349 1089.5,-355 1083.5,-361 1077.5,-361"/>
<text text-anchor="middle" x="989" y="-345.8" font-family="Times,serif" font-size="14.00">sqlite&#45;dissect</text>
<text text-anchor="middle" x="989" y="-330.8" font-family="Times,serif" font-size="14.00">adopts new case&#45;validation&#45;action</text>
</a>
</g>
</g>
<!-- _GH__KCHASON__CASE_VALIDATION_ACTION&#45;&gt;_GH__DOD_CYBER_CRIME_CENTER__SQLITE_DISSECT -->
<g id="edge22" class="edge">
<title>_GH__KCHASON__CASE_VALIDATION_ACTION&#45;&gt;_GH__DOD_CYBER_CRIME_CENTER__SQLITE_DISSECT</title>
<g id="a_edge22"><a xlink:href="https://github.com/dod-cyber-crime-center/sqlite-dissect/pull/31" xlink:title="TODO: PR 31">
<path fill="none" stroke="black" d="M761.86,-621.59C762.97,-620.46 764.02,-619.27 765,-618 797.94,-575.31 746.62,-415.81 783,-376 806.72,-350.05 842.08,-338.92 876.79,-335.1"/>
<polygon fill="black" stroke="black" points="876.86,-338.61 886.52,-334.24 876.25,-331.64 876.86,-338.61"/>
</a>
</g>
<g id="a_edge22&#45;label"><a xlink:href="https://github.com/dod-cyber-crime-center/sqlite-dissect/pull/31" xlink:title="TODO: PR 31">
<text text-anchor="middle" x="822.5" y="-379.8" font-family="Times,serif" font-size="14.00">TODO: PR 31</text>
</a>
</g>
</g>
</g>
</svg>
