<?xml version="1.0" encoding="UTF-8" standalone="no"?>
<!DOCTYPE svg PUBLIC "-//W3C//DTD SVG 1.1//EN"
 "http://www.w3.org/Graphics/SVG/1.1/DTD/svg11.dtd">
<!-- Generated by graphviz version 8.0.3 (20230416.2022)
 -->
<!-- Title: cdo_release_flow Pages: 1 -->
<svg width="1812pt" height="1272pt"
 viewBox="0.00 0.00 1812.00 1272.00" xmlns="http://www.w3.org/2000/svg" xmlns:xlink="http://www.w3.org/1999/xlink">
<g id="graph0" class="graph" transform="scale(1 1) rotate(0) translate(4 1268)">
<title>cdo_release_flow</title>
<polygon fill="white" stroke="none" points="-4,4 -4,-1268 1808,-1268 1808,4 -4,4"/>
<text text-anchor="middle" x="902" y="-38.8" font-family="Times,serif" font-size="14.00">Release flow of CDO ontologies</text>
<text text-anchor="middle" x="902" y="-7.8" font-family="Times,serif" font-size="14.00">Nodes link to the respective Git repository.</text>
<g id="clust1" class="cluster">
<title>cluster_uco_0_9_1</title>
<polygon fill="none" stroke="black" points="0,-62 0,-178 168,-178 168,-62 0,-62"/>
<text text-anchor="middle" x="84" y="-162.8" font-family="Times,serif" font-size="14.00">Adoption of UCO 0.9.1</text>
</g>
<g id="clust2" class="cluster">
<title>cluster_case_0_7_1</title>
<polygon fill="none" stroke="black" points="8,-70 8,-147 160,-147 160,-70 8,-70"/>
<text text-anchor="middle" x="84" y="-131.8" font-family="Times,serif" font-size="14.00">Adoption of CASE 0.7.1</text>
</g>
<g id="clust3" class="cluster">
<title>cluster_uco_1_2_0</title>
<polygon fill="none" stroke="black" points="26,-186 26,-1256 1796,-1256 1796,-186 26,-186"/>
<text text-anchor="middle" x="911" y="-1240.8" font-family="Times,serif" font-size="14.00">Adoption of UCO 1.2.0</text>
</g>
<g id="clust4" class="cluster">
<title>cluster_case_1_2_0</title>
<polygon fill="none" stroke="black" points="245.5,-352 245.5,-1225 1788,-1225 1788,-352 245.5,-352"/>
<text text-anchor="middle" x="1016.75" y="-1209.8" font-family="Times,serif" font-size="14.00">Adoption of CASE 1.2.0</text>
</g>
<g id="clust5" class="cluster">
<title>cluster_case_utils_0_10_0</title>
<polygon fill="none" stroke="black" points="981,-360 981,-831 1577,-831 1577,-360 981,-360"/>
<text text-anchor="middle" x="1279" y="-815.8" font-family="Times,serif" font-size="14.00">Adoption of case&#45;utils 0.10.0</text>
</g>
<g id="clust6" class="cluster">
<title>cluster_case_validation_action_2_6</title>
<polygon fill="none" stroke="black" points="989,-414 989,-800 1569,-800 1569,-414 989,-414"/>
<text text-anchor="middle" x="1279" y="-784.8" font-family="Times,serif" font-size="14.00">Adoption of case&#45;validation&#45;action 2.6</text>
</g>
<g id="clust7" class="cluster">
<title>cluster_case_bindings_csharp_0_4_0</title>
<polygon fill="none" stroke="black" points="1014.5,-422 1014.5,-499 1561,-499 1561,-422 1014.5,-422"/>
<text text-anchor="middle" x="1287.75" y="-483.8" font-family="Times,serif" font-size="14.00">Adoption of CSharp bindings 0.4.0</text>
</g>
<g id="clust8" class="cluster">
<title>cluster_case_utils_0_11_0</title>
<polygon fill="none" stroke="black" points="507,-839 507,-1194 1780,-1194 1780,-839 507,-839"/>
<text text-anchor="middle" x="1143.5" y="-1178.8" font-family="Times,serif" font-size="14.00">Adoption of case&#45;utils 0.11.0</text>
</g>
<g id="clust10" class="cluster">
<title>cluster_case_validation_action_2_6_1</title>
<polygon fill="none" stroke="black" points="702,-847 702,-934 1204.5,-934 1204.5,-847 702,-847"/>
<text text-anchor="middle" x="953.25" y="-918.8" font-family="Times,serif" font-size="14.00">Adoption of case&#45;validation&#45;action 2.6.1</text>
</g>
<g id="clust9" class="cluster">
<title>cluster_case_prov_0_8_0</title>
<polygon fill="none" stroke="black" points="1385,-1053 1385,-1130 1772,-1130 1772,-1053 1385,-1053"/>
<text text-anchor="middle" x="1578.5" y="-1114.8" font-family="Times,serif" font-size="14.00">Adoption of case&#45;prov 0.8.0</text>
</g>
<!-- _GH__CASEWORK__CASE_MAPPING_TEMPLATE_STUBS -->
<g id="node1" class="node">
<title>_GH__CASEWORK__CASE_MAPPING_TEMPLATE_STUBS</title>
<g id="a_node1"><a xlink:href="https://github.com/casework/CASE-Mapping-Template-Stubs" xlink:title="CASE Mapping\nTemplate Stubs">
<path fill="#8ec7d2" stroke="#0d6986" d="M124,-116C124,-116 44,-116 44,-116 38,-116 32,-110 32,-104 32,-104 32,-90 32,-90 32,-84 38,-78 44,-78 44,-78 124,-78 124,-78 130,-78 136,-84 136,-90 136,-90 136,-104 136,-104 136,-110 130,-116 124,-116"/>
<text text-anchor="middle" x="84" y="-100.8" font-family="Times,serif" font-size="14.00">CASE Mapping</text>
<text text-anchor="middle" x="84" y="-85.8" font-family="Times,serif" font-size="14.00">Template Stubs</text>
</a>
</g>
</g>
<!-- _GH__CYBER_DOMAIN_ONTOLOGY__CDO_SHAPES_EXAMPLE -->
<g id="node2" class="node">
<title>_GH__CYBER_DOMAIN_ONTOLOGY__CDO_SHAPES_EXAMPLE</title>
<g id="a_node2"><a xlink:href="https://github.com/Cyber-Domain-Ontology/CDO-Shapes-Example" xlink:title="CDO shapes profile\nupdates">
<path fill="#8ec7d2" stroke="#0d6986" d="M357,-232C357,-232 256,-232 256,-232 250,-232 244,-226 244,-220 244,-220 244,-206 244,-206 244,-200 250,-194 256,-194 256,-194 357,-194 357,-194 363,-194 369,-200 369,-206 369,-206 369,-220 369,-220 369,-226 363,-232 357,-232"/>
<text text-anchor="middle" x="306.5" y="-216.8" font-family="Times,serif" font-size="14.00">CDO shapes profile</text>
<text text-anchor="middle" x="306.5" y="-201.8" font-family="Times,serif" font-size="14.00">updates</text>
</a>
</g>
</g>
<!-- _GH__UCOPROJECT__ONTOLOGY_UNIFIEDCYBERONTOLOGY_ORG -->
<g id="node3" class="node">
<title>_GH__UCOPROJECT__ONTOLOGY_UNIFIEDCYBERONTOLOGY_ORG</title>
<g id="a_node3"><a xlink:href="https://github.com/ucoProject/ontology.unifiedcyberontology.org" xlink:title="UCO documentation\nregenerated">
<path fill="#8ec7d2" stroke="#0d6986" d="M359.5,-344C359.5,-344 253.5,-344 253.5,-344 247.5,-344 241.5,-338 241.5,-332 241.5,-332 241.5,-318 241.5,-318 241.5,-312 247.5,-306 253.5,-306 253.5,-306 359.5,-306 359.5,-306 365.5,-306 371.5,-312 371.5,-318 371.5,-318 371.5,-332 371.5,-332 371.5,-338 365.5,-344 359.5,-344"/>
<text text-anchor="middle" x="306.5" y="-328.8" font-family="Times,serif" font-size="14.00">UCO documentation</text>
<text text-anchor="middle" x="306.5" y="-313.8" font-family="Times,serif" font-size="14.00">regenerated</text>
</a>
</g>
</g>
<!-- _GH__CASEWORK__ONTOLOGY_CASEONTOLOGY_ORG -->
<g id="node9" class="node">
<title>_GH__CASEWORK__ONTOLOGY_CASEONTOLOGY_ORG</title>
<g id="a_node9"><a xlink:href="https://github.com/casework/ontology.caseontology.org" xlink:title="CASE documentation\nregenerated">
<path fill="#8ec7d2" stroke="#0d6986" d="M605,-402C605,-402 493,-402 493,-402 487,-402 481,-396 481,-390 481,-390 481,-376 481,-376 481,-370 487,-364 493,-364 493,-364 605,-364 605,-364 611,-364 617,-370 617,-376 617,-376 617,-390 617,-390 617,-396 611,-402 605,-402"/>
<text text-anchor="middle" x="549" y="-386.8" font-family="Times,serif" font-size="14.00">CASE documentation</text>
<text text-anchor="middle" x="549" y="-371.8" font-family="Times,serif" font-size="14.00">regenerated</text>
</a>
</g>
</g>
<!-- _GH__UCOPROJECT__ONTOLOGY_UNIFIEDCYBERONTOLOGY_ORG&#45;&gt;_GH__CASEWORK__ONTOLOGY_CASEONTOLOGY_ORG -->
<g id="edge25" class="edge">
<title>_GH__UCOPROJECT__ONTOLOGY_UNIFIEDCYBERONTOLOGY_ORG&#45;&gt;_GH__CASEWORK__ONTOLOGY_CASEONTOLOGY_ORG</title>
<path fill="none" stroke="black" d="M371.89,-334.86C400.07,-339.73 433.38,-346.23 463,-354 463.69,-354.18 471,-356.65 481.06,-360.08"/>
<polygon fill="black" stroke="black" points="479.83,-363.7 490.42,-363.61 482.09,-357.07 479.83,-363.7"/>
<text text-anchor="middle" x="427.5" y="-372.8" font-family="Times,serif" font-size="14.00">Tech&#45;</text>
<text text-anchor="middle" x="427.5" y="-357.8" font-family="Times,serif" font-size="14.00">check</text>
</g>
<!-- _GH__UCOPROJECT__UCO -->
<g id="node4" class="node">
<title>_GH__UCOPROJECT__UCO</title>
<g id="a_node4"><a xlink:href="https://github.com/ucoProject/UCO" xlink:title="UCO Ontology\nreleases">
<path fill="#8ec7d2" stroke="#0d6986" d="M122,-316C122,-316 46,-316 46,-316 40,-316 34,-310 34,-304 34,-304 34,-290 34,-290 34,-284 40,-278 46,-278 46,-278 122,-278 122,-278 128,-278 134,-284 134,-290 134,-290 134,-304 134,-304 134,-310 128,-316 122,-316"/>
<text text-anchor="middle" x="84" y="-300.8" font-family="Times,serif" font-size="14.00">UCO Ontology</text>
<text text-anchor="middle" x="84" y="-285.8" font-family="Times,serif" font-size="14.00">releases</text>
</a>
</g>
</g>
<!-- _GH__UCOPROJECT__UCO&#45;&gt;_GH__CYBER_DOMAIN_ONTOLOGY__CDO_SHAPES_EXAMPLE -->
<g id="edge27" class="edge">
<title>_GH__UCOPROJECT__UCO&#45;&gt;_GH__CYBER_DOMAIN_ONTOLOGY__CDO_SHAPES_EXAMPLE</title>
<path fill="none" stroke="black" d="M107.79,-277.78C125.34,-264.01 150.77,-246.17 176,-236 193.88,-228.79 214.04,-223.84 233.04,-220.44"/>
<polygon fill="black" stroke="black" points="233.47,-223.75 242.76,-218.65 232.33,-216.84 233.47,-223.75"/>
<text text-anchor="middle" x="198.5" y="-254.8" font-family="Times,serif" font-size="14.00">Git sub&#45;</text>
<text text-anchor="middle" x="198.5" y="-239.8" font-family="Times,serif" font-size="14.00">module</text>
</g>
<!-- _GH__UCOPROJECT__UCO&#45;&gt;_GH__UCOPROJECT__ONTOLOGY_UNIFIEDCYBERONTOLOGY_ORG -->
<g id="edge28" class="edge">
<title>_GH__UCOPROJECT__UCO&#45;&gt;_GH__UCOPROJECT__ONTOLOGY_UNIFIEDCYBERONTOLOGY_ORG</title>
<path fill="none" stroke="black" d="M134.48,-303.28C162.78,-306.88 198.83,-311.45 230.53,-315.48"/>
<polygon fill="black" stroke="black" points="229.74,-319.03 240.1,-316.82 230.62,-312.09 229.74,-319.03"/>
<text text-anchor="middle" x="198.5" y="-331.8" font-family="Times,serif" font-size="14.00">Git sub&#45;</text>
<text text-anchor="middle" x="198.5" y="-316.8" font-family="Times,serif" font-size="14.00">module</text>
</g>
<!-- _GH__UCOPROJECT__UCO_PROFILE_EXAMPLE -->
<g id="node6" class="node">
<title>_GH__UCOPROJECT__UCO_PROFILE_EXAMPLE</title>
<g id="a_node6"><a xlink:href="https://github.com/ucoProject/UCO-Profile-Example" xlink:title="UCO example profile\nupdates">
<path fill="#8ec7d2" stroke="#0d6986" d="M362,-288C362,-288 251,-288 251,-288 245,-288 239,-282 239,-276 239,-276 239,-262 239,-262 239,-256 245,-250 251,-250 251,-250 362,-250 362,-250 368,-250 374,-256 374,-262 374,-262 374,-276 374,-276 374,-282 368,-288 362,-288"/>
<text text-anchor="middle" x="306.5" y="-272.8" font-family="Times,serif" font-size="14.00">UCO example profile</text>
<text text-anchor="middle" x="306.5" y="-257.8" font-family="Times,serif" font-size="14.00">updates</text>
</a>
</g>
</g>
<!-- _GH__UCOPROJECT__UCO&#45;&gt;_GH__UCOPROJECT__UCO_PROFILE_EXAMPLE -->
<g id="edge29" class="edge">
<title>_GH__UCOPROJECT__UCO&#45;&gt;_GH__UCOPROJECT__UCO_PROFILE_EXAMPLE</title>
<path fill="none" stroke="black" d="M134.26,-283.28C147.7,-280.03 162.32,-276.95 176,-275 192.79,-272.6 210.92,-271.1 228.14,-270.17"/>
<polygon fill="black" stroke="black" points="227.91,-273.63 237.73,-269.66 227.57,-266.64 227.91,-273.63"/>
<text text-anchor="middle" x="198.5" y="-293.8" font-family="Times,serif" font-size="14.00">Git sub&#45;</text>
<text text-anchor="middle" x="198.5" y="-278.8" font-family="Times,serif" font-size="14.00">module</text>
</g>
<!-- _GH__CASEWORK__CASE -->
<g id="node8" class="node">
<title>_GH__CASEWORK__CASE</title>
<g id="a_node8"><a xlink:href="https://github.com/casework/CASE" xlink:title="CASE Ontology\nreleases">
<path fill="#8ec7d2" stroke="#0d6986" d="M347.5,-431C347.5,-431 265.5,-431 265.5,-431 259.5,-431 253.5,-425 253.5,-419 253.5,-419 253.5,-405 253.5,-405 253.5,-399 259.5,-393 265.5,-393 265.5,-393 347.5,-393 347.5,-393 353.5,-393 359.5,-399 359.5,-405 359.5,-405 359.5,-419 359.5,-419 359.5,-425 353.5,-431 347.5,-431"/>
<text text-anchor="middle" x="306.5" y="-415.8" font-family="Times,serif" font-size="14.00">CASE Ontology</text>
<text text-anchor="middle" x="306.5" y="-400.8" font-family="Times,serif" font-size="14.00">releases</text>
</a>
</g>
</g>
<!-- _GH__UCOPROJECT__UCO&#45;&gt;_GH__CASEWORK__CASE -->
<g id="edge26" class="edge">
<title>_GH__UCOPROJECT__UCO&#45;&gt;_GH__CASEWORK__CASE</title>
<path fill="none" stroke="black" d="M113.54,-316.49C143.74,-336.52 193.26,-367.7 239,-389 240.42,-389.66 241.86,-390.31 243.32,-390.96"/>
<polygon fill="black" stroke="black" points="241.6,-394.45 252.18,-395.05 244.29,-387.98 241.6,-394.45"/>
<text text-anchor="middle" x="198.5" y="-396.8" font-family="Times,serif" font-size="14.00">Git sub&#45;</text>
<text text-anchor="middle" x="198.5" y="-381.8" font-family="Times,serif" font-size="14.00">module</text>
</g>
<!-- _GH__UCOPROJECT__UCO_PROFILE_BFO -->
<g id="node5" class="node">
<title>_GH__UCOPROJECT__UCO_PROFILE_BFO</title>
<g id="a_node5"><a xlink:href="https://github.com/ucoProject/UCO-Profile-BFO" xlink:title="UCO BFO profile\nupdates">
<path fill="#8ec7d2" stroke="#0d6986" d="M594.5,-299C594.5,-299 503.5,-299 503.5,-299 497.5,-299 491.5,-293 491.5,-287 491.5,-287 491.5,-273 491.5,-273 491.5,-267 497.5,-261 503.5,-261 503.5,-261 594.5,-261 594.5,-261 600.5,-261 606.5,-267 606.5,-273 606.5,-273 606.5,-287 606.5,-287 606.5,-293 600.5,-299 594.5,-299"/>
<text text-anchor="middle" x="549" y="-283.8" font-family="Times,serif" font-size="14.00">UCO BFO profile</text>
<text text-anchor="middle" x="549" y="-268.8" font-family="Times,serif" font-size="14.00">updates</text>
</a>
</g>
</g>
<!-- _GH__UCOPROJECT__UCO_PROFILE_EXAMPLE&#45;&gt;_GH__UCOPROJECT__UCO_PROFILE_BFO -->
<g id="edge30" class="edge">
<title>_GH__UCOPROJECT__UCO_PROFILE_EXAMPLE&#45;&gt;_GH__UCOPROJECT__UCO_PROFILE_BFO</title>
<path fill="none" stroke="black" d="M374.49,-272.06C407.46,-273.57 447.12,-275.39 480.19,-276.9"/>
<polygon fill="black" stroke="black" points="479.99,-280.44 490.14,-277.4 480.31,-273.45 479.99,-280.44"/>
<text text-anchor="middle" x="427.5" y="-293.8" font-family="Times,serif" font-size="14.00">Git merge of</text>
<text text-anchor="middle" x="427.5" y="-278.8" font-family="Times,serif" font-size="14.00">base branch</text>
</g>
<!-- _GH__UCOPROJECT__UCO_PROFILE_FOAF -->
<g id="node7" class="node">
<title>_GH__UCOPROJECT__UCO_PROFILE_FOAF</title>
<g id="a_node7"><a xlink:href="https://github.com/ucoProject/UCO-Profile-FOAF" xlink:title="UCO FOAF profile\nupdates">
<path fill="#8ec7d2" stroke="#0d6986" d="M598.5,-243C598.5,-243 499.5,-243 499.5,-243 493.5,-243 487.5,-237 487.5,-231 487.5,-231 487.5,-217 487.5,-217 487.5,-211 493.5,-205 499.5,-205 499.5,-205 598.5,-205 598.5,-205 604.5,-205 610.5,-211 610.5,-217 610.5,-217 610.5,-231 610.5,-231 610.5,-237 604.5,-243 598.5,-243"/>
<text text-anchor="middle" x="549" y="-227.8" font-family="Times,serif" font-size="14.00">UCO FOAF profile</text>
<text text-anchor="middle" x="549" y="-212.8" font-family="Times,serif" font-size="14.00">updates</text>
</a>
</g>
</g>
<!-- _GH__UCOPROJECT__UCO_PROFILE_EXAMPLE&#45;&gt;_GH__UCOPROJECT__UCO_PROFILE_FOAF -->
<g id="edge31" class="edge">
<title>_GH__UCOPROJECT__UCO_PROFILE_EXAMPLE&#45;&gt;_GH__UCOPROJECT__UCO_PROFILE_FOAF</title>
<path fill="none" stroke="black" d="M353.77,-249.55C366.01,-245.09 379.34,-240.84 392,-238 419.17,-231.91 449.56,-228.45 476.25,-226.49"/>
<polygon fill="black" stroke="black" points="476.31,-229.93 486.05,-225.77 475.84,-222.95 476.31,-229.93"/>
<text text-anchor="middle" x="427.5" y="-256.8" font-family="Times,serif" font-size="14.00">Git merge of</text>
<text text-anchor="middle" x="427.5" y="-241.8" font-family="Times,serif" font-size="14.00">base branch</text>
</g>
<!-- _GH__CASEWORK__CASE&#45;&gt;_GH__CASEWORK__ONTOLOGY_CASEONTOLOGY_ORG -->
<g id="edge4" class="edge">
<title>_GH__CASEWORK__CASE&#45;&gt;_GH__CASEWORK__ONTOLOGY_CASEONTOLOGY_ORG</title>
<path fill="none" stroke="black" d="M359.65,-401.25C370.32,-399.29 381.5,-397.43 392,-396 417.22,-392.57 444.86,-389.91 469.78,-387.92"/>
<polygon fill="black" stroke="black" points="469.95,-391.34 479.65,-387.07 469.4,-384.36 469.95,-391.34"/>
<text text-anchor="middle" x="427.5" y="-414.8" font-family="Times,serif" font-size="14.00">Git sub&#45;</text>
<text text-anchor="middle" x="427.5" y="-399.8" font-family="Times,serif" font-size="14.00">module</text>
</g>
<!-- _GH__CIPHERTECHSOLUTIONS__CASE_BINDINGS_CSHARP -->
<g id="node17" class="node">
<title>_GH__CIPHERTECHSOLUTIONS__CASE_BINDINGS_CSHARP</title>
<g id="a_node17"><a xlink:href="https://github.com/ciphertechsolutions/CASE-Bindings-CSharp" xlink:title="CASE&#45;Bindings&#45;CSharp\nadopts new ontology version">
<path fill="#8ec7d2" stroke="#0d6986" d="M1183.5,-468C1183.5,-468 1034.5,-468 1034.5,-468 1028.5,-468 1022.5,-462 1022.5,-456 1022.5,-456 1022.5,-442 1022.5,-442 1022.5,-436 1028.5,-430 1034.5,-430 1034.5,-430 1183.5,-430 1183.5,-430 1189.5,-430 1195.5,-436 1195.5,-442 1195.5,-442 1195.5,-456 1195.5,-456 1195.5,-462 1189.5,-468 1183.5,-468"/>
<text text-anchor="middle" x="1109" y="-452.8" font-family="Times,serif" font-size="14.00">CASE&#45;Bindings&#45;CSharp</text>
<text text-anchor="middle" x="1109" y="-437.8" font-family="Times,serif" font-size="14.00">adopts new ontology version</text>
</a>
</g>
</g>
<!-- _GH__CASEWORK__CASE&#45;&gt;_GH__CIPHERTECHSOLUTIONS__CASE_BINDINGS_CSHARP -->
<g id="edge3" class="edge">
<title>_GH__CASEWORK__CASE&#45;&gt;_GH__CIPHERTECHSOLUTIONS__CASE_BINDINGS_CSHARP</title>
<path fill="none" stroke="black" d="M359.64,-421.75C370.31,-423.43 381.49,-424.97 392,-426 612.68,-447.73 873.28,-450.35 1011.14,-449.94"/>
<polygon fill="black" stroke="black" points="1011.08,-453.43 1021.07,-449.9 1011.06,-446.43 1011.08,-453.43"/>
</g>
<!-- _GH__CASEWORK__CASE_UTILITIES_PYTHON -->
<g id="node21" class="node">
<title>_GH__CASEWORK__CASE_UTILITIES_PYTHON</title>
<g id="a_node21"><a xlink:href="https://github.com/casework/CASE-Utilities-Python" xlink:title="case&#45;utils\nreleases">
<path fill="#8ec7d2" stroke="#0d6986" d="M571,-979C571,-979 527,-979 527,-979 521,-979 515,-973 515,-967 515,-967 515,-953 515,-953 515,-947 521,-941 527,-941 527,-941 571,-941 571,-941 577,-941 583,-947 583,-953 583,-953 583,-967 583,-967 583,-973 577,-979 571,-979"/>
<text text-anchor="middle" x="549" y="-963.8" font-family="Times,serif" font-size="14.00">case&#45;utils</text>
<text text-anchor="middle" x="549" y="-948.8" font-family="Times,serif" font-size="14.00">releases</text>
</a>
</g>
</g>
<!-- _GH__CASEWORK__CASE&#45;&gt;_GH__CASEWORK__CASE_UTILITIES_PYTHON -->
<g id="edge2" class="edge">
<title>_GH__CASEWORK__CASE&#45;&gt;_GH__CASEWORK__CASE_UTILITIES_PYTHON</title>
<path fill="none" stroke="black" d="M308.02,-431.32C311.11,-507.03 332.53,-786.81 481,-937 487.46,-943.54 495.86,-948.22 504.52,-951.57"/>
<polygon fill="black" stroke="black" points="503.11,-955.12 513.7,-954.92 505.3,-948.47 503.11,-955.12"/>
<text text-anchor="middle" x="427.5" y="-933.8" font-family="Times,serif" font-size="14.00">Git sub&#45;</text>
<text text-anchor="middle" x="427.5" y="-918.8" font-family="Times,serif" font-size="14.00">module</text>
</g>
<!-- _GH__CASEWORK__CASE_IMPLEMENTATON_GNU_TIME -->
<g id="node10" class="node">
<title>_GH__CASEWORK__CASE_IMPLEMENTATON_GNU_TIME</title>
<g id="a_node10"><a xlink:href="https://github.com/casework/CASE-Implementation-GNU-Time" xlink:title="CASE&#45;Implementation&#45;GNU&#45;Time\nadopts new case&#45;utils">
<path fill="#8ec7d2" stroke="#0d6986" d="M1202,-406C1202,-406 1016,-406 1016,-406 1010,-406 1004,-400 1004,-394 1004,-394 1004,-380 1004,-380 1004,-374 1010,-368 1016,-368 1016,-368 1202,-368 1202,-368 1208,-368 1214,-374 1214,-380 1214,-380 1214,-394 1214,-394 1214,-400 1208,-406 1202,-406"/>
<text text-anchor="middle" x="1109" y="-390.8" font-family="Times,serif" font-size="14.00">CASE&#45;Implementation&#45;GNU&#45;Time</text>
<text text-anchor="middle" x="1109" y="-375.8" font-family="Times,serif" font-size="14.00">adopts new case&#45;utils</text>
</a>
</g>
</g>
<!-- _GH__CASEWORK__CASE_IMPLEMENTATON_PYPI_EXIFREAD -->
<g id="node11" class="node">
<title>_GH__CASEWORK__CASE_IMPLEMENTATON_PYPI_EXIFREAD</title>
<g id="a_node11"><a xlink:href="https://github.com/casework/CASE-Implementation-PyPI-Exifread" xlink:title="CASE&#45;Implementation&#45;PyPI&#45;Exifread\nadopts new case&#45;validation&#45;action">
<path fill="#8ec7d2" stroke="#0d6986" d="M1209,-545C1209,-545 1009,-545 1009,-545 1003,-545 997,-539 997,-533 997,-533 997,-519 997,-519 997,-513 1003,-507 1009,-507 1009,-507 1209,-507 1209,-507 1215,-507 1221,-513 1221,-519 1221,-519 1221,-533 1221,-533 1221,-539 1215,-545 1209,-545"/>
<text text-anchor="middle" x="1109" y="-529.8" font-family="Times,serif" font-size="14.00">CASE&#45;Implementation&#45;PyPI&#45;Exifread</text>
<text text-anchor="middle" x="1109" y="-514.8" font-family="Times,serif" font-size="14.00">adopts new case&#45;validation&#45;action</text>
</a>
</g>
</g>
<!-- _GH__CASEWORK__CASE_IMPLEMENTATON_PYPI_PILLOW -->
<g id="node12" class="node">
<title>_GH__CASEWORK__CASE_IMPLEMENTATON_PYPI_PILLOW</title>
<g id="a_node12"><a xlink:href="https://github.com/casework/CASE-Implementation-PyPI-Pillow" xlink:title="CASE&#45;Implementation&#45;PyPI&#45;Pillow\nadopts new case&#45;validation&#45;action">
<path fill="#8ec7d2" stroke="#0d6986" d="M1203.5,-601C1203.5,-601 1014.5,-601 1014.5,-601 1008.5,-601 1002.5,-595 1002.5,-589 1002.5,-589 1002.5,-575 1002.5,-575 1002.5,-569 1008.5,-563 1014.5,-563 1014.5,-563 1203.5,-563 1203.5,-563 1209.5,-563 1215.5,-569 1215.5,-575 1215.5,-575 1215.5,-589 1215.5,-589 1215.5,-595 1209.5,-601 1203.5,-601"/>
<text text-anchor="middle" x="1109" y="-585.8" font-family="Times,serif" font-size="14.00">CASE&#45;Implementation&#45;PyPI&#45;Pillow</text>
<text text-anchor="middle" x="1109" y="-570.8" font-family="Times,serif" font-size="14.00">adopts new case&#45;validation&#45;action</text>
</a>
</g>
</g>
<!-- _GH__CASEWORK__CASE_IMPLEMENTATON_UFED_XML -->
<g id="node13" class="node">
<title>_GH__CASEWORK__CASE_IMPLEMENTATON_UFED_XML</title>
<g id="a_node13"><a xlink:href="https://github.com/casework/CASE-Implementation-UFED-XML" xlink:title="CASE&#45;Implementation&#45;UFED&#45;XML\nadopts new case&#45;validation&#45;action">
<path fill="#8ec7d2" stroke="#0d6986" d="M1206,-657C1206,-657 1012,-657 1012,-657 1006,-657 1000,-651 1000,-645 1000,-645 1000,-631 1000,-631 1000,-625 1006,-619 1012,-619 1012,-619 1206,-619 1206,-619 1212,-619 1218,-625 1218,-631 1218,-631 1218,-645 1218,-645 1218,-651 1212,-657 1206,-657"/>
<text text-anchor="middle" x="1109" y="-641.8" font-family="Times,serif" font-size="14.00">CASE&#45;Implementation&#45;UFED&#45;XML</text>
<text text-anchor="middle" x="1109" y="-626.8" font-family="Times,serif" font-size="14.00">adopts new case&#45;validation&#45;action</text>
</a>
</g>
</g>
<!-- _GH__CASEWORK__CASE_IMPLEMENTATON_XRY -->
<g id="node14" class="node">
<title>_GH__CASEWORK__CASE_IMPLEMENTATON_XRY</title>
<g id="a_node14"><a xlink:href="https://github.com/casework/CASE-Implementation-XRY" xlink:title="CASE&#45;Implementation&#45;XRY adopts\nnew case&#45;validation&#45;action">
<path fill="#8ec7d2" stroke="#0d6986" d="M1204,-713C1204,-713 1014,-713 1014,-713 1008,-713 1002,-707 1002,-701 1002,-701 1002,-687 1002,-687 1002,-681 1008,-675 1014,-675 1014,-675 1204,-675 1204,-675 1210,-675 1216,-681 1216,-687 1216,-687 1216,-701 1216,-701 1216,-707 1210,-713 1204,-713"/>
<text text-anchor="middle" x="1109" y="-697.8" font-family="Times,serif" font-size="14.00">CASE&#45;Implementation&#45;XRY adopts</text>
<text text-anchor="middle" x="1109" y="-682.8" font-family="Times,serif" font-size="14.00">new case&#45;validation&#45;action</text>
</a>
</g>
</g>
<!-- _GH__CASEWORK__CASE_MAPPING_TEMPLATE_PYTHON -->
<g id="node15" class="node">
<title>_GH__CASEWORK__CASE_MAPPING_TEMPLATE_PYTHON</title>
<g id="a_node15"><a xlink:href="https://github.com/casework/CASE-Mapping-Template-Python" xlink:title="CASE&#45;Mapping&#45;Template&#45;Python\nadopts new case&#45;validation&#45;action">
<path fill="#8ec7d2" stroke="#0d6986" d="M1199,-769C1199,-769 1019,-769 1019,-769 1013,-769 1007,-763 1007,-757 1007,-757 1007,-743 1007,-743 1007,-737 1013,-731 1019,-731 1019,-731 1199,-731 1199,-731 1205,-731 1211,-737 1211,-743 1211,-743 1211,-757 1211,-757 1211,-763 1205,-769 1199,-769"/>
<text text-anchor="middle" x="1109" y="-753.8" font-family="Times,serif" font-size="14.00">CASE&#45;Mapping&#45;Template&#45;Python</text>
<text text-anchor="middle" x="1109" y="-738.8" font-family="Times,serif" font-size="14.00">adopts new case&#45;validation&#45;action</text>
</a>
</g>
</g>
<!-- _GH__CASEWORK__CASE_BINDINGS_CSHARP_MONITOR -->
<g id="node16" class="node">
<title>_GH__CASEWORK__CASE_BINDINGS_CSHARP_MONITOR</title>
<g id="a_node16"><a xlink:href="https://github.com/casework/CASE-Bindings-CSharp-Monitor" xlink:title="CASE Bindings CSharp Monitor\ntests NuGet package with validation action">
<path fill="#8ec7d2" stroke="#0d6986" d="M1541,-468C1541,-468 1314,-468 1314,-468 1308,-468 1302,-462 1302,-456 1302,-456 1302,-442 1302,-442 1302,-436 1308,-430 1314,-430 1314,-430 1541,-430 1541,-430 1547,-430 1553,-436 1553,-442 1553,-442 1553,-456 1553,-456 1553,-462 1547,-468 1541,-468"/>
<text text-anchor="middle" x="1427.5" y="-452.8" font-family="Times,serif" font-size="14.00">CASE Bindings CSharp Monitor</text>
<text text-anchor="middle" x="1427.5" y="-437.8" font-family="Times,serif" font-size="14.00">tests NuGet package with validation action</text>
</a>
</g>
</g>
<!-- _GH__CIPHERTECHSOLUTIONS__CASE_BINDINGS_CSHARP&#45;&gt;_GH__CASEWORK__CASE_BINDINGS_CSHARP_MONITOR -->
<g id="edge16" class="edge">
<title>_GH__CIPHERTECHSOLUTIONS__CASE_BINDINGS_CSHARP&#45;&gt;_GH__CASEWORK__CASE_BINDINGS_CSHARP_MONITOR</title>
<path fill="none" stroke="black" d="M1195.65,-449C1224.93,-449 1258.44,-449 1290.68,-449"/>
<polygon fill="black" stroke="black" points="1290.56,-452.5 1300.56,-449 1290.56,-445.5 1290.56,-452.5"/>
<text text-anchor="middle" x="1261.5" y="-452.8" font-family="Times,serif" font-size="14.00">NuGet</text>
</g>
<!-- _GH__AJNELSON_NIST__CASE_EXAMPLES_QC -->
<g id="node18" class="node">
<title>_GH__AJNELSON_NIST__CASE_EXAMPLES_QC</title>
<g id="a_node18"><a xlink:href="https://github.com/ajnelson-nist/CASE-Examples-QC" xlink:title="CASE&#45;Examples&#45;QC\nadopts CASE&#45;Examples and\nCASE website updates">
<path fill="#8ec7d2" stroke="#0d6986" d="M1183,-1053.5C1183,-1053.5 1035,-1053.5 1035,-1053.5 1029,-1053.5 1023,-1047.5 1023,-1041.5 1023,-1041.5 1023,-1012.5 1023,-1012.5 1023,-1006.5 1029,-1000.5 1035,-1000.5 1035,-1000.5 1183,-1000.5 1183,-1000.5 1189,-1000.5 1195,-1006.5 1195,-1012.5 1195,-1012.5 1195,-1041.5 1195,-1041.5 1195,-1047.5 1189,-1053.5 1183,-1053.5"/>
<text text-anchor="middle" x="1109" y="-1038.3" font-family="Times,serif" font-size="14.00">CASE&#45;Examples&#45;QC</text>
<text text-anchor="middle" x="1109" y="-1023.3" font-family="Times,serif" font-size="14.00">adopts CASE&#45;Examples and</text>
<text text-anchor="middle" x="1109" y="-1008.3" font-family="Times,serif" font-size="14.00">CASE website updates</text>
</a>
</g>
</g>
<!-- _GH__CASEWORK__CASE_IMPLEMENTATON_PROV_O -->
<g id="node24" class="node">
<title>_GH__CASEWORK__CASE_IMPLEMENTATON_PROV_O</title>
<g id="a_node24"><a xlink:href="https://github.com/casework/CASE-Implementation-PROV-O" xlink:title="case&#45;prov\nreleases">
<path fill="#8ec7d2" stroke="#0d6986" d="M1450,-1099C1450,-1099 1405,-1099 1405,-1099 1399,-1099 1393,-1093 1393,-1087 1393,-1087 1393,-1073 1393,-1073 1393,-1067 1399,-1061 1405,-1061 1405,-1061 1450,-1061 1450,-1061 1456,-1061 1462,-1067 1462,-1073 1462,-1073 1462,-1087 1462,-1087 1462,-1093 1456,-1099 1450,-1099"/>
<text text-anchor="middle" x="1427.5" y="-1083.8" font-family="Times,serif" font-size="14.00">case&#45;prov</text>
<text text-anchor="middle" x="1427.5" y="-1068.8" font-family="Times,serif" font-size="14.00">releases</text>
</a>
</g>
</g>
<!-- _GH__AJNELSON_NIST__CASE_EXAMPLES_QC&#45;&gt;_GH__CASEWORK__CASE_IMPLEMENTATON_PROV_O -->
<g id="edge1" class="edge">
<title>_GH__AJNELSON_NIST__CASE_EXAMPLES_QC&#45;&gt;_GH__CASEWORK__CASE_IMPLEMENTATON_PROV_O</title>
<path fill="none" stroke="black" d="M1195.23,-1041.27C1255.36,-1051.34 1333.51,-1064.43 1381.82,-1072.52"/>
<polygon fill="black" stroke="black" points="1381.1,-1076.11 1391.54,-1074.31 1382.25,-1069.21 1381.1,-1076.11"/>
<text text-anchor="middle" x="1261.5" y="-1073.8" font-family="Times,serif" font-size="14.00">Git sub&#45;</text>
<text text-anchor="middle" x="1261.5" y="-1058.8" font-family="Times,serif" font-size="14.00">module</text>
</g>
<!-- _GH__CASEWORK__CASE_EXAMPLES -->
<g id="node19" class="node">
<title>_GH__CASEWORK__CASE_EXAMPLES</title>
<g id="a_node19"><a xlink:href="https://github.com/casework/CASE-Examples" xlink:title="CASE&#45;Examples\nadopts new case&#45;utils">
<path fill="#8ec7d2" stroke="#0d6986" d="M832.5,-1087C832.5,-1087 723.5,-1087 723.5,-1087 717.5,-1087 711.5,-1081 711.5,-1075 711.5,-1075 711.5,-1061 711.5,-1061 711.5,-1055 717.5,-1049 723.5,-1049 723.5,-1049 832.5,-1049 832.5,-1049 838.5,-1049 844.5,-1055 844.5,-1061 844.5,-1061 844.5,-1075 844.5,-1075 844.5,-1081 838.5,-1087 832.5,-1087"/>
<text text-anchor="middle" x="778" y="-1071.8" font-family="Times,serif" font-size="14.00">CASE&#45;Examples</text>
<text text-anchor="middle" x="778" y="-1056.8" font-family="Times,serif" font-size="14.00">adopts new case&#45;utils</text>
</a>
</g>
</g>
<!-- _GH__CASEWORK__CASE_EXAMPLES&#45;&gt;_GH__AJNELSON_NIST__CASE_EXAMPLES_QC -->
<g id="edge5" class="edge">
<title>_GH__CASEWORK__CASE_EXAMPLES&#45;&gt;_GH__AJNELSON_NIST__CASE_EXAMPLES_QC</title>
<path fill="none" stroke="black" d="M844.79,-1059.8C892.69,-1053.83 958.32,-1045.65 1012.06,-1038.96"/>
<polygon fill="black" stroke="black" points="1012.15,-1042.35 1021.64,-1037.64 1011.29,-1035.4 1012.15,-1042.35"/>
<text text-anchor="middle" x="933.5" y="-1071.8" font-family="Times,serif" font-size="14.00">Git sub&#45;</text>
<text text-anchor="middle" x="933.5" y="-1056.8" font-family="Times,serif" font-size="14.00">module</text>
</g>
<!-- _GH__CASEWORK__CASE_IMPLEMENTATON_EXIFTOOL -->
<g id="node20" class="node">
<title>_GH__CASEWORK__CASE_IMPLEMENTATON_EXIFTOOL</title>
<g id="a_node20"><a xlink:href="https://github.com/casework/CASE-Implementation-ExifTool" xlink:title="CASE&#45;Implementation&#45;ExifTool\nadopts new case&#45;utils">
<path fill="#8ec7d2" stroke="#0d6986" d="M864,-1163C864,-1163 692,-1163 692,-1163 686,-1163 680,-1157 680,-1151 680,-1151 680,-1137 680,-1137 680,-1131 686,-1125 692,-1125 692,-1125 864,-1125 864,-1125 870,-1125 876,-1131 876,-1137 876,-1137 876,-1151 876,-1151 876,-1157 870,-1163 864,-1163"/>
<text text-anchor="middle" x="778" y="-1147.8" font-family="Times,serif" font-size="14.00">CASE&#45;Implementation&#45;ExifTool</text>
<text text-anchor="middle" x="778" y="-1132.8" font-family="Times,serif" font-size="14.00">adopts new case&#45;utils</text>
</a>
</g>
</g>
<!-- _GH__CASEWORK__CASE_UTILITIES_PYTHON&#45;&gt;_GH__CASEWORK__CASE_IMPLEMENTATON_GNU_TIME -->
<g id="edge10" class="edge">
<title>_GH__CASEWORK__CASE_UTILITIES_PYTHON&#45;&gt;_GH__CASEWORK__CASE_IMPLEMENTATON_GNU_TIME</title>
<path fill="none" stroke="black" d="M583.44,-955.87C595.72,-952.67 608.64,-947 617,-937 631.84,-919.23 663.96,-541.7 680,-525 771.89,-429.32 880.78,-563.36 973,-468 988.64,-451.82 965.74,-434.54 981,-418 985.04,-413.62 989.59,-409.81 994.49,-406.51"/>
<polygon fill="black" stroke="black" points="995.85,-409.18 1002.68,-401.08 992.29,-403.15 995.85,-409.18"/>
<text text-anchor="middle" x="778" y="-528.8" font-family="Times,serif" font-size="14.00">PyPI</text>
</g>
<!-- _GH__CASEWORK__CASE_UTILITIES_PYTHON&#45;&gt;_GH__CASEWORK__CASE_IMPLEMENTATON_PYPI_EXIFREAD -->
<g id="edge12" class="edge">
<title>_GH__CASEWORK__CASE_UTILITIES_PYTHON&#45;&gt;_GH__CASEWORK__CASE_IMPLEMENTATON_PYPI_EXIFREAD</title>
<path fill="none" stroke="black" d="M583.21,-953.89C594.89,-950.46 607.46,-945.15 617,-937 630,-925.89 626.6,-917.89 635,-903 733.81,-727.86 716.23,-626.01 894,-532 921.82,-517.29 954.65,-511.65 986.13,-510.7"/>
<polygon fill="black" stroke="black" points="985.8,-514.19 995.75,-510.55 985.7,-507.19 985.8,-514.19"/>
<text text-anchor="middle" x="778" y="-814.8" font-family="Times,serif" font-size="14.00">PyPI</text>
</g>
<!-- _GH__CASEWORK__CASE_UTILITIES_PYTHON&#45;&gt;_GH__AJNELSON_NIST__CASE_EXAMPLES_QC -->
<g id="edge7" class="edge">
<title>_GH__CASEWORK__CASE_UTILITIES_PYTHON&#45;&gt;_GH__AJNELSON_NIST__CASE_EXAMPLES_QC</title>
<path fill="none" stroke="black" d="M583.05,-958.56C642.14,-956.49 769.7,-954.42 876,-969 921.41,-975.23 970.8,-986.87 1012.29,-998.1"/>
<polygon fill="black" stroke="black" points="1011.09,-1001.67 1021.66,-1000.94 1012.94,-994.92 1011.09,-1001.67"/>
<text text-anchor="middle" x="778" y="-972.8" font-family="Times,serif" font-size="14.00">PyPI</text>
</g>
<!-- _GH__CASEWORK__CASE_UTILITIES_PYTHON&#45;&gt;_GH__CASEWORK__CASE_EXAMPLES -->
<g id="edge8" class="edge">
<title>_GH__CASEWORK__CASE_UTILITIES_PYTHON&#45;&gt;_GH__CASEWORK__CASE_EXAMPLES</title>
<path fill="none" stroke="black" d="M576.7,-979.43C602.19,-997.23 642.19,-1023.28 680,-1040 686.78,-1043 693.96,-1045.77 701.24,-1048.31"/>
<polygon fill="black" stroke="black" points="699.58,-1051.78 710.18,-1051.62 701.8,-1045.14 699.58,-1051.78"/>
<text text-anchor="middle" x="648.5" y="-1034.8" font-family="Times,serif" font-size="14.00">PyPI</text>
</g>
<!-- _GH__CASEWORK__CASE_UTILITIES_PYTHON&#45;&gt;_GH__CASEWORK__CASE_IMPLEMENTATON_EXIFTOOL -->
<g id="edge9" class="edge">
<title>_GH__CASEWORK__CASE_UTILITIES_PYTHON&#45;&gt;_GH__CASEWORK__CASE_IMPLEMENTATON_EXIFTOOL</title>
<path fill="none" stroke="black" d="M555.31,-979.38C565.25,-1011.89 589.87,-1077.17 635,-1111 645.39,-1118.79 657.31,-1124.78 669.74,-1129.38"/>
<polygon fill="black" stroke="black" points="668.2,-1132.89 678.8,-1132.78 670.45,-1126.26 668.2,-1132.89"/>
<text text-anchor="middle" x="648.5" y="-1127.8" font-family="Times,serif" font-size="14.00">PyPI</text>
</g>
<!-- _GH__CASEWORK__CASEWORK_GITHUB_IO -->
<g id="node22" class="node">
<title>_GH__CASEWORK__CASEWORK_GITHUB_IO</title>
<g id="a_node22"><a xlink:href="https://github.com/casework/casework.github.io" xlink:title="CASE website\nadopts new case&#45;utils">
<path fill="#8ec7d2" stroke="#0d6986" d="M832.5,-1031C832.5,-1031 723.5,-1031 723.5,-1031 717.5,-1031 711.5,-1025 711.5,-1019 711.5,-1019 711.5,-1005 711.5,-1005 711.5,-999 717.5,-993 723.5,-993 723.5,-993 832.5,-993 832.5,-993 838.5,-993 844.5,-999 844.5,-1005 844.5,-1005 844.5,-1019 844.5,-1019 844.5,-1025 838.5,-1031 832.5,-1031"/>
<text text-anchor="middle" x="778" y="-1015.8" font-family="Times,serif" font-size="14.00">CASE website</text>
<text text-anchor="middle" x="778" y="-1000.8" font-family="Times,serif" font-size="14.00">adopts new case&#45;utils</text>
</a>
</g>
</g>
<!-- _GH__CASEWORK__CASE_UTILITIES_PYTHON&#45;&gt;_GH__CASEWORK__CASEWORK_GITHUB_IO -->
<g id="edge14" class="edge">
<title>_GH__CASEWORK__CASE_UTILITIES_PYTHON&#45;&gt;_GH__CASEWORK__CASEWORK_GITHUB_IO</title>
<path fill="none" stroke="black" d="M583.49,-967.67C614.29,-974.73 661.07,-985.44 700.92,-994.57"/>
<polygon fill="black" stroke="black" points="699.89,-998.16 710.42,-996.98 701.45,-991.33 699.89,-998.16"/>
<text text-anchor="middle" x="648.5" y="-987.8" font-family="Times,serif" font-size="14.00">PyPI</text>
</g>
<!-- _GH__CASEWORK__CASE_UTILITIES_PYTHON&#45;&gt;_GH__CASEWORK__CASE_IMPLEMENTATON_PROV_O -->
<g id="edge11" class="edge">
<title>_GH__CASEWORK__CASE_UTILITIES_PYTHON&#45;&gt;_GH__CASEWORK__CASE_IMPLEMENTATON_PROV_O</title>
<path fill="none" stroke="black" d="M561.13,-979.41C580.52,-1010.99 623.85,-1072.38 680,-1096 744.48,-1123.12 1230.92,-1093.13 1381.93,-1083.06"/>
<polygon fill="black" stroke="black" points="1381.88,-1086.5 1391.62,-1082.34 1381.41,-1079.52 1381.88,-1086.5"/>
<text text-anchor="middle" x="933.5" y="-1109.8" font-family="Times,serif" font-size="14.00">PyPI</text>
</g>
<!-- _GH__KCHASON__CASE_VALIDATION_ACTION -->
<g id="node26" class="node">
<title>_GH__KCHASON__CASE_VALIDATION_ACTION</title>
<g id="a_node26"><a xlink:href="https://github.com/kchason/case-validation-action" xlink:title="case&#45;validation&#45;action\nreleases">
<path fill="#8ec7d2" stroke="#0d6986" d="M834,-893C834,-893 722,-893 722,-893 716,-893 710,-887 710,-881 710,-881 710,-867 710,-867 710,-861 716,-855 722,-855 722,-855 834,-855 834,-855 840,-855 846,-861 846,-867 846,-867 846,-881 846,-881 846,-887 840,-893 834,-893"/>
<text text-anchor="middle" x="778" y="-877.8" font-family="Times,serif" font-size="14.00">case&#45;validation&#45;action</text>
<text text-anchor="middle" x="778" y="-862.8" font-family="Times,serif" font-size="14.00">releases</text>
</a>
</g>
</g>
<!-- _GH__CASEWORK__CASE_UTILITIES_PYTHON&#45;&gt;_GH__KCHASON__CASE_VALIDATION_ACTION -->
<g id="edge13" class="edge">
<title>_GH__CASEWORK__CASE_UTILITIES_PYTHON&#45;&gt;_GH__KCHASON__CASE_VALIDATION_ACTION</title>
<path fill="none" stroke="black" d="M583.33,-950.27C594.28,-946.63 606.36,-942.12 617,-937 646.89,-922.63 649.44,-909.89 680,-897 686.12,-894.42 692.59,-892.09 699.16,-890"/>
<polygon fill="black" stroke="black" points="699.95,-893.12 708.54,-886.92 697.95,-886.41 699.95,-893.12"/>
<text text-anchor="middle" x="648.5" y="-929.8" font-family="Times,serif" font-size="14.00">PyPI</text>
</g>
<!-- _GH__CASEWORK__CASEWORK_GITHUB_IO&#45;&gt;_GH__AJNELSON_NIST__CASE_EXAMPLES_QC -->
<g id="edge15" class="edge">
<title>_GH__CASEWORK__CASEWORK_GITHUB_IO&#45;&gt;_GH__AJNELSON_NIST__CASE_EXAMPLES_QC</title>
<path fill="none" stroke="black" d="M844.9,-1004.61C860.95,-1003.11 878.07,-1001.76 894,-1001 929.07,-999.33 938.05,-997.66 973,-1001 985.75,-1002.22 999.08,-1004.07 1012.2,-1006.23"/>
<polygon fill="black" stroke="black" points="1011.21,-1009.78 1021.66,-1008.02 1012.39,-1002.88 1011.21,-1009.78"/>
<text text-anchor="middle" x="933.5" y="-1019.8" font-family="Times,serif" font-size="14.00">Git sub&#45;</text>
<text text-anchor="middle" x="933.5" y="-1004.8" font-family="Times,serif" font-size="14.00">module</text>
</g>
<!-- _GH__CASEWORK__CASE_CORPORA -->
<g id="node23" class="node">
<title>_GH__CASEWORK__CASE_CORPORA</title>
<g id="a_node23"><a xlink:href="https://github.com/casework/CASE-Corpora" xlink:title="CASE&#45;Corpora\nadopts new case&#45;prov">
<path fill="#8ec7d2" stroke="#0d6986" d="M1752,-1099C1752,-1099 1642,-1099 1642,-1099 1636,-1099 1630,-1093 1630,-1087 1630,-1087 1630,-1073 1630,-1073 1630,-1067 1636,-1061 1642,-1061 1642,-1061 1752,-1061 1752,-1061 1758,-1061 1764,-1067 1764,-1073 1764,-1073 1764,-1087 1764,-1087 1764,-1093 1758,-1099 1752,-1099"/>
<text text-anchor="middle" x="1697" y="-1083.8" font-family="Times,serif" font-size="14.00">CASE&#45;Corpora</text>
<text text-anchor="middle" x="1697" y="-1068.8" font-family="Times,serif" font-size="14.00">adopts new case&#45;prov</text>
</a>
</g>
</g>
<!-- _GH__CASEWORK__CASE_IMPLEMENTATON_PROV_O&#45;&gt;_GH__CASEWORK__CASE_CORPORA -->
<g id="edge6" class="edge">
<title>_GH__CASEWORK__CASE_IMPLEMENTATON_PROV_O&#45;&gt;_GH__CASEWORK__CASE_CORPORA</title>
<path fill="none" stroke="black" d="M1462.38,-1080C1501.49,-1080 1567.08,-1080 1618.82,-1080"/>
<polygon fill="black" stroke="black" points="1618.63,-1083.5 1628.63,-1080 1618.63,-1076.5 1618.63,-1083.5"/>
<text text-anchor="middle" x="1598.5" y="-1083.8" font-family="Times,serif" font-size="14.00">PyPI</text>
</g>
<!-- _GH__CASEWORK__CASE_EXAMPLES_CONVERSION -->
<g id="node25" class="node">
<title>_GH__CASEWORK__CASE_EXAMPLES_CONVERSION</title>
<g id="a_node25"><a xlink:href="https://github.com/casework/CASE-Examples-Conversion" xlink:title="CASE Conversion Examples">
<path fill="#8ec7d2" stroke="#0d6986" d="M1184.5,-891C1184.5,-891 1033.5,-891 1033.5,-891 1027.5,-891 1021.5,-885 1021.5,-879 1021.5,-879 1021.5,-867 1021.5,-867 1021.5,-861 1027.5,-855 1033.5,-855 1033.5,-855 1184.5,-855 1184.5,-855 1190.5,-855 1196.5,-861 1196.5,-867 1196.5,-867 1196.5,-879 1196.5,-879 1196.5,-885 1190.5,-891 1184.5,-891"/>
<text text-anchor="middle" x="1109" y="-869.3" font-family="Times,serif" font-size="14.00">CASE Conversion Examples</text>
</a>
</g>
</g>
<!-- _GH__KCHASON__CASE_VALIDATION_ACTION&#45;&gt;_GH__CASEWORK__CASE_IMPLEMENTATON_PYPI_EXIFREAD -->
<g id="edge19" class="edge">
<title>_GH__KCHASON__CASE_VALIDATION_ACTION&#45;&gt;_GH__CASEWORK__CASE_IMPLEMENTATON_PYPI_EXIFREAD</title>
<path fill="none" stroke="black" d="M779.55,-854.89C782.28,-798.99 798.43,-634.81 894,-557 908.93,-544.84 946.27,-537.45 985.65,-532.96"/>
<polygon fill="black" stroke="black" points="985.95,-536.34 995.52,-531.79 985.2,-529.38 985.95,-536.34"/>
<text text-anchor="middle" x="933.5" y="-575.8" font-family="Times,serif" font-size="14.00">GitHub</text>
<text text-anchor="middle" x="933.5" y="-560.8" font-family="Times,serif" font-size="14.00">Action</text>
</g>
<!-- _GH__KCHASON__CASE_VALIDATION_ACTION&#45;&gt;_GH__CASEWORK__CASE_IMPLEMENTATON_PYPI_PILLOW -->
<g id="edge20" class="edge">
<title>_GH__KCHASON__CASE_VALIDATION_ACTION&#45;&gt;_GH__CASEWORK__CASE_IMPLEMENTATON_PYPI_PILLOW</title>
<path fill="none" stroke="black" d="M781.16,-854.63C787.79,-805.15 812.63,-673.63 894,-612 910.03,-599.86 950.14,-592.63 991.36,-588.32"/>
<polygon fill="black" stroke="black" points="991.53,-591.72 1001.14,-587.26 990.84,-584.76 991.53,-591.72"/>
<text text-anchor="middle" x="933.5" y="-630.8" font-family="Times,serif" font-size="14.00">GitHub</text>
<text text-anchor="middle" x="933.5" y="-615.8" font-family="Times,serif" font-size="14.00">Action</text>
</g>
<!-- _GH__KCHASON__CASE_VALIDATION_ACTION&#45;&gt;_GH__CASEWORK__CASE_IMPLEMENTATON_UFED_XML -->
<g id="edge21" class="edge">
<title>_GH__KCHASON__CASE_VALIDATION_ACTION&#45;&gt;_GH__CASEWORK__CASE_IMPLEMENTATON_UFED_XML</title>
<path fill="none" stroke="black" d="M783.47,-854.53C794.29,-812.27 826.13,-712.22 894,-666 910.17,-654.99 948.75,-648.3 988.77,-644.24"/>
<polygon fill="black" stroke="black" points="988.9,-647.65 998.52,-643.22 988.23,-640.68 988.9,-647.65"/>
<text text-anchor="middle" x="933.5" y="-684.8" font-family="Times,serif" font-size="14.00">GitHub</text>
<text text-anchor="middle" x="933.5" y="-669.8" font-family="Times,serif" font-size="14.00">Action</text>
</g>
<!-- _GH__KCHASON__CASE_VALIDATION_ACTION&#45;&gt;_GH__CASEWORK__CASE_IMPLEMENTATON_XRY -->
<g id="edge22" class="edge">
<title>_GH__KCHASON__CASE_VALIDATION_ACTION&#45;&gt;_GH__CASEWORK__CASE_IMPLEMENTATON_XRY</title>
<path fill="none" stroke="black" d="M786.78,-854.74C801.78,-820.38 838.23,-749.14 894,-717 911.09,-707.15 950.47,-701.51 990.86,-698.29"/>
<polygon fill="black" stroke="black" points="990.98,-701.72 1000.7,-697.48 990.46,-694.74 990.98,-701.72"/>
<text text-anchor="middle" x="933.5" y="-735.8" font-family="Times,serif" font-size="14.00">GitHub</text>
<text text-anchor="middle" x="933.5" y="-720.8" font-family="Times,serif" font-size="14.00">Action</text>
</g>
<!-- _GH__KCHASON__CASE_VALIDATION_ACTION&#45;&gt;_GH__CASEWORK__CASE_MAPPING_TEMPLATE_PYTHON -->
<g id="edge23" class="edge">
<title>_GH__KCHASON__CASE_VALIDATION_ACTION&#45;&gt;_GH__CASEWORK__CASE_MAPPING_TEMPLATE_PYTHON</title>
<path fill="none" stroke="black" d="M793.7,-854.84C813.52,-830.61 851.31,-789.77 894,-771 925.46,-757.17 961.95,-750.58 995.8,-747.79"/>
<polygon fill="black" stroke="black" points="995.96,-751.22 1005.69,-747.02 995.47,-744.24 995.96,-751.22"/>
<text text-anchor="middle" x="933.5" y="-789.8" font-family="Times,serif" font-size="14.00">GitHub</text>
<text text-anchor="middle" x="933.5" y="-774.8" font-family="Times,serif" font-size="14.00">Action</text>
</g>
<!-- _GH__KCHASON__CASE_VALIDATION_ACTION&#45;&gt;_GH__CASEWORK__CASE_BINDINGS_CSHARP_MONITOR -->
<g id="edge17" class="edge">
<title>_GH__KCHASON__CASE_VALIDATION_ACTION&#45;&gt;_GH__CASEWORK__CASE_BINDINGS_CSHARP_MONITOR</title>
<path fill="none" stroke="black" d="M838.09,-854.55C878.06,-842 932.25,-826.19 981,-816 1086.33,-793.98 1130.79,-842.66 1221,-784 1335.87,-709.3 1396.98,-545.65 1417.98,-478.57"/>
<polygon fill="black" stroke="black" points="1421.55,-479.88 1421.12,-469.3 1414.85,-477.84 1421.55,-479.88"/>
<text text-anchor="middle" x="1109" y="-834.8" font-family="Times,serif" font-size="14.00">GitHub</text>
<text text-anchor="middle" x="1109" y="-819.8" font-family="Times,serif" font-size="14.00">Action</text>
</g>
<!-- _GH__KCHASON__CASE_VALIDATION_ACTION&#45;&gt;_GH__CASEWORK__CASE_EXAMPLES_CONVERSION -->
<g id="edge18" class="edge">
<title>_GH__KCHASON__CASE_VALIDATION_ACTION&#45;&gt;_GH__CASEWORK__CASE_EXAMPLES_CONVERSION</title>
<path fill="none" stroke="black" d="M846.22,-859.62C861.83,-856.87 878.44,-854.41 894,-853 932.05,-849.55 973.9,-852.06 1010.42,-856.32"/>
<polygon fill="black" stroke="black" points="1009.72,-859.88 1020.07,-857.62 1010.57,-852.93 1009.72,-859.88"/>
<text text-anchor="middle" x="933.5" y="-871.8" font-family="Times,serif" font-size="14.00">GitHub</text>
<text text-anchor="middle" x="933.5" y="-856.8" font-family="Times,serif" font-size="14.00">Action</text>
</g>
<!-- _GH__DOD_CYBER_CRIME_CENTER__SQLITE_DISSECT -->
<g id="node27" class="node">
<title>_GH__DOD_CYBER_CRIME_CENTER__SQLITE_DISSECT</title>
<g id="a_node27"><a xlink:href="https://github.com/dod-cyber-crime-center/sqlite-dissect" xlink:title="sqlite&#45;dissect\nadopts new case&#45;validation&#45;action">
<path fill="#8ec7d2" stroke="#0d6986" d="M1197.5,-178C1197.5,-178 1020.5,-178 1020.5,-178 1014.5,-178 1008.5,-172 1008.5,-166 1008.5,-166 1008.5,-152 1008.5,-152 1008.5,-146 1014.5,-140 1020.5,-140 1020.5,-140 1197.5,-140 1197.5,-140 1203.5,-140 1209.5,-146 1209.5,-152 1209.5,-152 1209.5,-166 1209.5,-166 1209.5,-172 1203.5,-178 1197.5,-178"/>
<text text-anchor="middle" x="1109" y="-162.8" font-family="Times,serif" font-size="14.00">sqlite&#45;dissect</text>
<text text-anchor="middle" x="1109" y="-147.8" font-family="Times,serif" font-size="14.00">adopts new case&#45;validation&#45;action</text>
</a>
</g>
</g>
<!-- _GH__KCHASON__CASE_VALIDATION_ACTION&#45;&gt;_GH__DOD_CYBER_CRIME_CENTER__SQLITE_DISSECT -->
<g id="edge24" class="edge">
<title>_GH__KCHASON__CASE_VALIDATION_ACTION&#45;&gt;_GH__DOD_CYBER_CRIME_CENTER__SQLITE_DISSECT</title>
<g id="a_edge24"><a xlink:href="https://github.com/dod-cyber-crime-center/sqlite-dissect/pull/31" xlink:title="TODO: PR 31">
<path fill="none" stroke="black" d="M783.88,-854.52C797.84,-799.91 840.44,-641.13 894,-516 925.85,-441.59 939.71,-425.62 981,-356 1017.36,-294.7 1063.42,-225.06 1088.88,-187.19"/>
<polygon fill="black" stroke="black" points="1092.21,-189.52 1094.89,-179.27 1086.4,-185.61 1092.21,-189.52"/>
</a>
</g>
<g id="a_edge24&#45;label"><a xlink:href="https://github.com/dod-cyber-crime-center/sqlite-dissect/pull/31" xlink:title="TODO: PR 31">
<text text-anchor="middle" x="933.5" y="-519.8" font-family="Times,serif" font-size="14.00">TODO: PR 31</text>
</a>
</g>
</g>
</g>
</svg>
