<?xml version="1.0" encoding="UTF-8" standalone="no"?>
<!DOCTYPE svg PUBLIC "-//W3C//DTD SVG 1.1//EN"
 "http://www.w3.org/Graphics/SVG/1.1/DTD/svg11.dtd">
<!-- Generated by graphviz version 7.1.0 (20230121.1956)
 -->
<!-- Title: cdo_release_flow Pages: 1 -->
<svg width="1807pt" height="1106pt"
 viewBox="0.00 0.00 1807.00 1106.00" xmlns="http://www.w3.org/2000/svg" xmlns:xlink="http://www.w3.org/1999/xlink">
<g id="graph0" class="graph" transform="scale(1 1) rotate(0) translate(4 1102)">
<title>cdo_release_flow</title>
<polygon fill="white" stroke="none" points="-4,4 -4,-1102 1803,-1102 1803,4 -4,4"/>
<text text-anchor="middle" x="899.5" y="-38.8" font-family="Times,serif" font-size="14.00">Release flow of CDO ontologies</text>
<text text-anchor="middle" x="899.5" y="-7.8" font-family="Times,serif" font-size="14.00">Nodes link to the respective Git repository.</text>
<g id="clust1" class="cluster">
<title>cluster_uco_0_9_1</title>
<polygon fill="none" stroke="black" points="189,-345 189,-509 357,-509 357,-345 189,-345"/>
<text text-anchor="middle" x="273" y="-493.8" font-family="Times,serif" font-size="14.00">Adoption of UCO 0.9.1</text>
</g>
<g id="clust2" class="cluster">
<title>cluster_case_0_7_1</title>
<polygon fill="none" stroke="black" points="197,-401 197,-478 349,-478 349,-401 197,-401"/>
<text text-anchor="middle" x="273" y="-462.8" font-family="Times,serif" font-size="14.00">Adoption of CASE 0.7.1</text>
</g>
<g id="clust3" class="cluster">
<title>cluster_uco_1_1_0</title>
<polygon fill="none" stroke="black" points="944,-62 944,-509 1572,-509 1572,-62 944,-62"/>
<text text-anchor="middle" x="1258" y="-493.8" font-family="Times,serif" font-size="14.00">Adoption of UCO 1.1.0</text>
</g>
<g id="clust4" class="cluster">
<title>cluster_case_1_1_0</title>
<polygon fill="none" stroke="black" points="952,-70 952,-478 1564,-478 1564,-70 952,-70"/>
<text text-anchor="middle" x="1258" y="-462.8" font-family="Times,serif" font-size="14.00">Adoption of CASE 1.1.0</text>
</g>
<g id="clust5" class="cluster">
<title>cluster_case_utils_0_9_0</title>
<polygon fill="none" stroke="black" points="960,-78 960,-447 1556,-447 1556,-78 960,-78"/>
<text text-anchor="middle" x="1258" y="-431.8" font-family="Times,serif" font-size="14.00">Adoption of case&#45;utils 0.9.0</text>
</g>
<g id="clust6" class="cluster">
<title>cluster_case_validation_action_2_5</title>
<polygon fill="none" stroke="black" points="968,-86 968,-416 1548,-416 1548,-86 968,-86"/>
<text text-anchor="middle" x="1258" y="-400.8" font-family="Times,serif" font-size="14.00">Adoption of case&#45;validation&#45;action 2.5</text>
</g>
<g id="clust7" class="cluster">
<title>cluster_case_bindings_csharp_0_3_0</title>
<polygon fill="none" stroke="black" points="993.5,-94 993.5,-171 1540,-171 1540,-94 993.5,-94"/>
<text text-anchor="middle" x="1266.75" y="-155.8" font-family="Times,serif" font-size="14.00">Adoption of CSharp bindings 0.3.0</text>
</g>
<g id="clust8" class="cluster">
<title>cluster_uco_1_2_0</title>
<polygon fill="none" stroke="black" points="8,-517 8,-1052 1791,-1052 1791,-517 8,-517"/>
<text text-anchor="middle" x="899.5" y="-1036.8" font-family="Times,serif" font-size="14.00">Adoption of UCO 1.2.0</text>
</g>
<g id="clust9" class="cluster">
<title>cluster_case_1_2_0</title>
<polygon fill="none" stroke="black" points="212,-525 212,-1021 1783,-1021 1783,-525 212,-525"/>
<text text-anchor="middle" x="997.5" y="-1005.8" font-family="Times,serif" font-size="14.00">Adoption of CASE 1.2.0</text>
</g>
<g id="clust10" class="cluster">
<title>cluster_case_utils_0_10_0</title>
<polygon fill="none" stroke="black" points="456,-579 456,-990 1775,-990 1775,-579 456,-579"/>
<text text-anchor="middle" x="1115.5" y="-974.8" font-family="Times,serif" font-size="14.00">Adoption of case&#45;utils 0.10.0</text>
</g>
<g id="clust11" class="cluster">
<title>cluster_case_prov_0_7_0</title>
<polygon fill="none" stroke="black" points="1364,-864 1364,-941 1767,-941 1767,-864 1364,-864"/>
<text text-anchor="middle" x="1565.5" y="-925.8" font-family="Times,serif" font-size="14.00">Adoption of case&#45;prov 0.7.0</text>
</g>
<g id="clust12" class="cluster">
<title>cluster_case_validation_action_2_6</title>
<polygon fill="none" stroke="black" points="658,-587 658,-674 1205,-674 1205,-587 658,-587"/>
<text text-anchor="middle" x="931.5" y="-658.8" font-family="Times,serif" font-size="14.00">Adoption of case&#45;validation&#45;action 2.6</text>
</g>
<!-- _GH__UCOPROJECT__ONTOLOGY_UNIFIEDCYBERONTOLOGY_ORG -->
<g id="node1" class="node">
<title>_GH__UCOPROJECT__ONTOLOGY_UNIFIEDCYBERONTOLOGY_ORG</title>
<g id="a_node1"><a xlink:href="https://github.com/ucoProject/ontology.unifiedcyberontology.org" xlink:title="UCO documentation\nregenerated">
<path fill="#8ec7d2" stroke="#0d6986" d="M326,-391C326,-391 220,-391 220,-391 214,-391 208,-385 208,-379 208,-379 208,-365 208,-365 208,-359 214,-353 220,-353 220,-353 326,-353 326,-353 332,-353 338,-359 338,-365 338,-365 338,-379 338,-379 338,-385 332,-391 326,-391"/>
<text text-anchor="middle" x="273" y="-375.8" font-family="Times,serif" font-size="14.00">UCO documentation</text>
<text text-anchor="middle" x="273" y="-360.8" font-family="Times,serif" font-size="14.00">regenerated</text>
</a>
</g>
</g>
<!-- _GH__CASEWORK__CASE_MAPPING_TEMPLATE_STUBS -->
<g id="node2" class="node">
<title>_GH__CASEWORK__CASE_MAPPING_TEMPLATE_STUBS</title>
<g id="a_node2"><a xlink:href="https://github.com/casework/CASE-Mapping-Template-Stubs" xlink:title="CASE Mapping\nTemplate Stubs">
<path fill="#8ec7d2" stroke="#0d6986" d="M313,-447C313,-447 233,-447 233,-447 227,-447 221,-441 221,-435 221,-435 221,-421 221,-421 221,-415 227,-409 233,-409 233,-409 313,-409 313,-409 319,-409 325,-415 325,-421 325,-421 325,-435 325,-435 325,-441 319,-447 313,-447"/>
<text text-anchor="middle" x="273" y="-431.8" font-family="Times,serif" font-size="14.00">CASE Mapping</text>
<text text-anchor="middle" x="273" y="-416.8" font-family="Times,serif" font-size="14.00">Template Stubs</text>
</a>
</g>
</g>
<!-- _GH__CASEWORK__CASE_IMPLEMENTATON_PYPI_EXIFREAD -->
<g id="node3" class="node">
<title>_GH__CASEWORK__CASE_IMPLEMENTATON_PYPI_EXIFREAD</title>
<g id="a_node3"><a xlink:href="https://github.com/casework/CASE-Implementation-PyPI-Exifread" xlink:title="CASE&#45;Implementation&#45;PyPI&#45;Exifread\nadopts new case&#45;validation&#45;action">
<path fill="#8ec7d2" stroke="#0d6986" d="M1188,-329C1188,-329 988,-329 988,-329 982,-329 976,-323 976,-317 976,-317 976,-303 976,-303 976,-297 982,-291 988,-291 988,-291 1188,-291 1188,-291 1194,-291 1200,-297 1200,-303 1200,-303 1200,-317 1200,-317 1200,-323 1194,-329 1188,-329"/>
<text text-anchor="middle" x="1088" y="-313.8" font-family="Times,serif" font-size="14.00">CASE&#45;Implementation&#45;PyPI&#45;Exifread</text>
<text text-anchor="middle" x="1088" y="-298.8" font-family="Times,serif" font-size="14.00">adopts new case&#45;validation&#45;action</text>
</a>
</g>
</g>
<!-- _GH__CASEWORK__CASE_IMPLEMENTATON_PYPI_PILLOW -->
<g id="node4" class="node">
<title>_GH__CASEWORK__CASE_IMPLEMENTATON_PYPI_PILLOW</title>
<g id="a_node4"><a xlink:href="https://github.com/casework/CASE-Implementation-PyPI-Pillow" xlink:title="CASE&#45;Implementation&#45;PyPI&#45;Pillow\nadopts new case&#45;validation&#45;action">
<path fill="#8ec7d2" stroke="#0d6986" d="M1182.5,-273C1182.5,-273 993.5,-273 993.5,-273 987.5,-273 981.5,-267 981.5,-261 981.5,-261 981.5,-247 981.5,-247 981.5,-241 987.5,-235 993.5,-235 993.5,-235 1182.5,-235 1182.5,-235 1188.5,-235 1194.5,-241 1194.5,-247 1194.5,-247 1194.5,-261 1194.5,-261 1194.5,-267 1188.5,-273 1182.5,-273"/>
<text text-anchor="middle" x="1088" y="-257.8" font-family="Times,serif" font-size="14.00">CASE&#45;Implementation&#45;PyPI&#45;Pillow</text>
<text text-anchor="middle" x="1088" y="-242.8" font-family="Times,serif" font-size="14.00">adopts new case&#45;validation&#45;action</text>
</a>
</g>
</g>
<!-- _GH__CASEWORK__CASE_IMPLEMENTATON_XRY -->
<g id="node5" class="node">
<title>_GH__CASEWORK__CASE_IMPLEMENTATON_XRY</title>
<g id="a_node5"><a xlink:href="https://github.com/casework/CASE-Implementation-XRY" xlink:title="CASE&#45;Implementation&#45;XRY adopts\nnew case&#45;validation&#45;action">
<path fill="#8ec7d2" stroke="#0d6986" d="M1183,-217C1183,-217 993,-217 993,-217 987,-217 981,-211 981,-205 981,-205 981,-191 981,-191 981,-185 987,-179 993,-179 993,-179 1183,-179 1183,-179 1189,-179 1195,-185 1195,-191 1195,-191 1195,-205 1195,-205 1195,-211 1189,-217 1183,-217"/>
<text text-anchor="middle" x="1088" y="-201.8" font-family="Times,serif" font-size="14.00">CASE&#45;Implementation&#45;XRY adopts</text>
<text text-anchor="middle" x="1088" y="-186.8" font-family="Times,serif" font-size="14.00">new case&#45;validation&#45;action</text>
</a>
</g>
</g>
<!-- _GH__CASEWORK__CASE_MAPPING_TEMPLATE_PYTHON -->
<g id="node6" class="node">
<title>_GH__CASEWORK__CASE_MAPPING_TEMPLATE_PYTHON</title>
<g id="a_node6"><a xlink:href="https://github.com/casework/CASE-Mapping-Template-Python" xlink:title="CASE&#45;Mapping&#45;Template&#45;Python\nadopts new case&#45;validation&#45;action">
<path fill="#8ec7d2" stroke="#0d6986" d="M1178,-385C1178,-385 998,-385 998,-385 992,-385 986,-379 986,-373 986,-373 986,-359 986,-359 986,-353 992,-347 998,-347 998,-347 1178,-347 1178,-347 1184,-347 1190,-353 1190,-359 1190,-359 1190,-373 1190,-373 1190,-379 1184,-385 1178,-385"/>
<text text-anchor="middle" x="1088" y="-369.8" font-family="Times,serif" font-size="14.00">CASE&#45;Mapping&#45;Template&#45;Python</text>
<text text-anchor="middle" x="1088" y="-354.8" font-family="Times,serif" font-size="14.00">adopts new case&#45;validation&#45;action</text>
</a>
</g>
</g>
<!-- _GH__CASEWORK__CASE_BINDINGS_CSHARP_MONITOR -->
<g id="node7" class="node">
<title>_GH__CASEWORK__CASE_BINDINGS_CSHARP_MONITOR</title>
<g id="a_node7"><a xlink:href="https://github.com/casework/CASE-Bindings-CSharp-Monitor" xlink:title="CASE Bindings CSharp Monitor\ntests NuGet package with validation action">
<path fill="#8ec7d2" stroke="#0d6986" d="M1520,-140C1520,-140 1293,-140 1293,-140 1287,-140 1281,-134 1281,-128 1281,-128 1281,-114 1281,-114 1281,-108 1287,-102 1293,-102 1293,-102 1520,-102 1520,-102 1526,-102 1532,-108 1532,-114 1532,-114 1532,-128 1532,-128 1532,-134 1526,-140 1520,-140"/>
<text text-anchor="middle" x="1406.5" y="-124.8" font-family="Times,serif" font-size="14.00">CASE Bindings CSharp Monitor</text>
<text text-anchor="middle" x="1406.5" y="-109.8" font-family="Times,serif" font-size="14.00">tests NuGet package with validation action</text>
</a>
</g>
</g>
<!-- _GH__CIPHERTECHSOLUTIONS__CASE_BINDINGS_CSHARP -->
<g id="node8" class="node">
<title>_GH__CIPHERTECHSOLUTIONS__CASE_BINDINGS_CSHARP</title>
<g id="a_node8"><a xlink:href="https://github.com/ciphertechsolutions/CASE-Bindings-CSharp" xlink:title="CASE&#45;Bindings&#45;CSharp\nadopts new ontology version">
<path fill="#8ec7d2" stroke="#0d6986" d="M1162.5,-140C1162.5,-140 1013.5,-140 1013.5,-140 1007.5,-140 1001.5,-134 1001.5,-128 1001.5,-128 1001.5,-114 1001.5,-114 1001.5,-108 1007.5,-102 1013.5,-102 1013.5,-102 1162.5,-102 1162.5,-102 1168.5,-102 1174.5,-108 1174.5,-114 1174.5,-114 1174.5,-128 1174.5,-128 1174.5,-134 1168.5,-140 1162.5,-140"/>
<text text-anchor="middle" x="1088" y="-124.8" font-family="Times,serif" font-size="14.00">CASE&#45;Bindings&#45;CSharp</text>
<text text-anchor="middle" x="1088" y="-109.8" font-family="Times,serif" font-size="14.00">adopts new ontology version</text>
</a>
</g>
</g>
<!-- _GH__CIPHERTECHSOLUTIONS__CASE_BINDINGS_CSHARP&#45;&gt;_GH__CASEWORK__CASE_BINDINGS_CSHARP_MONITOR -->
<g id="edge15" class="edge">
<title>_GH__CIPHERTECHSOLUTIONS__CASE_BINDINGS_CSHARP&#45;&gt;_GH__CASEWORK__CASE_BINDINGS_CSHARP_MONITOR</title>
<path fill="none" stroke="black" d="M1174.65,-121C1203.8,-121 1237.15,-121 1269.26,-121"/>
<polygon fill="black" stroke="black" points="1269.04,-124.5 1279.04,-121 1269.04,-117.5 1269.04,-124.5"/>
<text text-anchor="middle" x="1240.5" y="-124.8" font-family="Times,serif" font-size="14.00">NuGet</text>
</g>
<!-- _GH__UCOPROJECT__UCO -->
<g id="node9" class="node">
<title>_GH__UCOPROJECT__UCO</title>
<g id="a_node9"><a xlink:href="https://github.com/ucoProject/UCO" xlink:title="UCO Ontology\nreleases">
<path fill="#8ec7d2" stroke="#0d6986" d="M104,-567C104,-567 28,-567 28,-567 22,-567 16,-561 16,-555 16,-555 16,-541 16,-541 16,-535 22,-529 28,-529 28,-529 104,-529 104,-529 110,-529 116,-535 116,-541 116,-541 116,-555 116,-555 116,-561 110,-567 104,-567"/>
<text text-anchor="middle" x="66" y="-551.8" font-family="Times,serif" font-size="14.00">UCO Ontology</text>
<text text-anchor="middle" x="66" y="-536.8" font-family="Times,serif" font-size="14.00">releases</text>
</a>
</g>
</g>
<!-- _GH__UCOPROJECT__UCO&#45;&gt;_GH__UCOPROJECT__ONTOLOGY_UNIFIEDCYBERONTOLOGY_ORG -->
<g id="edge24" class="edge">
<title>_GH__UCOPROJECT__UCO&#45;&gt;_GH__UCOPROJECT__ONTOLOGY_UNIFIEDCYBERONTOLOGY_ORG</title>
<path fill="none" stroke="black" d="M77.41,-528.67C95.71,-496.53 136.7,-432.16 189,-397 191.69,-395.19 194.52,-393.51 197.44,-391.94"/>
<polygon fill="black" stroke="black" points="198.78,-395.18 206.31,-387.72 195.77,-388.86 198.78,-395.18"/>
<text text-anchor="middle" x="156.5" y="-465.8" font-family="Times,serif" font-size="14.00">Git sub&#45;</text>
<text text-anchor="middle" x="156.5" y="-450.8" font-family="Times,serif" font-size="14.00">module</text>
</g>
<!-- _GH__CASEWORK__CASE -->
<g id="node10" class="node">
<title>_GH__CASEWORK__CASE</title>
<g id="a_node10"><a xlink:href="https://github.com/casework/CASE" xlink:title="CASE Ontology\nreleases">
<path fill="#8ec7d2" stroke="#0d6986" d="M314,-571C314,-571 232,-571 232,-571 226,-571 220,-565 220,-559 220,-559 220,-545 220,-545 220,-539 226,-533 232,-533 232,-533 314,-533 314,-533 320,-533 326,-539 326,-545 326,-545 326,-559 326,-559 326,-565 320,-571 314,-571"/>
<text text-anchor="middle" x="273" y="-555.8" font-family="Times,serif" font-size="14.00">CASE Ontology</text>
<text text-anchor="middle" x="273" y="-540.8" font-family="Times,serif" font-size="14.00">releases</text>
</a>
</g>
</g>
<!-- _GH__UCOPROJECT__UCO&#45;&gt;_GH__CASEWORK__CASE -->
<g id="edge23" class="edge">
<title>_GH__UCOPROJECT__UCO&#45;&gt;_GH__CASEWORK__CASE</title>
<path fill="none" stroke="black" d="M116.36,-548.96C143.98,-549.5 178.7,-550.18 208.34,-550.76"/>
<polygon fill="black" stroke="black" points="208.26,-554.26 218.33,-550.95 208.4,-547.26 208.26,-554.26"/>
<text text-anchor="middle" x="156.5" y="-569.8" font-family="Times,serif" font-size="14.00">Git sub&#45;</text>
<text text-anchor="middle" x="156.5" y="-554.8" font-family="Times,serif" font-size="14.00">module</text>
</g>
<!-- _GH__CASEWORK__CASE&#45;&gt;_GH__CIPHERTECHSOLUTIONS__CASE_BINDINGS_CSHARP -->
<g id="edge3" class="edge">
<title>_GH__CASEWORK__CASE&#45;&gt;_GH__CIPHERTECHSOLUTIONS__CASE_BINDINGS_CSHARP</title>
<path fill="none" stroke="black" d="M302.43,-532.56C385.77,-475.94 637.38,-307.46 857,-186 894.57,-165.22 903.04,-156.88 944,-144 958.67,-139.39 974.49,-135.67 990.08,-132.67"/>
<polygon fill="black" stroke="black" points="990.66,-136.12 999.88,-130.89 989.41,-129.24 990.66,-136.12"/>
</g>
<!-- _GH__CASEWORK__ONTOLOGY_CASEONTOLOGY_ORG -->
<g id="node11" class="node">
<title>_GH__CASEWORK__ONTOLOGY_CASEONTOLOGY_ORG</title>
<g id="a_node11"><a xlink:href="https://github.com/casework/ontology.caseontology.org" xlink:title="CASE documentation\nregenerated">
<path fill="#8ec7d2" stroke="#0d6986" d="M554,-571C554,-571 442,-571 442,-571 436,-571 430,-565 430,-559 430,-559 430,-545 430,-545 430,-539 436,-533 442,-533 442,-533 554,-533 554,-533 560,-533 566,-539 566,-545 566,-545 566,-559 566,-559 566,-565 560,-571 554,-571"/>
<text text-anchor="middle" x="498" y="-555.8" font-family="Times,serif" font-size="14.00">CASE documentation</text>
<text text-anchor="middle" x="498" y="-540.8" font-family="Times,serif" font-size="14.00">regenerated</text>
</a>
</g>
</g>
<!-- _GH__CASEWORK__CASE&#45;&gt;_GH__CASEWORK__ONTOLOGY_CASEONTOLOGY_ORG -->
<g id="edge4" class="edge">
<title>_GH__CASEWORK__CASE&#45;&gt;_GH__CASEWORK__ONTOLOGY_CASEONTOLOGY_ORG</title>
<path fill="none" stroke="black" d="M326.28,-552C353.68,-552 387.8,-552 418.31,-552"/>
<polygon fill="black" stroke="black" points="418.3,-555.5 428.3,-552 418.3,-548.5 418.3,-555.5"/>
<text text-anchor="middle" x="389.5" y="-570.8" font-family="Times,serif" font-size="14.00">Git sub&#45;</text>
<text text-anchor="middle" x="389.5" y="-555.8" font-family="Times,serif" font-size="14.00">module</text>
</g>
<!-- _GH__CASEWORK__CASE_UTILITIES_PYTHON -->
<g id="node16" class="node">
<title>_GH__CASEWORK__CASE_UTILITIES_PYTHON</title>
<g id="a_node16"><a xlink:href="https://github.com/casework/CASE-Utilities-Python" xlink:title="case&#45;utils\nreleases">
<path fill="#8ec7d2" stroke="#0d6986" d="M520,-796C520,-796 476,-796 476,-796 470,-796 464,-790 464,-784 464,-784 464,-770 464,-770 464,-764 470,-758 476,-758 476,-758 520,-758 520,-758 526,-758 532,-764 532,-770 532,-770 532,-784 532,-784 532,-790 526,-796 520,-796"/>
<text text-anchor="middle" x="498" y="-780.8" font-family="Times,serif" font-size="14.00">case&#45;utils</text>
<text text-anchor="middle" x="498" y="-765.8" font-family="Times,serif" font-size="14.00">releases</text>
</a>
</g>
</g>
<!-- _GH__CASEWORK__CASE&#45;&gt;_GH__CASEWORK__CASE_UTILITIES_PYTHON -->
<g id="edge2" class="edge">
<title>_GH__CASEWORK__CASE&#45;&gt;_GH__CASEWORK__CASE_UTILITIES_PYTHON</title>
<path fill="none" stroke="black" d="M283.9,-571.44C305.19,-611.41 359.23,-703.27 430,-754 436.95,-758.98 445.07,-762.95 453.2,-766.1"/>
<polygon fill="black" stroke="black" points="451.79,-769.31 462.39,-769.27 454.08,-762.7 451.79,-769.31"/>
<text text-anchor="middle" x="389.5" y="-755.8" font-family="Times,serif" font-size="14.00">Git sub&#45;</text>
<text text-anchor="middle" x="389.5" y="-740.8" font-family="Times,serif" font-size="14.00">module</text>
</g>
<!-- _GH__AJNELSON_NIST__CASE_EXAMPLES_QC -->
<g id="node12" class="node">
<title>_GH__AJNELSON_NIST__CASE_EXAMPLES_QC</title>
<g id="a_node12"><a xlink:href="https://github.com/ajnelson-nist/CASE-Examples-QC" xlink:title="CASE&#45;Examples&#45;QC\nadopts CASE&#45;Examples and\nCASE website updates">
<path fill="#8ec7d2" stroke="#0d6986" d="M1162,-891.5C1162,-891.5 1014,-891.5 1014,-891.5 1008,-891.5 1002,-885.5 1002,-879.5 1002,-879.5 1002,-850.5 1002,-850.5 1002,-844.5 1008,-838.5 1014,-838.5 1014,-838.5 1162,-838.5 1162,-838.5 1168,-838.5 1174,-844.5 1174,-850.5 1174,-850.5 1174,-879.5 1174,-879.5 1174,-885.5 1168,-891.5 1162,-891.5"/>
<text text-anchor="middle" x="1088" y="-876.3" font-family="Times,serif" font-size="14.00">CASE&#45;Examples&#45;QC</text>
<text text-anchor="middle" x="1088" y="-861.3" font-family="Times,serif" font-size="14.00">adopts CASE&#45;Examples and</text>
<text text-anchor="middle" x="1088" y="-846.3" font-family="Times,serif" font-size="14.00">CASE website updates</text>
</a>
</g>
</g>
<!-- _GH__CASEWORK__CASE_IMPLEMENTATON_PROV_O -->
<g id="node19" class="node">
<title>_GH__CASEWORK__CASE_IMPLEMENTATON_PROV_O</title>
<g id="a_node19"><a xlink:href="https://github.com/casework/CASE-Implementation-PROV-O" xlink:title="case&#45;prov\nreleases">
<path fill="#8ec7d2" stroke="#0d6986" d="M1429,-910C1429,-910 1384,-910 1384,-910 1378,-910 1372,-904 1372,-898 1372,-898 1372,-884 1372,-884 1372,-878 1378,-872 1384,-872 1384,-872 1429,-872 1429,-872 1435,-872 1441,-878 1441,-884 1441,-884 1441,-898 1441,-898 1441,-904 1435,-910 1429,-910"/>
<text text-anchor="middle" x="1406.5" y="-894.8" font-family="Times,serif" font-size="14.00">case&#45;prov</text>
<text text-anchor="middle" x="1406.5" y="-879.8" font-family="Times,serif" font-size="14.00">releases</text>
</a>
</g>
</g>
<!-- _GH__AJNELSON_NIST__CASE_EXAMPLES_QC&#45;&gt;_GH__CASEWORK__CASE_IMPLEMENTATON_PROV_O -->
<g id="edge1" class="edge">
<title>_GH__AJNELSON_NIST__CASE_EXAMPLES_QC&#45;&gt;_GH__CASEWORK__CASE_IMPLEMENTATON_PROV_O</title>
<path fill="none" stroke="black" d="M1174.23,-872C1234.11,-876.92 1311.85,-883.31 1360.2,-887.28"/>
<polygon fill="black" stroke="black" points="1359.78,-890.76 1370.03,-888.09 1360.35,-883.78 1359.78,-890.76"/>
<text text-anchor="middle" x="1240.5" y="-896.8" font-family="Times,serif" font-size="14.00">Git sub&#45;</text>
<text text-anchor="middle" x="1240.5" y="-881.8" font-family="Times,serif" font-size="14.00">module</text>
</g>
<!-- _GH__CASEWORK__CASE_EXAMPLES -->
<g id="node13" class="node">
<title>_GH__CASEWORK__CASE_EXAMPLES</title>
<g id="a_node13"><a xlink:href="https://github.com/casework/CASE-Examples" xlink:title="CASE&#45;Examples\nadopts new case&#45;utils">
<path fill="#8ec7d2" stroke="#0d6986" d="M788.5,-883C788.5,-883 679.5,-883 679.5,-883 673.5,-883 667.5,-877 667.5,-871 667.5,-871 667.5,-857 667.5,-857 667.5,-851 673.5,-845 679.5,-845 679.5,-845 788.5,-845 788.5,-845 794.5,-845 800.5,-851 800.5,-857 800.5,-857 800.5,-871 800.5,-871 800.5,-877 794.5,-883 788.5,-883"/>
<text text-anchor="middle" x="734" y="-867.8" font-family="Times,serif" font-size="14.00">CASE&#45;Examples</text>
<text text-anchor="middle" x="734" y="-852.8" font-family="Times,serif" font-size="14.00">adopts new case&#45;utils</text>
</a>
</g>
</g>
<!-- _GH__CASEWORK__CASE_EXAMPLES&#45;&gt;_GH__AJNELSON_NIST__CASE_EXAMPLES_QC -->
<g id="edge5" class="edge">
<title>_GH__CASEWORK__CASE_EXAMPLES&#45;&gt;_GH__AJNELSON_NIST__CASE_EXAMPLES_QC</title>
<path fill="none" stroke="black" d="M800.79,-847.98C818.89,-844.27 838.61,-840.86 857,-839 900.86,-834.55 949.36,-838.69 990.47,-844.87"/>
<polygon fill="black" stroke="black" points="989.66,-848.29 1000.09,-846.38 990.75,-841.37 989.66,-848.29"/>
<text text-anchor="middle" x="896.5" y="-857.8" font-family="Times,serif" font-size="14.00">Git sub&#45;</text>
<text text-anchor="middle" x="896.5" y="-842.8" font-family="Times,serif" font-size="14.00">module</text>
</g>
<!-- _GH__CASEWORK__CASE_IMPLEMENTATON_EXIFTOOL -->
<g id="node14" class="node">
<title>_GH__CASEWORK__CASE_IMPLEMENTATON_EXIFTOOL</title>
<g id="a_node14"><a xlink:href="https://github.com/casework/CASE-Implementation-ExifTool" xlink:title="CASE&#45;Implementation&#45;ExifTool\nadopts new case&#45;utils">
<path fill="#8ec7d2" stroke="#0d6986" d="M820,-771C820,-771 648,-771 648,-771 642,-771 636,-765 636,-759 636,-759 636,-745 636,-745 636,-739 642,-733 648,-733 648,-733 820,-733 820,-733 826,-733 832,-739 832,-745 832,-745 832,-759 832,-759 832,-765 826,-771 820,-771"/>
<text text-anchor="middle" x="734" y="-755.8" font-family="Times,serif" font-size="14.00">CASE&#45;Implementation&#45;ExifTool</text>
<text text-anchor="middle" x="734" y="-740.8" font-family="Times,serif" font-size="14.00">adopts new case&#45;utils</text>
</a>
</g>
</g>
<!-- _GH__CASEWORK__CASE_IMPLEMENTATON_GNU_TIME -->
<g id="node15" class="node">
<title>_GH__CASEWORK__CASE_IMPLEMENTATON_GNU_TIME</title>
<g id="a_node15"><a xlink:href="https://github.com/casework/CASE-Implementation-GNU-Time" xlink:title="CASE&#45;Implementation&#45;GNU&#45;Time\nadopts new case&#45;utils">
<path fill="#8ec7d2" stroke="#0d6986" d="M827,-827C827,-827 641,-827 641,-827 635,-827 629,-821 629,-815 629,-815 629,-801 629,-801 629,-795 635,-789 641,-789 641,-789 827,-789 827,-789 833,-789 839,-795 839,-801 839,-801 839,-815 839,-815 839,-821 833,-827 827,-827"/>
<text text-anchor="middle" x="734" y="-811.8" font-family="Times,serif" font-size="14.00">CASE&#45;Implementation&#45;GNU&#45;Time</text>
<text text-anchor="middle" x="734" y="-796.8" font-family="Times,serif" font-size="14.00">adopts new case&#45;utils</text>
</a>
</g>
</g>
<!-- _GH__CASEWORK__CASE_UTILITIES_PYTHON&#45;&gt;_GH__AJNELSON_NIST__CASE_EXAMPLES_QC -->
<g id="edge7" class="edge">
<title>_GH__CASEWORK__CASE_UTILITIES_PYTHON&#45;&gt;_GH__AJNELSON_NIST__CASE_EXAMPLES_QC</title>
<path fill="none" stroke="black" d="M532.5,-767.61C543.46,-763.99 555.5,-759.4 566,-754 596.59,-738.25 596.23,-719.5 629,-709 717.88,-680.52 749.32,-683.14 839,-709 921.25,-732.72 1002.53,-792.66 1048.57,-830.96"/>
<polygon fill="black" stroke="black" points="1046.24,-833.57 1056.14,-837.34 1050.75,-828.22 1046.24,-833.57"/>
<text text-anchor="middle" x="734" y="-712.8" font-family="Times,serif" font-size="14.00">PyPI</text>
</g>
<!-- _GH__CASEWORK__CASE_UTILITIES_PYTHON&#45;&gt;_GH__CASEWORK__CASE_EXAMPLES -->
<g id="edge8" class="edge">
<title>_GH__CASEWORK__CASE_UTILITIES_PYTHON&#45;&gt;_GH__CASEWORK__CASE_EXAMPLES</title>
<path fill="none" stroke="black" d="M532.32,-793.94C558.22,-806.67 595.29,-823.9 629,-836 637.73,-839.13 646.98,-842.1 656.22,-844.85"/>
<polygon fill="black" stroke="black" points="655,-848.14 665.58,-847.56 656.94,-841.42 655,-848.14"/>
<text text-anchor="middle" x="597.5" y="-833.8" font-family="Times,serif" font-size="14.00">PyPI</text>
</g>
<!-- _GH__CASEWORK__CASE_UTILITIES_PYTHON&#45;&gt;_GH__CASEWORK__CASE_IMPLEMENTATON_EXIFTOOL -->
<g id="edge9" class="edge">
<title>_GH__CASEWORK__CASE_UTILITIES_PYTHON&#45;&gt;_GH__CASEWORK__CASE_IMPLEMENTATON_EXIFTOOL</title>
<path fill="none" stroke="black" d="M532.38,-770.25C548,-767.32 566.89,-764.08 584,-762 597.07,-760.41 610.82,-759.06 624.46,-757.92"/>
<polygon fill="black" stroke="black" points="624.68,-761.41 634.37,-757.12 624.12,-754.43 624.68,-761.41"/>
<text text-anchor="middle" x="597.5" y="-765.8" font-family="Times,serif" font-size="14.00">PyPI</text>
</g>
<!-- _GH__CASEWORK__CASE_UTILITIES_PYTHON&#45;&gt;_GH__CASEWORK__CASE_IMPLEMENTATON_GNU_TIME -->
<g id="edge10" class="edge">
<title>_GH__CASEWORK__CASE_UTILITIES_PYTHON&#45;&gt;_GH__CASEWORK__CASE_IMPLEMENTATON_GNU_TIME</title>
<path fill="none" stroke="black" d="M532.03,-781.38C554.68,-784.38 586.21,-788.55 617.58,-792.71"/>
<polygon fill="black" stroke="black" points="616.79,-796.13 627.16,-793.98 617.71,-789.2 616.79,-796.13"/>
<text text-anchor="middle" x="597.5" y="-795.8" font-family="Times,serif" font-size="14.00">PyPI</text>
</g>
<!-- _GH__CASEWORK__CASEWORK_GITHUB_IO -->
<g id="node17" class="node">
<title>_GH__CASEWORK__CASEWORK_GITHUB_IO</title>
<g id="a_node17"><a xlink:href="https://github.com/casework/casework.github.io" xlink:title="CASE website\nadopts new case&#45;utils">
<path fill="#8ec7d2" stroke="#0d6986" d="M788.5,-939C788.5,-939 679.5,-939 679.5,-939 673.5,-939 667.5,-933 667.5,-927 667.5,-927 667.5,-913 667.5,-913 667.5,-907 673.5,-901 679.5,-901 679.5,-901 788.5,-901 788.5,-901 794.5,-901 800.5,-907 800.5,-913 800.5,-913 800.5,-927 800.5,-927 800.5,-933 794.5,-939 788.5,-939"/>
<text text-anchor="middle" x="734" y="-923.8" font-family="Times,serif" font-size="14.00">CASE website</text>
<text text-anchor="middle" x="734" y="-908.8" font-family="Times,serif" font-size="14.00">adopts new case&#45;utils</text>
</a>
</g>
</g>
<!-- _GH__CASEWORK__CASE_UTILITIES_PYTHON&#45;&gt;_GH__CASEWORK__CASEWORK_GITHUB_IO -->
<g id="edge13" class="edge">
<title>_GH__CASEWORK__CASE_UTILITIES_PYTHON&#45;&gt;_GH__CASEWORK__CASEWORK_GITHUB_IO</title>
<path fill="none" stroke="black" d="M515.47,-796.31C538.37,-821.94 582.3,-866.87 629,-892 637.55,-896.6 646.92,-900.49 656.41,-903.76"/>
<polygon fill="black" stroke="black" points="655.12,-907.02 665.71,-906.74 657.26,-900.36 655.12,-907.02"/>
<text text-anchor="middle" x="597.5" y="-882.8" font-family="Times,serif" font-size="14.00">PyPI</text>
</g>
<!-- _GH__CASEWORK__CASE_UTILITIES_PYTHON&#45;&gt;_GH__CASEWORK__CASE_IMPLEMENTATON_PROV_O -->
<g id="edge11" class="edge">
<title>_GH__CASEWORK__CASE_UTILITIES_PYTHON&#45;&gt;_GH__CASEWORK__CASE_IMPLEMENTATON_PROV_O</title>
<path fill="none" stroke="black" d="M506.31,-796.46C521.91,-834.68 562.57,-918.41 629,-948 761.25,-1006.9 1215.81,-927.33 1360.73,-899.77"/>
<polygon fill="black" stroke="black" points="1361.16,-903.26 1370.32,-897.94 1359.84,-896.38 1361.16,-903.26"/>
<text text-anchor="middle" x="896.5" y="-970.8" font-family="Times,serif" font-size="14.00">PyPI</text>
</g>
<!-- _GH__KCHASON__CASE_VALIDATION_ACTION -->
<g id="node21" class="node">
<title>_GH__KCHASON__CASE_VALIDATION_ACTION</title>
<g id="a_node21"><a xlink:href="https://github.com/kchason/case-validation-action" xlink:title="case&#45;validation&#45;action\nreleases">
<path fill="#8ec7d2" stroke="#0d6986" d="M790,-633C790,-633 678,-633 678,-633 672,-633 666,-627 666,-621 666,-621 666,-607 666,-607 666,-601 672,-595 678,-595 678,-595 790,-595 790,-595 796,-595 802,-601 802,-607 802,-607 802,-621 802,-621 802,-627 796,-633 790,-633"/>
<text text-anchor="middle" x="734" y="-617.8" font-family="Times,serif" font-size="14.00">case&#45;validation&#45;action</text>
<text text-anchor="middle" x="734" y="-602.8" font-family="Times,serif" font-size="14.00">releases</text>
</a>
</g>
</g>
<!-- _GH__CASEWORK__CASE_UTILITIES_PYTHON&#45;&gt;_GH__KCHASON__CASE_VALIDATION_ACTION -->
<g id="edge12" class="edge">
<title>_GH__CASEWORK__CASE_UTILITIES_PYTHON&#45;&gt;_GH__KCHASON__CASE_VALIDATION_ACTION</title>
<path fill="none" stroke="black" d="M532.35,-772.39C544.46,-769.13 557.3,-763.54 566,-754 588.81,-728.99 567.08,-709.32 584,-680 597.83,-656.04 604.59,-650.02 629,-637 637,-632.73 645.76,-629.25 654.68,-626.42"/>
<polygon fill="black" stroke="black" points="655.52,-629.82 664.16,-623.69 653.58,-623.09 655.52,-629.82"/>
<text text-anchor="middle" x="597.5" y="-683.8" font-family="Times,serif" font-size="14.00">PyPI</text>
</g>
<!-- _GH__CASEWORK__CASEWORK_GITHUB_IO&#45;&gt;_GH__AJNELSON_NIST__CASE_EXAMPLES_QC -->
<g id="edge14" class="edge">
<title>_GH__CASEWORK__CASEWORK_GITHUB_IO&#45;&gt;_GH__AJNELSON_NIST__CASE_EXAMPLES_QC</title>
<path fill="none" stroke="black" d="M800.9,-903.5C819,-899.34 838.69,-895.17 857,-892 900.55,-884.47 949.1,-878.43 990.33,-873.99"/>
<polygon fill="black" stroke="black" points="990.67,-877.47 1000.25,-872.93 989.94,-870.51 990.67,-877.47"/>
<text text-anchor="middle" x="896.5" y="-910.8" font-family="Times,serif" font-size="14.00">Git sub&#45;</text>
<text text-anchor="middle" x="896.5" y="-895.8" font-family="Times,serif" font-size="14.00">module</text>
</g>
<!-- _GH__CASEWORK__CASE_CORPORA -->
<g id="node18" class="node">
<title>_GH__CASEWORK__CASE_CORPORA</title>
<g id="a_node18"><a xlink:href="https://github.com/casework/CASE-Corpora" xlink:title="CASE&#45;Corpora\nadopts new case&#45;prov">
<path fill="#8ec7d2" stroke="#0d6986" d="M1747,-910C1747,-910 1637,-910 1637,-910 1631,-910 1625,-904 1625,-898 1625,-898 1625,-884 1625,-884 1625,-878 1631,-872 1637,-872 1637,-872 1747,-872 1747,-872 1753,-872 1759,-878 1759,-884 1759,-884 1759,-898 1759,-898 1759,-904 1753,-910 1747,-910"/>
<text text-anchor="middle" x="1692" y="-894.8" font-family="Times,serif" font-size="14.00">CASE&#45;Corpora</text>
<text text-anchor="middle" x="1692" y="-879.8" font-family="Times,serif" font-size="14.00">adopts new case&#45;prov</text>
</a>
</g>
</g>
<!-- _GH__CASEWORK__CASE_IMPLEMENTATON_PROV_O&#45;&gt;_GH__CASEWORK__CASE_CORPORA -->
<g id="edge6" class="edge">
<title>_GH__CASEWORK__CASE_IMPLEMENTATON_PROV_O&#45;&gt;_GH__CASEWORK__CASE_CORPORA</title>
<path fill="none" stroke="black" d="M1441.42,-891C1483.63,-891 1557.02,-891 1613.33,-891"/>
<polygon fill="black" stroke="black" points="1613.19,-894.5 1623.19,-891 1613.19,-887.5 1613.19,-894.5"/>
<text text-anchor="middle" x="1593.5" y="-894.8" font-family="Times,serif" font-size="14.00">PyPI</text>
</g>
<!-- _GH__CASEWORK__CASE_IMPLEMENTATON_UFED_XML -->
<g id="node20" class="node">
<title>_GH__CASEWORK__CASE_IMPLEMENTATON_UFED_XML</title>
<g id="a_node20"><a xlink:href="https://github.com/casework/CASE-Implementation-UFED-XML" xlink:title="CASE&#45;Implementation&#45;UFED&#45;XML\nadopts new case&#45;validation&#45;action">
<path fill="#8ec7d2" stroke="#0d6986" d="M1185,-633C1185,-633 991,-633 991,-633 985,-633 979,-627 979,-621 979,-621 979,-607 979,-607 979,-601 985,-595 991,-595 991,-595 1185,-595 1185,-595 1191,-595 1197,-601 1197,-607 1197,-607 1197,-621 1197,-621 1197,-627 1191,-633 1185,-633"/>
<text text-anchor="middle" x="1088" y="-617.8" font-family="Times,serif" font-size="14.00">CASE&#45;Implementation&#45;UFED&#45;XML</text>
<text text-anchor="middle" x="1088" y="-602.8" font-family="Times,serif" font-size="14.00">adopts new case&#45;validation&#45;action</text>
</a>
</g>
</g>
<!-- _GH__KCHASON__CASE_VALIDATION_ACTION&#45;&gt;_GH__CASEWORK__CASE_IMPLEMENTATON_PYPI_EXIFREAD -->
<g id="edge17" class="edge">
<title>_GH__KCHASON__CASE_VALIDATION_ACTION&#45;&gt;_GH__CASEWORK__CASE_IMPLEMENTATON_PYPI_EXIFREAD</title>
<path fill="none" stroke="black" d="M739.11,-594.83C749.98,-548.73 783.81,-430.79 857,-367 886.71,-341.11 926.39,-326.61 964.42,-318.61"/>
<polygon fill="black" stroke="black" points="964.99,-322.06 974.13,-316.71 963.65,-315.19 964.99,-322.06"/>
<text text-anchor="middle" x="896.5" y="-385.8" font-family="Times,serif" font-size="14.00">GitHub</text>
<text text-anchor="middle" x="896.5" y="-370.8" font-family="Times,serif" font-size="14.00">Action</text>
</g>
<!-- _GH__KCHASON__CASE_VALIDATION_ACTION&#45;&gt;_GH__CASEWORK__CASE_IMPLEMENTATON_PYPI_PILLOW -->
<g id="edge18" class="edge">
<title>_GH__KCHASON__CASE_VALIDATION_ACTION&#45;&gt;_GH__CASEWORK__CASE_IMPLEMENTATON_PYPI_PILLOW</title>
<path fill="none" stroke="black" d="M735.97,-594.66C739.91,-538.05 759.64,-371.73 857,-292 888.34,-266.33 930.34,-254.93 969.87,-250.56"/>
<polygon fill="black" stroke="black" points="970.09,-254.05 979.71,-249.62 969.43,-247.08 970.09,-254.05"/>
<text text-anchor="middle" x="896.5" y="-310.8" font-family="Times,serif" font-size="14.00">GitHub</text>
<text text-anchor="middle" x="896.5" y="-295.8" font-family="Times,serif" font-size="14.00">Action</text>
</g>
<!-- _GH__KCHASON__CASE_VALIDATION_ACTION&#45;&gt;_GH__CASEWORK__CASE_IMPLEMENTATON_XRY -->
<g id="edge20" class="edge">
<title>_GH__KCHASON__CASE_VALIDATION_ACTION&#45;&gt;_GH__CASEWORK__CASE_IMPLEMENTATON_XRY</title>
<path fill="none" stroke="black" d="M734.3,-594.6C733.13,-529.9 738.92,-320.12 857,-223 887.98,-197.52 929.8,-188.11 969.28,-186.12"/>
<polygon fill="black" stroke="black" points="969.22,-189.62 979.1,-185.79 968.99,-182.63 969.22,-189.62"/>
<text text-anchor="middle" x="896.5" y="-241.8" font-family="Times,serif" font-size="14.00">GitHub</text>
<text text-anchor="middle" x="896.5" y="-226.8" font-family="Times,serif" font-size="14.00">Action</text>
</g>
<!-- _GH__KCHASON__CASE_VALIDATION_ACTION&#45;&gt;_GH__CASEWORK__CASE_MAPPING_TEMPLATE_PYTHON -->
<g id="edge21" class="edge">
<title>_GH__KCHASON__CASE_VALIDATION_ACTION&#45;&gt;_GH__CASEWORK__CASE_MAPPING_TEMPLATE_PYTHON</title>
<path fill="none" stroke="black" d="M743.37,-594.69C759.87,-558.89 799.98,-482.03 857,-440 891.33,-414.69 934.68,-397.81 974.47,-386.66"/>
<polygon fill="black" stroke="black" points="975.38,-390.04 984.12,-384.06 973.55,-383.28 975.38,-390.04"/>
<text text-anchor="middle" x="896.5" y="-458.8" font-family="Times,serif" font-size="14.00">GitHub</text>
<text text-anchor="middle" x="896.5" y="-443.8" font-family="Times,serif" font-size="14.00">Action</text>
</g>
<!-- _GH__KCHASON__CASE_VALIDATION_ACTION&#45;&gt;_GH__CASEWORK__CASE_BINDINGS_CSHARP_MONITOR -->
<g id="edge16" class="edge">
<title>_GH__KCHASON__CASE_VALIDATION_ACTION&#45;&gt;_GH__CASEWORK__CASE_BINDINGS_CSHARP_MONITOR</title>
<path fill="none" stroke="black" d="M793.54,-594.63C904.2,-557.25 1138.9,-474.09 1205,-420 1299.29,-342.84 1366.24,-209.82 1392.81,-150.75"/>
<polygon fill="black" stroke="black" points="1395.99,-152.23 1396.83,-141.67 1389.58,-149.4 1395.99,-152.23"/>
<text text-anchor="middle" x="1088" y="-560.8" font-family="Times,serif" font-size="14.00">GitHub</text>
<text text-anchor="middle" x="1088" y="-545.8" font-family="Times,serif" font-size="14.00">Action</text>
</g>
<!-- _GH__KCHASON__CASE_VALIDATION_ACTION&#45;&gt;_GH__CASEWORK__CASE_IMPLEMENTATON_UFED_XML -->
<g id="edge19" class="edge">
<title>_GH__KCHASON__CASE_VALIDATION_ACTION&#45;&gt;_GH__CASEWORK__CASE_IMPLEMENTATON_UFED_XML</title>
<path fill="none" stroke="black" d="M802.49,-600.27C820.15,-597.26 839.23,-594.52 857,-593 892.78,-589.94 931.67,-591.6 967.12,-595.04"/>
<polygon fill="black" stroke="black" points="966.69,-598.51 977,-596.06 967.41,-591.55 966.69,-598.51"/>
<text text-anchor="middle" x="896.5" y="-611.8" font-family="Times,serif" font-size="14.00">GitHub</text>
<text text-anchor="middle" x="896.5" y="-596.8" font-family="Times,serif" font-size="14.00">Action</text>
</g>
<!-- _GH__DOD_CYBER_CRIME_CENTER__SQLITE_DISSECT -->
<g id="node22" class="node">
<title>_GH__DOD_CYBER_CRIME_CENTER__SQLITE_DISSECT</title>
<g id="a_node22"><a xlink:href="https://github.com/dod-cyber-crime-center/sqlite-dissect" xlink:title="sqlite&#45;dissect\nadopts new case&#45;validation&#45;action">
<path fill="#8ec7d2" stroke="#0d6986" d="M1176.5,-1098C1176.5,-1098 999.5,-1098 999.5,-1098 993.5,-1098 987.5,-1092 987.5,-1086 987.5,-1086 987.5,-1072 987.5,-1072 987.5,-1066 993.5,-1060 999.5,-1060 999.5,-1060 1176.5,-1060 1176.5,-1060 1182.5,-1060 1188.5,-1066 1188.5,-1072 1188.5,-1072 1188.5,-1086 1188.5,-1086 1188.5,-1092 1182.5,-1098 1176.5,-1098"/>
<text text-anchor="middle" x="1088" y="-1082.8" font-family="Times,serif" font-size="14.00">sqlite&#45;dissect</text>
<text text-anchor="middle" x="1088" y="-1067.8" font-family="Times,serif" font-size="14.00">adopts new case&#45;validation&#45;action</text>
</a>
</g>
</g>
<!-- _GH__KCHASON__CASE_VALIDATION_ACTION&#45;&gt;_GH__DOD_CYBER_CRIME_CENTER__SQLITE_DISSECT -->
<g id="edge22" class="edge">
<title>_GH__KCHASON__CASE_VALIDATION_ACTION&#45;&gt;_GH__DOD_CYBER_CRIME_CENTER__SQLITE_DISSECT</title>
<g id="a_edge22"><a xlink:href="https://github.com/dod-cyber-crime-center/sqlite-dissect/pull/31" xlink:title="TODO: PR 31">
<path fill="none" stroke="black" d="M802.41,-615.92C816.4,-619.55 829.69,-625.98 839,-637 890.28,-697.66 809.97,-929.98 857,-994 884.94,-1032.03 931.81,-1053.06 975.98,-1064.69"/>
<polygon fill="black" stroke="black" points="975.12,-1068.08 985.67,-1067.08 976.8,-1061.29 975.12,-1068.08"/>
</a>
</g>
<g id="a_edge22&#45;label"><a xlink:href="https://github.com/dod-cyber-crime-center/sqlite-dissect/pull/31" xlink:title="TODO: PR 31">
<text text-anchor="middle" x="896.5" y="-1054.8" font-family="Times,serif" font-size="14.00">TODO: PR 31</text>
</a>
</g>
</g>
</g>
</svg>
