<?xml version="1.0" encoding="UTF-8" standalone="no"?>
<!DOCTYPE svg PUBLIC "-//W3C//DTD SVG 1.1//EN"
 "http://www.w3.org/Graphics/SVG/1.1/DTD/svg11.dtd">
<!-- Generated by graphviz version 7.1.0 (20230121.1956)
 -->
<!-- Title: cdo_release_flow Pages: 1 -->
<svg width="1911pt" height="831pt"
 viewBox="0.00 0.00 1911.00 831.00" xmlns="http://www.w3.org/2000/svg" xmlns:xlink="http://www.w3.org/1999/xlink">
<g id="graph0" class="graph" transform="scale(1 1) rotate(0) translate(4 827)">
<title>cdo_release_flow</title>
<polygon fill="white" stroke="none" points="-4,4 -4,-827 1907,-827 1907,4 -4,4"/>
<text text-anchor="middle" x="951.5" y="-38.8" font-family="Times,serif" font-size="14.00">Release flow of CDO ontologies</text>
<text text-anchor="middle" x="951.5" y="-7.8" font-family="Times,serif" font-size="14.00">Nodes link to the respective Git repository.</text>
<g id="clust1" class="cluster">
<title>cluster_uco_0_9_1</title>
<polygon fill="none" stroke="black" points="189,-580 189,-744 357,-744 357,-580 189,-580"/>
<text text-anchor="middle" x="273" y="-728.8" font-family="Times,serif" font-size="14.00">Adoption of UCO 0.9.1</text>
</g>
<g id="clust2" class="cluster">
<title>cluster_case_0_7_1</title>
<polygon fill="none" stroke="black" points="197,-636 197,-713 349,-713 349,-636 197,-636"/>
<text text-anchor="middle" x="273" y="-697.8" font-family="Times,serif" font-size="14.00">Adoption of CASE 0.7.1</text>
</g>
<g id="clust3" class="cluster">
<title>cluster_uco_1_1_0</title>
<polygon fill="none" stroke="black" points="1275,-62 1275,-785 1895,-785 1895,-62 1275,-62"/>
<text text-anchor="middle" x="1585" y="-769.8" font-family="Times,serif" font-size="14.00">Adoption of UCO 1.1.0</text>
</g>
<g id="clust4" class="cluster">
<title>cluster_case_1_1_0</title>
<polygon fill="none" stroke="black" points="1283,-70 1283,-754 1887,-754 1887,-70 1283,-70"/>
<text text-anchor="middle" x="1585" y="-738.8" font-family="Times,serif" font-size="14.00">Adoption of CASE 1.1.0</text>
</g>
<g id="clust5" class="cluster">
<title>cluster_case_utils_0_9_0</title>
<polygon fill="none" stroke="black" points="1291,-78 1291,-723 1879,-723 1879,-78 1291,-78"/>
<text text-anchor="middle" x="1585" y="-707.8" font-family="Times,serif" font-size="14.00">Adoption of case&#45;utils 0.9.0</text>
</g>
<g id="clust7" class="cluster">
<title>cluster_case_validation_action_2_3</title>
<polygon fill="none" stroke="black" points="1302,-275 1302,-352 1536,-352 1536,-275 1302,-275"/>
<text text-anchor="middle" x="1419" y="-336.8" font-family="Times,serif" font-size="14.00">Adoption of case&#45;validation&#45;action 2.3</text>
</g>
<g id="clust8" class="cluster">
<title>cluster_case_validation_action_2_5</title>
<polygon fill="none" stroke="black" points="1299,-360 1299,-692 1871,-692 1871,-360 1299,-360"/>
<text text-anchor="middle" x="1585" y="-676.8" font-family="Times,serif" font-size="14.00">Adoption of case&#45;validation&#45;action 2.5</text>
</g>
<g id="clust9" class="cluster">
<title>cluster_case_bindings_csharp_0_3_0</title>
<polygon fill="none" stroke="black" points="1324.5,-584 1324.5,-661 1863,-661 1863,-584 1324.5,-584"/>
<text text-anchor="middle" x="1593.75" y="-645.8" font-family="Times,serif" font-size="14.00">Adoption of CSharp bindings 0.3.0</text>
</g>
<g id="clust6" class="cluster">
<title>cluster_case_prov_0_6_0</title>
<polygon fill="none" stroke="black" points="1376.5,-190 1376.5,-267 1804.5,-267 1804.5,-190 1376.5,-190"/>
<text text-anchor="middle" x="1590.5" y="-251.8" font-family="Times,serif" font-size="14.00">Adoption of case&#45;prov 0.6.0</text>
</g>
<g id="clust10" class="cluster">
<title>cluster_uco_1_2_0</title>
<polygon fill="none" stroke="black" points="8,-177 8,-572 1213.5,-572 1213.5,-177 8,-177"/>
<text text-anchor="middle" x="610.75" y="-556.8" font-family="Times,serif" font-size="14.00">Adoption of UCO 1.2.0</text>
</g>
<g id="clust11" class="cluster">
<title>cluster_case_1_2_0</title>
<polygon fill="none" stroke="black" points="212,-185 212,-541 1205.5,-541 1205.5,-185 212,-185"/>
<text text-anchor="middle" x="708.75" y="-525.8" font-family="Times,serif" font-size="14.00">Adoption of CASE 1.2.0</text>
</g>
<g id="clust12" class="cluster">
<title>cluster_case_utils_0_10_0</title>
<polygon fill="none" stroke="black" points="456,-239 456,-510 1197.5,-510 1197.5,-239 456,-239"/>
<text text-anchor="middle" x="826.75" y="-494.8" font-family="Times,serif" font-size="14.00">Adoption of case&#45;utils 0.10.0</text>
</g>
<g id="clust13" class="cluster">
<title>cluster_case_validation_action_2_6</title>
<polygon fill="none" stroke="black" points="645,-402 645,-479 872,-479 872,-402 645,-402"/>
<text text-anchor="middle" x="758.5" y="-463.8" font-family="Times,serif" font-size="14.00">Adoption of case&#45;validation&#45;action 2.6</text>
</g>
<!-- _GH__UCOPROJECT__ONTOLOGY_UNIFIEDCYBERONTOLOGY_ORG -->
<g id="node1" class="node">
<title>_GH__UCOPROJECT__ONTOLOGY_UNIFIEDCYBERONTOLOGY_ORG</title>
<g id="a_node1"><a xlink:href="https://github.com/ucoProject/ontology.unifiedcyberontology.org" xlink:title="UCO documentation\nregenerated">
<path fill="#8ec7d2" stroke="#0d6986" d="M326,-626C326,-626 220,-626 220,-626 214,-626 208,-620 208,-614 208,-614 208,-600 208,-600 208,-594 214,-588 220,-588 220,-588 326,-588 326,-588 332,-588 338,-594 338,-600 338,-600 338,-614 338,-614 338,-620 332,-626 326,-626"/>
<text text-anchor="middle" x="273" y="-610.8" font-family="Times,serif" font-size="14.00">UCO documentation</text>
<text text-anchor="middle" x="273" y="-595.8" font-family="Times,serif" font-size="14.00">regenerated</text>
</a>
</g>
</g>
<!-- _GH__CASEWORK__CASE_MAPPING_TEMPLATE_STUBS -->
<g id="node2" class="node">
<title>_GH__CASEWORK__CASE_MAPPING_TEMPLATE_STUBS</title>
<g id="a_node2"><a xlink:href="https://github.com/casework/CASE-Mapping-Template-Stubs" xlink:title="CASE Mapping\nTemplate Stubs">
<path fill="#8ec7d2" stroke="#0d6986" d="M313,-682C313,-682 233,-682 233,-682 227,-682 221,-676 221,-670 221,-670 221,-656 221,-656 221,-650 227,-644 233,-644 233,-644 313,-644 313,-644 319,-644 325,-650 325,-656 325,-656 325,-670 325,-670 325,-676 319,-682 313,-682"/>
<text text-anchor="middle" x="273" y="-666.8" font-family="Times,serif" font-size="14.00">CASE Mapping</text>
<text text-anchor="middle" x="273" y="-651.8" font-family="Times,serif" font-size="14.00">Template Stubs</text>
</a>
</g>
</g>
<!-- _GH__CASEWORK__CASE_IMPLEMENTATON_EXIFTOOL -->
<g id="node3" class="node">
<title>_GH__CASEWORK__CASE_IMPLEMENTATON_EXIFTOOL</title>
<g id="a_node3"><a xlink:href="https://github.com/casework/CASE-Implementation-ExifTool" xlink:title="CASE&#45;Implementation&#45;ExifTool\nadopts new case&#45;utils">
<path fill="#8ec7d2" stroke="#0d6986" d="M1505,-124C1505,-124 1333,-124 1333,-124 1327,-124 1321,-118 1321,-112 1321,-112 1321,-98 1321,-98 1321,-92 1327,-86 1333,-86 1333,-86 1505,-86 1505,-86 1511,-86 1517,-92 1517,-98 1517,-98 1517,-112 1517,-112 1517,-118 1511,-124 1505,-124"/>
<text text-anchor="middle" x="1419" y="-108.8" font-family="Times,serif" font-size="14.00">CASE&#45;Implementation&#45;ExifTool</text>
<text text-anchor="middle" x="1419" y="-93.8" font-family="Times,serif" font-size="14.00">adopts new case&#45;utils</text>
</a>
</g>
</g>
<!-- _GH__CASEWORK__CASE_IMPLEMENTATON_GNU_TIME -->
<g id="node4" class="node">
<title>_GH__CASEWORK__CASE_IMPLEMENTATON_GNU_TIME</title>
<g id="a_node4"><a xlink:href="https://github.com/casework/CASE-Implementation-GNU-Time" xlink:title="CASE&#45;Implementation&#45;GNU&#45;Time\nadopts new case&#45;utils">
<path fill="#8ec7d2" stroke="#0d6986" d="M1512,-180C1512,-180 1326,-180 1326,-180 1320,-180 1314,-174 1314,-168 1314,-168 1314,-154 1314,-154 1314,-148 1320,-142 1326,-142 1326,-142 1512,-142 1512,-142 1518,-142 1524,-148 1524,-154 1524,-154 1524,-168 1524,-168 1524,-174 1518,-180 1512,-180"/>
<text text-anchor="middle" x="1419" y="-164.8" font-family="Times,serif" font-size="14.00">CASE&#45;Implementation&#45;GNU&#45;Time</text>
<text text-anchor="middle" x="1419" y="-149.8" font-family="Times,serif" font-size="14.00">adopts new case&#45;utils</text>
</a>
</g>
</g>
<!-- _GH__CASEWORK__CASE_CORPORA -->
<g id="node5" class="node">
<title>_GH__CASEWORK__CASE_CORPORA</title>
<g id="a_node5"><a xlink:href="https://github.com/casework/CASE-Corpora" xlink:title="CASE&#45;Corpora\nadopts new case&#45;prov">
<path fill="#8ec7d2" stroke="#0d6986" d="M1784.5,-236C1784.5,-236 1674.5,-236 1674.5,-236 1668.5,-236 1662.5,-230 1662.5,-224 1662.5,-224 1662.5,-210 1662.5,-210 1662.5,-204 1668.5,-198 1674.5,-198 1674.5,-198 1784.5,-198 1784.5,-198 1790.5,-198 1796.5,-204 1796.5,-210 1796.5,-210 1796.5,-224 1796.5,-224 1796.5,-230 1790.5,-236 1784.5,-236"/>
<text text-anchor="middle" x="1729.5" y="-220.8" font-family="Times,serif" font-size="14.00">CASE&#45;Corpora</text>
<text text-anchor="middle" x="1729.5" y="-205.8" font-family="Times,serif" font-size="14.00">adopts new case&#45;prov</text>
</a>
</g>
</g>
<!-- _GH__CASEWORK__CASE_IMPLEMENTATON_PROV_O -->
<g id="node6" class="node">
<title>_GH__CASEWORK__CASE_IMPLEMENTATON_PROV_O</title>
<g id="a_node6"><a xlink:href="https://github.com/casework/CASE-Implementation-PROV-O" xlink:title="case&#45;prov\nreleases">
<path fill="#8ec7d2" stroke="#0d6986" d="M1441.5,-236C1441.5,-236 1396.5,-236 1396.5,-236 1390.5,-236 1384.5,-230 1384.5,-224 1384.5,-224 1384.5,-210 1384.5,-210 1384.5,-204 1390.5,-198 1396.5,-198 1396.5,-198 1441.5,-198 1441.5,-198 1447.5,-198 1453.5,-204 1453.5,-210 1453.5,-210 1453.5,-224 1453.5,-224 1453.5,-230 1447.5,-236 1441.5,-236"/>
<text text-anchor="middle" x="1419" y="-220.8" font-family="Times,serif" font-size="14.00">case&#45;prov</text>
<text text-anchor="middle" x="1419" y="-205.8" font-family="Times,serif" font-size="14.00">releases</text>
</a>
</g>
</g>
<!-- _GH__CASEWORK__CASE_IMPLEMENTATON_PROV_O&#45;&gt;_GH__CASEWORK__CASE_CORPORA -->
<g id="edge6" class="edge">
<title>_GH__CASEWORK__CASE_IMPLEMENTATON_PROV_O&#45;&gt;_GH__CASEWORK__CASE_CORPORA</title>
<path fill="none" stroke="black" d="M1453.9,-217C1501,-217 1587.6,-217 1650.99,-217"/>
<polygon fill="black" stroke="black" points="1650.63,-220.5 1660.63,-217 1650.63,-213.5 1650.63,-220.5"/>
<text text-anchor="middle" x="1567.5" y="-220.8" font-family="Times,serif" font-size="14.00">PyPI</text>
</g>
<!-- _GH__CASEWORK__CASE_IMPLEMENTATON_UFED_XML -->
<g id="node7" class="node">
<title>_GH__CASEWORK__CASE_IMPLEMENTATON_UFED_XML</title>
<g id="a_node7"><a xlink:href="https://github.com/casework/CASE-Implementation-UFED-XML" xlink:title="CASE&#45;Implementation&#45;UFED&#45;XML\nadopts new case&#45;validation&#45;action">
<path fill="#8ec7d2" stroke="#0d6986" d="M1516,-321C1516,-321 1322,-321 1322,-321 1316,-321 1310,-315 1310,-309 1310,-309 1310,-295 1310,-295 1310,-289 1316,-283 1322,-283 1322,-283 1516,-283 1516,-283 1522,-283 1528,-289 1528,-295 1528,-295 1528,-309 1528,-309 1528,-315 1522,-321 1516,-321"/>
<text text-anchor="middle" x="1419" y="-305.8" font-family="Times,serif" font-size="14.00">CASE&#45;Implementation&#45;UFED&#45;XML</text>
<text text-anchor="middle" x="1419" y="-290.8" font-family="Times,serif" font-size="14.00">adopts new case&#45;validation&#45;action</text>
</a>
</g>
</g>
<!-- _GH__CASEWORK__CASE_IMPLEMENTATON_PYPI_EXIFREAD -->
<g id="node8" class="node">
<title>_GH__CASEWORK__CASE_IMPLEMENTATON_PYPI_EXIFREAD</title>
<g id="a_node8"><a xlink:href="https://github.com/casework/CASE-Implementation-PyPI-Exifread" xlink:title="CASE&#45;Implementation&#45;PyPI&#45;Exifread\nadopts new case&#45;validation&#45;action">
<path fill="#8ec7d2" stroke="#0d6986" d="M1519,-462C1519,-462 1319,-462 1319,-462 1313,-462 1307,-456 1307,-450 1307,-450 1307,-436 1307,-436 1307,-430 1313,-424 1319,-424 1319,-424 1519,-424 1519,-424 1525,-424 1531,-430 1531,-436 1531,-436 1531,-450 1531,-450 1531,-456 1525,-462 1519,-462"/>
<text text-anchor="middle" x="1419" y="-446.8" font-family="Times,serif" font-size="14.00">CASE&#45;Implementation&#45;PyPI&#45;Exifread</text>
<text text-anchor="middle" x="1419" y="-431.8" font-family="Times,serif" font-size="14.00">adopts new case&#45;validation&#45;action</text>
</a>
</g>
</g>
<!-- _GH__CASEWORK__CASE_IMPLEMENTATON_PYPI_PILLOW -->
<g id="node9" class="node">
<title>_GH__CASEWORK__CASE_IMPLEMENTATON_PYPI_PILLOW</title>
<g id="a_node9"><a xlink:href="https://github.com/casework/CASE-Implementation-PyPI-Pillow" xlink:title="CASE&#45;Implementation&#45;PyPI&#45;Pillow\nadopts new case&#45;validation&#45;action">
<path fill="#8ec7d2" stroke="#0d6986" d="M1513.5,-406C1513.5,-406 1324.5,-406 1324.5,-406 1318.5,-406 1312.5,-400 1312.5,-394 1312.5,-394 1312.5,-380 1312.5,-380 1312.5,-374 1318.5,-368 1324.5,-368 1324.5,-368 1513.5,-368 1513.5,-368 1519.5,-368 1525.5,-374 1525.5,-380 1525.5,-380 1525.5,-394 1525.5,-394 1525.5,-400 1519.5,-406 1513.5,-406"/>
<text text-anchor="middle" x="1419" y="-390.8" font-family="Times,serif" font-size="14.00">CASE&#45;Implementation&#45;PyPI&#45;Pillow</text>
<text text-anchor="middle" x="1419" y="-375.8" font-family="Times,serif" font-size="14.00">adopts new case&#45;validation&#45;action</text>
</a>
</g>
</g>
<!-- _GH__CASEWORK__CASE_IMPLEMENTATON_XRY -->
<g id="node10" class="node">
<title>_GH__CASEWORK__CASE_IMPLEMENTATON_XRY</title>
<g id="a_node10"><a xlink:href="https://github.com/casework/CASE-Implementation-XRY" xlink:title="CASE&#45;Implementation&#45;XRY adopts\nnew case&#45;validation&#45;action">
<path fill="#8ec7d2" stroke="#0d6986" d="M1514,-574C1514,-574 1324,-574 1324,-574 1318,-574 1312,-568 1312,-562 1312,-562 1312,-548 1312,-548 1312,-542 1318,-536 1324,-536 1324,-536 1514,-536 1514,-536 1520,-536 1526,-542 1526,-548 1526,-548 1526,-562 1526,-562 1526,-568 1520,-574 1514,-574"/>
<text text-anchor="middle" x="1419" y="-558.8" font-family="Times,serif" font-size="14.00">CASE&#45;Implementation&#45;XRY adopts</text>
<text text-anchor="middle" x="1419" y="-543.8" font-family="Times,serif" font-size="14.00">new case&#45;validation&#45;action</text>
</a>
</g>
</g>
<!-- _GH__CASEWORK__CASE_MAPPING_TEMPLATE_PYTHON -->
<g id="node11" class="node">
<title>_GH__CASEWORK__CASE_MAPPING_TEMPLATE_PYTHON</title>
<g id="a_node11"><a xlink:href="https://github.com/casework/CASE-Mapping-Template-Python" xlink:title="CASE&#45;Mapping&#45;Template&#45;Python\nadopts new case&#45;validation&#45;action">
<path fill="#8ec7d2" stroke="#0d6986" d="M1509,-518C1509,-518 1329,-518 1329,-518 1323,-518 1317,-512 1317,-506 1317,-506 1317,-492 1317,-492 1317,-486 1323,-480 1329,-480 1329,-480 1509,-480 1509,-480 1515,-480 1521,-486 1521,-492 1521,-492 1521,-506 1521,-506 1521,-512 1515,-518 1509,-518"/>
<text text-anchor="middle" x="1419" y="-502.8" font-family="Times,serif" font-size="14.00">CASE&#45;Mapping&#45;Template&#45;Python</text>
<text text-anchor="middle" x="1419" y="-487.8" font-family="Times,serif" font-size="14.00">adopts new case&#45;validation&#45;action</text>
</a>
</g>
</g>
<!-- _GH__CASEWORK__CASE_BINDINGS_CSHARP_MONITOR -->
<g id="node12" class="node">
<title>_GH__CASEWORK__CASE_BINDINGS_CSHARP_MONITOR</title>
<g id="a_node12"><a xlink:href="https://github.com/casework/CASE-Bindings-CSharp-Monitor" xlink:title="CASE Bindings CSharp Monitor\ntests NuGet package with validation action">
<path fill="#8ec7d2" stroke="#0d6986" d="M1843,-630C1843,-630 1616,-630 1616,-630 1610,-630 1604,-624 1604,-618 1604,-618 1604,-604 1604,-604 1604,-598 1610,-592 1616,-592 1616,-592 1843,-592 1843,-592 1849,-592 1855,-598 1855,-604 1855,-604 1855,-618 1855,-618 1855,-624 1849,-630 1843,-630"/>
<text text-anchor="middle" x="1729.5" y="-614.8" font-family="Times,serif" font-size="14.00">CASE Bindings CSharp Monitor</text>
<text text-anchor="middle" x="1729.5" y="-599.8" font-family="Times,serif" font-size="14.00">tests NuGet package with validation action</text>
</a>
</g>
</g>
<!-- _GH__CIPHERTECHSOLUTIONS__CASE_BINDINGS_CSHARP -->
<g id="node13" class="node">
<title>_GH__CIPHERTECHSOLUTIONS__CASE_BINDINGS_CSHARP</title>
<g id="a_node13"><a xlink:href="https://github.com/ciphertechsolutions/CASE-Bindings-CSharp" xlink:title="CASE&#45;Bindings&#45;CSharp\nadopts new ontology version">
<path fill="#8ec7d2" stroke="#0d6986" d="M1493.5,-630C1493.5,-630 1344.5,-630 1344.5,-630 1338.5,-630 1332.5,-624 1332.5,-618 1332.5,-618 1332.5,-604 1332.5,-604 1332.5,-598 1338.5,-592 1344.5,-592 1344.5,-592 1493.5,-592 1493.5,-592 1499.5,-592 1505.5,-598 1505.5,-604 1505.5,-604 1505.5,-618 1505.5,-618 1505.5,-624 1499.5,-630 1493.5,-630"/>
<text text-anchor="middle" x="1419" y="-614.8" font-family="Times,serif" font-size="14.00">CASE&#45;Bindings&#45;CSharp</text>
<text text-anchor="middle" x="1419" y="-599.8" font-family="Times,serif" font-size="14.00">adopts new ontology version</text>
</a>
</g>
</g>
<!-- _GH__CIPHERTECHSOLUTIONS__CASE_BINDINGS_CSHARP&#45;&gt;_GH__CASEWORK__CASE_BINDINGS_CSHARP_MONITOR -->
<g id="edge15" class="edge">
<title>_GH__CIPHERTECHSOLUTIONS__CASE_BINDINGS_CSHARP&#45;&gt;_GH__CASEWORK__CASE_BINDINGS_CSHARP_MONITOR</title>
<path fill="none" stroke="black" d="M1505.93,-611C1532.73,-611 1562.97,-611 1592.33,-611"/>
<polygon fill="black" stroke="black" points="1592.02,-614.5 1602.02,-611 1592.02,-607.5 1592.02,-614.5"/>
<text text-anchor="middle" x="1567.5" y="-614.8" font-family="Times,serif" font-size="14.00">NuGet</text>
</g>
<!-- _GH__UCOPROJECT__UCO -->
<g id="node14" class="node">
<title>_GH__UCOPROJECT__UCO</title>
<g id="a_node14"><a xlink:href="https://github.com/ucoProject/UCO" xlink:title="UCO Ontology\nreleases">
<path fill="#8ec7d2" stroke="#0d6986" d="M104,-439C104,-439 28,-439 28,-439 22,-439 16,-433 16,-427 16,-427 16,-413 16,-413 16,-407 22,-401 28,-401 28,-401 104,-401 104,-401 110,-401 116,-407 116,-413 116,-413 116,-427 116,-427 116,-433 110,-439 104,-439"/>
<text text-anchor="middle" x="66" y="-423.8" font-family="Times,serif" font-size="14.00">UCO Ontology</text>
<text text-anchor="middle" x="66" y="-408.8" font-family="Times,serif" font-size="14.00">releases</text>
</a>
</g>
</g>
<!-- _GH__UCOPROJECT__UCO&#45;&gt;_GH__UCOPROJECT__ONTOLOGY_UNIFIEDCYBERONTOLOGY_ORG -->
<g id="edge24" class="edge">
<title>_GH__UCOPROJECT__UCO&#45;&gt;_GH__UCOPROJECT__ONTOLOGY_UNIFIEDCYBERONTOLOGY_ORG</title>
<path fill="none" stroke="black" d="M83.93,-439.12C106.73,-464.46 149.09,-510.03 189,-545 203.31,-557.54 219.98,-570.31 234.6,-580.97"/>
<polygon fill="black" stroke="black" points="232.48,-583.76 242.64,-586.77 236.58,-578.08 232.48,-583.76"/>
<text text-anchor="middle" x="156.5" y="-553.8" font-family="Times,serif" font-size="14.00">Git sub&#45;</text>
<text text-anchor="middle" x="156.5" y="-538.8" font-family="Times,serif" font-size="14.00">module</text>
</g>
<!-- _GH__CASEWORK__CASE -->
<g id="node15" class="node">
<title>_GH__CASEWORK__CASE</title>
<g id="a_node15"><a xlink:href="https://github.com/casework/CASE" xlink:title="CASE Ontology\nreleases">
<path fill="#8ec7d2" stroke="#0d6986" d="M314,-396C314,-396 232,-396 232,-396 226,-396 220,-390 220,-384 220,-384 220,-370 220,-370 220,-364 226,-358 232,-358 232,-358 314,-358 314,-358 320,-358 326,-364 326,-370 326,-370 326,-384 326,-384 326,-390 320,-396 314,-396"/>
<text text-anchor="middle" x="273" y="-380.8" font-family="Times,serif" font-size="14.00">CASE Ontology</text>
<text text-anchor="middle" x="273" y="-365.8" font-family="Times,serif" font-size="14.00">releases</text>
</a>
</g>
</g>
<!-- _GH__UCOPROJECT__UCO&#45;&gt;_GH__CASEWORK__CASE -->
<g id="edge23" class="edge">
<title>_GH__UCOPROJECT__UCO&#45;&gt;_GH__CASEWORK__CASE</title>
<path fill="none" stroke="black" d="M116.36,-409.65C144.1,-403.83 179.01,-396.51 208.73,-390.27"/>
<polygon fill="black" stroke="black" points="209.29,-393.73 218.36,-388.25 207.86,-386.88 209.29,-393.73"/>
<text text-anchor="middle" x="156.5" y="-422.8" font-family="Times,serif" font-size="14.00">Git sub&#45;</text>
<text text-anchor="middle" x="156.5" y="-407.8" font-family="Times,serif" font-size="14.00">module</text>
</g>
<!-- _GH__CASEWORK__CASE&#45;&gt;_GH__CIPHERTECHSOLUTIONS__CASE_BINDINGS_CSHARP -->
<g id="edge3" class="edge">
<title>_GH__CASEWORK__CASE&#45;&gt;_GH__CIPHERTECHSOLUTIONS__CASE_BINDINGS_CSHARP</title>
<path fill="none" stroke="black" d="M282.42,-396.34C317.56,-476.44 452.79,-778 497,-778 497,-778 497,-778 1104.5,-778 1154.41,-778 1167.96,-771.42 1213.5,-751 1280.38,-721.01 1348.8,-668.94 1387.1,-637.46"/>
<polygon fill="black" stroke="black" points="1389.09,-640.35 1394.55,-631.27 1384.62,-634.97 1389.09,-640.35"/>
</g>
<!-- _GH__CASEWORK__ONTOLOGY_CASEONTOLOGY_ORG -->
<g id="node16" class="node">
<title>_GH__CASEWORK__ONTOLOGY_CASEONTOLOGY_ORG</title>
<g id="a_node16"><a xlink:href="https://github.com/casework/ontology.caseontology.org" xlink:title="CASE documentation\nregenerated">
<path fill="#8ec7d2" stroke="#0d6986" d="M554,-231C554,-231 442,-231 442,-231 436,-231 430,-225 430,-219 430,-219 430,-205 430,-205 430,-199 436,-193 442,-193 442,-193 554,-193 554,-193 560,-193 566,-199 566,-205 566,-205 566,-219 566,-219 566,-225 560,-231 554,-231"/>
<text text-anchor="middle" x="498" y="-215.8" font-family="Times,serif" font-size="14.00">CASE documentation</text>
<text text-anchor="middle" x="498" y="-200.8" font-family="Times,serif" font-size="14.00">regenerated</text>
</a>
</g>
</g>
<!-- _GH__CASEWORK__CASE&#45;&gt;_GH__CASEWORK__ONTOLOGY_CASEONTOLOGY_ORG -->
<g id="edge4" class="edge">
<title>_GH__CASEWORK__CASE&#45;&gt;_GH__CASEWORK__ONTOLOGY_CASEONTOLOGY_ORG</title>
<path fill="none" stroke="black" d="M289.74,-357.99C314.55,-329.15 365.71,-274.09 427.38,-236.92"/>
<polygon fill="black" stroke="black" points="428.77,-240.16 435.65,-232.11 425.25,-234.11 428.77,-240.16"/>
<text text-anchor="middle" x="389.5" y="-296.8" font-family="Times,serif" font-size="14.00">Git sub&#45;</text>
<text text-anchor="middle" x="389.5" y="-281.8" font-family="Times,serif" font-size="14.00">module</text>
</g>
<!-- _GH__CASEWORK__CASE_UTILITIES_PYTHON -->
<g id="node19" class="node">
<title>_GH__CASEWORK__CASE_UTILITIES_PYTHON</title>
<g id="a_node19"><a xlink:href="https://github.com/casework/CASE-Utilities-Python" xlink:title="case&#45;utils\nreleases">
<path fill="#8ec7d2" stroke="#0d6986" d="M520,-297C520,-297 476,-297 476,-297 470,-297 464,-291 464,-285 464,-285 464,-271 464,-271 464,-265 470,-259 476,-259 476,-259 520,-259 520,-259 526,-259 532,-265 532,-271 532,-271 532,-285 532,-285 532,-291 526,-297 520,-297"/>
<text text-anchor="middle" x="498" y="-281.8" font-family="Times,serif" font-size="14.00">case&#45;utils</text>
<text text-anchor="middle" x="498" y="-266.8" font-family="Times,serif" font-size="14.00">releases</text>
</a>
</g>
</g>
<!-- _GH__CASEWORK__CASE&#45;&gt;_GH__CASEWORK__CASE_UTILITIES_PYTHON -->
<g id="edge2" class="edge">
<title>_GH__CASEWORK__CASE&#45;&gt;_GH__CASEWORK__CASE_UTILITIES_PYTHON</title>
<path fill="none" stroke="black" d="M326.28,-357.56C352.3,-347.53 384.08,-334.75 412,-322 425.85,-315.67 440.68,-308.24 454.01,-301.3"/>
<polygon fill="black" stroke="black" points="455.3,-304.57 462.53,-296.82 452.05,-298.37 455.3,-304.57"/>
<text text-anchor="middle" x="389.5" y="-357.8" font-family="Times,serif" font-size="14.00">Git sub&#45;</text>
<text text-anchor="middle" x="389.5" y="-342.8" font-family="Times,serif" font-size="14.00">module</text>
</g>
<!-- _GH__AJNELSON_NIST__CASE_EXAMPLES_QC -->
<g id="node17" class="node">
<title>_GH__AJNELSON_NIST__CASE_EXAMPLES_QC</title>
<g id="a_node17"><a xlink:href="https://github.com/ajnelson-nist/CASE-Examples-QC" xlink:title="CASE&#45;Examples&#45;QC\nadopts CASE&#45;Examples and\nCASE website updates">
<path fill="#8ec7d2" stroke="#0d6986" d="M1177.5,-478.5C1177.5,-478.5 1029.5,-478.5 1029.5,-478.5 1023.5,-478.5 1017.5,-472.5 1017.5,-466.5 1017.5,-466.5 1017.5,-437.5 1017.5,-437.5 1017.5,-431.5 1023.5,-425.5 1029.5,-425.5 1029.5,-425.5 1177.5,-425.5 1177.5,-425.5 1183.5,-425.5 1189.5,-431.5 1189.5,-437.5 1189.5,-437.5 1189.5,-466.5 1189.5,-466.5 1189.5,-472.5 1183.5,-478.5 1177.5,-478.5"/>
<text text-anchor="middle" x="1103.5" y="-463.3" font-family="Times,serif" font-size="14.00">CASE&#45;Examples&#45;QC</text>
<text text-anchor="middle" x="1103.5" y="-448.3" font-family="Times,serif" font-size="14.00">adopts CASE&#45;Examples and</text>
<text text-anchor="middle" x="1103.5" y="-433.3" font-family="Times,serif" font-size="14.00">CASE website updates</text>
</a>
</g>
</g>
<!-- _GH__AJNELSON_NIST__CASE_EXAMPLES_QC&#45;&gt;_GH__CASEWORK__CASE_IMPLEMENTATON_PROV_O -->
<g id="edge1" class="edge">
<title>_GH__AJNELSON_NIST__CASE_EXAMPLES_QC&#45;&gt;_GH__CASEWORK__CASE_IMPLEMENTATON_PROV_O</title>
<path fill="none" stroke="black" d="M1189.76,-427.85C1198.39,-423.17 1206.53,-417.6 1213.5,-411 1262.84,-364.26 1225.69,-317.77 1275,-271 1302.01,-245.38 1342.35,-231.63 1373.31,-224.42"/>
<polygon fill="black" stroke="black" points="1373.74,-227.91 1382.77,-222.38 1372.26,-221.07 1373.74,-227.91"/>
<text text-anchor="middle" x="1244.5" y="-417.8" font-family="Times,serif" font-size="14.00">Git sub&#45;</text>
<text text-anchor="middle" x="1244.5" y="-402.8" font-family="Times,serif" font-size="14.00">module</text>
</g>
<!-- _GH__CASEWORK__CASE_EXAMPLES -->
<g id="node18" class="node">
<title>_GH__CASEWORK__CASE_EXAMPLES</title>
<g id="a_node18"><a xlink:href="https://github.com/casework/CASE-Examples" xlink:title="CASE&#45;Examples\nadopts new case&#45;utils">
<path fill="#8ec7d2" stroke="#0d6986" d="M812.5,-336C812.5,-336 703.5,-336 703.5,-336 697.5,-336 691.5,-330 691.5,-324 691.5,-324 691.5,-310 691.5,-310 691.5,-304 697.5,-298 703.5,-298 703.5,-298 812.5,-298 812.5,-298 818.5,-298 824.5,-304 824.5,-310 824.5,-310 824.5,-324 824.5,-324 824.5,-330 818.5,-336 812.5,-336"/>
<text text-anchor="middle" x="758" y="-320.8" font-family="Times,serif" font-size="14.00">CASE&#45;Examples</text>
<text text-anchor="middle" x="758" y="-305.8" font-family="Times,serif" font-size="14.00">adopts new case&#45;utils</text>
</a>
</g>
</g>
<!-- _GH__CASEWORK__CASE_EXAMPLES&#45;&gt;_GH__AJNELSON_NIST__CASE_EXAMPLES_QC -->
<g id="edge5" class="edge">
<title>_GH__CASEWORK__CASE_EXAMPLES&#45;&gt;_GH__AJNELSON_NIST__CASE_EXAMPLES_QC</title>
<path fill="none" stroke="black" d="M824.81,-327.88C840.78,-331.97 857.44,-337.52 872,-345 889.67,-354.08 888.3,-364.99 906,-374 938.18,-390.39 953.5,-375.35 985,-393 994.87,-398.53 993.59,-404.72 1003,-411 1007.69,-414.13 1012.65,-417.09 1017.77,-419.87"/>
<polygon fill="black" stroke="black" points="1015.9,-422.85 1026.4,-424.33 1019.11,-416.63 1015.9,-422.85"/>
<text text-anchor="middle" x="945.5" y="-411.8" font-family="Times,serif" font-size="14.00">Git sub&#45;</text>
<text text-anchor="middle" x="945.5" y="-396.8" font-family="Times,serif" font-size="14.00">module</text>
</g>
<!-- _GH__CASEWORK__CASE_UTILITIES_PYTHON&#45;&gt;_GH__CASEWORK__CASE_IMPLEMENTATON_EXIFTOOL -->
<g id="edge9" class="edge">
<title>_GH__CASEWORK__CASE_UTILITIES_PYTHON&#45;&gt;_GH__CASEWORK__CASE_IMPLEMENTATON_EXIFTOOL</title>
<path fill="none" stroke="black" d="M532.47,-271.15C543.91,-267.66 556.26,-262.51 566,-255 577.42,-246.19 573.76,-238.16 584,-228 607.01,-205.16 614.48,-198.92 645,-188 871.26,-107.03 1156.7,-98.54 1309.56,-100.88"/>
<polygon fill="black" stroke="black" points="1309.21,-104.37 1319.27,-101.04 1309.33,-97.37 1309.21,-104.37"/>
<text text-anchor="middle" x="945.5" y="-128.8" font-family="Times,serif" font-size="14.00">PyPI</text>
</g>
<!-- _GH__CASEWORK__CASE_UTILITIES_PYTHON&#45;&gt;_GH__CASEWORK__CASE_IMPLEMENTATON_GNU_TIME -->
<g id="edge10" class="edge">
<title>_GH__CASEWORK__CASE_UTILITIES_PYTHON&#45;&gt;_GH__CASEWORK__CASE_IMPLEMENTATON_GNU_TIME</title>
<path fill="none" stroke="black" d="M532.4,-268.41C543.35,-264.78 555.42,-260.23 566,-255 574.62,-250.74 575.29,-247.07 584,-243 609.6,-231.02 617.21,-230.19 645,-225 875.67,-181.89 1150.49,-167.81 1302.46,-163.22"/>
<polygon fill="black" stroke="black" points="1302.23,-166.73 1312.13,-162.94 1302.03,-159.73 1302.23,-166.73"/>
<text text-anchor="middle" x="945.5" y="-190.8" font-family="Times,serif" font-size="14.00">PyPI</text>
</g>
<!-- _GH__CASEWORK__CASE_UTILITIES_PYTHON&#45;&gt;_GH__CASEWORK__CASE_IMPLEMENTATON_PROV_O -->
<g id="edge11" class="edge">
<title>_GH__CASEWORK__CASE_UTILITIES_PYTHON&#45;&gt;_GH__CASEWORK__CASE_IMPLEMENTATON_PROV_O</title>
<path fill="none" stroke="black" d="M532.17,-266.45C547.74,-261.39 566.66,-255.76 584,-252 610.72,-246.2 617.76,-246.43 645,-244 920.71,-219.42 1253.6,-216.92 1372.82,-216.88"/>
<polygon fill="black" stroke="black" points="1372.5,-220.38 1382.5,-216.88 1372.5,-213.38 1372.5,-220.38"/>
<text text-anchor="middle" x="945.5" y="-230.8" font-family="Times,serif" font-size="14.00">PyPI</text>
</g>
<!-- _GH__CASEWORK__CASE_UTILITIES_PYTHON&#45;&gt;_GH__AJNELSON_NIST__CASE_EXAMPLES_QC -->
<g id="edge7" class="edge">
<title>_GH__CASEWORK__CASE_UTILITIES_PYTHON&#45;&gt;_GH__AJNELSON_NIST__CASE_EXAMPLES_QC</title>
<path fill="none" stroke="black" d="M532.34,-269.76C599.35,-254.87 754.01,-228.98 872,-274 944.93,-301.83 940.36,-344.41 1003,-391 1016.21,-400.82 1031.06,-410.56 1045.17,-419.27"/>
<polygon fill="black" stroke="black" points="1043.14,-422.13 1053.51,-424.34 1046.78,-416.15 1043.14,-422.13"/>
<text text-anchor="middle" x="758" y="-277.8" font-family="Times,serif" font-size="14.00">PyPI</text>
</g>
<!-- _GH__CASEWORK__CASE_UTILITIES_PYTHON&#45;&gt;_GH__CASEWORK__CASE_EXAMPLES -->
<g id="edge8" class="edge">
<title>_GH__CASEWORK__CASE_UTILITIES_PYTHON&#45;&gt;_GH__CASEWORK__CASE_EXAMPLES</title>
<path fill="none" stroke="black" d="M532.46,-283.06C569.59,-288.67 630.73,-297.91 679.85,-305.34"/>
<polygon fill="black" stroke="black" points="679.18,-308.78 689.59,-306.81 680.23,-301.85 679.18,-308.78"/>
<text text-anchor="middle" x="597.5" y="-297.8" font-family="Times,serif" font-size="14.00">PyPI</text>
</g>
<!-- _GH__CASEWORK__CASEWORK_GITHUB_IO -->
<g id="node20" class="node">
<title>_GH__CASEWORK__CASEWORK_GITHUB_IO</title>
<g id="a_node20"><a xlink:href="https://github.com/casework/casework.github.io" xlink:title="CASE website\nadopts new case&#45;utils">
<path fill="#8ec7d2" stroke="#0d6986" d="M812.5,-392C812.5,-392 703.5,-392 703.5,-392 697.5,-392 691.5,-386 691.5,-380 691.5,-380 691.5,-366 691.5,-366 691.5,-360 697.5,-354 703.5,-354 703.5,-354 812.5,-354 812.5,-354 818.5,-354 824.5,-360 824.5,-366 824.5,-366 824.5,-380 824.5,-380 824.5,-386 818.5,-392 812.5,-392"/>
<text text-anchor="middle" x="758" y="-376.8" font-family="Times,serif" font-size="14.00">CASE website</text>
<text text-anchor="middle" x="758" y="-361.8" font-family="Times,serif" font-size="14.00">adopts new case&#45;utils</text>
</a>
</g>
</g>
<!-- _GH__CASEWORK__CASE_UTILITIES_PYTHON&#45;&gt;_GH__CASEWORK__CASEWORK_GITHUB_IO -->
<g id="edge13" class="edge">
<title>_GH__CASEWORK__CASE_UTILITIES_PYTHON&#45;&gt;_GH__CASEWORK__CASEWORK_GITHUB_IO</title>
<path fill="none" stroke="black" d="M532.48,-295.53C561.61,-310.25 605.27,-331.05 645,-345 656.29,-348.96 668.41,-352.6 680.36,-355.85"/>
<polygon fill="black" stroke="black" points="679.23,-359.17 689.79,-358.34 681.01,-352.4 679.23,-359.17"/>
<text text-anchor="middle" x="597.5" y="-333.8" font-family="Times,serif" font-size="14.00">PyPI</text>
</g>
<!-- _GH__KCHASON__CASE_VALIDATION_ACTION -->
<g id="node21" class="node">
<title>_GH__KCHASON__CASE_VALIDATION_ACTION</title>
<g id="a_node21"><a xlink:href="https://github.com/kchason/case-validation-action" xlink:title="case&#45;validation&#45;action\nreleases">
<path fill="#8ec7d2" stroke="#0d6986" d="M814,-448C814,-448 702,-448 702,-448 696,-448 690,-442 690,-436 690,-436 690,-422 690,-422 690,-416 696,-410 702,-410 702,-410 814,-410 814,-410 820,-410 826,-416 826,-422 826,-422 826,-436 826,-436 826,-442 820,-448 814,-448"/>
<text text-anchor="middle" x="758" y="-432.8" font-family="Times,serif" font-size="14.00">case&#45;validation&#45;action</text>
<text text-anchor="middle" x="758" y="-417.8" font-family="Times,serif" font-size="14.00">releases</text>
</a>
</g>
</g>
<!-- _GH__CASEWORK__CASE_UTILITIES_PYTHON&#45;&gt;_GH__KCHASON__CASE_VALIDATION_ACTION -->
<g id="edge12" class="edge">
<title>_GH__CASEWORK__CASE_UTILITIES_PYTHON&#45;&gt;_GH__KCHASON__CASE_VALIDATION_ACTION</title>
<path fill="none" stroke="black" d="M514.77,-297.06C539.44,-325.52 590.06,-378.7 645,-406 655.44,-411.19 666.98,-415.21 678.58,-418.32"/>
<polygon fill="black" stroke="black" points="677.66,-421.7 688.2,-420.67 679.32,-414.9 677.66,-421.7"/>
<text text-anchor="middle" x="597.5" y="-387.8" font-family="Times,serif" font-size="14.00">PyPI</text>
</g>
<!-- _GH__CASEWORK__CASEWORK_GITHUB_IO&#45;&gt;_GH__AJNELSON_NIST__CASE_EXAMPLES_QC -->
<g id="edge14" class="edge">
<title>_GH__CASEWORK__CASEWORK_GITHUB_IO&#45;&gt;_GH__AJNELSON_NIST__CASE_EXAMPLES_QC</title>
<path fill="none" stroke="black" d="M824.8,-381.91C840.77,-385.58 857.43,-390.75 872,-398 889.78,-406.85 887.84,-418.97 906,-427 936.95,-440.69 973.14,-447.54 1005.96,-450.8"/>
<polygon fill="black" stroke="black" points="1005.64,-454.29 1015.91,-451.68 1006.26,-447.31 1005.64,-454.29"/>
<text text-anchor="middle" x="945.5" y="-466.8" font-family="Times,serif" font-size="14.00">Git sub&#45;</text>
<text text-anchor="middle" x="945.5" y="-451.8" font-family="Times,serif" font-size="14.00">module</text>
</g>
<!-- _GH__KCHASON__CASE_VALIDATION_ACTION&#45;&gt;_GH__CASEWORK__CASE_IMPLEMENTATON_UFED_XML -->
<g id="edge19" class="edge">
<title>_GH__KCHASON__CASE_VALIDATION_ACTION&#45;&gt;_GH__CASEWORK__CASE_IMPLEMENTATON_UFED_XML</title>
<g id="a_edge19"><a xlink:href="https://github.com/casework/CASE-Implementation-UFED-XML/pull/5" xlink:title="GitHub\nAction\nTODO: PR 5">
<path fill="none" stroke="black" d="M826.25,-426.69C842.73,-423.25 859.27,-416.99 872,-406 905.63,-376.96 878.51,-346.9 906,-312 937.96,-271.43 953.53,-262.85 1003,-248 1092.61,-221.1 1121.44,-231.35 1213.5,-248 1242.22,-253.19 1247,-262.78 1275,-271 1285.6,-274.11 1296.73,-277.06 1307.9,-279.82"/>
<polygon fill="black" stroke="black" points="1307.05,-283.21 1317.59,-282.15 1308.69,-276.41 1307.05,-283.21"/>
</a>
</g>
<g id="a_edge19&#45;label"><a xlink:href="https://github.com/casework/CASE-Implementation-UFED-XML/pull/5" xlink:title="GitHub\nAction\nTODO: PR 5">
<text text-anchor="middle" x="1103.5" y="-281.8" font-family="Times,serif" font-size="14.00">GitHub</text>
<text text-anchor="middle" x="1103.5" y="-266.8" font-family="Times,serif" font-size="14.00">Action</text>
<text text-anchor="middle" x="1103.5" y="-251.8" font-family="Times,serif" font-size="14.00">TODO: PR 5</text>
</a>
</g>
</g>
<!-- _GH__KCHASON__CASE_VALIDATION_ACTION&#45;&gt;_GH__CASEWORK__CASE_IMPLEMENTATON_PYPI_EXIFREAD -->
<g id="edge17" class="edge">
<title>_GH__KCHASON__CASE_VALIDATION_ACTION&#45;&gt;_GH__CASEWORK__CASE_IMPLEMENTATON_PYPI_EXIFREAD</title>
<path fill="none" stroke="black" d="M826.24,-422.3C841.92,-418.88 858.09,-413.73 872,-406 891.24,-395.31 886.41,-380.04 906,-370 969.87,-337.27 1197.41,-350.61 1213.5,-357 1248.42,-370.87 1241.58,-397.83 1275,-415 1281.65,-418.42 1288.67,-421.42 1295.89,-424.06"/>
<polygon fill="black" stroke="black" points="1294.56,-427.3 1305.15,-427.18 1296.8,-420.67 1294.56,-427.3"/>
<text text-anchor="middle" x="1103.5" y="-375.8" font-family="Times,serif" font-size="14.00">GitHub</text>
<text text-anchor="middle" x="1103.5" y="-360.8" font-family="Times,serif" font-size="14.00">Action</text>
</g>
<!-- _GH__KCHASON__CASE_VALIDATION_ACTION&#45;&gt;_GH__CASEWORK__CASE_IMPLEMENTATON_PYPI_PILLOW -->
<g id="edge18" class="edge">
<title>_GH__KCHASON__CASE_VALIDATION_ACTION&#45;&gt;_GH__CASEWORK__CASE_IMPLEMENTATON_PYPI_PILLOW</title>
<path fill="none" stroke="black" d="M826.43,-424.74C842.45,-421.27 858.73,-415.49 872,-406 896.31,-388.62 882.93,-366.99 906,-348 941.27,-318.96 957.96,-321.66 1003,-314 1095.23,-298.3 1124.11,-286.39 1213.5,-314 1245.12,-323.77 1244.6,-342.92 1275,-356 1283.47,-359.64 1292.41,-362.88 1301.52,-365.75"/>
<polygon fill="black" stroke="black" points="1300.25,-369.02 1310.83,-368.51 1302.24,-362.31 1300.25,-369.02"/>
<text text-anchor="middle" x="1103.5" y="-332.8" font-family="Times,serif" font-size="14.00">GitHub</text>
<text text-anchor="middle" x="1103.5" y="-317.8" font-family="Times,serif" font-size="14.00">Action</text>
</g>
<!-- _GH__KCHASON__CASE_VALIDATION_ACTION&#45;&gt;_GH__CASEWORK__CASE_IMPLEMENTATON_XRY -->
<g id="edge20" class="edge">
<title>_GH__KCHASON__CASE_VALIDATION_ACTION&#45;&gt;_GH__CASEWORK__CASE_IMPLEMENTATON_XRY</title>
<path fill="none" stroke="black" d="M768.49,-448.14C795.91,-500.75 881.11,-646.37 1003,-688 1091.54,-718.24 1132.62,-735.02 1213.5,-688 1219.47,-684.53 1269.35,-583.97 1275,-580 1283.01,-574.36 1291.89,-569.86 1301.18,-566.28"/>
<polygon fill="black" stroke="black" points="1302.08,-569.67 1310.4,-563.11 1299.8,-563.05 1302.08,-569.67"/>
<text text-anchor="middle" x="1103.5" y="-735.8" font-family="Times,serif" font-size="14.00">GitHub</text>
<text text-anchor="middle" x="1103.5" y="-720.8" font-family="Times,serif" font-size="14.00">Action</text>
</g>
<!-- _GH__KCHASON__CASE_VALIDATION_ACTION&#45;&gt;_GH__CASEWORK__CASE_MAPPING_TEMPLATE_PYTHON -->
<g id="edge21" class="edge">
<title>_GH__KCHASON__CASE_VALIDATION_ACTION&#45;&gt;_GH__CASEWORK__CASE_MAPPING_TEMPLATE_PYTHON</title>
<path fill="none" stroke="black" d="M773.34,-448.34C807.26,-492.05 897.53,-597.02 1003,-627 1092.99,-652.58 1131.84,-672.65 1213.5,-627 1259.04,-601.54 1232.13,-556.74 1275,-527 1284.45,-520.44 1295.06,-515.33 1306.11,-511.36"/>
<polygon fill="black" stroke="black" points="1306.94,-514.77 1315.38,-508.36 1304.79,-508.11 1306.94,-514.77"/>
<text text-anchor="middle" x="1103.5" y="-672.8" font-family="Times,serif" font-size="14.00">GitHub</text>
<text text-anchor="middle" x="1103.5" y="-657.8" font-family="Times,serif" font-size="14.00">Action</text>
</g>
<!-- _GH__KCHASON__CASE_VALIDATION_ACTION&#45;&gt;_GH__CASEWORK__CASE_BINDINGS_CSHARP_MONITOR -->
<g id="edge16" class="edge">
<title>_GH__KCHASON__CASE_VALIDATION_ACTION&#45;&gt;_GH__CASEWORK__CASE_BINDINGS_CSHARP_MONITOR</title>
<path fill="none" stroke="black" d="M768.2,-448.42C788.97,-491.12 842.67,-595.22 906,-669 1004.15,-783.36 1071.94,-778.07 1222,-792 1406.76,-809.15 1609.87,-690.62 1691.52,-636.71"/>
<polygon fill="black" stroke="black" points="1693.46,-639.62 1699.83,-631.16 1689.57,-633.8 1693.46,-639.62"/>
<text text-anchor="middle" x="1244.5" y="-811.8" font-family="Times,serif" font-size="14.00">GitHub</text>
<text text-anchor="middle" x="1244.5" y="-796.8" font-family="Times,serif" font-size="14.00">Action</text>
</g>
<!-- _GH__DOD_CYBER_CRIME_CENTER__SQLITE_DISSECT -->
<g id="node22" class="node">
<title>_GH__DOD_CYBER_CRIME_CENTER__SQLITE_DISSECT</title>
<g id="a_node22"><a xlink:href="https://github.com/dod-cyber-crime-center/sqlite-dissect" xlink:title="sqlite&#45;dissect\nadopts new case&#45;validation&#45;action">
<path fill="#8ec7d2" stroke="#0d6986" d="M1192,-618C1192,-618 1015,-618 1015,-618 1009,-618 1003,-612 1003,-606 1003,-606 1003,-592 1003,-592 1003,-586 1009,-580 1015,-580 1015,-580 1192,-580 1192,-580 1198,-580 1204,-586 1204,-592 1204,-592 1204,-606 1204,-606 1204,-612 1198,-618 1192,-618"/>
<text text-anchor="middle" x="1103.5" y="-602.8" font-family="Times,serif" font-size="14.00">sqlite&#45;dissect</text>
<text text-anchor="middle" x="1103.5" y="-587.8" font-family="Times,serif" font-size="14.00">adopts new case&#45;validation&#45;action</text>
</a>
</g>
</g>
<!-- _GH__KCHASON__CASE_VALIDATION_ACTION&#45;&gt;_GH__DOD_CYBER_CRIME_CENTER__SQLITE_DISSECT -->
<g id="edge22" class="edge">
<title>_GH__KCHASON__CASE_VALIDATION_ACTION&#45;&gt;_GH__DOD_CYBER_CRIME_CENTER__SQLITE_DISSECT</title>
<g id="a_edge22"><a xlink:href="https://github.com/dod-cyber-crime-center/sqlite-dissect/pull/31" xlink:title="TODO: PR 31">
<path fill="none" stroke="black" d="M790.25,-448.49C819.61,-466.46 865.05,-493.39 906,-514 951.01,-536.65 1003.46,-559.15 1042.84,-575.31"/>
<polygon fill="black" stroke="black" points="1041.34,-578.48 1051.93,-579.01 1043.99,-571.99 1041.34,-578.48"/>
</a>
</g>
<g id="a_edge22&#45;label"><a xlink:href="https://github.com/dod-cyber-crime-center/sqlite-dissect/pull/31" xlink:title="TODO: PR 31">
<text text-anchor="middle" x="945.5" y="-551.8" font-family="Times,serif" font-size="14.00">TODO: PR 31</text>
</a>
</g>
</g>
</g>
</svg>
