<?xml version="1.0" encoding="UTF-8" standalone="no"?>
<!DOCTYPE svg PUBLIC "-//W3C//DTD SVG 1.1//EN"
 "http://www.w3.org/Graphics/SVG/1.1/DTD/svg11.dtd">
<!-- Generated by graphviz version 7.1.0 (20230121.1956)
 -->
<!-- Title: cdo_release_flow Pages: 1 -->
<svg width="1617pt" height="1133pt"
 viewBox="0.00 0.00 1617.00 1133.00" xmlns="http://www.w3.org/2000/svg" xmlns:xlink="http://www.w3.org/1999/xlink">
<g id="graph0" class="graph" transform="scale(1 1) rotate(0) translate(4 1129)">
<title>cdo_release_flow</title>
<polygon fill="white" stroke="none" points="-4,4 -4,-1129 1613,-1129 1613,4 -4,4"/>
<text text-anchor="middle" x="804.5" y="-38.8" font-family="Times,serif" font-size="14.00">Release flow of CDO ontologies</text>
<text text-anchor="middle" x="804.5" y="-7.8" font-family="Times,serif" font-size="14.00">Nodes link to the respective Git repository.</text>
<g id="clust1" class="cluster">
<title>cluster_uco_0_9_1</title>
<polygon fill="none" stroke="black" points="189,-298 189,-462 357,-462 357,-298 189,-298"/>
<text text-anchor="middle" x="273" y="-446.8" font-family="Times,serif" font-size="14.00">Adoption of UCO 0.9.1</text>
</g>
<g id="clust2" class="cluster">
<title>cluster_case_0_7_1</title>
<polygon fill="none" stroke="black" points="197,-354 197,-431 349,-431 349,-354 197,-354"/>
<text text-anchor="middle" x="273" y="-415.8" font-family="Times,serif" font-size="14.00">Adoption of CASE 0.7.1</text>
</g>
<g id="clust3" class="cluster">
<title>cluster_uco_1_1_0</title>
<polygon fill="none" stroke="black" points="944,-100 944,-462 1232,-462 1232,-100 944,-100"/>
<text text-anchor="middle" x="1088" y="-446.8" font-family="Times,serif" font-size="14.00">Adoption of UCO 1.1.0</text>
</g>
<g id="clust4" class="cluster">
<title>cluster_case_1_1_0</title>
<polygon fill="none" stroke="black" points="952,-108 952,-431 1224,-431 1224,-108 952,-108"/>
<text text-anchor="middle" x="1088" y="-415.8" font-family="Times,serif" font-size="14.00">Adoption of CASE 1.1.0</text>
</g>
<g id="clust5" class="cluster">
<title>cluster_case_utils_0_9_0</title>
<polygon fill="none" stroke="black" points="960,-116 960,-400 1216,-400 1216,-116 960,-116"/>
<text text-anchor="middle" x="1088" y="-384.8" font-family="Times,serif" font-size="14.00">Adoption of case&#45;utils 0.9.0</text>
</g>
<g id="clust6" class="cluster">
<title>cluster_case_validation_action_2_5</title>
<polygon fill="none" stroke="black" points="968,-124 968,-369 1208,-369 1208,-124 968,-124"/>
<text text-anchor="middle" x="1088" y="-353.8" font-family="Times,serif" font-size="14.00">Adoption of case&#45;validation&#45;action 2.5</text>
</g>
<g id="clust7" class="cluster">
<title>cluster_uco_1_2_0</title>
<polygon fill="none" stroke="black" points="8,-470 8,-1117 1601,-1117 1601,-470 8,-470"/>
<text text-anchor="middle" x="804.5" y="-1101.8" font-family="Times,serif" font-size="14.00">Adoption of UCO 1.2.0</text>
</g>
<g id="clust8" class="cluster">
<title>cluster_case_1_2_0</title>
<polygon fill="none" stroke="black" points="212,-478 212,-1086 1593,-1086 1593,-478 212,-478"/>
<text text-anchor="middle" x="902.5" y="-1070.8" font-family="Times,serif" font-size="14.00">Adoption of CASE 1.2.0</text>
</g>
<g id="clust9" class="cluster">
<title>cluster_case_utils_0_10_0</title>
<polygon fill="none" stroke="black" points="456,-532 456,-1055 1585,-1055 1585,-532 456,-532"/>
<text text-anchor="middle" x="1020.5" y="-1039.8" font-family="Times,serif" font-size="14.00">Adoption of case&#45;utils 0.10.0</text>
</g>
<g id="clust11" class="cluster">
<title>cluster_case_validation_action_2_6</title>
<polygon fill="none" stroke="black" points="631.5,-642 631.5,-851 1229.5,-851 1229.5,-642 631.5,-642"/>
<text text-anchor="middle" x="930.5" y="-835.8" font-family="Times,serif" font-size="14.00">Adoption of case&#45;validation&#45;action 2.6</text>
</g>
<g id="clust12" class="cluster">
<title>cluster_case_bindings_csharp_0_4_0</title>
<polygon fill="none" stroke="black" points="639.5,-743 639.5,-820 1221.5,-820 1221.5,-743 639.5,-743"/>
<text text-anchor="middle" x="930.5" y="-804.8" font-family="Times,serif" font-size="14.00">Adoption of CSharp bindings 0.4.0</text>
</g>
<g id="clust10" class="cluster">
<title>cluster_case_prov_0_7_0</title>
<polygon fill="none" stroke="black" points="1295,-942 1295,-1019 1577,-1019 1577,-942 1295,-942"/>
<text text-anchor="middle" x="1436" y="-1003.8" font-family="Times,serif" font-size="14.00">Adoption of case&#45;prov 0.7.0</text>
</g>
<!-- _GH__UCOPROJECT__ONTOLOGY_UNIFIEDCYBERONTOLOGY_ORG -->
<g id="node1" class="node">
<title>_GH__UCOPROJECT__ONTOLOGY_UNIFIEDCYBERONTOLOGY_ORG</title>
<g id="a_node1"><a xlink:href="https://github.com/ucoProject/ontology.unifiedcyberontology.org" xlink:title="UCO documentation\nregenerated">
<path fill="#8ec7d2" stroke="#0d6986" d="M326,-344C326,-344 220,-344 220,-344 214,-344 208,-338 208,-332 208,-332 208,-318 208,-318 208,-312 214,-306 220,-306 220,-306 326,-306 326,-306 332,-306 338,-312 338,-318 338,-318 338,-332 338,-332 338,-338 332,-344 326,-344"/>
<text text-anchor="middle" x="273" y="-328.8" font-family="Times,serif" font-size="14.00">UCO documentation</text>
<text text-anchor="middle" x="273" y="-313.8" font-family="Times,serif" font-size="14.00">regenerated</text>
</a>
</g>
</g>
<!-- _GH__CASEWORK__CASE_MAPPING_TEMPLATE_STUBS -->
<g id="node2" class="node">
<title>_GH__CASEWORK__CASE_MAPPING_TEMPLATE_STUBS</title>
<g id="a_node2"><a xlink:href="https://github.com/casework/CASE-Mapping-Template-Stubs" xlink:title="CASE Mapping\nTemplate Stubs">
<path fill="#8ec7d2" stroke="#0d6986" d="M313,-400C313,-400 233,-400 233,-400 227,-400 221,-394 221,-388 221,-388 221,-374 221,-374 221,-368 227,-362 233,-362 233,-362 313,-362 313,-362 319,-362 325,-368 325,-374 325,-374 325,-388 325,-388 325,-394 319,-400 313,-400"/>
<text text-anchor="middle" x="273" y="-384.8" font-family="Times,serif" font-size="14.00">CASE Mapping</text>
<text text-anchor="middle" x="273" y="-369.8" font-family="Times,serif" font-size="14.00">Template Stubs</text>
</a>
</g>
</g>
<!-- _GH__CASEWORK__CASE_IMPLEMENTATON_PYPI_EXIFREAD -->
<g id="node3" class="node">
<title>_GH__CASEWORK__CASE_IMPLEMENTATON_PYPI_EXIFREAD</title>
<g id="a_node3"><a xlink:href="https://github.com/casework/CASE-Implementation-PyPI-Exifread" xlink:title="CASE&#45;Implementation&#45;PyPI&#45;Exifread\nadopts new case&#45;validation&#45;action">
<path fill="#8ec7d2" stroke="#0d6986" d="M1188,-226C1188,-226 988,-226 988,-226 982,-226 976,-220 976,-214 976,-214 976,-200 976,-200 976,-194 982,-188 988,-188 988,-188 1188,-188 1188,-188 1194,-188 1200,-194 1200,-200 1200,-200 1200,-214 1200,-214 1200,-220 1194,-226 1188,-226"/>
<text text-anchor="middle" x="1088" y="-210.8" font-family="Times,serif" font-size="14.00">CASE&#45;Implementation&#45;PyPI&#45;Exifread</text>
<text text-anchor="middle" x="1088" y="-195.8" font-family="Times,serif" font-size="14.00">adopts new case&#45;validation&#45;action</text>
</a>
</g>
</g>
<!-- _GH__CASEWORK__CASE_IMPLEMENTATON_PYPI_PILLOW -->
<g id="node4" class="node">
<title>_GH__CASEWORK__CASE_IMPLEMENTATON_PYPI_PILLOW</title>
<g id="a_node4"><a xlink:href="https://github.com/casework/CASE-Implementation-PyPI-Pillow" xlink:title="CASE&#45;Implementation&#45;PyPI&#45;Pillow\nadopts new case&#45;validation&#45;action">
<path fill="#8ec7d2" stroke="#0d6986" d="M1182.5,-170C1182.5,-170 993.5,-170 993.5,-170 987.5,-170 981.5,-164 981.5,-158 981.5,-158 981.5,-144 981.5,-144 981.5,-138 987.5,-132 993.5,-132 993.5,-132 1182.5,-132 1182.5,-132 1188.5,-132 1194.5,-138 1194.5,-144 1194.5,-144 1194.5,-158 1194.5,-158 1194.5,-164 1188.5,-170 1182.5,-170"/>
<text text-anchor="middle" x="1088" y="-154.8" font-family="Times,serif" font-size="14.00">CASE&#45;Implementation&#45;PyPI&#45;Pillow</text>
<text text-anchor="middle" x="1088" y="-139.8" font-family="Times,serif" font-size="14.00">adopts new case&#45;validation&#45;action</text>
</a>
</g>
</g>
<!-- _GH__CASEWORK__CASE_IMPLEMENTATON_XRY -->
<g id="node5" class="node">
<title>_GH__CASEWORK__CASE_IMPLEMENTATON_XRY</title>
<g id="a_node5"><a xlink:href="https://github.com/casework/CASE-Implementation-XRY" xlink:title="CASE&#45;Implementation&#45;XRY adopts\nnew case&#45;validation&#45;action">
<path fill="#8ec7d2" stroke="#0d6986" d="M1183,-338C1183,-338 993,-338 993,-338 987,-338 981,-332 981,-326 981,-326 981,-312 981,-312 981,-306 987,-300 993,-300 993,-300 1183,-300 1183,-300 1189,-300 1195,-306 1195,-312 1195,-312 1195,-326 1195,-326 1195,-332 1189,-338 1183,-338"/>
<text text-anchor="middle" x="1088" y="-322.8" font-family="Times,serif" font-size="14.00">CASE&#45;Implementation&#45;XRY adopts</text>
<text text-anchor="middle" x="1088" y="-307.8" font-family="Times,serif" font-size="14.00">new case&#45;validation&#45;action</text>
</a>
</g>
</g>
<!-- _GH__CASEWORK__CASE_MAPPING_TEMPLATE_PYTHON -->
<g id="node6" class="node">
<title>_GH__CASEWORK__CASE_MAPPING_TEMPLATE_PYTHON</title>
<g id="a_node6"><a xlink:href="https://github.com/casework/CASE-Mapping-Template-Python" xlink:title="CASE&#45;Mapping&#45;Template&#45;Python\nadopts new case&#45;validation&#45;action">
<path fill="#8ec7d2" stroke="#0d6986" d="M1178,-282C1178,-282 998,-282 998,-282 992,-282 986,-276 986,-270 986,-270 986,-256 986,-256 986,-250 992,-244 998,-244 998,-244 1178,-244 1178,-244 1184,-244 1190,-250 1190,-256 1190,-256 1190,-270 1190,-270 1190,-276 1184,-282 1178,-282"/>
<text text-anchor="middle" x="1088" y="-266.8" font-family="Times,serif" font-size="14.00">CASE&#45;Mapping&#45;Template&#45;Python</text>
<text text-anchor="middle" x="1088" y="-251.8" font-family="Times,serif" font-size="14.00">adopts new case&#45;validation&#45;action</text>
</a>
</g>
</g>
<!-- _GH__UCOPROJECT__UCO -->
<g id="node7" class="node">
<title>_GH__UCOPROJECT__UCO</title>
<g id="a_node7"><a xlink:href="https://github.com/ucoProject/UCO" xlink:title="UCO Ontology\nreleases">
<path fill="#8ec7d2" stroke="#0d6986" d="M104,-520C104,-520 28,-520 28,-520 22,-520 16,-514 16,-508 16,-508 16,-494 16,-494 16,-488 22,-482 28,-482 28,-482 104,-482 104,-482 110,-482 116,-488 116,-494 116,-494 116,-508 116,-508 116,-514 110,-520 104,-520"/>
<text text-anchor="middle" x="66" y="-504.8" font-family="Times,serif" font-size="14.00">UCO Ontology</text>
<text text-anchor="middle" x="66" y="-489.8" font-family="Times,serif" font-size="14.00">releases</text>
</a>
</g>
</g>
<!-- _GH__UCOPROJECT__UCO&#45;&gt;_GH__UCOPROJECT__ONTOLOGY_UNIFIEDCYBERONTOLOGY_ORG -->
<g id="edge24" class="edge">
<title>_GH__UCOPROJECT__UCO&#45;&gt;_GH__UCOPROJECT__ONTOLOGY_UNIFIEDCYBERONTOLOGY_ORG</title>
<path fill="none" stroke="black" d="M77.41,-481.67C95.71,-449.53 136.7,-385.16 189,-350 191.69,-348.19 194.52,-346.51 197.44,-344.94"/>
<polygon fill="black" stroke="black" points="198.78,-348.18 206.31,-340.72 195.77,-341.86 198.78,-348.18"/>
<text text-anchor="middle" x="156.5" y="-417.8" font-family="Times,serif" font-size="14.00">Git sub&#45;</text>
<text text-anchor="middle" x="156.5" y="-402.8" font-family="Times,serif" font-size="14.00">module</text>
</g>
<!-- _GH__CASEWORK__CASE -->
<g id="node8" class="node">
<title>_GH__CASEWORK__CASE</title>
<g id="a_node8"><a xlink:href="https://github.com/casework/CASE" xlink:title="CASE Ontology\nreleases">
<path fill="#8ec7d2" stroke="#0d6986" d="M314,-691C314,-691 232,-691 232,-691 226,-691 220,-685 220,-679 220,-679 220,-665 220,-665 220,-659 226,-653 232,-653 232,-653 314,-653 314,-653 320,-653 326,-659 326,-665 326,-665 326,-679 326,-679 326,-685 320,-691 314,-691"/>
<text text-anchor="middle" x="273" y="-675.8" font-family="Times,serif" font-size="14.00">CASE Ontology</text>
<text text-anchor="middle" x="273" y="-660.8" font-family="Times,serif" font-size="14.00">releases</text>
</a>
</g>
</g>
<!-- _GH__UCOPROJECT__UCO&#45;&gt;_GH__CASEWORK__CASE -->
<g id="edge23" class="edge">
<title>_GH__UCOPROJECT__UCO&#45;&gt;_GH__CASEWORK__CASE</title>
<path fill="none" stroke="black" d="M90.12,-520.28C126.8,-550.88 198.42,-610.63 240.01,-645.32"/>
<polygon fill="black" stroke="black" points="237.57,-647.84 247.49,-651.56 242.05,-642.46 237.57,-647.84"/>
<text text-anchor="middle" x="156.5" y="-609.8" font-family="Times,serif" font-size="14.00">Git sub&#45;</text>
<text text-anchor="middle" x="156.5" y="-594.8" font-family="Times,serif" font-size="14.00">module</text>
</g>
<!-- _GH__CASEWORK__ONTOLOGY_CASEONTOLOGY_ORG -->
<g id="node9" class="node">
<title>_GH__CASEWORK__ONTOLOGY_CASEONTOLOGY_ORG</title>
<g id="a_node9"><a xlink:href="https://github.com/casework/ontology.caseontology.org" xlink:title="CASE documentation\nregenerated">
<path fill="#8ec7d2" stroke="#0d6986" d="M554,-524C554,-524 442,-524 442,-524 436,-524 430,-518 430,-512 430,-512 430,-498 430,-498 430,-492 436,-486 442,-486 442,-486 554,-486 554,-486 560,-486 566,-492 566,-498 566,-498 566,-512 566,-512 566,-518 560,-524 554,-524"/>
<text text-anchor="middle" x="498" y="-508.8" font-family="Times,serif" font-size="14.00">CASE documentation</text>
<text text-anchor="middle" x="498" y="-493.8" font-family="Times,serif" font-size="14.00">regenerated</text>
</a>
</g>
</g>
<!-- _GH__CASEWORK__CASE&#45;&gt;_GH__CASEWORK__ONTOLOGY_CASEONTOLOGY_ORG -->
<g id="edge4" class="edge">
<title>_GH__CASEWORK__CASE&#45;&gt;_GH__CASEWORK__ONTOLOGY_CASEONTOLOGY_ORG</title>
<path fill="none" stroke="black" d="M289.83,-652.98C314.77,-624.07 366.11,-568.7 427.08,-530.18"/>
<polygon fill="black" stroke="black" points="428.55,-533.38 435.26,-525.18 424.9,-527.41 428.55,-533.38"/>
<text text-anchor="middle" x="389.5" y="-590.8" font-family="Times,serif" font-size="14.00">Git sub&#45;</text>
<text text-anchor="middle" x="389.5" y="-575.8" font-family="Times,serif" font-size="14.00">module</text>
</g>
<!-- _GH__CASEWORK__CASE_UTILITIES_PYTHON -->
<g id="node14" class="node">
<title>_GH__CASEWORK__CASE_UTILITIES_PYTHON</title>
<g id="a_node14"><a xlink:href="https://github.com/casework/CASE-Utilities-Python" xlink:title="case&#45;utils\nreleases">
<path fill="#8ec7d2" stroke="#0d6986" d="M520,-836C520,-836 476,-836 476,-836 470,-836 464,-830 464,-824 464,-824 464,-810 464,-810 464,-804 470,-798 476,-798 476,-798 520,-798 520,-798 526,-798 532,-804 532,-810 532,-810 532,-824 532,-824 532,-830 526,-836 520,-836"/>
<text text-anchor="middle" x="498" y="-820.8" font-family="Times,serif" font-size="14.00">case&#45;utils</text>
<text text-anchor="middle" x="498" y="-805.8" font-family="Times,serif" font-size="14.00">releases</text>
</a>
</g>
</g>
<!-- _GH__CASEWORK__CASE&#45;&gt;_GH__CASEWORK__CASE_UTILITIES_PYTHON -->
<g id="edge2" class="edge">
<title>_GH__CASEWORK__CASE&#45;&gt;_GH__CASEWORK__CASE_UTILITIES_PYTHON</title>
<path fill="none" stroke="black" d="M294.12,-691.39C322.41,-717.76 376.51,-764.97 430,-794 437.21,-797.91 445.21,-801.35 453.1,-804.29"/>
<polygon fill="black" stroke="black" points="451.68,-807.5 462.27,-807.49 453.99,-800.89 451.68,-807.5"/>
<text text-anchor="middle" x="389.5" y="-801.8" font-family="Times,serif" font-size="14.00">Git sub&#45;</text>
<text text-anchor="middle" x="389.5" y="-786.8" font-family="Times,serif" font-size="14.00">module</text>
</g>
<!-- _GH__CIPHERTECHSOLUTIONS__CASE_BINDINGS_CSHARP -->
<g id="node21" class="node">
<title>_GH__CIPHERTECHSOLUTIONS__CASE_BINDINGS_CSHARP</title>
<g id="a_node21"><a xlink:href="https://github.com/ciphertechsolutions/CASE-Bindings-CSharp" xlink:title="CASE&#45;Bindings&#45;CSharp\nadopts new ontology version">
<path fill="#8ec7d2" stroke="#0d6986" d="M808.5,-789C808.5,-789 659.5,-789 659.5,-789 653.5,-789 647.5,-783 647.5,-777 647.5,-777 647.5,-763 647.5,-763 647.5,-757 653.5,-751 659.5,-751 659.5,-751 808.5,-751 808.5,-751 814.5,-751 820.5,-757 820.5,-763 820.5,-763 820.5,-777 820.5,-777 820.5,-783 814.5,-789 808.5,-789"/>
<text text-anchor="middle" x="734" y="-773.8" font-family="Times,serif" font-size="14.00">CASE&#45;Bindings&#45;CSharp</text>
<text text-anchor="middle" x="734" y="-758.8" font-family="Times,serif" font-size="14.00">adopts new ontology version</text>
</a>
</g>
</g>
<!-- _GH__CASEWORK__CASE&#45;&gt;_GH__CIPHERTECHSOLUTIONS__CASE_BINDINGS_CSHARP -->
<g id="edge3" class="edge">
<title>_GH__CASEWORK__CASE&#45;&gt;_GH__CIPHERTECHSOLUTIONS__CASE_BINDINGS_CSHARP</title>
<path fill="none" stroke="black" d="M275.52,-691.07C281.57,-752.65 309.85,-946.74 430,-1025 497.41,-1068.91 551.96,-1079.64 611,-1025 648.95,-989.88 595.09,-832.04 629,-793 631.55,-790.07 634.38,-787.46 637.42,-785.15"/>
<polygon fill="black" stroke="black" points="639.26,-788.13 645.87,-779.86 635.54,-782.2 639.26,-788.13"/>
</g>
<!-- _GH__AJNELSON_NIST__CASE_EXAMPLES_QC -->
<g id="node10" class="node">
<title>_GH__AJNELSON_NIST__CASE_EXAMPLES_QC</title>
<g id="a_node10"><a xlink:href="https://github.com/ajnelson-nist/CASE-Examples-QC" xlink:title="CASE&#45;Examples&#45;QC\nadopts CASE&#45;Examples and\nCASE website updates">
<path fill="#8ec7d2" stroke="#0d6986" d="M1162,-973.5C1162,-973.5 1014,-973.5 1014,-973.5 1008,-973.5 1002,-967.5 1002,-961.5 1002,-961.5 1002,-932.5 1002,-932.5 1002,-926.5 1008,-920.5 1014,-920.5 1014,-920.5 1162,-920.5 1162,-920.5 1168,-920.5 1174,-926.5 1174,-932.5 1174,-932.5 1174,-961.5 1174,-961.5 1174,-967.5 1168,-973.5 1162,-973.5"/>
<text text-anchor="middle" x="1088" y="-958.3" font-family="Times,serif" font-size="14.00">CASE&#45;Examples&#45;QC</text>
<text text-anchor="middle" x="1088" y="-943.3" font-family="Times,serif" font-size="14.00">adopts CASE&#45;Examples and</text>
<text text-anchor="middle" x="1088" y="-928.3" font-family="Times,serif" font-size="14.00">CASE website updates</text>
</a>
</g>
</g>
<!-- _GH__CASEWORK__CASE_IMPLEMENTATON_PROV_O -->
<g id="node17" class="node">
<title>_GH__CASEWORK__CASE_IMPLEMENTATON_PROV_O</title>
<g id="a_node17"><a xlink:href="https://github.com/casework/CASE-Implementation-PROV-O" xlink:title="case&#45;prov\nreleases">
<path fill="#8ec7d2" stroke="#0d6986" d="M1360,-988C1360,-988 1315,-988 1315,-988 1309,-988 1303,-982 1303,-976 1303,-976 1303,-962 1303,-962 1303,-956 1309,-950 1315,-950 1315,-950 1360,-950 1360,-950 1366,-950 1372,-956 1372,-962 1372,-962 1372,-976 1372,-976 1372,-982 1366,-988 1360,-988"/>
<text text-anchor="middle" x="1337.5" y="-972.8" font-family="Times,serif" font-size="14.00">case&#45;prov</text>
<text text-anchor="middle" x="1337.5" y="-957.8" font-family="Times,serif" font-size="14.00">releases</text>
</a>
</g>
</g>
<!-- _GH__AJNELSON_NIST__CASE_EXAMPLES_QC&#45;&gt;_GH__CASEWORK__CASE_IMPLEMENTATON_PROV_O -->
<g id="edge1" class="edge">
<title>_GH__AJNELSON_NIST__CASE_EXAMPLES_QC&#45;&gt;_GH__CASEWORK__CASE_IMPLEMENTATON_PROV_O</title>
<path fill="none" stroke="black" d="M1174.18,-954.57C1213.53,-958.07 1258.67,-962.08 1291.34,-964.99"/>
<polygon fill="black" stroke="black" points="1291,-968.47 1301.27,-965.87 1291.62,-961.5 1291,-968.47"/>
<text text-anchor="middle" x="1262.5" y="-982.8" font-family="Times,serif" font-size="14.00">Git sub&#45;</text>
<text text-anchor="middle" x="1262.5" y="-967.8" font-family="Times,serif" font-size="14.00">module</text>
</g>
<!-- _GH__CASEWORK__CASE_EXAMPLES -->
<g id="node11" class="node">
<title>_GH__CASEWORK__CASE_EXAMPLES</title>
<g id="a_node11"><a xlink:href="https://github.com/casework/CASE-Examples" xlink:title="CASE&#45;Examples\nadopts new case&#45;utils">
<path fill="#8ec7d2" stroke="#0d6986" d="M788.5,-897C788.5,-897 679.5,-897 679.5,-897 673.5,-897 667.5,-891 667.5,-885 667.5,-885 667.5,-871 667.5,-871 667.5,-865 673.5,-859 679.5,-859 679.5,-859 788.5,-859 788.5,-859 794.5,-859 800.5,-865 800.5,-871 800.5,-871 800.5,-885 800.5,-885 800.5,-891 794.5,-897 788.5,-897"/>
<text text-anchor="middle" x="734" y="-881.8" font-family="Times,serif" font-size="14.00">CASE&#45;Examples</text>
<text text-anchor="middle" x="734" y="-866.8" font-family="Times,serif" font-size="14.00">adopts new case&#45;utils</text>
</a>
</g>
</g>
<!-- _GH__CASEWORK__CASE_EXAMPLES&#45;&gt;_GH__AJNELSON_NIST__CASE_EXAMPLES_QC -->
<g id="edge5" class="edge">
<title>_GH__CASEWORK__CASE_EXAMPLES&#45;&gt;_GH__AJNELSON_NIST__CASE_EXAMPLES_QC</title>
<path fill="none" stroke="black" d="M800.58,-883.99C840.06,-888.22 891.2,-894.78 936,-904 953.88,-907.68 972.74,-912.38 990.85,-917.31"/>
<polygon fill="black" stroke="black" points="989.67,-920.62 1000.25,-919.92 991.54,-913.87 989.67,-920.62"/>
<text text-anchor="middle" x="896.5" y="-922.8" font-family="Times,serif" font-size="14.00">Git sub&#45;</text>
<text text-anchor="middle" x="896.5" y="-907.8" font-family="Times,serif" font-size="14.00">module</text>
</g>
<!-- _GH__CASEWORK__CASE_IMPLEMENTATON_EXIFTOOL -->
<g id="node12" class="node">
<title>_GH__CASEWORK__CASE_IMPLEMENTATON_EXIFTOOL</title>
<g id="a_node12"><a xlink:href="https://github.com/casework/CASE-Implementation-ExifTool" xlink:title="CASE&#45;Implementation&#45;ExifTool\nadopts new case&#45;utils">
<path fill="#8ec7d2" stroke="#0d6986" d="M820,-578C820,-578 648,-578 648,-578 642,-578 636,-572 636,-566 636,-566 636,-552 636,-552 636,-546 642,-540 648,-540 648,-540 820,-540 820,-540 826,-540 832,-546 832,-552 832,-552 832,-566 832,-566 832,-572 826,-578 820,-578"/>
<text text-anchor="middle" x="734" y="-562.8" font-family="Times,serif" font-size="14.00">CASE&#45;Implementation&#45;ExifTool</text>
<text text-anchor="middle" x="734" y="-547.8" font-family="Times,serif" font-size="14.00">adopts new case&#45;utils</text>
</a>
</g>
</g>
<!-- _GH__CASEWORK__CASE_IMPLEMENTATON_GNU_TIME -->
<g id="node13" class="node">
<title>_GH__CASEWORK__CASE_IMPLEMENTATON_GNU_TIME</title>
<g id="a_node13"><a xlink:href="https://github.com/casework/CASE-Implementation-GNU-Time" xlink:title="CASE&#45;Implementation&#45;GNU&#45;Time\nadopts new case&#45;utils">
<path fill="#8ec7d2" stroke="#0d6986" d="M827,-634C827,-634 641,-634 641,-634 635,-634 629,-628 629,-622 629,-622 629,-608 629,-608 629,-602 635,-596 641,-596 641,-596 827,-596 827,-596 833,-596 839,-602 839,-608 839,-608 839,-622 839,-622 839,-628 833,-634 827,-634"/>
<text text-anchor="middle" x="734" y="-618.8" font-family="Times,serif" font-size="14.00">CASE&#45;Implementation&#45;GNU&#45;Time</text>
<text text-anchor="middle" x="734" y="-603.8" font-family="Times,serif" font-size="14.00">adopts new case&#45;utils</text>
</a>
</g>
</g>
<!-- _GH__CASEWORK__CASE_UTILITIES_PYTHON&#45;&gt;_GH__AJNELSON_NIST__CASE_EXAMPLES_QC -->
<g id="edge7" class="edge">
<title>_GH__CASEWORK__CASE_UTILITIES_PYTHON&#45;&gt;_GH__AJNELSON_NIST__CASE_EXAMPLES_QC</title>
<path fill="none" stroke="black" d="M509.28,-836.36C528,-869.31 571.13,-935.31 629,-962 753.02,-1019.18 800.01,-987.5 936,-975 953.7,-973.37 972.42,-970.69 990.43,-967.62"/>
<polygon fill="black" stroke="black" points="990.81,-971.11 1000.05,-965.93 989.59,-964.22 990.81,-971.11"/>
<text text-anchor="middle" x="734" y="-998.8" font-family="Times,serif" font-size="14.00">PyPI</text>
</g>
<!-- _GH__CASEWORK__CASE_UTILITIES_PYTHON&#45;&gt;_GH__CASEWORK__CASE_EXAMPLES -->
<g id="edge8" class="edge">
<title>_GH__CASEWORK__CASE_UTILITIES_PYTHON&#45;&gt;_GH__CASEWORK__CASE_EXAMPLES</title>
<path fill="none" stroke="black" d="M532.03,-825.61C564.18,-833.99 614.21,-847.03 656.31,-858.01"/>
<polygon fill="black" stroke="black" points="655.36,-861.38 665.92,-860.51 657.12,-854.6 655.36,-861.38"/>
<text text-anchor="middle" x="597.5" y="-848.8" font-family="Times,serif" font-size="14.00">PyPI</text>
</g>
<!-- _GH__CASEWORK__CASE_UTILITIES_PYTHON&#45;&gt;_GH__CASEWORK__CASE_IMPLEMENTATON_EXIFTOOL -->
<g id="edge9" class="edge">
<title>_GH__CASEWORK__CASE_UTILITIES_PYTHON&#45;&gt;_GH__CASEWORK__CASE_IMPLEMENTATON_EXIFTOOL</title>
<path fill="none" stroke="black" d="M532.29,-813.12C544.69,-809.95 557.75,-804.25 566,-794 609.75,-739.62 555.61,-701.76 584,-638 596.3,-610.39 603.32,-602.94 629,-587 631.02,-585.75 633.09,-584.55 635.21,-583.41"/>
<polygon fill="black" stroke="black" points="636.6,-586.63 644.05,-579.1 633.53,-580.33 636.6,-586.63"/>
<text text-anchor="middle" x="597.5" y="-641.8" font-family="Times,serif" font-size="14.00">PyPI</text>
</g>
<!-- _GH__CASEWORK__CASE_UTILITIES_PYTHON&#45;&gt;_GH__CASEWORK__CASE_IMPLEMENTATON_GNU_TIME -->
<g id="edge10" class="edge">
<title>_GH__CASEWORK__CASE_UTILITIES_PYTHON&#45;&gt;_GH__CASEWORK__CASE_IMPLEMENTATON_GNU_TIME</title>
<path fill="none" stroke="black" d="M532.39,-812.01C544.36,-808.69 557.09,-803.18 566,-794 584.8,-774.63 574.35,-761.21 584,-736 599.87,-694.56 592.96,-671.65 625.33,-641.72"/>
<polygon fill="black" stroke="black" points="627.44,-644.52 632.76,-635.35 622.89,-639.2 627.44,-644.52"/>
<text text-anchor="middle" x="597.5" y="-739.8" font-family="Times,serif" font-size="14.00">PyPI</text>
</g>
<!-- _GH__CASEWORK__CASEWORK_GITHUB_IO -->
<g id="node15" class="node">
<title>_GH__CASEWORK__CASEWORK_GITHUB_IO</title>
<g id="a_node15"><a xlink:href="https://github.com/casework/casework.github.io" xlink:title="CASE website\nadopts new case&#45;utils">
<path fill="#8ec7d2" stroke="#0d6986" d="M788.5,-953C788.5,-953 679.5,-953 679.5,-953 673.5,-953 667.5,-947 667.5,-941 667.5,-941 667.5,-927 667.5,-927 667.5,-921 673.5,-915 679.5,-915 679.5,-915 788.5,-915 788.5,-915 794.5,-915 800.5,-921 800.5,-927 800.5,-927 800.5,-941 800.5,-941 800.5,-947 794.5,-953 788.5,-953"/>
<text text-anchor="middle" x="734" y="-937.8" font-family="Times,serif" font-size="14.00">CASE website</text>
<text text-anchor="middle" x="734" y="-922.8" font-family="Times,serif" font-size="14.00">adopts new case&#45;utils</text>
</a>
</g>
</g>
<!-- _GH__CASEWORK__CASE_UTILITIES_PYTHON&#45;&gt;_GH__CASEWORK__CASEWORK_GITHUB_IO -->
<g id="edge13" class="edge">
<title>_GH__CASEWORK__CASE_UTILITIES_PYTHON&#45;&gt;_GH__CASEWORK__CASEWORK_GITHUB_IO</title>
<path fill="none" stroke="black" d="M521.97,-836.32C546.88,-856.37 588.51,-887.35 629,-906 637.61,-909.96 646.88,-913.46 656.22,-916.51"/>
<polygon fill="black" stroke="black" points="655.14,-919.84 665.73,-919.44 657.21,-913.15 655.14,-919.84"/>
<text text-anchor="middle" x="597.5" y="-899.8" font-family="Times,serif" font-size="14.00">PyPI</text>
</g>
<!-- _GH__CASEWORK__CASE_UTILITIES_PYTHON&#45;&gt;_GH__CASEWORK__CASE_IMPLEMENTATON_PROV_O -->
<g id="edge11" class="edge">
<title>_GH__CASEWORK__CASE_UTILITIES_PYTHON&#45;&gt;_GH__CASEWORK__CASE_IMPLEMENTATON_PROV_O</title>
<path fill="none" stroke="black" d="M504.78,-836.21C518.46,-877.77 557.17,-975.4 629,-1014 696.34,-1050.18 1099.46,-1050.22 1285,-998 1289.21,-996.81 1293.45,-995.22 1297.59,-993.38"/>
<polygon fill="black" stroke="black" points="1298.84,-996.67 1306.25,-989.09 1295.73,-990.4 1298.84,-996.67"/>
<text text-anchor="middle" x="896.5" y="-1042.8" font-family="Times,serif" font-size="14.00">PyPI</text>
</g>
<!-- _GH__KCHASON__CASE_VALIDATION_ACTION -->
<g id="node19" class="node">
<title>_GH__KCHASON__CASE_VALIDATION_ACTION</title>
<g id="a_node19"><a xlink:href="https://github.com/kchason/case-validation-action" xlink:title="case&#45;validation&#45;action\nreleases">
<path fill="#8ec7d2" stroke="#0d6986" d="M790,-690C790,-690 678,-690 678,-690 672,-690 666,-684 666,-678 666,-678 666,-664 666,-664 666,-658 672,-652 678,-652 678,-652 790,-652 790,-652 796,-652 802,-658 802,-664 802,-664 802,-678 802,-678 802,-684 796,-690 790,-690"/>
<text text-anchor="middle" x="734" y="-674.8" font-family="Times,serif" font-size="14.00">case&#45;validation&#45;action</text>
<text text-anchor="middle" x="734" y="-659.8" font-family="Times,serif" font-size="14.00">releases</text>
</a>
</g>
</g>
<!-- _GH__CASEWORK__CASE_UTILITIES_PYTHON&#45;&gt;_GH__KCHASON__CASE_VALIDATION_ACTION -->
<g id="edge12" class="edge">
<title>_GH__CASEWORK__CASE_UTILITIES_PYTHON&#45;&gt;_GH__KCHASON__CASE_VALIDATION_ACTION</title>
<path fill="none" stroke="black" d="M532.48,-808.31C543.55,-804.72 555.67,-799.97 566,-794 598.18,-775.4 599.37,-761.45 629,-739 648.77,-724.02 671.75,-708.78 691.08,-696.54"/>
<polygon fill="black" stroke="black" points="692.93,-699.51 699.54,-691.23 689.21,-693.58 692.93,-699.51"/>
<text text-anchor="middle" x="597.5" y="-784.8" font-family="Times,serif" font-size="14.00">PyPI</text>
</g>
<!-- _GH__CASEWORK__CASEWORK_GITHUB_IO&#45;&gt;_GH__AJNELSON_NIST__CASE_EXAMPLES_QC -->
<g id="edge14" class="edge">
<title>_GH__CASEWORK__CASEWORK_GITHUB_IO&#45;&gt;_GH__AJNELSON_NIST__CASE_EXAMPLES_QC</title>
<path fill="none" stroke="black" d="M800.8,-936.43C854.07,-938.4 929.9,-941.2 990.11,-943.42"/>
<polygon fill="black" stroke="black" points="989.92,-946.92 1000.04,-943.79 990.18,-939.92 989.92,-946.92"/>
<text text-anchor="middle" x="896.5" y="-959.8" font-family="Times,serif" font-size="14.00">Git sub&#45;</text>
<text text-anchor="middle" x="896.5" y="-944.8" font-family="Times,serif" font-size="14.00">module</text>
</g>
<!-- _GH__CASEWORK__CASE_CORPORA -->
<g id="node16" class="node">
<title>_GH__CASEWORK__CASE_CORPORA</title>
<g id="a_node16"><a xlink:href="https://github.com/casework/CASE-Corpora" xlink:title="CASE&#45;Corpora\nadopts new case&#45;prov">
<path fill="#8ec7d2" stroke="#0d6986" d="M1557,-988C1557,-988 1447,-988 1447,-988 1441,-988 1435,-982 1435,-976 1435,-976 1435,-962 1435,-962 1435,-956 1441,-950 1447,-950 1447,-950 1557,-950 1557,-950 1563,-950 1569,-956 1569,-962 1569,-962 1569,-976 1569,-976 1569,-982 1563,-988 1557,-988"/>
<text text-anchor="middle" x="1502" y="-972.8" font-family="Times,serif" font-size="14.00">CASE&#45;Corpora</text>
<text text-anchor="middle" x="1502" y="-957.8" font-family="Times,serif" font-size="14.00">adopts new case&#45;prov</text>
</a>
</g>
</g>
<!-- _GH__CASEWORK__CASE_IMPLEMENTATON_PROV_O&#45;&gt;_GH__CASEWORK__CASE_CORPORA -->
<g id="edge6" class="edge">
<title>_GH__CASEWORK__CASE_IMPLEMENTATON_PROV_O&#45;&gt;_GH__CASEWORK__CASE_CORPORA</title>
<path fill="none" stroke="black" d="M1372.17,-969C1387.03,-969 1405.18,-969 1423.11,-969"/>
<polygon fill="black" stroke="black" points="1423,-972.5 1433,-969 1423,-965.5 1423,-972.5"/>
<text text-anchor="middle" x="1403.5" y="-972.8" font-family="Times,serif" font-size="14.00">PyPI</text>
</g>
<!-- _GH__CASEWORK__CASE_IMPLEMENTATON_UFED_XML -->
<g id="node18" class="node">
<title>_GH__CASEWORK__CASE_IMPLEMENTATON_UFED_XML</title>
<g id="a_node18"><a xlink:href="https://github.com/casework/CASE-Implementation-UFED-XML" xlink:title="CASE&#45;Implementation&#45;UFED&#45;XML\nadopts new case&#45;validation&#45;action">
<path fill="#8ec7d2" stroke="#0d6986" d="M1185,-688C1185,-688 991,-688 991,-688 985,-688 979,-682 979,-676 979,-676 979,-662 979,-662 979,-656 985,-650 991,-650 991,-650 1185,-650 1185,-650 1191,-650 1197,-656 1197,-662 1197,-662 1197,-676 1197,-676 1197,-682 1191,-688 1185,-688"/>
<text text-anchor="middle" x="1088" y="-672.8" font-family="Times,serif" font-size="14.00">CASE&#45;Implementation&#45;UFED&#45;XML</text>
<text text-anchor="middle" x="1088" y="-657.8" font-family="Times,serif" font-size="14.00">adopts new case&#45;validation&#45;action</text>
</a>
</g>
</g>
<!-- _GH__KCHASON__CASE_VALIDATION_ACTION&#45;&gt;_GH__CASEWORK__CASE_IMPLEMENTATON_PYPI_EXIFREAD -->
<g id="edge17" class="edge">
<title>_GH__KCHASON__CASE_VALIDATION_ACTION&#45;&gt;_GH__CASEWORK__CASE_IMPLEMENTATON_PYPI_EXIFREAD</title>
<path fill="none" stroke="black" d="M802.44,-669.1C816.42,-665.48 829.71,-659.03 839,-648 866.45,-615.42 831.46,-299.1 857,-265 882.1,-231.49 923.55,-215.45 964.39,-208.28"/>
<polygon fill="black" stroke="black" points="964.76,-211.77 974.1,-206.76 963.68,-204.85 964.76,-211.77"/>
<text text-anchor="middle" x="896.5" y="-283.8" font-family="Times,serif" font-size="14.00">GitHub</text>
<text text-anchor="middle" x="896.5" y="-268.8" font-family="Times,serif" font-size="14.00">Action</text>
</g>
<!-- _GH__KCHASON__CASE_VALIDATION_ACTION&#45;&gt;_GH__CASEWORK__CASE_IMPLEMENTATON_PYPI_PILLOW -->
<g id="edge18" class="edge">
<title>_GH__KCHASON__CASE_VALIDATION_ACTION&#45;&gt;_GH__CASEWORK__CASE_IMPLEMENTATON_PYPI_PILLOW</title>
<path fill="none" stroke="black" d="M802.24,-669.23C816.32,-665.61 829.69,-659.14 839,-648 872.29,-608.14 821.99,-219.35 857,-181 885.22,-150.08 928.46,-139.32 969.86,-137.46"/>
<polygon fill="black" stroke="black" points="969.77,-140.96 979.67,-137.2 969.58,-133.96 969.77,-140.96"/>
<text text-anchor="middle" x="896.5" y="-199.8" font-family="Times,serif" font-size="14.00">GitHub</text>
<text text-anchor="middle" x="896.5" y="-184.8" font-family="Times,serif" font-size="14.00">Action</text>
</g>
<!-- _GH__KCHASON__CASE_VALIDATION_ACTION&#45;&gt;_GH__CASEWORK__CASE_IMPLEMENTATON_XRY -->
<g id="edge20" class="edge">
<title>_GH__KCHASON__CASE_VALIDATION_ACTION&#45;&gt;_GH__CASEWORK__CASE_IMPLEMENTATON_XRY</title>
<path fill="none" stroke="black" d="M802.41,-663.38C815.22,-659.96 828.03,-655.05 839,-648 900.78,-608.29 1023.01,-420.61 1068.97,-347.89"/>
<polygon fill="black" stroke="black" points="1071.76,-350.02 1074.12,-339.7 1065.83,-346.29 1071.76,-350.02"/>
<text text-anchor="middle" x="896.5" y="-649.8" font-family="Times,serif" font-size="14.00">GitHub</text>
<text text-anchor="middle" x="896.5" y="-634.8" font-family="Times,serif" font-size="14.00">Action</text>
</g>
<!-- _GH__KCHASON__CASE_VALIDATION_ACTION&#45;&gt;_GH__CASEWORK__CASE_MAPPING_TEMPLATE_PYTHON -->
<g id="edge21" class="edge">
<title>_GH__KCHASON__CASE_VALIDATION_ACTION&#45;&gt;_GH__CASEWORK__CASE_MAPPING_TEMPLATE_PYTHON</title>
<path fill="none" stroke="black" d="M802.32,-668.38C816.13,-664.75 829.37,-658.49 839,-648 859.61,-625.54 849.36,-541.51 857,-512 883.45,-409.81 862.9,-358.56 944,-291 953.23,-283.31 963.95,-277.52 975.29,-273.17"/>
<polygon fill="black" stroke="black" points="976.09,-276.6 984.43,-270.06 973.83,-269.97 976.09,-276.6"/>
<text text-anchor="middle" x="896.5" y="-530.8" font-family="Times,serif" font-size="14.00">GitHub</text>
<text text-anchor="middle" x="896.5" y="-515.8" font-family="Times,serif" font-size="14.00">Action</text>
</g>
<!-- _GH__KCHASON__CASE_VALIDATION_ACTION&#45;&gt;_GH__CASEWORK__CASE_IMPLEMENTATON_UFED_XML -->
<g id="edge19" class="edge">
<title>_GH__KCHASON__CASE_VALIDATION_ACTION&#45;&gt;_GH__CASEWORK__CASE_IMPLEMENTATON_UFED_XML</title>
<path fill="none" stroke="black" d="M802.44,-669.7C820.18,-669.41 839.31,-669.14 857,-669 892.85,-668.71 931.84,-668.62 967.37,-668.63"/>
<polygon fill="black" stroke="black" points="967.25,-672.13 977.26,-668.63 967.26,-665.13 967.25,-672.13"/>
<text text-anchor="middle" x="896.5" y="-687.8" font-family="Times,serif" font-size="14.00">GitHub</text>
<text text-anchor="middle" x="896.5" y="-672.8" font-family="Times,serif" font-size="14.00">Action</text>
</g>
<!-- _GH__CASEWORK__CASE_BINDINGS_CSHARP_MONITOR -->
<g id="node20" class="node">
<title>_GH__CASEWORK__CASE_BINDINGS_CSHARP_MONITOR</title>
<g id="a_node20"><a xlink:href="https://github.com/casework/CASE-Bindings-CSharp-Monitor" xlink:title="CASE Bindings CSharp Monitor\ntests NuGet package with validation action">
<path fill="#8ec7d2" stroke="#0d6986" d="M1201.5,-789C1201.5,-789 974.5,-789 974.5,-789 968.5,-789 962.5,-783 962.5,-777 962.5,-777 962.5,-763 962.5,-763 962.5,-757 968.5,-751 974.5,-751 974.5,-751 1201.5,-751 1201.5,-751 1207.5,-751 1213.5,-757 1213.5,-763 1213.5,-763 1213.5,-777 1213.5,-777 1213.5,-783 1207.5,-789 1201.5,-789"/>
<text text-anchor="middle" x="1088" y="-773.8" font-family="Times,serif" font-size="14.00">CASE Bindings CSharp Monitor</text>
<text text-anchor="middle" x="1088" y="-758.8" font-family="Times,serif" font-size="14.00">tests NuGet package with validation action</text>
</a>
</g>
</g>
<!-- _GH__KCHASON__CASE_VALIDATION_ACTION&#45;&gt;_GH__CASEWORK__CASE_BINDINGS_CSHARP_MONITOR -->
<g id="edge16" class="edge">
<title>_GH__KCHASON__CASE_VALIDATION_ACTION&#45;&gt;_GH__CASEWORK__CASE_BINDINGS_CSHARP_MONITOR</title>
<path fill="none" stroke="black" d="M802.26,-686.69C852.09,-699.29 914.86,-717.55 936,-734 941.35,-738.17 938.36,-743.23 944,-747 946.6,-748.74 949.29,-750.37 952.06,-751.89"/>
<polygon fill="black" stroke="black" points="950.46,-755 960.98,-756.26 953.54,-748.71 950.46,-755"/>
<text text-anchor="middle" x="896.5" y="-752.8" font-family="Times,serif" font-size="14.00">GitHub</text>
<text text-anchor="middle" x="896.5" y="-737.8" font-family="Times,serif" font-size="14.00">Action</text>
</g>
<!-- _GH__DOD_CYBER_CRIME_CENTER__SQLITE_DISSECT -->
<g id="node22" class="node">
<title>_GH__DOD_CYBER_CRIME_CENTER__SQLITE_DISSECT</title>
<g id="a_node22"><a xlink:href="https://github.com/dod-cyber-crime-center/sqlite-dissect" xlink:title="sqlite&#45;dissect\nadopts new case&#45;validation&#45;action">
<path fill="#8ec7d2" stroke="#0d6986" d="M1176.5,-92C1176.5,-92 999.5,-92 999.5,-92 993.5,-92 987.5,-86 987.5,-80 987.5,-80 987.5,-66 987.5,-66 987.5,-60 993.5,-54 999.5,-54 999.5,-54 1176.5,-54 1176.5,-54 1182.5,-54 1188.5,-60 1188.5,-66 1188.5,-66 1188.5,-80 1188.5,-80 1188.5,-86 1182.5,-92 1176.5,-92"/>
<text text-anchor="middle" x="1088" y="-76.8" font-family="Times,serif" font-size="14.00">sqlite&#45;dissect</text>
<text text-anchor="middle" x="1088" y="-61.8" font-family="Times,serif" font-size="14.00">adopts new case&#45;validation&#45;action</text>
</a>
</g>
</g>
<!-- _GH__KCHASON__CASE_VALIDATION_ACTION&#45;&gt;_GH__DOD_CYBER_CRIME_CENTER__SQLITE_DISSECT -->
<g id="edge22" class="edge">
<title>_GH__KCHASON__CASE_VALIDATION_ACTION&#45;&gt;_GH__DOD_CYBER_CRIME_CENTER__SQLITE_DISSECT</title>
<g id="a_edge22"><a xlink:href="https://github.com/dod-cyber-crime-center/sqlite-dissect/pull/31" xlink:title="TODO: PR 31">
<path fill="none" stroke="black" d="M802.27,-669.26C816.35,-665.64 829.72,-659.16 839,-648 876.32,-603.12 819.6,-167.81 857,-123 885.78,-88.51 932.26,-74.42 975.92,-69.57"/>
<polygon fill="black" stroke="black" points="976.11,-73.07 985.74,-68.65 975.46,-66.1 976.11,-73.07"/>
</a>
</g>
<g id="a_edge22&#45;label"><a xlink:href="https://github.com/dod-cyber-crime-center/sqlite-dissect/pull/31" xlink:title="TODO: PR 31">
<text text-anchor="middle" x="896.5" y="-126.8" font-family="Times,serif" font-size="14.00">TODO: PR 31</text>
</a>
</g>
</g>
<!-- _GH__CIPHERTECHSOLUTIONS__CASE_BINDINGS_CSHARP&#45;&gt;_GH__CASEWORK__CASE_BINDINGS_CSHARP_MONITOR -->
<g id="edge15" class="edge">
<title>_GH__CIPHERTECHSOLUTIONS__CASE_BINDINGS_CSHARP&#45;&gt;_GH__CASEWORK__CASE_BINDINGS_CSHARP_MONITOR</title>
<path fill="none" stroke="black" d="M820.98,-769.21C833.08,-769.12 845.35,-769.05 857,-769 887.41,-768.88 920.07,-768.91 950.97,-769.03"/>
<polygon fill="black" stroke="black" points="950.73,-772.53 960.75,-769.07 950.76,-765.53 950.73,-772.53"/>
<text text-anchor="middle" x="896.5" y="-772.8" font-family="Times,serif" font-size="14.00">NuGet</text>
</g>
</g>
</svg>
