<?xml version="1.0" encoding="UTF-8" standalone="no"?>
<!DOCTYPE svg PUBLIC "-//W3C//DTD SVG 1.1//EN"
 "http://www.w3.org/Graphics/SVG/1.1/DTD/svg11.dtd">
<!-- Generated by graphviz version 7.1.0 (20230121.1956)
 -->
<!-- Title: cdo_release_flow Pages: 1 -->
<svg width="1612pt" height="1015pt"
 viewBox="0.00 0.00 1612.00 1015.00" xmlns="http://www.w3.org/2000/svg" xmlns:xlink="http://www.w3.org/1999/xlink">
<g id="graph0" class="graph" transform="scale(1 1) rotate(0) translate(4 1011)">
<title>cdo_release_flow</title>
<polygon fill="white" stroke="none" points="-4,4 -4,-1011 1608,-1011 1608,4 -4,4"/>
<text text-anchor="middle" x="802" y="-38.8" font-family="Times,serif" font-size="14.00">Release flow of CDO ontologies</text>
<text text-anchor="middle" x="802" y="-7.8" font-family="Times,serif" font-size="14.00">Nodes link to the respective Git repository.</text>
<g id="clust1" class="cluster">
<title>cluster_uco_0_9_1</title>
<polygon fill="none" stroke="black" points="189,-701 189,-865 357,-865 357,-701 189,-701"/>
<text text-anchor="middle" x="273" y="-849.8" font-family="Times,serif" font-size="14.00">Adoption of UCO 0.9.1</text>
</g>
<g id="clust2" class="cluster">
<title>cluster_case_0_7_1</title>
<polygon fill="none" stroke="black" points="197,-757 197,-834 349,-834 349,-757 197,-757"/>
<text text-anchor="middle" x="273" y="-818.8" font-family="Times,serif" font-size="14.00">Adoption of CASE 0.7.1</text>
</g>
<g id="clust3" class="cluster">
<title>cluster_uco_1_1_0</title>
<polygon fill="none" stroke="black" points="440,-100 440,-865 1596,-865 1596,-100 440,-100"/>
<text text-anchor="middle" x="1018" y="-849.8" font-family="Times,serif" font-size="14.00">Adoption of UCO 1.1.0</text>
</g>
<g id="clust4" class="cluster">
<title>cluster_case_1_1_0</title>
<polygon fill="none" stroke="black" points="448,-108 448,-834 1588,-834 1588,-108 448,-108"/>
<text text-anchor="middle" x="1018" y="-818.8" font-family="Times,serif" font-size="14.00">Adoption of CASE 1.1.0</text>
</g>
<g id="clust5" class="cluster">
<title>cluster_case_utils_0_9_0</title>
<polygon fill="none" stroke="black" points="456,-116 456,-803 1580,-803 1580,-116 456,-116"/>
<text text-anchor="middle" x="1018" y="-787.8" font-family="Times,serif" font-size="14.00">Adoption of case&#45;utils 0.9.0</text>
</g>
<g id="clust7" class="cluster">
<title>cluster_case_validation_action_2_3</title>
<polygon fill="none" stroke="black" points="968.5,-197 968.5,-274 1202.5,-274 1202.5,-197 968.5,-197"/>
<text text-anchor="middle" x="1085.5" y="-258.8" font-family="Times,serif" font-size="14.00">Adoption of case&#45;validation&#45;action 2.3</text>
</g>
<g id="clust8" class="cluster">
<title>cluster_case_validation_action_2_5</title>
<polygon fill="none" stroke="black" points="637.5,-282 637.5,-650 1227,-650 1227,-282 637.5,-282"/>
<text text-anchor="middle" x="932.25" y="-634.8" font-family="Times,serif" font-size="14.00">Adoption of case&#45;validation&#45;action 2.5</text>
</g>
<g id="clust9" class="cluster">
<title>cluster_case_bindings_csharp_0_3_0</title>
<polygon fill="none" stroke="black" points="645.5,-542 645.5,-619 1219,-619 1219,-542 645.5,-542"/>
<text text-anchor="middle" x="932.25" y="-603.8" font-family="Times,serif" font-size="14.00">Adoption of CSharp bindings 0.3.0</text>
</g>
<g id="clust6" class="cluster">
<title>cluster_case_prov_0_6_0</title>
<polygon fill="none" stroke="black" points="1290,-553 1290,-630 1572,-630 1572,-553 1290,-553"/>
<text text-anchor="middle" x="1431" y="-614.8" font-family="Times,serif" font-size="14.00">Adoption of case&#45;prov 0.6.0</text>
</g>
<g id="clust10" class="cluster">
<title>cluster_uco_1_2_0</title>
<polygon fill="none" stroke="black" points="8,-873 8,-999 582,-999 582,-873 8,-873"/>
<text text-anchor="middle" x="295" y="-983.8" font-family="Times,serif" font-size="14.00">Adoption of UCO 1.2.0</text>
</g>
<g id="clust11" class="cluster">
<title>cluster_case_1_2_0</title>
<polygon fill="none" stroke="black" points="212,-881 212,-968 574,-968 574,-881 212,-881"/>
<text text-anchor="middle" x="393" y="-952.8" font-family="Times,serif" font-size="14.00">Adoption of CASE 1.2.0</text>
</g>
<!-- _GH__UCOPROJECT__ONTOLOGY_UNIFIEDCYBERONTOLOGY_ORG -->
<g id="node1" class="node">
<title>_GH__UCOPROJECT__ONTOLOGY_UNIFIEDCYBERONTOLOGY_ORG</title>
<g id="a_node1"><a xlink:href="https://github.com/ucoProject/ontology.unifiedcyberontology.org" xlink:title="UCO documentation\nregenerated">
<path fill="#8ec7d2" stroke="#0d6986" d="M326,-747C326,-747 220,-747 220,-747 214,-747 208,-741 208,-735 208,-735 208,-721 208,-721 208,-715 214,-709 220,-709 220,-709 326,-709 326,-709 332,-709 338,-715 338,-721 338,-721 338,-735 338,-735 338,-741 332,-747 326,-747"/>
<text text-anchor="middle" x="273" y="-731.8" font-family="Times,serif" font-size="14.00">UCO documentation</text>
<text text-anchor="middle" x="273" y="-716.8" font-family="Times,serif" font-size="14.00">regenerated</text>
</a>
</g>
</g>
<!-- _GH__CASEWORK__CASE_MAPPING_TEMPLATE_STUBS -->
<g id="node2" class="node">
<title>_GH__CASEWORK__CASE_MAPPING_TEMPLATE_STUBS</title>
<g id="a_node2"><a xlink:href="https://github.com/casework/CASE-Mapping-Template-Stubs" xlink:title="CASE Mapping\nTemplate Stubs">
<path fill="#8ec7d2" stroke="#0d6986" d="M313,-803C313,-803 233,-803 233,-803 227,-803 221,-797 221,-791 221,-791 221,-777 221,-777 221,-771 227,-765 233,-765 233,-765 313,-765 313,-765 319,-765 325,-771 325,-777 325,-777 325,-791 325,-791 325,-797 319,-803 313,-803"/>
<text text-anchor="middle" x="273" y="-787.8" font-family="Times,serif" font-size="14.00">CASE Mapping</text>
<text text-anchor="middle" x="273" y="-772.8" font-family="Times,serif" font-size="14.00">Template Stubs</text>
</a>
</g>
</g>
<!-- _GH__AJNELSON_NIST__CASE_EXAMPLES_QC -->
<g id="node3" class="node">
<title>_GH__AJNELSON_NIST__CASE_EXAMPLES_QC</title>
<g id="a_node3"><a xlink:href="https://github.com/ajnelson-nist/CASE-Examples-QC" xlink:title="CASE&#45;Examples&#45;QC\nadopts CASE&#45;Examples and\nCASE website updates">
<path fill="#8ec7d2" stroke="#0d6986" d="M1159.5,-182.5C1159.5,-182.5 1011.5,-182.5 1011.5,-182.5 1005.5,-182.5 999.5,-176.5 999.5,-170.5 999.5,-170.5 999.5,-141.5 999.5,-141.5 999.5,-135.5 1005.5,-129.5 1011.5,-129.5 1011.5,-129.5 1159.5,-129.5 1159.5,-129.5 1165.5,-129.5 1171.5,-135.5 1171.5,-141.5 1171.5,-141.5 1171.5,-170.5 1171.5,-170.5 1171.5,-176.5 1165.5,-182.5 1159.5,-182.5"/>
<text text-anchor="middle" x="1085.5" y="-167.3" font-family="Times,serif" font-size="14.00">CASE&#45;Examples&#45;QC</text>
<text text-anchor="middle" x="1085.5" y="-152.3" font-family="Times,serif" font-size="14.00">adopts CASE&#45;Examples and</text>
<text text-anchor="middle" x="1085.5" y="-137.3" font-family="Times,serif" font-size="14.00">CASE website updates</text>
</a>
</g>
</g>
<!-- _GH__CASEWORK__CASE_IMPLEMENTATON_PROV_O -->
<g id="node10" class="node">
<title>_GH__CASEWORK__CASE_IMPLEMENTATON_PROV_O</title>
<g id="a_node10"><a xlink:href="https://github.com/casework/CASE-Implementation-PROV-O" xlink:title="case&#45;prov\nreleases">
<path fill="#8ec7d2" stroke="#0d6986" d="M1355,-599C1355,-599 1310,-599 1310,-599 1304,-599 1298,-593 1298,-587 1298,-587 1298,-573 1298,-573 1298,-567 1304,-561 1310,-561 1310,-561 1355,-561 1355,-561 1361,-561 1367,-567 1367,-573 1367,-573 1367,-587 1367,-587 1367,-593 1361,-599 1355,-599"/>
<text text-anchor="middle" x="1332.5" y="-583.8" font-family="Times,serif" font-size="14.00">case&#45;prov</text>
<text text-anchor="middle" x="1332.5" y="-568.8" font-family="Times,serif" font-size="14.00">releases</text>
</a>
</g>
</g>
<!-- _GH__AJNELSON_NIST__CASE_EXAMPLES_QC&#45;&gt;_GH__CASEWORK__CASE_IMPLEMENTATON_PROV_O -->
<g id="edge1" class="edge">
<title>_GH__AJNELSON_NIST__CASE_EXAMPLES_QC&#45;&gt;_GH__CASEWORK__CASE_IMPLEMENTATON_PROV_O</title>
<path fill="none" stroke="black" d="M1171.92,-163.64C1192.16,-169.16 1212.15,-178.24 1227,-193 1278.35,-244.03 1315.25,-467.71 1327.28,-549.72"/>
<polygon fill="black" stroke="black" points="1323.79,-550.07 1328.69,-559.47 1330.72,-549.08 1323.79,-550.07"/>
<text text-anchor="middle" x="1257.5" y="-322.8" font-family="Times,serif" font-size="14.00">Git sub&#45;</text>
<text text-anchor="middle" x="1257.5" y="-307.8" font-family="Times,serif" font-size="14.00">module</text>
</g>
<!-- _GH__CASEWORK__CASE_EXAMPLES -->
<g id="node4" class="node">
<title>_GH__CASEWORK__CASE_EXAMPLES</title>
<g id="a_node4"><a xlink:href="https://github.com/casework/CASE-Examples" xlink:title="CASE&#45;Examples\nadopts new case&#45;utils">
<path fill="#8ec7d2" stroke="#0d6986" d="M794.5,-215C794.5,-215 685.5,-215 685.5,-215 679.5,-215 673.5,-209 673.5,-203 673.5,-203 673.5,-189 673.5,-189 673.5,-183 679.5,-177 685.5,-177 685.5,-177 794.5,-177 794.5,-177 800.5,-177 806.5,-183 806.5,-189 806.5,-189 806.5,-203 806.5,-203 806.5,-209 800.5,-215 794.5,-215"/>
<text text-anchor="middle" x="740" y="-199.8" font-family="Times,serif" font-size="14.00">CASE&#45;Examples</text>
<text text-anchor="middle" x="740" y="-184.8" font-family="Times,serif" font-size="14.00">adopts new case&#45;utils</text>
</a>
</g>
</g>
<!-- _GH__CASEWORK__CASE_EXAMPLES&#45;&gt;_GH__AJNELSON_NIST__CASE_EXAMPLES_QC -->
<g id="edge5" class="edge">
<title>_GH__CASEWORK__CASE_EXAMPLES&#45;&gt;_GH__AJNELSON_NIST__CASE_EXAMPLES_QC</title>
<path fill="none" stroke="black" d="M806.24,-176.54C819.28,-171.96 832.74,-166.72 845,-161 853.5,-157.04 853.97,-152.54 863,-150 902.86,-138.79 948.35,-138.06 987.7,-140.99"/>
<polygon fill="black" stroke="black" points="987.39,-144.48 997.65,-141.83 987.98,-137.5 987.39,-144.48"/>
<text text-anchor="middle" x="902.5" y="-168.8" font-family="Times,serif" font-size="14.00">Git sub&#45;</text>
<text text-anchor="middle" x="902.5" y="-153.8" font-family="Times,serif" font-size="14.00">module</text>
</g>
<!-- _GH__CASEWORK__CASE_IMPLEMENTATON_EXIFTOOL -->
<g id="node5" class="node">
<title>_GH__CASEWORK__CASE_IMPLEMENTATON_EXIFTOOL</title>
<g id="a_node5"><a xlink:href="https://github.com/casework/CASE-Implementation-ExifTool" xlink:title="CASE&#45;Implementation&#45;ExifTool\nadopts new case&#45;utils">
<path fill="#8ec7d2" stroke="#0d6986" d="M826,-696C826,-696 654,-696 654,-696 648,-696 642,-690 642,-684 642,-684 642,-670 642,-670 642,-664 648,-658 654,-658 654,-658 826,-658 826,-658 832,-658 838,-664 838,-670 838,-670 838,-684 838,-684 838,-690 832,-696 826,-696"/>
<text text-anchor="middle" x="740" y="-680.8" font-family="Times,serif" font-size="14.00">CASE&#45;Implementation&#45;ExifTool</text>
<text text-anchor="middle" x="740" y="-665.8" font-family="Times,serif" font-size="14.00">adopts new case&#45;utils</text>
</a>
</g>
</g>
<!-- _GH__CASEWORK__CASE_IMPLEMENTATON_GNU_TIME -->
<g id="node6" class="node">
<title>_GH__CASEWORK__CASE_IMPLEMENTATON_GNU_TIME</title>
<g id="a_node6"><a xlink:href="https://github.com/casework/CASE-Implementation-GNU-Time" xlink:title="CASE&#45;Implementation&#45;GNU&#45;Time\nadopts new case&#45;utils">
<path fill="#8ec7d2" stroke="#0d6986" d="M833,-752C833,-752 647,-752 647,-752 641,-752 635,-746 635,-740 635,-740 635,-726 635,-726 635,-720 641,-714 647,-714 647,-714 833,-714 833,-714 839,-714 845,-720 845,-726 845,-726 845,-740 845,-740 845,-746 839,-752 833,-752"/>
<text text-anchor="middle" x="740" y="-736.8" font-family="Times,serif" font-size="14.00">CASE&#45;Implementation&#45;GNU&#45;Time</text>
<text text-anchor="middle" x="740" y="-721.8" font-family="Times,serif" font-size="14.00">adopts new case&#45;utils</text>
</a>
</g>
</g>
<!-- _GH__CASEWORK__CASE_UTILITIES_PYTHON -->
<g id="node7" class="node">
<title>_GH__CASEWORK__CASE_UTILITIES_PYTHON</title>
<g id="a_node7"><a xlink:href="https://github.com/casework/CASE-Utilities-Python" xlink:title="case&#45;utils\nreleases">
<path fill="#8ec7d2" stroke="#0d6986" d="M520,-509C520,-509 476,-509 476,-509 470,-509 464,-503 464,-497 464,-497 464,-483 464,-483 464,-477 470,-471 476,-471 476,-471 520,-471 520,-471 526,-471 532,-477 532,-483 532,-483 532,-497 532,-497 532,-503 526,-509 520,-509"/>
<text text-anchor="middle" x="498" y="-493.8" font-family="Times,serif" font-size="14.00">case&#45;utils</text>
<text text-anchor="middle" x="498" y="-478.8" font-family="Times,serif" font-size="14.00">releases</text>
</a>
</g>
</g>
<!-- _GH__CASEWORK__CASE_UTILITIES_PYTHON&#45;&gt;_GH__AJNELSON_NIST__CASE_EXAMPLES_QC -->
<g id="edge7" class="edge">
<title>_GH__CASEWORK__CASE_UTILITIES_PYTHON&#45;&gt;_GH__AJNELSON_NIST__CASE_EXAMPLES_QC</title>
<path fill="none" stroke="black" d="M499.67,-470.84C502.94,-410.8 522.14,-225.95 635,-153 749.79,-78.8 805.69,-125.01 942,-135 956.95,-136.1 972.71,-137.83 988.09,-139.84"/>
<polygon fill="black" stroke="black" points="987.32,-143.27 997.7,-141.15 988.26,-136.33 987.32,-143.27"/>
<text text-anchor="middle" x="740" y="-156.8" font-family="Times,serif" font-size="14.00">PyPI</text>
</g>
<!-- _GH__CASEWORK__CASE_UTILITIES_PYTHON&#45;&gt;_GH__CASEWORK__CASE_EXAMPLES -->
<g id="edge8" class="edge">
<title>_GH__CASEWORK__CASE_UTILITIES_PYTHON&#45;&gt;_GH__CASEWORK__CASE_EXAMPLES</title>
<path fill="none" stroke="black" d="M502.07,-470.86C511.34,-420.12 544.26,-282.18 635,-226 643.42,-220.79 652.77,-216.45 662.32,-212.85"/>
<polygon fill="black" stroke="black" points="663.43,-216.17 671.72,-209.59 661.13,-209.56 663.43,-216.17"/>
<text text-anchor="middle" x="603.5" y="-264.8" font-family="Times,serif" font-size="14.00">PyPI</text>
</g>
<!-- _GH__CASEWORK__CASE_UTILITIES_PYTHON&#45;&gt;_GH__CASEWORK__CASE_IMPLEMENTATON_EXIFTOOL -->
<g id="edge9" class="edge">
<title>_GH__CASEWORK__CASE_UTILITIES_PYTHON&#45;&gt;_GH__CASEWORK__CASE_IMPLEMENTATON_EXIFTOOL</title>
<path fill="none" stroke="black" d="M515.51,-509.45C539.7,-537.12 587.11,-588.34 635,-623 650.22,-634.02 667.99,-644.11 684.49,-652.51"/>
<polygon fill="black" stroke="black" points="682.7,-655.53 693.21,-656.85 685.81,-649.26 682.7,-655.53"/>
<text text-anchor="middle" x="603.5" y="-610.8" font-family="Times,serif" font-size="14.00">PyPI</text>
</g>
<!-- _GH__CASEWORK__CASE_UTILITIES_PYTHON&#45;&gt;_GH__CASEWORK__CASE_IMPLEMENTATON_GNU_TIME -->
<g id="edge10" class="edge">
<title>_GH__CASEWORK__CASE_UTILITIES_PYTHON&#45;&gt;_GH__CASEWORK__CASE_IMPLEMENTATON_GNU_TIME</title>
<path fill="none" stroke="black" d="M505.7,-509.48C521.31,-551.87 564.23,-652.87 635,-705 636.36,-706.01 637.76,-706.97 639.19,-707.91"/>
<polygon fill="black" stroke="black" points="637.28,-710.85 647.69,-712.82 640.79,-704.79 637.28,-710.85"/>
<text text-anchor="middle" x="603.5" y="-690.8" font-family="Times,serif" font-size="14.00">PyPI</text>
</g>
<!-- _GH__CASEWORK__CASEWORK_GITHUB_IO -->
<g id="node8" class="node">
<title>_GH__CASEWORK__CASEWORK_GITHUB_IO</title>
<g id="a_node8"><a xlink:href="https://github.com/casework/casework.github.io" xlink:title="CASE website\nadopts new case&#45;utils">
<path fill="#8ec7d2" stroke="#0d6986" d="M794.5,-273C794.5,-273 685.5,-273 685.5,-273 679.5,-273 673.5,-267 673.5,-261 673.5,-261 673.5,-247 673.5,-247 673.5,-241 679.5,-235 685.5,-235 685.5,-235 794.5,-235 794.5,-235 800.5,-235 806.5,-241 806.5,-247 806.5,-247 806.5,-261 806.5,-261 806.5,-267 800.5,-273 794.5,-273"/>
<text text-anchor="middle" x="740" y="-257.8" font-family="Times,serif" font-size="14.00">CASE website</text>
<text text-anchor="middle" x="740" y="-242.8" font-family="Times,serif" font-size="14.00">adopts new case&#45;utils</text>
</a>
</g>
</g>
<!-- _GH__CASEWORK__CASE_UTILITIES_PYTHON&#45;&gt;_GH__CASEWORK__CASEWORK_GITHUB_IO -->
<g id="edge13" class="edge">
<title>_GH__CASEWORK__CASE_UTILITIES_PYTHON&#45;&gt;_GH__CASEWORK__CASEWORK_GITHUB_IO</title>
<path fill="none" stroke="black" d="M505.64,-470.6C521.14,-428.42 563.86,-328.11 635,-278 643.15,-272.26 652.46,-267.88 662.08,-264.53"/>
<polygon fill="black" stroke="black" points="663.06,-267.89 671.6,-261.61 661.01,-261.2 663.06,-267.89"/>
<text text-anchor="middle" x="603.5" y="-322.8" font-family="Times,serif" font-size="14.00">PyPI</text>
</g>
<!-- _GH__CASEWORK__CASE_UTILITIES_PYTHON&#45;&gt;_GH__CASEWORK__CASE_IMPLEMENTATON_PROV_O -->
<g id="edge11" class="edge">
<title>_GH__CASEWORK__CASE_UTILITIES_PYTHON&#45;&gt;_GH__CASEWORK__CASE_IMPLEMENTATON_PROV_O</title>
<path fill="none" stroke="black" d="M501.02,-509.29C507.85,-563.07 535.58,-713.89 635,-761 872.58,-873.58 1190.19,-678.78 1295.73,-605.87"/>
<polygon fill="black" stroke="black" points="1297.55,-608.87 1303.75,-600.27 1293.54,-603.13 1297.55,-608.87"/>
<text text-anchor="middle" x="902.5" y="-793.8" font-family="Times,serif" font-size="14.00">PyPI</text>
</g>
<!-- _GH__KCHASON__CASE_VALIDATION_ACTION -->
<g id="node16" class="node">
<title>_GH__KCHASON__CASE_VALIDATION_ACTION</title>
<g id="a_node16"><a xlink:href="https://github.com/kchason/case-validation-action" xlink:title="case&#45;validation&#45;action\nreleases">
<path fill="#8ec7d2" stroke="#0d6986" d="M796,-406C796,-406 684,-406 684,-406 678,-406 672,-400 672,-394 672,-394 672,-380 672,-380 672,-374 678,-368 684,-368 684,-368 796,-368 796,-368 802,-368 808,-374 808,-380 808,-380 808,-394 808,-394 808,-400 802,-406 796,-406"/>
<text text-anchor="middle" x="740" y="-390.8" font-family="Times,serif" font-size="14.00">case&#45;validation&#45;action</text>
<text text-anchor="middle" x="740" y="-375.8" font-family="Times,serif" font-size="14.00">releases</text>
</a>
</g>
</g>
<!-- _GH__CASEWORK__CASE_UTILITIES_PYTHON&#45;&gt;_GH__KCHASON__CASE_VALIDATION_ACTION -->
<g id="edge12" class="edge">
<title>_GH__CASEWORK__CASE_UTILITIES_PYTHON&#45;&gt;_GH__KCHASON__CASE_VALIDATION_ACTION</title>
<path fill="none" stroke="black" d="M532.37,-475.68C571.33,-458.96 636.36,-431.05 683.07,-411"/>
<polygon fill="black" stroke="black" points="684.43,-414.23 692.24,-407.07 681.67,-407.8 684.43,-414.23"/>
<text text-anchor="middle" x="603.5" y="-453.8" font-family="Times,serif" font-size="14.00">PyPI</text>
</g>
<!-- _GH__CASEWORK__CASEWORK_GITHUB_IO&#45;&gt;_GH__AJNELSON_NIST__CASE_EXAMPLES_QC -->
<g id="edge14" class="edge">
<title>_GH__CASEWORK__CASEWORK_GITHUB_IO&#45;&gt;_GH__AJNELSON_NIST__CASE_EXAMPLES_QC</title>
<path fill="none" stroke="black" d="M806.77,-241.3C820.05,-237.05 833.46,-231.42 845,-224 855.34,-217.35 852.43,-209.27 863,-203 874.25,-196.32 933.66,-183.89 988.12,-173.48"/>
<polygon fill="black" stroke="black" points="988.63,-176.95 997.8,-171.65 987.32,-170.07 988.63,-176.95"/>
<text text-anchor="middle" x="902.5" y="-221.8" font-family="Times,serif" font-size="14.00">Git sub&#45;</text>
<text text-anchor="middle" x="902.5" y="-206.8" font-family="Times,serif" font-size="14.00">module</text>
</g>
<!-- _GH__CASEWORK__CASE_CORPORA -->
<g id="node9" class="node">
<title>_GH__CASEWORK__CASE_CORPORA</title>
<g id="a_node9"><a xlink:href="https://github.com/casework/CASE-Corpora" xlink:title="CASE&#45;Corpora\nadopts new case&#45;prov">
<path fill="#8ec7d2" stroke="#0d6986" d="M1552,-599C1552,-599 1442,-599 1442,-599 1436,-599 1430,-593 1430,-587 1430,-587 1430,-573 1430,-573 1430,-567 1436,-561 1442,-561 1442,-561 1552,-561 1552,-561 1558,-561 1564,-567 1564,-573 1564,-573 1564,-587 1564,-587 1564,-593 1558,-599 1552,-599"/>
<text text-anchor="middle" x="1497" y="-583.8" font-family="Times,serif" font-size="14.00">CASE&#45;Corpora</text>
<text text-anchor="middle" x="1497" y="-568.8" font-family="Times,serif" font-size="14.00">adopts new case&#45;prov</text>
</a>
</g>
</g>
<!-- _GH__CASEWORK__CASE_IMPLEMENTATON_PROV_O&#45;&gt;_GH__CASEWORK__CASE_CORPORA -->
<g id="edge6" class="edge">
<title>_GH__CASEWORK__CASE_IMPLEMENTATON_PROV_O&#45;&gt;_GH__CASEWORK__CASE_CORPORA</title>
<path fill="none" stroke="black" d="M1367.17,-580C1382.03,-580 1400.18,-580 1418.11,-580"/>
<polygon fill="black" stroke="black" points="1418,-583.5 1428,-580 1418,-576.5 1418,-583.5"/>
<text text-anchor="middle" x="1398.5" y="-583.8" font-family="Times,serif" font-size="14.00">PyPI</text>
</g>
<!-- _GH__CASEWORK__CASE_IMPLEMENTATON_UFED_XML -->
<g id="node11" class="node">
<title>_GH__CASEWORK__CASE_IMPLEMENTATON_UFED_XML</title>
<g id="a_node11"><a xlink:href="https://github.com/casework/CASE-Implementation-UFED-XML" xlink:title="CASE&#45;Implementation&#45;UFED&#45;XML\nadopts new case&#45;validation&#45;action">
<path fill="#8ec7d2" stroke="#0d6986" d="M1182.5,-243C1182.5,-243 988.5,-243 988.5,-243 982.5,-243 976.5,-237 976.5,-231 976.5,-231 976.5,-217 976.5,-217 976.5,-211 982.5,-205 988.5,-205 988.5,-205 1182.5,-205 1182.5,-205 1188.5,-205 1194.5,-211 1194.5,-217 1194.5,-217 1194.5,-231 1194.5,-231 1194.5,-237 1188.5,-243 1182.5,-243"/>
<text text-anchor="middle" x="1085.5" y="-227.8" font-family="Times,serif" font-size="14.00">CASE&#45;Implementation&#45;UFED&#45;XML</text>
<text text-anchor="middle" x="1085.5" y="-212.8" font-family="Times,serif" font-size="14.00">adopts new case&#45;validation&#45;action</text>
</a>
</g>
</g>
<!-- _GH__CASEWORK__CASE_IMPLEMENTATON_PYPI_EXIFREAD -->
<g id="node12" class="node">
<title>_GH__CASEWORK__CASE_IMPLEMENTATON_PYPI_EXIFREAD</title>
<g id="a_node12"><a xlink:href="https://github.com/casework/CASE-Implementation-PyPI-Exifread" xlink:title="CASE&#45;Implementation&#45;PyPI&#45;Exifread\nadopts new case&#45;validation&#45;action">
<path fill="#8ec7d2" stroke="#0d6986" d="M1185.5,-328C1185.5,-328 985.5,-328 985.5,-328 979.5,-328 973.5,-322 973.5,-316 973.5,-316 973.5,-302 973.5,-302 973.5,-296 979.5,-290 985.5,-290 985.5,-290 1185.5,-290 1185.5,-290 1191.5,-290 1197.5,-296 1197.5,-302 1197.5,-302 1197.5,-316 1197.5,-316 1197.5,-322 1191.5,-328 1185.5,-328"/>
<text text-anchor="middle" x="1085.5" y="-312.8" font-family="Times,serif" font-size="14.00">CASE&#45;Implementation&#45;PyPI&#45;Exifread</text>
<text text-anchor="middle" x="1085.5" y="-297.8" font-family="Times,serif" font-size="14.00">adopts new case&#45;validation&#45;action</text>
</a>
</g>
</g>
<!-- _GH__CASEWORK__CASE_IMPLEMENTATON_PYPI_PILLOW -->
<g id="node13" class="node">
<title>_GH__CASEWORK__CASE_IMPLEMENTATON_PYPI_PILLOW</title>
<g id="a_node13"><a xlink:href="https://github.com/casework/CASE-Implementation-PyPI-Pillow" xlink:title="CASE&#45;Implementation&#45;PyPI&#45;Pillow\nadopts new case&#45;validation&#45;action">
<path fill="#8ec7d2" stroke="#0d6986" d="M1180,-384C1180,-384 991,-384 991,-384 985,-384 979,-378 979,-372 979,-372 979,-358 979,-358 979,-352 985,-346 991,-346 991,-346 1180,-346 1180,-346 1186,-346 1192,-352 1192,-358 1192,-358 1192,-372 1192,-372 1192,-378 1186,-384 1180,-384"/>
<text text-anchor="middle" x="1085.5" y="-368.8" font-family="Times,serif" font-size="14.00">CASE&#45;Implementation&#45;PyPI&#45;Pillow</text>
<text text-anchor="middle" x="1085.5" y="-353.8" font-family="Times,serif" font-size="14.00">adopts new case&#45;validation&#45;action</text>
</a>
</g>
</g>
<!-- _GH__CASEWORK__CASE_IMPLEMENTATON_XRY -->
<g id="node14" class="node">
<title>_GH__CASEWORK__CASE_IMPLEMENTATON_XRY</title>
<g id="a_node14"><a xlink:href="https://github.com/casework/CASE-Implementation-XRY" xlink:title="CASE&#45;Implementation&#45;XRY adopts\nnew case&#45;validation&#45;action">
<path fill="#8ec7d2" stroke="#0d6986" d="M1180.5,-440C1180.5,-440 990.5,-440 990.5,-440 984.5,-440 978.5,-434 978.5,-428 978.5,-428 978.5,-414 978.5,-414 978.5,-408 984.5,-402 990.5,-402 990.5,-402 1180.5,-402 1180.5,-402 1186.5,-402 1192.5,-408 1192.5,-414 1192.5,-414 1192.5,-428 1192.5,-428 1192.5,-434 1186.5,-440 1180.5,-440"/>
<text text-anchor="middle" x="1085.5" y="-424.8" font-family="Times,serif" font-size="14.00">CASE&#45;Implementation&#45;XRY adopts</text>
<text text-anchor="middle" x="1085.5" y="-409.8" font-family="Times,serif" font-size="14.00">new case&#45;validation&#45;action</text>
</a>
</g>
</g>
<!-- _GH__CASEWORK__CASE_MAPPING_TEMPLATE_PYTHON -->
<g id="node15" class="node">
<title>_GH__CASEWORK__CASE_MAPPING_TEMPLATE_PYTHON</title>
<g id="a_node15"><a xlink:href="https://github.com/casework/CASE-Mapping-Template-Python" xlink:title="CASE&#45;Mapping&#45;Template&#45;Python\nadopts new case&#45;validation&#45;action">
<path fill="#8ec7d2" stroke="#0d6986" d="M1175.5,-496C1175.5,-496 995.5,-496 995.5,-496 989.5,-496 983.5,-490 983.5,-484 983.5,-484 983.5,-470 983.5,-470 983.5,-464 989.5,-458 995.5,-458 995.5,-458 1175.5,-458 1175.5,-458 1181.5,-458 1187.5,-464 1187.5,-470 1187.5,-470 1187.5,-484 1187.5,-484 1187.5,-490 1181.5,-496 1175.5,-496"/>
<text text-anchor="middle" x="1085.5" y="-480.8" font-family="Times,serif" font-size="14.00">CASE&#45;Mapping&#45;Template&#45;Python</text>
<text text-anchor="middle" x="1085.5" y="-465.8" font-family="Times,serif" font-size="14.00">adopts new case&#45;validation&#45;action</text>
</a>
</g>
</g>
<!-- _GH__KCHASON__CASE_VALIDATION_ACTION&#45;&gt;_GH__CASEWORK__CASE_IMPLEMENTATON_UFED_XML -->
<g id="edge19" class="edge">
<title>_GH__KCHASON__CASE_VALIDATION_ACTION&#45;&gt;_GH__CASEWORK__CASE_IMPLEMENTATON_UFED_XML</title>
<path fill="none" stroke="black" d="M808.26,-384C821.99,-380.38 835.21,-374.22 845,-364 876.84,-330.76 830.37,-294.47 863,-262 878.17,-246.9 921.01,-237.77 965.03,-232.26"/>
<polygon fill="black" stroke="black" points="965.2,-235.76 974.72,-231.11 964.38,-228.81 965.2,-235.76"/>
<text text-anchor="middle" x="902.5" y="-280.8" font-family="Times,serif" font-size="14.00">GitHub</text>
<text text-anchor="middle" x="902.5" y="-265.8" font-family="Times,serif" font-size="14.00">Action</text>
</g>
<!-- _GH__KCHASON__CASE_VALIDATION_ACTION&#45;&gt;_GH__CASEWORK__CASE_IMPLEMENTATON_PYPI_EXIFREAD -->
<g id="edge17" class="edge">
<title>_GH__KCHASON__CASE_VALIDATION_ACTION&#45;&gt;_GH__CASEWORK__CASE_IMPLEMENTATON_PYPI_EXIFREAD</title>
<path fill="none" stroke="black" d="M808.4,-381.6C821.57,-378.05 834.53,-372.52 845,-364 860.12,-351.7 847,-335.13 863,-324 891.55,-304.14 927.49,-296.42 962.07,-294.74"/>
<polygon fill="black" stroke="black" points="961.84,-298.25 971.72,-294.45 961.62,-291.25 961.84,-298.25"/>
<text text-anchor="middle" x="902.5" y="-342.8" font-family="Times,serif" font-size="14.00">GitHub</text>
<text text-anchor="middle" x="902.5" y="-327.8" font-family="Times,serif" font-size="14.00">Action</text>
</g>
<!-- _GH__KCHASON__CASE_VALIDATION_ACTION&#45;&gt;_GH__CASEWORK__CASE_IMPLEMENTATON_PYPI_PILLOW -->
<g id="edge18" class="edge">
<title>_GH__KCHASON__CASE_VALIDATION_ACTION&#45;&gt;_GH__CASEWORK__CASE_IMPLEMENTATON_PYPI_PILLOW</title>
<path fill="none" stroke="black" d="M808.38,-370.66C826.05,-367.07 845.15,-363.81 863,-362 896.77,-358.58 933.59,-357.87 967.34,-358.41"/>
<polygon fill="black" stroke="black" points="967.08,-361.91 977.14,-358.61 967.22,-354.91 967.08,-361.91"/>
<text text-anchor="middle" x="902.5" y="-380.8" font-family="Times,serif" font-size="14.00">GitHub</text>
<text text-anchor="middle" x="902.5" y="-365.8" font-family="Times,serif" font-size="14.00">Action</text>
</g>
<!-- _GH__KCHASON__CASE_VALIDATION_ACTION&#45;&gt;_GH__CASEWORK__CASE_IMPLEMENTATON_XRY -->
<g id="edge20" class="edge">
<title>_GH__KCHASON__CASE_VALIDATION_ACTION&#45;&gt;_GH__CASEWORK__CASE_IMPLEMENTATON_XRY</title>
<path fill="none" stroke="black" d="M808.45,-393.68C853.6,-398.15 914.22,-404.15 967.15,-409.38"/>
<polygon fill="black" stroke="black" points="966.52,-412.84 976.82,-410.34 967.21,-405.87 966.52,-412.84"/>
<text text-anchor="middle" x="902.5" y="-424.8" font-family="Times,serif" font-size="14.00">GitHub</text>
<text text-anchor="middle" x="902.5" y="-409.8" font-family="Times,serif" font-size="14.00">Action</text>
</g>
<!-- _GH__KCHASON__CASE_VALIDATION_ACTION&#45;&gt;_GH__CASEWORK__CASE_MAPPING_TEMPLATE_PYTHON -->
<g id="edge21" class="edge">
<title>_GH__KCHASON__CASE_VALIDATION_ACTION&#45;&gt;_GH__CASEWORK__CASE_MAPPING_TEMPLATE_PYTHON</title>
<path fill="none" stroke="black" d="M779.11,-406.43C802.72,-417.74 833.99,-431.42 863,-440 897.83,-450.31 936.65,-458.01 971.93,-463.64"/>
<polygon fill="black" stroke="black" points="971.34,-467.09 981.76,-465.17 972.42,-460.18 971.34,-467.09"/>
<text text-anchor="middle" x="902.5" y="-476.8" font-family="Times,serif" font-size="14.00">GitHub</text>
<text text-anchor="middle" x="902.5" y="-461.8" font-family="Times,serif" font-size="14.00">Action</text>
</g>
<!-- _GH__CASEWORK__CASE_BINDINGS_CSHARP_MONITOR -->
<g id="node17" class="node">
<title>_GH__CASEWORK__CASE_BINDINGS_CSHARP_MONITOR</title>
<g id="a_node17"><a xlink:href="https://github.com/casework/CASE-Bindings-CSharp-Monitor" xlink:title="CASE Bindings CSharp Monitor\ntests NuGet package with validation action">
<path fill="#8ec7d2" stroke="#0d6986" d="M1199,-588C1199,-588 972,-588 972,-588 966,-588 960,-582 960,-576 960,-576 960,-562 960,-562 960,-556 966,-550 972,-550 972,-550 1199,-550 1199,-550 1205,-550 1211,-556 1211,-562 1211,-562 1211,-576 1211,-576 1211,-582 1205,-588 1199,-588"/>
<text text-anchor="middle" x="1085.5" y="-572.8" font-family="Times,serif" font-size="14.00">CASE Bindings CSharp Monitor</text>
<text text-anchor="middle" x="1085.5" y="-557.8" font-family="Times,serif" font-size="14.00">tests NuGet package with validation action</text>
</a>
</g>
</g>
<!-- _GH__KCHASON__CASE_VALIDATION_ACTION&#45;&gt;_GH__CASEWORK__CASE_BINDINGS_CSHARP_MONITOR -->
<g id="edge16" class="edge">
<title>_GH__KCHASON__CASE_VALIDATION_ACTION&#45;&gt;_GH__CASEWORK__CASE_BINDINGS_CSHARP_MONITOR</title>
<path fill="none" stroke="black" d="M760.55,-406.37C783.72,-428.7 824.11,-465.7 863,-492 895.77,-514.16 908.32,-512.25 942,-533 948.37,-536.92 950.21,-540.14 958.59,-544.7"/>
<polygon fill="black" stroke="black" points="957.06,-547.85 967.61,-548.92 960.03,-541.51 957.06,-547.85"/>
<text text-anchor="middle" x="902.5" y="-551.8" font-family="Times,serif" font-size="14.00">GitHub</text>
<text text-anchor="middle" x="902.5" y="-536.8" font-family="Times,serif" font-size="14.00">Action</text>
</g>
<!-- _GH__DOD_CYBER_CRIME_CENTER__SQLITE_DISSECT -->
<g id="node22" class="node">
<title>_GH__DOD_CYBER_CRIME_CENTER__SQLITE_DISSECT</title>
<g id="a_node22"><a xlink:href="https://github.com/dod-cyber-crime-center/sqlite-dissect" xlink:title="sqlite&#45;dissect\nadopts new case&#45;validation&#45;action">
<path fill="#8ec7d2" stroke="#0d6986" d="M1174,-92C1174,-92 997,-92 997,-92 991,-92 985,-86 985,-80 985,-80 985,-66 985,-66 985,-60 991,-54 997,-54 997,-54 1174,-54 1174,-54 1180,-54 1186,-60 1186,-66 1186,-66 1186,-80 1186,-80 1186,-86 1180,-92 1174,-92"/>
<text text-anchor="middle" x="1085.5" y="-76.8" font-family="Times,serif" font-size="14.00">sqlite&#45;dissect</text>
<text text-anchor="middle" x="1085.5" y="-61.8" font-family="Times,serif" font-size="14.00">adopts new case&#45;validation&#45;action</text>
</a>
</g>
</g>
<!-- _GH__KCHASON__CASE_VALIDATION_ACTION&#45;&gt;_GH__DOD_CYBER_CRIME_CENTER__SQLITE_DISSECT -->
<g id="edge22" class="edge">
<title>_GH__KCHASON__CASE_VALIDATION_ACTION&#45;&gt;_GH__DOD_CYBER_CRIME_CENTER__SQLITE_DISSECT</title>
<g id="a_edge22"><a xlink:href="https://github.com/dod-cyber-crime-center/sqlite-dissect/pull/31" xlink:title="TODO: PR 31">
<path fill="none" stroke="black" d="M808.28,-384.97C822.27,-381.34 835.6,-374.94 845,-364 883.77,-318.91 821.81,-139.9 863,-97 891.04,-67.8 933.18,-58.46 973.2,-57.63"/>
<polygon fill="black" stroke="black" points="973.18,-61.13 983.18,-57.62 973.17,-54.13 973.18,-61.13"/>
</a>
</g>
<g id="a_edge22&#45;label"><a xlink:href="https://github.com/dod-cyber-crime-center/sqlite-dissect/pull/31" xlink:title="TODO: PR 31">
<text text-anchor="middle" x="902.5" y="-100.8" font-family="Times,serif" font-size="14.00">TODO: PR 31</text>
</a>
</g>
</g>
<!-- _GH__CIPHERTECHSOLUTIONS__CASE_BINDINGS_CSHARP -->
<g id="node18" class="node">
<title>_GH__CIPHERTECHSOLUTIONS__CASE_BINDINGS_CSHARP</title>
<g id="a_node18"><a xlink:href="https://github.com/ciphertechsolutions/CASE-Bindings-CSharp" xlink:title="CASE&#45;Bindings&#45;CSharp\nadopts new ontology version">
<path fill="#8ec7d2" stroke="#0d6986" d="M814.5,-588C814.5,-588 665.5,-588 665.5,-588 659.5,-588 653.5,-582 653.5,-576 653.5,-576 653.5,-562 653.5,-562 653.5,-556 659.5,-550 665.5,-550 665.5,-550 814.5,-550 814.5,-550 820.5,-550 826.5,-556 826.5,-562 826.5,-562 826.5,-576 826.5,-576 826.5,-582 820.5,-588 814.5,-588"/>
<text text-anchor="middle" x="740" y="-572.8" font-family="Times,serif" font-size="14.00">CASE&#45;Bindings&#45;CSharp</text>
<text text-anchor="middle" x="740" y="-557.8" font-family="Times,serif" font-size="14.00">adopts new ontology version</text>
</a>
</g>
</g>
<!-- _GH__CIPHERTECHSOLUTIONS__CASE_BINDINGS_CSHARP&#45;&gt;_GH__CASEWORK__CASE_BINDINGS_CSHARP_MONITOR -->
<g id="edge15" class="edge">
<title>_GH__CIPHERTECHSOLUTIONS__CASE_BINDINGS_CSHARP&#45;&gt;_GH__CASEWORK__CASE_BINDINGS_CSHARP_MONITOR</title>
<path fill="none" stroke="black" d="M826.98,-568.21C839.08,-568.12 851.35,-568.05 863,-568 890.67,-567.89 920.28,-567.92 948.56,-568.02"/>
<polygon fill="black" stroke="black" points="948.21,-571.52 958.23,-568.05 948.24,-564.52 948.21,-571.52"/>
<text text-anchor="middle" x="902.5" y="-571.8" font-family="Times,serif" font-size="14.00">NuGet</text>
</g>
<!-- _GH__UCOPROJECT__UCO -->
<g id="node19" class="node">
<title>_GH__UCOPROJECT__UCO</title>
<g id="a_node19"><a xlink:href="https://github.com/ucoProject/UCO" xlink:title="UCO Ontology\nreleases">
<path fill="#8ec7d2" stroke="#0d6986" d="M104,-923C104,-923 28,-923 28,-923 22,-923 16,-917 16,-911 16,-911 16,-897 16,-897 16,-891 22,-885 28,-885 28,-885 104,-885 104,-885 110,-885 116,-891 116,-897 116,-897 116,-911 116,-911 116,-917 110,-923 104,-923"/>
<text text-anchor="middle" x="66" y="-907.8" font-family="Times,serif" font-size="14.00">UCO Ontology</text>
<text text-anchor="middle" x="66" y="-892.8" font-family="Times,serif" font-size="14.00">releases</text>
</a>
</g>
</g>
<!-- _GH__UCOPROJECT__UCO&#45;&gt;_GH__UCOPROJECT__ONTOLOGY_UNIFIEDCYBERONTOLOGY_ORG -->
<g id="edge24" class="edge">
<title>_GH__UCOPROJECT__UCO&#45;&gt;_GH__UCOPROJECT__ONTOLOGY_UNIFIEDCYBERONTOLOGY_ORG</title>
<path fill="none" stroke="black" d="M77.41,-884.67C95.71,-852.53 136.7,-788.16 189,-753 191.69,-751.19 194.52,-749.51 197.44,-747.94"/>
<polygon fill="black" stroke="black" points="198.78,-751.18 206.31,-743.72 195.77,-744.86 198.78,-751.18"/>
<text text-anchor="middle" x="156.5" y="-820.8" font-family="Times,serif" font-size="14.00">Git sub&#45;</text>
<text text-anchor="middle" x="156.5" y="-805.8" font-family="Times,serif" font-size="14.00">module</text>
</g>
<!-- _GH__CASEWORK__CASE -->
<g id="node20" class="node">
<title>_GH__CASEWORK__CASE</title>
<g id="a_node20"><a xlink:href="https://github.com/casework/CASE" xlink:title="CASE Ontology\nreleases">
<path fill="#8ec7d2" stroke="#0d6986" d="M314,-927C314,-927 232,-927 232,-927 226,-927 220,-921 220,-915 220,-915 220,-901 220,-901 220,-895 226,-889 232,-889 232,-889 314,-889 314,-889 320,-889 326,-895 326,-901 326,-901 326,-915 326,-915 326,-921 320,-927 314,-927"/>
<text text-anchor="middle" x="273" y="-911.8" font-family="Times,serif" font-size="14.00">CASE Ontology</text>
<text text-anchor="middle" x="273" y="-896.8" font-family="Times,serif" font-size="14.00">releases</text>
</a>
</g>
</g>
<!-- _GH__UCOPROJECT__UCO&#45;&gt;_GH__CASEWORK__CASE -->
<g id="edge23" class="edge">
<title>_GH__UCOPROJECT__UCO&#45;&gt;_GH__CASEWORK__CASE</title>
<path fill="none" stroke="black" d="M116.36,-904.96C143.98,-905.5 178.7,-906.18 208.34,-906.76"/>
<polygon fill="black" stroke="black" points="208.26,-910.26 218.33,-906.95 208.4,-903.26 208.26,-910.26"/>
<text text-anchor="middle" x="156.5" y="-924.8" font-family="Times,serif" font-size="14.00">Git sub&#45;</text>
<text text-anchor="middle" x="156.5" y="-909.8" font-family="Times,serif" font-size="14.00">module</text>
</g>
<!-- _GH__CASEWORK__CASE&#45;&gt;_GH__CASEWORK__CASE_UTILITIES_PYTHON -->
<g id="edge2" class="edge">
<title>_GH__CASEWORK__CASE&#45;&gt;_GH__CASEWORK__CASE_UTILITIES_PYTHON</title>
<path fill="none" stroke="black" d="M303.69,-888.54C321.13,-875.87 342.53,-858.01 357,-838 432.29,-733.94 474.66,-583.67 490.16,-520.15"/>
<polygon fill="black" stroke="black" points="493.47,-521.34 492.39,-510.81 486.66,-519.72 493.47,-521.34"/>
<text text-anchor="middle" x="389.5" y="-839.8" font-family="Times,serif" font-size="14.00">Git sub&#45;</text>
<text text-anchor="middle" x="389.5" y="-824.8" font-family="Times,serif" font-size="14.00">module</text>
</g>
<!-- _GH__CASEWORK__CASE&#45;&gt;_GH__CIPHERTECHSOLUTIONS__CASE_BINDINGS_CSHARP -->
<g id="edge3" class="edge">
<title>_GH__CASEWORK__CASE&#45;&gt;_GH__CIPHERTECHSOLUTIONS__CASE_BINDINGS_CSHARP</title>
<path fill="none" stroke="black" d="M307.45,-888.7C325.28,-876.55 345.79,-859.15 357,-838 358.14,-835.85 428.19,-141.63 430,-140 491.75,-84.37 556.94,-82.55 617,-140 649.63,-171.21 605.95,-511.43 635,-546 637.64,-549.14 640.6,-551.91 643.81,-554.34"/>
<polygon fill="black" stroke="black" points="641.82,-557.23 652.16,-559.57 645.54,-551.3 641.82,-557.23"/>
</g>
<!-- _GH__CASEWORK__ONTOLOGY_CASEONTOLOGY_ORG -->
<g id="node21" class="node">
<title>_GH__CASEWORK__ONTOLOGY_CASEONTOLOGY_ORG</title>
<g id="a_node21"><a xlink:href="https://github.com/casework/ontology.caseontology.org" xlink:title="CASE documentation\nregenerated">
<path fill="#8ec7d2" stroke="#0d6986" d="M554,-927C554,-927 442,-927 442,-927 436,-927 430,-921 430,-915 430,-915 430,-901 430,-901 430,-895 436,-889 442,-889 442,-889 554,-889 554,-889 560,-889 566,-895 566,-901 566,-901 566,-915 566,-915 566,-921 560,-927 554,-927"/>
<text text-anchor="middle" x="498" y="-911.8" font-family="Times,serif" font-size="14.00">CASE documentation</text>
<text text-anchor="middle" x="498" y="-896.8" font-family="Times,serif" font-size="14.00">regenerated</text>
</a>
</g>
</g>
<!-- _GH__CASEWORK__CASE&#45;&gt;_GH__CASEWORK__ONTOLOGY_CASEONTOLOGY_ORG -->
<g id="edge4" class="edge">
<title>_GH__CASEWORK__CASE&#45;&gt;_GH__CASEWORK__ONTOLOGY_CASEONTOLOGY_ORG</title>
<path fill="none" stroke="black" d="M326.28,-908C353.68,-908 387.8,-908 418.31,-908"/>
<polygon fill="black" stroke="black" points="418.3,-911.5 428.3,-908 418.3,-904.5 418.3,-911.5"/>
<text text-anchor="middle" x="389.5" y="-926.8" font-family="Times,serif" font-size="14.00">Git sub&#45;</text>
<text text-anchor="middle" x="389.5" y="-911.8" font-family="Times,serif" font-size="14.00">module</text>
</g>
</g>
</svg>
