<?xml version="1.0" encoding="UTF-8" standalone="no"?>
<!DOCTYPE svg PUBLIC "-//W3C//DTD SVG 1.1//EN"
 "http://www.w3.org/Graphics/SVG/1.1/DTD/svg11.dtd">
<!-- Generated by graphviz version 8.0.3 (20230416.2022)
 -->
<!-- Title: cdo_release_flow Pages: 1 -->
<svg width="1795pt" height="1030pt"
 viewBox="0.00 0.00 1795.00 1030.00" xmlns="http://www.w3.org/2000/svg" xmlns:xlink="http://www.w3.org/1999/xlink">
<g id="graph0" class="graph" transform="scale(1 1) rotate(0) translate(4 1026)">
<title>cdo_release_flow</title>
<polygon fill="white" stroke="none" points="-4,4 -4,-1026 1791,-1026 1791,4 -4,4"/>
<text text-anchor="middle" x="893.5" y="-38.8" font-family="Times,serif" font-size="14.00">Release flow of CDO ontologies</text>
<text text-anchor="middle" x="893.5" y="-7.8" font-family="Times,serif" font-size="14.00">Nodes link to the respective Git repository.</text>
<g id="clust1" class="cluster">
<title>cluster_uco_0_9_1</title>
<polygon fill="none" stroke="black" points="0,-139 0,-255 168,-255 168,-139 0,-139"/>
<text text-anchor="middle" x="84" y="-239.8" font-family="Times,serif" font-size="14.00">Adoption of UCO 0.9.1</text>
</g>
<g id="clust2" class="cluster">
<title>cluster_case_0_7_1</title>
<polygon fill="none" stroke="black" points="8,-147 8,-224 160,-224 160,-147 8,-147"/>
<text text-anchor="middle" x="84" y="-208.8" font-family="Times,serif" font-size="14.00">Adoption of CASE 0.7.1</text>
</g>
<g id="clust3" class="cluster">
<title>cluster_uco_1_1_0</title>
<polygon fill="none" stroke="black" points="1272,-100 1272,-294 1560,-294 1560,-100 1272,-100"/>
<text text-anchor="middle" x="1416" y="-278.8" font-family="Times,serif" font-size="14.00">Adoption of UCO 1.1.0</text>
</g>
<g id="clust4" class="cluster">
<title>cluster_case_1_1_0</title>
<polygon fill="none" stroke="black" points="1280,-108 1280,-263 1552,-263 1552,-108 1280,-108"/>
<text text-anchor="middle" x="1416" y="-247.8" font-family="Times,serif" font-size="14.00">Adoption of CASE 1.1.0</text>
</g>
<g id="clust5" class="cluster">
<title>cluster_case_utils_0_9_0</title>
<polygon fill="none" stroke="black" points="1288,-116 1288,-232 1544,-232 1544,-116 1288,-116"/>
<text text-anchor="middle" x="1416" y="-216.8" font-family="Times,serif" font-size="14.00">Adoption of case&#45;utils 0.9.0</text>
</g>
<g id="clust6" class="cluster">
<title>cluster_case_validation_action_2_5</title>
<polygon fill="none" stroke="black" points="1296,-124 1296,-201 1536,-201 1536,-124 1296,-124"/>
<text text-anchor="middle" x="1416" y="-185.8" font-family="Times,serif" font-size="14.00">Adoption of case&#45;validation&#45;action 2.5</text>
</g>
<g id="clust7" class="cluster">
<title>cluster_uco_1_2_0</title>
<polygon fill="none" stroke="black" points="26,-302 26,-1014 1779,-1014 1779,-302 26,-302"/>
<text text-anchor="middle" x="902.5" y="-998.8" font-family="Times,serif" font-size="14.00">Adoption of UCO 1.2.0</text>
</g>
<g id="clust8" class="cluster">
<title>cluster_case_1_2_0</title>
<polygon fill="none" stroke="black" points="245.5,-419 245.5,-983 1771,-983 1771,-419 245.5,-419"/>
<text text-anchor="middle" x="1008.25" y="-967.8" font-family="Times,serif" font-size="14.00">Adoption of CASE 1.2.0</text>
</g>
<g id="clust13" class="cluster">
<title>cluster_case_utils_0_11_0</title>
<polygon fill="none" stroke="black" points="507,-760 507,-949 884,-949 884,-760 507,-760"/>
<text text-anchor="middle" x="695.5" y="-933.8" font-family="Times,serif" font-size="14.00">Adoption of case&#45;utils 0.11.0</text>
</g>
<g id="clust9" class="cluster">
<title>cluster_case_utils_0_10_0</title>
<polygon fill="none" stroke="black" points="949,-427 949,-952 1763,-952 1763,-427 949,-427"/>
<text text-anchor="middle" x="1356" y="-936.8" font-family="Times,serif" font-size="14.00">Adoption of case&#45;utils 0.10.0</text>
</g>
<g id="clust11" class="cluster">
<title>cluster_case_validation_action_2_6</title>
<polygon fill="none" stroke="black" points="959.5,-435 959.5,-803 1557.5,-803 1557.5,-435 959.5,-435"/>
<text text-anchor="middle" x="1258.5" y="-787.8" font-family="Times,serif" font-size="14.00">Adoption of case&#45;validation&#45;action 2.6</text>
</g>
<g id="clust12" class="cluster">
<title>cluster_case_bindings_csharp_0_4_0</title>
<polygon fill="none" stroke="black" points="967.5,-695 967.5,-772 1549.5,-772 1549.5,-695 967.5,-695"/>
<text text-anchor="middle" x="1258.5" y="-756.8" font-family="Times,serif" font-size="14.00">Adoption of CSharp bindings 0.4.0</text>
</g>
<g id="clust10" class="cluster">
<title>cluster_case_prov_0_7_0</title>
<polygon fill="none" stroke="black" points="1373.5,-844 1373.5,-921 1755,-921 1755,-844 1373.5,-844"/>
<text text-anchor="middle" x="1564.25" y="-905.8" font-family="Times,serif" font-size="14.00">Adoption of case&#45;prov 0.7.0</text>
</g>
<!-- _GH__CASEWORK__CASE_MAPPING_TEMPLATE_STUBS -->
<g id="node1" class="node">
<title>_GH__CASEWORK__CASE_MAPPING_TEMPLATE_STUBS</title>
<g id="a_node1"><a xlink:href="https://github.com/casework/CASE-Mapping-Template-Stubs" xlink:title="CASE Mapping\nTemplate Stubs">
<path fill="#8ec7d2" stroke="#0d6986" d="M124,-193C124,-193 44,-193 44,-193 38,-193 32,-187 32,-181 32,-181 32,-167 32,-167 32,-161 38,-155 44,-155 44,-155 124,-155 124,-155 130,-155 136,-161 136,-167 136,-167 136,-181 136,-181 136,-187 130,-193 124,-193"/>
<text text-anchor="middle" x="84" y="-177.8" font-family="Times,serif" font-size="14.00">CASE Mapping</text>
<text text-anchor="middle" x="84" y="-162.8" font-family="Times,serif" font-size="14.00">Template Stubs</text>
</a>
</g>
</g>
<!-- _GH__CASEWORK__CASE_IMPLEMENTATON_PYPI_EXIFREAD -->
<g id="node2" class="node">
<title>_GH__CASEWORK__CASE_IMPLEMENTATON_PYPI_EXIFREAD</title>
<g id="a_node2"><a xlink:href="https://github.com/casework/CASE-Implementation-PyPI-Exifread" xlink:title="CASE&#45;Implementation&#45;PyPI&#45;Exifread\nadopts new case&#45;validation&#45;action">
<path fill="#8ec7d2" stroke="#0d6986" d="M1516,-170C1516,-170 1316,-170 1316,-170 1310,-170 1304,-164 1304,-158 1304,-158 1304,-144 1304,-144 1304,-138 1310,-132 1316,-132 1316,-132 1516,-132 1516,-132 1522,-132 1528,-138 1528,-144 1528,-144 1528,-158 1528,-158 1528,-164 1522,-170 1516,-170"/>
<text text-anchor="middle" x="1416" y="-154.8" font-family="Times,serif" font-size="14.00">CASE&#45;Implementation&#45;PyPI&#45;Exifread</text>
<text text-anchor="middle" x="1416" y="-139.8" font-family="Times,serif" font-size="14.00">adopts new case&#45;validation&#45;action</text>
</a>
</g>
</g>
<!-- _GH__UCOPROJECT__ONTOLOGY_UNIFIEDCYBERONTOLOGY_ORG -->
<g id="node3" class="node">
<title>_GH__UCOPROJECT__ONTOLOGY_UNIFIEDCYBERONTOLOGY_ORG</title>
<g id="a_node3"><a xlink:href="https://github.com/ucoProject/ontology.unifiedcyberontology.org" xlink:title="UCO documentation\nregenerated">
<path fill="#8ec7d2" stroke="#0d6986" d="M359.5,-411C359.5,-411 253.5,-411 253.5,-411 247.5,-411 241.5,-405 241.5,-399 241.5,-399 241.5,-385 241.5,-385 241.5,-379 247.5,-373 253.5,-373 253.5,-373 359.5,-373 359.5,-373 365.5,-373 371.5,-379 371.5,-385 371.5,-385 371.5,-399 371.5,-399 371.5,-405 365.5,-411 359.5,-411"/>
<text text-anchor="middle" x="306.5" y="-395.8" font-family="Times,serif" font-size="14.00">UCO documentation</text>
<text text-anchor="middle" x="306.5" y="-380.8" font-family="Times,serif" font-size="14.00">regenerated</text>
</a>
</g>
</g>
<!-- _GH__CASEWORK__ONTOLOGY_CASEONTOLOGY_ORG -->
<g id="node9" class="node">
<title>_GH__CASEWORK__ONTOLOGY_CASEONTOLOGY_ORG</title>
<g id="a_node9"><a xlink:href="https://github.com/casework/ontology.caseontology.org" xlink:title="CASE documentation\nregenerated">
<path fill="#8ec7d2" stroke="#0d6986" d="M605,-556C605,-556 493,-556 493,-556 487,-556 481,-550 481,-544 481,-544 481,-530 481,-530 481,-524 487,-518 493,-518 493,-518 605,-518 605,-518 611,-518 617,-524 617,-530 617,-530 617,-544 617,-544 617,-550 611,-556 605,-556"/>
<text text-anchor="middle" x="549" y="-540.8" font-family="Times,serif" font-size="14.00">CASE documentation</text>
<text text-anchor="middle" x="549" y="-525.8" font-family="Times,serif" font-size="14.00">regenerated</text>
</a>
</g>
</g>
<!-- _GH__UCOPROJECT__ONTOLOGY_UNIFIEDCYBERONTOLOGY_ORG&#45;&gt;_GH__CASEWORK__ONTOLOGY_CASEONTOLOGY_ORG -->
<g id="edge23" class="edge">
<title>_GH__UCOPROJECT__ONTOLOGY_UNIFIEDCYBERONTOLOGY_ORG&#45;&gt;_GH__CASEWORK__ONTOLOGY_CASEONTOLOGY_ORG</title>
<path fill="none" stroke="black" d="M367.5,-411.4C369.73,-412.54 371.9,-413.74 374,-415 426.65,-446.54 425.66,-477.34 478.25,-511.82"/>
<polygon fill="black" stroke="black" points="476.21,-515.3 486.55,-517.62 479.91,-509.36 476.21,-515.3"/>
<text text-anchor="middle" x="427.5" y="-518.8" font-family="Times,serif" font-size="14.00">Tech&#45;</text>
<text text-anchor="middle" x="427.5" y="-503.8" font-family="Times,serif" font-size="14.00">check</text>
</g>
<!-- _GH__UCOPROJECT__UCO -->
<g id="node4" class="node">
<title>_GH__UCOPROJECT__UCO</title>
<g id="a_node4"><a xlink:href="https://github.com/ucoProject/UCO" xlink:title="UCO Ontology\nreleases">
<path fill="#8ec7d2" stroke="#0d6986" d="M122,-411C122,-411 46,-411 46,-411 40,-411 34,-405 34,-399 34,-399 34,-385 34,-385 34,-379 40,-373 46,-373 46,-373 122,-373 122,-373 128,-373 134,-379 134,-385 134,-385 134,-399 134,-399 134,-405 128,-411 122,-411"/>
<text text-anchor="middle" x="84" y="-395.8" font-family="Times,serif" font-size="14.00">UCO Ontology</text>
<text text-anchor="middle" x="84" y="-380.8" font-family="Times,serif" font-size="14.00">releases</text>
</a>
</g>
</g>
<!-- _GH__UCOPROJECT__UCO&#45;&gt;_GH__UCOPROJECT__ONTOLOGY_UNIFIEDCYBERONTOLOGY_ORG -->
<g id="edge25" class="edge">
<title>_GH__UCOPROJECT__UCO&#45;&gt;_GH__UCOPROJECT__ONTOLOGY_UNIFIEDCYBERONTOLOGY_ORG</title>
<path fill="none" stroke="black" d="M134.48,-392C162.65,-392 198.52,-392 230.12,-392"/>
<polygon fill="black" stroke="black" points="230.1,-395.5 240.1,-392 230.1,-388.5 230.1,-395.5"/>
<text text-anchor="middle" x="198.5" y="-410.8" font-family="Times,serif" font-size="14.00">Git sub&#45;</text>
<text text-anchor="middle" x="198.5" y="-395.8" font-family="Times,serif" font-size="14.00">module</text>
</g>
<!-- _GH__UCOPROJECT__UCO_PROFILE_EXAMPLE -->
<g id="node6" class="node">
<title>_GH__UCOPROJECT__UCO_PROFILE_EXAMPLE</title>
<g id="a_node6"><a xlink:href="https://github.com/ucoProject/UCO-Profile-Example" xlink:title="UCO example profile\nupdates">
<path fill="#8ec7d2" stroke="#0d6986" d="M362,-355C362,-355 251,-355 251,-355 245,-355 239,-349 239,-343 239,-343 239,-329 239,-329 239,-323 245,-317 251,-317 251,-317 362,-317 362,-317 368,-317 374,-323 374,-329 374,-329 374,-343 374,-343 374,-349 368,-355 362,-355"/>
<text text-anchor="middle" x="306.5" y="-339.8" font-family="Times,serif" font-size="14.00">UCO example profile</text>
<text text-anchor="middle" x="306.5" y="-324.8" font-family="Times,serif" font-size="14.00">updates</text>
</a>
</g>
</g>
<!-- _GH__UCOPROJECT__UCO&#45;&gt;_GH__UCOPROJECT__UCO_PROFILE_EXAMPLE -->
<g id="edge26" class="edge">
<title>_GH__UCOPROJECT__UCO&#45;&gt;_GH__UCOPROJECT__UCO_PROFILE_EXAMPLE</title>
<path fill="none" stroke="black" d="M131.68,-372.63C145.74,-367.32 161.34,-361.95 176,-358 192.69,-353.51 210.84,-349.75 228.13,-346.68"/>
<polygon fill="black" stroke="black" points="228.5,-350 237.76,-344.86 227.32,-343.1 228.5,-350"/>
<text text-anchor="middle" x="198.5" y="-376.8" font-family="Times,serif" font-size="14.00">Git sub&#45;</text>
<text text-anchor="middle" x="198.5" y="-361.8" font-family="Times,serif" font-size="14.00">module</text>
</g>
<!-- _GH__CASEWORK__CASE -->
<g id="node8" class="node">
<title>_GH__CASEWORK__CASE</title>
<g id="a_node8"><a xlink:href="https://github.com/casework/CASE" xlink:title="CASE Ontology\nreleases">
<path fill="#8ec7d2" stroke="#0d6986" d="M347.5,-626C347.5,-626 265.5,-626 265.5,-626 259.5,-626 253.5,-620 253.5,-614 253.5,-614 253.5,-600 253.5,-600 253.5,-594 259.5,-588 265.5,-588 265.5,-588 347.5,-588 347.5,-588 353.5,-588 359.5,-594 359.5,-600 359.5,-600 359.5,-614 359.5,-614 359.5,-620 353.5,-626 347.5,-626"/>
<text text-anchor="middle" x="306.5" y="-610.8" font-family="Times,serif" font-size="14.00">CASE Ontology</text>
<text text-anchor="middle" x="306.5" y="-595.8" font-family="Times,serif" font-size="14.00">releases</text>
</a>
</g>
</g>
<!-- _GH__UCOPROJECT__UCO&#45;&gt;_GH__CASEWORK__CASE -->
<g id="edge24" class="edge">
<title>_GH__UCOPROJECT__UCO&#45;&gt;_GH__CASEWORK__CASE</title>
<path fill="none" stroke="black" d="M95.46,-411.33C117.19,-449.72 170.89,-536 239,-584 240.51,-585.06 242.07,-586.08 243.68,-587.06"/>
<polygon fill="black" stroke="black" points="241.79,-590.55 252.26,-592.18 245.09,-584.38 241.79,-590.55"/>
<text text-anchor="middle" x="198.5" y="-585.8" font-family="Times,serif" font-size="14.00">Git sub&#45;</text>
<text text-anchor="middle" x="198.5" y="-570.8" font-family="Times,serif" font-size="14.00">module</text>
</g>
<!-- _GH__UCOPROJECT__UCO_PROFILE_BFO -->
<g id="node5" class="node">
<title>_GH__UCOPROJECT__UCO_PROFILE_BFO</title>
<g id="a_node5"><a xlink:href="https://github.com/ucoProject/UCO-Profile-BFO" xlink:title="UCO BFO profile\nupdates">
<path fill="#8ec7d2" stroke="#0d6986" d="M594.5,-404C594.5,-404 503.5,-404 503.5,-404 497.5,-404 491.5,-398 491.5,-392 491.5,-392 491.5,-378 491.5,-378 491.5,-372 497.5,-366 503.5,-366 503.5,-366 594.5,-366 594.5,-366 600.5,-366 606.5,-372 606.5,-378 606.5,-378 606.5,-392 606.5,-392 606.5,-398 600.5,-404 594.5,-404"/>
<text text-anchor="middle" x="549" y="-388.8" font-family="Times,serif" font-size="14.00">UCO BFO profile</text>
<text text-anchor="middle" x="549" y="-373.8" font-family="Times,serif" font-size="14.00">updates</text>
</a>
</g>
</g>
<!-- _GH__UCOPROJECT__UCO_PROFILE_EXAMPLE&#45;&gt;_GH__UCOPROJECT__UCO_PROFILE_BFO -->
<g id="edge27" class="edge">
<title>_GH__UCOPROJECT__UCO_PROFILE_EXAMPLE&#45;&gt;_GH__UCOPROJECT__UCO_PROFILE_BFO</title>
<path fill="none" stroke="black" d="M374.23,-354.83C380.22,-356.32 386.21,-357.73 392,-359 420.77,-365.3 452.82,-370.88 480.35,-375.24"/>
<polygon fill="black" stroke="black" points="479.63,-378.83 490.05,-376.92 480.71,-371.92 479.63,-378.83"/>
<text text-anchor="middle" x="427.5" y="-389.8" font-family="Times,serif" font-size="14.00">Git merge of</text>
<text text-anchor="middle" x="427.5" y="-374.8" font-family="Times,serif" font-size="14.00">base branch</text>
</g>
<!-- _GH__UCOPROJECT__UCO_PROFILE_FOAF -->
<g id="node7" class="node">
<title>_GH__UCOPROJECT__UCO_PROFILE_FOAF</title>
<g id="a_node7"><a xlink:href="https://github.com/ucoProject/UCO-Profile-FOAF" xlink:title="UCO FOAF profile\nupdates">
<path fill="#8ec7d2" stroke="#0d6986" d="M598.5,-348C598.5,-348 499.5,-348 499.5,-348 493.5,-348 487.5,-342 487.5,-336 487.5,-336 487.5,-322 487.5,-322 487.5,-316 493.5,-310 499.5,-310 499.5,-310 598.5,-310 598.5,-310 604.5,-310 610.5,-316 610.5,-322 610.5,-322 610.5,-336 610.5,-336 610.5,-342 604.5,-348 598.5,-348"/>
<text text-anchor="middle" x="549" y="-332.8" font-family="Times,serif" font-size="14.00">UCO FOAF profile</text>
<text text-anchor="middle" x="549" y="-317.8" font-family="Times,serif" font-size="14.00">updates</text>
</a>
</g>
</g>
<!-- _GH__UCOPROJECT__UCO_PROFILE_EXAMPLE&#45;&gt;_GH__UCOPROJECT__UCO_PROFILE_FOAF -->
<g id="edge28" class="edge">
<title>_GH__UCOPROJECT__UCO_PROFILE_EXAMPLE&#45;&gt;_GH__UCOPROJECT__UCO_PROFILE_FOAF</title>
<path fill="none" stroke="black" d="M374.35,-329.95C380.31,-329.56 386.26,-329.24 392,-329 419.59,-327.86 449.95,-327.63 476.49,-327.76"/>
<polygon fill="black" stroke="black" points="476.2,-331.27 486.23,-327.84 476.25,-324.27 476.2,-331.27"/>
<text text-anchor="middle" x="427.5" y="-347.8" font-family="Times,serif" font-size="14.00">Git merge of</text>
<text text-anchor="middle" x="427.5" y="-332.8" font-family="Times,serif" font-size="14.00">base branch</text>
</g>
<!-- _GH__CASEWORK__CASE&#45;&gt;_GH__CASEWORK__ONTOLOGY_CASEONTOLOGY_ORG -->
<g id="edge4" class="edge">
<title>_GH__CASEWORK__CASE&#45;&gt;_GH__CASEWORK__ONTOLOGY_CASEONTOLOGY_ORG</title>
<path fill="none" stroke="black" d="M359.98,-591.72C392.44,-582.28 434.67,-569.99 470.89,-559.44"/>
<polygon fill="black" stroke="black" points="471.8,-562.53 480.42,-556.38 469.84,-555.81 471.8,-562.53"/>
<text text-anchor="middle" x="427.5" y="-600.8" font-family="Times,serif" font-size="14.00">Git sub&#45;</text>
<text text-anchor="middle" x="427.5" y="-585.8" font-family="Times,serif" font-size="14.00">module</text>
</g>
<!-- _GH__CIPHERTECHSOLUTIONS__CASE_BINDINGS_CSHARP -->
<g id="node20" class="node">
<title>_GH__CIPHERTECHSOLUTIONS__CASE_BINDINGS_CSHARP</title>
<g id="a_node20"><a xlink:href="https://github.com/ciphertechsolutions/CASE-Bindings-CSharp" xlink:title="CASE&#45;Bindings&#45;CSharp\nadopts new ontology version">
<path fill="#8ec7d2" stroke="#0d6986" d="M1136.5,-741C1136.5,-741 987.5,-741 987.5,-741 981.5,-741 975.5,-735 975.5,-729 975.5,-729 975.5,-715 975.5,-715 975.5,-709 981.5,-703 987.5,-703 987.5,-703 1136.5,-703 1136.5,-703 1142.5,-703 1148.5,-709 1148.5,-715 1148.5,-715 1148.5,-729 1148.5,-729 1148.5,-735 1142.5,-741 1136.5,-741"/>
<text text-anchor="middle" x="1062" y="-725.8" font-family="Times,serif" font-size="14.00">CASE&#45;Bindings&#45;CSharp</text>
<text text-anchor="middle" x="1062" y="-710.8" font-family="Times,serif" font-size="14.00">adopts new ontology version</text>
</a>
</g>
</g>
<!-- _GH__CASEWORK__CASE&#45;&gt;_GH__CIPHERTECHSOLUTIONS__CASE_BINDINGS_CSHARP -->
<g id="edge3" class="edge">
<title>_GH__CASEWORK__CASE&#45;&gt;_GH__CIPHERTECHSOLUTIONS__CASE_BINDINGS_CSHARP</title>
<path fill="none" stroke="black" d="M359.99,-612.74C497.38,-627.81 858.68,-667.77 884,-674 914.05,-681.4 919.3,-690.3 949,-699 954.11,-700.5 959.37,-701.93 964.71,-703.3"/>
<polygon fill="black" stroke="black" points="963.49,-706.85 974.03,-705.85 965.17,-700.06 963.49,-706.85"/>
</g>
<!-- _GH__CASEWORK__CASE_UTILITIES_PYTHON -->
<g id="node23" class="node">
<title>_GH__CASEWORK__CASE_UTILITIES_PYTHON</title>
<g id="a_node23"><a xlink:href="https://github.com/casework/CASE-Utilities-Python" xlink:title="case&#45;utils\nreleases">
<path fill="#8ec7d2" stroke="#0d6986" d="M571,-806C571,-806 527,-806 527,-806 521,-806 515,-800 515,-794 515,-794 515,-780 515,-780 515,-774 521,-768 527,-768 527,-768 571,-768 571,-768 577,-768 583,-774 583,-780 583,-780 583,-794 583,-794 583,-800 577,-806 571,-806"/>
<text text-anchor="middle" x="549" y="-790.8" font-family="Times,serif" font-size="14.00">case&#45;utils</text>
<text text-anchor="middle" x="549" y="-775.8" font-family="Times,serif" font-size="14.00">releases</text>
</a>
</g>
</g>
<!-- _GH__CASEWORK__CASE&#45;&gt;_GH__CASEWORK__CASE_UTILITIES_PYTHON -->
<g id="edge2" class="edge">
<title>_GH__CASEWORK__CASE&#45;&gt;_GH__CASEWORK__CASE_UTILITIES_PYTHON</title>
<path fill="none" stroke="black" d="M324.03,-626.39C352.82,-659.06 415.4,-725.29 481,-764 488.3,-768.31 496.52,-771.96 504.64,-775"/>
<polygon fill="black" stroke="black" points="503.21,-778.56 513.8,-778.53 505.5,-771.94 503.21,-778.56"/>
<text text-anchor="middle" x="427.5" y="-768.8" font-family="Times,serif" font-size="14.00">Git sub&#45;</text>
<text text-anchor="middle" x="427.5" y="-753.8" font-family="Times,serif" font-size="14.00">module</text>
</g>
<!-- _GH__AJNELSON_NIST__CASE_EXAMPLES_QC -->
<g id="node10" class="node">
<title>_GH__AJNELSON_NIST__CASE_EXAMPLES_QC</title>
<g id="a_node10"><a xlink:href="https://github.com/ajnelson-nist/CASE-Examples-QC" xlink:title="CASE&#45;Examples&#45;QC\nadopts CASE&#45;Examples and\nCASE website updates">
<path fill="#8ec7d2" stroke="#0d6986" d="M1136,-920.5C1136,-920.5 988,-920.5 988,-920.5 982,-920.5 976,-914.5 976,-908.5 976,-908.5 976,-879.5 976,-879.5 976,-873.5 982,-867.5 988,-867.5 988,-867.5 1136,-867.5 1136,-867.5 1142,-867.5 1148,-873.5 1148,-879.5 1148,-879.5 1148,-908.5 1148,-908.5 1148,-914.5 1142,-920.5 1136,-920.5"/>
<text text-anchor="middle" x="1062" y="-905.3" font-family="Times,serif" font-size="14.00">CASE&#45;Examples&#45;QC</text>
<text text-anchor="middle" x="1062" y="-890.3" font-family="Times,serif" font-size="14.00">adopts CASE&#45;Examples and</text>
<text text-anchor="middle" x="1062" y="-875.3" font-family="Times,serif" font-size="14.00">CASE website updates</text>
</a>
</g>
</g>
<!-- _GH__CASEWORK__CASE_IMPLEMENTATON_PROV_O -->
<g id="node13" class="node">
<title>_GH__CASEWORK__CASE_IMPLEMENTATON_PROV_O</title>
<g id="a_node13"><a xlink:href="https://github.com/casework/CASE-Implementation-PROV-O" xlink:title="case&#45;prov\nreleases">
<path fill="#8ec7d2" stroke="#0d6986" d="M1438.5,-890C1438.5,-890 1393.5,-890 1393.5,-890 1387.5,-890 1381.5,-884 1381.5,-878 1381.5,-878 1381.5,-864 1381.5,-864 1381.5,-858 1387.5,-852 1393.5,-852 1393.5,-852 1438.5,-852 1438.5,-852 1444.5,-852 1450.5,-858 1450.5,-864 1450.5,-864 1450.5,-878 1450.5,-878 1450.5,-884 1444.5,-890 1438.5,-890"/>
<text text-anchor="middle" x="1416" y="-874.8" font-family="Times,serif" font-size="14.00">case&#45;prov</text>
<text text-anchor="middle" x="1416" y="-859.8" font-family="Times,serif" font-size="14.00">releases</text>
</a>
</g>
</g>
<!-- _GH__AJNELSON_NIST__CASE_EXAMPLES_QC&#45;&gt;_GH__CASEWORK__CASE_IMPLEMENTATON_PROV_O -->
<g id="edge1" class="edge">
<title>_GH__AJNELSON_NIST__CASE_EXAMPLES_QC&#45;&gt;_GH__CASEWORK__CASE_IMPLEMENTATON_PROV_O</title>
<path fill="none" stroke="black" d="M1148.21,-888.43C1218.26,-883.86 1314.73,-877.55 1370.42,-873.91"/>
<polygon fill="black" stroke="black" points="1370.58,-877.34 1380.33,-873.2 1370.12,-870.36 1370.58,-877.34"/>
<text text-anchor="middle" x="1224.5" y="-903.8" font-family="Times,serif" font-size="14.00">Git sub&#45;</text>
<text text-anchor="middle" x="1224.5" y="-888.8" font-family="Times,serif" font-size="14.00">module</text>
</g>
<!-- _GH__CASEWORK__CASE_IMPLEMENTATON_GNU_TIME -->
<g id="node11" class="node">
<title>_GH__CASEWORK__CASE_IMPLEMENTATON_GNU_TIME</title>
<g id="a_node11"><a xlink:href="https://github.com/casework/CASE-Implementation-GNU-Time" xlink:title="CASE&#45;Implementation&#45;GNU&#45;Time\nadopts new case&#45;utils">
<path fill="#8ec7d2" stroke="#0d6986" d="M1155,-849C1155,-849 969,-849 969,-849 963,-849 957,-843 957,-837 957,-837 957,-823 957,-823 957,-817 963,-811 969,-811 969,-811 1155,-811 1155,-811 1161,-811 1167,-817 1167,-823 1167,-823 1167,-837 1167,-837 1167,-843 1161,-849 1155,-849"/>
<text text-anchor="middle" x="1062" y="-833.8" font-family="Times,serif" font-size="14.00">CASE&#45;Implementation&#45;GNU&#45;Time</text>
<text text-anchor="middle" x="1062" y="-818.8" font-family="Times,serif" font-size="14.00">adopts new case&#45;utils</text>
</a>
</g>
</g>
<!-- _GH__CASEWORK__CASE_CORPORA -->
<g id="node12" class="node">
<title>_GH__CASEWORK__CASE_CORPORA</title>
<g id="a_node12"><a xlink:href="https://github.com/casework/CASE-Corpora" xlink:title="CASE&#45;Corpora\nadopts new case&#45;prov">
<path fill="#8ec7d2" stroke="#0d6986" d="M1735,-890C1735,-890 1625,-890 1625,-890 1619,-890 1613,-884 1613,-878 1613,-878 1613,-864 1613,-864 1613,-858 1619,-852 1625,-852 1625,-852 1735,-852 1735,-852 1741,-852 1747,-858 1747,-864 1747,-864 1747,-878 1747,-878 1747,-884 1741,-890 1735,-890"/>
<text text-anchor="middle" x="1680" y="-874.8" font-family="Times,serif" font-size="14.00">CASE&#45;Corpora</text>
<text text-anchor="middle" x="1680" y="-859.8" font-family="Times,serif" font-size="14.00">adopts new case&#45;prov</text>
</a>
</g>
</g>
<!-- _GH__CASEWORK__CASE_IMPLEMENTATON_PROV_O&#45;&gt;_GH__CASEWORK__CASE_CORPORA -->
<g id="edge6" class="edge">
<title>_GH__CASEWORK__CASE_IMPLEMENTATON_PROV_O&#45;&gt;_GH__CASEWORK__CASE_CORPORA</title>
<path fill="none" stroke="black" d="M1450.98,-871C1488.97,-871 1551.72,-871 1601.79,-871"/>
<polygon fill="black" stroke="black" points="1601.59,-874.5 1611.59,-871 1601.59,-867.5 1601.59,-874.5"/>
<text text-anchor="middle" x="1581.5" y="-874.8" font-family="Times,serif" font-size="14.00">PyPI</text>
</g>
<!-- _GH__CASEWORK__CASE_IMPLEMENTATON_PYPI_PILLOW -->
<g id="node14" class="node">
<title>_GH__CASEWORK__CASE_IMPLEMENTATON_PYPI_PILLOW</title>
<g id="a_node14"><a xlink:href="https://github.com/casework/CASE-Implementation-PyPI-Pillow" xlink:title="CASE&#45;Implementation&#45;PyPI&#45;Pillow\nadopts new case&#45;validation&#45;action">
<path fill="#8ec7d2" stroke="#0d6986" d="M1510.5,-481C1510.5,-481 1321.5,-481 1321.5,-481 1315.5,-481 1309.5,-475 1309.5,-469 1309.5,-469 1309.5,-455 1309.5,-455 1309.5,-449 1315.5,-443 1321.5,-443 1321.5,-443 1510.5,-443 1510.5,-443 1516.5,-443 1522.5,-449 1522.5,-455 1522.5,-455 1522.5,-469 1522.5,-469 1522.5,-475 1516.5,-481 1510.5,-481"/>
<text text-anchor="middle" x="1416" y="-465.8" font-family="Times,serif" font-size="14.00">CASE&#45;Implementation&#45;PyPI&#45;Pillow</text>
<text text-anchor="middle" x="1416" y="-450.8" font-family="Times,serif" font-size="14.00">adopts new case&#45;validation&#45;action</text>
</a>
</g>
</g>
<!-- _GH__CASEWORK__CASE_IMPLEMENTATON_UFED_XML -->
<g id="node15" class="node">
<title>_GH__CASEWORK__CASE_IMPLEMENTATON_UFED_XML</title>
<g id="a_node15"><a xlink:href="https://github.com/casework/CASE-Implementation-UFED-XML" xlink:title="CASE&#45;Implementation&#45;UFED&#45;XML\nadopts new case&#45;validation&#45;action">
<path fill="#8ec7d2" stroke="#0d6986" d="M1513,-537C1513,-537 1319,-537 1319,-537 1313,-537 1307,-531 1307,-525 1307,-525 1307,-511 1307,-511 1307,-505 1313,-499 1319,-499 1319,-499 1513,-499 1513,-499 1519,-499 1525,-505 1525,-511 1525,-511 1525,-525 1525,-525 1525,-531 1519,-537 1513,-537"/>
<text text-anchor="middle" x="1416" y="-521.8" font-family="Times,serif" font-size="14.00">CASE&#45;Implementation&#45;UFED&#45;XML</text>
<text text-anchor="middle" x="1416" y="-506.8" font-family="Times,serif" font-size="14.00">adopts new case&#45;validation&#45;action</text>
</a>
</g>
</g>
<!-- _GH__CASEWORK__CASE_IMPLEMENTATON_XRY -->
<g id="node16" class="node">
<title>_GH__CASEWORK__CASE_IMPLEMENTATON_XRY</title>
<g id="a_node16"><a xlink:href="https://github.com/casework/CASE-Implementation-XRY" xlink:title="CASE&#45;Implementation&#45;XRY adopts\nnew case&#45;validation&#45;action">
<path fill="#8ec7d2" stroke="#0d6986" d="M1511,-593C1511,-593 1321,-593 1321,-593 1315,-593 1309,-587 1309,-581 1309,-581 1309,-567 1309,-567 1309,-561 1315,-555 1321,-555 1321,-555 1511,-555 1511,-555 1517,-555 1523,-561 1523,-567 1523,-567 1523,-581 1523,-581 1523,-587 1517,-593 1511,-593"/>
<text text-anchor="middle" x="1416" y="-577.8" font-family="Times,serif" font-size="14.00">CASE&#45;Implementation&#45;XRY adopts</text>
<text text-anchor="middle" x="1416" y="-562.8" font-family="Times,serif" font-size="14.00">new case&#45;validation&#45;action</text>
</a>
</g>
</g>
<!-- _GH__CASEWORK__CASE_MAPPING_TEMPLATE_PYTHON -->
<g id="node17" class="node">
<title>_GH__CASEWORK__CASE_MAPPING_TEMPLATE_PYTHON</title>
<g id="a_node17"><a xlink:href="https://github.com/casework/CASE-Mapping-Template-Python" xlink:title="CASE&#45;Mapping&#45;Template&#45;Python\nadopts new case&#45;validation&#45;action">
<path fill="#8ec7d2" stroke="#0d6986" d="M1506,-649C1506,-649 1326,-649 1326,-649 1320,-649 1314,-643 1314,-637 1314,-637 1314,-623 1314,-623 1314,-617 1320,-611 1326,-611 1326,-611 1506,-611 1506,-611 1512,-611 1518,-617 1518,-623 1518,-623 1518,-637 1518,-637 1518,-643 1512,-649 1506,-649"/>
<text text-anchor="middle" x="1416" y="-633.8" font-family="Times,serif" font-size="14.00">CASE&#45;Mapping&#45;Template&#45;Python</text>
<text text-anchor="middle" x="1416" y="-618.8" font-family="Times,serif" font-size="14.00">adopts new case&#45;validation&#45;action</text>
</a>
</g>
</g>
<!-- _GH__KCHASON__CASE_VALIDATION_ACTION -->
<g id="node18" class="node">
<title>_GH__KCHASON__CASE_VALIDATION_ACTION</title>
<g id="a_node18"><a xlink:href="https://github.com/kchason/case-validation-action" xlink:title="case&#45;validation&#45;action\nreleases">
<path fill="#8ec7d2" stroke="#0d6986" d="M1118,-560C1118,-560 1006,-560 1006,-560 1000,-560 994,-554 994,-548 994,-548 994,-534 994,-534 994,-528 1000,-522 1006,-522 1006,-522 1118,-522 1118,-522 1124,-522 1130,-528 1130,-534 1130,-534 1130,-548 1130,-548 1130,-554 1124,-560 1118,-560"/>
<text text-anchor="middle" x="1062" y="-544.8" font-family="Times,serif" font-size="14.00">case&#45;validation&#45;action</text>
<text text-anchor="middle" x="1062" y="-529.8" font-family="Times,serif" font-size="14.00">releases</text>
</a>
</g>
</g>
<!-- _GH__KCHASON__CASE_VALIDATION_ACTION&#45;&gt;_GH__CASEWORK__CASE_IMPLEMENTATON_PYPI_EXIFREAD -->
<g id="edge17" class="edge">
<title>_GH__KCHASON__CASE_VALIDATION_ACTION&#45;&gt;_GH__CASEWORK__CASE_IMPLEMENTATON_PYPI_EXIFREAD</title>
<path fill="none" stroke="black" d="M1080.46,-521.66C1138.16,-457.73 1322.92,-253.02 1390.2,-178.48"/>
<polygon fill="black" stroke="black" points="1392.34,-181.23 1396.44,-171.46 1387.14,-176.54 1392.34,-181.23"/>
<text text-anchor="middle" x="1224.5" y="-421.8" font-family="Times,serif" font-size="14.00">GitHub</text>
<text text-anchor="middle" x="1224.5" y="-406.8" font-family="Times,serif" font-size="14.00">Action</text>
</g>
<!-- _GH__KCHASON__CASE_VALIDATION_ACTION&#45;&gt;_GH__CASEWORK__CASE_IMPLEMENTATON_PYPI_PILLOW -->
<g id="edge18" class="edge">
<title>_GH__KCHASON__CASE_VALIDATION_ACTION&#45;&gt;_GH__CASEWORK__CASE_IMPLEMENTATON_PYPI_PILLOW</title>
<path fill="none" stroke="black" d="M1091.09,-521.52C1114.9,-506.14 1150.59,-485.72 1185,-476 1221.09,-465.81 1261.59,-461.21 1298.43,-459.46"/>
<polygon fill="black" stroke="black" points="1298.38,-462.93 1308.23,-459.03 1298.1,-455.93 1298.38,-462.93"/>
<text text-anchor="middle" x="1224.5" y="-494.8" font-family="Times,serif" font-size="14.00">GitHub</text>
<text text-anchor="middle" x="1224.5" y="-479.8" font-family="Times,serif" font-size="14.00">Action</text>
</g>
<!-- _GH__KCHASON__CASE_VALIDATION_ACTION&#45;&gt;_GH__CASEWORK__CASE_IMPLEMENTATON_UFED_XML -->
<g id="edge19" class="edge">
<title>_GH__KCHASON__CASE_VALIDATION_ACTION&#45;&gt;_GH__CASEWORK__CASE_IMPLEMENTATON_UFED_XML</title>
<path fill="none" stroke="black" d="M1130.35,-524.01C1148.02,-520.28 1167.12,-516.88 1185,-515 1220.81,-511.23 1259.93,-510.48 1295.58,-511.1"/>
<polygon fill="black" stroke="black" points="1295.46,-514.62 1305.53,-511.34 1295.61,-507.63 1295.46,-514.62"/>
<text text-anchor="middle" x="1224.5" y="-533.8" font-family="Times,serif" font-size="14.00">GitHub</text>
<text text-anchor="middle" x="1224.5" y="-518.8" font-family="Times,serif" font-size="14.00">Action</text>
</g>
<!-- _GH__KCHASON__CASE_VALIDATION_ACTION&#45;&gt;_GH__CASEWORK__CASE_IMPLEMENTATON_XRY -->
<g id="edge20" class="edge">
<title>_GH__KCHASON__CASE_VALIDATION_ACTION&#45;&gt;_GH__CASEWORK__CASE_IMPLEMENTATON_XRY</title>
<path fill="none" stroke="black" d="M1130.45,-547.32C1177.81,-551.76 1242.36,-557.82 1298.01,-563.03"/>
<polygon fill="black" stroke="black" points="1297.37,-566.58 1307.65,-564.03 1298.02,-559.61 1297.37,-566.58"/>
<text text-anchor="middle" x="1224.5" y="-577.8" font-family="Times,serif" font-size="14.00">GitHub</text>
<text text-anchor="middle" x="1224.5" y="-562.8" font-family="Times,serif" font-size="14.00">Action</text>
</g>
<!-- _GH__KCHASON__CASE_VALIDATION_ACTION&#45;&gt;_GH__CASEWORK__CASE_MAPPING_TEMPLATE_PYTHON -->
<g id="edge21" class="edge">
<title>_GH__KCHASON__CASE_VALIDATION_ACTION&#45;&gt;_GH__CASEWORK__CASE_MAPPING_TEMPLATE_PYTHON</title>
<path fill="none" stroke="black" d="M1101.94,-560.48C1125.47,-571.52 1156.35,-584.73 1185,-593 1222.82,-603.93 1265.14,-611.89 1303.06,-617.57"/>
<polygon fill="black" stroke="black" points="1302.23,-621.13 1312.64,-619.11 1303.24,-614.21 1302.23,-621.13"/>
<text text-anchor="middle" x="1224.5" y="-628.8" font-family="Times,serif" font-size="14.00">GitHub</text>
<text text-anchor="middle" x="1224.5" y="-613.8" font-family="Times,serif" font-size="14.00">Action</text>
</g>
<!-- _GH__CASEWORK__CASE_BINDINGS_CSHARP_MONITOR -->
<g id="node19" class="node">
<title>_GH__CASEWORK__CASE_BINDINGS_CSHARP_MONITOR</title>
<g id="a_node19"><a xlink:href="https://github.com/casework/CASE-Bindings-CSharp-Monitor" xlink:title="CASE Bindings CSharp Monitor\ntests NuGet package with validation action">
<path fill="#8ec7d2" stroke="#0d6986" d="M1529.5,-741C1529.5,-741 1302.5,-741 1302.5,-741 1296.5,-741 1290.5,-735 1290.5,-729 1290.5,-729 1290.5,-715 1290.5,-715 1290.5,-709 1296.5,-703 1302.5,-703 1302.5,-703 1529.5,-703 1529.5,-703 1535.5,-703 1541.5,-709 1541.5,-715 1541.5,-715 1541.5,-729 1541.5,-729 1541.5,-735 1535.5,-741 1529.5,-741"/>
<text text-anchor="middle" x="1416" y="-725.8" font-family="Times,serif" font-size="14.00">CASE Bindings CSharp Monitor</text>
<text text-anchor="middle" x="1416" y="-710.8" font-family="Times,serif" font-size="14.00">tests NuGet package with validation action</text>
</a>
</g>
</g>
<!-- _GH__KCHASON__CASE_VALIDATION_ACTION&#45;&gt;_GH__CASEWORK__CASE_BINDINGS_CSHARP_MONITOR -->
<g id="edge16" class="edge">
<title>_GH__KCHASON__CASE_VALIDATION_ACTION&#45;&gt;_GH__CASEWORK__CASE_BINDINGS_CSHARP_MONITOR</title>
<path fill="none" stroke="black" d="M1083.08,-560.28C1106.42,-582.13 1146.66,-618.06 1185,-644 1217.93,-666.29 1235.01,-658.78 1264,-686 1268.95,-690.64 1266.36,-695.23 1272,-699 1274.78,-700.86 1277.67,-702.59 1280.63,-704.2"/>
<polygon fill="black" stroke="black" points="1278.81,-707.69 1289.34,-708.92 1281.88,-701.4 1278.81,-707.69"/>
<text text-anchor="middle" x="1224.5" y="-704.8" font-family="Times,serif" font-size="14.00">GitHub</text>
<text text-anchor="middle" x="1224.5" y="-689.8" font-family="Times,serif" font-size="14.00">Action</text>
</g>
<!-- _GH__DOD_CYBER_CRIME_CENTER__SQLITE_DISSECT -->
<g id="node25" class="node">
<title>_GH__DOD_CYBER_CRIME_CENTER__SQLITE_DISSECT</title>
<g id="a_node25"><a xlink:href="https://github.com/dod-cyber-crime-center/sqlite-dissect" xlink:title="sqlite&#45;dissect\nadopts new case&#45;validation&#45;action">
<path fill="#8ec7d2" stroke="#0d6986" d="M1504.5,-92C1504.5,-92 1327.5,-92 1327.5,-92 1321.5,-92 1315.5,-86 1315.5,-80 1315.5,-80 1315.5,-66 1315.5,-66 1315.5,-60 1321.5,-54 1327.5,-54 1327.5,-54 1504.5,-54 1504.5,-54 1510.5,-54 1516.5,-60 1516.5,-66 1516.5,-66 1516.5,-80 1516.5,-80 1516.5,-86 1510.5,-92 1504.5,-92"/>
<text text-anchor="middle" x="1416" y="-76.8" font-family="Times,serif" font-size="14.00">sqlite&#45;dissect</text>
<text text-anchor="middle" x="1416" y="-61.8" font-family="Times,serif" font-size="14.00">adopts new case&#45;validation&#45;action</text>
</a>
</g>
</g>
<!-- _GH__KCHASON__CASE_VALIDATION_ACTION&#45;&gt;_GH__DOD_CYBER_CRIME_CENTER__SQLITE_DISSECT -->
<g id="edge22" class="edge">
<title>_GH__KCHASON__CASE_VALIDATION_ACTION&#45;&gt;_GH__DOD_CYBER_CRIME_CENTER__SQLITE_DISSECT</title>
<g id="a_edge22"><a xlink:href="https://github.com/dod-cyber-crime-center/sqlite-dissect/pull/31" xlink:title="TODO: PR 31">
<path fill="none" stroke="black" d="M1066.95,-521.83C1081.57,-455.78 1138.77,-235.4 1272,-120 1283.13,-110.36 1296.28,-102.69 1310.03,-96.59"/>
<polygon fill="black" stroke="black" points="1311.22,-99.47 1319.13,-92.41 1308.55,-93 1311.22,-99.47"/>
</a>
</g>
<g id="a_edge22&#45;label"><a xlink:href="https://github.com/dod-cyber-crime-center/sqlite-dissect/pull/31" xlink:title="TODO: PR 31">
<text text-anchor="middle" x="1224.5" y="-219.8" font-family="Times,serif" font-size="14.00">TODO: PR 31</text>
</a>
</g>
</g>
<!-- _GH__CIPHERTECHSOLUTIONS__CASE_BINDINGS_CSHARP&#45;&gt;_GH__CASEWORK__CASE_BINDINGS_CSHARP_MONITOR -->
<g id="edge15" class="edge">
<title>_GH__CIPHERTECHSOLUTIONS__CASE_BINDINGS_CSHARP&#45;&gt;_GH__CASEWORK__CASE_BINDINGS_CSHARP_MONITOR</title>
<path fill="none" stroke="black" d="M1148.98,-721.21C1161.08,-721.12 1173.35,-721.05 1185,-721 1215.54,-720.87 1248.36,-720.91 1279.37,-721.03"/>
<polygon fill="black" stroke="black" points="1279.25,-724.53 1289.26,-721.07 1279.28,-717.53 1279.25,-724.53"/>
<text text-anchor="middle" x="1224.5" y="-724.8" font-family="Times,serif" font-size="14.00">NuGet</text>
</g>
<!-- _GH__CASEWORK__CASE_EXAMPLES -->
<g id="node21" class="node">
<title>_GH__CASEWORK__CASE_EXAMPLES</title>
<g id="a_node21"><a xlink:href="https://github.com/casework/CASE-Examples" xlink:title="CASE&#45;Examples\nadopts new case&#45;utils">
<path fill="#8ec7d2" stroke="#0d6986" d="M832.5,-918C832.5,-918 723.5,-918 723.5,-918 717.5,-918 711.5,-912 711.5,-906 711.5,-906 711.5,-892 711.5,-892 711.5,-886 717.5,-880 723.5,-880 723.5,-880 832.5,-880 832.5,-880 838.5,-880 844.5,-886 844.5,-892 844.5,-892 844.5,-906 844.5,-906 844.5,-912 838.5,-918 832.5,-918"/>
<text text-anchor="middle" x="778" y="-902.8" font-family="Times,serif" font-size="14.00">CASE&#45;Examples</text>
<text text-anchor="middle" x="778" y="-887.8" font-family="Times,serif" font-size="14.00">adopts new case&#45;utils</text>
</a>
</g>
</g>
<!-- _GH__CASEWORK__CASE_EXAMPLES&#45;&gt;_GH__AJNELSON_NIST__CASE_EXAMPLES_QC -->
<g id="edge5" class="edge">
<title>_GH__CASEWORK__CASE_EXAMPLES&#45;&gt;_GH__AJNELSON_NIST__CASE_EXAMPLES_QC</title>
<path fill="none" stroke="black" d="M844.86,-889.59C860.9,-887.68 878.04,-885.97 894,-885 916.89,-883.61 941.56,-883.94 964.72,-885.05"/>
<polygon fill="black" stroke="black" points="964.43,-888.59 974.6,-885.64 964.8,-881.6 964.43,-888.59"/>
<text text-anchor="middle" x="916.5" y="-903.8" font-family="Times,serif" font-size="14.00">Git sub&#45;</text>
<text text-anchor="middle" x="916.5" y="-888.8" font-family="Times,serif" font-size="14.00">module</text>
</g>
<!-- _GH__CASEWORK__CASE_IMPLEMENTATON_EXIFTOOL -->
<g id="node22" class="node">
<title>_GH__CASEWORK__CASE_IMPLEMENTATON_EXIFTOOL</title>
<g id="a_node22"><a xlink:href="https://github.com/casework/CASE-Implementation-ExifTool" xlink:title="CASE&#45;Implementation&#45;ExifTool\nadopts new case&#45;utils">
<path fill="#8ec7d2" stroke="#0d6986" d="M864,-862C864,-862 692,-862 692,-862 686,-862 680,-856 680,-850 680,-850 680,-836 680,-836 680,-830 686,-824 692,-824 692,-824 864,-824 864,-824 870,-824 876,-830 876,-836 876,-836 876,-850 876,-850 876,-856 870,-862 864,-862"/>
<text text-anchor="middle" x="778" y="-846.8" font-family="Times,serif" font-size="14.00">CASE&#45;Implementation&#45;ExifTool</text>
<text text-anchor="middle" x="778" y="-831.8" font-family="Times,serif" font-size="14.00">adopts new case&#45;utils</text>
</a>
</g>
</g>
<!-- _GH__CASEWORK__CASE_UTILITIES_PYTHON&#45;&gt;_GH__AJNELSON_NIST__CASE_EXAMPLES_QC -->
<g id="edge7" class="edge">
<title>_GH__CASEWORK__CASE_UTILITIES_PYTHON&#45;&gt;_GH__AJNELSON_NIST__CASE_EXAMPLES_QC</title>
<path fill="none" stroke="black" d="M583.45,-775.64C620.3,-763.17 675.06,-744.8 680,-744 769.51,-729.58 802.73,-703.81 884,-744 920.1,-761.85 921.74,-779.62 939,-816 947.23,-833.34 935.97,-843.92 949,-858 953.99,-863.39 959.78,-867.97 966.06,-871.87"/>
<polygon fill="black" stroke="black" points="964.12,-875.35 974.56,-877.11 967.5,-869.22 964.12,-875.35"/>
<text text-anchor="middle" x="778" y="-747.8" font-family="Times,serif" font-size="14.00">PyPI</text>
</g>
<!-- _GH__CASEWORK__CASE_UTILITIES_PYTHON&#45;&gt;_GH__CASEWORK__CASE_IMPLEMENTATON_GNU_TIME -->
<g id="edge10" class="edge">
<title>_GH__CASEWORK__CASE_UTILITIES_PYTHON&#45;&gt;_GH__CASEWORK__CASE_IMPLEMENTATON_GNU_TIME</title>
<path fill="none" stroke="black" d="M583.21,-780.89C594.89,-777.46 607.46,-772.15 617,-764 630,-752.89 623.73,-742.86 635,-730 651.18,-711.55 656.62,-705.46 680,-698 766.37,-670.42 796.46,-674.39 884,-698 911.3,-705.37 922.36,-707.13 939,-730 951.31,-746.92 936.04,-759.57 949,-776 958.78,-788.39 972.1,-798.11 986.16,-805.68"/>
<polygon fill="black" stroke="black" points="984.46,-809.24 994.97,-810.57 987.59,-802.97 984.46,-809.24"/>
<text text-anchor="middle" x="778" y="-701.8" font-family="Times,serif" font-size="14.00">PyPI</text>
</g>
<!-- _GH__CASEWORK__CASE_UTILITIES_PYTHON&#45;&gt;_GH__CASEWORK__CASE_IMPLEMENTATON_PROV_O -->
<g id="edge11" class="edge">
<title>_GH__CASEWORK__CASE_UTILITIES_PYTHON&#45;&gt;_GH__CASEWORK__CASE_IMPLEMENTATON_PROV_O</title>
<path fill="none" stroke="black" d="M560.74,-806.28C579.85,-838.37 623.17,-901.73 680,-927 714.68,-942.42 1260.59,-935.69 1264,-935 1301.98,-927.28 1342.26,-909.68 1371.66,-894.88"/>
<polygon fill="black" stroke="black" points="1372.89,-897.67 1380.19,-889.99 1369.69,-891.44 1372.89,-897.67"/>
<text text-anchor="middle" x="916.5" y="-939.8" font-family="Times,serif" font-size="14.00">PyPI</text>
</g>
<!-- _GH__CASEWORK__CASE_UTILITIES_PYTHON&#45;&gt;_GH__KCHASON__CASE_VALIDATION_ACTION -->
<g id="edge12" class="edge">
<title>_GH__CASEWORK__CASE_UTILITIES_PYTHON&#45;&gt;_GH__KCHASON__CASE_VALIDATION_ACTION</title>
<path fill="none" stroke="black" d="M583.15,-782.21C595.24,-778.92 608.11,-773.37 617,-764 637.04,-742.88 619.8,-725.84 635,-701 649.28,-677.66 656.59,-673.16 680,-659 775.83,-601.03 902.65,-569.21 983.05,-553.64"/>
<polygon fill="black" stroke="black" points="983.42,-556.94 992.59,-551.64 982.12,-550.06 983.42,-556.94"/>
<text text-anchor="middle" x="778" y="-662.8" font-family="Times,serif" font-size="14.00">PyPI</text>
</g>
<!-- _GH__CASEWORK__CASE_UTILITIES_PYTHON&#45;&gt;_GH__CASEWORK__CASE_EXAMPLES -->
<g id="edge8" class="edge">
<title>_GH__CASEWORK__CASE_UTILITIES_PYTHON&#45;&gt;_GH__CASEWORK__CASE_EXAMPLES</title>
<path fill="none" stroke="black" d="M575.1,-806.41C600.39,-825.18 641.12,-853.29 680,-871 686.74,-874.07 693.91,-876.89 701.17,-879.46"/>
<polygon fill="black" stroke="black" points="699.5,-882.93 710.09,-882.81 701.74,-876.3 699.5,-882.93"/>
<text text-anchor="middle" x="648.5" y="-864.8" font-family="Times,serif" font-size="14.00">PyPI</text>
</g>
<!-- _GH__CASEWORK__CASE_UTILITIES_PYTHON&#45;&gt;_GH__CASEWORK__CASE_IMPLEMENTATON_EXIFTOOL -->
<g id="edge9" class="edge">
<title>_GH__CASEWORK__CASE_UTILITIES_PYTHON&#45;&gt;_GH__CASEWORK__CASE_IMPLEMENTATON_EXIFTOOL</title>
<path fill="none" stroke="black" d="M583.49,-795.26C611,-802.05 651.26,-811.98 687.95,-821.03"/>
<polygon fill="black" stroke="black" points="686.64,-824.56 697.18,-823.56 688.31,-817.76 686.64,-824.56"/>
<text text-anchor="middle" x="648.5" y="-816.8" font-family="Times,serif" font-size="14.00">PyPI</text>
</g>
<!-- _GH__CASEWORK__CASEWORK_GITHUB_IO -->
<g id="node24" class="node">
<title>_GH__CASEWORK__CASEWORK_GITHUB_IO</title>
<g id="a_node24"><a xlink:href="https://github.com/casework/casework.github.io" xlink:title="CASE website\nadopts new case&#45;utils">
<path fill="#8ec7d2" stroke="#0d6986" d="M832.5,-806C832.5,-806 723.5,-806 723.5,-806 717.5,-806 711.5,-800 711.5,-794 711.5,-794 711.5,-780 711.5,-780 711.5,-774 717.5,-768 723.5,-768 723.5,-768 832.5,-768 832.5,-768 838.5,-768 844.5,-774 844.5,-780 844.5,-780 844.5,-794 844.5,-794 844.5,-800 838.5,-806 832.5,-806"/>
<text text-anchor="middle" x="778" y="-790.8" font-family="Times,serif" font-size="14.00">CASE website</text>
<text text-anchor="middle" x="778" y="-775.8" font-family="Times,serif" font-size="14.00">adopts new case&#45;utils</text>
</a>
</g>
</g>
<!-- _GH__CASEWORK__CASE_UTILITIES_PYTHON&#45;&gt;_GH__CASEWORK__CASEWORK_GITHUB_IO -->
<g id="edge13" class="edge">
<title>_GH__CASEWORK__CASE_UTILITIES_PYTHON&#45;&gt;_GH__CASEWORK__CASEWORK_GITHUB_IO</title>
<path fill="none" stroke="black" d="M583.49,-787C614.22,-787 660.87,-787 700.66,-787"/>
<polygon fill="black" stroke="black" points="700.42,-790.5 710.42,-787 700.42,-783.5 700.42,-790.5"/>
<text text-anchor="middle" x="648.5" y="-790.8" font-family="Times,serif" font-size="14.00">PyPI</text>
</g>
<!-- _GH__CASEWORK__CASEWORK_GITHUB_IO&#45;&gt;_GH__AJNELSON_NIST__CASE_EXAMPLES_QC -->
<g id="edge14" class="edge">
<title>_GH__CASEWORK__CASEWORK_GITHUB_IO&#45;&gt;_GH__AJNELSON_NIST__CASE_EXAMPLES_QC</title>
<path fill="none" stroke="black" d="M844.76,-801.22C858.01,-805 871.65,-809.58 884,-815 910.53,-826.65 915.43,-833.15 939,-850 943.63,-853.31 943.99,-855.31 949,-858 954.36,-860.88 959.99,-863.58 965.75,-866.09"/>
<polygon fill="black" stroke="black" points="963.98,-869.56 974.55,-870.16 966.66,-863.09 963.98,-869.56"/>
<text text-anchor="middle" x="916.5" y="-868.8" font-family="Times,serif" font-size="14.00">Git sub&#45;</text>
<text text-anchor="middle" x="916.5" y="-853.8" font-family="Times,serif" font-size="14.00">module</text>
</g>
</g>
</svg>
