<?xml version="1.0" encoding="UTF-8" standalone="no"?>
<!DOCTYPE svg PUBLIC "-//W3C//DTD SVG 1.1//EN"
 "http://www.w3.org/Graphics/SVG/1.1/DTD/svg11.dtd">
<!-- Generated by graphviz version 7.1.0 (20230121.1956)
 -->
<!-- Title: cdo_release_flow Pages: 1 -->
<svg width="1637pt" height="1170pt"
 viewBox="0.00 0.00 1637.00 1170.00" xmlns="http://www.w3.org/2000/svg" xmlns:xlink="http://www.w3.org/1999/xlink">
<g id="graph0" class="graph" transform="scale(1 1) rotate(0) translate(4 1166)">
<title>cdo_release_flow</title>
<polygon fill="white" stroke="none" points="-4,4 -4,-1166 1633,-1166 1633,4 -4,4"/>
<text text-anchor="middle" x="814.5" y="-38.8" font-family="Times,serif" font-size="14.00">Release flow of CDO ontologies</text>
<text text-anchor="middle" x="814.5" y="-7.8" font-family="Times,serif" font-size="14.00">Nodes link to the respective Git repository.</text>
<g id="clust1" class="cluster">
<title>cluster_uco_0_9_1</title>
<polygon fill="none" stroke="black" points="0,-139 0,-255 168,-255 168,-139 0,-139"/>
<text text-anchor="middle" x="84" y="-239.8" font-family="Times,serif" font-size="14.00">Adoption of UCO 0.9.1</text>
</g>
<g id="clust2" class="cluster">
<title>cluster_case_0_7_1</title>
<polygon fill="none" stroke="black" points="8,-147 8,-224 160,-224 160,-147 8,-147"/>
<text text-anchor="middle" x="84" y="-208.8" font-family="Times,serif" font-size="14.00">Adoption of CASE 0.7.1</text>
</g>
<g id="clust3" class="cluster">
<title>cluster_uco_1_1_0</title>
<polygon fill="none" stroke="black" points="964,-100 964,-294 1252,-294 1252,-100 964,-100"/>
<text text-anchor="middle" x="1108" y="-278.8" font-family="Times,serif" font-size="14.00">Adoption of UCO 1.1.0</text>
</g>
<g id="clust4" class="cluster">
<title>cluster_case_1_1_0</title>
<polygon fill="none" stroke="black" points="972,-108 972,-263 1244,-263 1244,-108 972,-108"/>
<text text-anchor="middle" x="1108" y="-247.8" font-family="Times,serif" font-size="14.00">Adoption of CASE 1.1.0</text>
</g>
<g id="clust5" class="cluster">
<title>cluster_case_utils_0_9_0</title>
<polygon fill="none" stroke="black" points="980,-116 980,-232 1236,-232 1236,-116 980,-116"/>
<text text-anchor="middle" x="1108" y="-216.8" font-family="Times,serif" font-size="14.00">Adoption of case&#45;utils 0.9.0</text>
</g>
<g id="clust6" class="cluster">
<title>cluster_case_validation_action_2_5</title>
<polygon fill="none" stroke="black" points="988,-124 988,-201 1228,-201 1228,-124 988,-124"/>
<text text-anchor="middle" x="1108" y="-185.8" font-family="Times,serif" font-size="14.00">Adoption of case&#45;validation&#45;action 2.5</text>
</g>
<g id="clust7" class="cluster">
<title>cluster_uco_1_2_0</title>
<polygon fill="none" stroke="black" points="26,-302 26,-1154 1621,-1154 1621,-302 26,-302"/>
<text text-anchor="middle" x="823.5" y="-1138.8" font-family="Times,serif" font-size="14.00">Adoption of UCO 1.2.0</text>
</g>
<g id="clust8" class="cluster">
<title>cluster_case_1_2_0</title>
<polygon fill="none" stroke="black" points="243,-356 243,-1123 1613,-1123 1613,-356 243,-356"/>
<text text-anchor="middle" x="928" y="-1107.8" font-family="Times,serif" font-size="14.00">Adoption of CASE 1.2.0</text>
</g>
<g id="clust9" class="cluster">
<title>cluster_case_utils_0_10_0</title>
<polygon fill="none" stroke="black" points="476,-410 476,-1092 1605,-1092 1605,-410 476,-410"/>
<text text-anchor="middle" x="1040.5" y="-1076.8" font-family="Times,serif" font-size="14.00">Adoption of case&#45;utils 0.10.0</text>
</g>
<g id="clust11" class="cluster">
<title>cluster_case_validation_action_2_6</title>
<polygon fill="none" stroke="black" points="651.5,-520 651.5,-888 1249.5,-888 1249.5,-520 651.5,-520"/>
<text text-anchor="middle" x="950.5" y="-872.8" font-family="Times,serif" font-size="14.00">Adoption of case&#45;validation&#45;action 2.6</text>
</g>
<g id="clust12" class="cluster">
<title>cluster_case_bindings_csharp_0_4_0</title>
<polygon fill="none" stroke="black" points="659.5,-780 659.5,-857 1241.5,-857 1241.5,-780 659.5,-780"/>
<text text-anchor="middle" x="950.5" y="-841.8" font-family="Times,serif" font-size="14.00">Adoption of CSharp bindings 0.4.0</text>
</g>
<g id="clust10" class="cluster">
<title>cluster_case_prov_0_7_0</title>
<polygon fill="none" stroke="black" points="1315,-979 1315,-1056 1597,-1056 1597,-979 1315,-979"/>
<text text-anchor="middle" x="1456" y="-1040.8" font-family="Times,serif" font-size="14.00">Adoption of case&#45;prov 0.7.0</text>
</g>
<!-- _GH__CASEWORK__CASE_MAPPING_TEMPLATE_STUBS -->
<g id="node1" class="node">
<title>_GH__CASEWORK__CASE_MAPPING_TEMPLATE_STUBS</title>
<g id="a_node1"><a xlink:href="https://github.com/casework/CASE-Mapping-Template-Stubs" xlink:title="CASE Mapping\nTemplate Stubs">
<path fill="#8ec7d2" stroke="#0d6986" d="M124,-193C124,-193 44,-193 44,-193 38,-193 32,-187 32,-181 32,-181 32,-167 32,-167 32,-161 38,-155 44,-155 44,-155 124,-155 124,-155 130,-155 136,-161 136,-167 136,-167 136,-181 136,-181 136,-187 130,-193 124,-193"/>
<text text-anchor="middle" x="84" y="-177.8" font-family="Times,serif" font-size="14.00">CASE Mapping</text>
<text text-anchor="middle" x="84" y="-162.8" font-family="Times,serif" font-size="14.00">Template Stubs</text>
</a>
</g>
</g>
<!-- _GH__CASEWORK__CASE_IMPLEMENTATON_PYPI_EXIFREAD -->
<g id="node2" class="node">
<title>_GH__CASEWORK__CASE_IMPLEMENTATON_PYPI_EXIFREAD</title>
<g id="a_node2"><a xlink:href="https://github.com/casework/CASE-Implementation-PyPI-Exifread" xlink:title="CASE&#45;Implementation&#45;PyPI&#45;Exifread\nadopts new case&#45;validation&#45;action">
<path fill="#8ec7d2" stroke="#0d6986" d="M1208,-170C1208,-170 1008,-170 1008,-170 1002,-170 996,-164 996,-158 996,-158 996,-144 996,-144 996,-138 1002,-132 1008,-132 1008,-132 1208,-132 1208,-132 1214,-132 1220,-138 1220,-144 1220,-144 1220,-158 1220,-158 1220,-164 1214,-170 1208,-170"/>
<text text-anchor="middle" x="1108" y="-154.8" font-family="Times,serif" font-size="14.00">CASE&#45;Implementation&#45;PyPI&#45;Exifread</text>
<text text-anchor="middle" x="1108" y="-139.8" font-family="Times,serif" font-size="14.00">adopts new case&#45;validation&#45;action</text>
</a>
</g>
</g>
<!-- _GH__UCOPROJECT__ONTOLOGY_UNIFIEDCYBERONTOLOGY_ORG -->
<g id="node3" class="node">
<title>_GH__UCOPROJECT__ONTOLOGY_UNIFIEDCYBERONTOLOGY_ORG</title>
<g id="a_node3"><a xlink:href="https://github.com/ucoProject/ontology.unifiedcyberontology.org" xlink:title="UCO documentation\nregenerated">
<path fill="#8ec7d2" stroke="#0d6986" d="M357,-348C357,-348 251,-348 251,-348 245,-348 239,-342 239,-336 239,-336 239,-322 239,-322 239,-316 245,-310 251,-310 251,-310 357,-310 357,-310 363,-310 369,-316 369,-322 369,-322 369,-336 369,-336 369,-342 363,-348 357,-348"/>
<text text-anchor="middle" x="304" y="-332.8" font-family="Times,serif" font-size="14.00">UCO documentation</text>
<text text-anchor="middle" x="304" y="-317.8" font-family="Times,serif" font-size="14.00">regenerated</text>
</a>
</g>
</g>
<!-- _GH__CASEWORK__ONTOLOGY_CASEONTOLOGY_ORG -->
<g id="node6" class="node">
<title>_GH__CASEWORK__ONTOLOGY_CASEONTOLOGY_ORG</title>
<g id="a_node6"><a xlink:href="https://github.com/casework/ontology.caseontology.org" xlink:title="CASE documentation\nregenerated">
<path fill="#8ec7d2" stroke="#0d6986" d="M574,-402C574,-402 462,-402 462,-402 456,-402 450,-396 450,-390 450,-390 450,-376 450,-376 450,-370 456,-364 462,-364 462,-364 574,-364 574,-364 580,-364 586,-370 586,-376 586,-376 586,-390 586,-390 586,-396 580,-402 574,-402"/>
<text text-anchor="middle" x="518" y="-386.8" font-family="Times,serif" font-size="14.00">CASE documentation</text>
<text text-anchor="middle" x="518" y="-371.8" font-family="Times,serif" font-size="14.00">regenerated</text>
</a>
</g>
</g>
<!-- _GH__UCOPROJECT__ONTOLOGY_UNIFIEDCYBERONTOLOGY_ORG&#45;&gt;_GH__CASEWORK__ONTOLOGY_CASEONTOLOGY_ORG -->
<g id="edge23" class="edge">
<title>_GH__UCOPROJECT__ONTOLOGY_UNIFIEDCYBERONTOLOGY_ORG&#45;&gt;_GH__CASEWORK__ONTOLOGY_CASEONTOLOGY_ORG</title>
<path fill="none" stroke="black" d="M369.47,-345.42C391.25,-350.97 415.8,-357.22 438.53,-363.01"/>
<polygon fill="black" stroke="black" points="437.51,-366.36 448.06,-365.44 439.24,-359.58 437.51,-366.36"/>
<text text-anchor="middle" x="409.5" y="-378.8" font-family="Times,serif" font-size="14.00">Tech&#45;</text>
<text text-anchor="middle" x="409.5" y="-363.8" font-family="Times,serif" font-size="14.00">check</text>
</g>
<!-- _GH__UCOPROJECT__UCO -->
<g id="node4" class="node">
<title>_GH__UCOPROJECT__UCO</title>
<g id="a_node4"><a xlink:href="https://github.com/ucoProject/UCO" xlink:title="UCO Ontology\nreleases">
<path fill="#8ec7d2" stroke="#0d6986" d="M122,-374C122,-374 46,-374 46,-374 40,-374 34,-368 34,-362 34,-362 34,-348 34,-348 34,-342 40,-336 46,-336 46,-336 122,-336 122,-336 128,-336 134,-342 134,-348 134,-348 134,-362 134,-362 134,-368 128,-374 122,-374"/>
<text text-anchor="middle" x="84" y="-358.8" font-family="Times,serif" font-size="14.00">UCO Ontology</text>
<text text-anchor="middle" x="84" y="-343.8" font-family="Times,serif" font-size="14.00">releases</text>
</a>
</g>
</g>
<!-- _GH__UCOPROJECT__UCO&#45;&gt;_GH__UCOPROJECT__ONTOLOGY_UNIFIEDCYBERONTOLOGY_ORG -->
<g id="edge25" class="edge">
<title>_GH__UCOPROJECT__UCO&#45;&gt;_GH__UCOPROJECT__ONTOLOGY_UNIFIEDCYBERONTOLOGY_ORG</title>
<path fill="none" stroke="black" d="M134.11,-349.04C147.68,-347.4 162.41,-345.62 176,-344 192.73,-342 210.7,-339.87 227.7,-337.86"/>
<polygon fill="black" stroke="black" points="227.69,-341.38 237.21,-336.74 226.87,-334.43 227.69,-341.38"/>
<text text-anchor="middle" x="198.5" y="-362.8" font-family="Times,serif" font-size="14.00">Git sub&#45;</text>
<text text-anchor="middle" x="198.5" y="-347.8" font-family="Times,serif" font-size="14.00">module</text>
</g>
<!-- _GH__CASEWORK__CASE -->
<g id="node5" class="node">
<title>_GH__CASEWORK__CASE</title>
<g id="a_node5"><a xlink:href="https://github.com/casework/CASE" xlink:title="CASE Ontology\nreleases">
<path fill="#8ec7d2" stroke="#0d6986" d="M345,-650C345,-650 263,-650 263,-650 257,-650 251,-644 251,-638 251,-638 251,-624 251,-624 251,-618 257,-612 263,-612 263,-612 345,-612 345,-612 351,-612 357,-618 357,-624 357,-624 357,-638 357,-638 357,-644 351,-650 345,-650"/>
<text text-anchor="middle" x="304" y="-634.8" font-family="Times,serif" font-size="14.00">CASE Ontology</text>
<text text-anchor="middle" x="304" y="-619.8" font-family="Times,serif" font-size="14.00">releases</text>
</a>
</g>
</g>
<!-- _GH__UCOPROJECT__UCO&#45;&gt;_GH__CASEWORK__CASE -->
<g id="edge24" class="edge">
<title>_GH__UCOPROJECT__UCO&#45;&gt;_GH__CASEWORK__CASE</title>
<path fill="none" stroke="black" d="M91.55,-374.21C108.44,-420.99 157.93,-541.84 239,-608 239.67,-608.55 240.35,-609.08 241.05,-609.6"/>
<polygon fill="black" stroke="black" points="239.09,-612.51 249.41,-614.9 242.84,-606.59 239.09,-612.51"/>
<text text-anchor="middle" x="198.5" y="-604.8" font-family="Times,serif" font-size="14.00">Git sub&#45;</text>
<text text-anchor="middle" x="198.5" y="-589.8" font-family="Times,serif" font-size="14.00">module</text>
</g>
<!-- _GH__CASEWORK__CASE&#45;&gt;_GH__CASEWORK__ONTOLOGY_CASEONTOLOGY_ORG -->
<g id="edge4" class="edge">
<title>_GH__CASEWORK__CASE&#45;&gt;_GH__CASEWORK__ONTOLOGY_CASEONTOLOGY_ORG</title>
<path fill="none" stroke="black" d="M357.23,-616.17C361.45,-613.82 365.45,-611.12 369,-608 415.13,-567.44 411.01,-542.72 432,-485 443.05,-454.59 429.35,-436.68 446.56,-411.29"/>
<polygon fill="black" stroke="black" points="449.23,-413.56 452.72,-403.55 443.76,-409.2 449.23,-413.56"/>
<text text-anchor="middle" x="409.5" y="-607.8" font-family="Times,serif" font-size="14.00">Git sub&#45;</text>
<text text-anchor="middle" x="409.5" y="-592.8" font-family="Times,serif" font-size="14.00">module</text>
</g>
<!-- _GH__CASEWORK__CASE_UTILITIES_PYTHON -->
<g id="node11" class="node">
<title>_GH__CASEWORK__CASE_UTILITIES_PYTHON</title>
<g id="a_node11"><a xlink:href="https://github.com/casework/CASE-Utilities-Python" xlink:title="case&#45;utils\nreleases">
<path fill="#8ec7d2" stroke="#0d6986" d="M540,-852C540,-852 496,-852 496,-852 490,-852 484,-846 484,-840 484,-840 484,-826 484,-826 484,-820 490,-814 496,-814 496,-814 540,-814 540,-814 546,-814 552,-820 552,-826 552,-826 552,-840 552,-840 552,-846 546,-852 540,-852"/>
<text text-anchor="middle" x="518" y="-836.8" font-family="Times,serif" font-size="14.00">case&#45;utils</text>
<text text-anchor="middle" x="518" y="-821.8" font-family="Times,serif" font-size="14.00">releases</text>
</a>
</g>
</g>
<!-- _GH__CASEWORK__CASE&#45;&gt;_GH__CASEWORK__CASE_UTILITIES_PYTHON -->
<g id="edge2" class="edge">
<title>_GH__CASEWORK__CASE&#45;&gt;_GH__CASEWORK__CASE_UTILITIES_PYTHON</title>
<path fill="none" stroke="black" d="M315.69,-650.43C336.71,-686.9 386.91,-765.88 450,-810 456.86,-814.8 464.81,-818.67 472.78,-821.77"/>
<polygon fill="black" stroke="black" points="471.54,-825.04 482.14,-825.03 473.85,-818.44 471.54,-825.04"/>
<text text-anchor="middle" x="409.5" y="-812.8" font-family="Times,serif" font-size="14.00">Git sub&#45;</text>
<text text-anchor="middle" x="409.5" y="-797.8" font-family="Times,serif" font-size="14.00">module</text>
</g>
<!-- _GH__CIPHERTECHSOLUTIONS__CASE_BINDINGS_CSHARP -->
<g id="node21" class="node">
<title>_GH__CIPHERTECHSOLUTIONS__CASE_BINDINGS_CSHARP</title>
<g id="a_node21"><a xlink:href="https://github.com/ciphertechsolutions/CASE-Bindings-CSharp" xlink:title="CASE&#45;Bindings&#45;CSharp\nadopts new ontology version">
<path fill="#8ec7d2" stroke="#0d6986" d="M828.5,-826C828.5,-826 679.5,-826 679.5,-826 673.5,-826 667.5,-820 667.5,-814 667.5,-814 667.5,-800 667.5,-800 667.5,-794 673.5,-788 679.5,-788 679.5,-788 828.5,-788 828.5,-788 834.5,-788 840.5,-794 840.5,-800 840.5,-800 840.5,-814 840.5,-814 840.5,-820 834.5,-826 828.5,-826"/>
<text text-anchor="middle" x="754" y="-810.8" font-family="Times,serif" font-size="14.00">CASE&#45;Bindings&#45;CSharp</text>
<text text-anchor="middle" x="754" y="-795.8" font-family="Times,serif" font-size="14.00">adopts new ontology version</text>
</a>
</g>
</g>
<!-- _GH__CASEWORK__CASE&#45;&gt;_GH__CIPHERTECHSOLUTIONS__CASE_BINDINGS_CSHARP -->
<g id="edge3" class="edge">
<title>_GH__CASEWORK__CASE&#45;&gt;_GH__CIPHERTECHSOLUTIONS__CASE_BINDINGS_CSHARP</title>
<path fill="none" stroke="black" d="M304.4,-650.03C303.36,-719.64 310.24,-961.56 450,-1062 515.33,-1108.95 571.96,-1116.64 631,-1062 668.95,-1026.88 615.09,-869.04 649,-830 651.55,-827.07 654.38,-824.46 657.42,-822.15"/>
<polygon fill="black" stroke="black" points="659.26,-825.13 665.87,-816.86 655.54,-819.2 659.26,-825.13"/>
</g>
<!-- _GH__AJNELSON_NIST__CASE_EXAMPLES_QC -->
<g id="node7" class="node">
<title>_GH__AJNELSON_NIST__CASE_EXAMPLES_QC</title>
<g id="a_node7"><a xlink:href="https://github.com/ajnelson-nist/CASE-Examples-QC" xlink:title="CASE&#45;Examples&#45;QC\nadopts CASE&#45;Examples and\nCASE website updates">
<path fill="#8ec7d2" stroke="#0d6986" d="M1182,-1010.5C1182,-1010.5 1034,-1010.5 1034,-1010.5 1028,-1010.5 1022,-1004.5 1022,-998.5 1022,-998.5 1022,-969.5 1022,-969.5 1022,-963.5 1028,-957.5 1034,-957.5 1034,-957.5 1182,-957.5 1182,-957.5 1188,-957.5 1194,-963.5 1194,-969.5 1194,-969.5 1194,-998.5 1194,-998.5 1194,-1004.5 1188,-1010.5 1182,-1010.5"/>
<text text-anchor="middle" x="1108" y="-995.3" font-family="Times,serif" font-size="14.00">CASE&#45;Examples&#45;QC</text>
<text text-anchor="middle" x="1108" y="-980.3" font-family="Times,serif" font-size="14.00">adopts CASE&#45;Examples and</text>
<text text-anchor="middle" x="1108" y="-965.3" font-family="Times,serif" font-size="14.00">CASE website updates</text>
</a>
</g>
</g>
<!-- _GH__CASEWORK__CASE_IMPLEMENTATON_PROV_O -->
<g id="node14" class="node">
<title>_GH__CASEWORK__CASE_IMPLEMENTATON_PROV_O</title>
<g id="a_node14"><a xlink:href="https://github.com/casework/CASE-Implementation-PROV-O" xlink:title="case&#45;prov\nreleases">
<path fill="#8ec7d2" stroke="#0d6986" d="M1380,-1025C1380,-1025 1335,-1025 1335,-1025 1329,-1025 1323,-1019 1323,-1013 1323,-1013 1323,-999 1323,-999 1323,-993 1329,-987 1335,-987 1335,-987 1380,-987 1380,-987 1386,-987 1392,-993 1392,-999 1392,-999 1392,-1013 1392,-1013 1392,-1019 1386,-1025 1380,-1025"/>
<text text-anchor="middle" x="1357.5" y="-1009.8" font-family="Times,serif" font-size="14.00">case&#45;prov</text>
<text text-anchor="middle" x="1357.5" y="-994.8" font-family="Times,serif" font-size="14.00">releases</text>
</a>
</g>
</g>
<!-- _GH__AJNELSON_NIST__CASE_EXAMPLES_QC&#45;&gt;_GH__CASEWORK__CASE_IMPLEMENTATON_PROV_O -->
<g id="edge1" class="edge">
<title>_GH__AJNELSON_NIST__CASE_EXAMPLES_QC&#45;&gt;_GH__CASEWORK__CASE_IMPLEMENTATON_PROV_O</title>
<path fill="none" stroke="black" d="M1194.18,-991.57C1233.53,-995.07 1278.67,-999.08 1311.34,-1001.99"/>
<polygon fill="black" stroke="black" points="1311,-1005.47 1321.27,-1002.87 1311.62,-998.5 1311,-1005.47"/>
<text text-anchor="middle" x="1282.5" y="-1019.8" font-family="Times,serif" font-size="14.00">Git sub&#45;</text>
<text text-anchor="middle" x="1282.5" y="-1004.8" font-family="Times,serif" font-size="14.00">module</text>
</g>
<!-- _GH__CASEWORK__CASE_EXAMPLES -->
<g id="node8" class="node">
<title>_GH__CASEWORK__CASE_EXAMPLES</title>
<g id="a_node8"><a xlink:href="https://github.com/casework/CASE-Examples" xlink:title="CASE&#45;Examples\nadopts new case&#45;utils">
<path fill="#8ec7d2" stroke="#0d6986" d="M808.5,-934C808.5,-934 699.5,-934 699.5,-934 693.5,-934 687.5,-928 687.5,-922 687.5,-922 687.5,-908 687.5,-908 687.5,-902 693.5,-896 699.5,-896 699.5,-896 808.5,-896 808.5,-896 814.5,-896 820.5,-902 820.5,-908 820.5,-908 820.5,-922 820.5,-922 820.5,-928 814.5,-934 808.5,-934"/>
<text text-anchor="middle" x="754" y="-918.8" font-family="Times,serif" font-size="14.00">CASE&#45;Examples</text>
<text text-anchor="middle" x="754" y="-903.8" font-family="Times,serif" font-size="14.00">adopts new case&#45;utils</text>
</a>
</g>
</g>
<!-- _GH__CASEWORK__CASE_EXAMPLES&#45;&gt;_GH__AJNELSON_NIST__CASE_EXAMPLES_QC -->
<g id="edge5" class="edge">
<title>_GH__CASEWORK__CASE_EXAMPLES&#45;&gt;_GH__AJNELSON_NIST__CASE_EXAMPLES_QC</title>
<path fill="none" stroke="black" d="M820.58,-920.99C860.06,-925.22 911.2,-931.78 956,-941 973.88,-944.68 992.74,-949.38 1010.85,-954.31"/>
<polygon fill="black" stroke="black" points="1009.67,-957.62 1020.25,-956.92 1011.54,-950.87 1009.67,-957.62"/>
<text text-anchor="middle" x="916.5" y="-959.8" font-family="Times,serif" font-size="14.00">Git sub&#45;</text>
<text text-anchor="middle" x="916.5" y="-944.8" font-family="Times,serif" font-size="14.00">module</text>
</g>
<!-- _GH__CASEWORK__CASE_IMPLEMENTATON_EXIFTOOL -->
<g id="node9" class="node">
<title>_GH__CASEWORK__CASE_IMPLEMENTATON_EXIFTOOL</title>
<g id="a_node9"><a xlink:href="https://github.com/casework/CASE-Implementation-ExifTool" xlink:title="CASE&#45;Implementation&#45;ExifTool\nadopts new case&#45;utils">
<path fill="#8ec7d2" stroke="#0d6986" d="M840,-456C840,-456 668,-456 668,-456 662,-456 656,-450 656,-444 656,-444 656,-430 656,-430 656,-424 662,-418 668,-418 668,-418 840,-418 840,-418 846,-418 852,-424 852,-430 852,-430 852,-444 852,-444 852,-450 846,-456 840,-456"/>
<text text-anchor="middle" x="754" y="-440.8" font-family="Times,serif" font-size="14.00">CASE&#45;Implementation&#45;ExifTool</text>
<text text-anchor="middle" x="754" y="-425.8" font-family="Times,serif" font-size="14.00">adopts new case&#45;utils</text>
</a>
</g>
</g>
<!-- _GH__CASEWORK__CASE_IMPLEMENTATON_GNU_TIME -->
<g id="node10" class="node">
<title>_GH__CASEWORK__CASE_IMPLEMENTATON_GNU_TIME</title>
<g id="a_node10"><a xlink:href="https://github.com/casework/CASE-Implementation-GNU-Time" xlink:title="CASE&#45;Implementation&#45;GNU&#45;Time\nadopts new case&#45;utils">
<path fill="#8ec7d2" stroke="#0d6986" d="M847,-512C847,-512 661,-512 661,-512 655,-512 649,-506 649,-500 649,-500 649,-486 649,-486 649,-480 655,-474 661,-474 661,-474 847,-474 847,-474 853,-474 859,-480 859,-486 859,-486 859,-500 859,-500 859,-506 853,-512 847,-512"/>
<text text-anchor="middle" x="754" y="-496.8" font-family="Times,serif" font-size="14.00">CASE&#45;Implementation&#45;GNU&#45;Time</text>
<text text-anchor="middle" x="754" y="-481.8" font-family="Times,serif" font-size="14.00">adopts new case&#45;utils</text>
</a>
</g>
</g>
<!-- _GH__CASEWORK__CASE_UTILITIES_PYTHON&#45;&gt;_GH__AJNELSON_NIST__CASE_EXAMPLES_QC -->
<g id="edge7" class="edge">
<title>_GH__CASEWORK__CASE_UTILITIES_PYTHON&#45;&gt;_GH__AJNELSON_NIST__CASE_EXAMPLES_QC</title>
<path fill="none" stroke="black" d="M527.02,-852.43C543.47,-889.35 584.99,-968.67 649,-999 772.42,-1057.47 820.01,-1024.5 956,-1012 973.7,-1010.37 992.42,-1007.69 1010.43,-1004.62"/>
<polygon fill="black" stroke="black" points="1010.81,-1008.11 1020.05,-1002.93 1009.59,-1001.22 1010.81,-1008.11"/>
<text text-anchor="middle" x="754" y="-1035.8" font-family="Times,serif" font-size="14.00">PyPI</text>
</g>
<!-- _GH__CASEWORK__CASE_UTILITIES_PYTHON&#45;&gt;_GH__CASEWORK__CASE_EXAMPLES -->
<g id="edge8" class="edge">
<title>_GH__CASEWORK__CASE_UTILITIES_PYTHON&#45;&gt;_GH__CASEWORK__CASE_EXAMPLES</title>
<path fill="none" stroke="black" d="M552.03,-844.57C586.95,-856.81 642.95,-876.43 686.98,-891.86"/>
<polygon fill="black" stroke="black" points="685.58,-895.08 696.18,-895.09 687.9,-888.48 685.58,-895.08"/>
<text text-anchor="middle" x="617.5" y="-874.8" font-family="Times,serif" font-size="14.00">PyPI</text>
</g>
<!-- _GH__CASEWORK__CASE_UTILITIES_PYTHON&#45;&gt;_GH__CASEWORK__CASE_IMPLEMENTATON_EXIFTOOL -->
<g id="edge9" class="edge">
<title>_GH__CASEWORK__CASE_UTILITIES_PYTHON&#45;&gt;_GH__CASEWORK__CASE_IMPLEMENTATON_EXIFTOOL</title>
<path fill="none" stroke="black" d="M552.17,-829.38C564.71,-826.26 577.9,-820.53 586,-810 620.1,-765.68 589.68,-613.06 604,-559 615.86,-514.23 613.39,-494.61 649,-465 649.97,-464.19 650.96,-463.41 651.97,-462.65"/>
<polygon fill="black" stroke="black" points="653.83,-465.62 660.28,-457.21 650,-459.76 653.83,-465.62"/>
<text text-anchor="middle" x="617.5" y="-562.8" font-family="Times,serif" font-size="14.00">PyPI</text>
</g>
<!-- _GH__CASEWORK__CASE_UTILITIES_PYTHON&#45;&gt;_GH__CASEWORK__CASE_IMPLEMENTATON_GNU_TIME -->
<g id="edge10" class="edge">
<title>_GH__CASEWORK__CASE_UTILITIES_PYTHON&#45;&gt;_GH__CASEWORK__CASE_IMPLEMENTATON_GNU_TIME</title>
<path fill="none" stroke="black" d="M552.49,-828.52C564.62,-825.27 577.43,-819.66 586,-810 606.52,-786.86 622.86,-574.9 647.09,-521.79"/>
<polygon fill="black" stroke="black" points="649.91,-523.88 652.27,-513.55 643.99,-520.15 649.91,-523.88"/>
<text text-anchor="middle" x="617.5" y="-742.8" font-family="Times,serif" font-size="14.00">PyPI</text>
</g>
<!-- _GH__CASEWORK__CASEWORK_GITHUB_IO -->
<g id="node12" class="node">
<title>_GH__CASEWORK__CASEWORK_GITHUB_IO</title>
<g id="a_node12"><a xlink:href="https://github.com/casework/casework.github.io" xlink:title="CASE website\nadopts new case&#45;utils">
<path fill="#8ec7d2" stroke="#0d6986" d="M808.5,-990C808.5,-990 699.5,-990 699.5,-990 693.5,-990 687.5,-984 687.5,-978 687.5,-978 687.5,-964 687.5,-964 687.5,-958 693.5,-952 699.5,-952 699.5,-952 808.5,-952 808.5,-952 814.5,-952 820.5,-958 820.5,-964 820.5,-964 820.5,-978 820.5,-978 820.5,-984 814.5,-990 808.5,-990"/>
<text text-anchor="middle" x="754" y="-974.8" font-family="Times,serif" font-size="14.00">CASE website</text>
<text text-anchor="middle" x="754" y="-959.8" font-family="Times,serif" font-size="14.00">adopts new case&#45;utils</text>
</a>
</g>
</g>
<!-- _GH__CASEWORK__CASE_UTILITIES_PYTHON&#45;&gt;_GH__CASEWORK__CASEWORK_GITHUB_IO -->
<g id="edge13" class="edge">
<title>_GH__CASEWORK__CASE_UTILITIES_PYTHON&#45;&gt;_GH__CASEWORK__CASEWORK_GITHUB_IO</title>
<path fill="none" stroke="black" d="M536.44,-852.28C559.75,-876.89 603.43,-919.12 649,-943 657.6,-947.51 667,-951.34 676.51,-954.58"/>
<polygon fill="black" stroke="black" points="675.23,-957.85 685.82,-957.54 677.35,-951.18 675.23,-957.85"/>
<text text-anchor="middle" x="617.5" y="-934.8" font-family="Times,serif" font-size="14.00">PyPI</text>
</g>
<!-- _GH__CASEWORK__CASE_UTILITIES_PYTHON&#45;&gt;_GH__CASEWORK__CASE_IMPLEMENTATON_PROV_O -->
<g id="edge11" class="edge">
<title>_GH__CASEWORK__CASE_UTILITIES_PYTHON&#45;&gt;_GH__CASEWORK__CASE_IMPLEMENTATON_PROV_O</title>
<path fill="none" stroke="black" d="M523.45,-852.38C534.98,-897.49 570.59,-1008.87 649,-1051 716.34,-1087.18 1119.46,-1087.22 1305,-1035 1309.21,-1033.81 1313.45,-1032.22 1317.59,-1030.38"/>
<polygon fill="black" stroke="black" points="1318.84,-1033.67 1326.25,-1026.09 1315.73,-1027.4 1318.84,-1033.67"/>
<text text-anchor="middle" x="916.5" y="-1079.8" font-family="Times,serif" font-size="14.00">PyPI</text>
</g>
<!-- _GH__KCHASON__CASE_VALIDATION_ACTION -->
<g id="node19" class="node">
<title>_GH__KCHASON__CASE_VALIDATION_ACTION</title>
<g id="a_node19"><a xlink:href="https://github.com/kchason/case-validation-action" xlink:title="case&#45;validation&#45;action\nreleases">
<path fill="#8ec7d2" stroke="#0d6986" d="M810,-645C810,-645 698,-645 698,-645 692,-645 686,-639 686,-633 686,-633 686,-619 686,-619 686,-613 692,-607 698,-607 698,-607 810,-607 810,-607 816,-607 822,-613 822,-619 822,-619 822,-633 822,-633 822,-639 816,-645 810,-645"/>
<text text-anchor="middle" x="754" y="-629.8" font-family="Times,serif" font-size="14.00">case&#45;validation&#45;action</text>
<text text-anchor="middle" x="754" y="-614.8" font-family="Times,serif" font-size="14.00">releases</text>
</a>
</g>
</g>
<!-- _GH__CASEWORK__CASE_UTILITIES_PYTHON&#45;&gt;_GH__KCHASON__CASE_VALIDATION_ACTION -->
<g id="edge12" class="edge">
<title>_GH__CASEWORK__CASE_UTILITIES_PYTHON&#45;&gt;_GH__KCHASON__CASE_VALIDATION_ACTION</title>
<path fill="none" stroke="black" d="M552.22,-825.21C563.51,-821.65 575.83,-816.7 586,-810 650.27,-767.68 706.06,-695 733.98,-654.82"/>
<polygon fill="black" stroke="black" points="736.85,-656.82 739.61,-646.59 731.07,-652.86 736.85,-656.82"/>
<text text-anchor="middle" x="617.5" y="-797.8" font-family="Times,serif" font-size="14.00">PyPI</text>
</g>
<!-- _GH__CASEWORK__CASEWORK_GITHUB_IO&#45;&gt;_GH__AJNELSON_NIST__CASE_EXAMPLES_QC -->
<g id="edge14" class="edge">
<title>_GH__CASEWORK__CASEWORK_GITHUB_IO&#45;&gt;_GH__AJNELSON_NIST__CASE_EXAMPLES_QC</title>
<path fill="none" stroke="black" d="M820.8,-973.43C874.07,-975.4 949.9,-978.2 1010.11,-980.42"/>
<polygon fill="black" stroke="black" points="1009.92,-983.92 1020.04,-980.79 1010.18,-976.92 1009.92,-983.92"/>
<text text-anchor="middle" x="916.5" y="-996.8" font-family="Times,serif" font-size="14.00">Git sub&#45;</text>
<text text-anchor="middle" x="916.5" y="-981.8" font-family="Times,serif" font-size="14.00">module</text>
</g>
<!-- _GH__CASEWORK__CASE_CORPORA -->
<g id="node13" class="node">
<title>_GH__CASEWORK__CASE_CORPORA</title>
<g id="a_node13"><a xlink:href="https://github.com/casework/CASE-Corpora" xlink:title="CASE&#45;Corpora\nadopts new case&#45;prov">
<path fill="#8ec7d2" stroke="#0d6986" d="M1577,-1025C1577,-1025 1467,-1025 1467,-1025 1461,-1025 1455,-1019 1455,-1013 1455,-1013 1455,-999 1455,-999 1455,-993 1461,-987 1467,-987 1467,-987 1577,-987 1577,-987 1583,-987 1589,-993 1589,-999 1589,-999 1589,-1013 1589,-1013 1589,-1019 1583,-1025 1577,-1025"/>
<text text-anchor="middle" x="1522" y="-1009.8" font-family="Times,serif" font-size="14.00">CASE&#45;Corpora</text>
<text text-anchor="middle" x="1522" y="-994.8" font-family="Times,serif" font-size="14.00">adopts new case&#45;prov</text>
</a>
</g>
</g>
<!-- _GH__CASEWORK__CASE_IMPLEMENTATON_PROV_O&#45;&gt;_GH__CASEWORK__CASE_CORPORA -->
<g id="edge6" class="edge">
<title>_GH__CASEWORK__CASE_IMPLEMENTATON_PROV_O&#45;&gt;_GH__CASEWORK__CASE_CORPORA</title>
<path fill="none" stroke="black" d="M1392.17,-1006C1407.03,-1006 1425.18,-1006 1443.11,-1006"/>
<polygon fill="black" stroke="black" points="1443,-1009.5 1453,-1006 1443,-1002.5 1443,-1009.5"/>
<text text-anchor="middle" x="1423.5" y="-1009.8" font-family="Times,serif" font-size="14.00">PyPI</text>
</g>
<!-- _GH__CASEWORK__CASE_IMPLEMENTATON_PYPI_PILLOW -->
<g id="node15" class="node">
<title>_GH__CASEWORK__CASE_IMPLEMENTATON_PYPI_PILLOW</title>
<g id="a_node15"><a xlink:href="https://github.com/casework/CASE-Implementation-PyPI-Pillow" xlink:title="CASE&#45;Implementation&#45;PyPI&#45;Pillow\nadopts new case&#45;validation&#45;action">
<path fill="#8ec7d2" stroke="#0d6986" d="M1202.5,-678C1202.5,-678 1013.5,-678 1013.5,-678 1007.5,-678 1001.5,-672 1001.5,-666 1001.5,-666 1001.5,-652 1001.5,-652 1001.5,-646 1007.5,-640 1013.5,-640 1013.5,-640 1202.5,-640 1202.5,-640 1208.5,-640 1214.5,-646 1214.5,-652 1214.5,-652 1214.5,-666 1214.5,-666 1214.5,-672 1208.5,-678 1202.5,-678"/>
<text text-anchor="middle" x="1108" y="-662.8" font-family="Times,serif" font-size="14.00">CASE&#45;Implementation&#45;PyPI&#45;Pillow</text>
<text text-anchor="middle" x="1108" y="-647.8" font-family="Times,serif" font-size="14.00">adopts new case&#45;validation&#45;action</text>
</a>
</g>
</g>
<!-- _GH__CASEWORK__CASE_IMPLEMENTATON_UFED_XML -->
<g id="node16" class="node">
<title>_GH__CASEWORK__CASE_IMPLEMENTATON_UFED_XML</title>
<g id="a_node16"><a xlink:href="https://github.com/casework/CASE-Implementation-UFED-XML" xlink:title="CASE&#45;Implementation&#45;UFED&#45;XML\nadopts new case&#45;validation&#45;action">
<path fill="#8ec7d2" stroke="#0d6986" d="M1205,-734C1205,-734 1011,-734 1011,-734 1005,-734 999,-728 999,-722 999,-722 999,-708 999,-708 999,-702 1005,-696 1011,-696 1011,-696 1205,-696 1205,-696 1211,-696 1217,-702 1217,-708 1217,-708 1217,-722 1217,-722 1217,-728 1211,-734 1205,-734"/>
<text text-anchor="middle" x="1108" y="-718.8" font-family="Times,serif" font-size="14.00">CASE&#45;Implementation&#45;UFED&#45;XML</text>
<text text-anchor="middle" x="1108" y="-703.8" font-family="Times,serif" font-size="14.00">adopts new case&#45;validation&#45;action</text>
</a>
</g>
</g>
<!-- _GH__CASEWORK__CASE_IMPLEMENTATON_XRY -->
<g id="node17" class="node">
<title>_GH__CASEWORK__CASE_IMPLEMENTATON_XRY</title>
<g id="a_node17"><a xlink:href="https://github.com/casework/CASE-Implementation-XRY" xlink:title="CASE&#45;Implementation&#45;XRY adopts\nnew case&#45;validation&#45;action">
<path fill="#8ec7d2" stroke="#0d6986" d="M1203,-566C1203,-566 1013,-566 1013,-566 1007,-566 1001,-560 1001,-554 1001,-554 1001,-540 1001,-540 1001,-534 1007,-528 1013,-528 1013,-528 1203,-528 1203,-528 1209,-528 1215,-534 1215,-540 1215,-540 1215,-554 1215,-554 1215,-560 1209,-566 1203,-566"/>
<text text-anchor="middle" x="1108" y="-550.8" font-family="Times,serif" font-size="14.00">CASE&#45;Implementation&#45;XRY adopts</text>
<text text-anchor="middle" x="1108" y="-535.8" font-family="Times,serif" font-size="14.00">new case&#45;validation&#45;action</text>
</a>
</g>
</g>
<!-- _GH__CASEWORK__CASE_MAPPING_TEMPLATE_PYTHON -->
<g id="node18" class="node">
<title>_GH__CASEWORK__CASE_MAPPING_TEMPLATE_PYTHON</title>
<g id="a_node18"><a xlink:href="https://github.com/casework/CASE-Mapping-Template-Python" xlink:title="CASE&#45;Mapping&#45;Template&#45;Python\nadopts new case&#45;validation&#45;action">
<path fill="#8ec7d2" stroke="#0d6986" d="M1198,-622C1198,-622 1018,-622 1018,-622 1012,-622 1006,-616 1006,-610 1006,-610 1006,-596 1006,-596 1006,-590 1012,-584 1018,-584 1018,-584 1198,-584 1198,-584 1204,-584 1210,-590 1210,-596 1210,-596 1210,-610 1210,-610 1210,-616 1204,-622 1198,-622"/>
<text text-anchor="middle" x="1108" y="-606.8" font-family="Times,serif" font-size="14.00">CASE&#45;Mapping&#45;Template&#45;Python</text>
<text text-anchor="middle" x="1108" y="-591.8" font-family="Times,serif" font-size="14.00">adopts new case&#45;validation&#45;action</text>
</a>
</g>
</g>
<!-- _GH__KCHASON__CASE_VALIDATION_ACTION&#45;&gt;_GH__CASEWORK__CASE_IMPLEMENTATON_PYPI_EXIFREAD -->
<g id="edge17" class="edge">
<title>_GH__KCHASON__CASE_VALIDATION_ACTION&#45;&gt;_GH__CASEWORK__CASE_IMPLEMENTATON_PYPI_EXIFREAD</title>
<path fill="none" stroke="black" d="M822.28,-623.02C836.01,-619.4 849.23,-613.23 859,-603 891.39,-569.07 859.7,-542.6 877,-499 928.99,-367.96 1034.9,-234.99 1082.67,-178.79"/>
<polygon fill="black" stroke="black" points="1085.25,-181.15 1089.1,-171.28 1079.94,-176.6 1085.25,-181.15"/>
<text text-anchor="middle" x="916.5" y="-517.8" font-family="Times,serif" font-size="14.00">GitHub</text>
<text text-anchor="middle" x="916.5" y="-502.8" font-family="Times,serif" font-size="14.00">Action</text>
</g>
<!-- _GH__KCHASON__CASE_VALIDATION_ACTION&#45;&gt;_GH__CASEWORK__CASE_IMPLEMENTATON_PYPI_PILLOW -->
<g id="edge18" class="edge">
<title>_GH__KCHASON__CASE_VALIDATION_ACTION&#45;&gt;_GH__CASEWORK__CASE_IMPLEMENTATON_PYPI_PILLOW</title>
<path fill="none" stroke="black" d="M822.45,-632.32C869.8,-636.76 934.33,-642.81 989.98,-648.03"/>
<polygon fill="black" stroke="black" points="989.55,-651.5 999.83,-648.95 990.2,-644.54 989.55,-651.5"/>
<text text-anchor="middle" x="916.5" y="-662.8" font-family="Times,serif" font-size="14.00">GitHub</text>
<text text-anchor="middle" x="916.5" y="-647.8" font-family="Times,serif" font-size="14.00">Action</text>
</g>
<!-- _GH__KCHASON__CASE_VALIDATION_ACTION&#45;&gt;_GH__CASEWORK__CASE_IMPLEMENTATON_UFED_XML -->
<g id="edge19" class="edge">
<title>_GH__KCHASON__CASE_VALIDATION_ACTION&#45;&gt;_GH__CASEWORK__CASE_IMPLEMENTATON_UFED_XML</title>
<path fill="none" stroke="black" d="M793.94,-645.48C817.47,-656.52 848.35,-669.73 877,-678 912.39,-688.22 951.71,-695.85 987.68,-701.45"/>
<polygon fill="black" stroke="black" points="986.83,-704.86 997.24,-702.89 987.87,-697.93 986.83,-704.86"/>
<text text-anchor="middle" x="916.5" y="-713.8" font-family="Times,serif" font-size="14.00">GitHub</text>
<text text-anchor="middle" x="916.5" y="-698.8" font-family="Times,serif" font-size="14.00">Action</text>
</g>
<!-- _GH__KCHASON__CASE_VALIDATION_ACTION&#45;&gt;_GH__CASEWORK__CASE_IMPLEMENTATON_XRY -->
<g id="edge20" class="edge">
<title>_GH__KCHASON__CASE_VALIDATION_ACTION&#45;&gt;_GH__CASEWORK__CASE_IMPLEMENTATON_XRY</title>
<path fill="none" stroke="black" d="M822.25,-620.82C835.5,-617.26 848.53,-611.67 859,-603 874.64,-590.04 860.39,-572.69 877,-561 909.16,-538.37 950.53,-531.05 989.3,-530.62"/>
<polygon fill="black" stroke="black" points="989.16,-534.12 999.18,-530.68 989.2,-527.12 989.16,-534.12"/>
<text text-anchor="middle" x="916.5" y="-579.8" font-family="Times,serif" font-size="14.00">GitHub</text>
<text text-anchor="middle" x="916.5" y="-564.8" font-family="Times,serif" font-size="14.00">Action</text>
</g>
<!-- _GH__KCHASON__CASE_VALIDATION_ACTION&#45;&gt;_GH__CASEWORK__CASE_MAPPING_TEMPLATE_PYTHON -->
<g id="edge21" class="edge">
<title>_GH__KCHASON__CASE_VALIDATION_ACTION&#45;&gt;_GH__CASEWORK__CASE_MAPPING_TEMPLATE_PYTHON</title>
<path fill="none" stroke="black" d="M822.33,-611.03C847.29,-605.6 871.02,-600.63 877,-600 915.06,-595.99 956.86,-595.4 994.26,-596.24"/>
<polygon fill="black" stroke="black" points="994.12,-599.73 1004.2,-596.5 994.3,-592.74 994.12,-599.73"/>
<text text-anchor="middle" x="916.5" y="-618.8" font-family="Times,serif" font-size="14.00">GitHub</text>
<text text-anchor="middle" x="916.5" y="-603.8" font-family="Times,serif" font-size="14.00">Action</text>
</g>
<!-- _GH__CASEWORK__CASE_BINDINGS_CSHARP_MONITOR -->
<g id="node20" class="node">
<title>_GH__CASEWORK__CASE_BINDINGS_CSHARP_MONITOR</title>
<g id="a_node20"><a xlink:href="https://github.com/casework/CASE-Bindings-CSharp-Monitor" xlink:title="CASE Bindings CSharp Monitor\ntests NuGet package with validation action">
<path fill="#8ec7d2" stroke="#0d6986" d="M1221.5,-826C1221.5,-826 994.5,-826 994.5,-826 988.5,-826 982.5,-820 982.5,-814 982.5,-814 982.5,-800 982.5,-800 982.5,-794 988.5,-788 994.5,-788 994.5,-788 1221.5,-788 1221.5,-788 1227.5,-788 1233.5,-794 1233.5,-800 1233.5,-800 1233.5,-814 1233.5,-814 1233.5,-820 1227.5,-826 1221.5,-826"/>
<text text-anchor="middle" x="1108" y="-810.8" font-family="Times,serif" font-size="14.00">CASE Bindings CSharp Monitor</text>
<text text-anchor="middle" x="1108" y="-795.8" font-family="Times,serif" font-size="14.00">tests NuGet package with validation action</text>
</a>
</g>
</g>
<!-- _GH__KCHASON__CASE_VALIDATION_ACTION&#45;&gt;_GH__CASEWORK__CASE_BINDINGS_CSHARP_MONITOR -->
<g id="edge16" class="edge">
<title>_GH__KCHASON__CASE_VALIDATION_ACTION&#45;&gt;_GH__CASEWORK__CASE_BINDINGS_CSHARP_MONITOR</title>
<path fill="none" stroke="black" d="M775.08,-645.28C798.42,-667.13 838.66,-703.06 877,-729 909.93,-751.29 927.01,-743.78 956,-771 960.95,-775.64 958.36,-780.23 964,-784 966.6,-785.74 969.29,-787.37 972.06,-788.89"/>
<polygon fill="black" stroke="black" points="970.46,-792 980.98,-793.26 973.54,-785.71 970.46,-792"/>
<text text-anchor="middle" x="916.5" y="-789.8" font-family="Times,serif" font-size="14.00">GitHub</text>
<text text-anchor="middle" x="916.5" y="-774.8" font-family="Times,serif" font-size="14.00">Action</text>
</g>
<!-- _GH__DOD_CYBER_CRIME_CENTER__SQLITE_DISSECT -->
<g id="node22" class="node">
<title>_GH__DOD_CYBER_CRIME_CENTER__SQLITE_DISSECT</title>
<g id="a_node22"><a xlink:href="https://github.com/dod-cyber-crime-center/sqlite-dissect" xlink:title="sqlite&#45;dissect\nadopts new case&#45;validation&#45;action">
<path fill="#8ec7d2" stroke="#0d6986" d="M1196.5,-92C1196.5,-92 1019.5,-92 1019.5,-92 1013.5,-92 1007.5,-86 1007.5,-80 1007.5,-80 1007.5,-66 1007.5,-66 1007.5,-60 1013.5,-54 1019.5,-54 1019.5,-54 1196.5,-54 1196.5,-54 1202.5,-54 1208.5,-60 1208.5,-66 1208.5,-66 1208.5,-80 1208.5,-80 1208.5,-86 1202.5,-92 1196.5,-92"/>
<text text-anchor="middle" x="1108" y="-76.8" font-family="Times,serif" font-size="14.00">sqlite&#45;dissect</text>
<text text-anchor="middle" x="1108" y="-61.8" font-family="Times,serif" font-size="14.00">adopts new case&#45;validation&#45;action</text>
</a>
</g>
</g>
<!-- _GH__KCHASON__CASE_VALIDATION_ACTION&#45;&gt;_GH__DOD_CYBER_CRIME_CENTER__SQLITE_DISSECT -->
<g id="edge22" class="edge">
<title>_GH__KCHASON__CASE_VALIDATION_ACTION&#45;&gt;_GH__DOD_CYBER_CRIME_CENTER__SQLITE_DISSECT</title>
<g id="a_edge22"><a xlink:href="https://github.com/dod-cyber-crime-center/sqlite-dissect/pull/31" xlink:title="TODO: PR 31">
<path fill="none" stroke="black" d="M822.28,-623.96C836.26,-620.34 849.59,-613.93 859,-603 878.25,-580.63 870.45,-366.78 877,-338 900.15,-236.28 887.98,-191.44 964,-120 974.07,-110.54 986.08,-102.98 998.79,-96.94"/>
<polygon fill="black" stroke="black" points="999.98,-100.25 1007.74,-93.03 997.17,-93.83 999.98,-100.25"/>
</a>
</g>
<g id="a_edge22&#45;label"><a xlink:href="https://github.com/dod-cyber-crime-center/sqlite-dissect/pull/31" xlink:title="TODO: PR 31">
<text text-anchor="middle" x="916.5" y="-341.8" font-family="Times,serif" font-size="14.00">TODO: PR 31</text>
</a>
</g>
</g>
<!-- _GH__CIPHERTECHSOLUTIONS__CASE_BINDINGS_CSHARP&#45;&gt;_GH__CASEWORK__CASE_BINDINGS_CSHARP_MONITOR -->
<g id="edge15" class="edge">
<title>_GH__CIPHERTECHSOLUTIONS__CASE_BINDINGS_CSHARP&#45;&gt;_GH__CASEWORK__CASE_BINDINGS_CSHARP_MONITOR</title>
<path fill="none" stroke="black" d="M840.98,-806.21C853.08,-806.12 865.35,-806.05 877,-806 907.41,-805.88 940.07,-805.91 970.97,-806.03"/>
<polygon fill="black" stroke="black" points="970.73,-809.53 980.75,-806.07 970.76,-802.53 970.73,-809.53"/>
<text text-anchor="middle" x="916.5" y="-809.8" font-family="Times,serif" font-size="14.00">NuGet</text>
</g>
</g>
</svg>
