<?xml version="1.0" encoding="UTF-8" standalone="no"?>
<!DOCTYPE svg PUBLIC "-//W3C//DTD SVG 1.1//EN"
 "http://www.w3.org/Graphics/SVG/1.1/DTD/svg11.dtd">
<!-- Generated by graphviz version 7.1.0 (20230121.1956)
 -->
<!-- Title: cdo_release_flow Pages: 1 -->
<svg width="1590pt" height="1113pt"
 viewBox="0.00 0.00 1590.00 1113.00" xmlns="http://www.w3.org/2000/svg" xmlns:xlink="http://www.w3.org/1999/xlink">
<g id="graph0" class="graph" transform="scale(1 1) rotate(0) translate(4 1109)">
<title>cdo_release_flow</title>
<polygon fill="white" stroke="none" points="-4,4 -4,-1109 1586,-1109 1586,4 -4,4"/>
<text text-anchor="middle" x="791" y="-38.8" font-family="Times,serif" font-size="14.00">Release flow of CDO ontologies</text>
<text text-anchor="middle" x="791" y="-7.8" font-family="Times,serif" font-size="14.00">Nodes link to the respective Git repository.</text>
<g id="clust1" class="cluster">
<title>cluster_uco_0_9_1</title>
<polygon fill="none" stroke="black" points="189,-62 189,-234 560,-234 560,-62 189,-62"/>
<text text-anchor="middle" x="374.5" y="-218.8" font-family="Times,serif" font-size="14.00">Adoption of UCO 0.9.1</text>
</g>
<g id="clust2" class="cluster">
<title>cluster_case_0_9_1</title>
<polygon fill="none" stroke="black" points="400,-70 400,-203 552,-203 552,-70 400,-70"/>
<text text-anchor="middle" x="476" y="-187.8" font-family="Times,serif" font-size="14.00">Adoption of CASE 0.9.1</text>
</g>
<g id="clust3" class="cluster">
<title>cluster_uco_1_1_0</title>
<polygon fill="none" stroke="black" points="8,-242 8,-1097 1574,-1097 1574,-242 8,-242"/>
<text text-anchor="middle" x="791" y="-1081.8" font-family="Times,serif" font-size="14.00">Adoption of UCO 1.1.0</text>
</g>
<g id="clust4" class="cluster">
<title>cluster_case_1_1_0</title>
<polygon fill="none" stroke="black" points="201,-250 201,-1066 1566,-1066 1566,-250 201,-250"/>
<text text-anchor="middle" x="883.5" y="-1050.8" font-family="Times,serif" font-size="14.00">Adoption of CASE 1.1.0</text>
</g>
<g id="clust5" class="cluster">
<title>cluster_case_utils_0_9_0</title>
<polygon fill="none" stroke="black" points="434,-258 434,-1035 1558,-1035 1558,-258 434,-258"/>
<text text-anchor="middle" x="996" y="-1019.8" font-family="Times,serif" font-size="14.00">Adoption of case&#45;utils 0.9.0</text>
</g>
<g id="clust6" class="cluster">
<title>cluster_case_prov_0_6_0</title>
<polygon fill="none" stroke="black" points="1268,-371 1268,-448 1550,-448 1550,-371 1268,-371"/>
<text text-anchor="middle" x="1409" y="-432.8" font-family="Times,serif" font-size="14.00">Adoption of case&#45;prov 0.6.0</text>
</g>
<g id="clust7" class="cluster">
<title>cluster_case_validation_action_2_3</title>
<polygon fill="none" stroke="black" points="946.5,-927 946.5,-1004 1180.5,-1004 1180.5,-927 946.5,-927"/>
<text text-anchor="middle" x="1063.5" y="-988.8" font-family="Times,serif" font-size="14.00">Adoption of case&#45;validation&#45;action 2.3</text>
</g>
<g id="clust8" class="cluster">
<title>cluster_case_validation_action_2_5</title>
<polygon fill="none" stroke="black" points="615.5,-551 615.5,-919 1205,-919 1205,-551 615.5,-551"/>
<text text-anchor="middle" x="910.25" y="-903.8" font-family="Times,serif" font-size="14.00">Adoption of case&#45;validation&#45;action 2.5</text>
</g>
<g id="clust9" class="cluster">
<title>cluster_case_bindings_csharp_0_3_0</title>
<polygon fill="none" stroke="black" points="623.5,-811 623.5,-888 1197,-888 1197,-811 623.5,-811"/>
<text text-anchor="middle" x="910.25" y="-872.8" font-family="Times,serif" font-size="14.00">Adoption of CSharp bindings 0.3.0</text>
</g>
<!-- _GH__UCOPROJECT__ONTOLOGY_UNIFIEDCYBERONTOLOGY_ORG -->
<g id="node1" class="node">
<title>_GH__UCOPROJECT__ONTOLOGY_UNIFIEDCYBERONTOLOGY_ORG</title>
<g id="a_node1"><a xlink:href="https://github.com/ucoProject/ontology.unifiedcyberontology.org" xlink:title="UCO documentation\nregenerated">
<path fill="#8ec7d2" stroke="#0d6986" d="M315,-181C315,-181 209,-181 209,-181 203,-181 197,-175 197,-169 197,-169 197,-155 197,-155 197,-149 203,-143 209,-143 209,-143 315,-143 315,-143 321,-143 327,-149 327,-155 327,-155 327,-169 327,-169 327,-175 321,-181 315,-181"/>
<text text-anchor="middle" x="262" y="-165.8" font-family="Times,serif" font-size="14.00">UCO documentation</text>
<text text-anchor="middle" x="262" y="-150.8" font-family="Times,serif" font-size="14.00">regenerated</text>
</a>
</g>
</g>
<!-- _GH__CASEWORK__ONTOLOGY_CASEONTOLOGY_ORG -->
<g id="node3" class="node">
<title>_GH__CASEWORK__ONTOLOGY_CASEONTOLOGY_ORG</title>
<g id="a_node3"><a xlink:href="https://github.com/casework/ontology.caseontology.org" xlink:title="CASE documentation\nregenerated">
<path fill="#8ec7d2" stroke="#0d6986" d="M532,-116C532,-116 420,-116 420,-116 414,-116 408,-110 408,-104 408,-104 408,-90 408,-90 408,-84 414,-78 420,-78 420,-78 532,-78 532,-78 538,-78 544,-84 544,-90 544,-90 544,-104 544,-104 544,-110 538,-116 532,-116"/>
<text text-anchor="middle" x="476" y="-100.8" font-family="Times,serif" font-size="14.00">CASE documentation</text>
<text text-anchor="middle" x="476" y="-85.8" font-family="Times,serif" font-size="14.00">regenerated</text>
</a>
</g>
</g>
<!-- _GH__UCOPROJECT__ONTOLOGY_UNIFIEDCYBERONTOLOGY_ORG&#45;&gt;_GH__CASEWORK__ONTOLOGY_CASEONTOLOGY_ORG -->
<g id="edge23" class="edge">
<title>_GH__UCOPROJECT__ONTOLOGY_UNIFIEDCYBERONTOLOGY_ORG&#45;&gt;_GH__CASEWORK__ONTOLOGY_CASEONTOLOGY_ORG</title>
<path fill="none" stroke="black" d="M326.32,-142.59C349.7,-135.42 376.41,-127.23 400.68,-119.79"/>
<polygon fill="black" stroke="black" points="401.66,-123.15 410.19,-116.87 399.61,-116.46 401.66,-123.15"/>
<text text-anchor="middle" x="367.5" y="-153.8" font-family="Times,serif" font-size="14.00">Tech&#45;</text>
<text text-anchor="middle" x="367.5" y="-138.8" font-family="Times,serif" font-size="14.00">check</text>
</g>
<!-- _GH__CASEWORK__CASE_MAPPING_TEMPLATE_STUBS -->
<g id="node2" class="node">
<title>_GH__CASEWORK__CASE_MAPPING_TEMPLATE_STUBS</title>
<g id="a_node2"><a xlink:href="https://github.com/casework/CASE-Mapping-Template-Stubs" xlink:title="CASE Mapping\nTemplate Stubs">
<path fill="#8ec7d2" stroke="#0d6986" d="M516,-172C516,-172 436,-172 436,-172 430,-172 424,-166 424,-160 424,-160 424,-146 424,-146 424,-140 430,-134 436,-134 436,-134 516,-134 516,-134 522,-134 528,-140 528,-146 528,-146 528,-160 528,-160 528,-166 522,-172 516,-172"/>
<text text-anchor="middle" x="476" y="-156.8" font-family="Times,serif" font-size="14.00">CASE Mapping</text>
<text text-anchor="middle" x="476" y="-141.8" font-family="Times,serif" font-size="14.00">Template Stubs</text>
</a>
</g>
</g>
<!-- _GH__UCOPROJECT__UCO -->
<g id="node4" class="node">
<title>_GH__UCOPROJECT__UCO</title>
<g id="a_node4"><a xlink:href="https://github.com/ucoProject/UCO" xlink:title="UCO Ontology\nreleases">
<path fill="#8ec7d2" stroke="#0d6986" d="M104,-343C104,-343 28,-343 28,-343 22,-343 16,-337 16,-331 16,-331 16,-317 16,-317 16,-311 22,-305 28,-305 28,-305 104,-305 104,-305 110,-305 116,-311 116,-317 116,-317 116,-331 116,-331 116,-337 110,-343 104,-343"/>
<text text-anchor="middle" x="66" y="-327.8" font-family="Times,serif" font-size="14.00">UCO Ontology</text>
<text text-anchor="middle" x="66" y="-312.8" font-family="Times,serif" font-size="14.00">releases</text>
</a>
</g>
</g>
<!-- _GH__UCOPROJECT__UCO&#45;&gt;_GH__UCOPROJECT__ONTOLOGY_UNIFIEDCYBERONTOLOGY_ORG -->
<g id="edge25" class="edge">
<title>_GH__UCOPROJECT__UCO&#45;&gt;_GH__UCOPROJECT__ONTOLOGY_UNIFIEDCYBERONTOLOGY_ORG</title>
<path fill="none" stroke="black" d="M90.02,-304.78C124.63,-275.87 190.21,-221.12 229.32,-188.46"/>
<polygon fill="black" stroke="black" points="231.12,-191.51 236.55,-182.42 226.63,-186.14 231.12,-191.51"/>
<text text-anchor="middle" x="156.5" y="-284.8" font-family="Times,serif" font-size="14.00">Git sub&#45;</text>
<text text-anchor="middle" x="156.5" y="-269.8" font-family="Times,serif" font-size="14.00">module</text>
</g>
<!-- _GH__CASEWORK__CASE -->
<g id="node5" class="node">
<title>_GH__CASEWORK__CASE</title>
<g id="a_node5"><a xlink:href="https://github.com/casework/CASE" xlink:title="CASE Ontology\nreleases">
<path fill="#8ec7d2" stroke="#0d6986" d="M303,-365C303,-365 221,-365 221,-365 215,-365 209,-359 209,-353 209,-353 209,-339 209,-339 209,-333 215,-327 221,-327 221,-327 303,-327 303,-327 309,-327 315,-333 315,-339 315,-339 315,-353 315,-353 315,-359 309,-365 303,-365"/>
<text text-anchor="middle" x="262" y="-349.8" font-family="Times,serif" font-size="14.00">CASE Ontology</text>
<text text-anchor="middle" x="262" y="-334.8" font-family="Times,serif" font-size="14.00">releases</text>
</a>
</g>
</g>
<!-- _GH__UCOPROJECT__UCO&#45;&gt;_GH__CASEWORK__CASE -->
<g id="edge24" class="edge">
<title>_GH__UCOPROJECT__UCO&#45;&gt;_GH__CASEWORK__CASE</title>
<path fill="none" stroke="black" d="M116.46,-329.61C141,-332.39 170.94,-335.79 197.19,-338.76"/>
<polygon fill="black" stroke="black" points="196.74,-342.24 207.07,-339.88 197.53,-335.28 196.74,-342.24"/>
<text text-anchor="middle" x="156.5" y="-354.8" font-family="Times,serif" font-size="14.00">Git sub&#45;</text>
<text text-anchor="middle" x="156.5" y="-339.8" font-family="Times,serif" font-size="14.00">module</text>
</g>
<!-- _GH__CASEWORK__CASE&#45;&gt;_GH__CASEWORK__ONTOLOGY_CASEONTOLOGY_ORG -->
<g id="edge4" class="edge">
<title>_GH__CASEWORK__CASE&#45;&gt;_GH__CASEWORK__ONTOLOGY_CASEONTOLOGY_ORG</title>
<path fill="none" stroke="black" d="M298.55,-326.54C328.54,-308.03 369.73,-277.21 390,-238 401.58,-215.61 384.73,-145.06 400,-125 400.15,-124.8 400.31,-124.6 400.46,-124.4"/>
<polygon fill="black" stroke="black" points="402.76,-127.05 407.36,-117.51 397.81,-122.1 402.76,-127.05"/>
<text text-anchor="middle" x="367.5" y="-308.8" font-family="Times,serif" font-size="14.00">Git sub&#45;</text>
<text text-anchor="middle" x="367.5" y="-293.8" font-family="Times,serif" font-size="14.00">module</text>
</g>
<!-- _GH__CASEWORK__CASE_UTILITIES_PYTHON -->
<g id="node10" class="node">
<title>_GH__CASEWORK__CASE_UTILITIES_PYTHON</title>
<g id="a_node10"><a xlink:href="https://github.com/casework/CASE-Utilities-Python" xlink:title="case&#45;utils\nreleases">
<path fill="#8ec7d2" stroke="#0d6986" d="M498,-413C498,-413 454,-413 454,-413 448,-413 442,-407 442,-401 442,-401 442,-387 442,-387 442,-381 448,-375 454,-375 454,-375 498,-375 498,-375 504,-375 510,-381 510,-387 510,-387 510,-401 510,-401 510,-407 504,-413 498,-413"/>
<text text-anchor="middle" x="476" y="-397.8" font-family="Times,serif" font-size="14.00">case&#45;utils</text>
<text text-anchor="middle" x="476" y="-382.8" font-family="Times,serif" font-size="14.00">releases</text>
</a>
</g>
</g>
<!-- _GH__CASEWORK__CASE&#45;&gt;_GH__CASEWORK__CASE_UTILITIES_PYTHON -->
<g id="edge2" class="edge">
<title>_GH__CASEWORK__CASE&#45;&gt;_GH__CASEWORK__CASE_UTILITIES_PYTHON</title>
<path fill="none" stroke="black" d="M315.4,-357.87C350.88,-365.9 397.22,-376.39 430.82,-384"/>
<polygon fill="black" stroke="black" points="429.69,-387.33 440.21,-386.12 431.23,-380.5 429.69,-387.33"/>
<text text-anchor="middle" x="367.5" y="-392.8" font-family="Times,serif" font-size="14.00">Git sub&#45;</text>
<text text-anchor="middle" x="367.5" y="-377.8" font-family="Times,serif" font-size="14.00">module</text>
</g>
<!-- _GH__CIPHERTECHSOLUTIONS__CASE_BINDINGS_CSHARP -->
<g id="node21" class="node">
<title>_GH__CIPHERTECHSOLUTIONS__CASE_BINDINGS_CSHARP</title>
<g id="a_node21"><a xlink:href="https://github.com/ciphertechsolutions/CASE-Bindings-CSharp" xlink:title="CASE&#45;Bindings&#45;CSharp\nadopts new ontology version">
<path fill="#8ec7d2" stroke="#0d6986" d="M792.5,-857C792.5,-857 643.5,-857 643.5,-857 637.5,-857 631.5,-851 631.5,-845 631.5,-845 631.5,-831 631.5,-831 631.5,-825 637.5,-819 643.5,-819 643.5,-819 792.5,-819 792.5,-819 798.5,-819 804.5,-825 804.5,-831 804.5,-831 804.5,-845 804.5,-845 804.5,-851 798.5,-857 792.5,-857"/>
<text text-anchor="middle" x="718" y="-841.8" font-family="Times,serif" font-size="14.00">CASE&#45;Bindings&#45;CSharp</text>
<text text-anchor="middle" x="718" y="-826.8" font-family="Times,serif" font-size="14.00">adopts new ontology version</text>
</a>
</g>
</g>
<!-- _GH__CASEWORK__CASE&#45;&gt;_GH__CIPHERTECHSOLUTIONS__CASE_BINDINGS_CSHARP -->
<g id="edge3" class="edge">
<title>_GH__CASEWORK__CASE&#45;&gt;_GH__CIPHERTECHSOLUTIONS__CASE_BINDINGS_CSHARP</title>
<path fill="none" stroke="black" d="M264.87,-365.36C271.66,-425.53 300.11,-611.7 400,-719 457.41,-780.67 549.91,-810.59 620.2,-824.97"/>
<polygon fill="black" stroke="black" points="619.31,-828.37 629.8,-826.86 620.66,-821.5 619.31,-828.37"/>
</g>
<!-- _GH__AJNELSON_NIST__CASE_EXAMPLES_QC -->
<g id="node6" class="node">
<title>_GH__AJNELSON_NIST__CASE_EXAMPLES_QC</title>
<g id="a_node6"><a xlink:href="https://github.com/ajnelson-nist/CASE-Examples-QC" xlink:title="CASE&#45;Examples&#45;QC\nadopts CASE&#45;Examples and\nCASE website updates">
<path fill="#8ec7d2" stroke="#0d6986" d="M1137.5,-456.5C1137.5,-456.5 989.5,-456.5 989.5,-456.5 983.5,-456.5 977.5,-450.5 977.5,-444.5 977.5,-444.5 977.5,-415.5 977.5,-415.5 977.5,-409.5 983.5,-403.5 989.5,-403.5 989.5,-403.5 1137.5,-403.5 1137.5,-403.5 1143.5,-403.5 1149.5,-409.5 1149.5,-415.5 1149.5,-415.5 1149.5,-444.5 1149.5,-444.5 1149.5,-450.5 1143.5,-456.5 1137.5,-456.5"/>
<text text-anchor="middle" x="1063.5" y="-441.3" font-family="Times,serif" font-size="14.00">CASE&#45;Examples&#45;QC</text>
<text text-anchor="middle" x="1063.5" y="-426.3" font-family="Times,serif" font-size="14.00">adopts CASE&#45;Examples and</text>
<text text-anchor="middle" x="1063.5" y="-411.3" font-family="Times,serif" font-size="14.00">CASE website updates</text>
</a>
</g>
</g>
<!-- _GH__CASEWORK__CASE_IMPLEMENTATON_PROV_O -->
<g id="node13" class="node">
<title>_GH__CASEWORK__CASE_IMPLEMENTATON_PROV_O</title>
<g id="a_node13"><a xlink:href="https://github.com/casework/CASE-Implementation-PROV-O" xlink:title="case&#45;prov\nreleases">
<path fill="#8ec7d2" stroke="#0d6986" d="M1333,-417C1333,-417 1288,-417 1288,-417 1282,-417 1276,-411 1276,-405 1276,-405 1276,-391 1276,-391 1276,-385 1282,-379 1288,-379 1288,-379 1333,-379 1333,-379 1339,-379 1345,-385 1345,-391 1345,-391 1345,-405 1345,-405 1345,-411 1339,-417 1333,-417"/>
<text text-anchor="middle" x="1310.5" y="-401.8" font-family="Times,serif" font-size="14.00">case&#45;prov</text>
<text text-anchor="middle" x="1310.5" y="-386.8" font-family="Times,serif" font-size="14.00">releases</text>
</a>
</g>
</g>
<!-- _GH__AJNELSON_NIST__CASE_EXAMPLES_QC&#45;&gt;_GH__CASEWORK__CASE_IMPLEMENTATON_PROV_O -->
<g id="edge1" class="edge">
<title>_GH__AJNELSON_NIST__CASE_EXAMPLES_QC&#45;&gt;_GH__CASEWORK__CASE_IMPLEMENTATON_PROV_O</title>
<path fill="none" stroke="black" d="M1149.85,-418.85C1188.47,-413.81 1232.53,-408.05 1264.57,-403.87"/>
<polygon fill="black" stroke="black" points="1264.83,-407.36 1274.29,-402.6 1263.92,-400.42 1264.83,-407.36"/>
<text text-anchor="middle" x="1235.5" y="-428.8" font-family="Times,serif" font-size="14.00">Git sub&#45;</text>
<text text-anchor="middle" x="1235.5" y="-413.8" font-family="Times,serif" font-size="14.00">module</text>
</g>
<!-- _GH__CASEWORK__CASE_EXAMPLES -->
<g id="node7" class="node">
<title>_GH__CASEWORK__CASE_EXAMPLES</title>
<g id="a_node7"><a xlink:href="https://github.com/casework/CASE-Examples" xlink:title="CASE&#45;Examples\nadopts new case&#45;utils">
<path fill="#8ec7d2" stroke="#0d6986" d="M772.5,-543C772.5,-543 663.5,-543 663.5,-543 657.5,-543 651.5,-537 651.5,-531 651.5,-531 651.5,-517 651.5,-517 651.5,-511 657.5,-505 663.5,-505 663.5,-505 772.5,-505 772.5,-505 778.5,-505 784.5,-511 784.5,-517 784.5,-517 784.5,-531 784.5,-531 784.5,-537 778.5,-543 772.5,-543"/>
<text text-anchor="middle" x="718" y="-527.8" font-family="Times,serif" font-size="14.00">CASE&#45;Examples</text>
<text text-anchor="middle" x="718" y="-512.8" font-family="Times,serif" font-size="14.00">adopts new case&#45;utils</text>
</a>
</g>
</g>
<!-- _GH__CASEWORK__CASE_EXAMPLES&#45;&gt;_GH__AJNELSON_NIST__CASE_EXAMPLES_QC -->
<g id="edge5" class="edge">
<title>_GH__CASEWORK__CASE_EXAMPLES&#45;&gt;_GH__AJNELSON_NIST__CASE_EXAMPLES_QC</title>
<path fill="none" stroke="black" d="M784.55,-510.22C824.02,-501.54 875.15,-489.61 920,-477 937.55,-472.06 956.15,-466.32 973.92,-460.57"/>
<polygon fill="black" stroke="black" points="975,-463.9 983.42,-457.46 972.83,-457.24 975,-463.9"/>
<text text-anchor="middle" x="880.5" y="-514.8" font-family="Times,serif" font-size="14.00">Git sub&#45;</text>
<text text-anchor="middle" x="880.5" y="-499.8" font-family="Times,serif" font-size="14.00">module</text>
</g>
<!-- _GH__CASEWORK__CASE_IMPLEMENTATON_EXIFTOOL -->
<g id="node8" class="node">
<title>_GH__CASEWORK__CASE_IMPLEMENTATON_EXIFTOOL</title>
<g id="a_node8"><a xlink:href="https://github.com/casework/CASE-Implementation-ExifTool" xlink:title="CASE&#45;Implementation&#45;ExifTool\nadopts new case&#45;utils">
<path fill="#8ec7d2" stroke="#0d6986" d="M804,-304C804,-304 632,-304 632,-304 626,-304 620,-298 620,-292 620,-292 620,-278 620,-278 620,-272 626,-266 632,-266 632,-266 804,-266 804,-266 810,-266 816,-272 816,-278 816,-278 816,-292 816,-292 816,-298 810,-304 804,-304"/>
<text text-anchor="middle" x="718" y="-288.8" font-family="Times,serif" font-size="14.00">CASE&#45;Implementation&#45;ExifTool</text>
<text text-anchor="middle" x="718" y="-273.8" font-family="Times,serif" font-size="14.00">adopts new case&#45;utils</text>
</a>
</g>
</g>
<!-- _GH__CASEWORK__CASE_IMPLEMENTATON_GNU_TIME -->
<g id="node9" class="node">
<title>_GH__CASEWORK__CASE_IMPLEMENTATON_GNU_TIME</title>
<g id="a_node9"><a xlink:href="https://github.com/casework/CASE-Implementation-GNU-Time" xlink:title="CASE&#45;Implementation&#45;GNU&#45;Time\nadopts new case&#45;utils">
<path fill="#8ec7d2" stroke="#0d6986" d="M811,-360C811,-360 625,-360 625,-360 619,-360 613,-354 613,-348 613,-348 613,-334 613,-334 613,-328 619,-322 625,-322 625,-322 811,-322 811,-322 817,-322 823,-328 823,-334 823,-334 823,-348 823,-348 823,-354 817,-360 811,-360"/>
<text text-anchor="middle" x="718" y="-344.8" font-family="Times,serif" font-size="14.00">CASE&#45;Implementation&#45;GNU&#45;Time</text>
<text text-anchor="middle" x="718" y="-329.8" font-family="Times,serif" font-size="14.00">adopts new case&#45;utils</text>
</a>
</g>
</g>
<!-- _GH__CASEWORK__CASE_UTILITIES_PYTHON&#45;&gt;_GH__AJNELSON_NIST__CASE_EXAMPLES_QC -->
<g id="edge7" class="edge">
<title>_GH__CASEWORK__CASE_UTILITIES_PYTHON&#45;&gt;_GH__AJNELSON_NIST__CASE_EXAMPLES_QC</title>
<path fill="none" stroke="black" d="M510.35,-400.25C525.93,-403.91 544.43,-409.35 560,-417 563.99,-418.96 564.21,-420.68 568,-423 586.99,-434.62 591.46,-439.37 613,-445 745.12,-479.56 784.08,-471.23 920,-458 935.04,-456.54 950.86,-454.22 966.25,-451.54"/>
<polygon fill="black" stroke="black" points="966.67,-455.02 975.88,-449.79 965.42,-448.13 966.67,-455.02"/>
<text text-anchor="middle" x="718" y="-472.8" font-family="Times,serif" font-size="14.00">PyPI</text>
</g>
<!-- _GH__CASEWORK__CASE_UTILITIES_PYTHON&#45;&gt;_GH__CASEWORK__CASE_EXAMPLES -->
<g id="edge8" class="edge">
<title>_GH__CASEWORK__CASE_UTILITIES_PYTHON&#45;&gt;_GH__CASEWORK__CASE_EXAMPLES</title>
<path fill="none" stroke="black" d="M510.32,-394.83C527.65,-397.09 547.72,-402.91 560,-417 577.67,-437.29 550.69,-456.4 568,-477 586.02,-498.44 613.75,-510.24 640.42,-516.67"/>
<polygon fill="black" stroke="black" points="639.37,-520.02 649.88,-518.72 640.85,-513.18 639.37,-520.02"/>
<text text-anchor="middle" x="581.5" y="-501.8" font-family="Times,serif" font-size="14.00">PyPI</text>
</g>
<!-- _GH__CASEWORK__CASE_UTILITIES_PYTHON&#45;&gt;_GH__CASEWORK__CASE_IMPLEMENTATON_EXIFTOOL -->
<g id="edge9" class="edge">
<title>_GH__CASEWORK__CASE_UTILITIES_PYTHON&#45;&gt;_GH__CASEWORK__CASE_IMPLEMENTATON_EXIFTOOL</title>
<path fill="none" stroke="black" d="M502.6,-374.73C528.89,-355.94 571.69,-328.07 613,-313 617.9,-311.21 622.97,-309.48 628.11,-307.82"/>
<polygon fill="black" stroke="black" points="628.79,-311.27 637.29,-304.94 626.7,-304.59 628.79,-311.27"/>
<text text-anchor="middle" x="581.5" y="-335.8" font-family="Times,serif" font-size="14.00">PyPI</text>
</g>
<!-- _GH__CASEWORK__CASE_UTILITIES_PYTHON&#45;&gt;_GH__CASEWORK__CASE_IMPLEMENTATON_GNU_TIME -->
<g id="edge10" class="edge">
<title>_GH__CASEWORK__CASE_UTILITIES_PYTHON&#45;&gt;_GH__CASEWORK__CASE_IMPLEMENTATON_GNU_TIME</title>
<path fill="none" stroke="black" d="M510.5,-378.83C527.41,-371.76 548.45,-363.86 568,-359 578.72,-356.34 589.97,-354.06 601.28,-352.12"/>
<polygon fill="black" stroke="black" points="601.79,-355.58 611.1,-350.53 600.67,-348.67 601.79,-355.58"/>
<text text-anchor="middle" x="581.5" y="-362.8" font-family="Times,serif" font-size="14.00">PyPI</text>
</g>
<!-- _GH__CASEWORK__CASEWORK_GITHUB_IO -->
<g id="node11" class="node">
<title>_GH__CASEWORK__CASEWORK_GITHUB_IO</title>
<g id="a_node11"><a xlink:href="https://github.com/casework/casework.github.io" xlink:title="CASE website\nadopts new case&#45;utils">
<path fill="#8ec7d2" stroke="#0d6986" d="M772.5,-436C772.5,-436 663.5,-436 663.5,-436 657.5,-436 651.5,-430 651.5,-424 651.5,-424 651.5,-410 651.5,-410 651.5,-404 657.5,-398 663.5,-398 663.5,-398 772.5,-398 772.5,-398 778.5,-398 784.5,-404 784.5,-410 784.5,-410 784.5,-424 784.5,-424 784.5,-430 778.5,-436 772.5,-436"/>
<text text-anchor="middle" x="718" y="-420.8" font-family="Times,serif" font-size="14.00">CASE website</text>
<text text-anchor="middle" x="718" y="-405.8" font-family="Times,serif" font-size="14.00">adopts new case&#45;utils</text>
</a>
</g>
</g>
<!-- _GH__CASEWORK__CASE_UTILITIES_PYTHON&#45;&gt;_GH__CASEWORK__CASEWORK_GITHUB_IO -->
<g id="edge13" class="edge">
<title>_GH__CASEWORK__CASE_UTILITIES_PYTHON&#45;&gt;_GH__CASEWORK__CASEWORK_GITHUB_IO</title>
<path fill="none" stroke="black" d="M510.37,-397.2C543.78,-400.4 596.38,-405.44 640.15,-409.64"/>
<polygon fill="black" stroke="black" points="639.56,-413.1 649.85,-410.57 640.23,-406.13 639.56,-413.1"/>
<text text-anchor="middle" x="581.5" y="-407.8" font-family="Times,serif" font-size="14.00">PyPI</text>
</g>
<!-- _GH__CASEWORK__CASE_UTILITIES_PYTHON&#45;&gt;_GH__CASEWORK__CASE_IMPLEMENTATON_PROV_O -->
<g id="edge11" class="edge">
<title>_GH__CASEWORK__CASE_UTILITIES_PYTHON&#45;&gt;_GH__CASEWORK__CASE_IMPLEMENTATON_PROV_O</title>
<path fill="none" stroke="black" d="M510.25,-392.44C537.78,-391.22 577.92,-389.64 613,-389 858.86,-384.48 1153.58,-392.82 1264.42,-396.44"/>
<polygon fill="black" stroke="black" points="1264.17,-399.93 1274.28,-396.77 1264.4,-392.94 1264.17,-399.93"/>
<text text-anchor="middle" x="880.5" y="-391.8" font-family="Times,serif" font-size="14.00">PyPI</text>
</g>
<!-- _GH__KCHASON__CASE_VALIDATION_ACTION -->
<g id="node19" class="node">
<title>_GH__KCHASON__CASE_VALIDATION_ACTION</title>
<g id="a_node19"><a xlink:href="https://github.com/kchason/case-validation-action" xlink:title="case&#45;validation&#45;action\nreleases">
<path fill="#8ec7d2" stroke="#0d6986" d="M774,-675C774,-675 662,-675 662,-675 656,-675 650,-669 650,-663 650,-663 650,-649 650,-649 650,-643 656,-637 662,-637 662,-637 774,-637 774,-637 780,-637 786,-643 786,-649 786,-649 786,-663 786,-663 786,-669 780,-675 774,-675"/>
<text text-anchor="middle" x="718" y="-659.8" font-family="Times,serif" font-size="14.00">case&#45;validation&#45;action</text>
<text text-anchor="middle" x="718" y="-644.8" font-family="Times,serif" font-size="14.00">releases</text>
</a>
</g>
</g>
<!-- _GH__CASEWORK__CASE_UTILITIES_PYTHON&#45;&gt;_GH__KCHASON__CASE_VALIDATION_ACTION -->
<g id="edge12" class="edge">
<title>_GH__CASEWORK__CASE_UTILITIES_PYTHON&#45;&gt;_GH__KCHASON__CASE_VALIDATION_ACTION</title>
<path fill="none" stroke="black" d="M510.19,-394.53C527.71,-396.67 548.01,-402.47 560,-417 574.19,-434.19 562.89,-495.3 568,-517 575.36,-548.25 583.46,-554.04 595,-584 603.34,-605.65 595.53,-617.73 613,-633 620.49,-639.54 629.42,-644.35 638.85,-647.87"/>
<polygon fill="black" stroke="black" points="637.64,-651.15 648.23,-650.85 639.76,-644.48 637.64,-651.15"/>
<text text-anchor="middle" x="581.5" y="-587.8" font-family="Times,serif" font-size="14.00">PyPI</text>
</g>
<!-- _GH__CASEWORK__CASEWORK_GITHUB_IO&#45;&gt;_GH__AJNELSON_NIST__CASE_EXAMPLES_QC -->
<g id="edge14" class="edge">
<title>_GH__CASEWORK__CASEWORK_GITHUB_IO&#45;&gt;_GH__AJNELSON_NIST__CASE_EXAMPLES_QC</title>
<path fill="none" stroke="black" d="M784.82,-419.49C836.05,-421.43 907.91,-424.15 965.69,-426.34"/>
<polygon fill="black" stroke="black" points="965.41,-429.83 975.53,-426.71 965.67,-422.83 965.41,-429.83"/>
<text text-anchor="middle" x="880.5" y="-442.8" font-family="Times,serif" font-size="14.00">Git sub&#45;</text>
<text text-anchor="middle" x="880.5" y="-427.8" font-family="Times,serif" font-size="14.00">module</text>
</g>
<!-- _GH__CASEWORK__CASE_CORPORA -->
<g id="node12" class="node">
<title>_GH__CASEWORK__CASE_CORPORA</title>
<g id="a_node12"><a xlink:href="https://github.com/casework/CASE-Corpora" xlink:title="CASE&#45;Corpora\nadopts new case&#45;prov">
<path fill="#8ec7d2" stroke="#0d6986" d="M1530,-417C1530,-417 1420,-417 1420,-417 1414,-417 1408,-411 1408,-405 1408,-405 1408,-391 1408,-391 1408,-385 1414,-379 1420,-379 1420,-379 1530,-379 1530,-379 1536,-379 1542,-385 1542,-391 1542,-391 1542,-405 1542,-405 1542,-411 1536,-417 1530,-417"/>
<text text-anchor="middle" x="1475" y="-401.8" font-family="Times,serif" font-size="14.00">CASE&#45;Corpora</text>
<text text-anchor="middle" x="1475" y="-386.8" font-family="Times,serif" font-size="14.00">adopts new case&#45;prov</text>
</a>
</g>
</g>
<!-- _GH__CASEWORK__CASE_IMPLEMENTATON_PROV_O&#45;&gt;_GH__CASEWORK__CASE_CORPORA -->
<g id="edge6" class="edge">
<title>_GH__CASEWORK__CASE_IMPLEMENTATON_PROV_O&#45;&gt;_GH__CASEWORK__CASE_CORPORA</title>
<path fill="none" stroke="black" d="M1345.17,-398C1360.03,-398 1378.18,-398 1396.11,-398"/>
<polygon fill="black" stroke="black" points="1396,-401.5 1406,-398 1396,-394.5 1396,-401.5"/>
<text text-anchor="middle" x="1376.5" y="-401.8" font-family="Times,serif" font-size="14.00">PyPI</text>
</g>
<!-- _GH__CASEWORK__CASE_IMPLEMENTATON_UFED_XML -->
<g id="node14" class="node">
<title>_GH__CASEWORK__CASE_IMPLEMENTATON_UFED_XML</title>
<g id="a_node14"><a xlink:href="https://github.com/casework/CASE-Implementation-UFED-XML" xlink:title="CASE&#45;Implementation&#45;UFED&#45;XML\nadopts new case&#45;validation&#45;action">
<path fill="#8ec7d2" stroke="#0d6986" d="M1160.5,-973C1160.5,-973 966.5,-973 966.5,-973 960.5,-973 954.5,-967 954.5,-961 954.5,-961 954.5,-947 954.5,-947 954.5,-941 960.5,-935 966.5,-935 966.5,-935 1160.5,-935 1160.5,-935 1166.5,-935 1172.5,-941 1172.5,-947 1172.5,-947 1172.5,-961 1172.5,-961 1172.5,-967 1166.5,-973 1160.5,-973"/>
<text text-anchor="middle" x="1063.5" y="-957.8" font-family="Times,serif" font-size="14.00">CASE&#45;Implementation&#45;UFED&#45;XML</text>
<text text-anchor="middle" x="1063.5" y="-942.8" font-family="Times,serif" font-size="14.00">adopts new case&#45;validation&#45;action</text>
</a>
</g>
</g>
<!-- _GH__CASEWORK__CASE_IMPLEMENTATON_PYPI_EXIFREAD -->
<g id="node15" class="node">
<title>_GH__CASEWORK__CASE_IMPLEMENTATON_PYPI_EXIFREAD</title>
<g id="a_node15"><a xlink:href="https://github.com/casework/CASE-Implementation-PyPI-Exifread" xlink:title="CASE&#45;Implementation&#45;PyPI&#45;Exifread\nadopts new case&#45;validation&#45;action">
<path fill="#8ec7d2" stroke="#0d6986" d="M1163.5,-709C1163.5,-709 963.5,-709 963.5,-709 957.5,-709 951.5,-703 951.5,-697 951.5,-697 951.5,-683 951.5,-683 951.5,-677 957.5,-671 963.5,-671 963.5,-671 1163.5,-671 1163.5,-671 1169.5,-671 1175.5,-677 1175.5,-683 1175.5,-683 1175.5,-697 1175.5,-697 1175.5,-703 1169.5,-709 1163.5,-709"/>
<text text-anchor="middle" x="1063.5" y="-693.8" font-family="Times,serif" font-size="14.00">CASE&#45;Implementation&#45;PyPI&#45;Exifread</text>
<text text-anchor="middle" x="1063.5" y="-678.8" font-family="Times,serif" font-size="14.00">adopts new case&#45;validation&#45;action</text>
</a>
</g>
</g>
<!-- _GH__CASEWORK__CASE_IMPLEMENTATON_PYPI_PILLOW -->
<g id="node16" class="node">
<title>_GH__CASEWORK__CASE_IMPLEMENTATON_PYPI_PILLOW</title>
<g id="a_node16"><a xlink:href="https://github.com/casework/CASE-Implementation-PyPI-Pillow" xlink:title="CASE&#45;Implementation&#45;PyPI&#45;Pillow\nadopts new case&#45;validation&#45;action">
<path fill="#8ec7d2" stroke="#0d6986" d="M1158,-765C1158,-765 969,-765 969,-765 963,-765 957,-759 957,-753 957,-753 957,-739 957,-739 957,-733 963,-727 969,-727 969,-727 1158,-727 1158,-727 1164,-727 1170,-733 1170,-739 1170,-739 1170,-753 1170,-753 1170,-759 1164,-765 1158,-765"/>
<text text-anchor="middle" x="1063.5" y="-749.8" font-family="Times,serif" font-size="14.00">CASE&#45;Implementation&#45;PyPI&#45;Pillow</text>
<text text-anchor="middle" x="1063.5" y="-734.8" font-family="Times,serif" font-size="14.00">adopts new case&#45;validation&#45;action</text>
</a>
</g>
</g>
<!-- _GH__CASEWORK__CASE_IMPLEMENTATON_XRY -->
<g id="node17" class="node">
<title>_GH__CASEWORK__CASE_IMPLEMENTATON_XRY</title>
<g id="a_node17"><a xlink:href="https://github.com/casework/CASE-Implementation-XRY" xlink:title="CASE&#45;Implementation&#45;XRY adopts\nnew case&#45;validation&#45;action">
<path fill="#8ec7d2" stroke="#0d6986" d="M1158.5,-597C1158.5,-597 968.5,-597 968.5,-597 962.5,-597 956.5,-591 956.5,-585 956.5,-585 956.5,-571 956.5,-571 956.5,-565 962.5,-559 968.5,-559 968.5,-559 1158.5,-559 1158.5,-559 1164.5,-559 1170.5,-565 1170.5,-571 1170.5,-571 1170.5,-585 1170.5,-585 1170.5,-591 1164.5,-597 1158.5,-597"/>
<text text-anchor="middle" x="1063.5" y="-581.8" font-family="Times,serif" font-size="14.00">CASE&#45;Implementation&#45;XRY adopts</text>
<text text-anchor="middle" x="1063.5" y="-566.8" font-family="Times,serif" font-size="14.00">new case&#45;validation&#45;action</text>
</a>
</g>
</g>
<!-- _GH__CASEWORK__CASE_MAPPING_TEMPLATE_PYTHON -->
<g id="node18" class="node">
<title>_GH__CASEWORK__CASE_MAPPING_TEMPLATE_PYTHON</title>
<g id="a_node18"><a xlink:href="https://github.com/casework/CASE-Mapping-Template-Python" xlink:title="CASE&#45;Mapping&#45;Template&#45;Python\nadopts new case&#45;validation&#45;action">
<path fill="#8ec7d2" stroke="#0d6986" d="M1153.5,-653C1153.5,-653 973.5,-653 973.5,-653 967.5,-653 961.5,-647 961.5,-641 961.5,-641 961.5,-627 961.5,-627 961.5,-621 967.5,-615 973.5,-615 973.5,-615 1153.5,-615 1153.5,-615 1159.5,-615 1165.5,-621 1165.5,-627 1165.5,-627 1165.5,-641 1165.5,-641 1165.5,-647 1159.5,-653 1153.5,-653"/>
<text text-anchor="middle" x="1063.5" y="-637.8" font-family="Times,serif" font-size="14.00">CASE&#45;Mapping&#45;Template&#45;Python</text>
<text text-anchor="middle" x="1063.5" y="-622.8" font-family="Times,serif" font-size="14.00">adopts new case&#45;validation&#45;action</text>
</a>
</g>
</g>
<!-- _GH__KCHASON__CASE_VALIDATION_ACTION&#45;&gt;_GH__CASEWORK__CASE_IMPLEMENTATON_UFED_XML -->
<g id="edge19" class="edge">
<title>_GH__KCHASON__CASE_VALIDATION_ACTION&#45;&gt;_GH__CASEWORK__CASE_IMPLEMENTATON_UFED_XML</title>
<path fill="none" stroke="black" d="M736.24,-675.48C759.55,-702.87 800.75,-755.24 823,-807 838.25,-842.48 814.59,-863.83 841,-892 867.54,-920.3 905.84,-936.05 943.15,-944.7"/>
<polygon fill="black" stroke="black" points="942.17,-948.07 952.68,-946.74 943.63,-941.22 942.17,-948.07"/>
<text text-anchor="middle" x="880.5" y="-956.8" font-family="Times,serif" font-size="14.00">GitHub</text>
<text text-anchor="middle" x="880.5" y="-941.8" font-family="Times,serif" font-size="14.00">Action</text>
</g>
<!-- _GH__KCHASON__CASE_VALIDATION_ACTION&#45;&gt;_GH__CASEWORK__CASE_IMPLEMENTATON_PYPI_EXIFREAD -->
<g id="edge17" class="edge">
<title>_GH__KCHASON__CASE_VALIDATION_ACTION&#45;&gt;_GH__CASEWORK__CASE_IMPLEMENTATON_PYPI_EXIFREAD</title>
<path fill="none" stroke="black" d="M786.45,-662.68C830.14,-667 888.32,-672.76 939.99,-677.87"/>
<polygon fill="black" stroke="black" points="939.45,-681.34 949.75,-678.84 940.14,-674.37 939.45,-681.34"/>
<text text-anchor="middle" x="880.5" y="-693.8" font-family="Times,serif" font-size="14.00">GitHub</text>
<text text-anchor="middle" x="880.5" y="-678.8" font-family="Times,serif" font-size="14.00">Action</text>
</g>
<!-- _GH__KCHASON__CASE_VALIDATION_ACTION&#45;&gt;_GH__CASEWORK__CASE_IMPLEMENTATON_PYPI_PILLOW -->
<g id="edge18" class="edge">
<title>_GH__KCHASON__CASE_VALIDATION_ACTION&#45;&gt;_GH__CASEWORK__CASE_IMPLEMENTATON_PYPI_PILLOW</title>
<path fill="none" stroke="black" d="M757.11,-675.43C780.72,-686.74 811.99,-700.42 841,-709 874.4,-718.88 911.46,-726.37 945.56,-731.94"/>
<polygon fill="black" stroke="black" points="944.6,-735.33 955.02,-733.44 945.7,-728.41 944.6,-735.33"/>
<text text-anchor="middle" x="880.5" y="-745.8" font-family="Times,serif" font-size="14.00">GitHub</text>
<text text-anchor="middle" x="880.5" y="-730.8" font-family="Times,serif" font-size="14.00">Action</text>
</g>
<!-- _GH__KCHASON__CASE_VALIDATION_ACTION&#45;&gt;_GH__CASEWORK__CASE_IMPLEMENTATON_XRY -->
<g id="edge20" class="edge">
<title>_GH__KCHASON__CASE_VALIDATION_ACTION&#45;&gt;_GH__CASEWORK__CASE_IMPLEMENTATON_XRY</title>
<path fill="none" stroke="black" d="M786.4,-650.6C799.57,-647.05 812.53,-641.52 823,-633 838.12,-620.7 825,-604.13 841,-593 870.89,-572.21 908.89,-564.72 944.94,-563.54"/>
<polygon fill="black" stroke="black" points="944.59,-567.05 954.54,-563.4 944.49,-560.05 944.59,-567.05"/>
<text text-anchor="middle" x="880.5" y="-611.8" font-family="Times,serif" font-size="14.00">GitHub</text>
<text text-anchor="middle" x="880.5" y="-596.8" font-family="Times,serif" font-size="14.00">Action</text>
</g>
<!-- _GH__KCHASON__CASE_VALIDATION_ACTION&#45;&gt;_GH__CASEWORK__CASE_MAPPING_TEMPLATE_PYTHON -->
<g id="edge21" class="edge">
<title>_GH__KCHASON__CASE_VALIDATION_ACTION&#45;&gt;_GH__CASEWORK__CASE_MAPPING_TEMPLATE_PYTHON</title>
<path fill="none" stroke="black" d="M786.38,-639.66C804.05,-636.07 823.15,-632.81 841,-631 876.3,-627.42 914.93,-626.81 949.9,-627.49"/>
<polygon fill="black" stroke="black" points="949.52,-630.99 959.6,-627.72 949.69,-623.99 949.52,-630.99"/>
<text text-anchor="middle" x="880.5" y="-649.8" font-family="Times,serif" font-size="14.00">GitHub</text>
<text text-anchor="middle" x="880.5" y="-634.8" font-family="Times,serif" font-size="14.00">Action</text>
</g>
<!-- _GH__CASEWORK__CASE_BINDINGS_CSHARP_MONITOR -->
<g id="node20" class="node">
<title>_GH__CASEWORK__CASE_BINDINGS_CSHARP_MONITOR</title>
<g id="a_node20"><a xlink:href="https://github.com/casework/CASE-Bindings-CSharp-Monitor" xlink:title="CASE Bindings CSharp Monitor\ntests NuGet package with validation action">
<path fill="#8ec7d2" stroke="#0d6986" d="M1177,-857C1177,-857 950,-857 950,-857 944,-857 938,-851 938,-845 938,-845 938,-831 938,-831 938,-825 944,-819 950,-819 950,-819 1177,-819 1177,-819 1183,-819 1189,-825 1189,-831 1189,-831 1189,-845 1189,-845 1189,-851 1183,-857 1177,-857"/>
<text text-anchor="middle" x="1063.5" y="-841.8" font-family="Times,serif" font-size="14.00">CASE Bindings CSharp Monitor</text>
<text text-anchor="middle" x="1063.5" y="-826.8" font-family="Times,serif" font-size="14.00">tests NuGet package with validation action</text>
</a>
</g>
</g>
<!-- _GH__KCHASON__CASE_VALIDATION_ACTION&#45;&gt;_GH__CASEWORK__CASE_BINDINGS_CSHARP_MONITOR -->
<g id="edge16" class="edge">
<title>_GH__KCHASON__CASE_VALIDATION_ACTION&#45;&gt;_GH__CASEWORK__CASE_BINDINGS_CSHARP_MONITOR</title>
<path fill="none" stroke="black" d="M738.64,-675.23C761.9,-697.43 802.37,-734.32 841,-761 873.89,-783.72 885.38,-784.02 920,-804 926.22,-807.59 928.33,-810.17 937.43,-814.28"/>
<polygon fill="black" stroke="black" points="936.07,-817.51 946.65,-818.01 938.69,-811.02 936.07,-817.51"/>
<text text-anchor="middle" x="880.5" y="-822.8" font-family="Times,serif" font-size="14.00">GitHub</text>
<text text-anchor="middle" x="880.5" y="-807.8" font-family="Times,serif" font-size="14.00">Action</text>
</g>
<!-- _GH__DOD_CYBER_CRIME_CENTER__SQLITE_DISSECT -->
<g id="node22" class="node">
<title>_GH__DOD_CYBER_CRIME_CENTER__SQLITE_DISSECT</title>
<g id="a_node22"><a xlink:href="https://github.com/dod-cyber-crime-center/sqlite-dissect" xlink:title="sqlite&#45;dissect\nadopts new case&#45;validation&#45;action">
<path fill="#8ec7d2" stroke="#0d6986" d="M1152,-234C1152,-234 975,-234 975,-234 969,-234 963,-228 963,-222 963,-222 963,-208 963,-208 963,-202 969,-196 975,-196 975,-196 1152,-196 1152,-196 1158,-196 1164,-202 1164,-208 1164,-208 1164,-222 1164,-222 1164,-228 1158,-234 1152,-234"/>
<text text-anchor="middle" x="1063.5" y="-218.8" font-family="Times,serif" font-size="14.00">sqlite&#45;dissect</text>
<text text-anchor="middle" x="1063.5" y="-203.8" font-family="Times,serif" font-size="14.00">adopts new case&#45;validation&#45;action</text>
</a>
</g>
</g>
<!-- _GH__KCHASON__CASE_VALIDATION_ACTION&#45;&gt;_GH__DOD_CYBER_CRIME_CENTER__SQLITE_DISSECT -->
<g id="edge22" class="edge">
<title>_GH__KCHASON__CASE_VALIDATION_ACTION&#45;&gt;_GH__DOD_CYBER_CRIME_CENTER__SQLITE_DISSECT</title>
<g id="a_edge22"><a xlink:href="https://github.com/dod-cyber-crime-center/sqlite-dissect/pull/31" xlink:title="TODO: PR 31">
<path fill="none" stroke="black" d="M786.45,-654.11C800.43,-650.48 813.71,-644.04 823,-633 851.21,-599.47 810.99,-270.94 841,-239 868.84,-209.37 911.16,-200.02 951.38,-199.3"/>
<polygon fill="black" stroke="black" points="951.14,-202.8 961.14,-199.32 951.15,-195.8 951.14,-202.8"/>
</a>
</g>
<g id="a_edge22&#45;label"><a xlink:href="https://github.com/dod-cyber-crime-center/sqlite-dissect/pull/31" xlink:title="TODO: PR 31">
<text text-anchor="middle" x="880.5" y="-242.8" font-family="Times,serif" font-size="14.00">TODO: PR 31</text>
</a>
</g>
</g>
<!-- _GH__CIPHERTECHSOLUTIONS__CASE_BINDINGS_CSHARP&#45;&gt;_GH__CASEWORK__CASE_BINDINGS_CSHARP_MONITOR -->
<g id="edge15" class="edge">
<title>_GH__CIPHERTECHSOLUTIONS__CASE_BINDINGS_CSHARP&#45;&gt;_GH__CASEWORK__CASE_BINDINGS_CSHARP_MONITOR</title>
<path fill="none" stroke="black" d="M804.79,-838C841.48,-838 885.23,-838 926.16,-838"/>
<polygon fill="black" stroke="black" points="926.11,-841.5 936.11,-838 926.11,-834.5 926.11,-841.5"/>
<text text-anchor="middle" x="880.5" y="-841.8" font-family="Times,serif" font-size="14.00">NuGet</text>
</g>
</g>
</svg>
