<?xml version="1.0" encoding="UTF-8" standalone="no"?>
<!DOCTYPE svg PUBLIC "-//W3C//DTD SVG 1.1//EN"
 "http://www.w3.org/Graphics/SVG/1.1/DTD/svg11.dtd">
<!-- Generated by graphviz version 8.0.3 (20230416.2022)
 -->
<!-- Title: cdo_release_flow Pages: 1 -->
<svg width="1668pt" height="1177pt"
 viewBox="0.00 0.00 1668.00 1177.00" xmlns="http://www.w3.org/2000/svg" xmlns:xlink="http://www.w3.org/1999/xlink">
<g id="graph0" class="graph" transform="scale(1 1) rotate(0) translate(4 1173)">
<title>cdo_release_flow</title>
<polygon fill="white" stroke="none" points="-4,4 -4,-1173 1664,-1173 1664,4 -4,4"/>
<text text-anchor="middle" x="830" y="-38.8" font-family="Times,serif" font-size="14.00">Release flow of CDO ontologies</text>
<text text-anchor="middle" x="830" y="-7.8" font-family="Times,serif" font-size="14.00">Nodes link to the respective Git repository.</text>
<g id="clust1" class="cluster">
<title>cluster_uco_0_9_1</title>
<polygon fill="none" stroke="black" points="0,-139 0,-255 168,-255 168,-139 0,-139"/>
<text text-anchor="middle" x="84" y="-239.8" font-family="Times,serif" font-size="14.00">Adoption of UCO 0.9.1</text>
</g>
<g id="clust2" class="cluster">
<title>cluster_case_0_7_1</title>
<polygon fill="none" stroke="black" points="8,-147 8,-224 160,-224 160,-147 8,-147"/>
<text text-anchor="middle" x="84" y="-208.8" font-family="Times,serif" font-size="14.00">Adoption of CASE 0.7.1</text>
</g>
<g id="clust3" class="cluster">
<title>cluster_uco_1_1_0</title>
<polygon fill="none" stroke="black" points="995,-100 995,-294 1283,-294 1283,-100 995,-100"/>
<text text-anchor="middle" x="1139" y="-278.8" font-family="Times,serif" font-size="14.00">Adoption of UCO 1.1.0</text>
</g>
<g id="clust4" class="cluster">
<title>cluster_case_1_1_0</title>
<polygon fill="none" stroke="black" points="1003,-108 1003,-263 1275,-263 1275,-108 1003,-108"/>
<text text-anchor="middle" x="1139" y="-247.8" font-family="Times,serif" font-size="14.00">Adoption of CASE 1.1.0</text>
</g>
<g id="clust5" class="cluster">
<title>cluster_case_utils_0_9_0</title>
<polygon fill="none" stroke="black" points="1011,-116 1011,-232 1267,-232 1267,-116 1011,-116"/>
<text text-anchor="middle" x="1139" y="-216.8" font-family="Times,serif" font-size="14.00">Adoption of case&#45;utils 0.9.0</text>
</g>
<g id="clust6" class="cluster">
<title>cluster_case_validation_action_2_5</title>
<polygon fill="none" stroke="black" points="1019,-124 1019,-201 1259,-201 1259,-124 1019,-124"/>
<text text-anchor="middle" x="1139" y="-185.8" font-family="Times,serif" font-size="14.00">Adoption of case&#45;validation&#45;action 2.5</text>
</g>
<g id="clust7" class="cluster">
<title>cluster_uco_1_2_0</title>
<polygon fill="none" stroke="black" points="26,-302 26,-1161 1652,-1161 1652,-302 26,-302"/>
<text text-anchor="middle" x="839" y="-1145.8" font-family="Times,serif" font-size="14.00">Adoption of UCO 1.2.0</text>
</g>
<g id="clust8" class="cluster">
<title>cluster_case_1_2_0</title>
<polygon fill="none" stroke="black" points="245.5,-419 245.5,-1130 1644,-1130 1644,-419 245.5,-419"/>
<text text-anchor="middle" x="944.75" y="-1114.8" font-family="Times,serif" font-size="14.00">Adoption of CASE 1.2.0</text>
</g>
<g id="clust13" class="cluster">
<title>cluster_case_utils_0_11_0</title>
<polygon fill="none" stroke="black" points="507,-966 507,-1099 891,-1099 891,-966 507,-966"/>
<text text-anchor="middle" x="699" y="-1083.8" font-family="Times,serif" font-size="14.00">Adoption of case&#45;utils 0.11.0</text>
</g>
<g id="clust9" class="cluster">
<title>cluster_case_utils_0_10_0</title>
<polygon fill="none" stroke="black" points="672,-427 672,-936 1636,-936 1636,-427 672,-427"/>
<text text-anchor="middle" x="1154" y="-920.8" font-family="Times,serif" font-size="14.00">Adoption of case&#45;utils 0.10.0</text>
</g>
<g id="clust11" class="cluster">
<title>cluster_case_validation_action_2_6</title>
<polygon fill="none" stroke="black" points="682.5,-435 682.5,-803 1280.5,-803 1280.5,-435 682.5,-435"/>
<text text-anchor="middle" x="981.5" y="-787.8" font-family="Times,serif" font-size="14.00">Adoption of case&#45;validation&#45;action 2.6</text>
</g>
<g id="clust12" class="cluster">
<title>cluster_case_bindings_csharp_0_4_0</title>
<polygon fill="none" stroke="black" points="690.5,-695 690.5,-772 1272.5,-772 1272.5,-695 690.5,-695"/>
<text text-anchor="middle" x="981.5" y="-756.8" font-family="Times,serif" font-size="14.00">Adoption of CSharp bindings 0.4.0</text>
</g>
<g id="clust10" class="cluster">
<title>cluster_case_prov_0_7_0</title>
<polygon fill="none" stroke="black" points="1346,-828 1346,-905 1628,-905 1628,-828 1346,-828"/>
<text text-anchor="middle" x="1487" y="-889.8" font-family="Times,serif" font-size="14.00">Adoption of case&#45;prov 0.7.0</text>
</g>
<!-- _GH__CASEWORK__CASE_MAPPING_TEMPLATE_STUBS -->
<g id="node1" class="node">
<title>_GH__CASEWORK__CASE_MAPPING_TEMPLATE_STUBS</title>
<g id="a_node1"><a xlink:href="https://github.com/casework/CASE-Mapping-Template-Stubs" xlink:title="CASE Mapping\nTemplate Stubs">
<path fill="#8ec7d2" stroke="#0d6986" d="M124,-193C124,-193 44,-193 44,-193 38,-193 32,-187 32,-181 32,-181 32,-167 32,-167 32,-161 38,-155 44,-155 44,-155 124,-155 124,-155 130,-155 136,-161 136,-167 136,-167 136,-181 136,-181 136,-187 130,-193 124,-193"/>
<text text-anchor="middle" x="84" y="-177.8" font-family="Times,serif" font-size="14.00">CASE Mapping</text>
<text text-anchor="middle" x="84" y="-162.8" font-family="Times,serif" font-size="14.00">Template Stubs</text>
</a>
</g>
</g>
<!-- _GH__CASEWORK__CASE_IMPLEMENTATON_PYPI_EXIFREAD -->
<g id="node2" class="node">
<title>_GH__CASEWORK__CASE_IMPLEMENTATON_PYPI_EXIFREAD</title>
<g id="a_node2"><a xlink:href="https://github.com/casework/CASE-Implementation-PyPI-Exifread" xlink:title="CASE&#45;Implementation&#45;PyPI&#45;Exifread\nadopts new case&#45;validation&#45;action">
<path fill="#8ec7d2" stroke="#0d6986" d="M1239,-170C1239,-170 1039,-170 1039,-170 1033,-170 1027,-164 1027,-158 1027,-158 1027,-144 1027,-144 1027,-138 1033,-132 1039,-132 1039,-132 1239,-132 1239,-132 1245,-132 1251,-138 1251,-144 1251,-144 1251,-158 1251,-158 1251,-164 1245,-170 1239,-170"/>
<text text-anchor="middle" x="1139" y="-154.8" font-family="Times,serif" font-size="14.00">CASE&#45;Implementation&#45;PyPI&#45;Exifread</text>
<text text-anchor="middle" x="1139" y="-139.8" font-family="Times,serif" font-size="14.00">adopts new case&#45;validation&#45;action</text>
</a>
</g>
</g>
<!-- _GH__UCOPROJECT__ONTOLOGY_UNIFIEDCYBERONTOLOGY_ORG -->
<g id="node3" class="node">
<title>_GH__UCOPROJECT__ONTOLOGY_UNIFIEDCYBERONTOLOGY_ORG</title>
<g id="a_node3"><a xlink:href="https://github.com/ucoProject/ontology.unifiedcyberontology.org" xlink:title="UCO documentation\nregenerated">
<path fill="#8ec7d2" stroke="#0d6986" d="M359.5,-411C359.5,-411 253.5,-411 253.5,-411 247.5,-411 241.5,-405 241.5,-399 241.5,-399 241.5,-385 241.5,-385 241.5,-379 247.5,-373 253.5,-373 253.5,-373 359.5,-373 359.5,-373 365.5,-373 371.5,-379 371.5,-385 371.5,-385 371.5,-399 371.5,-399 371.5,-405 365.5,-411 359.5,-411"/>
<text text-anchor="middle" x="306.5" y="-395.8" font-family="Times,serif" font-size="14.00">UCO documentation</text>
<text text-anchor="middle" x="306.5" y="-380.8" font-family="Times,serif" font-size="14.00">regenerated</text>
</a>
</g>
</g>
<!-- _GH__CASEWORK__ONTOLOGY_CASEONTOLOGY_ORG -->
<g id="node9" class="node">
<title>_GH__CASEWORK__ONTOLOGY_CASEONTOLOGY_ORG</title>
<g id="a_node9"><a xlink:href="https://github.com/casework/ontology.caseontology.org" xlink:title="CASE documentation\nregenerated">
<path fill="#8ec7d2" stroke="#0d6986" d="M605,-492C605,-492 493,-492 493,-492 487,-492 481,-486 481,-480 481,-480 481,-466 481,-466 481,-460 487,-454 493,-454 493,-454 605,-454 605,-454 611,-454 617,-460 617,-466 617,-466 617,-480 617,-480 617,-486 611,-492 605,-492"/>
<text text-anchor="middle" x="549" y="-476.8" font-family="Times,serif" font-size="14.00">CASE documentation</text>
<text text-anchor="middle" x="549" y="-461.8" font-family="Times,serif" font-size="14.00">regenerated</text>
</a>
</g>
</g>
<!-- _GH__UCOPROJECT__ONTOLOGY_UNIFIEDCYBERONTOLOGY_ORG&#45;&gt;_GH__CASEWORK__ONTOLOGY_CASEONTOLOGY_ORG -->
<g id="edge23" class="edge">
<title>_GH__UCOPROJECT__ONTOLOGY_UNIFIEDCYBERONTOLOGY_ORG&#45;&gt;_GH__CASEWORK__ONTOLOGY_CASEONTOLOGY_ORG</title>
<path fill="none" stroke="black" d="M365.11,-411.4C399.78,-423.08 444.1,-438.01 480.43,-450.24"/>
<polygon fill="black" stroke="black" points="478.85,-453.74 489.45,-453.62 481.09,-447.11 478.85,-453.74"/>
<text text-anchor="middle" x="427.5" y="-460.8" font-family="Times,serif" font-size="14.00">Tech&#45;</text>
<text text-anchor="middle" x="427.5" y="-445.8" font-family="Times,serif" font-size="14.00">check</text>
</g>
<!-- _GH__UCOPROJECT__UCO -->
<g id="node4" class="node">
<title>_GH__UCOPROJECT__UCO</title>
<g id="a_node4"><a xlink:href="https://github.com/ucoProject/UCO" xlink:title="UCO Ontology\nreleases">
<path fill="#8ec7d2" stroke="#0d6986" d="M122,-411C122,-411 46,-411 46,-411 40,-411 34,-405 34,-399 34,-399 34,-385 34,-385 34,-379 40,-373 46,-373 46,-373 122,-373 122,-373 128,-373 134,-379 134,-385 134,-385 134,-399 134,-399 134,-405 128,-411 122,-411"/>
<text text-anchor="middle" x="84" y="-395.8" font-family="Times,serif" font-size="14.00">UCO Ontology</text>
<text text-anchor="middle" x="84" y="-380.8" font-family="Times,serif" font-size="14.00">releases</text>
</a>
</g>
</g>
<!-- _GH__UCOPROJECT__UCO&#45;&gt;_GH__UCOPROJECT__ONTOLOGY_UNIFIEDCYBERONTOLOGY_ORG -->
<g id="edge25" class="edge">
<title>_GH__UCOPROJECT__UCO&#45;&gt;_GH__UCOPROJECT__ONTOLOGY_UNIFIEDCYBERONTOLOGY_ORG</title>
<path fill="none" stroke="black" d="M134.48,-392C162.65,-392 198.52,-392 230.12,-392"/>
<polygon fill="black" stroke="black" points="230.1,-395.5 240.1,-392 230.1,-388.5 230.1,-395.5"/>
<text text-anchor="middle" x="198.5" y="-410.8" font-family="Times,serif" font-size="14.00">Git sub&#45;</text>
<text text-anchor="middle" x="198.5" y="-395.8" font-family="Times,serif" font-size="14.00">module</text>
</g>
<!-- _GH__UCOPROJECT__UCO_PROFILE_EXAMPLE -->
<g id="node6" class="node">
<title>_GH__UCOPROJECT__UCO_PROFILE_EXAMPLE</title>
<g id="a_node6"><a xlink:href="https://github.com/ucoProject/UCO-Profile-Example" xlink:title="UCO example profile\nupdates">
<path fill="#8ec7d2" stroke="#0d6986" d="M362,-355C362,-355 251,-355 251,-355 245,-355 239,-349 239,-343 239,-343 239,-329 239,-329 239,-323 245,-317 251,-317 251,-317 362,-317 362,-317 368,-317 374,-323 374,-329 374,-329 374,-343 374,-343 374,-349 368,-355 362,-355"/>
<text text-anchor="middle" x="306.5" y="-339.8" font-family="Times,serif" font-size="14.00">UCO example profile</text>
<text text-anchor="middle" x="306.5" y="-324.8" font-family="Times,serif" font-size="14.00">updates</text>
</a>
</g>
</g>
<!-- _GH__UCOPROJECT__UCO&#45;&gt;_GH__UCOPROJECT__UCO_PROFILE_EXAMPLE -->
<g id="edge26" class="edge">
<title>_GH__UCOPROJECT__UCO&#45;&gt;_GH__UCOPROJECT__UCO_PROFILE_EXAMPLE</title>
<path fill="none" stroke="black" d="M131.68,-372.63C145.74,-367.32 161.34,-361.95 176,-358 192.69,-353.51 210.84,-349.75 228.13,-346.68"/>
<polygon fill="black" stroke="black" points="228.5,-350 237.76,-344.86 227.32,-343.1 228.5,-350"/>
<text text-anchor="middle" x="198.5" y="-376.8" font-family="Times,serif" font-size="14.00">Git sub&#45;</text>
<text text-anchor="middle" x="198.5" y="-361.8" font-family="Times,serif" font-size="14.00">module</text>
</g>
<!-- _GH__CASEWORK__CASE -->
<g id="node8" class="node">
<title>_GH__CASEWORK__CASE</title>
<g id="a_node8"><a xlink:href="https://github.com/casework/CASE" xlink:title="CASE Ontology\nreleases">
<path fill="#8ec7d2" stroke="#0d6986" d="M347.5,-584C347.5,-584 265.5,-584 265.5,-584 259.5,-584 253.5,-578 253.5,-572 253.5,-572 253.5,-558 253.5,-558 253.5,-552 259.5,-546 265.5,-546 265.5,-546 347.5,-546 347.5,-546 353.5,-546 359.5,-552 359.5,-558 359.5,-558 359.5,-572 359.5,-572 359.5,-578 353.5,-584 347.5,-584"/>
<text text-anchor="middle" x="306.5" y="-568.8" font-family="Times,serif" font-size="14.00">CASE Ontology</text>
<text text-anchor="middle" x="306.5" y="-553.8" font-family="Times,serif" font-size="14.00">releases</text>
</a>
</g>
</g>
<!-- _GH__UCOPROJECT__UCO&#45;&gt;_GH__CASEWORK__CASE -->
<g id="edge24" class="edge">
<title>_GH__UCOPROJECT__UCO&#45;&gt;_GH__CASEWORK__CASE</title>
<path fill="none" stroke="black" d="M99.99,-411.34C125.39,-442.89 179.91,-505.56 239,-542 240.54,-542.95 242.12,-543.86 243.73,-544.75"/>
<polygon fill="black" stroke="black" points="241.77,-548.17 252.28,-549.46 244.86,-541.89 241.77,-548.17"/>
<text text-anchor="middle" x="198.5" y="-547.8" font-family="Times,serif" font-size="14.00">Git sub&#45;</text>
<text text-anchor="middle" x="198.5" y="-532.8" font-family="Times,serif" font-size="14.00">module</text>
</g>
<!-- _GH__UCOPROJECT__UCO_PROFILE_BFO -->
<g id="node5" class="node">
<title>_GH__UCOPROJECT__UCO_PROFILE_BFO</title>
<g id="a_node5"><a xlink:href="https://github.com/ucoProject/UCO-Profile-BFO" xlink:title="UCO BFO profile\nupdates">
<path fill="#8ec7d2" stroke="#0d6986" d="M594.5,-404C594.5,-404 503.5,-404 503.5,-404 497.5,-404 491.5,-398 491.5,-392 491.5,-392 491.5,-378 491.5,-378 491.5,-372 497.5,-366 503.5,-366 503.5,-366 594.5,-366 594.5,-366 600.5,-366 606.5,-372 606.5,-378 606.5,-378 606.5,-392 606.5,-392 606.5,-398 600.5,-404 594.5,-404"/>
<text text-anchor="middle" x="549" y="-388.8" font-family="Times,serif" font-size="14.00">UCO BFO profile</text>
<text text-anchor="middle" x="549" y="-373.8" font-family="Times,serif" font-size="14.00">updates</text>
</a>
</g>
</g>
<!-- _GH__UCOPROJECT__UCO_PROFILE_EXAMPLE&#45;&gt;_GH__UCOPROJECT__UCO_PROFILE_BFO -->
<g id="edge27" class="edge">
<title>_GH__UCOPROJECT__UCO_PROFILE_EXAMPLE&#45;&gt;_GH__UCOPROJECT__UCO_PROFILE_BFO</title>
<path fill="none" stroke="black" d="M374.23,-354.83C380.22,-356.32 386.21,-357.73 392,-359 420.77,-365.3 452.82,-370.88 480.35,-375.24"/>
<polygon fill="black" stroke="black" points="479.63,-378.83 490.05,-376.92 480.71,-371.92 479.63,-378.83"/>
<text text-anchor="middle" x="427.5" y="-389.8" font-family="Times,serif" font-size="14.00">Git merge of</text>
<text text-anchor="middle" x="427.5" y="-374.8" font-family="Times,serif" font-size="14.00">base branch</text>
</g>
<!-- _GH__UCOPROJECT__UCO_PROFILE_FOAF -->
<g id="node7" class="node">
<title>_GH__UCOPROJECT__UCO_PROFILE_FOAF</title>
<g id="a_node7"><a xlink:href="https://github.com/ucoProject/UCO-Profile-FOAF" xlink:title="UCO FOAF profile\nupdates">
<path fill="#8ec7d2" stroke="#0d6986" d="M598.5,-348C598.5,-348 499.5,-348 499.5,-348 493.5,-348 487.5,-342 487.5,-336 487.5,-336 487.5,-322 487.5,-322 487.5,-316 493.5,-310 499.5,-310 499.5,-310 598.5,-310 598.5,-310 604.5,-310 610.5,-316 610.5,-322 610.5,-322 610.5,-336 610.5,-336 610.5,-342 604.5,-348 598.5,-348"/>
<text text-anchor="middle" x="549" y="-332.8" font-family="Times,serif" font-size="14.00">UCO FOAF profile</text>
<text text-anchor="middle" x="549" y="-317.8" font-family="Times,serif" font-size="14.00">updates</text>
</a>
</g>
</g>
<!-- _GH__UCOPROJECT__UCO_PROFILE_EXAMPLE&#45;&gt;_GH__UCOPROJECT__UCO_PROFILE_FOAF -->
<g id="edge28" class="edge">
<title>_GH__UCOPROJECT__UCO_PROFILE_EXAMPLE&#45;&gt;_GH__UCOPROJECT__UCO_PROFILE_FOAF</title>
<path fill="none" stroke="black" d="M374.35,-329.95C380.31,-329.56 386.26,-329.24 392,-329 419.59,-327.86 449.95,-327.63 476.49,-327.76"/>
<polygon fill="black" stroke="black" points="476.2,-331.27 486.23,-327.84 476.25,-324.27 476.2,-331.27"/>
<text text-anchor="middle" x="427.5" y="-347.8" font-family="Times,serif" font-size="14.00">Git merge of</text>
<text text-anchor="middle" x="427.5" y="-332.8" font-family="Times,serif" font-size="14.00">base branch</text>
</g>
<!-- _GH__CASEWORK__CASE&#45;&gt;_GH__CASEWORK__ONTOLOGY_CASEONTOLOGY_ORG -->
<g id="edge4" class="edge">
<title>_GH__CASEWORK__CASE&#45;&gt;_GH__CASEWORK__ONTOLOGY_CASEONTOLOGY_ORG</title>
<path fill="none" stroke="black" d="M359.85,-547.14C364.65,-545.43 369.42,-543.7 374,-542 413.07,-527.51 456.66,-510.22 490.43,-496.57"/>
<polygon fill="black" stroke="black" points="491.63,-499.46 499.59,-492.46 489,-492.97 491.63,-499.46"/>
<text text-anchor="middle" x="427.5" y="-552.8" font-family="Times,serif" font-size="14.00">Git sub&#45;</text>
<text text-anchor="middle" x="427.5" y="-537.8" font-family="Times,serif" font-size="14.00">module</text>
</g>
<!-- _GH__CIPHERTECHSOLUTIONS__CASE_BINDINGS_CSHARP -->
<g id="node21" class="node">
<title>_GH__CIPHERTECHSOLUTIONS__CASE_BINDINGS_CSHARP</title>
<g id="a_node21"><a xlink:href="https://github.com/ciphertechsolutions/CASE-Bindings-CSharp" xlink:title="CASE&#45;Bindings&#45;CSharp\nadopts new ontology version">
<path fill="#8ec7d2" stroke="#0d6986" d="M859.5,-741C859.5,-741 710.5,-741 710.5,-741 704.5,-741 698.5,-735 698.5,-729 698.5,-729 698.5,-715 698.5,-715 698.5,-709 704.5,-703 710.5,-703 710.5,-703 859.5,-703 859.5,-703 865.5,-703 871.5,-709 871.5,-715 871.5,-715 871.5,-729 871.5,-729 871.5,-735 865.5,-741 859.5,-741"/>
<text text-anchor="middle" x="785" y="-725.8" font-family="Times,serif" font-size="14.00">CASE&#45;Bindings&#45;CSharp</text>
<text text-anchor="middle" x="785" y="-710.8" font-family="Times,serif" font-size="14.00">adopts new ontology version</text>
</a>
</g>
</g>
<!-- _GH__CASEWORK__CASE&#45;&gt;_GH__CIPHERTECHSOLUTIONS__CASE_BINDINGS_CSHARP -->
<g id="edge3" class="edge">
<title>_GH__CASEWORK__CASE&#45;&gt;_GH__CIPHERTECHSOLUTIONS__CASE_BINDINGS_CSHARP</title>
<path fill="none" stroke="black" d="M353.37,-584.39C421.76,-612.72 554.96,-665.67 672,-699 677.12,-700.46 682.39,-701.86 687.74,-703.21"/>
<polygon fill="black" stroke="black" points="686.53,-706.76 697.07,-705.73 688.18,-699.96 686.53,-706.76"/>
</g>
<!-- _GH__CASEWORK__CASE_UTILITIES_PYTHON -->
<g id="node24" class="node">
<title>_GH__CASEWORK__CASE_UTILITIES_PYTHON</title>
<g id="a_node24"><a xlink:href="https://github.com/casework/CASE-Utilities-Python" xlink:title="case&#45;utils\nreleases">
<path fill="#8ec7d2" stroke="#0d6986" d="M571,-1012C571,-1012 527,-1012 527,-1012 521,-1012 515,-1006 515,-1000 515,-1000 515,-986 515,-986 515,-980 521,-974 527,-974 527,-974 571,-974 571,-974 577,-974 583,-980 583,-986 583,-986 583,-1000 583,-1000 583,-1006 577,-1012 571,-1012"/>
<text text-anchor="middle" x="549" y="-996.8" font-family="Times,serif" font-size="14.00">case&#45;utils</text>
<text text-anchor="middle" x="549" y="-981.8" font-family="Times,serif" font-size="14.00">releases</text>
</a>
</g>
</g>
<!-- _GH__CASEWORK__CASE&#45;&gt;_GH__CASEWORK__CASE_UTILITIES_PYTHON -->
<g id="edge2" class="edge">
<title>_GH__CASEWORK__CASE&#45;&gt;_GH__CASEWORK__CASE_UTILITIES_PYTHON</title>
<path fill="none" stroke="black" d="M310.15,-584.23C320.02,-648.49 360.48,-858.09 481,-970 487.6,-976.13 495.91,-980.63 504.4,-983.94"/>
<polygon fill="black" stroke="black" points="503.16,-987.55 513.76,-987.41 505.39,-980.91 503.16,-987.55"/>
<text text-anchor="middle" x="427.5" y="-962.8" font-family="Times,serif" font-size="14.00">Git sub&#45;</text>
<text text-anchor="middle" x="427.5" y="-947.8" font-family="Times,serif" font-size="14.00">module</text>
</g>
<!-- _GH__AJNELSON_NIST__CASE_EXAMPLES_QC -->
<g id="node10" class="node">
<title>_GH__AJNELSON_NIST__CASE_EXAMPLES_QC</title>
<g id="a_node10"><a xlink:href="https://github.com/ajnelson-nist/CASE-Examples-QC" xlink:title="CASE&#45;Examples&#45;QC\nadopts CASE&#45;Examples and\nCASE website updates">
<path fill="#8ec7d2" stroke="#0d6986" d="M1213,-893.5C1213,-893.5 1065,-893.5 1065,-893.5 1059,-893.5 1053,-887.5 1053,-881.5 1053,-881.5 1053,-852.5 1053,-852.5 1053,-846.5 1059,-840.5 1065,-840.5 1065,-840.5 1213,-840.5 1213,-840.5 1219,-840.5 1225,-846.5 1225,-852.5 1225,-852.5 1225,-881.5 1225,-881.5 1225,-887.5 1219,-893.5 1213,-893.5"/>
<text text-anchor="middle" x="1139" y="-878.3" font-family="Times,serif" font-size="14.00">CASE&#45;Examples&#45;QC</text>
<text text-anchor="middle" x="1139" y="-863.3" font-family="Times,serif" font-size="14.00">adopts CASE&#45;Examples and</text>
<text text-anchor="middle" x="1139" y="-848.3" font-family="Times,serif" font-size="14.00">CASE website updates</text>
</a>
</g>
</g>
<!-- _GH__CASEWORK__CASE_IMPLEMENTATON_PROV_O -->
<g id="node14" class="node">
<title>_GH__CASEWORK__CASE_IMPLEMENTATON_PROV_O</title>
<g id="a_node14"><a xlink:href="https://github.com/casework/CASE-Implementation-PROV-O" xlink:title="case&#45;prov\nreleases">
<path fill="#8ec7d2" stroke="#0d6986" d="M1411,-874C1411,-874 1366,-874 1366,-874 1360,-874 1354,-868 1354,-862 1354,-862 1354,-848 1354,-848 1354,-842 1360,-836 1366,-836 1366,-836 1411,-836 1411,-836 1417,-836 1423,-842 1423,-848 1423,-848 1423,-862 1423,-862 1423,-868 1417,-874 1411,-874"/>
<text text-anchor="middle" x="1388.5" y="-858.8" font-family="Times,serif" font-size="14.00">case&#45;prov</text>
<text text-anchor="middle" x="1388.5" y="-843.8" font-family="Times,serif" font-size="14.00">releases</text>
</a>
</g>
</g>
<!-- _GH__AJNELSON_NIST__CASE_EXAMPLES_QC&#45;&gt;_GH__CASEWORK__CASE_IMPLEMENTATON_PROV_O -->
<g id="edge1" class="edge">
<title>_GH__AJNELSON_NIST__CASE_EXAMPLES_QC&#45;&gt;_GH__CASEWORK__CASE_IMPLEMENTATON_PROV_O</title>
<path fill="none" stroke="black" d="M1225.18,-862.87C1264.87,-860.95 1310.46,-858.74 1343.19,-857.15"/>
<polygon fill="black" stroke="black" points="1342.96,-860.62 1352.77,-856.64 1342.62,-853.62 1342.96,-860.62"/>
<text text-anchor="middle" x="1313.5" y="-877.8" font-family="Times,serif" font-size="14.00">Git sub&#45;</text>
<text text-anchor="middle" x="1313.5" y="-862.8" font-family="Times,serif" font-size="14.00">module</text>
</g>
<!-- _GH__CASEWORK__CASE_IMPLEMENTATON_GNU_TIME -->
<g id="node11" class="node">
<title>_GH__CASEWORK__CASE_IMPLEMENTATON_GNU_TIME</title>
<g id="a_node11"><a xlink:href="https://github.com/casework/CASE-Implementation-GNU-Time" xlink:title="CASE&#45;Implementation&#45;GNU&#45;Time\nadopts new case&#45;utils">
<path fill="#8ec7d2" stroke="#0d6986" d="M878,-905C878,-905 692,-905 692,-905 686,-905 680,-899 680,-893 680,-893 680,-879 680,-879 680,-873 686,-867 692,-867 692,-867 878,-867 878,-867 884,-867 890,-873 890,-879 890,-879 890,-893 890,-893 890,-899 884,-905 878,-905"/>
<text text-anchor="middle" x="785" y="-889.8" font-family="Times,serif" font-size="14.00">CASE&#45;Implementation&#45;GNU&#45;Time</text>
<text text-anchor="middle" x="785" y="-874.8" font-family="Times,serif" font-size="14.00">adopts new case&#45;utils</text>
</a>
</g>
</g>
<!-- _GH__CASEWORK__CASEWORK_GITHUB_IO -->
<g id="node12" class="node">
<title>_GH__CASEWORK__CASEWORK_GITHUB_IO</title>
<g id="a_node12"><a xlink:href="https://github.com/casework/casework.github.io" xlink:title="CASE website\nadopts new case&#45;utils">
<path fill="#8ec7d2" stroke="#0d6986" d="M839.5,-849C839.5,-849 730.5,-849 730.5,-849 724.5,-849 718.5,-843 718.5,-837 718.5,-837 718.5,-823 718.5,-823 718.5,-817 724.5,-811 730.5,-811 730.5,-811 839.5,-811 839.5,-811 845.5,-811 851.5,-817 851.5,-823 851.5,-823 851.5,-837 851.5,-837 851.5,-843 845.5,-849 839.5,-849"/>
<text text-anchor="middle" x="785" y="-833.8" font-family="Times,serif" font-size="14.00">CASE website</text>
<text text-anchor="middle" x="785" y="-818.8" font-family="Times,serif" font-size="14.00">adopts new case&#45;utils</text>
</a>
</g>
</g>
<!-- _GH__CASEWORK__CASEWORK_GITHUB_IO&#45;&gt;_GH__AJNELSON_NIST__CASE_EXAMPLES_QC -->
<g id="edge14" class="edge">
<title>_GH__CASEWORK__CASEWORK_GITHUB_IO&#45;&gt;_GH__AJNELSON_NIST__CASE_EXAMPLES_QC</title>
<path fill="none" stroke="black" d="M851.8,-836.92C905.29,-842.54 981.53,-850.55 1041.86,-856.89"/>
<polygon fill="black" stroke="black" points="1041.24,-860.45 1051.55,-858.02 1041.97,-853.49 1041.24,-860.45"/>
<text text-anchor="middle" x="947.5" y="-868.8" font-family="Times,serif" font-size="14.00">Git sub&#45;</text>
<text text-anchor="middle" x="947.5" y="-853.8" font-family="Times,serif" font-size="14.00">module</text>
</g>
<!-- _GH__CASEWORK__CASE_CORPORA -->
<g id="node13" class="node">
<title>_GH__CASEWORK__CASE_CORPORA</title>
<g id="a_node13"><a xlink:href="https://github.com/casework/CASE-Corpora" xlink:title="CASE&#45;Corpora\nadopts new case&#45;prov">
<path fill="#8ec7d2" stroke="#0d6986" d="M1608,-874C1608,-874 1498,-874 1498,-874 1492,-874 1486,-868 1486,-862 1486,-862 1486,-848 1486,-848 1486,-842 1492,-836 1498,-836 1498,-836 1608,-836 1608,-836 1614,-836 1620,-842 1620,-848 1620,-848 1620,-862 1620,-862 1620,-868 1614,-874 1608,-874"/>
<text text-anchor="middle" x="1553" y="-858.8" font-family="Times,serif" font-size="14.00">CASE&#45;Corpora</text>
<text text-anchor="middle" x="1553" y="-843.8" font-family="Times,serif" font-size="14.00">adopts new case&#45;prov</text>
</a>
</g>
</g>
<!-- _GH__CASEWORK__CASE_IMPLEMENTATON_PROV_O&#45;&gt;_GH__CASEWORK__CASE_CORPORA -->
<g id="edge6" class="edge">
<title>_GH__CASEWORK__CASE_IMPLEMENTATON_PROV_O&#45;&gt;_GH__CASEWORK__CASE_CORPORA</title>
<path fill="none" stroke="black" d="M1423.17,-855C1438.18,-855 1456.52,-855 1474.62,-855"/>
<polygon fill="black" stroke="black" points="1474.51,-858.5 1484.51,-855 1474.51,-851.5 1474.51,-858.5"/>
<text text-anchor="middle" x="1454.5" y="-858.8" font-family="Times,serif" font-size="14.00">PyPI</text>
</g>
<!-- _GH__CASEWORK__CASE_IMPLEMENTATON_PYPI_PILLOW -->
<g id="node15" class="node">
<title>_GH__CASEWORK__CASE_IMPLEMENTATON_PYPI_PILLOW</title>
<g id="a_node15"><a xlink:href="https://github.com/casework/CASE-Implementation-PyPI-Pillow" xlink:title="CASE&#45;Implementation&#45;PyPI&#45;Pillow\nadopts new case&#45;validation&#45;action">
<path fill="#8ec7d2" stroke="#0d6986" d="M1233.5,-593C1233.5,-593 1044.5,-593 1044.5,-593 1038.5,-593 1032.5,-587 1032.5,-581 1032.5,-581 1032.5,-567 1032.5,-567 1032.5,-561 1038.5,-555 1044.5,-555 1044.5,-555 1233.5,-555 1233.5,-555 1239.5,-555 1245.5,-561 1245.5,-567 1245.5,-567 1245.5,-581 1245.5,-581 1245.5,-587 1239.5,-593 1233.5,-593"/>
<text text-anchor="middle" x="1139" y="-577.8" font-family="Times,serif" font-size="14.00">CASE&#45;Implementation&#45;PyPI&#45;Pillow</text>
<text text-anchor="middle" x="1139" y="-562.8" font-family="Times,serif" font-size="14.00">adopts new case&#45;validation&#45;action</text>
</a>
</g>
</g>
<!-- _GH__CASEWORK__CASE_IMPLEMENTATON_UFED_XML -->
<g id="node16" class="node">
<title>_GH__CASEWORK__CASE_IMPLEMENTATON_UFED_XML</title>
<g id="a_node16"><a xlink:href="https://github.com/casework/CASE-Implementation-UFED-XML" xlink:title="CASE&#45;Implementation&#45;UFED&#45;XML\nadopts new case&#45;validation&#45;action">
<path fill="#8ec7d2" stroke="#0d6986" d="M1236,-649C1236,-649 1042,-649 1042,-649 1036,-649 1030,-643 1030,-637 1030,-637 1030,-623 1030,-623 1030,-617 1036,-611 1042,-611 1042,-611 1236,-611 1236,-611 1242,-611 1248,-617 1248,-623 1248,-623 1248,-637 1248,-637 1248,-643 1242,-649 1236,-649"/>
<text text-anchor="middle" x="1139" y="-633.8" font-family="Times,serif" font-size="14.00">CASE&#45;Implementation&#45;UFED&#45;XML</text>
<text text-anchor="middle" x="1139" y="-618.8" font-family="Times,serif" font-size="14.00">adopts new case&#45;validation&#45;action</text>
</a>
</g>
</g>
<!-- _GH__CASEWORK__CASE_IMPLEMENTATON_XRY -->
<g id="node17" class="node">
<title>_GH__CASEWORK__CASE_IMPLEMENTATON_XRY</title>
<g id="a_node17"><a xlink:href="https://github.com/casework/CASE-Implementation-XRY" xlink:title="CASE&#45;Implementation&#45;XRY adopts\nnew case&#45;validation&#45;action">
<path fill="#8ec7d2" stroke="#0d6986" d="M1234,-481C1234,-481 1044,-481 1044,-481 1038,-481 1032,-475 1032,-469 1032,-469 1032,-455 1032,-455 1032,-449 1038,-443 1044,-443 1044,-443 1234,-443 1234,-443 1240,-443 1246,-449 1246,-455 1246,-455 1246,-469 1246,-469 1246,-475 1240,-481 1234,-481"/>
<text text-anchor="middle" x="1139" y="-465.8" font-family="Times,serif" font-size="14.00">CASE&#45;Implementation&#45;XRY adopts</text>
<text text-anchor="middle" x="1139" y="-450.8" font-family="Times,serif" font-size="14.00">new case&#45;validation&#45;action</text>
</a>
</g>
</g>
<!-- _GH__CASEWORK__CASE_MAPPING_TEMPLATE_PYTHON -->
<g id="node18" class="node">
<title>_GH__CASEWORK__CASE_MAPPING_TEMPLATE_PYTHON</title>
<g id="a_node18"><a xlink:href="https://github.com/casework/CASE-Mapping-Template-Python" xlink:title="CASE&#45;Mapping&#45;Template&#45;Python\nadopts new case&#45;validation&#45;action">
<path fill="#8ec7d2" stroke="#0d6986" d="M1229,-537C1229,-537 1049,-537 1049,-537 1043,-537 1037,-531 1037,-525 1037,-525 1037,-511 1037,-511 1037,-505 1043,-499 1049,-499 1049,-499 1229,-499 1229,-499 1235,-499 1241,-505 1241,-511 1241,-511 1241,-525 1241,-525 1241,-531 1235,-537 1229,-537"/>
<text text-anchor="middle" x="1139" y="-521.8" font-family="Times,serif" font-size="14.00">CASE&#45;Mapping&#45;Template&#45;Python</text>
<text text-anchor="middle" x="1139" y="-506.8" font-family="Times,serif" font-size="14.00">adopts new case&#45;validation&#45;action</text>
</a>
</g>
</g>
<!-- _GH__KCHASON__CASE_VALIDATION_ACTION -->
<g id="node19" class="node">
<title>_GH__KCHASON__CASE_VALIDATION_ACTION</title>
<g id="a_node19"><a xlink:href="https://github.com/kchason/case-validation-action" xlink:title="case&#45;validation&#45;action\nreleases">
<path fill="#8ec7d2" stroke="#0d6986" d="M841,-583C841,-583 729,-583 729,-583 723,-583 717,-577 717,-571 717,-571 717,-557 717,-557 717,-551 723,-545 729,-545 729,-545 841,-545 841,-545 847,-545 853,-551 853,-557 853,-557 853,-571 853,-571 853,-577 847,-583 841,-583"/>
<text text-anchor="middle" x="785" y="-567.8" font-family="Times,serif" font-size="14.00">case&#45;validation&#45;action</text>
<text text-anchor="middle" x="785" y="-552.8" font-family="Times,serif" font-size="14.00">releases</text>
</a>
</g>
</g>
<!-- _GH__KCHASON__CASE_VALIDATION_ACTION&#45;&gt;_GH__CASEWORK__CASE_IMPLEMENTATON_PYPI_EXIFREAD -->
<g id="edge17" class="edge">
<title>_GH__KCHASON__CASE_VALIDATION_ACTION&#45;&gt;_GH__CASEWORK__CASE_IMPLEMENTATON_PYPI_EXIFREAD</title>
<path fill="none" stroke="black" d="M802.51,-544.63C859.55,-477.7 1048.52,-255.99 1114.79,-178.24"/>
<polygon fill="black" stroke="black" points="1117.71,-181.21 1121.53,-171.32 1112.38,-176.66 1117.71,-181.21"/>
<text text-anchor="middle" x="947.5" y="-436.8" font-family="Times,serif" font-size="14.00">GitHub</text>
<text text-anchor="middle" x="947.5" y="-421.8" font-family="Times,serif" font-size="14.00">Action</text>
</g>
<!-- _GH__KCHASON__CASE_VALIDATION_ACTION&#45;&gt;_GH__CASEWORK__CASE_IMPLEMENTATON_PYPI_PILLOW -->
<g id="edge18" class="edge">
<title>_GH__KCHASON__CASE_VALIDATION_ACTION&#45;&gt;_GH__CASEWORK__CASE_IMPLEMENTATON_PYPI_PILLOW</title>
<path fill="none" stroke="black" d="M853.47,-565.01C892.49,-565.68 942.52,-566.67 987,-568 998.24,-568.34 1009.96,-568.73 1021.67,-569.15"/>
<polygon fill="black" stroke="black" points="1021.28,-572.67 1031.41,-569.54 1021.54,-565.68 1021.28,-572.67"/>
<text text-anchor="middle" x="947.5" y="-586.8" font-family="Times,serif" font-size="14.00">GitHub</text>
<text text-anchor="middle" x="947.5" y="-571.8" font-family="Times,serif" font-size="14.00">Action</text>
</g>
<!-- _GH__KCHASON__CASE_VALIDATION_ACTION&#45;&gt;_GH__CASEWORK__CASE_IMPLEMENTATON_UFED_XML -->
<g id="edge19" class="edge">
<title>_GH__KCHASON__CASE_VALIDATION_ACTION&#45;&gt;_GH__CASEWORK__CASE_IMPLEMENTATON_UFED_XML</title>
<path fill="none" stroke="black" d="M849.56,-583.44C868.26,-588.69 888.84,-594.02 908,-598 943.83,-605.45 983.18,-611.64 1019.04,-616.53"/>
<polygon fill="black" stroke="black" points="1018.17,-620.08 1028.55,-617.94 1019.1,-613.14 1018.17,-620.08"/>
<text text-anchor="middle" x="947.5" y="-629.8" font-family="Times,serif" font-size="14.00">GitHub</text>
<text text-anchor="middle" x="947.5" y="-614.8" font-family="Times,serif" font-size="14.00">Action</text>
</g>
<!-- _GH__KCHASON__CASE_VALIDATION_ACTION&#45;&gt;_GH__CASEWORK__CASE_IMPLEMENTATON_XRY -->
<g id="edge20" class="edge">
<title>_GH__KCHASON__CASE_VALIDATION_ACTION&#45;&gt;_GH__CASEWORK__CASE_IMPLEMENTATON_XRY</title>
<path fill="none" stroke="black" d="M810.08,-544.77C833.59,-527.11 871.12,-501.8 908,-489 943.61,-476.64 983.98,-469.72 1020.85,-465.9"/>
<polygon fill="black" stroke="black" points="1021.04,-469.3 1030.66,-464.86 1020.37,-462.33 1021.04,-469.3"/>
<text text-anchor="middle" x="947.5" y="-507.8" font-family="Times,serif" font-size="14.00">GitHub</text>
<text text-anchor="middle" x="947.5" y="-492.8" font-family="Times,serif" font-size="14.00">Action</text>
</g>
<!-- _GH__KCHASON__CASE_VALIDATION_ACTION&#45;&gt;_GH__CASEWORK__CASE_MAPPING_TEMPLATE_PYTHON -->
<g id="edge21" class="edge">
<title>_GH__KCHASON__CASE_VALIDATION_ACTION&#45;&gt;_GH__CASEWORK__CASE_MAPPING_TEMPLATE_PYTHON</title>
<path fill="none" stroke="black" d="M850.71,-544.51C869.07,-539.67 889.19,-535.01 908,-532 946.27,-525.88 988.52,-522.38 1026.25,-520.41"/>
<polygon fill="black" stroke="black" points="1025.96,-523.87 1035.77,-519.89 1025.61,-516.88 1025.96,-523.87"/>
<text text-anchor="middle" x="947.5" y="-550.8" font-family="Times,serif" font-size="14.00">GitHub</text>
<text text-anchor="middle" x="947.5" y="-535.8" font-family="Times,serif" font-size="14.00">Action</text>
</g>
<!-- _GH__CASEWORK__CASE_BINDINGS_CSHARP_MONITOR -->
<g id="node20" class="node">
<title>_GH__CASEWORK__CASE_BINDINGS_CSHARP_MONITOR</title>
<g id="a_node20"><a xlink:href="https://github.com/casework/CASE-Bindings-CSharp-Monitor" xlink:title="CASE Bindings CSharp Monitor\ntests NuGet package with validation action">
<path fill="#8ec7d2" stroke="#0d6986" d="M1252.5,-741C1252.5,-741 1025.5,-741 1025.5,-741 1019.5,-741 1013.5,-735 1013.5,-729 1013.5,-729 1013.5,-715 1013.5,-715 1013.5,-709 1019.5,-703 1025.5,-703 1025.5,-703 1252.5,-703 1252.5,-703 1258.5,-703 1264.5,-709 1264.5,-715 1264.5,-715 1264.5,-729 1264.5,-729 1264.5,-735 1258.5,-741 1252.5,-741"/>
<text text-anchor="middle" x="1139" y="-725.8" font-family="Times,serif" font-size="14.00">CASE Bindings CSharp Monitor</text>
<text text-anchor="middle" x="1139" y="-710.8" font-family="Times,serif" font-size="14.00">tests NuGet package with validation action</text>
</a>
</g>
</g>
<!-- _GH__KCHASON__CASE_VALIDATION_ACTION&#45;&gt;_GH__CASEWORK__CASE_BINDINGS_CSHARP_MONITOR -->
<g id="edge16" class="edge">
<title>_GH__KCHASON__CASE_VALIDATION_ACTION&#45;&gt;_GH__CASEWORK__CASE_BINDINGS_CSHARP_MONITOR</title>
<path fill="none" stroke="black" d="M813.08,-583.2C837.45,-600.18 874.49,-625.25 908,-645 942.08,-665.08 958.03,-659.07 987,-686 991.97,-690.62 989.36,-695.23 995,-699 997.78,-700.86 1000.67,-702.59 1003.63,-704.2"/>
<polygon fill="black" stroke="black" points="1001.81,-707.69 1012.34,-708.92 1004.88,-701.4 1001.81,-707.69"/>
<text text-anchor="middle" x="947.5" y="-704.8" font-family="Times,serif" font-size="14.00">GitHub</text>
<text text-anchor="middle" x="947.5" y="-689.8" font-family="Times,serif" font-size="14.00">Action</text>
</g>
<!-- _GH__DOD_CYBER_CRIME_CENTER__SQLITE_DISSECT -->
<g id="node25" class="node">
<title>_GH__DOD_CYBER_CRIME_CENTER__SQLITE_DISSECT</title>
<g id="a_node25"><a xlink:href="https://github.com/dod-cyber-crime-center/sqlite-dissect" xlink:title="sqlite&#45;dissect\nadopts new case&#45;validation&#45;action">
<path fill="#8ec7d2" stroke="#0d6986" d="M1227.5,-92C1227.5,-92 1050.5,-92 1050.5,-92 1044.5,-92 1038.5,-86 1038.5,-80 1038.5,-80 1038.5,-66 1038.5,-66 1038.5,-60 1044.5,-54 1050.5,-54 1050.5,-54 1227.5,-54 1227.5,-54 1233.5,-54 1239.5,-60 1239.5,-66 1239.5,-66 1239.5,-80 1239.5,-80 1239.5,-86 1233.5,-92 1227.5,-92"/>
<text text-anchor="middle" x="1139" y="-76.8" font-family="Times,serif" font-size="14.00">sqlite&#45;dissect</text>
<text text-anchor="middle" x="1139" y="-61.8" font-family="Times,serif" font-size="14.00">adopts new case&#45;validation&#45;action</text>
</a>
</g>
</g>
<!-- _GH__KCHASON__CASE_VALIDATION_ACTION&#45;&gt;_GH__DOD_CYBER_CRIME_CENTER__SQLITE_DISSECT -->
<g id="edge22" class="edge">
<title>_GH__KCHASON__CASE_VALIDATION_ACTION&#45;&gt;_GH__DOD_CYBER_CRIME_CENTER__SQLITE_DISSECT</title>
<g id="a_edge22"><a xlink:href="https://github.com/dod-cyber-crime-center/sqlite-dissect/pull/31" xlink:title="TODO: PR 31">
<path fill="none" stroke="black" d="M789.43,-544.75C802.64,-476.34 856.52,-242.49 995,-120 1005.87,-110.39 1018.75,-102.73 1032.26,-96.64"/>
<polygon fill="black" stroke="black" points="1033.32,-99.57 1041.19,-92.47 1030.61,-93.12 1033.32,-99.57"/>
</a>
</g>
<g id="a_edge22&#45;label"><a xlink:href="https://github.com/dod-cyber-crime-center/sqlite-dissect/pull/31" xlink:title="TODO: PR 31">
<text text-anchor="middle" x="947.5" y="-224.8" font-family="Times,serif" font-size="14.00">TODO: PR 31</text>
</a>
</g>
</g>
<!-- _GH__CIPHERTECHSOLUTIONS__CASE_BINDINGS_CSHARP&#45;&gt;_GH__CASEWORK__CASE_BINDINGS_CSHARP_MONITOR -->
<g id="edge15" class="edge">
<title>_GH__CIPHERTECHSOLUTIONS__CASE_BINDINGS_CSHARP&#45;&gt;_GH__CASEWORK__CASE_BINDINGS_CSHARP_MONITOR</title>
<path fill="none" stroke="black" d="M871.98,-721.21C884.08,-721.12 896.35,-721.05 908,-721 938.54,-720.87 971.36,-720.91 1002.37,-721.03"/>
<polygon fill="black" stroke="black" points="1002.25,-724.53 1012.26,-721.07 1002.28,-717.53 1002.25,-724.53"/>
<text text-anchor="middle" x="947.5" y="-724.8" font-family="Times,serif" font-size="14.00">NuGet</text>
</g>
<!-- _GH__CASEWORK__CASE_EXAMPLES -->
<g id="node22" class="node">
<title>_GH__CASEWORK__CASE_EXAMPLES</title>
<g id="a_node22"><a xlink:href="https://github.com/casework/CASE-Examples" xlink:title="CASE&#45;Examples\nadopts new case&#45;utils">
<path fill="#8ec7d2" stroke="#0d6986" d="M839.5,-1012C839.5,-1012 730.5,-1012 730.5,-1012 724.5,-1012 718.5,-1006 718.5,-1000 718.5,-1000 718.5,-986 718.5,-986 718.5,-980 724.5,-974 730.5,-974 730.5,-974 839.5,-974 839.5,-974 845.5,-974 851.5,-980 851.5,-986 851.5,-986 851.5,-1000 851.5,-1000 851.5,-1006 845.5,-1012 839.5,-1012"/>
<text text-anchor="middle" x="785" y="-996.8" font-family="Times,serif" font-size="14.00">CASE&#45;Examples</text>
<text text-anchor="middle" x="785" y="-981.8" font-family="Times,serif" font-size="14.00">adopts new case&#45;utils</text>
</a>
</g>
</g>
<!-- _GH__CASEWORK__CASE_EXAMPLES&#45;&gt;_GH__AJNELSON_NIST__CASE_EXAMPLES_QC -->
<g id="edge5" class="edge">
<title>_GH__CASEWORK__CASE_EXAMPLES&#45;&gt;_GH__AJNELSON_NIST__CASE_EXAMPLES_QC</title>
<path fill="none" stroke="black" d="M851.95,-981.94C891.79,-974.19 943.16,-962.29 987,-946 1020.64,-933.5 1056.3,-915.11 1084.51,-899.22"/>
<polygon fill="black" stroke="black" points="1085.82,-901.93 1092.78,-893.94 1082.36,-895.85 1085.82,-901.93"/>
<text text-anchor="middle" x="947.5" y="-986.8" font-family="Times,serif" font-size="14.00">Git sub&#45;</text>
<text text-anchor="middle" x="947.5" y="-971.8" font-family="Times,serif" font-size="14.00">module</text>
</g>
<!-- _GH__CASEWORK__CASE_IMPLEMENTATON_EXIFTOOL -->
<g id="node23" class="node">
<title>_GH__CASEWORK__CASE_IMPLEMENTATON_EXIFTOOL</title>
<g id="a_node23"><a xlink:href="https://github.com/casework/CASE-Implementation-ExifTool" xlink:title="CASE&#45;Implementation&#45;ExifTool\nadopts new case&#45;utils">
<path fill="#8ec7d2" stroke="#0d6986" d="M871,-1068C871,-1068 699,-1068 699,-1068 693,-1068 687,-1062 687,-1056 687,-1056 687,-1042 687,-1042 687,-1036 693,-1030 699,-1030 699,-1030 871,-1030 871,-1030 877,-1030 883,-1036 883,-1042 883,-1042 883,-1056 883,-1056 883,-1062 877,-1068 871,-1068"/>
<text text-anchor="middle" x="785" y="-1052.8" font-family="Times,serif" font-size="14.00">CASE&#45;Implementation&#45;ExifTool</text>
<text text-anchor="middle" x="785" y="-1037.8" font-family="Times,serif" font-size="14.00">adopts new case&#45;utils</text>
</a>
</g>
</g>
<!-- _GH__CASEWORK__CASE_UTILITIES_PYTHON&#45;&gt;_GH__AJNELSON_NIST__CASE_EXAMPLES_QC -->
<g id="edge7" class="edge">
<title>_GH__CASEWORK__CASE_UTILITIES_PYTHON&#45;&gt;_GH__AJNELSON_NIST__CASE_EXAMPLES_QC</title>
<path fill="none" stroke="black" d="M583.44,-981.65C594.17,-977.98 606.1,-973.85 617,-970 641.52,-961.33 646.84,-956.58 672,-950 767.43,-925.04 793.88,-931.22 891,-914 940.84,-905.16 996.2,-894.69 1041.86,-885.87"/>
<polygon fill="black" stroke="black" points="1042.5,-889.12 1051.65,-883.79 1041.17,-882.25 1042.5,-889.12"/>
<text text-anchor="middle" x="785" y="-953.8" font-family="Times,serif" font-size="14.00">PyPI</text>
</g>
<!-- _GH__CASEWORK__CASE_UTILITIES_PYTHON&#45;&gt;_GH__CASEWORK__CASE_IMPLEMENTATON_GNU_TIME -->
<g id="edge10" class="edge">
<title>_GH__CASEWORK__CASE_UTILITIES_PYTHON&#45;&gt;_GH__CASEWORK__CASE_IMPLEMENTATON_GNU_TIME</title>
<path fill="none" stroke="black" d="M583.49,-987.67C595.33,-984.31 607.95,-978.86 617,-970 633.58,-953.77 617.63,-936.38 635,-921 645.05,-912.1 656.93,-905.36 669.53,-900.25"/>
<polygon fill="black" stroke="black" points="670.58,-903.23 678.77,-896.51 668.17,-896.66 670.58,-903.23"/>
<text text-anchor="middle" x="648.5" y="-924.8" font-family="Times,serif" font-size="14.00">PyPI</text>
</g>
<!-- _GH__CASEWORK__CASE_UTILITIES_PYTHON&#45;&gt;_GH__CASEWORK__CASEWORK_GITHUB_IO -->
<g id="edge13" class="edge">
<title>_GH__CASEWORK__CASE_UTILITIES_PYTHON&#45;&gt;_GH__CASEWORK__CASEWORK_GITHUB_IO</title>
<path fill="none" stroke="black" d="M583.49,-988.52C595.62,-985.27 608.43,-979.66 617,-970 642.34,-941.44 614.49,-918.21 635,-886 646.08,-868.61 653.4,-866.9 672,-858 683.23,-852.63 695.6,-848.21 707.9,-844.61"/>
<polygon fill="black" stroke="black" points="708.48,-847.8 717.19,-841.77 706.62,-841.05 708.48,-847.8"/>
<text text-anchor="middle" x="648.5" y="-889.8" font-family="Times,serif" font-size="14.00">PyPI</text>
</g>
<!-- _GH__CASEWORK__CASE_UTILITIES_PYTHON&#45;&gt;_GH__CASEWORK__CASE_IMPLEMENTATON_PROV_O -->
<g id="edge11" class="edge">
<title>_GH__CASEWORK__CASE_UTILITIES_PYTHON&#45;&gt;_GH__CASEWORK__CASE_IMPLEMENTATON_PROV_O</title>
<path fill="none" stroke="black" d="M569.52,-1012.15C592.04,-1032.77 631.24,-1064.32 672,-1077 764.94,-1105.9 794.75,-1091.48 891,-1077 1095.64,-1046.21 1172.82,-1067.26 1336,-940 1354.4,-925.65 1367.73,-902.75 1376.21,-884.33"/>
<polygon fill="black" stroke="black" points="1379.76,-885.94 1380.54,-875.37 1373.34,-883.15 1379.76,-885.94"/>
<text text-anchor="middle" x="947.5" y="-1077.8" font-family="Times,serif" font-size="14.00">PyPI</text>
</g>
<!-- _GH__CASEWORK__CASE_UTILITIES_PYTHON&#45;&gt;_GH__KCHASON__CASE_VALIDATION_ACTION -->
<g id="edge12" class="edge">
<title>_GH__CASEWORK__CASE_UTILITIES_PYTHON&#45;&gt;_GH__KCHASON__CASE_VALIDATION_ACTION</title>
<path fill="none" stroke="black" d="M583.49,-988.91C595.78,-985.72 608.69,-980.05 617,-970 635.03,-948.2 629.67,-871.78 635,-844 648.18,-775.29 639.69,-753.05 672,-691 692.58,-651.47 728.06,-614.22 753.58,-590.42"/>
<polygon fill="black" stroke="black" points="755.47,-593.51 760.48,-584.17 750.74,-588.35 755.47,-593.51"/>
<text text-anchor="middle" x="648.5" y="-847.8" font-family="Times,serif" font-size="14.00">PyPI</text>
</g>
<!-- _GH__CASEWORK__CASE_UTILITIES_PYTHON&#45;&gt;_GH__CASEWORK__CASE_EXAMPLES -->
<g id="edge8" class="edge">
<title>_GH__CASEWORK__CASE_UTILITIES_PYTHON&#45;&gt;_GH__CASEWORK__CASE_EXAMPLES</title>
<path fill="none" stroke="black" d="M583.03,-993C615.25,-993 665.42,-993 707.57,-993"/>
<polygon fill="black" stroke="black" points="707.38,-996.5 717.38,-993 707.38,-989.5 707.38,-996.5"/>
<text text-anchor="middle" x="648.5" y="-996.8" font-family="Times,serif" font-size="14.00">PyPI</text>
</g>
<!-- _GH__CASEWORK__CASE_UTILITIES_PYTHON&#45;&gt;_GH__CASEWORK__CASE_IMPLEMENTATON_EXIFTOOL -->
<g id="edge9" class="edge">
<title>_GH__CASEWORK__CASE_UTILITIES_PYTHON&#45;&gt;_GH__CASEWORK__CASE_IMPLEMENTATON_EXIFTOOL</title>
<path fill="none" stroke="black" d="M583.03,-1000.9C611.48,-1007.71 653.93,-1017.87 692.49,-1027.1"/>
<polygon fill="black" stroke="black" points="691.19,-1030.63 701.73,-1029.55 692.81,-1023.82 691.19,-1030.63"/>
<text text-anchor="middle" x="648.5" y="-1022.8" font-family="Times,serif" font-size="14.00">PyPI</text>
</g>
</g>
</svg>
