<?xml version="1.0" encoding="UTF-8" standalone="no"?>
<!DOCTYPE svg PUBLIC "-//W3C//DTD SVG 1.1//EN"
 "http://www.w3.org/Graphics/SVG/1.1/DTD/svg11.dtd">
<!-- Generated by graphviz version 8.0.3 (20230416.2022)
 -->
<!-- Title: cdo_release_flow Pages: 1 -->
<svg width="2146pt" height="973pt"
 viewBox="0.00 0.00 2146.00 973.00" xmlns="http://www.w3.org/2000/svg" xmlns:xlink="http://www.w3.org/1999/xlink">
<g id="graph0" class="graph" transform="scale(1 1) rotate(0) translate(4 969)">
<title>cdo_release_flow</title>
<polygon fill="white" stroke="none" points="-4,4 -4,-969 2142,-969 2142,4 -4,4"/>
<text text-anchor="middle" x="1069" y="-38.8" font-family="Times,serif" font-size="14.00">Release flow of CDO ontologies</text>
<text text-anchor="middle" x="1069" y="-7.8" font-family="Times,serif" font-size="14.00">Nodes link to the respective Git repository.</text>
<g id="clust1" class="cluster">
<title>cluster_uco_0_9_1</title>
<polygon fill="none" stroke="black" points="0,-62 0,-178 168,-178 168,-62 0,-62"/>
<text text-anchor="middle" x="84" y="-162.8" font-family="Times,serif" font-size="14.00">Adoption of UCO 0.9.1</text>
</g>
<g id="clust2" class="cluster">
<title>cluster_case_0_7_1</title>
<polygon fill="none" stroke="black" points="8,-70 8,-147 160,-147 160,-70 8,-70"/>
<text text-anchor="middle" x="84" y="-131.8" font-family="Times,serif" font-size="14.00">Adoption of CASE 0.7.1</text>
</g>
<g id="clust3" class="cluster">
<title>cluster_uco_1_2_0</title>
<polygon fill="none" stroke="black" points="26,-186 26,-931 2130,-931 2130,-186 26,-186"/>
<text text-anchor="middle" x="1078" y="-915.8" font-family="Times,serif" font-size="14.00">Adoption of UCO 1.2.0</text>
</g>
<g id="clust4" class="cluster">
<title>cluster_case_1_2_0</title>
<polygon fill="none" stroke="black" points="245.5,-303 245.5,-900 2122,-900 2122,-303 245.5,-303"/>
<text text-anchor="middle" x="1183.75" y="-884.8" font-family="Times,serif" font-size="14.00">Adoption of CASE 1.2.0</text>
</g>
<g id="clust5" class="cluster">
<title>cluster_case_utils_0_10_0</title>
<polygon fill="none" stroke="black" points="1526,-311 1526,-869 2114,-869 2114,-311 1526,-311"/>
<text text-anchor="middle" x="1820" y="-853.8" font-family="Times,serif" font-size="14.00">Adoption of case&#45;utils 0.10.0</text>
</g>
<g id="clust6" class="cluster">
<title>cluster_case_prov_0_7_0</title>
<polygon fill="none" stroke="black" points="1569,-715 1569,-792 1739,-792 1739,-715 1569,-715"/>
<text text-anchor="middle" x="1654" y="-776.8" font-family="Times,serif" font-size="14.00">Adoption of case&#45;prov 0.7.0</text>
</g>
<g id="clust7" class="cluster">
<title>cluster_case_validation_action_2_6</title>
<polygon fill="none" stroke="black" points="1534,-319 1534,-707 2106,-707 2106,-319 1534,-319"/>
<text text-anchor="middle" x="1820" y="-691.8" font-family="Times,serif" font-size="14.00">Adoption of case&#45;validation&#45;action 2.6</text>
</g>
<g id="clust8" class="cluster">
<title>cluster_case_bindings_csharp_0_4_0</title>
<polygon fill="none" stroke="black" points="1559.5,-599 1559.5,-676 2098,-676 2098,-599 1559.5,-599"/>
<text text-anchor="middle" x="1828.75" y="-660.8" font-family="Times,serif" font-size="14.00">Adoption of CSharp bindings 0.4.0</text>
</g>
<g id="clust9" class="cluster">
<title>cluster_case_utils_0_11_0</title>
<polygon fill="none" stroke="black" points="507,-414 507,-769 1467,-769 1467,-414 507,-414"/>
<text text-anchor="middle" x="987" y="-753.8" font-family="Times,serif" font-size="14.00">Adoption of case&#45;utils 0.11.0</text>
</g>
<g id="clust10" class="cluster">
<title>cluster_case_prov_0_8_0</title>
<polygon fill="none" stroke="black" points="1289,-658 1289,-735 1459,-735 1459,-658 1289,-658"/>
<text text-anchor="middle" x="1374" y="-719.8" font-family="Times,serif" font-size="14.00">Adoption of case&#45;prov 0.8.0</text>
</g>
<g id="clust11" class="cluster">
<title>cluster_case_validation_action_2_6_1</title>
<polygon fill="none" stroke="black" points="702,-422 702,-509 1187,-509 1187,-422 702,-422"/>
<text text-anchor="middle" x="944.5" y="-493.8" font-family="Times,serif" font-size="14.00">Adoption of case&#45;validation&#45;action 2.6.1</text>
</g>
<!-- _GH__CASEWORK__CASE_MAPPING_TEMPLATE_STUBS -->
<g id="node1" class="node">
<title>_GH__CASEWORK__CASE_MAPPING_TEMPLATE_STUBS</title>
<g id="a_node1"><a xlink:href="https://github.com/casework/CASE-Mapping-Template-Stubs" xlink:title="CASE Mapping\nTemplate Stubs">
<path fill="#8ec7d2" stroke="#0d6986" d="M124,-116C124,-116 44,-116 44,-116 38,-116 32,-110 32,-104 32,-104 32,-90 32,-90 32,-84 38,-78 44,-78 44,-78 124,-78 124,-78 130,-78 136,-84 136,-90 136,-90 136,-104 136,-104 136,-110 130,-116 124,-116"/>
<text text-anchor="middle" x="84" y="-100.8" font-family="Times,serif" font-size="14.00">CASE Mapping</text>
<text text-anchor="middle" x="84" y="-85.8" font-family="Times,serif" font-size="14.00">Template Stubs</text>
</a>
</g>
</g>
<!-- _GH__UCOPROJECT__ONTOLOGY_UNIFIEDCYBERONTOLOGY_ORG -->
<g id="node2" class="node">
<title>_GH__UCOPROJECT__ONTOLOGY_UNIFIEDCYBERONTOLOGY_ORG</title>
<g id="a_node2"><a xlink:href="https://github.com/ucoProject/ontology.unifiedcyberontology.org" xlink:title="UCO documentation\nregenerated">
<path fill="#8ec7d2" stroke="#0d6986" d="M359.5,-295C359.5,-295 253.5,-295 253.5,-295 247.5,-295 241.5,-289 241.5,-283 241.5,-283 241.5,-269 241.5,-269 241.5,-263 247.5,-257 253.5,-257 253.5,-257 359.5,-257 359.5,-257 365.5,-257 371.5,-263 371.5,-269 371.5,-269 371.5,-283 371.5,-283 371.5,-289 365.5,-295 359.5,-295"/>
<text text-anchor="middle" x="306.5" y="-279.8" font-family="Times,serif" font-size="14.00">UCO documentation</text>
<text text-anchor="middle" x="306.5" y="-264.8" font-family="Times,serif" font-size="14.00">regenerated</text>
</a>
</g>
</g>
<!-- _GH__CASEWORK__ONTOLOGY_CASEONTOLOGY_ORG -->
<g id="node8" class="node">
<title>_GH__CASEWORK__ONTOLOGY_CASEONTOLOGY_ORG</title>
<g id="a_node8"><a xlink:href="https://github.com/casework/ontology.caseontology.org" xlink:title="CASE documentation\nregenerated">
<path fill="#8ec7d2" stroke="#0d6986" d="M605,-383C605,-383 493,-383 493,-383 487,-383 481,-377 481,-371 481,-371 481,-357 481,-357 481,-351 487,-345 493,-345 493,-345 605,-345 605,-345 611,-345 617,-351 617,-357 617,-357 617,-371 617,-371 617,-377 611,-383 605,-383"/>
<text text-anchor="middle" x="549" y="-367.8" font-family="Times,serif" font-size="14.00">CASE documentation</text>
<text text-anchor="middle" x="549" y="-352.8" font-family="Times,serif" font-size="14.00">regenerated</text>
</a>
</g>
</g>
<!-- _GH__UCOPROJECT__ONTOLOGY_UNIFIEDCYBERONTOLOGY_ORG&#45;&gt;_GH__CASEWORK__ONTOLOGY_CASEONTOLOGY_ORG -->
<g id="edge25" class="edge">
<title>_GH__UCOPROJECT__ONTOLOGY_UNIFIEDCYBERONTOLOGY_ORG&#45;&gt;_GH__CASEWORK__ONTOLOGY_CASEONTOLOGY_ORG</title>
<path fill="none" stroke="black" d="M364.15,-295.42C367.49,-296.62 370.79,-297.82 374,-299 419.03,-315.62 431.57,-322.52 480.9,-340.89"/>
<polygon fill="black" stroke="black" points="479.33,-344.41 489.92,-344.59 481.75,-337.84 479.33,-344.41"/>
<text text-anchor="middle" x="427.5" y="-352.8" font-family="Times,serif" font-size="14.00">Tech&#45;</text>
<text text-anchor="middle" x="427.5" y="-337.8" font-family="Times,serif" font-size="14.00">check</text>
</g>
<!-- _GH__UCOPROJECT__UCO -->
<g id="node3" class="node">
<title>_GH__UCOPROJECT__UCO</title>
<g id="a_node3"><a xlink:href="https://github.com/ucoProject/UCO" xlink:title="UCO Ontology\nreleases">
<path fill="#8ec7d2" stroke="#0d6986" d="M122,-295C122,-295 46,-295 46,-295 40,-295 34,-289 34,-283 34,-283 34,-269 34,-269 34,-263 40,-257 46,-257 46,-257 122,-257 122,-257 128,-257 134,-263 134,-269 134,-269 134,-283 134,-283 134,-289 128,-295 122,-295"/>
<text text-anchor="middle" x="84" y="-279.8" font-family="Times,serif" font-size="14.00">UCO Ontology</text>
<text text-anchor="middle" x="84" y="-264.8" font-family="Times,serif" font-size="14.00">releases</text>
</a>
</g>
</g>
<!-- _GH__UCOPROJECT__UCO&#45;&gt;_GH__UCOPROJECT__ONTOLOGY_UNIFIEDCYBERONTOLOGY_ORG -->
<g id="edge27" class="edge">
<title>_GH__UCOPROJECT__UCO&#45;&gt;_GH__UCOPROJECT__ONTOLOGY_UNIFIEDCYBERONTOLOGY_ORG</title>
<path fill="none" stroke="black" d="M134.48,-276C162.65,-276 198.52,-276 230.12,-276"/>
<polygon fill="black" stroke="black" points="230.1,-279.5 240.1,-276 230.1,-272.5 230.1,-279.5"/>
<text text-anchor="middle" x="198.5" y="-294.8" font-family="Times,serif" font-size="14.00">Git sub&#45;</text>
<text text-anchor="middle" x="198.5" y="-279.8" font-family="Times,serif" font-size="14.00">module</text>
</g>
<!-- _GH__UCOPROJECT__UCO_PROFILE_EXAMPLE -->
<g id="node5" class="node">
<title>_GH__UCOPROJECT__UCO_PROFILE_EXAMPLE</title>
<g id="a_node5"><a xlink:href="https://github.com/ucoProject/UCO-Profile-Example" xlink:title="UCO example profile\nupdates">
<path fill="#8ec7d2" stroke="#0d6986" d="M362,-239C362,-239 251,-239 251,-239 245,-239 239,-233 239,-227 239,-227 239,-213 239,-213 239,-207 245,-201 251,-201 251,-201 362,-201 362,-201 368,-201 374,-207 374,-213 374,-213 374,-227 374,-227 374,-233 368,-239 362,-239"/>
<text text-anchor="middle" x="306.5" y="-223.8" font-family="Times,serif" font-size="14.00">UCO example profile</text>
<text text-anchor="middle" x="306.5" y="-208.8" font-family="Times,serif" font-size="14.00">updates</text>
</a>
</g>
</g>
<!-- _GH__UCOPROJECT__UCO&#45;&gt;_GH__UCOPROJECT__UCO_PROFILE_EXAMPLE -->
<g id="edge28" class="edge">
<title>_GH__UCOPROJECT__UCO&#45;&gt;_GH__UCOPROJECT__UCO_PROFILE_EXAMPLE</title>
<path fill="none" stroke="black" d="M131.68,-256.63C145.74,-251.32 161.34,-245.95 176,-242 192.69,-237.51 210.84,-233.75 228.13,-230.68"/>
<polygon fill="black" stroke="black" points="228.5,-234 237.76,-228.86 227.32,-227.1 228.5,-234"/>
<text text-anchor="middle" x="198.5" y="-260.8" font-family="Times,serif" font-size="14.00">Git sub&#45;</text>
<text text-anchor="middle" x="198.5" y="-245.8" font-family="Times,serif" font-size="14.00">module</text>
</g>
<!-- _GH__CASEWORK__CASE -->
<g id="node7" class="node">
<title>_GH__CASEWORK__CASE</title>
<g id="a_node7"><a xlink:href="https://github.com/casework/CASE" xlink:title="CASE Ontology\nreleases">
<path fill="#8ec7d2" stroke="#0d6986" d="M347.5,-557C347.5,-557 265.5,-557 265.5,-557 259.5,-557 253.5,-551 253.5,-545 253.5,-545 253.5,-531 253.5,-531 253.5,-525 259.5,-519 265.5,-519 265.5,-519 347.5,-519 347.5,-519 353.5,-519 359.5,-525 359.5,-531 359.5,-531 359.5,-545 359.5,-545 359.5,-551 353.5,-557 347.5,-557"/>
<text text-anchor="middle" x="306.5" y="-541.8" font-family="Times,serif" font-size="14.00">CASE Ontology</text>
<text text-anchor="middle" x="306.5" y="-526.8" font-family="Times,serif" font-size="14.00">releases</text>
</a>
</g>
</g>
<!-- _GH__UCOPROJECT__UCO&#45;&gt;_GH__CASEWORK__CASE -->
<g id="edge26" class="edge">
<title>_GH__UCOPROJECT__UCO&#45;&gt;_GH__CASEWORK__CASE</title>
<path fill="none" stroke="black" d="M92.2,-295.2C110.03,-340.21 160.58,-453.42 239,-515 240.62,-516.27 242.32,-517.48 244.07,-518.62"/>
<polygon fill="black" stroke="black" points="241.82,-521.93 252.25,-523.8 245.27,-515.84 241.82,-521.93"/>
<text text-anchor="middle" x="198.5" y="-512.8" font-family="Times,serif" font-size="14.00">Git sub&#45;</text>
<text text-anchor="middle" x="198.5" y="-497.8" font-family="Times,serif" font-size="14.00">module</text>
</g>
<!-- _GH__UCOPROJECT__UCO_PROFILE_BFO -->
<g id="node4" class="node">
<title>_GH__UCOPROJECT__UCO_PROFILE_BFO</title>
<g id="a_node4"><a xlink:href="https://github.com/ucoProject/UCO-Profile-BFO" xlink:title="UCO BFO profile\nupdates">
<path fill="#8ec7d2" stroke="#0d6986" d="M594.5,-288C594.5,-288 503.5,-288 503.5,-288 497.5,-288 491.5,-282 491.5,-276 491.5,-276 491.5,-262 491.5,-262 491.5,-256 497.5,-250 503.5,-250 503.5,-250 594.5,-250 594.5,-250 600.5,-250 606.5,-256 606.5,-262 606.5,-262 606.5,-276 606.5,-276 606.5,-282 600.5,-288 594.5,-288"/>
<text text-anchor="middle" x="549" y="-272.8" font-family="Times,serif" font-size="14.00">UCO BFO profile</text>
<text text-anchor="middle" x="549" y="-257.8" font-family="Times,serif" font-size="14.00">updates</text>
</a>
</g>
</g>
<!-- _GH__UCOPROJECT__UCO_PROFILE_EXAMPLE&#45;&gt;_GH__UCOPROJECT__UCO_PROFILE_BFO -->
<g id="edge29" class="edge">
<title>_GH__UCOPROJECT__UCO_PROFILE_EXAMPLE&#45;&gt;_GH__UCOPROJECT__UCO_PROFILE_BFO</title>
<path fill="none" stroke="black" d="M374.23,-238.83C380.22,-240.32 386.21,-241.73 392,-243 420.77,-249.3 452.82,-254.88 480.35,-259.24"/>
<polygon fill="black" stroke="black" points="479.63,-262.83 490.05,-260.92 480.71,-255.92 479.63,-262.83"/>
<text text-anchor="middle" x="427.5" y="-273.8" font-family="Times,serif" font-size="14.00">Git merge of</text>
<text text-anchor="middle" x="427.5" y="-258.8" font-family="Times,serif" font-size="14.00">base branch</text>
</g>
<!-- _GH__UCOPROJECT__UCO_PROFILE_FOAF -->
<g id="node6" class="node">
<title>_GH__UCOPROJECT__UCO_PROFILE_FOAF</title>
<g id="a_node6"><a xlink:href="https://github.com/ucoProject/UCO-Profile-FOAF" xlink:title="UCO FOAF profile\nupdates">
<path fill="#8ec7d2" stroke="#0d6986" d="M598.5,-232C598.5,-232 499.5,-232 499.5,-232 493.5,-232 487.5,-226 487.5,-220 487.5,-220 487.5,-206 487.5,-206 487.5,-200 493.5,-194 499.5,-194 499.5,-194 598.5,-194 598.5,-194 604.5,-194 610.5,-200 610.5,-206 610.5,-206 610.5,-220 610.5,-220 610.5,-226 604.5,-232 598.5,-232"/>
<text text-anchor="middle" x="549" y="-216.8" font-family="Times,serif" font-size="14.00">UCO FOAF profile</text>
<text text-anchor="middle" x="549" y="-201.8" font-family="Times,serif" font-size="14.00">updates</text>
</a>
</g>
</g>
<!-- _GH__UCOPROJECT__UCO_PROFILE_EXAMPLE&#45;&gt;_GH__UCOPROJECT__UCO_PROFILE_FOAF -->
<g id="edge30" class="edge">
<title>_GH__UCOPROJECT__UCO_PROFILE_EXAMPLE&#45;&gt;_GH__UCOPROJECT__UCO_PROFILE_FOAF</title>
<path fill="none" stroke="black" d="M374.35,-213.95C380.31,-213.56 386.26,-213.24 392,-213 419.59,-211.86 449.95,-211.63 476.49,-211.76"/>
<polygon fill="black" stroke="black" points="476.2,-215.27 486.23,-211.84 476.25,-208.27 476.2,-215.27"/>
<text text-anchor="middle" x="427.5" y="-231.8" font-family="Times,serif" font-size="14.00">Git merge of</text>
<text text-anchor="middle" x="427.5" y="-216.8" font-family="Times,serif" font-size="14.00">base branch</text>
</g>
<!-- _GH__CASEWORK__CASE&#45;&gt;_GH__CASEWORK__ONTOLOGY_CASEONTOLOGY_ORG -->
<g id="edge4" class="edge">
<title>_GH__CASEWORK__CASE&#45;&gt;_GH__CASEWORK__ONTOLOGY_CASEONTOLOGY_ORG</title>
<path fill="none" stroke="black" d="M359.7,-521.67C364.62,-519.62 369.46,-517.39 374,-515 417.55,-492.02 431.94,-487.21 463,-449 475.04,-434.19 468.69,-424.59 481,-410 487.41,-402.4 495.38,-395.49 503.55,-389.48"/>
<polygon fill="black" stroke="black" points="505.21,-391.89 511.43,-383.31 501.22,-386.14 505.21,-391.89"/>
<text text-anchor="middle" x="427.5" y="-523.8" font-family="Times,serif" font-size="14.00">Git sub&#45;</text>
<text text-anchor="middle" x="427.5" y="-508.8" font-family="Times,serif" font-size="14.00">module</text>
</g>
<!-- _GH__CIPHERTECHSOLUTIONS__CASE_BINDINGS_CSHARP -->
<g id="node17" class="node">
<title>_GH__CIPHERTECHSOLUTIONS__CASE_BINDINGS_CSHARP</title>
<g id="a_node17"><a xlink:href="https://github.com/ciphertechsolutions/CASE-Bindings-CSharp" xlink:title="CASE&#45;Bindings&#45;CSharp\nadopts new ontology version">
<path fill="#8ec7d2" stroke="#0d6986" d="M1728.5,-645C1728.5,-645 1579.5,-645 1579.5,-645 1573.5,-645 1567.5,-639 1567.5,-633 1567.5,-633 1567.5,-619 1567.5,-619 1567.5,-613 1573.5,-607 1579.5,-607 1579.5,-607 1728.5,-607 1728.5,-607 1734.5,-607 1740.5,-613 1740.5,-619 1740.5,-619 1740.5,-633 1740.5,-633 1740.5,-639 1734.5,-645 1728.5,-645"/>
<text text-anchor="middle" x="1654" y="-629.8" font-family="Times,serif" font-size="14.00">CASE&#45;Bindings&#45;CSharp</text>
<text text-anchor="middle" x="1654" y="-614.8" font-family="Times,serif" font-size="14.00">adopts new ontology version</text>
</a>
</g>
</g>
<!-- _GH__CASEWORK__CASE&#45;&gt;_GH__CIPHERTECHSOLUTIONS__CASE_BINDINGS_CSHARP -->
<g id="edge3" class="edge">
<title>_GH__CASEWORK__CASE&#45;&gt;_GH__CIPHERTECHSOLUTIONS__CASE_BINDINGS_CSHARP</title>
<path fill="none" stroke="black" d="M315,-557.3C334.31,-604.04 390.66,-723.1 481,-773 507.14,-787.44 518.14,-778 548,-778 548,-778 548,-778 1233.5,-778 1337.3,-778 1372.04,-814.93 1467,-773 1501.8,-757.64 1496.91,-735.51 1526,-711 1552.57,-688.62 1585.18,-666.9 1610.7,-651.02"/>
<polygon fill="black" stroke="black" points="1612.08,-653.67 1618.76,-645.44 1608.41,-647.7 1612.08,-653.67"/>
</g>
<!-- _GH__CASEWORK__CASE_UTILITIES_PYTHON -->
<g id="node21" class="node">
<title>_GH__CASEWORK__CASE_UTILITIES_PYTHON</title>
<g id="a_node21"><a xlink:href="https://github.com/casework/CASE-Utilities-Python" xlink:title="case&#45;utils\nreleases">
<path fill="#8ec7d2" stroke="#0d6986" d="M571,-662C571,-662 527,-662 527,-662 521,-662 515,-656 515,-650 515,-650 515,-636 515,-636 515,-630 521,-624 527,-624 527,-624 571,-624 571,-624 577,-624 583,-630 583,-636 583,-636 583,-650 583,-650 583,-656 577,-662 571,-662"/>
<text text-anchor="middle" x="549" y="-646.8" font-family="Times,serif" font-size="14.00">case&#45;utils</text>
<text text-anchor="middle" x="549" y="-631.8" font-family="Times,serif" font-size="14.00">releases</text>
</a>
</g>
</g>
<!-- _GH__CASEWORK__CASE&#45;&gt;_GH__CASEWORK__CASE_UTILITIES_PYTHON -->
<g id="edge2" class="edge">
<title>_GH__CASEWORK__CASE&#45;&gt;_GH__CASEWORK__CASE_UTILITIES_PYTHON</title>
<path fill="none" stroke="black" d="M345.55,-557.48C380.34,-574.93 433.47,-600.68 481,-620 488.53,-623.06 496.63,-626.07 504.51,-628.86"/>
<polygon fill="black" stroke="black" points="503.08,-632.41 513.67,-632.37 505.37,-625.8 503.08,-632.41"/>
<text text-anchor="middle" x="427.5" y="-629.8" font-family="Times,serif" font-size="14.00">Git sub&#45;</text>
<text text-anchor="middle" x="427.5" y="-614.8" font-family="Times,serif" font-size="14.00">module</text>
</g>
<!-- _GH__CASEWORK__CASE_IMPLEMENTATON_GNU_TIME -->
<g id="node9" class="node">
<title>_GH__CASEWORK__CASE_IMPLEMENTATON_GNU_TIME</title>
<g id="a_node9"><a xlink:href="https://github.com/casework/CASE-Implementation-GNU-Time" xlink:title="CASE&#45;Implementation&#45;GNU&#45;Time\nadopts new case&#45;utils">
<path fill="#8ec7d2" stroke="#0d6986" d="M1747,-838C1747,-838 1561,-838 1561,-838 1555,-838 1549,-832 1549,-826 1549,-826 1549,-812 1549,-812 1549,-806 1555,-800 1561,-800 1561,-800 1747,-800 1747,-800 1753,-800 1759,-806 1759,-812 1759,-812 1759,-826 1759,-826 1759,-832 1753,-838 1747,-838"/>
<text text-anchor="middle" x="1654" y="-822.8" font-family="Times,serif" font-size="14.00">CASE&#45;Implementation&#45;GNU&#45;Time</text>
<text text-anchor="middle" x="1654" y="-807.8" font-family="Times,serif" font-size="14.00">adopts new case&#45;utils</text>
</a>
</g>
</g>
<!-- _GH__CASEWORK__CASE_CORPORA -->
<g id="node10" class="node">
<title>_GH__CASEWORK__CASE_CORPORA</title>
<g id="a_node10"><a xlink:href="https://github.com/casework/CASE-Corpora" xlink:title="CASE&#45;Corpora\nadopts new case&#45;prov">
<path fill="#8ec7d2" stroke="#0d6986" d="M1709,-761C1709,-761 1599,-761 1599,-761 1593,-761 1587,-755 1587,-749 1587,-749 1587,-735 1587,-735 1587,-729 1593,-723 1599,-723 1599,-723 1709,-723 1709,-723 1715,-723 1721,-729 1721,-735 1721,-735 1721,-749 1721,-749 1721,-755 1715,-761 1709,-761"/>
<text text-anchor="middle" x="1654" y="-745.8" font-family="Times,serif" font-size="14.00">CASE&#45;Corpora</text>
<text text-anchor="middle" x="1654" y="-730.8" font-family="Times,serif" font-size="14.00">adopts new case&#45;prov</text>
</a>
</g>
</g>
<!-- _GH__CASEWORK__CASE_IMPLEMENTATON_PYPI_EXIFREAD -->
<g id="node11" class="node">
<title>_GH__CASEWORK__CASE_IMPLEMENTATON_PYPI_EXIFREAD</title>
<g id="a_node11"><a xlink:href="https://github.com/casework/CASE-Implementation-PyPI-Exifread" xlink:title="CASE&#45;Implementation&#45;PyPI&#45;Exifread\nadopts new case&#45;validation&#45;action">
<path fill="#8ec7d2" stroke="#0d6986" d="M1754,-589C1754,-589 1554,-589 1554,-589 1548,-589 1542,-583 1542,-577 1542,-577 1542,-563 1542,-563 1542,-557 1548,-551 1554,-551 1554,-551 1754,-551 1754,-551 1760,-551 1766,-557 1766,-563 1766,-563 1766,-577 1766,-577 1766,-583 1760,-589 1754,-589"/>
<text text-anchor="middle" x="1654" y="-573.8" font-family="Times,serif" font-size="14.00">CASE&#45;Implementation&#45;PyPI&#45;Exifread</text>
<text text-anchor="middle" x="1654" y="-558.8" font-family="Times,serif" font-size="14.00">adopts new case&#45;validation&#45;action</text>
</a>
</g>
</g>
<!-- _GH__CASEWORK__CASE_IMPLEMENTATON_PYPI_PILLOW -->
<g id="node12" class="node">
<title>_GH__CASEWORK__CASE_IMPLEMENTATON_PYPI_PILLOW</title>
<g id="a_node12"><a xlink:href="https://github.com/casework/CASE-Implementation-PyPI-Pillow" xlink:title="CASE&#45;Implementation&#45;PyPI&#45;Pillow\nadopts new case&#45;validation&#45;action">
<path fill="#8ec7d2" stroke="#0d6986" d="M1748.5,-365C1748.5,-365 1559.5,-365 1559.5,-365 1553.5,-365 1547.5,-359 1547.5,-353 1547.5,-353 1547.5,-339 1547.5,-339 1547.5,-333 1553.5,-327 1559.5,-327 1559.5,-327 1748.5,-327 1748.5,-327 1754.5,-327 1760.5,-333 1760.5,-339 1760.5,-339 1760.5,-353 1760.5,-353 1760.5,-359 1754.5,-365 1748.5,-365"/>
<text text-anchor="middle" x="1654" y="-349.8" font-family="Times,serif" font-size="14.00">CASE&#45;Implementation&#45;PyPI&#45;Pillow</text>
<text text-anchor="middle" x="1654" y="-334.8" font-family="Times,serif" font-size="14.00">adopts new case&#45;validation&#45;action</text>
</a>
</g>
</g>
<!-- _GH__CASEWORK__CASE_IMPLEMENTATON_UFED_XML -->
<g id="node13" class="node">
<title>_GH__CASEWORK__CASE_IMPLEMENTATON_UFED_XML</title>
<g id="a_node13"><a xlink:href="https://github.com/casework/CASE-Implementation-UFED-XML" xlink:title="CASE&#45;Implementation&#45;UFED&#45;XML\nadopts new case&#45;validation&#45;action">
<path fill="#8ec7d2" stroke="#0d6986" d="M1751,-421C1751,-421 1557,-421 1557,-421 1551,-421 1545,-415 1545,-409 1545,-409 1545,-395 1545,-395 1545,-389 1551,-383 1557,-383 1557,-383 1751,-383 1751,-383 1757,-383 1763,-389 1763,-395 1763,-395 1763,-409 1763,-409 1763,-415 1757,-421 1751,-421"/>
<text text-anchor="middle" x="1654" y="-405.8" font-family="Times,serif" font-size="14.00">CASE&#45;Implementation&#45;UFED&#45;XML</text>
<text text-anchor="middle" x="1654" y="-390.8" font-family="Times,serif" font-size="14.00">adopts new case&#45;validation&#45;action</text>
</a>
</g>
</g>
<!-- _GH__CASEWORK__CASE_IMPLEMENTATON_XRY -->
<g id="node14" class="node">
<title>_GH__CASEWORK__CASE_IMPLEMENTATON_XRY</title>
<g id="a_node14"><a xlink:href="https://github.com/casework/CASE-Implementation-XRY" xlink:title="CASE&#45;Implementation&#45;XRY adopts\nnew case&#45;validation&#45;action">
<path fill="#8ec7d2" stroke="#0d6986" d="M1749,-477C1749,-477 1559,-477 1559,-477 1553,-477 1547,-471 1547,-465 1547,-465 1547,-451 1547,-451 1547,-445 1553,-439 1559,-439 1559,-439 1749,-439 1749,-439 1755,-439 1761,-445 1761,-451 1761,-451 1761,-465 1761,-465 1761,-471 1755,-477 1749,-477"/>
<text text-anchor="middle" x="1654" y="-461.8" font-family="Times,serif" font-size="14.00">CASE&#45;Implementation&#45;XRY adopts</text>
<text text-anchor="middle" x="1654" y="-446.8" font-family="Times,serif" font-size="14.00">new case&#45;validation&#45;action</text>
</a>
</g>
</g>
<!-- _GH__CASEWORK__CASE_MAPPING_TEMPLATE_PYTHON -->
<g id="node15" class="node">
<title>_GH__CASEWORK__CASE_MAPPING_TEMPLATE_PYTHON</title>
<g id="a_node15"><a xlink:href="https://github.com/casework/CASE-Mapping-Template-Python" xlink:title="CASE&#45;Mapping&#45;Template&#45;Python\nadopts new case&#45;validation&#45;action">
<path fill="#8ec7d2" stroke="#0d6986" d="M1744,-533C1744,-533 1564,-533 1564,-533 1558,-533 1552,-527 1552,-521 1552,-521 1552,-507 1552,-507 1552,-501 1558,-495 1564,-495 1564,-495 1744,-495 1744,-495 1750,-495 1756,-501 1756,-507 1756,-507 1756,-521 1756,-521 1756,-527 1750,-533 1744,-533"/>
<text text-anchor="middle" x="1654" y="-517.8" font-family="Times,serif" font-size="14.00">CASE&#45;Mapping&#45;Template&#45;Python</text>
<text text-anchor="middle" x="1654" y="-502.8" font-family="Times,serif" font-size="14.00">adopts new case&#45;validation&#45;action</text>
</a>
</g>
</g>
<!-- _GH__CASEWORK__CASE_BINDINGS_CSHARP_MONITOR -->
<g id="node16" class="node">
<title>_GH__CASEWORK__CASE_BINDINGS_CSHARP_MONITOR</title>
<g id="a_node16"><a xlink:href="https://github.com/casework/CASE-Bindings-CSharp-Monitor" xlink:title="CASE Bindings CSharp Monitor\ntests NuGet package with validation action">
<path fill="#8ec7d2" stroke="#0d6986" d="M2078,-645C2078,-645 1851,-645 1851,-645 1845,-645 1839,-639 1839,-633 1839,-633 1839,-619 1839,-619 1839,-613 1845,-607 1851,-607 1851,-607 2078,-607 2078,-607 2084,-607 2090,-613 2090,-619 2090,-619 2090,-633 2090,-633 2090,-639 2084,-645 2078,-645"/>
<text text-anchor="middle" x="1964.5" y="-629.8" font-family="Times,serif" font-size="14.00">CASE Bindings CSharp Monitor</text>
<text text-anchor="middle" x="1964.5" y="-614.8" font-family="Times,serif" font-size="14.00">tests NuGet package with validation action</text>
</a>
</g>
</g>
<!-- _GH__CIPHERTECHSOLUTIONS__CASE_BINDINGS_CSHARP&#45;&gt;_GH__CASEWORK__CASE_BINDINGS_CSHARP_MONITOR -->
<g id="edge16" class="edge">
<title>_GH__CIPHERTECHSOLUTIONS__CASE_BINDINGS_CSHARP&#45;&gt;_GH__CASEWORK__CASE_BINDINGS_CSHARP_MONITOR</title>
<path fill="none" stroke="black" d="M1740.93,-626C1767.85,-626 1798.24,-626 1827.72,-626"/>
<polygon fill="black" stroke="black" points="1827.53,-629.5 1837.53,-626 1827.53,-622.5 1827.53,-629.5"/>
<text text-anchor="middle" x="1802.5" y="-629.8" font-family="Times,serif" font-size="14.00">NuGet</text>
</g>
<!-- _GH__AJNELSON_NIST__CASE_EXAMPLES_QC -->
<g id="node18" class="node">
<title>_GH__AJNELSON_NIST__CASE_EXAMPLES_QC</title>
<g id="a_node18"><a xlink:href="https://github.com/ajnelson-nist/CASE-Examples-QC" xlink:title="CASE&#45;Examples&#45;QC\nadopts CASE&#45;Examples and\nCASE website updates">
<path fill="#8ec7d2" stroke="#0d6986" d="M1165.5,-665.5C1165.5,-665.5 1017.5,-665.5 1017.5,-665.5 1011.5,-665.5 1005.5,-659.5 1005.5,-653.5 1005.5,-653.5 1005.5,-624.5 1005.5,-624.5 1005.5,-618.5 1011.5,-612.5 1017.5,-612.5 1017.5,-612.5 1165.5,-612.5 1165.5,-612.5 1171.5,-612.5 1177.5,-618.5 1177.5,-624.5 1177.5,-624.5 1177.5,-653.5 1177.5,-653.5 1177.5,-659.5 1171.5,-665.5 1165.5,-665.5"/>
<text text-anchor="middle" x="1091.5" y="-650.3" font-family="Times,serif" font-size="14.00">CASE&#45;Examples&#45;QC</text>
<text text-anchor="middle" x="1091.5" y="-635.3" font-family="Times,serif" font-size="14.00">adopts CASE&#45;Examples and</text>
<text text-anchor="middle" x="1091.5" y="-620.3" font-family="Times,serif" font-size="14.00">CASE website updates</text>
</a>
</g>
</g>
<!-- _GH__CASEWORK__CASE_IMPLEMENTATON_PROV_O -->
<g id="node23" class="node">
<title>_GH__CASEWORK__CASE_IMPLEMENTATON_PROV_O</title>
<g id="a_node23"><a xlink:href="https://github.com/casework/CASE-Implementation-PROV-O" xlink:title="case&#45;prov\nreleases">
<path fill="#8ec7d2" stroke="#0d6986" d="M1396,-704C1396,-704 1351,-704 1351,-704 1345,-704 1339,-698 1339,-692 1339,-692 1339,-678 1339,-678 1339,-672 1345,-666 1351,-666 1351,-666 1396,-666 1396,-666 1402,-666 1408,-672 1408,-678 1408,-678 1408,-692 1408,-692 1408,-698 1402,-704 1396,-704"/>
<text text-anchor="middle" x="1373.5" y="-688.8" font-family="Times,serif" font-size="14.00">case&#45;prov</text>
<text text-anchor="middle" x="1373.5" y="-673.8" font-family="Times,serif" font-size="14.00">releases</text>
</a>
</g>
</g>
<!-- _GH__AJNELSON_NIST__CASE_EXAMPLES_QC&#45;&gt;_GH__CASEWORK__CASE_IMPLEMENTATON_PROV_O -->
<g id="edge1" class="edge">
<title>_GH__AJNELSON_NIST__CASE_EXAMPLES_QC&#45;&gt;_GH__CASEWORK__CASE_IMPLEMENTATON_PROV_O</title>
<path fill="none" stroke="black" d="M1177.65,-652.99C1227.21,-661.13 1287.67,-671.06 1327.97,-677.68"/>
<polygon fill="black" stroke="black" points="1327.34,-681.29 1337.77,-679.46 1328.47,-674.38 1327.34,-681.29"/>
<text text-anchor="middle" x="1232.5" y="-682.8" font-family="Times,serif" font-size="14.00">Git sub&#45;</text>
<text text-anchor="middle" x="1232.5" y="-667.8" font-family="Times,serif" font-size="14.00">module</text>
</g>
<!-- _GH__CASEWORK__CASE_EXAMPLES -->
<g id="node19" class="node">
<title>_GH__CASEWORK__CASE_EXAMPLES</title>
<g id="a_node19"><a xlink:href="https://github.com/casework/CASE-Examples" xlink:title="CASE&#45;Examples\nadopts new case&#45;utils">
<path fill="#8ec7d2" stroke="#0d6986" d="M832.5,-662C832.5,-662 723.5,-662 723.5,-662 717.5,-662 711.5,-656 711.5,-650 711.5,-650 711.5,-636 711.5,-636 711.5,-630 717.5,-624 723.5,-624 723.5,-624 832.5,-624 832.5,-624 838.5,-624 844.5,-630 844.5,-636 844.5,-636 844.5,-650 844.5,-650 844.5,-656 838.5,-662 832.5,-662"/>
<text text-anchor="middle" x="778" y="-646.8" font-family="Times,serif" font-size="14.00">CASE&#45;Examples</text>
<text text-anchor="middle" x="778" y="-631.8" font-family="Times,serif" font-size="14.00">adopts new case&#45;utils</text>
</a>
</g>
</g>
<!-- _GH__CASEWORK__CASE_EXAMPLES&#45;&gt;_GH__AJNELSON_NIST__CASE_EXAMPLES_QC -->
<g id="edge5" class="edge">
<title>_GH__CASEWORK__CASE_EXAMPLES&#45;&gt;_GH__AJNELSON_NIST__CASE_EXAMPLES_QC</title>
<path fill="none" stroke="black" d="M844.89,-626.15C860.86,-622.77 877.95,-619.72 894,-618 928.91,-614.25 938.03,-614.9 973,-618 979.92,-618.61 987.05,-619.43 994.2,-620.38"/>
<polygon fill="black" stroke="black" points="993.67,-623.98 1004.06,-621.92 994.65,-617.05 993.67,-623.98"/>
<text text-anchor="middle" x="933.5" y="-636.8" font-family="Times,serif" font-size="14.00">Git sub&#45;</text>
<text text-anchor="middle" x="933.5" y="-621.8" font-family="Times,serif" font-size="14.00">module</text>
</g>
<!-- _GH__CASEWORK__CASE_IMPLEMENTATON_EXIFTOOL -->
<g id="node20" class="node">
<title>_GH__CASEWORK__CASE_IMPLEMENTATON_EXIFTOOL</title>
<g id="a_node20"><a xlink:href="https://github.com/casework/CASE-Implementation-ExifTool" xlink:title="CASE&#45;Implementation&#45;ExifTool\nadopts new case&#45;utils">
<path fill="#8ec7d2" stroke="#0d6986" d="M864,-555C864,-555 692,-555 692,-555 686,-555 680,-549 680,-543 680,-543 680,-529 680,-529 680,-523 686,-517 692,-517 692,-517 864,-517 864,-517 870,-517 876,-523 876,-529 876,-529 876,-543 876,-543 876,-549 870,-555 864,-555"/>
<text text-anchor="middle" x="778" y="-539.8" font-family="Times,serif" font-size="14.00">CASE&#45;Implementation&#45;ExifTool</text>
<text text-anchor="middle" x="778" y="-524.8" font-family="Times,serif" font-size="14.00">adopts new case&#45;utils</text>
</a>
</g>
</g>
<!-- _GH__CASEWORK__CASE_UTILITIES_PYTHON&#45;&gt;_GH__CASEWORK__CASE_IMPLEMENTATON_GNU_TIME -->
<g id="edge10" class="edge">
<title>_GH__CASEWORK__CASE_UTILITIES_PYTHON&#45;&gt;_GH__CASEWORK__CASE_IMPLEMENTATON_GNU_TIME</title>
<path fill="none" stroke="black" d="M566.68,-662.33C582.79,-680.1 608.57,-706.31 635,-724 699.81,-767.37 808.51,-796.6 894,-810 897.92,-810.61 1326.32,-815.41 1537.69,-817.74"/>
<polygon fill="black" stroke="black" points="1537.48,-821.25 1547.52,-817.86 1537.56,-814.25 1537.48,-821.25"/>
<text text-anchor="middle" x="1091.5" y="-816.8" font-family="Times,serif" font-size="14.00">PyPI</text>
</g>
<!-- _GH__CASEWORK__CASE_UTILITIES_PYTHON&#45;&gt;_GH__CASEWORK__CASE_IMPLEMENTATON_PYPI_EXIFREAD -->
<g id="edge12" class="edge">
<title>_GH__CASEWORK__CASE_UTILITIES_PYTHON&#45;&gt;_GH__CASEWORK__CASE_IMPLEMENTATON_PYPI_EXIFREAD</title>
<path fill="none" stroke="black" d="M583.2,-648.63C595.01,-652.02 607.68,-657.42 617,-666 631.64,-679.48 622.44,-691.57 635,-707 650.49,-726.03 656.62,-731.54 680,-739 680,-739 1467,-739 1467,-739 1524.43,-700.46 1472.58,-638.93 1526,-595 1528.13,-593.25 1530.34,-591.61 1532.63,-590.08"/>
<polygon fill="black" stroke="black" points="1533.97,-592.76 1540.79,-584.66 1530.4,-586.74 1533.97,-592.76"/>
<text text-anchor="middle" x="1091.5" y="-742.8" font-family="Times,serif" font-size="14.00">PyPI</text>
</g>
<!-- _GH__CASEWORK__CASE_UTILITIES_PYTHON&#45;&gt;_GH__AJNELSON_NIST__CASE_EXAMPLES_QC -->
<g id="edge7" class="edge">
<title>_GH__CASEWORK__CASE_UTILITIES_PYTHON&#45;&gt;_GH__AJNELSON_NIST__CASE_EXAMPLES_QC</title>
<path fill="none" stroke="black" d="M583.45,-631.64C620.3,-619.17 675.06,-600.8 680,-600 808.66,-579.27 844.64,-588.51 973,-611 980.01,-612.23 987.22,-613.62 994.47,-615.12"/>
<polygon fill="black" stroke="black" points="993.57,-618.72 1004.08,-617.37 995.02,-611.87 993.57,-618.72"/>
<text text-anchor="middle" x="778" y="-603.8" font-family="Times,serif" font-size="14.00">PyPI</text>
</g>
<!-- _GH__CASEWORK__CASE_UTILITIES_PYTHON&#45;&gt;_GH__CASEWORK__CASE_EXAMPLES -->
<g id="edge8" class="edge">
<title>_GH__CASEWORK__CASE_UTILITIES_PYTHON&#45;&gt;_GH__CASEWORK__CASE_EXAMPLES</title>
<path fill="none" stroke="black" d="M583.49,-643C614.22,-643 660.87,-643 700.66,-643"/>
<polygon fill="black" stroke="black" points="700.42,-646.5 710.42,-643 700.42,-639.5 700.42,-646.5"/>
<text text-anchor="middle" x="648.5" y="-646.8" font-family="Times,serif" font-size="14.00">PyPI</text>
</g>
<!-- _GH__CASEWORK__CASE_UTILITIES_PYTHON&#45;&gt;_GH__CASEWORK__CASE_IMPLEMENTATON_EXIFTOOL -->
<g id="edge9" class="edge">
<title>_GH__CASEWORK__CASE_UTILITIES_PYTHON&#45;&gt;_GH__CASEWORK__CASE_IMPLEMENTATON_EXIFTOOL</title>
<path fill="none" stroke="black" d="M583.49,-637.67C595.33,-634.31 607.95,-628.86 617,-620 633.58,-603.77 617.71,-586.48 635,-571 645,-562.05 656.93,-555.3 669.56,-550.23"/>
<polygon fill="black" stroke="black" points="670.6,-553.21 678.81,-546.51 668.22,-546.63 670.6,-553.21"/>
<text text-anchor="middle" x="648.5" y="-574.8" font-family="Times,serif" font-size="14.00">PyPI</text>
</g>
<!-- _GH__CASEWORK__CASEWORK_GITHUB_IO -->
<g id="node22" class="node">
<title>_GH__CASEWORK__CASEWORK_GITHUB_IO</title>
<g id="a_node22"><a xlink:href="https://github.com/casework/casework.github.io" xlink:title="CASE website\nadopts new case&#45;utils">
<path fill="#8ec7d2" stroke="#0d6986" d="M832.5,-718C832.5,-718 723.5,-718 723.5,-718 717.5,-718 711.5,-712 711.5,-706 711.5,-706 711.5,-692 711.5,-692 711.5,-686 717.5,-680 723.5,-680 723.5,-680 832.5,-680 832.5,-680 838.5,-680 844.5,-686 844.5,-692 844.5,-692 844.5,-706 844.5,-706 844.5,-712 838.5,-718 832.5,-718"/>
<text text-anchor="middle" x="778" y="-702.8" font-family="Times,serif" font-size="14.00">CASE website</text>
<text text-anchor="middle" x="778" y="-687.8" font-family="Times,serif" font-size="14.00">adopts new case&#45;utils</text>
</a>
</g>
</g>
<!-- _GH__CASEWORK__CASE_UTILITIES_PYTHON&#45;&gt;_GH__CASEWORK__CASEWORK_GITHUB_IO -->
<g id="edge14" class="edge">
<title>_GH__CASEWORK__CASE_UTILITIES_PYTHON&#45;&gt;_GH__CASEWORK__CASEWORK_GITHUB_IO</title>
<path fill="none" stroke="black" d="M583.49,-651.26C614.29,-658.86 661.07,-670.4 700.92,-680.23"/>
<polygon fill="black" stroke="black" points="699.87,-683.82 710.42,-682.82 701.55,-677.03 699.87,-683.82"/>
<text text-anchor="middle" x="648.5" y="-672.8" font-family="Times,serif" font-size="14.00">PyPI</text>
</g>
<!-- _GH__CASEWORK__CASE_UTILITIES_PYTHON&#45;&gt;_GH__CASEWORK__CASE_IMPLEMENTATON_PROV_O -->
<g id="edge11" class="edge">
<title>_GH__CASEWORK__CASE_UTILITIES_PYTHON&#45;&gt;_GH__CASEWORK__CASE_IMPLEMENTATON_PROV_O</title>
<path fill="none" stroke="black" d="M583.41,-650.5C594.72,-654.03 607.01,-659.05 617,-666 627.37,-673.22 626.19,-678.94 635,-688 653.45,-706.98 655.2,-717.75 680,-727 761.62,-757.45 789.19,-734.18 876,-727 884.08,-726.33 885.95,-724.96 894,-724 1053.73,-704.98 1094.81,-712.63 1255,-698 1279.13,-695.8 1305.99,-692.86 1327.93,-690.34"/>
<polygon fill="black" stroke="black" points="1328.07,-693.73 1337.6,-689.1 1327.26,-686.78 1328.07,-693.73"/>
<text text-anchor="middle" x="933.5" y="-727.8" font-family="Times,serif" font-size="14.00">PyPI</text>
</g>
<!-- _GH__KCHASON__CASE_VALIDATION_ACTION -->
<g id="node25" class="node">
<title>_GH__KCHASON__CASE_VALIDATION_ACTION</title>
<g id="a_node25"><a xlink:href="https://github.com/kchason/case-validation-action" xlink:title="case&#45;validation&#45;action\nreleases">
<path fill="#8ec7d2" stroke="#0d6986" d="M834,-468C834,-468 722,-468 722,-468 716,-468 710,-462 710,-456 710,-456 710,-442 710,-442 710,-436 716,-430 722,-430 722,-430 834,-430 834,-430 840,-430 846,-436 846,-442 846,-442 846,-456 846,-456 846,-462 840,-468 834,-468"/>
<text text-anchor="middle" x="778" y="-452.8" font-family="Times,serif" font-size="14.00">case&#45;validation&#45;action</text>
<text text-anchor="middle" x="778" y="-437.8" font-family="Times,serif" font-size="14.00">releases</text>
</a>
</g>
</g>
<!-- _GH__CASEWORK__CASE_UTILITIES_PYTHON&#45;&gt;_GH__KCHASON__CASE_VALIDATION_ACTION -->
<g id="edge13" class="edge">
<title>_GH__CASEWORK__CASE_UTILITIES_PYTHON&#45;&gt;_GH__KCHASON__CASE_VALIDATION_ACTION</title>
<path fill="none" stroke="black" d="M583.17,-638.63C595.4,-635.4 608.37,-629.77 617,-620 642.84,-590.72 619.18,-569.7 635,-534 648.79,-502.87 651.67,-490.88 680,-472 686,-468 692.61,-464.7 699.49,-461.96"/>
<polygon fill="black" stroke="black" points="700.43,-464.99 708.7,-458.35 698.1,-458.39 700.43,-464.99"/>
<text text-anchor="middle" x="648.5" y="-537.8" font-family="Times,serif" font-size="14.00">PyPI</text>
</g>
<!-- _GH__CASEWORK__CASEWORK_GITHUB_IO&#45;&gt;_GH__AJNELSON_NIST__CASE_EXAMPLES_QC -->
<g id="edge15" class="edge">
<title>_GH__CASEWORK__CASEWORK_GITHUB_IO&#45;&gt;_GH__AJNELSON_NIST__CASE_EXAMPLES_QC</title>
<path fill="none" stroke="black" d="M844.79,-682.05C860.83,-678.18 877.99,-674.25 894,-671 926.56,-664.39 962.38,-658.24 994.41,-653.12"/>
<polygon fill="black" stroke="black" points="994.79,-656.45 1004.12,-651.43 993.7,-649.54 994.79,-656.45"/>
<text text-anchor="middle" x="933.5" y="-689.8" font-family="Times,serif" font-size="14.00">Git sub&#45;</text>
<text text-anchor="middle" x="933.5" y="-674.8" font-family="Times,serif" font-size="14.00">module</text>
</g>
<!-- _GH__CASEWORK__CASE_IMPLEMENTATON_PROV_O&#45;&gt;_GH__CASEWORK__CASE_CORPORA -->
<g id="edge6" class="edge">
<title>_GH__CASEWORK__CASE_IMPLEMENTATON_PROV_O&#45;&gt;_GH__CASEWORK__CASE_CORPORA</title>
<path fill="none" stroke="black" d="M1408.37,-691.93C1449.69,-700.39 1520.8,-714.94 1575.74,-726.19"/>
<polygon fill="black" stroke="black" points="1575,-729.81 1585.5,-728.39 1576.41,-722.96 1575,-729.81"/>
<text text-anchor="middle" x="1504.5" y="-716.8" font-family="Times,serif" font-size="14.00">PyPI</text>
</g>
<!-- _GH__CASEWORK__CASE_EXAMPLES_CONVERSION -->
<g id="node24" class="node">
<title>_GH__CASEWORK__CASE_EXAMPLES_CONVERSION</title>
<g id="a_node24"><a xlink:href="https://github.com/casework/CASE-Examples-Conversion" xlink:title="CASE Conversion Examples">
<path fill="#8ec7d2" stroke="#0d6986" d="M1167,-478C1167,-478 1016,-478 1016,-478 1010,-478 1004,-472 1004,-466 1004,-466 1004,-454 1004,-454 1004,-448 1010,-442 1016,-442 1016,-442 1167,-442 1167,-442 1173,-442 1179,-448 1179,-454 1179,-454 1179,-466 1179,-466 1179,-472 1173,-478 1167,-478"/>
<text text-anchor="middle" x="1091.5" y="-456.3" font-family="Times,serif" font-size="14.00">CASE Conversion Examples</text>
</a>
</g>
</g>
<!-- _GH__KCHASON__CASE_VALIDATION_ACTION&#45;&gt;_GH__CASEWORK__CASE_IMPLEMENTATON_PYPI_EXIFREAD -->
<g id="edge19" class="edge">
<title>_GH__KCHASON__CASE_VALIDATION_ACTION&#45;&gt;_GH__CASEWORK__CASE_IMPLEMENTATON_PYPI_EXIFREAD</title>
<path fill="none" stroke="black" d="M846.22,-434.62C861.83,-431.87 878.44,-429.41 894,-428 928.97,-424.83 937.89,-427.6 973,-428 1021.68,-428.56 1154.46,-402.01 1192,-433 1221.11,-457.03 1181.97,-490.72 1210,-516 1217.47,-522.74 1245.01,-519.83 1255,-521 1347.65,-531.85 1452.34,-544.76 1531.08,-554.61"/>
<polygon fill="black" stroke="black" points="1530.17,-558.15 1540.53,-555.92 1531.04,-551.2 1530.17,-558.15"/>
<text text-anchor="middle" x="1232.5" y="-539.8" font-family="Times,serif" font-size="14.00">GitHub</text>
<text text-anchor="middle" x="1232.5" y="-524.8" font-family="Times,serif" font-size="14.00">Action</text>
</g>
<!-- _GH__KCHASON__CASE_VALIDATION_ACTION&#45;&gt;_GH__CASEWORK__CASE_IMPLEMENTATON_PYPI_PILLOW -->
<g id="edge20" class="edge">
<title>_GH__KCHASON__CASE_VALIDATION_ACTION&#45;&gt;_GH__CASEWORK__CASE_IMPLEMENTATON_PYPI_PILLOW</title>
<path fill="none" stroke="black" d="M798.16,-429.62C819.49,-409.39 856,-378.62 894,-364 1108.6,-281.47 1383.15,-303.05 1536.31,-325.18"/>
<polygon fill="black" stroke="black" points="1535.72,-328.78 1546.13,-326.78 1536.74,-321.86 1535.72,-328.78"/>
<text text-anchor="middle" x="1232.5" y="-324.8" font-family="Times,serif" font-size="14.00">GitHub</text>
<text text-anchor="middle" x="1232.5" y="-309.8" font-family="Times,serif" font-size="14.00">Action</text>
</g>
<!-- _GH__KCHASON__CASE_VALIDATION_ACTION&#45;&gt;_GH__CASEWORK__CASE_IMPLEMENTATON_UFED_XML -->
<g id="edge21" class="edge">
<title>_GH__KCHASON__CASE_VALIDATION_ACTION&#45;&gt;_GH__CASEWORK__CASE_IMPLEMENTATON_UFED_XML</title>
<path fill="none" stroke="black" d="M802.42,-429.68C824.55,-412.62 859.41,-388.69 894,-377 935.02,-363.14 947.75,-370 991,-368 1181,-359.2 1401.59,-375.94 1534.09,-388.9"/>
<polygon fill="black" stroke="black" points="1533.36,-392.45 1543.65,-389.95 1534.05,-385.48 1533.36,-392.45"/>
<text text-anchor="middle" x="1232.5" y="-386.8" font-family="Times,serif" font-size="14.00">GitHub</text>
<text text-anchor="middle" x="1232.5" y="-371.8" font-family="Times,serif" font-size="14.00">Action</text>
</g>
<!-- _GH__KCHASON__CASE_VALIDATION_ACTION&#45;&gt;_GH__CASEWORK__CASE_IMPLEMENTATON_XRY -->
<g id="edge22" class="edge">
<title>_GH__KCHASON__CASE_VALIDATION_ACTION&#45;&gt;_GH__CASEWORK__CASE_IMPLEMENTATON_XRY</title>
<path fill="none" stroke="black" d="M812.46,-429.68C834.75,-417.96 865.16,-404.11 894,-398 1023.57,-370.56 1067.47,-352.91 1192,-398 1201.79,-401.55 1200.4,-408.96 1210,-413 1314.2,-456.81 1443.88,-465.25 1535.94,-464.44"/>
<polygon fill="black" stroke="black" points="1535.74,-467.93 1545.7,-464.3 1535.65,-460.93 1535.74,-467.93"/>
<text text-anchor="middle" x="1232.5" y="-446.8" font-family="Times,serif" font-size="14.00">GitHub</text>
<text text-anchor="middle" x="1232.5" y="-431.8" font-family="Times,serif" font-size="14.00">Action</text>
</g>
<!-- _GH__KCHASON__CASE_VALIDATION_ACTION&#45;&gt;_GH__CASEWORK__CASE_MAPPING_TEMPLATE_PYTHON -->
<g id="edge23" class="edge">
<title>_GH__KCHASON__CASE_VALIDATION_ACTION&#45;&gt;_GH__CASEWORK__CASE_MAPPING_TEMPLATE_PYTHON</title>
<path fill="none" stroke="black" d="M839.27,-429.56C856.73,-424.8 875.96,-420.39 894,-418 959.65,-409.31 1137.02,-381.09 1192,-418 1209.54,-429.78 1193.18,-449.22 1210,-462 1260.36,-500.26 1426.83,-510.87 1540.73,-513.53"/>
<polygon fill="black" stroke="black" points="1540.51,-517.05 1550.58,-513.76 1540.66,-510.05 1540.51,-517.05"/>
<text text-anchor="middle" x="1232.5" y="-500.8" font-family="Times,serif" font-size="14.00">GitHub</text>
<text text-anchor="middle" x="1232.5" y="-485.8" font-family="Times,serif" font-size="14.00">Action</text>
</g>
<!-- _GH__KCHASON__CASE_VALIDATION_ACTION&#45;&gt;_GH__CASEWORK__CASE_BINDINGS_CSHARP_MONITOR -->
<g id="edge17" class="edge">
<title>_GH__KCHASON__CASE_VALIDATION_ACTION&#45;&gt;_GH__CASEWORK__CASE_BINDINGS_CSHARP_MONITOR</title>
<path fill="none" stroke="black" d="M846.36,-453.25C857.73,-456.97 868.32,-462.86 876,-472 919.11,-523.3 859.43,-715.6 894,-773 920.03,-816.23 942.68,-817.48 991,-832 1320.98,-931.16 1452.28,-994.48 1766,-852 1856.29,-810.99 1921.49,-706.06 1949,-654.9"/>
<polygon fill="black" stroke="black" points="1952.43,-656.9 1953.99,-646.43 1946.23,-653.64 1952.43,-656.9"/>
<text text-anchor="middle" x="1373.5" y="-953.8" font-family="Times,serif" font-size="14.00">GitHub</text>
<text text-anchor="middle" x="1373.5" y="-938.8" font-family="Times,serif" font-size="14.00">Action</text>
</g>
<!-- _GH__KCHASON__CASE_VALIDATION_ACTION&#45;&gt;_GH__CASEWORK__CASE_EXAMPLES_CONVERSION -->
<g id="edge18" class="edge">
<title>_GH__KCHASON__CASE_VALIDATION_ACTION&#45;&gt;_GH__CASEWORK__CASE_EXAMPLES_CONVERSION</title>
<path fill="none" stroke="black" d="M846.22,-434.62C861.83,-431.87 878.44,-429.41 894,-428 911.48,-426.42 955.6,-425.67 973,-428 989.92,-430.26 1007.86,-434.28 1024.48,-438.72"/>
<polygon fill="black" stroke="black" points="1023.07,-442.24 1033.65,-441.53 1024.94,-435.49 1023.07,-442.24"/>
<text text-anchor="middle" x="933.5" y="-446.8" font-family="Times,serif" font-size="14.00">GitHub</text>
<text text-anchor="middle" x="933.5" y="-431.8" font-family="Times,serif" font-size="14.00">Action</text>
</g>
<!-- _GH__DOD_CYBER_CRIME_CENTER__SQLITE_DISSECT -->
<g id="node26" class="node">
<title>_GH__DOD_CYBER_CRIME_CENTER__SQLITE_DISSECT</title>
<g id="a_node26"><a xlink:href="https://github.com/dod-cyber-crime-center/sqlite-dissect" xlink:title="sqlite&#45;dissect\nadopts new case&#45;validation&#45;action">
<path fill="#8ec7d2" stroke="#0d6986" d="M1180,-178C1180,-178 1003,-178 1003,-178 997,-178 991,-172 991,-166 991,-166 991,-152 991,-152 991,-146 997,-140 1003,-140 1003,-140 1180,-140 1180,-140 1186,-140 1192,-146 1192,-152 1192,-152 1192,-166 1192,-166 1192,-172 1186,-178 1180,-178"/>
<text text-anchor="middle" x="1091.5" y="-162.8" font-family="Times,serif" font-size="14.00">sqlite&#45;dissect</text>
<text text-anchor="middle" x="1091.5" y="-147.8" font-family="Times,serif" font-size="14.00">adopts new case&#45;validation&#45;action</text>
</a>
</g>
</g>
<!-- _GH__KCHASON__CASE_VALIDATION_ACTION&#45;&gt;_GH__DOD_CYBER_CRIME_CENTER__SQLITE_DISSECT -->
<g id="edge24" class="edge">
<title>_GH__KCHASON__CASE_VALIDATION_ACTION&#45;&gt;_GH__DOD_CYBER_CRIME_CENTER__SQLITE_DISSECT</title>
<g id="a_edge24"><a xlink:href="https://github.com/dod-cyber-crime-center/sqlite-dissect/pull/31" xlink:title="TODO: PR 31">
<path fill="none" stroke="black" d="M792.62,-429.7C812.95,-401.56 853.26,-348.31 894,-309 944.53,-260.24 1010.74,-212.53 1051.95,-184.45"/>
<polygon fill="black" stroke="black" points="1053.53,-186.93 1059.85,-178.42 1049.61,-181.13 1053.53,-186.93"/>
</a>
</g>
<g id="a_edge24&#45;label"><a xlink:href="https://github.com/dod-cyber-crime-center/sqlite-dissect/pull/31" xlink:title="TODO: PR 31">
<text text-anchor="middle" x="933.5" y="-312.8" font-family="Times,serif" font-size="14.00">TODO: PR 31</text>
</a>
</g>
</g>
</g>
</svg>
