<?xml version="1.0" encoding="UTF-8" standalone="no"?>
<!DOCTYPE svg PUBLIC "-//W3C//DTD SVG 1.1//EN"
 "http://www.w3.org/Graphics/SVG/1.1/DTD/svg11.dtd">
<!-- Generated by graphviz version 6.0.2 (20221011.1828)
 -->
<!-- Title: cdo_release_flow Pages: 1 -->
<svg width="1618pt" height="869pt"
 viewBox="0.00 0.00 1618.00 869.00" xmlns="http://www.w3.org/2000/svg" xmlns:xlink="http://www.w3.org/1999/xlink">
<g id="graph0" class="graph" transform="scale(1 1) rotate(0) translate(4 865)">
<title>cdo_release_flow</title>
<polygon fill="white" stroke="none" points="-4,4 -4,-865 1614,-865 1614,4 -4,4"/>
<text text-anchor="middle" x="805" y="-38.8" font-family="Times,serif" font-size="14.00">Release flow of CDO ontologies</text>
<text text-anchor="middle" x="805" y="-7.8" font-family="Times,serif" font-size="14.00">Nodes link to the respective Git repository.</text>
<g id="clust1" class="cluster">
<title>cluster_case_0_3_0</title>
<polygon fill="none" stroke="black" points="673.5,-147 673.5,-224 884.5,-224 884.5,-147 673.5,-147"/>
<text text-anchor="middle" x="779" y="-208.8" font-family="Times,serif" font-size="14.00">Adoption of CASE 0.3.0</text>
</g>
<g id="clust2" class="cluster">
<title>cluster_case_utils_0_3_0</title>
<polygon fill="none" stroke="black" points="666,-62 666,-139 892,-139 892,-62 666,-62"/>
<text text-anchor="middle" x="779" y="-123.8" font-family="Times,serif" font-size="14.00">Adoption of case&#45;utils 0.3.0</text>
</g>
<g id="clust3" class="cluster">
<title>cluster_uco_0_9_1</title>
<polygon fill="none" stroke="black" points="189,-137 189,-224 552,-224 552,-137 189,-137"/>
<text text-anchor="middle" x="370.5" y="-208.8" font-family="Times,serif" font-size="14.00">Adoption of UCO 0.9.1</text>
</g>
<g id="clust4" class="cluster">
<title>cluster_uco_1_1_0</title>
<polygon fill="none" stroke="black" points="8,-232 8,-853 1602,-853 1602,-232 8,-232"/>
<text text-anchor="middle" x="805" y="-837.8" font-family="Times,serif" font-size="14.00">Adoption of UCO 1.1.0</text>
</g>
<g id="clust5" class="cluster">
<title>cluster_case_1_1_0</title>
<polygon fill="none" stroke="black" points="201,-240 201,-822 1594,-822 1594,-240 201,-240"/>
<text text-anchor="middle" x="897.5" y="-806.8" font-family="Times,serif" font-size="14.00">Adoption of CASE 1.1.0</text>
</g>
<g id="clust6" class="cluster">
<title>cluster_case_utils_0_9_0</title>
<polygon fill="none" stroke="black" points="434,-248 434,-791 1586,-791 1586,-248 434,-248"/>
<text text-anchor="middle" x="1010" y="-775.8" font-family="Times,serif" font-size="14.00">Adoption of case&#45;utils 0.9.0</text>
</g>
<g id="clust8" class="cluster">
<title>cluster_case_validation_action_2_3</title>
<polygon fill="none" stroke="black" points="994,-683 994,-760 1228,-760 1228,-683 994,-683"/>
<text text-anchor="middle" x="1111" y="-744.8" font-family="Times,serif" font-size="14.00">Adoption of case&#45;validation&#45;action 2.3</text>
</g>
<g id="clust9" class="cluster">
<title>cluster_case_validation_action_2_5</title>
<polygon fill="none" stroke="black" points="703,-429 703,-675 1231,-675 1231,-429 703,-429"/>
<text text-anchor="middle" x="967" y="-659.8" font-family="Times,serif" font-size="14.00">Adoption of case&#45;validation&#45;action 2.5</text>
</g>
<g id="clust7" class="cluster">
<title>cluster_case_prov_0_6_0</title>
<polygon fill="none" stroke="black" points="1296,-368 1296,-445 1578,-445 1578,-368 1296,-368"/>
<text text-anchor="middle" x="1437" y="-429.8" font-family="Times,serif" font-size="14.00">Adoption of case&#45;prov 0.6.0</text>
</g>
<!-- _GH__CASEWORK__CASE_IMPLEMENTATON_EXIFTOOL -->
<g id="node1" class="node">
<title>_GH__CASEWORK__CASE_IMPLEMENTATON_EXIFTOOL</title>
<g id="a_node1"><a xlink:href="https://github.com/casework/CASE-Implementation-ExifTool" xlink:title="CASE&#45;Implementation&#45;ExifTool\nadopts new case&#45;utils">
<path fill="#8ec7d2" stroke="#0d6986" d="M864.5,-193C864.5,-193 693.5,-193 693.5,-193 687.5,-193 681.5,-187 681.5,-181 681.5,-181 681.5,-167 681.5,-167 681.5,-161 687.5,-155 693.5,-155 693.5,-155 864.5,-155 864.5,-155 870.5,-155 876.5,-161 876.5,-167 876.5,-167 876.5,-181 876.5,-181 876.5,-187 870.5,-193 864.5,-193"/>
<text text-anchor="middle" x="779" y="-177.8" font-family="Times,serif" font-size="14.00">CASE&#45;Implementation&#45;ExifTool</text>
<text text-anchor="middle" x="779" y="-162.8" font-family="Times,serif" font-size="14.00">adopts new case&#45;utils</text>
</a>
</g>
</g>
<!-- _GH__CASEWORK__CASE_IMPLEMENTATON_GNU_TIME -->
<g id="node2" class="node">
<title>_GH__CASEWORK__CASE_IMPLEMENTATON_GNU_TIME</title>
<g id="a_node2"><a xlink:href="https://github.com/casework/CASE-Implementation-GNU-Time" xlink:title="CASE&#45;Implementation&#45;GNU&#45;Time\nadopts new case&#45;utils">
<path fill="#8ec7d2" stroke="#0d6986" d="M872,-108C872,-108 686,-108 686,-108 680,-108 674,-102 674,-96 674,-96 674,-82 674,-82 674,-76 680,-70 686,-70 686,-70 872,-70 872,-70 878,-70 884,-76 884,-82 884,-82 884,-96 884,-96 884,-102 878,-108 872,-108"/>
<text text-anchor="middle" x="779" y="-92.8" font-family="Times,serif" font-size="14.00">CASE&#45;Implementation&#45;GNU&#45;Time</text>
<text text-anchor="middle" x="779" y="-77.8" font-family="Times,serif" font-size="14.00">adopts new case&#45;utils</text>
</a>
</g>
</g>
<!-- _GH__CASEWORK__ONTOLOGY_CASEONTOLOGY_ORG -->
<g id="node3" class="node">
<title>_GH__CASEWORK__ONTOLOGY_CASEONTOLOGY_ORG</title>
<g id="a_node3"><a xlink:href="https://github.com/casework/ontology.caseontology.org" xlink:title="CASE documentation\nregenerated">
<path fill="#8ec7d2" stroke="#0d6986" d="M532,-188C532,-188 420,-188 420,-188 414,-188 408,-182 408,-176 408,-176 408,-162 408,-162 408,-156 414,-150 420,-150 420,-150 532,-150 532,-150 538,-150 544,-156 544,-162 544,-162 544,-176 544,-176 544,-182 538,-188 532,-188"/>
<text text-anchor="middle" x="476" y="-172.8" font-family="Times,serif" font-size="14.00">CASE documentation</text>
<text text-anchor="middle" x="476" y="-157.8" font-family="Times,serif" font-size="14.00">regenerated</text>
</a>
</g>
</g>
<!-- _GH__UCOPROJECT__ONTOLOGY_UNIFIEDCYBERONTOLOGY_ORG -->
<g id="node4" class="node">
<title>_GH__UCOPROJECT__ONTOLOGY_UNIFIEDCYBERONTOLOGY_ORG</title>
<g id="a_node4"><a xlink:href="https://github.com/ucoProject/ontology.unifiedcyberontology.org" xlink:title="UCO documentation\nregenerated">
<path fill="#8ec7d2" stroke="#0d6986" d="M315,-188C315,-188 209,-188 209,-188 203,-188 197,-182 197,-176 197,-176 197,-162 197,-162 197,-156 203,-150 209,-150 209,-150 315,-150 315,-150 321,-150 327,-156 327,-162 327,-162 327,-176 327,-176 327,-182 321,-188 315,-188"/>
<text text-anchor="middle" x="262" y="-172.8" font-family="Times,serif" font-size="14.00">UCO documentation</text>
<text text-anchor="middle" x="262" y="-157.8" font-family="Times,serif" font-size="14.00">regenerated</text>
</a>
</g>
</g>
<!-- _GH__UCOPROJECT__ONTOLOGY_UNIFIEDCYBERONTOLOGY_ORG&#45;&gt;_GH__CASEWORK__ONTOLOGY_CASEONTOLOGY_ORG -->
<g id="edge20" class="edge">
<title>_GH__UCOPROJECT__ONTOLOGY_UNIFIEDCYBERONTOLOGY_ORG&#45;&gt;_GH__CASEWORK__ONTOLOGY_CASEONTOLOGY_ORG</title>
<path fill="none" stroke="black" d="M327,-165.58C333.08,-165.34 339.16,-165.14 345,-165 364.99,-164.51 370.01,-164.53 390,-165 392.52,-165.06 395.08,-165.13 397.67,-165.21"/>
<polygon fill="black" stroke="black" points="397.62,-168.71 407.73,-165.54 397.86,-161.71 397.62,-168.71"/>
<text text-anchor="middle" x="367.5" y="-183.8" font-family="Times,serif" font-size="14.00">Tech&#45;</text>
<text text-anchor="middle" x="367.5" y="-168.8" font-family="Times,serif" font-size="14.00">check</text>
</g>
<!-- _GH__UCOPROJECT__UCO -->
<g id="node5" class="node">
<title>_GH__UCOPROJECT__UCO</title>
<g id="a_node5"><a xlink:href="https://github.com/ucoProject/UCO" xlink:title="UCO Ontology\nreleases">
<path fill="#8ec7d2" stroke="#0d6986" d="M104,-282C104,-282 28,-282 28,-282 22,-282 16,-276 16,-270 16,-270 16,-256 16,-256 16,-250 22,-244 28,-244 28,-244 104,-244 104,-244 110,-244 116,-250 116,-256 116,-256 116,-270 116,-270 116,-276 110,-282 104,-282"/>
<text text-anchor="middle" x="66" y="-266.8" font-family="Times,serif" font-size="14.00">UCO Ontology</text>
<text text-anchor="middle" x="66" y="-251.8" font-family="Times,serif" font-size="14.00">releases</text>
</a>
</g>
</g>
<!-- _GH__UCOPROJECT__UCO&#45;&gt;_GH__UCOPROJECT__ONTOLOGY_UNIFIEDCYBERONTOLOGY_ORG -->
<g id="edge22" class="edge">
<title>_GH__UCOPROJECT__UCO&#45;&gt;_GH__UCOPROJECT__ONTOLOGY_UNIFIEDCYBERONTOLOGY_ORG</title>
<path fill="none" stroke="black" d="M105.59,-243.91C114.88,-239.34 124.79,-234.48 134,-230 159.63,-217.53 188.24,-203.78 211.81,-192.49"/>
<polygon fill="black" stroke="black" points="213.4,-195.61 220.91,-188.13 210.38,-189.29 213.4,-195.61"/>
<text text-anchor="middle" x="156.5" y="-248.8" font-family="Times,serif" font-size="14.00">Git sub&#45;</text>
<text text-anchor="middle" x="156.5" y="-233.8" font-family="Times,serif" font-size="14.00">module</text>
</g>
<!-- _GH__CASEWORK__CASE -->
<g id="node6" class="node">
<title>_GH__CASEWORK__CASE</title>
<g id="a_node6"><a xlink:href="https://github.com/casework/CASE" xlink:title="CASE Ontology\nreleases">
<path fill="#8ec7d2" stroke="#0d6986" d="M303,-286C303,-286 221,-286 221,-286 215,-286 209,-280 209,-274 209,-274 209,-260 209,-260 209,-254 215,-248 221,-248 221,-248 303,-248 303,-248 309,-248 315,-254 315,-260 315,-260 315,-274 315,-274 315,-280 309,-286 303,-286"/>
<text text-anchor="middle" x="262" y="-270.8" font-family="Times,serif" font-size="14.00">CASE Ontology</text>
<text text-anchor="middle" x="262" y="-255.8" font-family="Times,serif" font-size="14.00">releases</text>
</a>
</g>
</g>
<!-- _GH__UCOPROJECT__UCO&#45;&gt;_GH__CASEWORK__CASE -->
<g id="edge21" class="edge">
<title>_GH__UCOPROJECT__UCO&#45;&gt;_GH__CASEWORK__CASE</title>
<path fill="none" stroke="black" d="M116.21,-264.01C141.29,-264.53 172.06,-265.17 198.77,-265.72"/>
<polygon fill="black" stroke="black" points="198.72,-269.22 208.79,-265.92 198.86,-262.22 198.72,-269.22"/>
<text text-anchor="middle" x="156.5" y="-283.8" font-family="Times,serif" font-size="14.00">Git sub&#45;</text>
<text text-anchor="middle" x="156.5" y="-268.8" font-family="Times,serif" font-size="14.00">module</text>
</g>
<!-- _GH__CASEWORK__CASE&#45;&gt;_GH__CASEWORK__ONTOLOGY_CASEONTOLOGY_ORG -->
<g id="edge3" class="edge">
<title>_GH__CASEWORK__CASE&#45;&gt;_GH__CASEWORK__ONTOLOGY_CASEONTOLOGY_ORG</title>
<path fill="none" stroke="black" d="M304.13,-247.99C338.39,-232.15 387.35,-209.52 424.09,-192.53"/>
<polygon fill="black" stroke="black" points="426.02,-195.5 433.63,-188.13 423.08,-189.14 426.02,-195.5"/>
<text text-anchor="middle" x="367.5" y="-244.8" font-family="Times,serif" font-size="14.00">Git sub&#45;</text>
<text text-anchor="middle" x="367.5" y="-229.8" font-family="Times,serif" font-size="14.00">module</text>
</g>
<!-- _GH__CASEWORK__CASE_UTILITIES_PYTHON -->
<g id="node9" class="node">
<title>_GH__CASEWORK__CASE_UTILITIES_PYTHON</title>
<g id="a_node9"><a xlink:href="https://github.com/casework/CASE-Utilities-Python" xlink:title="case&#45;utils\nreleases">
<path fill="#8ec7d2" stroke="#0d6986" d="M498,-322C498,-322 454,-322 454,-322 448,-322 442,-316 442,-310 442,-310 442,-296 442,-296 442,-290 448,-284 454,-284 454,-284 498,-284 498,-284 504,-284 510,-290 510,-296 510,-296 510,-310 510,-310 510,-316 504,-322 498,-322"/>
<text text-anchor="middle" x="476" y="-306.8" font-family="Times,serif" font-size="14.00">case&#45;utils</text>
<text text-anchor="middle" x="476" y="-291.8" font-family="Times,serif" font-size="14.00">releases</text>
</a>
</g>
</g>
<!-- _GH__CASEWORK__CASE&#45;&gt;_GH__CASEWORK__CASE_UTILITIES_PYTHON -->
<g id="edge2" class="edge">
<title>_GH__CASEWORK__CASE&#45;&gt;_GH__CASEWORK__CASE_UTILITIES_PYTHON</title>
<path fill="none" stroke="black" d="M315.13,-275.85C351.02,-281.95 398.13,-289.95 431.89,-295.68"/>
<polygon fill="black" stroke="black" points="431.47,-299.16 441.92,-297.38 432.65,-292.26 431.47,-299.16"/>
<text text-anchor="middle" x="367.5" y="-306.8" font-family="Times,serif" font-size="14.00">Git sub&#45;</text>
<text text-anchor="middle" x="367.5" y="-291.8" font-family="Times,serif" font-size="14.00">module</text>
</g>
<!-- _GH__AJNELSON_NIST__CASE_EXAMPLES_QC -->
<g id="node7" class="node">
<title>_GH__AJNELSON_NIST__CASE_EXAMPLES_QC</title>
<g id="a_node7"><a xlink:href="https://github.com/ajnelson-nist/CASE-Examples-QC" xlink:title="CASE&#45;Examples&#45;QC\nadopts CASE&#45;Examples and\nCASE website updates">
<path fill="#8ec7d2" stroke="#0d6986" d="M1185,-373.5C1185,-373.5 1037,-373.5 1037,-373.5 1031,-373.5 1025,-367.5 1025,-361.5 1025,-361.5 1025,-332.5 1025,-332.5 1025,-326.5 1031,-320.5 1037,-320.5 1037,-320.5 1185,-320.5 1185,-320.5 1191,-320.5 1197,-326.5 1197,-332.5 1197,-332.5 1197,-361.5 1197,-361.5 1197,-367.5 1191,-373.5 1185,-373.5"/>
<text text-anchor="middle" x="1111" y="-358.3" font-family="Times,serif" font-size="14.00">CASE&#45;Examples&#45;QC</text>
<text text-anchor="middle" x="1111" y="-343.3" font-family="Times,serif" font-size="14.00">adopts CASE&#45;Examples and</text>
<text text-anchor="middle" x="1111" y="-328.3" font-family="Times,serif" font-size="14.00">CASE website updates</text>
</a>
</g>
</g>
<!-- _GH__CASEWORK__CASE_IMPLEMENTATON_PROV_O -->
<g id="node12" class="node">
<title>_GH__CASEWORK__CASE_IMPLEMENTATON_PROV_O</title>
<g id="a_node12"><a xlink:href="https://github.com/casework/CASE-Implementation-PROV-O" xlink:title="case&#45;prov\nreleases">
<path fill="#8ec7d2" stroke="#0d6986" d="M1361,-414C1361,-414 1316,-414 1316,-414 1310,-414 1304,-408 1304,-402 1304,-402 1304,-388 1304,-388 1304,-382 1310,-376 1316,-376 1316,-376 1361,-376 1361,-376 1367,-376 1373,-382 1373,-388 1373,-388 1373,-402 1373,-402 1373,-408 1367,-414 1361,-414"/>
<text text-anchor="middle" x="1338.5" y="-398.8" font-family="Times,serif" font-size="14.00">case&#45;prov</text>
<text text-anchor="middle" x="1338.5" y="-383.8" font-family="Times,serif" font-size="14.00">releases</text>
</a>
</g>
</g>
<!-- _GH__AJNELSON_NIST__CASE_EXAMPLES_QC&#45;&gt;_GH__CASEWORK__CASE_IMPLEMENTATON_PROV_O -->
<g id="edge1" class="edge">
<title>_GH__AJNELSON_NIST__CASE_EXAMPLES_QC&#45;&gt;_GH__CASEWORK__CASE_IMPLEMENTATON_PROV_O</title>
<path fill="none" stroke="black" d="M1197.15,-353.6C1225.77,-357.17 1257.63,-362.64 1286,-371 1288.79,-371.82 1291.63,-372.78 1294.46,-373.82"/>
<polygon fill="black" stroke="black" points="1293.4,-377.17 1303.99,-377.64 1296.01,-370.67 1293.4,-377.17"/>
<text text-anchor="middle" x="1263.5" y="-389.8" font-family="Times,serif" font-size="14.00">Git sub&#45;</text>
<text text-anchor="middle" x="1263.5" y="-374.8" font-family="Times,serif" font-size="14.00">module</text>
</g>
<!-- _GH__CASEWORK__CASE_EXAMPLES -->
<g id="node8" class="node">
<title>_GH__CASEWORK__CASE_EXAMPLES</title>
<g id="a_node8"><a xlink:href="https://github.com/casework/CASE-Examples" xlink:title="CASE&#45;Examples\nadopts new case&#45;utils">
<path fill="#8ec7d2" stroke="#0d6986" d="M833.5,-350C833.5,-350 724.5,-350 724.5,-350 718.5,-350 712.5,-344 712.5,-338 712.5,-338 712.5,-324 712.5,-324 712.5,-318 718.5,-312 724.5,-312 724.5,-312 833.5,-312 833.5,-312 839.5,-312 845.5,-318 845.5,-324 845.5,-324 845.5,-338 845.5,-338 845.5,-344 839.5,-350 833.5,-350"/>
<text text-anchor="middle" x="779" y="-334.8" font-family="Times,serif" font-size="14.00">CASE&#45;Examples</text>
<text text-anchor="middle" x="779" y="-319.8" font-family="Times,serif" font-size="14.00">adopts new case&#45;utils</text>
</a>
</g>
</g>
<!-- _GH__CASEWORK__CASE_EXAMPLES&#45;&gt;_GH__AJNELSON_NIST__CASE_EXAMPLES_QC -->
<g id="edge4" class="edge">
<title>_GH__CASEWORK__CASE_EXAMPLES&#45;&gt;_GH__AJNELSON_NIST__CASE_EXAMPLES_QC</title>
<path fill="none" stroke="black" d="M845.59,-334.18C893.89,-336.52 960.3,-339.74 1014.48,-342.37"/>
<polygon fill="black" stroke="black" points="1014.64,-345.88 1024.8,-342.87 1014.98,-338.89 1014.64,-345.88"/>
<text text-anchor="middle" x="941.5" y="-358.8" font-family="Times,serif" font-size="14.00">Git sub&#45;</text>
<text text-anchor="middle" x="941.5" y="-343.8" font-family="Times,serif" font-size="14.00">module</text>
</g>
<!-- _GH__CASEWORK__CASE_UTILITIES_PYTHON&#45;&gt;_GH__CASEWORK__CASE_IMPLEMENTATON_EXIFTOOL -->
<g id="edge8" class="edge">
<title>_GH__CASEWORK__CASE_UTILITIES_PYTHON&#45;&gt;_GH__CASEWORK__CASE_IMPLEMENTATON_EXIFTOOL</title>
<path fill="none" stroke="black" d="M510.38,-287.35C526,-280.12 544.89,-271.49 562,-264 615.92,-240.41 677.98,-214.69 721.71,-196.82"/>
<polygon fill="black" stroke="black" points="723.09,-200.03 731.03,-193.01 720.45,-193.55 723.09,-200.03"/>
<text text-anchor="middle" x="609" y="-267.8" font-family="Times,serif" font-size="14.00">TODO: Integrate</text>
</g>
<!-- _GH__CASEWORK__CASE_UTILITIES_PYTHON&#45;&gt;_GH__CASEWORK__CASE_IMPLEMENTATON_GNU_TIME -->
<g id="edge9" class="edge">
<title>_GH__CASEWORK__CASE_UTILITIES_PYTHON&#45;&gt;_GH__CASEWORK__CASE_IMPLEMENTATON_GNU_TIME</title>
<path fill="none" stroke="black" d="M500.08,-283.73C516.09,-269.51 537.13,-249.06 552,-228 557.96,-219.56 555.09,-214.69 562,-207 602.34,-162.09 663.93,-130.81 711.04,-111.8"/>
<polygon fill="black" stroke="black" points="712.54,-114.97 720.56,-108.04 709.97,-108.46 712.54,-114.97"/>
<text text-anchor="middle" x="609" y="-210.8" font-family="Times,serif" font-size="14.00">TODO: Update</text>
</g>
<!-- _GH__CASEWORK__CASE_UTILITIES_PYTHON&#45;&gt;_GH__AJNELSON_NIST__CASE_EXAMPLES_QC -->
<g id="edge6" class="edge">
<title>_GH__CASEWORK__CASE_UTILITIES_PYTHON&#45;&gt;_GH__AJNELSON_NIST__CASE_EXAMPLES_QC</title>
<path fill="none" stroke="black" d="M510.38,-318.48C525.83,-325.19 544.59,-332.71 562,-338 740.84,-392.33 795.09,-393.25 981,-374 992,-372.86 1003.45,-371.19 1014.78,-369.23"/>
<polygon fill="black" stroke="black" points="1015.48,-372.66 1024.69,-367.43 1014.23,-365.77 1015.48,-372.66"/>
<text text-anchor="middle" x="779" y="-388.8" font-family="Times,serif" font-size="14.00">PyPI</text>
</g>
<!-- _GH__CASEWORK__CASE_UTILITIES_PYTHON&#45;&gt;_GH__CASEWORK__CASE_EXAMPLES -->
<g id="edge7" class="edge">
<title>_GH__CASEWORK__CASE_UTILITIES_PYTHON&#45;&gt;_GH__CASEWORK__CASE_EXAMPLES</title>
<path fill="none" stroke="black" d="M510.07,-306.08C556,-310.35 640.42,-318.2 702.27,-323.95"/>
<polygon fill="black" stroke="black" points="702.09,-327.45 712.37,-324.9 702.74,-320.48 702.09,-327.45"/>
<text text-anchor="middle" x="609" y="-322.8" font-family="Times,serif" font-size="14.00">PyPI</text>
</g>
<!-- _GH__CASEWORK__CASEWORK_GITHUB_IO -->
<g id="node10" class="node">
<title>_GH__CASEWORK__CASEWORK_GITHUB_IO</title>
<g id="a_node10"><a xlink:href="https://github.com/casework/casework.github.io" xlink:title="CASE website\nadopts new case&#45;utils">
<path fill="#8ec7d2" stroke="#0d6986" d="M833.5,-294C833.5,-294 724.5,-294 724.5,-294 718.5,-294 712.5,-288 712.5,-282 712.5,-282 712.5,-268 712.5,-268 712.5,-262 718.5,-256 724.5,-256 724.5,-256 833.5,-256 833.5,-256 839.5,-256 845.5,-262 845.5,-268 845.5,-268 845.5,-282 845.5,-282 845.5,-288 839.5,-294 833.5,-294"/>
<text text-anchor="middle" x="779" y="-278.8" font-family="Times,serif" font-size="14.00">CASE website</text>
<text text-anchor="middle" x="779" y="-263.8" font-family="Times,serif" font-size="14.00">adopts new case&#45;utils</text>
</a>
</g>
</g>
<!-- _GH__CASEWORK__CASE_UTILITIES_PYTHON&#45;&gt;_GH__CASEWORK__CASEWORK_GITHUB_IO -->
<g id="edge12" class="edge">
<title>_GH__CASEWORK__CASE_UTILITIES_PYTHON&#45;&gt;_GH__CASEWORK__CASEWORK_GITHUB_IO</title>
<path fill="none" stroke="black" d="M510.06,-298.33C525.77,-296.21 544.83,-293.79 562,-292 608.49,-287.17 660.74,-283.02 702.2,-280.03"/>
<polygon fill="black" stroke="black" points="702.5,-283.52 712.23,-279.32 702,-276.54 702.5,-283.52"/>
<text text-anchor="middle" x="609" y="-295.8" font-family="Times,serif" font-size="14.00">PyPI</text>
</g>
<!-- _GH__CASEWORK__CASE_UTILITIES_PYTHON&#45;&gt;_GH__CASEWORK__CASE_IMPLEMENTATON_PROV_O -->
<g id="edge10" class="edge">
<title>_GH__CASEWORK__CASE_UTILITIES_PYTHON&#45;&gt;_GH__CASEWORK__CASE_IMPLEMENTATON_PROV_O</title>
<path fill="none" stroke="black" d="M501.82,-322.02C536.36,-347.08 601.92,-389.66 666,-404 701.02,-411.84 1142.18,-409.9 1286,-401 1288.52,-400.84 1291.1,-400.65 1293.7,-400.43"/>
<polygon fill="black" stroke="black" points="1294.13,-403.9 1303.75,-399.46 1293.46,-396.94 1294.13,-403.9"/>
<text text-anchor="middle" x="941.5" y="-411.8" font-family="Times,serif" font-size="14.00">PyPI</text>
</g>
<!-- _GH__KCHASON__CASE_VALIDATION_ACTION -->
<g id="node18" class="node">
<title>_GH__KCHASON__CASE_VALIDATION_ACTION</title>
<g id="a_node18"><a xlink:href="https://github.com/kchason/case-validation-action" xlink:title="case&#45;validation&#45;action\nreleases">
<path fill="#8ec7d2" stroke="#0d6986" d="M835,-527C835,-527 723,-527 723,-527 717,-527 711,-521 711,-515 711,-515 711,-501 711,-501 711,-495 717,-489 723,-489 723,-489 835,-489 835,-489 841,-489 847,-495 847,-501 847,-501 847,-515 847,-515 847,-521 841,-527 835,-527"/>
<text text-anchor="middle" x="779" y="-511.8" font-family="Times,serif" font-size="14.00">case&#45;validation&#45;action</text>
<text text-anchor="middle" x="779" y="-496.8" font-family="Times,serif" font-size="14.00">releases</text>
</a>
</g>
</g>
<!-- _GH__CASEWORK__CASE_UTILITIES_PYTHON&#45;&gt;_GH__KCHASON__CASE_VALIDATION_ACTION -->
<g id="edge11" class="edge">
<title>_GH__CASEWORK__CASE_UTILITIES_PYTHON&#45;&gt;_GH__KCHASON__CASE_VALIDATION_ACTION</title>
<path fill="none" stroke="black" d="M486.91,-322.29C500.91,-348.13 528.53,-394.27 562,-425 601.31,-461.09 616.11,-466.06 666,-485 677.09,-489.21 689.11,-492.71 701.01,-495.6"/>
<polygon fill="black" stroke="black" points="700.44,-499.06 710.97,-497.89 702,-492.24 700.44,-499.06"/>
<text text-anchor="middle" x="609" y="-483.8" font-family="Times,serif" font-size="14.00">PyPI</text>
</g>
<!-- _GH__CASEWORK__CASEWORK_GITHUB_IO&#45;&gt;_GH__AJNELSON_NIST__CASE_EXAMPLES_QC -->
<g id="edge13" class="edge">
<title>_GH__CASEWORK__CASEWORK_GITHUB_IO&#45;&gt;_GH__AJNELSON_NIST__CASE_EXAMPLES_QC</title>
<path fill="none" stroke="black" d="M845.76,-280.97C885.3,-285.34 936.44,-292.4 981,-303 997.11,-306.83 1014.05,-311.86 1030.16,-317.14"/>
<polygon fill="black" stroke="black" points="1029.48,-320.6 1040.08,-320.45 1031.7,-313.96 1029.48,-320.6"/>
<text text-anchor="middle" x="941.5" y="-321.8" font-family="Times,serif" font-size="14.00">Git sub&#45;</text>
<text text-anchor="middle" x="941.5" y="-306.8" font-family="Times,serif" font-size="14.00">module</text>
</g>
<!-- _GH__CASEWORK__CASE_CORPORA -->
<g id="node11" class="node">
<title>_GH__CASEWORK__CASE_CORPORA</title>
<g id="a_node11"><a xlink:href="https://github.com/casework/CASE-Corpora" xlink:title="CASE&#45;Corpora\nadopts new case&#45;prov">
<path fill="#8ec7d2" stroke="#0d6986" d="M1558,-414C1558,-414 1448,-414 1448,-414 1442,-414 1436,-408 1436,-402 1436,-402 1436,-388 1436,-388 1436,-382 1442,-376 1448,-376 1448,-376 1558,-376 1558,-376 1564,-376 1570,-382 1570,-388 1570,-388 1570,-402 1570,-402 1570,-408 1564,-414 1558,-414"/>
<text text-anchor="middle" x="1503" y="-398.8" font-family="Times,serif" font-size="14.00">CASE&#45;Corpora</text>
<text text-anchor="middle" x="1503" y="-383.8" font-family="Times,serif" font-size="14.00">adopts new case&#45;prov</text>
</a>
</g>
</g>
<!-- _GH__CASEWORK__CASE_IMPLEMENTATON_PROV_O&#45;&gt;_GH__CASEWORK__CASE_CORPORA -->
<g id="edge5" class="edge">
<title>_GH__CASEWORK__CASE_IMPLEMENTATON_PROV_O&#45;&gt;_GH__CASEWORK__CASE_CORPORA</title>
<path fill="none" stroke="black" d="M1373.17,-395C1388.47,-395 1407.23,-395 1425.66,-395"/>
<polygon fill="black" stroke="black" points="1425.84,-398.5 1435.84,-395 1425.84,-391.5 1425.84,-398.5"/>
<text text-anchor="middle" x="1404.5" y="-398.8" font-family="Times,serif" font-size="14.00">PyPI</text>
</g>
<!-- _GH__CASEWORK__CASE_IMPLEMENTATON_UFED_XML -->
<g id="node13" class="node">
<title>_GH__CASEWORK__CASE_IMPLEMENTATON_UFED_XML</title>
<g id="a_node13"><a xlink:href="https://github.com/casework/CASE-Implementation-UFED-XML" xlink:title="CASE&#45;Implementation&#45;UFED&#45;XML\nadopts new case&#45;validation&#45;action">
<path fill="#8ec7d2" stroke="#0d6986" d="M1208,-729C1208,-729 1014,-729 1014,-729 1008,-729 1002,-723 1002,-717 1002,-717 1002,-703 1002,-703 1002,-697 1008,-691 1014,-691 1014,-691 1208,-691 1208,-691 1214,-691 1220,-697 1220,-703 1220,-703 1220,-717 1220,-717 1220,-723 1214,-729 1208,-729"/>
<text text-anchor="middle" x="1111" y="-713.8" font-family="Times,serif" font-size="14.00">CASE&#45;Implementation&#45;UFED&#45;XML</text>
<text text-anchor="middle" x="1111" y="-698.8" font-family="Times,serif" font-size="14.00">adopts new case&#45;validation&#45;action</text>
</a>
</g>
</g>
<!-- _GH__CASEWORK__CASE_IMPLEMENTATON_PYPI_EXIFREAD -->
<g id="node14" class="node">
<title>_GH__CASEWORK__CASE_IMPLEMENTATON_PYPI_EXIFREAD</title>
<g id="a_node14"><a xlink:href="https://github.com/casework/CASE-Implementation-PyPI-Exifread" xlink:title="CASE&#45;Implementation&#45;PyPI&#45;Exifread\nadopts new case&#45;validation&#45;action">
<path fill="#8ec7d2" stroke="#0d6986" d="M1211,-475C1211,-475 1011,-475 1011,-475 1005,-475 999,-469 999,-463 999,-463 999,-449 999,-449 999,-443 1005,-437 1011,-437 1011,-437 1211,-437 1211,-437 1217,-437 1223,-443 1223,-449 1223,-449 1223,-463 1223,-463 1223,-469 1217,-475 1211,-475"/>
<text text-anchor="middle" x="1111" y="-459.8" font-family="Times,serif" font-size="14.00">CASE&#45;Implementation&#45;PyPI&#45;Exifread</text>
<text text-anchor="middle" x="1111" y="-444.8" font-family="Times,serif" font-size="14.00">adopts new case&#45;validation&#45;action</text>
</a>
</g>
</g>
<!-- _GH__CASEWORK__CASE_IMPLEMENTATON_PYPI_PILLOW -->
<g id="node15" class="node">
<title>_GH__CASEWORK__CASE_IMPLEMENTATON_PYPI_PILLOW</title>
<g id="a_node15"><a xlink:href="https://github.com/casework/CASE-Implementation-PyPI-Pillow" xlink:title="CASE&#45;Implementation&#45;PyPI&#45;Pillow\nadopts new case&#45;validation&#45;action">
<path fill="#8ec7d2" stroke="#0d6986" d="M1205.5,-531C1205.5,-531 1016.5,-531 1016.5,-531 1010.5,-531 1004.5,-525 1004.5,-519 1004.5,-519 1004.5,-505 1004.5,-505 1004.5,-499 1010.5,-493 1016.5,-493 1016.5,-493 1205.5,-493 1205.5,-493 1211.5,-493 1217.5,-499 1217.5,-505 1217.5,-505 1217.5,-519 1217.5,-519 1217.5,-525 1211.5,-531 1205.5,-531"/>
<text text-anchor="middle" x="1111" y="-515.8" font-family="Times,serif" font-size="14.00">CASE&#45;Implementation&#45;PyPI&#45;Pillow</text>
<text text-anchor="middle" x="1111" y="-500.8" font-family="Times,serif" font-size="14.00">adopts new case&#45;validation&#45;action</text>
</a>
</g>
</g>
<!-- _GH__CASEWORK__CASE_IMPLEMENTATON_XRY -->
<g id="node16" class="node">
<title>_GH__CASEWORK__CASE_IMPLEMENTATON_XRY</title>
<g id="a_node16"><a xlink:href="https://github.com/casework/CASE-Implementation-XRY" xlink:title="CASE&#45;Implementation&#45;XRY adopts\nnew case&#45;validation&#45;action">
<path fill="#8ec7d2" stroke="#0d6986" d="M1206,-587C1206,-587 1016,-587 1016,-587 1010,-587 1004,-581 1004,-575 1004,-575 1004,-561 1004,-561 1004,-555 1010,-549 1016,-549 1016,-549 1206,-549 1206,-549 1212,-549 1218,-555 1218,-561 1218,-561 1218,-575 1218,-575 1218,-581 1212,-587 1206,-587"/>
<text text-anchor="middle" x="1111" y="-571.8" font-family="Times,serif" font-size="14.00">CASE&#45;Implementation&#45;XRY adopts</text>
<text text-anchor="middle" x="1111" y="-556.8" font-family="Times,serif" font-size="14.00">new case&#45;validation&#45;action</text>
</a>
</g>
</g>
<!-- _GH__CASEWORK__CASE_MAPPING_TEMPLATE_PYTHON -->
<g id="node17" class="node">
<title>_GH__CASEWORK__CASE_MAPPING_TEMPLATE_PYTHON</title>
<g id="a_node17"><a xlink:href="https://github.com/casework/CASE-Mapping-Template-Python" xlink:title="CASE&#45;Mapping&#45;Template&#45;Python\nadopts new case&#45;validation&#45;action">
<path fill="#8ec7d2" stroke="#0d6986" d="M1200.5,-643C1200.5,-643 1021.5,-643 1021.5,-643 1015.5,-643 1009.5,-637 1009.5,-631 1009.5,-631 1009.5,-617 1009.5,-617 1009.5,-611 1015.5,-605 1021.5,-605 1021.5,-605 1200.5,-605 1200.5,-605 1206.5,-605 1212.5,-611 1212.5,-617 1212.5,-617 1212.5,-631 1212.5,-631 1212.5,-637 1206.5,-643 1200.5,-643"/>
<text text-anchor="middle" x="1111" y="-627.8" font-family="Times,serif" font-size="14.00">CASE&#45;Mapping&#45;Template&#45;Python</text>
<text text-anchor="middle" x="1111" y="-612.8" font-family="Times,serif" font-size="14.00">adopts new case&#45;validation&#45;action</text>
</a>
</g>
</g>
<!-- _GH__KCHASON__CASE_VALIDATION_ACTION&#45;&gt;_GH__CASEWORK__CASE_IMPLEMENTATON_UFED_XML -->
<g id="edge16" class="edge">
<title>_GH__KCHASON__CASE_VALIDATION_ACTION&#45;&gt;_GH__CASEWORK__CASE_IMPLEMENTATON_UFED_XML</title>
<path fill="none" stroke="black" d="M793.31,-527.19C813.78,-555.47 855.52,-608.51 902,-641 932.64,-662.42 970.4,-677.56 1005.31,-688.09"/>
<polygon fill="black" stroke="black" points="1004.49,-691.5 1015.07,-690.94 1006.45,-684.78 1004.49,-691.5"/>
<text text-anchor="middle" x="941.5" y="-696.8" font-family="Times,serif" font-size="14.00">GitHub</text>
<text text-anchor="middle" x="941.5" y="-681.8" font-family="Times,serif" font-size="14.00">Action</text>
</g>
<!-- _GH__KCHASON__CASE_VALIDATION_ACTION&#45;&gt;_GH__CASEWORK__CASE_IMPLEMENTATON_PYPI_EXIFREAD -->
<g id="edge14" class="edge">
<title>_GH__KCHASON__CASE_VALIDATION_ACTION&#45;&gt;_GH__CASEWORK__CASE_IMPLEMENTATON_PYPI_EXIFREAD</title>
<path fill="none" stroke="black" d="M847.04,-501.35C862.49,-497.92 878.37,-492.76 892,-485 897.74,-481.73 896.08,-476.93 902,-474 928.49,-460.89 959.2,-454.3 988.76,-451.42"/>
<polygon fill="black" stroke="black" points="989.06,-454.9 998.73,-450.58 988.47,-447.93 989.06,-454.9"/>
<text text-anchor="middle" x="941.5" y="-492.8" font-family="Times,serif" font-size="14.00">GitHub</text>
<text text-anchor="middle" x="941.5" y="-477.8" font-family="Times,serif" font-size="14.00">Action</text>
</g>
<!-- _GH__KCHASON__CASE_VALIDATION_ACTION&#45;&gt;_GH__CASEWORK__CASE_IMPLEMENTATON_PYPI_PILLOW -->
<g id="edge15" class="edge">
<title>_GH__KCHASON__CASE_VALIDATION_ACTION&#45;&gt;_GH__CASEWORK__CASE_IMPLEMENTATON_PYPI_PILLOW</title>
<path fill="none" stroke="black" d="M847,-508.03C886.09,-508.12 936.34,-508.37 981,-509 985.28,-509.06 989.65,-509.13 994.06,-509.2"/>
<polygon fill="black" stroke="black" points="994.34,-512.71 1004.4,-509.39 994.47,-505.71 994.34,-512.71"/>
<text text-anchor="middle" x="941.5" y="-527.8" font-family="Times,serif" font-size="14.00">GitHub</text>
<text text-anchor="middle" x="941.5" y="-512.8" font-family="Times,serif" font-size="14.00">Action</text>
</g>
<!-- _GH__KCHASON__CASE_VALIDATION_ACTION&#45;&gt;_GH__CASEWORK__CASE_IMPLEMENTATON_XRY -->
<g id="edge17" class="edge">
<title>_GH__KCHASON__CASE_VALIDATION_ACTION&#45;&gt;_GH__CASEWORK__CASE_IMPLEMENTATON_XRY</title>
<path fill="none" stroke="black" d="M847.14,-526.47C864.89,-530.97 884.09,-535.49 902,-539 931.57,-544.8 963.73,-549.88 993.73,-554.1"/>
<polygon fill="black" stroke="black" points="993.42,-557.59 1003.81,-555.49 994.38,-550.65 993.42,-557.59"/>
<text text-anchor="middle" x="941.5" y="-569.8" font-family="Times,serif" font-size="14.00">GitHub</text>
<text text-anchor="middle" x="941.5" y="-554.8" font-family="Times,serif" font-size="14.00">Action</text>
</g>
<!-- _GH__KCHASON__CASE_VALIDATION_ACTION&#45;&gt;_GH__CASEWORK__CASE_MAPPING_TEMPLATE_PYTHON -->
<g id="edge18" class="edge">
<title>_GH__KCHASON__CASE_VALIDATION_ACTION&#45;&gt;_GH__CASEWORK__CASE_MAPPING_TEMPLATE_PYTHON</title>
<path fill="none" stroke="black" d="M804.2,-527.19C827.8,-544.92 865.4,-570.63 902,-585 932.68,-597.05 967.41,-605.44 999.57,-611.26"/>
<polygon fill="black" stroke="black" points="999.01,-614.72 1009.46,-612.99 1000.21,-607.82 999.01,-614.72"/>
<text text-anchor="middle" x="941.5" y="-625.8" font-family="Times,serif" font-size="14.00">GitHub</text>
<text text-anchor="middle" x="941.5" y="-610.8" font-family="Times,serif" font-size="14.00">Action</text>
</g>
<!-- _GH__DOD_CYBER_CRIME_CENTER__SQLITE_DISSECT -->
<g id="node19" class="node">
<title>_GH__DOD_CYBER_CRIME_CENTER__SQLITE_DISSECT</title>
<g id="a_node19"><a xlink:href="https://github.com/dod-cyber-crime-center/sqlite-dissect" xlink:title="sqlite&#45;dissect\nadopts new case&#45;validation&#45;action">
<path fill="#8ec7d2" stroke="#0d6986" d="M1199.5,-224C1199.5,-224 1022.5,-224 1022.5,-224 1016.5,-224 1010.5,-218 1010.5,-212 1010.5,-212 1010.5,-198 1010.5,-198 1010.5,-192 1016.5,-186 1022.5,-186 1022.5,-186 1199.5,-186 1199.5,-186 1205.5,-186 1211.5,-192 1211.5,-198 1211.5,-198 1211.5,-212 1211.5,-212 1211.5,-218 1205.5,-224 1199.5,-224"/>
<text text-anchor="middle" x="1111" y="-208.8" font-family="Times,serif" font-size="14.00">sqlite&#45;dissect</text>
<text text-anchor="middle" x="1111" y="-193.8" font-family="Times,serif" font-size="14.00">adopts new case&#45;validation&#45;action</text>
</a>
</g>
</g>
<!-- _GH__KCHASON__CASE_VALIDATION_ACTION&#45;&gt;_GH__DOD_CYBER_CRIME_CENTER__SQLITE_DISSECT -->
<g id="edge19" class="edge">
<title>_GH__KCHASON__CASE_VALIDATION_ACTION&#45;&gt;_GH__DOD_CYBER_CRIME_CENTER__SQLITE_DISSECT</title>
<g id="a_edge19"><a xlink:href="https://github.com/dod-cyber-crime-center/sqlite-dissect/pull/31" xlink:title="TODO: PR 31">
<path fill="none" stroke="black" d="M847.09,-508.44C864.12,-505.12 880.76,-498.24 892,-485 910.42,-463.29 882.65,-249.88 902,-229 926.79,-202.26 964.09,-192.79 1000.29,-191.16"/>
<polygon fill="black" stroke="black" points="1000.55,-194.65 1010.46,-190.9 1000.38,-187.66 1000.55,-194.65"/>
</a>
</g>
<g id="a_edge19&#45;label"><a xlink:href="https://github.com/dod-cyber-crime-center/sqlite-dissect/pull/31" xlink:title="TODO: PR 31">
<text text-anchor="middle" x="941.5" y="-232.8" font-family="Times,serif" font-size="14.00">TODO: PR 31</text>
</a>
</g>
</g>
</g>
</svg>
