<?xml version="1.0" encoding="UTF-8" standalone="no"?>
<!DOCTYPE svg PUBLIC "-//W3C//DTD SVG 1.1//EN"
 "http://www.w3.org/Graphics/SVG/1.1/DTD/svg11.dtd">
<!-- Generated by graphviz version 8.0.3 (20230416.2022)
 -->
<!-- Title: cdo_release_flow Pages: 1 -->
<svg width="1630pt" height="1330pt"
 viewBox="0.00 0.00 1630.00 1330.00" xmlns="http://www.w3.org/2000/svg" xmlns:xlink="http://www.w3.org/1999/xlink">
<g id="graph0" class="graph" transform="scale(1 1) rotate(0) translate(4 1326)">
<title>cdo_release_flow</title>
<polygon fill="white" stroke="none" points="-4,4 -4,-1326 1626,-1326 1626,4 -4,4"/>
<text text-anchor="middle" x="811" y="-38.8" font-family="Times,serif" font-size="14.00">Release flow of CDO ontologies</text>
<text text-anchor="middle" x="811" y="-7.8" font-family="Times,serif" font-size="14.00">Nodes link to the respective Git repository.</text>
<g id="clust1" class="cluster">
<title>cluster_uco_0_9_1</title>
<polygon fill="none" stroke="black" points="8,-62 8,-178 176,-178 176,-62 8,-62"/>
<text text-anchor="middle" x="92" y="-162.8" font-family="Times,serif" font-size="14.00">Adoption of UCO 0.9.1</text>
</g>
<g id="clust2" class="cluster">
<title>cluster_case_0_7_1</title>
<polygon fill="none" stroke="black" points="16,-70 16,-147 168,-147 168,-70 16,-70"/>
<text text-anchor="middle" x="92" y="-131.8" font-family="Times,serif" font-size="14.00">Adoption of CASE 0.7.1</text>
</g>
<g id="clust3" class="cluster">
<title>cluster_uco_1_2_0</title>
<polygon fill="none" stroke="black" points="34,-186 34,-1314 1614,-1314 1614,-186 34,-186"/>
<text text-anchor="middle" x="824" y="-1298.8" font-family="Times,serif" font-size="14.00">Adoption of UCO 1.2.0</text>
</g>
<g id="clust4" class="cluster">
<title>cluster_case_1_2_0</title>
<polygon fill="none" stroke="black" points="253.5,-303 253.5,-1283 1606,-1283 1606,-303 253.5,-303"/>
<text text-anchor="middle" x="929.75" y="-1267.8" font-family="Times,serif" font-size="14.00">Adoption of CASE 1.2.0</text>
</g>
<g id="clust5" class="cluster">
<title>cluster_case_utils_0_10_0</title>
<polygon fill="none" stroke="black" points="1010,-692 1010,-1252 1598,-1252 1598,-692 1010,-692"/>
<text text-anchor="middle" x="1304" y="-1236.8" font-family="Times,serif" font-size="14.00">Adoption of case&#45;utils 0.10.0</text>
</g>
<g id="clust6" class="cluster">
<title>cluster_case_prov_0_7_0</title>
<polygon fill="none" stroke="black" points="1095.5,-1144 1095.5,-1221 1523.5,-1221 1523.5,-1144 1095.5,-1144"/>
<text text-anchor="middle" x="1309.5" y="-1205.8" font-family="Times,serif" font-size="14.00">Adoption of case&#45;prov 0.7.0</text>
</g>
<g id="clust7" class="cluster">
<title>cluster_case_validation_action_2_6</title>
<polygon fill="none" stroke="black" points="1018,-700 1018,-1088 1590,-1088 1590,-700 1018,-700"/>
<text text-anchor="middle" x="1304" y="-1072.8" font-family="Times,serif" font-size="14.00">Adoption of case&#45;validation&#45;action 2.6</text>
</g>
<g id="clust8" class="cluster">
<title>cluster_case_bindings_csharp_0_4_0</title>
<polygon fill="none" stroke="black" points="1043.5,-980 1043.5,-1057 1582,-1057 1582,-980 1043.5,-980"/>
<text text-anchor="middle" x="1312.75" y="-1041.8" font-family="Times,serif" font-size="14.00">Adoption of CSharp bindings 0.4.0</text>
</g>
<g id="clust9" class="cluster">
<title>cluster_case_utils_0_11_0</title>
<polygon fill="none" stroke="black" points="515,-357 515,-684 1232,-684 1232,-357 515,-357"/>
<text text-anchor="middle" x="873.5" y="-668.8" font-family="Times,serif" font-size="14.00">Adoption of case&#45;utils 0.11.0</text>
</g>
<g id="clust10" class="cluster">
<title>cluster_case_validation_action_2_6_1</title>
<polygon fill="none" stroke="black" points="678,-576 678,-653 915,-653 915,-576 678,-576"/>
<text text-anchor="middle" x="796.5" y="-637.8" font-family="Times,serif" font-size="14.00">Adoption of case&#45;validation&#45;action 2.6.1</text>
</g>
<!-- _GH__CASEWORK__CASE_MAPPING_TEMPLATE_STUBS -->
<g id="node1" class="node">
<title>_GH__CASEWORK__CASE_MAPPING_TEMPLATE_STUBS</title>
<g id="a_node1"><a xlink:href="https://github.com/casework/CASE-Mapping-Template-Stubs" xlink:title="CASE Mapping\nTemplate Stubs">
<path fill="#8ec7d2" stroke="#0d6986" d="M132,-116C132,-116 52,-116 52,-116 46,-116 40,-110 40,-104 40,-104 40,-90 40,-90 40,-84 46,-78 52,-78 52,-78 132,-78 132,-78 138,-78 144,-84 144,-90 144,-90 144,-104 144,-104 144,-110 138,-116 132,-116"/>
<text text-anchor="middle" x="92" y="-100.8" font-family="Times,serif" font-size="14.00">CASE Mapping</text>
<text text-anchor="middle" x="92" y="-85.8" font-family="Times,serif" font-size="14.00">Template Stubs</text>
</a>
</g>
</g>
<!-- _GH__UCOPROJECT__ONTOLOGY_UNIFIEDCYBERONTOLOGY_ORG -->
<g id="node2" class="node">
<title>_GH__UCOPROJECT__ONTOLOGY_UNIFIEDCYBERONTOLOGY_ORG</title>
<g id="a_node2"><a xlink:href="https://github.com/ucoProject/ontology.unifiedcyberontology.org" xlink:title="UCO documentation\nregenerated">
<path fill="#8ec7d2" stroke="#0d6986" d="M367.5,-295C367.5,-295 261.5,-295 261.5,-295 255.5,-295 249.5,-289 249.5,-283 249.5,-283 249.5,-269 249.5,-269 249.5,-263 255.5,-257 261.5,-257 261.5,-257 367.5,-257 367.5,-257 373.5,-257 379.5,-263 379.5,-269 379.5,-269 379.5,-283 379.5,-283 379.5,-289 373.5,-295 367.5,-295"/>
<text text-anchor="middle" x="314.5" y="-279.8" font-family="Times,serif" font-size="14.00">UCO documentation</text>
<text text-anchor="middle" x="314.5" y="-264.8" font-family="Times,serif" font-size="14.00">regenerated</text>
</a>
</g>
</g>
<!-- _GH__CASEWORK__ONTOLOGY_CASEONTOLOGY_ORG -->
<g id="node8" class="node">
<title>_GH__CASEWORK__ONTOLOGY_CASEONTOLOGY_ORG</title>
<g id="a_node8"><a xlink:href="https://github.com/casework/ontology.caseontology.org" xlink:title="CASE documentation\nregenerated">
<path fill="#8ec7d2" stroke="#0d6986" d="M613,-349C613,-349 501,-349 501,-349 495,-349 489,-343 489,-337 489,-337 489,-323 489,-323 489,-317 495,-311 501,-311 501,-311 613,-311 613,-311 619,-311 625,-317 625,-323 625,-323 625,-337 625,-337 625,-343 619,-349 613,-349"/>
<text text-anchor="middle" x="557" y="-333.8" font-family="Times,serif" font-size="14.00">CASE documentation</text>
<text text-anchor="middle" x="557" y="-318.8" font-family="Times,serif" font-size="14.00">regenerated</text>
</a>
</g>
</g>
<!-- _GH__UCOPROJECT__ONTOLOGY_UNIFIEDCYBERONTOLOGY_ORG&#45;&gt;_GH__CASEWORK__ONTOLOGY_CASEONTOLOGY_ORG -->
<g id="edge24" class="edge">
<title>_GH__UCOPROJECT__ONTOLOGY_UNIFIEDCYBERONTOLOGY_ORG&#45;&gt;_GH__CASEWORK__ONTOLOGY_CASEONTOLOGY_ORG</title>
<path fill="none" stroke="black" d="M379.95,-290.47C410.2,-297.26 446.51,-305.42 478.27,-312.55"/>
<polygon fill="black" stroke="black" points="477.33,-316.15 487.85,-314.92 478.86,-309.32 477.33,-316.15"/>
<text text-anchor="middle" x="435.5" y="-327.8" font-family="Times,serif" font-size="14.00">Tech&#45;</text>
<text text-anchor="middle" x="435.5" y="-312.8" font-family="Times,serif" font-size="14.00">check</text>
</g>
<!-- _GH__UCOPROJECT__UCO -->
<g id="node3" class="node">
<title>_GH__UCOPROJECT__UCO</title>
<g id="a_node3"><a xlink:href="https://github.com/ucoProject/UCO" xlink:title="UCO Ontology\nreleases">
<path fill="#8ec7d2" stroke="#0d6986" d="M130,-295C130,-295 54,-295 54,-295 48,-295 42,-289 42,-283 42,-283 42,-269 42,-269 42,-263 48,-257 54,-257 54,-257 130,-257 130,-257 136,-257 142,-263 142,-269 142,-269 142,-283 142,-283 142,-289 136,-295 130,-295"/>
<text text-anchor="middle" x="92" y="-279.8" font-family="Times,serif" font-size="14.00">UCO Ontology</text>
<text text-anchor="middle" x="92" y="-264.8" font-family="Times,serif" font-size="14.00">releases</text>
</a>
</g>
</g>
<!-- _GH__UCOPROJECT__UCO&#45;&gt;_GH__UCOPROJECT__ONTOLOGY_UNIFIEDCYBERONTOLOGY_ORG -->
<g id="edge26" class="edge">
<title>_GH__UCOPROJECT__UCO&#45;&gt;_GH__UCOPROJECT__ONTOLOGY_UNIFIEDCYBERONTOLOGY_ORG</title>
<path fill="none" stroke="black" d="M142.48,-276C170.65,-276 206.52,-276 238.12,-276"/>
<polygon fill="black" stroke="black" points="238.1,-279.5 248.1,-276 238.1,-272.5 238.1,-279.5"/>
<text text-anchor="middle" x="206.5" y="-294.8" font-family="Times,serif" font-size="14.00">Git sub&#45;</text>
<text text-anchor="middle" x="206.5" y="-279.8" font-family="Times,serif" font-size="14.00">module</text>
</g>
<!-- _GH__UCOPROJECT__UCO_PROFILE_EXAMPLE -->
<g id="node5" class="node">
<title>_GH__UCOPROJECT__UCO_PROFILE_EXAMPLE</title>
<g id="a_node5"><a xlink:href="https://github.com/ucoProject/UCO-Profile-Example" xlink:title="UCO example profile\nupdates">
<path fill="#8ec7d2" stroke="#0d6986" d="M370,-239C370,-239 259,-239 259,-239 253,-239 247,-233 247,-227 247,-227 247,-213 247,-213 247,-207 253,-201 259,-201 259,-201 370,-201 370,-201 376,-201 382,-207 382,-213 382,-213 382,-227 382,-227 382,-233 376,-239 370,-239"/>
<text text-anchor="middle" x="314.5" y="-223.8" font-family="Times,serif" font-size="14.00">UCO example profile</text>
<text text-anchor="middle" x="314.5" y="-208.8" font-family="Times,serif" font-size="14.00">updates</text>
</a>
</g>
</g>
<!-- _GH__UCOPROJECT__UCO&#45;&gt;_GH__UCOPROJECT__UCO_PROFILE_EXAMPLE -->
<g id="edge27" class="edge">
<title>_GH__UCOPROJECT__UCO&#45;&gt;_GH__UCOPROJECT__UCO_PROFILE_EXAMPLE</title>
<path fill="none" stroke="black" d="M139.68,-256.63C153.74,-251.32 169.34,-245.95 184,-242 200.69,-237.51 218.84,-233.75 236.13,-230.68"/>
<polygon fill="black" stroke="black" points="236.5,-234 245.76,-228.86 235.32,-227.1 236.5,-234"/>
<text text-anchor="middle" x="206.5" y="-260.8" font-family="Times,serif" font-size="14.00">Git sub&#45;</text>
<text text-anchor="middle" x="206.5" y="-245.8" font-family="Times,serif" font-size="14.00">module</text>
</g>
<!-- _GH__CASEWORK__CASE -->
<g id="node7" class="node">
<title>_GH__CASEWORK__CASE</title>
<g id="a_node7"><a xlink:href="https://github.com/casework/CASE" xlink:title="CASE Ontology\nreleases">
<path fill="#8ec7d2" stroke="#0d6986" d="M355.5,-495C355.5,-495 273.5,-495 273.5,-495 267.5,-495 261.5,-489 261.5,-483 261.5,-483 261.5,-469 261.5,-469 261.5,-463 267.5,-457 273.5,-457 273.5,-457 355.5,-457 355.5,-457 361.5,-457 367.5,-463 367.5,-469 367.5,-469 367.5,-483 367.5,-483 367.5,-489 361.5,-495 355.5,-495"/>
<text text-anchor="middle" x="314.5" y="-479.8" font-family="Times,serif" font-size="14.00">CASE Ontology</text>
<text text-anchor="middle" x="314.5" y="-464.8" font-family="Times,serif" font-size="14.00">releases</text>
</a>
</g>
</g>
<!-- _GH__UCOPROJECT__UCO&#45;&gt;_GH__CASEWORK__CASE -->
<g id="edge25" class="edge">
<title>_GH__UCOPROJECT__UCO&#45;&gt;_GH__CASEWORK__CASE</title>
<path fill="none" stroke="black" d="M104.91,-295.45C127.97,-331.56 182.19,-409.24 247,-453 248.5,-454.01 250.04,-454.98 251.63,-455.91"/>
<polygon fill="black" stroke="black" points="249.56,-459.3 260.04,-460.83 252.8,-453.1 249.56,-459.3"/>
<text text-anchor="middle" x="206.5" y="-455.8" font-family="Times,serif" font-size="14.00">Git sub&#45;</text>
<text text-anchor="middle" x="206.5" y="-440.8" font-family="Times,serif" font-size="14.00">module</text>
</g>
<!-- _GH__UCOPROJECT__UCO_PROFILE_BFO -->
<g id="node4" class="node">
<title>_GH__UCOPROJECT__UCO_PROFILE_BFO</title>
<g id="a_node4"><a xlink:href="https://github.com/ucoProject/UCO-Profile-BFO" xlink:title="UCO BFO profile\nupdates">
<path fill="#8ec7d2" stroke="#0d6986" d="M602.5,-288C602.5,-288 511.5,-288 511.5,-288 505.5,-288 499.5,-282 499.5,-276 499.5,-276 499.5,-262 499.5,-262 499.5,-256 505.5,-250 511.5,-250 511.5,-250 602.5,-250 602.5,-250 608.5,-250 614.5,-256 614.5,-262 614.5,-262 614.5,-276 614.5,-276 614.5,-282 608.5,-288 602.5,-288"/>
<text text-anchor="middle" x="557" y="-272.8" font-family="Times,serif" font-size="14.00">UCO BFO profile</text>
<text text-anchor="middle" x="557" y="-257.8" font-family="Times,serif" font-size="14.00">updates</text>
</a>
</g>
</g>
<!-- _GH__UCOPROJECT__UCO_PROFILE_EXAMPLE&#45;&gt;_GH__UCOPROJECT__UCO_PROFILE_BFO -->
<g id="edge28" class="edge">
<title>_GH__UCOPROJECT__UCO_PROFILE_EXAMPLE&#45;&gt;_GH__UCOPROJECT__UCO_PROFILE_BFO</title>
<path fill="none" stroke="black" d="M382.23,-238.83C388.22,-240.32 394.21,-241.73 400,-243 428.77,-249.3 460.82,-254.88 488.35,-259.24"/>
<polygon fill="black" stroke="black" points="487.63,-262.83 498.05,-260.92 488.71,-255.92 487.63,-262.83"/>
<text text-anchor="middle" x="435.5" y="-273.8" font-family="Times,serif" font-size="14.00">Git merge of</text>
<text text-anchor="middle" x="435.5" y="-258.8" font-family="Times,serif" font-size="14.00">base branch</text>
</g>
<!-- _GH__UCOPROJECT__UCO_PROFILE_FOAF -->
<g id="node6" class="node">
<title>_GH__UCOPROJECT__UCO_PROFILE_FOAF</title>
<g id="a_node6"><a xlink:href="https://github.com/ucoProject/UCO-Profile-FOAF" xlink:title="UCO FOAF profile\nupdates">
<path fill="#8ec7d2" stroke="#0d6986" d="M606.5,-232C606.5,-232 507.5,-232 507.5,-232 501.5,-232 495.5,-226 495.5,-220 495.5,-220 495.5,-206 495.5,-206 495.5,-200 501.5,-194 507.5,-194 507.5,-194 606.5,-194 606.5,-194 612.5,-194 618.5,-200 618.5,-206 618.5,-206 618.5,-220 618.5,-220 618.5,-226 612.5,-232 606.5,-232"/>
<text text-anchor="middle" x="557" y="-216.8" font-family="Times,serif" font-size="14.00">UCO FOAF profile</text>
<text text-anchor="middle" x="557" y="-201.8" font-family="Times,serif" font-size="14.00">updates</text>
</a>
</g>
</g>
<!-- _GH__UCOPROJECT__UCO_PROFILE_EXAMPLE&#45;&gt;_GH__UCOPROJECT__UCO_PROFILE_FOAF -->
<g id="edge29" class="edge">
<title>_GH__UCOPROJECT__UCO_PROFILE_EXAMPLE&#45;&gt;_GH__UCOPROJECT__UCO_PROFILE_FOAF</title>
<path fill="none" stroke="black" d="M382.35,-213.95C388.31,-213.56 394.26,-213.24 400,-213 427.59,-211.86 457.95,-211.63 484.49,-211.76"/>
<polygon fill="black" stroke="black" points="484.2,-215.27 494.23,-211.84 484.25,-208.27 484.2,-215.27"/>
<text text-anchor="middle" x="435.5" y="-231.8" font-family="Times,serif" font-size="14.00">Git merge of</text>
<text text-anchor="middle" x="435.5" y="-216.8" font-family="Times,serif" font-size="14.00">base branch</text>
</g>
<!-- _GH__CASEWORK__CASE&#45;&gt;_GH__CASEWORK__ONTOLOGY_CASEONTOLOGY_ORG -->
<g id="edge4" class="edge">
<title>_GH__CASEWORK__CASE&#45;&gt;_GH__CASEWORK__ONTOLOGY_CASEONTOLOGY_ORG</title>
<path fill="none" stroke="black" d="M367.64,-467.36C401.69,-459.05 444.59,-443.11 471,-413 487.13,-394.6 473.91,-377.7 486.13,-357.85"/>
<polygon fill="black" stroke="black" points="489.31,-360.48 492.78,-350.47 483.82,-356.13 489.31,-360.48"/>
<text text-anchor="middle" x="435.5" y="-474.8" font-family="Times,serif" font-size="14.00">Git sub&#45;</text>
<text text-anchor="middle" x="435.5" y="-459.8" font-family="Times,serif" font-size="14.00">module</text>
</g>
<!-- _GH__CIPHERTECHSOLUTIONS__CASE_BINDINGS_CSHARP -->
<g id="node18" class="node">
<title>_GH__CIPHERTECHSOLUTIONS__CASE_BINDINGS_CSHARP</title>
<g id="a_node18"><a xlink:href="https://github.com/ciphertechsolutions/CASE-Bindings-CSharp" xlink:title="CASE&#45;Bindings&#45;CSharp\nadopts new ontology version">
<path fill="#8ec7d2" stroke="#0d6986" d="M1212.5,-1026C1212.5,-1026 1063.5,-1026 1063.5,-1026 1057.5,-1026 1051.5,-1020 1051.5,-1014 1051.5,-1014 1051.5,-1000 1051.5,-1000 1051.5,-994 1057.5,-988 1063.5,-988 1063.5,-988 1212.5,-988 1212.5,-988 1218.5,-988 1224.5,-994 1224.5,-1000 1224.5,-1000 1224.5,-1014 1224.5,-1014 1224.5,-1020 1218.5,-1026 1212.5,-1026"/>
<text text-anchor="middle" x="1138" y="-1010.8" font-family="Times,serif" font-size="14.00">CASE&#45;Bindings&#45;CSharp</text>
<text text-anchor="middle" x="1138" y="-995.8" font-family="Times,serif" font-size="14.00">adopts new ontology version</text>
</a>
</g>
</g>
<!-- _GH__CASEWORK__CASE&#45;&gt;_GH__CIPHERTECHSOLUTIONS__CASE_BINDINGS_CSHARP -->
<g id="edge3" class="edge">
<title>_GH__CASEWORK__CASE&#45;&gt;_GH__CIPHERTECHSOLUTIONS__CASE_BINDINGS_CSHARP</title>
<path fill="none" stroke="black" d="M323.19,-495.48C354.13,-570.93 477.56,-845.41 678,-959 737.99,-993 924.82,-1002.98 1040.79,-1005.87"/>
<polygon fill="black" stroke="black" points="1040.36,-1009.38 1050.44,-1006.12 1040.53,-1002.38 1040.36,-1009.38"/>
</g>
<!-- _GH__CASEWORK__CASE_UTILITIES_PYTHON -->
<g id="node22" class="node">
<title>_GH__CASEWORK__CASE_UTILITIES_PYTHON</title>
<g id="a_node22"><a xlink:href="https://github.com/casework/CASE-Utilities-Python" xlink:title="case&#45;utils\nreleases">
<path fill="#8ec7d2" stroke="#0d6986" d="M579,-566C579,-566 535,-566 535,-566 529,-566 523,-560 523,-554 523,-554 523,-540 523,-540 523,-534 529,-528 535,-528 535,-528 579,-528 579,-528 585,-528 591,-534 591,-540 591,-540 591,-554 591,-554 591,-560 585,-566 579,-566"/>
<text text-anchor="middle" x="557" y="-550.8" font-family="Times,serif" font-size="14.00">case&#45;utils</text>
<text text-anchor="middle" x="557" y="-535.8" font-family="Times,serif" font-size="14.00">releases</text>
</a>
</g>
</g>
<!-- _GH__CASEWORK__CASE&#45;&gt;_GH__CASEWORK__CASE_UTILITIES_PYTHON -->
<g id="edge2" class="edge">
<title>_GH__CASEWORK__CASE&#45;&gt;_GH__CASEWORK__CASE_UTILITIES_PYTHON</title>
<path fill="none" stroke="black" d="M367.98,-491.49C411.12,-504.23 471.53,-522.06 512.13,-534.05"/>
<polygon fill="black" stroke="black" points="510.93,-537.64 521.51,-537.11 512.91,-530.92 510.93,-537.64"/>
<text text-anchor="middle" x="435.5" y="-537.8" font-family="Times,serif" font-size="14.00">Git sub&#45;</text>
<text text-anchor="middle" x="435.5" y="-522.8" font-family="Times,serif" font-size="14.00">module</text>
</g>
<!-- _GH__CASEWORK__CASE_IMPLEMENTATON_GNU_TIME -->
<g id="node9" class="node">
<title>_GH__CASEWORK__CASE_IMPLEMENTATON_GNU_TIME</title>
<g id="a_node9"><a xlink:href="https://github.com/casework/CASE-Implementation-GNU-Time" xlink:title="CASE&#45;Implementation&#45;GNU&#45;Time\nadopts new case&#45;utils">
<path fill="#8ec7d2" stroke="#0d6986" d="M1231,-1134C1231,-1134 1045,-1134 1045,-1134 1039,-1134 1033,-1128 1033,-1122 1033,-1122 1033,-1108 1033,-1108 1033,-1102 1039,-1096 1045,-1096 1045,-1096 1231,-1096 1231,-1096 1237,-1096 1243,-1102 1243,-1108 1243,-1108 1243,-1122 1243,-1122 1243,-1128 1237,-1134 1231,-1134"/>
<text text-anchor="middle" x="1138" y="-1118.8" font-family="Times,serif" font-size="14.00">CASE&#45;Implementation&#45;GNU&#45;Time</text>
<text text-anchor="middle" x="1138" y="-1103.8" font-family="Times,serif" font-size="14.00">adopts new case&#45;utils</text>
</a>
</g>
</g>
<!-- _GH__CASEWORK__CASE_CORPORA -->
<g id="node10" class="node">
<title>_GH__CASEWORK__CASE_CORPORA</title>
<g id="a_node10"><a xlink:href="https://github.com/casework/CASE-Corpora" xlink:title="CASE&#45;Corpora\nadopts new case&#45;prov">
<path fill="#8ec7d2" stroke="#0d6986" d="M1503.5,-1190C1503.5,-1190 1393.5,-1190 1393.5,-1190 1387.5,-1190 1381.5,-1184 1381.5,-1178 1381.5,-1178 1381.5,-1164 1381.5,-1164 1381.5,-1158 1387.5,-1152 1393.5,-1152 1393.5,-1152 1503.5,-1152 1503.5,-1152 1509.5,-1152 1515.5,-1158 1515.5,-1164 1515.5,-1164 1515.5,-1178 1515.5,-1178 1515.5,-1184 1509.5,-1190 1503.5,-1190"/>
<text text-anchor="middle" x="1448.5" y="-1174.8" font-family="Times,serif" font-size="14.00">CASE&#45;Corpora</text>
<text text-anchor="middle" x="1448.5" y="-1159.8" font-family="Times,serif" font-size="14.00">adopts new case&#45;prov</text>
</a>
</g>
</g>
<!-- _GH__CASEWORK__CASE_IMPLEMENTATON_PROV_O -->
<g id="node11" class="node">
<title>_GH__CASEWORK__CASE_IMPLEMENTATON_PROV_O</title>
<g id="a_node11"><a xlink:href="https://github.com/casework/CASE-Implementation-PROV-O" xlink:title="case&#45;prov\nreleases">
<path fill="#8ec7d2" stroke="#0d6986" d="M1160.5,-1190C1160.5,-1190 1115.5,-1190 1115.5,-1190 1109.5,-1190 1103.5,-1184 1103.5,-1178 1103.5,-1178 1103.5,-1164 1103.5,-1164 1103.5,-1158 1109.5,-1152 1115.5,-1152 1115.5,-1152 1160.5,-1152 1160.5,-1152 1166.5,-1152 1172.5,-1158 1172.5,-1164 1172.5,-1164 1172.5,-1178 1172.5,-1178 1172.5,-1184 1166.5,-1190 1160.5,-1190"/>
<text text-anchor="middle" x="1138" y="-1174.8" font-family="Times,serif" font-size="14.00">case&#45;prov</text>
<text text-anchor="middle" x="1138" y="-1159.8" font-family="Times,serif" font-size="14.00">releases</text>
</a>
</g>
</g>
<!-- _GH__CASEWORK__CASE_IMPLEMENTATON_PROV_O&#45;&gt;_GH__CASEWORK__CASE_CORPORA -->
<g id="edge6" class="edge">
<title>_GH__CASEWORK__CASE_IMPLEMENTATON_PROV_O&#45;&gt;_GH__CASEWORK__CASE_CORPORA</title>
<path fill="none" stroke="black" d="M1172.9,-1171C1220.1,-1171 1306.96,-1171 1370.38,-1171"/>
<polygon fill="black" stroke="black" points="1370.14,-1174.5 1380.14,-1171 1370.14,-1167.5 1370.14,-1174.5"/>
<text text-anchor="middle" x="1286.5" y="-1174.8" font-family="Times,serif" font-size="14.00">PyPI</text>
</g>
<!-- _GH__CASEWORK__CASE_IMPLEMENTATON_PYPI_EXIFREAD -->
<g id="node12" class="node">
<title>_GH__CASEWORK__CASE_IMPLEMENTATON_PYPI_EXIFREAD</title>
<g id="a_node12"><a xlink:href="https://github.com/casework/CASE-Implementation-PyPI-Exifread" xlink:title="CASE&#45;Implementation&#45;PyPI&#45;Exifread\nadopts new case&#45;validation&#45;action">
<path fill="#8ec7d2" stroke="#0d6986" d="M1238,-970C1238,-970 1038,-970 1038,-970 1032,-970 1026,-964 1026,-958 1026,-958 1026,-944 1026,-944 1026,-938 1032,-932 1038,-932 1038,-932 1238,-932 1238,-932 1244,-932 1250,-938 1250,-944 1250,-944 1250,-958 1250,-958 1250,-964 1244,-970 1238,-970"/>
<text text-anchor="middle" x="1138" y="-954.8" font-family="Times,serif" font-size="14.00">CASE&#45;Implementation&#45;PyPI&#45;Exifread</text>
<text text-anchor="middle" x="1138" y="-939.8" font-family="Times,serif" font-size="14.00">adopts new case&#45;validation&#45;action</text>
</a>
</g>
</g>
<!-- _GH__CASEWORK__CASE_IMPLEMENTATON_PYPI_PILLOW -->
<g id="node13" class="node">
<title>_GH__CASEWORK__CASE_IMPLEMENTATON_PYPI_PILLOW</title>
<g id="a_node13"><a xlink:href="https://github.com/casework/CASE-Implementation-PyPI-Pillow" xlink:title="CASE&#45;Implementation&#45;PyPI&#45;Pillow\nadopts new case&#45;validation&#45;action">
<path fill="#8ec7d2" stroke="#0d6986" d="M1232.5,-746C1232.5,-746 1043.5,-746 1043.5,-746 1037.5,-746 1031.5,-740 1031.5,-734 1031.5,-734 1031.5,-720 1031.5,-720 1031.5,-714 1037.5,-708 1043.5,-708 1043.5,-708 1232.5,-708 1232.5,-708 1238.5,-708 1244.5,-714 1244.5,-720 1244.5,-720 1244.5,-734 1244.5,-734 1244.5,-740 1238.5,-746 1232.5,-746"/>
<text text-anchor="middle" x="1138" y="-730.8" font-family="Times,serif" font-size="14.00">CASE&#45;Implementation&#45;PyPI&#45;Pillow</text>
<text text-anchor="middle" x="1138" y="-715.8" font-family="Times,serif" font-size="14.00">adopts new case&#45;validation&#45;action</text>
</a>
</g>
</g>
<!-- _GH__CASEWORK__CASE_IMPLEMENTATON_UFED_XML -->
<g id="node14" class="node">
<title>_GH__CASEWORK__CASE_IMPLEMENTATON_UFED_XML</title>
<g id="a_node14"><a xlink:href="https://github.com/casework/CASE-Implementation-UFED-XML" xlink:title="CASE&#45;Implementation&#45;UFED&#45;XML\nadopts new case&#45;validation&#45;action">
<path fill="#8ec7d2" stroke="#0d6986" d="M1235,-802C1235,-802 1041,-802 1041,-802 1035,-802 1029,-796 1029,-790 1029,-790 1029,-776 1029,-776 1029,-770 1035,-764 1041,-764 1041,-764 1235,-764 1235,-764 1241,-764 1247,-770 1247,-776 1247,-776 1247,-790 1247,-790 1247,-796 1241,-802 1235,-802"/>
<text text-anchor="middle" x="1138" y="-786.8" font-family="Times,serif" font-size="14.00">CASE&#45;Implementation&#45;UFED&#45;XML</text>
<text text-anchor="middle" x="1138" y="-771.8" font-family="Times,serif" font-size="14.00">adopts new case&#45;validation&#45;action</text>
</a>
</g>
</g>
<!-- _GH__CASEWORK__CASE_IMPLEMENTATON_XRY -->
<g id="node15" class="node">
<title>_GH__CASEWORK__CASE_IMPLEMENTATON_XRY</title>
<g id="a_node15"><a xlink:href="https://github.com/casework/CASE-Implementation-XRY" xlink:title="CASE&#45;Implementation&#45;XRY adopts\nnew case&#45;validation&#45;action">
<path fill="#8ec7d2" stroke="#0d6986" d="M1233,-858C1233,-858 1043,-858 1043,-858 1037,-858 1031,-852 1031,-846 1031,-846 1031,-832 1031,-832 1031,-826 1037,-820 1043,-820 1043,-820 1233,-820 1233,-820 1239,-820 1245,-826 1245,-832 1245,-832 1245,-846 1245,-846 1245,-852 1239,-858 1233,-858"/>
<text text-anchor="middle" x="1138" y="-842.8" font-family="Times,serif" font-size="14.00">CASE&#45;Implementation&#45;XRY adopts</text>
<text text-anchor="middle" x="1138" y="-827.8" font-family="Times,serif" font-size="14.00">new case&#45;validation&#45;action</text>
</a>
</g>
</g>
<!-- _GH__CASEWORK__CASE_MAPPING_TEMPLATE_PYTHON -->
<g id="node16" class="node">
<title>_GH__CASEWORK__CASE_MAPPING_TEMPLATE_PYTHON</title>
<g id="a_node16"><a xlink:href="https://github.com/casework/CASE-Mapping-Template-Python" xlink:title="CASE&#45;Mapping&#45;Template&#45;Python\nadopts new case&#45;validation&#45;action">
<path fill="#8ec7d2" stroke="#0d6986" d="M1228,-914C1228,-914 1048,-914 1048,-914 1042,-914 1036,-908 1036,-902 1036,-902 1036,-888 1036,-888 1036,-882 1042,-876 1048,-876 1048,-876 1228,-876 1228,-876 1234,-876 1240,-882 1240,-888 1240,-888 1240,-902 1240,-902 1240,-908 1234,-914 1228,-914"/>
<text text-anchor="middle" x="1138" y="-898.8" font-family="Times,serif" font-size="14.00">CASE&#45;Mapping&#45;Template&#45;Python</text>
<text text-anchor="middle" x="1138" y="-883.8" font-family="Times,serif" font-size="14.00">adopts new case&#45;validation&#45;action</text>
</a>
</g>
</g>
<!-- _GH__CASEWORK__CASE_BINDINGS_CSHARP_MONITOR -->
<g id="node17" class="node">
<title>_GH__CASEWORK__CASE_BINDINGS_CSHARP_MONITOR</title>
<g id="a_node17"><a xlink:href="https://github.com/casework/CASE-Bindings-CSharp-Monitor" xlink:title="CASE Bindings CSharp Monitor\ntests NuGet package with validation action">
<path fill="#8ec7d2" stroke="#0d6986" d="M1562,-1026C1562,-1026 1335,-1026 1335,-1026 1329,-1026 1323,-1020 1323,-1014 1323,-1014 1323,-1000 1323,-1000 1323,-994 1329,-988 1335,-988 1335,-988 1562,-988 1562,-988 1568,-988 1574,-994 1574,-1000 1574,-1000 1574,-1014 1574,-1014 1574,-1020 1568,-1026 1562,-1026"/>
<text text-anchor="middle" x="1448.5" y="-1010.8" font-family="Times,serif" font-size="14.00">CASE Bindings CSharp Monitor</text>
<text text-anchor="middle" x="1448.5" y="-995.8" font-family="Times,serif" font-size="14.00">tests NuGet package with validation action</text>
</a>
</g>
</g>
<!-- _GH__CIPHERTECHSOLUTIONS__CASE_BINDINGS_CSHARP&#45;&gt;_GH__CASEWORK__CASE_BINDINGS_CSHARP_MONITOR -->
<g id="edge16" class="edge">
<title>_GH__CIPHERTECHSOLUTIONS__CASE_BINDINGS_CSHARP&#45;&gt;_GH__CASEWORK__CASE_BINDINGS_CSHARP_MONITOR</title>
<path fill="none" stroke="black" d="M1224.93,-1007C1251.85,-1007 1282.24,-1007 1311.72,-1007"/>
<polygon fill="black" stroke="black" points="1311.53,-1010.5 1321.53,-1007 1311.53,-1003.5 1311.53,-1010.5"/>
<text text-anchor="middle" x="1286.5" y="-1010.8" font-family="Times,serif" font-size="14.00">NuGet</text>
</g>
<!-- _GH__AJNELSON_NIST__CASE_EXAMPLES_QC -->
<g id="node19" class="node">
<title>_GH__AJNELSON_NIST__CASE_EXAMPLES_QC</title>
<g id="a_node19"><a xlink:href="https://github.com/ajnelson-nist/CASE-Examples-QC" xlink:title="CASE&#45;Examples&#45;QC\nadopts CASE&#45;Examples and\nCASE website updates">
<path fill="#8ec7d2" stroke="#0d6986" d="M1212,-573.5C1212,-573.5 1064,-573.5 1064,-573.5 1058,-573.5 1052,-567.5 1052,-561.5 1052,-561.5 1052,-532.5 1052,-532.5 1052,-526.5 1058,-520.5 1064,-520.5 1064,-520.5 1212,-520.5 1212,-520.5 1218,-520.5 1224,-526.5 1224,-532.5 1224,-532.5 1224,-561.5 1224,-561.5 1224,-567.5 1218,-573.5 1212,-573.5"/>
<text text-anchor="middle" x="1138" y="-558.3" font-family="Times,serif" font-size="14.00">CASE&#45;Examples&#45;QC</text>
<text text-anchor="middle" x="1138" y="-543.3" font-family="Times,serif" font-size="14.00">adopts CASE&#45;Examples and</text>
<text text-anchor="middle" x="1138" y="-528.3" font-family="Times,serif" font-size="14.00">CASE website updates</text>
</a>
</g>
</g>
<!-- _GH__AJNELSON_NIST__CASE_EXAMPLES_QC&#45;&gt;_GH__CASEWORK__CASE_IMPLEMENTATON_PROV_O -->
<g id="edge1" class="edge">
<title>_GH__AJNELSON_NIST__CASE_EXAMPLES_QC&#45;&gt;_GH__CASEWORK__CASE_IMPLEMENTATON_PROV_O</title>
<path fill="none" stroke="black" d="M1107.66,-573.88C1078.27,-601.6 1034.65,-647.51 1010,-696 976.48,-761.93 980.44,-784.53 971.92,-858 959.29,-966.88 952.12,-1088.22 1010,-1148 1030.84,-1169.53 1064.48,-1174.92 1092.04,-1175.11"/>
<polygon fill="black" stroke="black" points="1092.09,-1178.6 1102.03,-1174.93 1091.97,-1171.6 1092.09,-1178.6"/>
<text text-anchor="middle" x="962.5" y="-876.8" font-family="Times,serif" font-size="14.00">Git sub&#45;</text>
<text text-anchor="middle" x="962.5" y="-861.8" font-family="Times,serif" font-size="14.00">module</text>
</g>
<!-- _GH__CASEWORK__CASE_EXAMPLES -->
<g id="node20" class="node">
<title>_GH__CASEWORK__CASE_EXAMPLES</title>
<g id="a_node20"><a xlink:href="https://github.com/casework/CASE-Examples" xlink:title="CASE&#45;Examples\nadopts new case&#45;utils">
<path fill="#8ec7d2" stroke="#0d6986" d="M850.5,-454C850.5,-454 741.5,-454 741.5,-454 735.5,-454 729.5,-448 729.5,-442 729.5,-442 729.5,-428 729.5,-428 729.5,-422 735.5,-416 741.5,-416 741.5,-416 850.5,-416 850.5,-416 856.5,-416 862.5,-422 862.5,-428 862.5,-428 862.5,-442 862.5,-442 862.5,-448 856.5,-454 850.5,-454"/>
<text text-anchor="middle" x="796" y="-438.8" font-family="Times,serif" font-size="14.00">CASE&#45;Examples</text>
<text text-anchor="middle" x="796" y="-423.8" font-family="Times,serif" font-size="14.00">adopts new case&#45;utils</text>
</a>
</g>
</g>
<!-- _GH__CASEWORK__CASE_EXAMPLES&#45;&gt;_GH__AJNELSON_NIST__CASE_EXAMPLES_QC -->
<g id="edge5" class="edge">
<title>_GH__CASEWORK__CASE_EXAMPLES&#45;&gt;_GH__AJNELSON_NIST__CASE_EXAMPLES_QC</title>
<path fill="none" stroke="black" d="M862.94,-449.06C880.01,-453.14 898.29,-457.88 915,-463 964.97,-478.31 1019.92,-499.07 1062.65,-516.12"/>
<polygon fill="black" stroke="black" points="1061.09,-519.67 1071.68,-520.14 1063.7,-513.17 1061.09,-519.67"/>
<text text-anchor="middle" x="962.5" y="-510.8" font-family="Times,serif" font-size="14.00">Git sub&#45;</text>
<text text-anchor="middle" x="962.5" y="-495.8" font-family="Times,serif" font-size="14.00">module</text>
</g>
<!-- _GH__CASEWORK__CASE_IMPLEMENTATON_EXIFTOOL -->
<g id="node21" class="node">
<title>_GH__CASEWORK__CASE_IMPLEMENTATON_EXIFTOOL</title>
<g id="a_node21"><a xlink:href="https://github.com/casework/CASE-Implementation-ExifTool" xlink:title="CASE&#45;Implementation&#45;ExifTool\nadopts new case&#45;utils">
<path fill="#8ec7d2" stroke="#0d6986" d="M882,-510C882,-510 710,-510 710,-510 704,-510 698,-504 698,-498 698,-498 698,-484 698,-484 698,-478 704,-472 710,-472 710,-472 882,-472 882,-472 888,-472 894,-478 894,-484 894,-484 894,-498 894,-498 894,-504 888,-510 882,-510"/>
<text text-anchor="middle" x="796" y="-494.8" font-family="Times,serif" font-size="14.00">CASE&#45;Implementation&#45;ExifTool</text>
<text text-anchor="middle" x="796" y="-479.8" font-family="Times,serif" font-size="14.00">adopts new case&#45;utils</text>
</a>
</g>
</g>
<!-- _GH__CASEWORK__CASE_UTILITIES_PYTHON&#45;&gt;_GH__CASEWORK__CASE_IMPLEMENTATON_GNU_TIME -->
<g id="edge10" class="edge">
<title>_GH__CASEWORK__CASE_UTILITIES_PYTHON&#45;&gt;_GH__CASEWORK__CASE_IMPLEMENTATON_GNU_TIME</title>
<path fill="none" stroke="black" d="M557.73,-566.41C557.89,-631.33 567.27,-843.26 678,-959 691.85,-973.47 938.99,-1052.71 1064.75,-1092.37"/>
<polygon fill="black" stroke="black" points="1063.47,-1095.95 1074.06,-1095.62 1065.57,-1089.27 1063.47,-1095.95"/>
<text text-anchor="middle" x="796" y="-1047.8" font-family="Times,serif" font-size="14.00">PyPI</text>
</g>
<!-- _GH__CASEWORK__CASE_UTILITIES_PYTHON&#45;&gt;_GH__CASEWORK__CASE_IMPLEMENTATON_PROV_O -->
<g id="edge11" class="edge">
<title>_GH__CASEWORK__CASE_UTILITIES_PYTHON&#45;&gt;_GH__CASEWORK__CASE_IMPLEMENTATON_PROV_O</title>
<path fill="none" stroke="black" d="M559.76,-566.33C567.9,-651.26 604.6,-990.32 678,-1062 793.04,-1174.33 1001.56,-1178.48 1092.54,-1174.31"/>
<polygon fill="black" stroke="black" points="1092.49,-1177.76 1102.3,-1173.75 1092.13,-1170.77 1092.49,-1177.76"/>
<text text-anchor="middle" x="796" y="-1167.8" font-family="Times,serif" font-size="14.00">PyPI</text>
</g>
<!-- _GH__CASEWORK__CASE_UTILITIES_PYTHON&#45;&gt;_GH__CASEWORK__CASE_IMPLEMENTATON_PYPI_EXIFREAD -->
<g id="edge12" class="edge">
<title>_GH__CASEWORK__CASE_UTILITIES_PYTHON&#45;&gt;_GH__CASEWORK__CASE_IMPLEMENTATON_PYPI_EXIFREAD</title>
<path fill="none" stroke="black" d="M591.3,-553.53C602.85,-557 615.32,-562.22 625,-570 633.82,-577.09 671.37,-647.83 678,-657 776.47,-793.18 771.46,-872.36 923,-945 932.08,-949.35 971.79,-951.09 1014.58,-951.66"/>
<polygon fill="black" stroke="black" points="1014.47,-955.17 1024.51,-951.78 1014.55,-948.17 1014.47,-955.17"/>
<text text-anchor="middle" x="796" y="-943.8" font-family="Times,serif" font-size="14.00">PyPI</text>
</g>
<!-- _GH__CASEWORK__CASE_UTILITIES_PYTHON&#45;&gt;_GH__AJNELSON_NIST__CASE_EXAMPLES_QC -->
<g id="edge7" class="edge">
<title>_GH__CASEWORK__CASE_UTILITIES_PYTHON&#45;&gt;_GH__AJNELSON_NIST__CASE_EXAMPLES_QC</title>
<path fill="none" stroke="black" d="M591.44,-542.05C603.42,-538.74 616.14,-533.22 625,-524 644.3,-503.93 632.88,-489.94 643,-464 655.93,-430.85 647.84,-410.87 678,-392 767.29,-336.12 814.52,-360.39 915,-392 990.09,-415.62 1061.94,-474.66 1102.65,-512.68"/>
<polygon fill="black" stroke="black" points="1099.95,-514.89 1109.61,-519.22 1104.76,-509.8 1099.95,-514.89"/>
<text text-anchor="middle" x="796" y="-395.8" font-family="Times,serif" font-size="14.00">PyPI</text>
</g>
<!-- _GH__CASEWORK__CASE_UTILITIES_PYTHON&#45;&gt;_GH__CASEWORK__CASE_EXAMPLES -->
<g id="edge8" class="edge">
<title>_GH__CASEWORK__CASE_UTILITIES_PYTHON&#45;&gt;_GH__CASEWORK__CASE_EXAMPLES</title>
<path fill="none" stroke="black" d="M591.5,-539.63C602.81,-536.1 615.08,-531.06 625,-524 635.57,-516.47 634.6,-510.89 643,-501 657.87,-483.5 658.2,-474.62 678,-463 690.47,-455.68 704.74,-450.28 718.94,-446.28"/>
<polygon fill="black" stroke="black" points="719.43,-449.51 728.23,-443.62 717.68,-442.74 719.43,-449.51"/>
<text text-anchor="middle" x="656.5" y="-504.8" font-family="Times,serif" font-size="14.00">PyPI</text>
</g>
<!-- _GH__CASEWORK__CASE_UTILITIES_PYTHON&#45;&gt;_GH__CASEWORK__CASE_IMPLEMENTATON_EXIFTOOL -->
<g id="edge9" class="edge">
<title>_GH__CASEWORK__CASE_UTILITIES_PYTHON&#45;&gt;_GH__CASEWORK__CASE_IMPLEMENTATON_EXIFTOOL</title>
<path fill="none" stroke="black" d="M591.45,-539.1C620.27,-532.29 663.26,-522.13 702.32,-512.9"/>
<polygon fill="black" stroke="black" points="702.76,-516.16 711.68,-510.45 701.15,-509.34 702.76,-516.16"/>
<text text-anchor="middle" x="656.5" y="-528.8" font-family="Times,serif" font-size="14.00">PyPI</text>
</g>
<!-- _GH__CASEWORK__CASEWORK_GITHUB_IO -->
<g id="node23" class="node">
<title>_GH__CASEWORK__CASEWORK_GITHUB_IO</title>
<g id="a_node23"><a xlink:href="https://github.com/casework/casework.github.io" xlink:title="CASE website\nadopts new case&#45;utils">
<path fill="#8ec7d2" stroke="#0d6986" d="M850.5,-566C850.5,-566 741.5,-566 741.5,-566 735.5,-566 729.5,-560 729.5,-554 729.5,-554 729.5,-540 729.5,-540 729.5,-534 735.5,-528 741.5,-528 741.5,-528 850.5,-528 850.5,-528 856.5,-528 862.5,-534 862.5,-540 862.5,-540 862.5,-554 862.5,-554 862.5,-560 856.5,-566 850.5,-566"/>
<text text-anchor="middle" x="796" y="-550.8" font-family="Times,serif" font-size="14.00">CASE website</text>
<text text-anchor="middle" x="796" y="-535.8" font-family="Times,serif" font-size="14.00">adopts new case&#45;utils</text>
</a>
</g>
</g>
<!-- _GH__CASEWORK__CASE_UTILITIES_PYTHON&#45;&gt;_GH__CASEWORK__CASEWORK_GITHUB_IO -->
<g id="edge14" class="edge">
<title>_GH__CASEWORK__CASE_UTILITIES_PYTHON&#45;&gt;_GH__CASEWORK__CASEWORK_GITHUB_IO</title>
<path fill="none" stroke="black" d="M591.45,-547C624.2,-547 675.27,-547 718.05,-547"/>
<polygon fill="black" stroke="black" points="718.02,-550.5 728.02,-547 718.02,-543.5 718.02,-550.5"/>
<text text-anchor="middle" x="656.5" y="-550.8" font-family="Times,serif" font-size="14.00">PyPI</text>
</g>
<!-- _GH__KCHASON__CASE_VALIDATION_ACTION -->
<g id="node24" class="node">
<title>_GH__KCHASON__CASE_VALIDATION_ACTION</title>
<g id="a_node24"><a xlink:href="https://github.com/kchason/case-validation-action" xlink:title="case&#45;validation&#45;action\nreleases">
<path fill="#8ec7d2" stroke="#0d6986" d="M852,-622C852,-622 740,-622 740,-622 734,-622 728,-616 728,-610 728,-610 728,-596 728,-596 728,-590 734,-584 740,-584 740,-584 852,-584 852,-584 858,-584 864,-590 864,-596 864,-596 864,-610 864,-610 864,-616 858,-622 852,-622"/>
<text text-anchor="middle" x="796" y="-606.8" font-family="Times,serif" font-size="14.00">case&#45;validation&#45;action</text>
<text text-anchor="middle" x="796" y="-591.8" font-family="Times,serif" font-size="14.00">releases</text>
</a>
</g>
</g>
<!-- _GH__CASEWORK__CASE_UTILITIES_PYTHON&#45;&gt;_GH__KCHASON__CASE_VALIDATION_ACTION -->
<g id="edge13" class="edge">
<title>_GH__CASEWORK__CASE_UTILITIES_PYTHON&#45;&gt;_GH__KCHASON__CASE_VALIDATION_ACTION</title>
<path fill="none" stroke="black" d="M591.45,-556.92C615.43,-563.85 648.56,-573.07 678,-580 690.64,-582.98 704.11,-585.87 717.25,-588.56"/>
<polygon fill="black" stroke="black" points="716.19,-592.11 726.69,-590.66 717.57,-585.25 716.19,-592.11"/>
<text text-anchor="middle" x="656.5" y="-580.8" font-family="Times,serif" font-size="14.00">PyPI</text>
</g>
<!-- _GH__CASEWORK__CASEWORK_GITHUB_IO&#45;&gt;_GH__AJNELSON_NIST__CASE_EXAMPLES_QC -->
<g id="edge15" class="edge">
<title>_GH__CASEWORK__CASEWORK_GITHUB_IO&#45;&gt;_GH__AJNELSON_NIST__CASE_EXAMPLES_QC</title>
<path fill="none" stroke="black" d="M862.96,-547C913.48,-547 983.93,-547 1040.75,-547"/>
<polygon fill="black" stroke="black" points="1040.55,-550.5 1050.55,-547 1040.55,-543.5 1040.55,-550.5"/>
<text text-anchor="middle" x="962.5" y="-565.8" font-family="Times,serif" font-size="14.00">Git sub&#45;</text>
<text text-anchor="middle" x="962.5" y="-550.8" font-family="Times,serif" font-size="14.00">module</text>
</g>
<!-- _GH__KCHASON__CASE_VALIDATION_ACTION&#45;&gt;_GH__CASEWORK__CASE_IMPLEMENTATON_PYPI_EXIFREAD -->
<g id="edge18" class="edge">
<title>_GH__KCHASON__CASE_VALIDATION_ACTION&#45;&gt;_GH__CASEWORK__CASE_IMPLEMENTATON_PYPI_EXIFREAD</title>
<path fill="none" stroke="black" d="M799.8,-622.37C808.3,-673.97 838.57,-815.94 923,-891 950.43,-915.38 970.53,-896.13 1002,-915 1006.31,-917.59 1005.59,-920.58 1010,-923 1012.74,-924.5 1015.55,-925.92 1018.42,-927.26"/>
<polygon fill="black" stroke="black" points="1016.82,-930.81 1027.39,-931.55 1019.58,-924.38 1016.82,-930.81"/>
<text text-anchor="middle" x="962.5" y="-933.8" font-family="Times,serif" font-size="14.00">GitHub</text>
<text text-anchor="middle" x="962.5" y="-918.8" font-family="Times,serif" font-size="14.00">Action</text>
</g>
<!-- _GH__KCHASON__CASE_VALIDATION_ACTION&#45;&gt;_GH__CASEWORK__CASE_IMPLEMENTATON_PYPI_PILLOW -->
<g id="edge19" class="edge">
<title>_GH__KCHASON__CASE_VALIDATION_ACTION&#45;&gt;_GH__CASEWORK__CASE_IMPLEMENTATON_PYPI_PILLOW</title>
<path fill="none" stroke="black" d="M864.2,-595.5C909.29,-594.42 966.7,-601.39 1002,-637 1018.15,-653.29 994.97,-670.66 1010,-688 1014.56,-693.26 1019.81,-697.82 1025.53,-701.78"/>
<polygon fill="black" stroke="black" points="1023.5,-705.26 1033.86,-707.51 1027.17,-699.29 1023.5,-705.26"/>
<text text-anchor="middle" x="962.5" y="-655.8" font-family="Times,serif" font-size="14.00">GitHub</text>
<text text-anchor="middle" x="962.5" y="-640.8" font-family="Times,serif" font-size="14.00">Action</text>
</g>
<!-- _GH__KCHASON__CASE_VALIDATION_ACTION&#45;&gt;_GH__CASEWORK__CASE_IMPLEMENTATON_UFED_XML -->
<g id="edge20" class="edge">
<title>_GH__KCHASON__CASE_VALIDATION_ACTION&#45;&gt;_GH__CASEWORK__CASE_IMPLEMENTATON_UFED_XML</title>
<path fill="none" stroke="black" d="M834.99,-622.44C859.96,-635.18 893.38,-652.17 923,-667 958.01,-684.53 978.71,-674.52 1002,-706 1015.13,-723.74 994.83,-738.97 1010,-755 1012.97,-758.14 1016.21,-760.97 1019.65,-763.51"/>
<polygon fill="black" stroke="black" points="1017.31,-766.8 1027.62,-769.26 1021.09,-760.91 1017.31,-766.8"/>
<text text-anchor="middle" x="962.5" y="-724.8" font-family="Times,serif" font-size="14.00">GitHub</text>
<text text-anchor="middle" x="962.5" y="-709.8" font-family="Times,serif" font-size="14.00">Action</text>
</g>
<!-- _GH__KCHASON__CASE_VALIDATION_ACTION&#45;&gt;_GH__CASEWORK__CASE_IMPLEMENTATON_XRY -->
<g id="edge21" class="edge">
<title>_GH__KCHASON__CASE_VALIDATION_ACTION&#45;&gt;_GH__CASEWORK__CASE_IMPLEMENTATON_XRY</title>
<path fill="none" stroke="black" d="M810.82,-622.27C832.04,-650.66 875.26,-703.82 923,-736 954.27,-757.08 978.04,-737.87 1002,-767 1014.63,-782.35 996.21,-796.69 1010,-811 1013.44,-814.57 1017.23,-817.74 1021.27,-820.54"/>
<polygon fill="black" stroke="black" points="1019.14,-823.94 1029.51,-826.11 1022.76,-817.95 1019.14,-823.94"/>
<text text-anchor="middle" x="962.5" y="-785.8" font-family="Times,serif" font-size="14.00">GitHub</text>
<text text-anchor="middle" x="962.5" y="-770.8" font-family="Times,serif" font-size="14.00">Action</text>
</g>
<!-- _GH__KCHASON__CASE_VALIDATION_ACTION&#45;&gt;_GH__CASEWORK__CASE_MAPPING_TEMPLATE_PYTHON -->
<g id="edge22" class="edge">
<title>_GH__KCHASON__CASE_VALIDATION_ACTION&#45;&gt;_GH__CASEWORK__CASE_MAPPING_TEMPLATE_PYTHON</title>
<path fill="none" stroke="black" d="M804.41,-622.3C820.25,-661.05 861.07,-748.73 923,-797 952.27,-819.81 977.74,-795.93 1002,-824 1014.71,-838.71 996.48,-853.03 1010,-867 1014.79,-871.95 1020.24,-876.12 1026.13,-879.62"/>
<polygon fill="black" stroke="black" points="1024.23,-883.1 1034.72,-884.6 1027.45,-876.88 1024.23,-883.1"/>
<text text-anchor="middle" x="962.5" y="-842.8" font-family="Times,serif" font-size="14.00">GitHub</text>
<text text-anchor="middle" x="962.5" y="-827.8" font-family="Times,serif" font-size="14.00">Action</text>
</g>
<!-- _GH__KCHASON__CASE_VALIDATION_ACTION&#45;&gt;_GH__CASEWORK__CASE_BINDINGS_CSHARP_MONITOR -->
<g id="edge17" class="edge">
<title>_GH__KCHASON__CASE_VALIDATION_ACTION&#45;&gt;_GH__CASEWORK__CASE_BINDINGS_CSHARP_MONITOR</title>
<path fill="none" stroke="black" d="M864.22,-604.82C883.33,-601.79 902.36,-594.73 915,-580 929.41,-563.21 908.04,-397.3 923,-381 946.93,-354.93 972.86,-391.08 1002,-371 1008.22,-366.71 1003.52,-359.89 1010,-356 1101.47,-301.12 1164.32,-292.46 1250,-356 1354.43,-433.45 1425.32,-859.2 1443.11,-976.86"/>
<polygon fill="black" stroke="black" points="1439.77,-977.19 1444.71,-986.57 1446.7,-976.16 1439.77,-977.19"/>
<text text-anchor="middle" x="1138" y="-374.8" font-family="Times,serif" font-size="14.00">GitHub</text>
<text text-anchor="middle" x="1138" y="-359.8" font-family="Times,serif" font-size="14.00">Action</text>
</g>
<!-- _GH__DOD_CYBER_CRIME_CENTER__SQLITE_DISSECT -->
<g id="node25" class="node">
<title>_GH__DOD_CYBER_CRIME_CENTER__SQLITE_DISSECT</title>
<g id="a_node25"><a xlink:href="https://github.com/dod-cyber-crime-center/sqlite-dissect" xlink:title="sqlite&#45;dissect\nadopts new case&#45;validation&#45;action">
<path fill="#8ec7d2" stroke="#0d6986" d="M1226.5,-178C1226.5,-178 1049.5,-178 1049.5,-178 1043.5,-178 1037.5,-172 1037.5,-166 1037.5,-166 1037.5,-152 1037.5,-152 1037.5,-146 1043.5,-140 1049.5,-140 1049.5,-140 1226.5,-140 1226.5,-140 1232.5,-140 1238.5,-146 1238.5,-152 1238.5,-152 1238.5,-166 1238.5,-166 1238.5,-172 1232.5,-178 1226.5,-178"/>
<text text-anchor="middle" x="1138" y="-162.8" font-family="Times,serif" font-size="14.00">sqlite&#45;dissect</text>
<text text-anchor="middle" x="1138" y="-147.8" font-family="Times,serif" font-size="14.00">adopts new case&#45;validation&#45;action</text>
</a>
</g>
</g>
<!-- _GH__KCHASON__CASE_VALIDATION_ACTION&#45;&gt;_GH__DOD_CYBER_CRIME_CENTER__SQLITE_DISSECT -->
<g id="edge23" class="edge">
<title>_GH__KCHASON__CASE_VALIDATION_ACTION&#45;&gt;_GH__DOD_CYBER_CRIME_CENTER__SQLITE_DISSECT</title>
<g id="a_edge23"><a xlink:href="https://github.com/dod-cyber-crime-center/sqlite-dissect/pull/31" xlink:title="TODO: PR 31">
<path fill="none" stroke="black" d="M864.26,-604.85C883.37,-601.83 902.39,-594.76 915,-580 931.18,-561.06 912.59,-378.62 923,-356 958.97,-277.83 1041.86,-216.44 1093.28,-184.13"/>
<polygon fill="black" stroke="black" points="1094.83,-186.67 1101.5,-178.44 1091.15,-180.72 1094.83,-186.67"/>
</a>
</g>
<g id="a_edge23&#45;label"><a xlink:href="https://github.com/dod-cyber-crime-center/sqlite-dissect/pull/31" xlink:title="TODO: PR 31">
<text text-anchor="middle" x="962.5" y="-359.8" font-family="Times,serif" font-size="14.00">TODO: PR 31</text>
</a>
</g>
</g>
</g>
</svg>
