<?xml version="1.0" encoding="UTF-8" standalone="no"?>
<!DOCTYPE svg PUBLIC "-//W3C//DTD SVG 1.1//EN"
 "http://www.w3.org/Graphics/SVG/1.1/DTD/svg11.dtd">
<!-- Generated by graphviz version 7.1.0 (20230121.1956)
 -->
<!-- Title: cdo_release_flow Pages: 1 -->
<svg width="1980pt" height="1080pt"
 viewBox="0.00 0.00 1980.00 1080.04" xmlns="http://www.w3.org/2000/svg" xmlns:xlink="http://www.w3.org/1999/xlink">
<g id="graph0" class="graph" transform="scale(1 1) rotate(0) translate(4 1076.04)">
<title>cdo_release_flow</title>
<polygon fill="white" stroke="none" points="-4,4 -4,-1076.04 1976,-1076.04 1976,4 -4,4"/>
<text text-anchor="middle" x="986" y="-38.8" font-family="Times,serif" font-size="14.00">Release flow of CDO ontologies</text>
<text text-anchor="middle" x="986" y="-7.8" font-family="Times,serif" font-size="14.00">Nodes link to the respective Git repository.</text>
<g id="clust1" class="cluster">
<title>cluster_uco_0_9_1</title>
<polygon fill="none" stroke="black" points="189,-728.04 189,-892.04 357,-892.04 357,-728.04 189,-728.04"/>
<text text-anchor="middle" x="273" y="-876.84" font-family="Times,serif" font-size="14.00">Adoption of UCO 0.9.1</text>
</g>
<g id="clust2" class="cluster">
<title>cluster_case_0_7_1</title>
<polygon fill="none" stroke="black" points="197,-784.04 197,-861.04 349,-861.04 349,-784.04 197,-784.04"/>
<text text-anchor="middle" x="273" y="-845.84" font-family="Times,serif" font-size="14.00">Adoption of CASE 0.7.1</text>
</g>
<g id="clust3" class="cluster">
<title>cluster_uco_1_1_0</title>
<polygon fill="none" stroke="black" points="991,-153.04 991,-843.04 1964,-843.04 1964,-153.04 991,-153.04"/>
<text text-anchor="middle" x="1477.5" y="-827.84" font-family="Times,serif" font-size="14.00">Adoption of UCO 1.1.0</text>
</g>
<g id="clust4" class="cluster">
<title>cluster_case_1_1_0</title>
<polygon fill="none" stroke="black" points="999,-161.04 999,-812.04 1956,-812.04 1956,-161.04 999,-161.04"/>
<text text-anchor="middle" x="1477.5" y="-796.84" font-family="Times,serif" font-size="14.00">Adoption of CASE 1.1.0</text>
</g>
<g id="clust5" class="cluster">
<title>cluster_case_utils_0_9_0</title>
<polygon fill="none" stroke="black" points="1007,-169.04 1007,-781.04 1948,-781.04 1948,-169.04 1007,-169.04"/>
<text text-anchor="middle" x="1477.5" y="-765.84" font-family="Times,serif" font-size="14.00">Adoption of case&#45;utils 0.9.0</text>
</g>
<g id="clust6" class="cluster">
<title>cluster_case_prov_0_6_0</title>
<polygon fill="none" stroke="black" points="1658,-561.04 1658,-638.04 1940,-638.04 1940,-561.04 1658,-561.04"/>
<text text-anchor="middle" x="1799" y="-622.84" font-family="Times,serif" font-size="14.00">Adoption of case&#45;prov 0.6.0</text>
</g>
<g id="clust7" class="cluster">
<title>cluster_case_validation_action_2_3</title>
<polygon fill="none" stroke="black" points="1018,-673.04 1018,-750.04 1252,-750.04 1252,-673.04 1018,-673.04"/>
<text text-anchor="middle" x="1135" y="-734.84" font-family="Times,serif" font-size="14.00">Adoption of case&#45;validation&#45;action 2.3</text>
</g>
<g id="clust8" class="cluster">
<title>cluster_case_validation_action_2_5</title>
<polygon fill="none" stroke="black" points="1015,-335.04 1015,-665.04 1595,-665.04 1595,-335.04 1015,-335.04"/>
<text text-anchor="middle" x="1305" y="-649.84" font-family="Times,serif" font-size="14.00">Adoption of case&#45;validation&#45;action 2.5</text>
</g>
<g id="clust9" class="cluster">
<title>cluster_case_bindings_csharp_0_3_0</title>
<polygon fill="none" stroke="black" points="1040.5,-343.04 1040.5,-420.04 1587,-420.04 1587,-343.04 1040.5,-343.04"/>
<text text-anchor="middle" x="1313.75" y="-404.84" font-family="Times,serif" font-size="14.00">Adoption of CSharp bindings 0.3.0</text>
</g>
<g id="clust10" class="cluster">
<title>cluster_uco_1_2_0</title>
<polygon fill="none" stroke="black" points="8,-434.04 8,-720.04 896,-720.04 896,-434.04 8,-434.04"/>
<text text-anchor="middle" x="452" y="-704.84" font-family="Times,serif" font-size="14.00">Adoption of UCO 1.2.0</text>
</g>
<g id="clust11" class="cluster">
<title>cluster_case_1_2_0</title>
<polygon fill="none" stroke="black" points="212,-442.04 212,-689.04 888,-689.04 888,-442.04 212,-442.04"/>
<text text-anchor="middle" x="550" y="-673.84" font-family="Times,serif" font-size="14.00">Adoption of CASE 1.2.0</text>
</g>
<g id="clust12" class="cluster">
<title>cluster_case_utils_0_10_0</title>
<polygon fill="none" stroke="black" points="456,-496.04 456,-658.04 880,-658.04 880,-496.04 456,-496.04"/>
<text text-anchor="middle" x="668" y="-642.84" font-family="Times,serif" font-size="14.00">Adoption of case&#45;utils 0.10.0</text>
</g>
<g id="clust13" class="cluster">
<title>cluster_case_validation_action_2_6</title>
<polygon fill="none" stroke="black" points="645,-504.04 645,-581.04 872,-581.04 872,-504.04 645,-504.04"/>
<text text-anchor="middle" x="758.5" y="-565.84" font-family="Times,serif" font-size="14.00">Adoption of case&#45;validation&#45;action 2.6</text>
</g>
<!-- _GH__UCOPROJECT__ONTOLOGY_UNIFIEDCYBERONTOLOGY_ORG -->
<g id="node1" class="node">
<title>_GH__UCOPROJECT__ONTOLOGY_UNIFIEDCYBERONTOLOGY_ORG</title>
<g id="a_node1"><a xlink:href="https://github.com/ucoProject/ontology.unifiedcyberontology.org" xlink:title="UCO documentation\nregenerated">
<path fill="#8ec7d2" stroke="#0d6986" d="M326,-774.04C326,-774.04 220,-774.04 220,-774.04 214,-774.04 208,-768.04 208,-762.04 208,-762.04 208,-748.04 208,-748.04 208,-742.04 214,-736.04 220,-736.04 220,-736.04 326,-736.04 326,-736.04 332,-736.04 338,-742.04 338,-748.04 338,-748.04 338,-762.04 338,-762.04 338,-768.04 332,-774.04 326,-774.04"/>
<text text-anchor="middle" x="273" y="-758.84" font-family="Times,serif" font-size="14.00">UCO documentation</text>
<text text-anchor="middle" x="273" y="-743.84" font-family="Times,serif" font-size="14.00">regenerated</text>
</a>
</g>
</g>
<!-- _GH__CASEWORK__CASE_MAPPING_TEMPLATE_STUBS -->
<g id="node2" class="node">
<title>_GH__CASEWORK__CASE_MAPPING_TEMPLATE_STUBS</title>
<g id="a_node2"><a xlink:href="https://github.com/casework/CASE-Mapping-Template-Stubs" xlink:title="CASE Mapping\nTemplate Stubs">
<path fill="#8ec7d2" stroke="#0d6986" d="M313,-830.04C313,-830.04 233,-830.04 233,-830.04 227,-830.04 221,-824.04 221,-818.04 221,-818.04 221,-804.04 221,-804.04 221,-798.04 227,-792.04 233,-792.04 233,-792.04 313,-792.04 313,-792.04 319,-792.04 325,-798.04 325,-804.04 325,-804.04 325,-818.04 325,-818.04 325,-824.04 319,-830.04 313,-830.04"/>
<text text-anchor="middle" x="273" y="-814.84" font-family="Times,serif" font-size="14.00">CASE Mapping</text>
<text text-anchor="middle" x="273" y="-799.84" font-family="Times,serif" font-size="14.00">Template Stubs</text>
</a>
</g>
</g>
<!-- _GH__AJNELSON_NIST__CASE_EXAMPLES_QC -->
<g id="node3" class="node">
<title>_GH__AJNELSON_NIST__CASE_EXAMPLES_QC</title>
<g id="a_node3"><a xlink:href="https://github.com/ajnelson-nist/CASE-Examples-QC" xlink:title="CASE&#45;Examples&#45;QC\nadopts CASE&#45;Examples and\nCASE website updates">
<path fill="#8ec7d2" stroke="#0d6986" d="M1527.5,-278.54C1527.5,-278.54 1379.5,-278.54 1379.5,-278.54 1373.5,-278.54 1367.5,-272.54 1367.5,-266.54 1367.5,-266.54 1367.5,-237.54 1367.5,-237.54 1367.5,-231.54 1373.5,-225.54 1379.5,-225.54 1379.5,-225.54 1527.5,-225.54 1527.5,-225.54 1533.5,-225.54 1539.5,-231.54 1539.5,-237.54 1539.5,-237.54 1539.5,-266.54 1539.5,-266.54 1539.5,-272.54 1533.5,-278.54 1527.5,-278.54"/>
<text text-anchor="middle" x="1453.5" y="-263.34" font-family="Times,serif" font-size="14.00">CASE&#45;Examples&#45;QC</text>
<text text-anchor="middle" x="1453.5" y="-248.34" font-family="Times,serif" font-size="14.00">adopts CASE&#45;Examples and</text>
<text text-anchor="middle" x="1453.5" y="-233.34" font-family="Times,serif" font-size="14.00">CASE website updates</text>
</a>
</g>
</g>
<!-- _GH__CASEWORK__CASE_IMPLEMENTATON_PROV_O -->
<g id="node8" class="node">
<title>_GH__CASEWORK__CASE_IMPLEMENTATON_PROV_O</title>
<g id="a_node8"><a xlink:href="https://github.com/casework/CASE-Implementation-PROV-O" xlink:title="case&#45;prov\nreleases">
<path fill="#8ec7d2" stroke="#0d6986" d="M1723,-607.04C1723,-607.04 1678,-607.04 1678,-607.04 1672,-607.04 1666,-601.04 1666,-595.04 1666,-595.04 1666,-581.04 1666,-581.04 1666,-575.04 1672,-569.04 1678,-569.04 1678,-569.04 1723,-569.04 1723,-569.04 1729,-569.04 1735,-575.04 1735,-581.04 1735,-581.04 1735,-595.04 1735,-595.04 1735,-601.04 1729,-607.04 1723,-607.04"/>
<text text-anchor="middle" x="1700.5" y="-591.84" font-family="Times,serif" font-size="14.00">case&#45;prov</text>
<text text-anchor="middle" x="1700.5" y="-576.84" font-family="Times,serif" font-size="14.00">releases</text>
</a>
</g>
</g>
<!-- _GH__AJNELSON_NIST__CASE_EXAMPLES_QC&#45;&gt;_GH__CASEWORK__CASE_IMPLEMENTATON_PROV_O -->
<g id="edge1" class="edge">
<title>_GH__AJNELSON_NIST__CASE_EXAMPLES_QC&#45;&gt;_GH__CASEWORK__CASE_IMPLEMENTATON_PROV_O</title>
<path fill="none" stroke="black" d="M1515.21,-278.93C1542.51,-293.5 1573.39,-313.73 1595,-339.04 1651.8,-405.54 1681.31,-507.34 1693.14,-557.69"/>
<polygon fill="black" stroke="black" points="1689.69,-558.3 1695.32,-567.28 1696.52,-556.75 1689.69,-558.3"/>
<text text-anchor="middle" x="1625.5" y="-437.84" font-family="Times,serif" font-size="14.00">Git sub&#45;</text>
<text text-anchor="middle" x="1625.5" y="-422.84" font-family="Times,serif" font-size="14.00">module</text>
</g>
<!-- _GH__CASEWORK__CASE_IMPLEMENTATON_EXIFTOOL -->
<g id="node4" class="node">
<title>_GH__CASEWORK__CASE_IMPLEMENTATON_EXIFTOOL</title>
<g id="a_node4"><a xlink:href="https://github.com/casework/CASE-Implementation-ExifTool" xlink:title="CASE&#45;Implementation&#45;ExifTool\nadopts new case&#45;utils">
<path fill="#8ec7d2" stroke="#0d6986" d="M1221,-327.04C1221,-327.04 1049,-327.04 1049,-327.04 1043,-327.04 1037,-321.04 1037,-315.04 1037,-315.04 1037,-301.04 1037,-301.04 1037,-295.04 1043,-289.04 1049,-289.04 1049,-289.04 1221,-289.04 1221,-289.04 1227,-289.04 1233,-295.04 1233,-301.04 1233,-301.04 1233,-315.04 1233,-315.04 1233,-321.04 1227,-327.04 1221,-327.04"/>
<text text-anchor="middle" x="1135" y="-311.84" font-family="Times,serif" font-size="14.00">CASE&#45;Implementation&#45;ExifTool</text>
<text text-anchor="middle" x="1135" y="-296.84" font-family="Times,serif" font-size="14.00">adopts new case&#45;utils</text>
</a>
</g>
</g>
<!-- _GH__CASEWORK__CASE_IMPLEMENTATON_GNU_TIME -->
<g id="node5" class="node">
<title>_GH__CASEWORK__CASE_IMPLEMENTATON_GNU_TIME</title>
<g id="a_node5"><a xlink:href="https://github.com/casework/CASE-Implementation-GNU-Time" xlink:title="CASE&#45;Implementation&#45;GNU&#45;Time\nadopts new case&#45;utils">
<path fill="#8ec7d2" stroke="#0d6986" d="M1228,-271.04C1228,-271.04 1042,-271.04 1042,-271.04 1036,-271.04 1030,-265.04 1030,-259.04 1030,-259.04 1030,-245.04 1030,-245.04 1030,-239.04 1036,-233.04 1042,-233.04 1042,-233.04 1228,-233.04 1228,-233.04 1234,-233.04 1240,-239.04 1240,-245.04 1240,-245.04 1240,-259.04 1240,-259.04 1240,-265.04 1234,-271.04 1228,-271.04"/>
<text text-anchor="middle" x="1135" y="-255.84" font-family="Times,serif" font-size="14.00">CASE&#45;Implementation&#45;GNU&#45;Time</text>
<text text-anchor="middle" x="1135" y="-240.84" font-family="Times,serif" font-size="14.00">adopts new case&#45;utils</text>
</a>
</g>
</g>
<!-- _GH__CASEWORK__CASEWORK_GITHUB_IO -->
<g id="node6" class="node">
<title>_GH__CASEWORK__CASEWORK_GITHUB_IO</title>
<g id="a_node6"><a xlink:href="https://github.com/casework/casework.github.io" xlink:title="CASE website\nadopts new case&#45;utils">
<path fill="#8ec7d2" stroke="#0d6986" d="M1189.5,-215.04C1189.5,-215.04 1080.5,-215.04 1080.5,-215.04 1074.5,-215.04 1068.5,-209.04 1068.5,-203.04 1068.5,-203.04 1068.5,-189.04 1068.5,-189.04 1068.5,-183.04 1074.5,-177.04 1080.5,-177.04 1080.5,-177.04 1189.5,-177.04 1189.5,-177.04 1195.5,-177.04 1201.5,-183.04 1201.5,-189.04 1201.5,-189.04 1201.5,-203.04 1201.5,-203.04 1201.5,-209.04 1195.5,-215.04 1189.5,-215.04"/>
<text text-anchor="middle" x="1135" y="-199.84" font-family="Times,serif" font-size="14.00">CASE website</text>
<text text-anchor="middle" x="1135" y="-184.84" font-family="Times,serif" font-size="14.00">adopts new case&#45;utils</text>
</a>
</g>
</g>
<!-- _GH__CASEWORK__CASEWORK_GITHUB_IO&#45;&gt;_GH__AJNELSON_NIST__CASE_EXAMPLES_QC -->
<g id="edge14" class="edge">
<title>_GH__CASEWORK__CASEWORK_GITHUB_IO&#45;&gt;_GH__AJNELSON_NIST__CASE_EXAMPLES_QC</title>
<path fill="none" stroke="black" d="M1201.96,-207.71C1246.51,-215.59 1306.06,-226.13 1355.92,-234.95"/>
<polygon fill="black" stroke="black" points="1355.11,-238.36 1365.57,-236.66 1356.33,-231.47 1355.11,-238.36"/>
<text text-anchor="middle" x="1287.5" y="-243.84" font-family="Times,serif" font-size="14.00">Git sub&#45;</text>
<text text-anchor="middle" x="1287.5" y="-228.84" font-family="Times,serif" font-size="14.00">module</text>
</g>
<!-- _GH__CASEWORK__CASE_CORPORA -->
<g id="node7" class="node">
<title>_GH__CASEWORK__CASE_CORPORA</title>
<g id="a_node7"><a xlink:href="https://github.com/casework/CASE-Corpora" xlink:title="CASE&#45;Corpora\nadopts new case&#45;prov">
<path fill="#8ec7d2" stroke="#0d6986" d="M1920,-607.04C1920,-607.04 1810,-607.04 1810,-607.04 1804,-607.04 1798,-601.04 1798,-595.04 1798,-595.04 1798,-581.04 1798,-581.04 1798,-575.04 1804,-569.04 1810,-569.04 1810,-569.04 1920,-569.04 1920,-569.04 1926,-569.04 1932,-575.04 1932,-581.04 1932,-581.04 1932,-595.04 1932,-595.04 1932,-601.04 1926,-607.04 1920,-607.04"/>
<text text-anchor="middle" x="1865" y="-591.84" font-family="Times,serif" font-size="14.00">CASE&#45;Corpora</text>
<text text-anchor="middle" x="1865" y="-576.84" font-family="Times,serif" font-size="14.00">adopts new case&#45;prov</text>
</a>
</g>
</g>
<!-- _GH__CASEWORK__CASE_IMPLEMENTATON_PROV_O&#45;&gt;_GH__CASEWORK__CASE_CORPORA -->
<g id="edge6" class="edge">
<title>_GH__CASEWORK__CASE_IMPLEMENTATON_PROV_O&#45;&gt;_GH__CASEWORK__CASE_CORPORA</title>
<path fill="none" stroke="black" d="M1735.17,-588.04C1750.03,-588.04 1768.18,-588.04 1786.11,-588.04"/>
<polygon fill="black" stroke="black" points="1786,-591.54 1796,-588.04 1786,-584.54 1786,-591.54"/>
<text text-anchor="middle" x="1766.5" y="-591.84" font-family="Times,serif" font-size="14.00">PyPI</text>
</g>
<!-- _GH__CASEWORK__CASE_IMPLEMENTATON_UFED_XML -->
<g id="node9" class="node">
<title>_GH__CASEWORK__CASE_IMPLEMENTATON_UFED_XML</title>
<g id="a_node9"><a xlink:href="https://github.com/casework/CASE-Implementation-UFED-XML" xlink:title="CASE&#45;Implementation&#45;UFED&#45;XML\nadopts new case&#45;validation&#45;action">
<path fill="#8ec7d2" stroke="#0d6986" d="M1232,-719.04C1232,-719.04 1038,-719.04 1038,-719.04 1032,-719.04 1026,-713.04 1026,-707.04 1026,-707.04 1026,-693.04 1026,-693.04 1026,-687.04 1032,-681.04 1038,-681.04 1038,-681.04 1232,-681.04 1232,-681.04 1238,-681.04 1244,-687.04 1244,-693.04 1244,-693.04 1244,-707.04 1244,-707.04 1244,-713.04 1238,-719.04 1232,-719.04"/>
<text text-anchor="middle" x="1135" y="-703.84" font-family="Times,serif" font-size="14.00">CASE&#45;Implementation&#45;UFED&#45;XML</text>
<text text-anchor="middle" x="1135" y="-688.84" font-family="Times,serif" font-size="14.00">adopts new case&#45;validation&#45;action</text>
</a>
</g>
</g>
<!-- _GH__CASEWORK__CASE_IMPLEMENTATON_PYPI_EXIFREAD -->
<g id="node10" class="node">
<title>_GH__CASEWORK__CASE_IMPLEMENTATON_PYPI_EXIFREAD</title>
<g id="a_node10"><a xlink:href="https://github.com/casework/CASE-Implementation-PyPI-Exifread" xlink:title="CASE&#45;Implementation&#45;PyPI&#45;Exifread\nadopts new case&#45;validation&#45;action">
<path fill="#8ec7d2" stroke="#0d6986" d="M1235,-522.04C1235,-522.04 1035,-522.04 1035,-522.04 1029,-522.04 1023,-516.04 1023,-510.04 1023,-510.04 1023,-496.04 1023,-496.04 1023,-490.04 1029,-484.04 1035,-484.04 1035,-484.04 1235,-484.04 1235,-484.04 1241,-484.04 1247,-490.04 1247,-496.04 1247,-496.04 1247,-510.04 1247,-510.04 1247,-516.04 1241,-522.04 1235,-522.04"/>
<text text-anchor="middle" x="1135" y="-506.84" font-family="Times,serif" font-size="14.00">CASE&#45;Implementation&#45;PyPI&#45;Exifread</text>
<text text-anchor="middle" x="1135" y="-491.84" font-family="Times,serif" font-size="14.00">adopts new case&#45;validation&#45;action</text>
</a>
</g>
</g>
<!-- _GH__CASEWORK__CASE_IMPLEMENTATON_PYPI_PILLOW -->
<g id="node11" class="node">
<title>_GH__CASEWORK__CASE_IMPLEMENTATON_PYPI_PILLOW</title>
<g id="a_node11"><a xlink:href="https://github.com/casework/CASE-Implementation-PyPI-Pillow" xlink:title="CASE&#45;Implementation&#45;PyPI&#45;Pillow\nadopts new case&#45;validation&#45;action">
<path fill="#8ec7d2" stroke="#0d6986" d="M1229.5,-466.04C1229.5,-466.04 1040.5,-466.04 1040.5,-466.04 1034.5,-466.04 1028.5,-460.04 1028.5,-454.04 1028.5,-454.04 1028.5,-440.04 1028.5,-440.04 1028.5,-434.04 1034.5,-428.04 1040.5,-428.04 1040.5,-428.04 1229.5,-428.04 1229.5,-428.04 1235.5,-428.04 1241.5,-434.04 1241.5,-440.04 1241.5,-440.04 1241.5,-454.04 1241.5,-454.04 1241.5,-460.04 1235.5,-466.04 1229.5,-466.04"/>
<text text-anchor="middle" x="1135" y="-450.84" font-family="Times,serif" font-size="14.00">CASE&#45;Implementation&#45;PyPI&#45;Pillow</text>
<text text-anchor="middle" x="1135" y="-435.84" font-family="Times,serif" font-size="14.00">adopts new case&#45;validation&#45;action</text>
</a>
</g>
</g>
<!-- _GH__CASEWORK__CASE_IMPLEMENTATON_XRY -->
<g id="node12" class="node">
<title>_GH__CASEWORK__CASE_IMPLEMENTATON_XRY</title>
<g id="a_node12"><a xlink:href="https://github.com/casework/CASE-Implementation-XRY" xlink:title="CASE&#45;Implementation&#45;XRY adopts\nnew case&#45;validation&#45;action">
<path fill="#8ec7d2" stroke="#0d6986" d="M1230,-634.04C1230,-634.04 1040,-634.04 1040,-634.04 1034,-634.04 1028,-628.04 1028,-622.04 1028,-622.04 1028,-608.04 1028,-608.04 1028,-602.04 1034,-596.04 1040,-596.04 1040,-596.04 1230,-596.04 1230,-596.04 1236,-596.04 1242,-602.04 1242,-608.04 1242,-608.04 1242,-622.04 1242,-622.04 1242,-628.04 1236,-634.04 1230,-634.04"/>
<text text-anchor="middle" x="1135" y="-618.84" font-family="Times,serif" font-size="14.00">CASE&#45;Implementation&#45;XRY adopts</text>
<text text-anchor="middle" x="1135" y="-603.84" font-family="Times,serif" font-size="14.00">new case&#45;validation&#45;action</text>
</a>
</g>
</g>
<!-- _GH__CASEWORK__CASE_MAPPING_TEMPLATE_PYTHON -->
<g id="node13" class="node">
<title>_GH__CASEWORK__CASE_MAPPING_TEMPLATE_PYTHON</title>
<g id="a_node13"><a xlink:href="https://github.com/casework/CASE-Mapping-Template-Python" xlink:title="CASE&#45;Mapping&#45;Template&#45;Python\nadopts new case&#45;validation&#45;action">
<path fill="#8ec7d2" stroke="#0d6986" d="M1225,-578.04C1225,-578.04 1045,-578.04 1045,-578.04 1039,-578.04 1033,-572.04 1033,-566.04 1033,-566.04 1033,-552.04 1033,-552.04 1033,-546.04 1039,-540.04 1045,-540.04 1045,-540.04 1225,-540.04 1225,-540.04 1231,-540.04 1237,-546.04 1237,-552.04 1237,-552.04 1237,-566.04 1237,-566.04 1237,-572.04 1231,-578.04 1225,-578.04"/>
<text text-anchor="middle" x="1135" y="-562.84" font-family="Times,serif" font-size="14.00">CASE&#45;Mapping&#45;Template&#45;Python</text>
<text text-anchor="middle" x="1135" y="-547.84" font-family="Times,serif" font-size="14.00">adopts new case&#45;validation&#45;action</text>
</a>
</g>
</g>
<!-- _GH__CASEWORK__CASE_BINDINGS_CSHARP_MONITOR -->
<g id="node14" class="node">
<title>_GH__CASEWORK__CASE_BINDINGS_CSHARP_MONITOR</title>
<g id="a_node14"><a xlink:href="https://github.com/casework/CASE-Bindings-CSharp-Monitor" xlink:title="CASE Bindings CSharp Monitor\ntests NuGet package with validation action">
<path fill="#8ec7d2" stroke="#0d6986" d="M1567,-389.04C1567,-389.04 1340,-389.04 1340,-389.04 1334,-389.04 1328,-383.04 1328,-377.04 1328,-377.04 1328,-363.04 1328,-363.04 1328,-357.04 1334,-351.04 1340,-351.04 1340,-351.04 1567,-351.04 1567,-351.04 1573,-351.04 1579,-357.04 1579,-363.04 1579,-363.04 1579,-377.04 1579,-377.04 1579,-383.04 1573,-389.04 1567,-389.04"/>
<text text-anchor="middle" x="1453.5" y="-373.84" font-family="Times,serif" font-size="14.00">CASE Bindings CSharp Monitor</text>
<text text-anchor="middle" x="1453.5" y="-358.84" font-family="Times,serif" font-size="14.00">tests NuGet package with validation action</text>
</a>
</g>
</g>
<!-- _GH__CIPHERTECHSOLUTIONS__CASE_BINDINGS_CSHARP -->
<g id="node15" class="node">
<title>_GH__CIPHERTECHSOLUTIONS__CASE_BINDINGS_CSHARP</title>
<g id="a_node15"><a xlink:href="https://github.com/ciphertechsolutions/CASE-Bindings-CSharp" xlink:title="CASE&#45;Bindings&#45;CSharp\nadopts new ontology version">
<path fill="#8ec7d2" stroke="#0d6986" d="M1209.5,-389.04C1209.5,-389.04 1060.5,-389.04 1060.5,-389.04 1054.5,-389.04 1048.5,-383.04 1048.5,-377.04 1048.5,-377.04 1048.5,-363.04 1048.5,-363.04 1048.5,-357.04 1054.5,-351.04 1060.5,-351.04 1060.5,-351.04 1209.5,-351.04 1209.5,-351.04 1215.5,-351.04 1221.5,-357.04 1221.5,-363.04 1221.5,-363.04 1221.5,-377.04 1221.5,-377.04 1221.5,-383.04 1215.5,-389.04 1209.5,-389.04"/>
<text text-anchor="middle" x="1135" y="-373.84" font-family="Times,serif" font-size="14.00">CASE&#45;Bindings&#45;CSharp</text>
<text text-anchor="middle" x="1135" y="-358.84" font-family="Times,serif" font-size="14.00">adopts new ontology version</text>
</a>
</g>
</g>
<!-- _GH__CIPHERTECHSOLUTIONS__CASE_BINDINGS_CSHARP&#45;&gt;_GH__CASEWORK__CASE_BINDINGS_CSHARP_MONITOR -->
<g id="edge15" class="edge">
<title>_GH__CIPHERTECHSOLUTIONS__CASE_BINDINGS_CSHARP&#45;&gt;_GH__CASEWORK__CASE_BINDINGS_CSHARP_MONITOR</title>
<path fill="none" stroke="black" d="M1221.65,-370.04C1250.8,-370.04 1284.15,-370.04 1316.26,-370.04"/>
<polygon fill="black" stroke="black" points="1316.04,-373.54 1326.04,-370.04 1316.04,-366.54 1316.04,-373.54"/>
<text text-anchor="middle" x="1287.5" y="-373.84" font-family="Times,serif" font-size="14.00">NuGet</text>
</g>
<!-- _GH__UCOPROJECT__UCO -->
<g id="node16" class="node">
<title>_GH__UCOPROJECT__UCO</title>
<g id="a_node16"><a xlink:href="https://github.com/ucoProject/UCO" xlink:title="UCO Ontology\nreleases">
<path fill="#8ec7d2" stroke="#0d6986" d="M104,-585.04C104,-585.04 28,-585.04 28,-585.04 22,-585.04 16,-579.04 16,-573.04 16,-573.04 16,-559.04 16,-559.04 16,-553.04 22,-547.04 28,-547.04 28,-547.04 104,-547.04 104,-547.04 110,-547.04 116,-553.04 116,-559.04 116,-559.04 116,-573.04 116,-573.04 116,-579.04 110,-585.04 104,-585.04"/>
<text text-anchor="middle" x="66" y="-569.84" font-family="Times,serif" font-size="14.00">UCO Ontology</text>
<text text-anchor="middle" x="66" y="-554.84" font-family="Times,serif" font-size="14.00">releases</text>
</a>
</g>
</g>
<!-- _GH__UCOPROJECT__UCO&#45;&gt;_GH__UCOPROJECT__ONTOLOGY_UNIFIEDCYBERONTOLOGY_ORG -->
<g id="edge24" class="edge">
<title>_GH__UCOPROJECT__UCO&#45;&gt;_GH__UCOPROJECT__ONTOLOGY_UNIFIEDCYBERONTOLOGY_ORG</title>
<path fill="none" stroke="black" d="M83.87,-585.5C106.61,-611.28 148.9,-657.62 189,-693.04 203.26,-705.64 219.92,-718.42 234.55,-729.07"/>
<polygon fill="black" stroke="black" points="232.43,-731.86 242.6,-734.86 236.52,-726.18 232.43,-731.86"/>
<text text-anchor="middle" x="156.5" y="-701.84" font-family="Times,serif" font-size="14.00">Git sub&#45;</text>
<text text-anchor="middle" x="156.5" y="-686.84" font-family="Times,serif" font-size="14.00">module</text>
</g>
<!-- _GH__CASEWORK__CASE -->
<g id="node17" class="node">
<title>_GH__CASEWORK__CASE</title>
<g id="a_node17"><a xlink:href="https://github.com/casework/CASE" xlink:title="CASE Ontology\nreleases">
<path fill="#8ec7d2" stroke="#0d6986" d="M314,-514.04C314,-514.04 232,-514.04 232,-514.04 226,-514.04 220,-508.04 220,-502.04 220,-502.04 220,-488.04 220,-488.04 220,-482.04 226,-476.04 232,-476.04 232,-476.04 314,-476.04 314,-476.04 320,-476.04 326,-482.04 326,-488.04 326,-488.04 326,-502.04 326,-502.04 326,-508.04 320,-514.04 314,-514.04"/>
<text text-anchor="middle" x="273" y="-498.84" font-family="Times,serif" font-size="14.00">CASE Ontology</text>
<text text-anchor="middle" x="273" y="-483.84" font-family="Times,serif" font-size="14.00">releases</text>
</a>
</g>
</g>
<!-- _GH__UCOPROJECT__UCO&#45;&gt;_GH__CASEWORK__CASE -->
<g id="edge23" class="edge">
<title>_GH__UCOPROJECT__UCO&#45;&gt;_GH__CASEWORK__CASE</title>
<path fill="none" stroke="black" d="M116.36,-548.94C144.22,-539.3 179.31,-527.14 209.12,-516.82"/>
<polygon fill="black" stroke="black" points="210.11,-520.18 218.41,-513.6 207.82,-513.57 210.11,-520.18"/>
<text text-anchor="middle" x="156.5" y="-559.84" font-family="Times,serif" font-size="14.00">Git sub&#45;</text>
<text text-anchor="middle" x="156.5" y="-544.84" font-family="Times,serif" font-size="14.00">module</text>
</g>
<!-- _GH__CASEWORK__CASE&#45;&gt;_GH__CIPHERTECHSOLUTIONS__CASE_BINDINGS_CSHARP -->
<g id="edge3" class="edge">
<title>_GH__CASEWORK__CASE&#45;&gt;_GH__CIPHERTECHSOLUTIONS__CASE_BINDINGS_CSHARP</title>
<path fill="none" stroke="black" d="M283.19,-475.7C314.52,-412.34 424.12,-210.79 584,-135.04 744.29,-59.1 855.32,-3.92 983,-127.04 1000.61,-144.02 974.8,-328.71 991,-347.04 1003,-360.61 1019.57,-368.37 1037.19,-372.51"/>
<polygon fill="black" stroke="black" points="1036.3,-375.9 1046.78,-374.35 1037.62,-369.03 1036.3,-375.9"/>
</g>
<!-- _GH__CASEWORK__ONTOLOGY_CASEONTOLOGY_ORG -->
<g id="node18" class="node">
<title>_GH__CASEWORK__ONTOLOGY_CASEONTOLOGY_ORG</title>
<g id="a_node18"><a xlink:href="https://github.com/casework/ontology.caseontology.org" xlink:title="CASE documentation\nregenerated">
<path fill="#8ec7d2" stroke="#0d6986" d="M554,-488.04C554,-488.04 442,-488.04 442,-488.04 436,-488.04 430,-482.04 430,-476.04 430,-476.04 430,-462.04 430,-462.04 430,-456.04 436,-450.04 442,-450.04 442,-450.04 554,-450.04 554,-450.04 560,-450.04 566,-456.04 566,-462.04 566,-462.04 566,-476.04 566,-476.04 566,-482.04 560,-488.04 554,-488.04"/>
<text text-anchor="middle" x="498" y="-472.84" font-family="Times,serif" font-size="14.00">CASE documentation</text>
<text text-anchor="middle" x="498" y="-457.84" font-family="Times,serif" font-size="14.00">regenerated</text>
</a>
</g>
</g>
<!-- _GH__CASEWORK__CASE&#45;&gt;_GH__CASEWORK__ONTOLOGY_CASEONTOLOGY_ORG -->
<g id="edge4" class="edge">
<title>_GH__CASEWORK__CASE&#45;&gt;_GH__CASEWORK__ONTOLOGY_CASEONTOLOGY_ORG</title>
<path fill="none" stroke="black" d="M326.24,-479.99C339.43,-476.78 353.65,-473.82 367,-472.04 383.61,-469.82 401.52,-468.64 418.58,-468.07"/>
<polygon fill="black" stroke="black" points="418.22,-471.59 428.13,-467.83 418.04,-464.59 418.22,-471.59"/>
<text text-anchor="middle" x="389.5" y="-490.84" font-family="Times,serif" font-size="14.00">Git sub&#45;</text>
<text text-anchor="middle" x="389.5" y="-475.84" font-family="Times,serif" font-size="14.00">module</text>
</g>
<!-- _GH__CASEWORK__CASE_UTILITIES_PYTHON -->
<g id="node19" class="node">
<title>_GH__CASEWORK__CASE_UTILITIES_PYTHON</title>
<g id="a_node19"><a xlink:href="https://github.com/casework/CASE-Utilities-Python" xlink:title="case&#45;utils\nreleases">
<path fill="#8ec7d2" stroke="#0d6986" d="M520,-544.04C520,-544.04 476,-544.04 476,-544.04 470,-544.04 464,-538.04 464,-532.04 464,-532.04 464,-518.04 464,-518.04 464,-512.04 470,-506.04 476,-506.04 476,-506.04 520,-506.04 520,-506.04 526,-506.04 532,-512.04 532,-518.04 532,-518.04 532,-532.04 532,-532.04 532,-538.04 526,-544.04 520,-544.04"/>
<text text-anchor="middle" x="498" y="-528.84" font-family="Times,serif" font-size="14.00">case&#45;utils</text>
<text text-anchor="middle" x="498" y="-513.84" font-family="Times,serif" font-size="14.00">releases</text>
</a>
</g>
</g>
<!-- _GH__CASEWORK__CASE&#45;&gt;_GH__CASEWORK__CASE_UTILITIES_PYTHON -->
<g id="edge2" class="edge">
<title>_GH__CASEWORK__CASE&#45;&gt;_GH__CASEWORK__CASE_UTILITIES_PYTHON</title>
<path fill="none" stroke="black" d="M326.28,-502.07C364.62,-507.23 416.11,-514.16 452.48,-519.05"/>
<polygon fill="black" stroke="black" points="451.85,-522.5 462.23,-520.36 452.78,-515.56 451.85,-522.5"/>
<text text-anchor="middle" x="389.5" y="-530.84" font-family="Times,serif" font-size="14.00">Git sub&#45;</text>
<text text-anchor="middle" x="389.5" y="-515.84" font-family="Times,serif" font-size="14.00">module</text>
</g>
<!-- _GH__CASEWORK__CASE_UTILITIES_PYTHON&#45;&gt;_GH__AJNELSON_NIST__CASE_EXAMPLES_QC -->
<g id="edge7" class="edge">
<title>_GH__CASEWORK__CASE_UTILITIES_PYTHON&#45;&gt;_GH__AJNELSON_NIST__CASE_EXAMPLES_QC</title>
<path fill="none" stroke="black" d="M532.48,-521.31C544.91,-518.17 557.94,-512.44 566,-502.04 597.4,-461.51 566.27,-320.15 584,-272.04 599.95,-228.75 604.56,-210.25 645,-188.04 881.6,-58.11 987.37,-114.85 1252,-168.04 1301.76,-178.04 1354.57,-200.72 1393.49,-219.99"/>
<polygon fill="black" stroke="black" points="1391.73,-223.02 1402.23,-224.38 1394.87,-216.76 1391.73,-223.02"/>
<text text-anchor="middle" x="943.5" y="-116.84" font-family="Times,serif" font-size="14.00">PyPI</text>
</g>
<!-- _GH__CASEWORK__CASE_UTILITIES_PYTHON&#45;&gt;_GH__CASEWORK__CASE_IMPLEMENTATON_EXIFTOOL -->
<g id="edge9" class="edge">
<title>_GH__CASEWORK__CASE_UTILITIES_PYTHON&#45;&gt;_GH__CASEWORK__CASE_IMPLEMENTATON_EXIFTOOL</title>
<path fill="none" stroke="black" d="M532.48,-513.81C543.21,-510.14 555.13,-505.99 566,-502.04 756.15,-432.96 797.13,-396.86 991,-339.04 1002.07,-335.74 1013.72,-332.63 1025.39,-329.76"/>
<polygon fill="black" stroke="black" points="1026.19,-333.16 1035.1,-327.42 1024.56,-326.36 1026.19,-333.16"/>
<text text-anchor="middle" x="758" y="-474.84" font-family="Times,serif" font-size="14.00">PyPI</text>
</g>
<!-- _GH__CASEWORK__CASE_UTILITIES_PYTHON&#45;&gt;_GH__CASEWORK__CASE_IMPLEMENTATON_GNU_TIME -->
<g id="edge10" class="edge">
<title>_GH__CASEWORK__CASE_UTILITIES_PYTHON&#45;&gt;_GH__CASEWORK__CASE_IMPLEMENTATON_GNU_TIME</title>
<path fill="none" stroke="black" d="M532.25,-518.97C543.93,-515.54 556.5,-510.23 566,-502.04 594.84,-477.2 614.59,-372.94 645,-350.04 753.1,-268.62 911.49,-250.09 1018.46,-248.01"/>
<polygon fill="black" stroke="black" points="1018.48,-251.51 1028.43,-247.86 1018.38,-244.51 1018.48,-251.51"/>
<text text-anchor="middle" x="758" y="-353.84" font-family="Times,serif" font-size="14.00">PyPI</text>
</g>
<!-- _GH__CASEWORK__CASE_UTILITIES_PYTHON&#45;&gt;_GH__CASEWORK__CASEWORK_GITHUB_IO -->
<g id="edge13" class="edge">
<title>_GH__CASEWORK__CASE_UTILITIES_PYTHON&#45;&gt;_GH__CASEWORK__CASEWORK_GITHUB_IO</title>
<path fill="none" stroke="black" d="M532.27,-520.76C544.52,-517.54 557.48,-511.9 566,-502.04 594.39,-469.2 572.55,-447.91 584,-406.04 604.94,-329.42 581.96,-286.37 645,-238.04 707.64,-190.01 935.74,-189.5 1056.99,-192.89"/>
<polygon fill="black" stroke="black" points="1056.77,-196.38 1066.87,-193.18 1056.98,-189.39 1056.77,-196.38"/>
<text text-anchor="middle" x="758" y="-241.84" font-family="Times,serif" font-size="14.00">PyPI</text>
</g>
<!-- _GH__CASEWORK__CASE_UTILITIES_PYTHON&#45;&gt;_GH__CASEWORK__CASE_IMPLEMENTATON_PROV_O -->
<g id="edge11" class="edge">
<title>_GH__CASEWORK__CASE_UTILITIES_PYTHON&#45;&gt;_GH__CASEWORK__CASE_IMPLEMENTATON_PROV_O</title>
<path fill="none" stroke="black" d="M499.22,-544.29C501.4,-639.67 524.24,-1057.04 757,-1057.04 757,-1057.04 757,-1057.04 1454.5,-1057.04 1653.1,-1057.04 1690.99,-722.56 1697.98,-618.54"/>
<polygon fill="black" stroke="black" points="1701.45,-619.01 1698.58,-608.81 1694.47,-618.58 1701.45,-619.01"/>
<text text-anchor="middle" x="1135" y="-1060.84" font-family="Times,serif" font-size="14.00">PyPI</text>
</g>
<!-- _GH__CASEWORK__CASE_EXAMPLES -->
<g id="node20" class="node">
<title>_GH__CASEWORK__CASE_EXAMPLES</title>
<g id="a_node20"><a xlink:href="https://github.com/casework/CASE-Examples" xlink:title="CASE&#45;Examples\nadopts new case&#45;utils">
<path fill="#8ec7d2" stroke="#0d6986" d="M812.5,-627.04C812.5,-627.04 703.5,-627.04 703.5,-627.04 697.5,-627.04 691.5,-621.04 691.5,-615.04 691.5,-615.04 691.5,-601.04 691.5,-601.04 691.5,-595.04 697.5,-589.04 703.5,-589.04 703.5,-589.04 812.5,-589.04 812.5,-589.04 818.5,-589.04 824.5,-595.04 824.5,-601.04 824.5,-601.04 824.5,-615.04 824.5,-615.04 824.5,-621.04 818.5,-627.04 812.5,-627.04"/>
<text text-anchor="middle" x="758" y="-611.84" font-family="Times,serif" font-size="14.00">CASE&#45;Examples</text>
<text text-anchor="middle" x="758" y="-596.84" font-family="Times,serif" font-size="14.00">adopts new case&#45;utils</text>
</a>
</g>
</g>
<!-- _GH__CASEWORK__CASE_UTILITIES_PYTHON&#45;&gt;_GH__CASEWORK__CASE_EXAMPLES -->
<g id="edge8" class="edge">
<title>_GH__CASEWORK__CASE_UTILITIES_PYTHON&#45;&gt;_GH__CASEWORK__CASE_EXAMPLES</title>
<path fill="none" stroke="black" d="M532.27,-540.81C561.45,-554.13 605.29,-572.92 645,-585.04 656.15,-588.44 668.08,-591.5 679.84,-594.18"/>
<polygon fill="black" stroke="black" points="679.04,-597.59 689.56,-596.31 680.54,-590.75 679.04,-597.59"/>
<text text-anchor="middle" x="597.5" y="-575.84" font-family="Times,serif" font-size="14.00">PyPI</text>
</g>
<!-- _GH__KCHASON__CASE_VALIDATION_ACTION -->
<g id="node21" class="node">
<title>_GH__KCHASON__CASE_VALIDATION_ACTION</title>
<g id="a_node21"><a xlink:href="https://github.com/kchason/case-validation-action" xlink:title="case&#45;validation&#45;action\nreleases">
<path fill="#8ec7d2" stroke="#0d6986" d="M814,-550.04C814,-550.04 702,-550.04 702,-550.04 696,-550.04 690,-544.04 690,-538.04 690,-538.04 690,-524.04 690,-524.04 690,-518.04 696,-512.04 702,-512.04 702,-512.04 814,-512.04 814,-512.04 820,-512.04 826,-518.04 826,-524.04 826,-524.04 826,-538.04 826,-538.04 826,-544.04 820,-550.04 814,-550.04"/>
<text text-anchor="middle" x="758" y="-534.84" font-family="Times,serif" font-size="14.00">case&#45;validation&#45;action</text>
<text text-anchor="middle" x="758" y="-519.84" font-family="Times,serif" font-size="14.00">releases</text>
</a>
</g>
</g>
<!-- _GH__CASEWORK__CASE_UTILITIES_PYTHON&#45;&gt;_GH__KCHASON__CASE_VALIDATION_ACTION -->
<g id="edge12" class="edge">
<title>_GH__CASEWORK__CASE_UTILITIES_PYTHON&#45;&gt;_GH__KCHASON__CASE_VALIDATION_ACTION</title>
<path fill="none" stroke="black" d="M532.46,-525.82C569.13,-526.67 629.23,-528.07 678.03,-529.2"/>
<polygon fill="black" stroke="black" points="677.94,-532.7 688.02,-529.44 678.1,-525.7 677.94,-532.7"/>
<text text-anchor="middle" x="597.5" y="-530.84" font-family="Times,serif" font-size="14.00">PyPI</text>
</g>
<!-- _GH__CASEWORK__CASE_EXAMPLES&#45;&gt;_GH__AJNELSON_NIST__CASE_EXAMPLES_QC -->
<g id="edge5" class="edge">
<title>_GH__CASEWORK__CASE_EXAMPLES&#45;&gt;_GH__AJNELSON_NIST__CASE_EXAMPLES_QC</title>
<path fill="none" stroke="black" d="M763.57,-627.37C780.21,-692.52 844.4,-903.6 991,-969.04 1043.96,-992.68 1208.6,-1007.52 1252,-969.04 1304.76,-922.26 1291.72,-399.5 1328,-339.04 1341.47,-316.59 1363.23,-298.46 1384.81,-284.69"/>
<polygon fill="black" stroke="black" points="1386.35,-287.85 1393.06,-279.65 1382.7,-281.87 1386.35,-287.85"/>
<text text-anchor="middle" x="1135" y="-1010.84" font-family="Times,serif" font-size="14.00">Git sub&#45;</text>
<text text-anchor="middle" x="1135" y="-995.84" font-family="Times,serif" font-size="14.00">module</text>
</g>
<!-- _GH__KCHASON__CASE_VALIDATION_ACTION&#45;&gt;_GH__CASEWORK__CASE_IMPLEMENTATON_UFED_XML -->
<g id="edge19" class="edge">
<title>_GH__KCHASON__CASE_VALIDATION_ACTION&#45;&gt;_GH__CASEWORK__CASE_IMPLEMENTATON_UFED_XML</title>
<path fill="none" stroke="black" d="M826.45,-526.05C851.73,-527.92 878.53,-535.05 896,-554.04 910.49,-569.79 889.89,-633.94 904,-650.04 931.44,-681.37 973.49,-695.67 1014.16,-701.55"/>
<polygon fill="black" stroke="black" points="1013.72,-705.02 1024.08,-702.8 1014.6,-698.08 1013.72,-705.02"/>
<text text-anchor="middle" x="943.5" y="-711.84" font-family="Times,serif" font-size="14.00">GitHub</text>
<text text-anchor="middle" x="943.5" y="-696.84" font-family="Times,serif" font-size="14.00">Action</text>
</g>
<!-- _GH__KCHASON__CASE_VALIDATION_ACTION&#45;&gt;_GH__CASEWORK__CASE_IMPLEMENTATON_PYPI_EXIFREAD -->
<g id="edge17" class="edge">
<title>_GH__KCHASON__CASE_VALIDATION_ACTION&#45;&gt;_GH__CASEWORK__CASE_IMPLEMENTATON_PYPI_EXIFREAD</title>
<path fill="none" stroke="black" d="M826.21,-517.18C850.6,-512.76 878.44,-508.4 904,-506.04 938.81,-502.83 976.7,-501.47 1011.5,-501.06"/>
<polygon fill="black" stroke="black" points="1011.2,-504.56 1021.16,-500.97 1011.13,-497.56 1011.2,-504.56"/>
<text text-anchor="middle" x="943.5" y="-524.84" font-family="Times,serif" font-size="14.00">GitHub</text>
<text text-anchor="middle" x="943.5" y="-509.84" font-family="Times,serif" font-size="14.00">Action</text>
</g>
<!-- _GH__KCHASON__CASE_VALIDATION_ACTION&#45;&gt;_GH__CASEWORK__CASE_IMPLEMENTATON_PYPI_PILLOW -->
<g id="edge18" class="edge">
<title>_GH__KCHASON__CASE_VALIDATION_ACTION&#45;&gt;_GH__CASEWORK__CASE_IMPLEMENTATON_PYPI_PILLOW</title>
<path fill="none" stroke="black" d="M794.17,-511.58C822.83,-496.71 864.82,-477.09 904,-467.04 940.06,-457.79 980.24,-452.61 1016.79,-449.78"/>
<polygon fill="black" stroke="black" points="1016.78,-453.29 1026.5,-449.08 1016.28,-446.31 1016.78,-453.29"/>
<text text-anchor="middle" x="943.5" y="-485.84" font-family="Times,serif" font-size="14.00">GitHub</text>
<text text-anchor="middle" x="943.5" y="-470.84" font-family="Times,serif" font-size="14.00">Action</text>
</g>
<!-- _GH__KCHASON__CASE_VALIDATION_ACTION&#45;&gt;_GH__CASEWORK__CASE_IMPLEMENTATON_XRY -->
<g id="edge20" class="edge">
<title>_GH__KCHASON__CASE_VALIDATION_ACTION&#45;&gt;_GH__CASEWORK__CASE_IMPLEMENTATON_XRY</title>
<path fill="none" stroke="black" d="M826.32,-528.12C850.83,-530.44 877.13,-537.34 896,-554.04 905.37,-562.34 894.55,-572.84 904,-581.04 934.59,-607.58 976.53,-618.54 1016.22,-622.06"/>
<polygon fill="black" stroke="black" points="1015.89,-625.54 1026.11,-622.77 1016.39,-618.56 1015.89,-625.54"/>
<text text-anchor="middle" x="943.5" y="-634.84" font-family="Times,serif" font-size="14.00">GitHub</text>
<text text-anchor="middle" x="943.5" y="-619.84" font-family="Times,serif" font-size="14.00">Action</text>
</g>
<!-- _GH__KCHASON__CASE_VALIDATION_ACTION&#45;&gt;_GH__CASEWORK__CASE_MAPPING_TEMPLATE_PYTHON -->
<g id="edge21" class="edge">
<title>_GH__KCHASON__CASE_VALIDATION_ACTION&#45;&gt;_GH__CASEWORK__CASE_MAPPING_TEMPLATE_PYTHON</title>
<path fill="none" stroke="black" d="M826.48,-536.08C880.68,-540.13 957.98,-545.9 1021.52,-550.64"/>
<polygon fill="black" stroke="black" points="1021.06,-554.12 1031.29,-551.37 1021.58,-547.14 1021.06,-554.12"/>
<text text-anchor="middle" x="943.5" y="-565.84" font-family="Times,serif" font-size="14.00">GitHub</text>
<text text-anchor="middle" x="943.5" y="-550.84" font-family="Times,serif" font-size="14.00">Action</text>
</g>
<!-- _GH__KCHASON__CASE_VALIDATION_ACTION&#45;&gt;_GH__CASEWORK__CASE_BINDINGS_CSHARP_MONITOR -->
<g id="edge16" class="edge">
<title>_GH__KCHASON__CASE_VALIDATION_ACTION&#45;&gt;_GH__CASEWORK__CASE_BINDINGS_CSHARP_MONITOR</title>
<path fill="none" stroke="black" d="M826.26,-525.53C851.82,-527.25 878.88,-534.41 896,-554.04 915.58,-576.49 891.28,-795.1 904,-822.04 925.93,-868.46 942.93,-880 991,-898.04 1099.6,-938.8 1156.52,-963.92 1252,-898.04 1423.26,-779.88 1448.36,-494.83 1451.94,-400.75"/>
<polygon fill="black" stroke="black" points="1455.43,-401.12 1452.25,-391.02 1448.43,-400.9 1455.43,-401.12"/>
<text text-anchor="middle" x="1135" y="-956.84" font-family="Times,serif" font-size="14.00">GitHub</text>
<text text-anchor="middle" x="1135" y="-941.84" font-family="Times,serif" font-size="14.00">Action</text>
</g>
<!-- _GH__DOD_CYBER_CRIME_CENTER__SQLITE_DISSECT -->
<g id="node22" class="node">
<title>_GH__DOD_CYBER_CRIME_CENTER__SQLITE_DISSECT</title>
<g id="a_node22"><a xlink:href="https://github.com/dod-cyber-crime-center/sqlite-dissect" xlink:title="sqlite&#45;dissect\nadopts new case&#45;validation&#45;action">
<path fill="#8ec7d2" stroke="#0d6986" d="M1223.5,-889.04C1223.5,-889.04 1046.5,-889.04 1046.5,-889.04 1040.5,-889.04 1034.5,-883.04 1034.5,-877.04 1034.5,-877.04 1034.5,-863.04 1034.5,-863.04 1034.5,-857.04 1040.5,-851.04 1046.5,-851.04 1046.5,-851.04 1223.5,-851.04 1223.5,-851.04 1229.5,-851.04 1235.5,-857.04 1235.5,-863.04 1235.5,-863.04 1235.5,-877.04 1235.5,-877.04 1235.5,-883.04 1229.5,-889.04 1223.5,-889.04"/>
<text text-anchor="middle" x="1135" y="-873.84" font-family="Times,serif" font-size="14.00">sqlite&#45;dissect</text>
<text text-anchor="middle" x="1135" y="-858.84" font-family="Times,serif" font-size="14.00">adopts new case&#45;validation&#45;action</text>
</a>
</g>
</g>
<!-- _GH__KCHASON__CASE_VALIDATION_ACTION&#45;&gt;_GH__DOD_CYBER_CRIME_CENTER__SQLITE_DISSECT -->
<g id="edge22" class="edge">
<title>_GH__KCHASON__CASE_VALIDATION_ACTION&#45;&gt;_GH__DOD_CYBER_CRIME_CENTER__SQLITE_DISSECT</title>
<g id="a_edge22"><a xlink:href="https://github.com/dod-cyber-crime-center/sqlite-dissect/pull/31" xlink:title="TODO: PR 31">
<path fill="none" stroke="black" d="M826.45,-525.7C851.89,-527.48 878.8,-534.64 896,-554.04 908.77,-568.44 894.27,-710.44 904,-727.04 938.79,-786.36 1008.89,-824.57 1062.61,-846.44"/>
<polygon fill="black" stroke="black" points="1061.12,-849.61 1071.71,-850.03 1063.7,-843.1 1061.12,-849.61"/>
</a>
</g>
<g id="a_edge22&#45;label"><a xlink:href="https://github.com/dod-cyber-crime-center/sqlite-dissect/pull/31" xlink:title="TODO: PR 31">
<text text-anchor="middle" x="943.5" y="-806.84" font-family="Times,serif" font-size="14.00">TODO: PR 31</text>
</a>
</g>
</g>
</g>
</svg>
