<?xml version="1.0" encoding="UTF-8" standalone="no"?>
<!DOCTYPE svg PUBLIC "-//W3C//DTD SVG 1.1//EN"
 "http://www.w3.org/Graphics/SVG/1.1/DTD/svg11.dtd">
<!-- Generated by graphviz version 8.0.3 (20230416.2022)
 -->
<!-- Title: cdo_release_flow Pages: 1 -->
<svg width="1670pt" height="1330pt"
 viewBox="0.00 0.00 1670.00 1330.00" xmlns="http://www.w3.org/2000/svg" xmlns:xlink="http://www.w3.org/1999/xlink">
<g id="graph0" class="graph" transform="scale(1 1) rotate(0) translate(4 1326)">
<title>cdo_release_flow</title>
<polygon fill="white" stroke="none" points="-4,4 -4,-1326 1666,-1326 1666,4 -4,4"/>
<text text-anchor="middle" x="831" y="-38.8" font-family="Times,serif" font-size="14.00">Release flow of CDO ontologies</text>
<text text-anchor="middle" x="831" y="-7.8" font-family="Times,serif" font-size="14.00">Nodes link to the respective Git repository.</text>
<g id="clust1" class="cluster">
<title>cluster_uco_0_9_1</title>
<polygon fill="none" stroke="black" points="8,-62 8,-178 176,-178 176,-62 8,-62"/>
<text text-anchor="middle" x="92" y="-162.8" font-family="Times,serif" font-size="14.00">Adoption of UCO 0.9.1</text>
</g>
<g id="clust2" class="cluster">
<title>cluster_case_0_7_1</title>
<polygon fill="none" stroke="black" points="16,-70 16,-147 168,-147 168,-70 16,-70"/>
<text text-anchor="middle" x="92" y="-131.8" font-family="Times,serif" font-size="14.00">Adoption of CASE 0.7.1</text>
</g>
<g id="clust3" class="cluster">
<title>cluster_uco_1_2_0</title>
<polygon fill="none" stroke="black" points="34,-186 34,-1314 1654,-1314 1654,-186 34,-186"/>
<text text-anchor="middle" x="844" y="-1298.8" font-family="Times,serif" font-size="14.00">Adoption of UCO 1.2.0</text>
</g>
<g id="clust4" class="cluster">
<title>cluster_case_1_2_0</title>
<polygon fill="none" stroke="black" points="239,-303 239,-1283 1646,-1283 1646,-303 239,-303"/>
<text text-anchor="middle" x="942.5" y="-1267.8" font-family="Times,serif" font-size="14.00">Adoption of CASE 1.2.0</text>
</g>
<g id="clust5" class="cluster">
<title>cluster_case_utils_0_10_0</title>
<polygon fill="none" stroke="black" points="1050,-692 1050,-1252 1638,-1252 1638,-692 1050,-692"/>
<text text-anchor="middle" x="1344" y="-1236.8" font-family="Times,serif" font-size="14.00">Adoption of case&#45;utils 0.10.0</text>
</g>
<g id="clust6" class="cluster">
<title>cluster_case_prov_0_7_0</title>
<polygon fill="none" stroke="black" points="1135.5,-1144 1135.5,-1221 1563.5,-1221 1563.5,-1144 1135.5,-1144"/>
<text text-anchor="middle" x="1349.5" y="-1205.8" font-family="Times,serif" font-size="14.00">Adoption of case&#45;prov 0.7.0</text>
</g>
<g id="clust7" class="cluster">
<title>cluster_case_validation_action_2_6</title>
<polygon fill="none" stroke="black" points="1058,-700 1058,-1088 1630,-1088 1630,-700 1058,-700"/>
<text text-anchor="middle" x="1344" y="-1072.8" font-family="Times,serif" font-size="14.00">Adoption of case&#45;validation&#45;action 2.6</text>
</g>
<g id="clust8" class="cluster">
<title>cluster_case_bindings_csharp_0_4_0</title>
<polygon fill="none" stroke="black" points="1083.5,-980 1083.5,-1057 1622,-1057 1622,-980 1083.5,-980"/>
<text text-anchor="middle" x="1352.75" y="-1041.8" font-family="Times,serif" font-size="14.00">Adoption of CSharp bindings 0.4.0</text>
</g>
<g id="clust9" class="cluster">
<title>cluster_case_utils_0_11_0</title>
<polygon fill="none" stroke="black" points="555,-357 555,-684 1272,-684 1272,-357 555,-357"/>
<text text-anchor="middle" x="913.5" y="-668.8" font-family="Times,serif" font-size="14.00">Adoption of case&#45;utils 0.11.0</text>
</g>
<g id="clust10" class="cluster">
<title>cluster_case_validation_action_2_6_1</title>
<polygon fill="none" stroke="black" points="718,-576 718,-653 955,-653 955,-576 718,-576"/>
<text text-anchor="middle" x="836.5" y="-637.8" font-family="Times,serif" font-size="14.00">Adoption of case&#45;validation&#45;action 2.6.1</text>
</g>
<!-- _GH__CASEWORK__CASE_MAPPING_TEMPLATE_STUBS -->
<g id="node1" class="node">
<title>_GH__CASEWORK__CASE_MAPPING_TEMPLATE_STUBS</title>
<g id="a_node1"><a xlink:href="https://github.com/casework/CASE-Mapping-Template-Stubs" xlink:title="CASE Mapping\nTemplate Stubs">
<path fill="#8ec7d2" stroke="#0d6986" d="M132,-116C132,-116 52,-116 52,-116 46,-116 40,-110 40,-104 40,-104 40,-90 40,-90 40,-84 46,-78 52,-78 52,-78 132,-78 132,-78 138,-78 144,-84 144,-90 144,-90 144,-104 144,-104 144,-110 138,-116 132,-116"/>
<text text-anchor="middle" x="92" y="-100.8" font-family="Times,serif" font-size="14.00">CASE Mapping</text>
<text text-anchor="middle" x="92" y="-85.8" font-family="Times,serif" font-size="14.00">Template Stubs</text>
</a>
</g>
</g>
<!-- _GH__UCOPROJECT__ONTOLOGY_UNIFIEDCYBERONTOLOGY_ORG -->
<g id="node2" class="node">
<title>_GH__UCOPROJECT__ONTOLOGY_UNIFIEDCYBERONTOLOGY_ORG</title>
<g id="a_node2"><a xlink:href="https://github.com/ucoProject/ontology.unifiedcyberontology.org" xlink:title="UCO documentation\nregenerated">
<path fill="#8ec7d2" stroke="#0d6986" d="M387.5,-295C387.5,-295 281.5,-295 281.5,-295 275.5,-295 269.5,-289 269.5,-283 269.5,-283 269.5,-269 269.5,-269 269.5,-263 275.5,-257 281.5,-257 281.5,-257 387.5,-257 387.5,-257 393.5,-257 399.5,-263 399.5,-269 399.5,-269 399.5,-283 399.5,-283 399.5,-289 393.5,-295 387.5,-295"/>
<text text-anchor="middle" x="334.5" y="-279.8" font-family="Times,serif" font-size="14.00">UCO documentation</text>
<text text-anchor="middle" x="334.5" y="-264.8" font-family="Times,serif" font-size="14.00">regenerated</text>
</a>
</g>
</g>
<!-- _GH__CASEWORK__ONTOLOGY_CASEONTOLOGY_ORG -->
<g id="node9" class="node">
<title>_GH__CASEWORK__ONTOLOGY_CASEONTOLOGY_ORG</title>
<g id="a_node9"><a xlink:href="https://github.com/casework/ontology.caseontology.org" xlink:title="CASE documentation\nregenerated">
<path fill="#8ec7d2" stroke="#0d6986" d="M653,-349C653,-349 541,-349 541,-349 535,-349 529,-343 529,-337 529,-337 529,-323 529,-323 529,-317 535,-311 541,-311 541,-311 653,-311 653,-311 659,-311 665,-317 665,-323 665,-323 665,-337 665,-337 665,-343 659,-349 653,-349"/>
<text text-anchor="middle" x="597" y="-333.8" font-family="Times,serif" font-size="14.00">CASE documentation</text>
<text text-anchor="middle" x="597" y="-318.8" font-family="Times,serif" font-size="14.00">regenerated</text>
</a>
</g>
</g>
<!-- _GH__UCOPROJECT__ONTOLOGY_UNIFIEDCYBERONTOLOGY_ORG&#45;&gt;_GH__CASEWORK__ONTOLOGY_CASEONTOLOGY_ORG -->
<g id="edge24" class="edge">
<title>_GH__UCOPROJECT__ONTOLOGY_UNIFIEDCYBERONTOLOGY_ORG&#45;&gt;_GH__CASEWORK__ONTOLOGY_CASEONTOLOGY_ORG</title>
<path fill="none" stroke="black" d="M399.89,-289.35C435.7,-296.77 480.52,-306.06 518.27,-313.89"/>
<polygon fill="black" stroke="black" points="517.21,-317.45 527.71,-316.05 518.63,-310.59 517.21,-317.45"/>
<text text-anchor="middle" x="475.5" y="-328.8" font-family="Times,serif" font-size="14.00">Tech&#45;</text>
<text text-anchor="middle" x="475.5" y="-313.8" font-family="Times,serif" font-size="14.00">check</text>
</g>
<!-- _GH__UCOPROJECT__UCO -->
<g id="node3" class="node">
<title>_GH__UCOPROJECT__UCO</title>
<g id="a_node3"><a xlink:href="https://github.com/ucoProject/UCO" xlink:title="UCO Ontology\nreleases">
<path fill="#8ec7d2" stroke="#0d6986" d="M130,-295C130,-295 54,-295 54,-295 48,-295 42,-289 42,-283 42,-283 42,-269 42,-269 42,-263 48,-257 54,-257 54,-257 130,-257 130,-257 136,-257 142,-263 142,-269 142,-269 142,-283 142,-283 142,-289 136,-295 130,-295"/>
<text text-anchor="middle" x="92" y="-279.8" font-family="Times,serif" font-size="14.00">UCO Ontology</text>
<text text-anchor="middle" x="92" y="-264.8" font-family="Times,serif" font-size="14.00">releases</text>
</a>
</g>
</g>
<!-- _GH__UCOPROJECT__UCO&#45;&gt;_GH__UCOPROJECT__ONTOLOGY_UNIFIEDCYBERONTOLOGY_ORG -->
<g id="edge26" class="edge">
<title>_GH__UCOPROJECT__UCO&#45;&gt;_GH__UCOPROJECT__ONTOLOGY_UNIFIEDCYBERONTOLOGY_ORG</title>
<path fill="none" stroke="black" d="M142.25,-276C175.64,-276 220.42,-276 258.26,-276"/>
<polygon fill="black" stroke="black" points="258.24,-279.5 268.24,-276 258.24,-272.5 258.24,-279.5"/>
<text text-anchor="middle" x="206.5" y="-294.8" font-family="Times,serif" font-size="14.00">Git sub&#45;</text>
<text text-anchor="middle" x="206.5" y="-279.8" font-family="Times,serif" font-size="14.00">module</text>
</g>
<!-- _GH__UCOPROJECT__UCO_PROFILE_EXAMPLE -->
<g id="node5" class="node">
<title>_GH__UCOPROJECT__UCO_PROFILE_EXAMPLE</title>
<g id="a_node5"><a xlink:href="https://github.com/ucoProject/UCO-Profile-Example" xlink:title="UCO example profile\nupdates">
<path fill="#8ec7d2" stroke="#0d6986" d="M390,-239C390,-239 279,-239 279,-239 273,-239 267,-233 267,-227 267,-227 267,-213 267,-213 267,-207 273,-201 279,-201 279,-201 390,-201 390,-201 396,-201 402,-207 402,-213 402,-213 402,-227 402,-227 402,-233 396,-239 390,-239"/>
<text text-anchor="middle" x="334.5" y="-223.8" font-family="Times,serif" font-size="14.00">UCO example profile</text>
<text text-anchor="middle" x="334.5" y="-208.8" font-family="Times,serif" font-size="14.00">updates</text>
</a>
</g>
</g>
<!-- _GH__UCOPROJECT__UCO&#45;&gt;_GH__UCOPROJECT__UCO_PROFILE_EXAMPLE -->
<g id="edge27" class="edge">
<title>_GH__UCOPROJECT__UCO&#45;&gt;_GH__UCOPROJECT__UCO_PROFILE_EXAMPLE</title>
<path fill="none" stroke="black" d="M139.16,-256.6C153.34,-251.23 169.14,-245.82 184,-242 207.03,-236.07 232.49,-231.59 255.78,-228.26"/>
<polygon fill="black" stroke="black" points="256.23,-231.6 265.66,-226.77 255.28,-224.66 256.23,-231.6"/>
<text text-anchor="middle" x="206.5" y="-260.8" font-family="Times,serif" font-size="14.00">Git sub&#45;</text>
<text text-anchor="middle" x="206.5" y="-245.8" font-family="Times,serif" font-size="14.00">module</text>
</g>
<!-- _GH__CASEWORK__CASE -->
<g id="node7" class="node">
<title>_GH__CASEWORK__CASE</title>
<g id="a_node7"><a xlink:href="https://github.com/casework/CASE" xlink:title="CASE Ontology\nreleases">
<path fill="#8ec7d2" stroke="#0d6986" d="M375.5,-500C375.5,-500 293.5,-500 293.5,-500 287.5,-500 281.5,-494 281.5,-488 281.5,-488 281.5,-474 281.5,-474 281.5,-468 287.5,-462 293.5,-462 293.5,-462 375.5,-462 375.5,-462 381.5,-462 387.5,-468 387.5,-474 387.5,-474 387.5,-488 387.5,-488 387.5,-494 381.5,-500 375.5,-500"/>
<text text-anchor="middle" x="334.5" y="-484.8" font-family="Times,serif" font-size="14.00">CASE Ontology</text>
<text text-anchor="middle" x="334.5" y="-469.8" font-family="Times,serif" font-size="14.00">releases</text>
</a>
</g>
</g>
<!-- _GH__UCOPROJECT__UCO&#45;&gt;_GH__CASEWORK__CASE -->
<g id="edge25" class="edge">
<title>_GH__UCOPROJECT__UCO&#45;&gt;_GH__CASEWORK__CASE</title>
<path fill="none" stroke="black" d="M112.16,-295.25C139.44,-322.32 191.46,-372.74 239,-412 257.27,-427.09 278.52,-442.76 296.23,-455.34"/>
<polygon fill="black" stroke="black" points="293.95,-458.72 304.14,-461.62 297.98,-453 293.95,-458.72"/>
<text text-anchor="middle" x="206.5" y="-419.8" font-family="Times,serif" font-size="14.00">Git sub&#45;</text>
<text text-anchor="middle" x="206.5" y="-404.8" font-family="Times,serif" font-size="14.00">module</text>
</g>
<!-- _GH__UCOPROJECT__UCO_PROFILE_BFO -->
<g id="node4" class="node">
<title>_GH__UCOPROJECT__UCO_PROFILE_BFO</title>
<g id="a_node4"><a xlink:href="https://github.com/ucoProject/UCO-Profile-BFO" xlink:title="UCO BFO profile\nupdates">
<path fill="#8ec7d2" stroke="#0d6986" d="M642.5,-288C642.5,-288 551.5,-288 551.5,-288 545.5,-288 539.5,-282 539.5,-276 539.5,-276 539.5,-262 539.5,-262 539.5,-256 545.5,-250 551.5,-250 551.5,-250 642.5,-250 642.5,-250 648.5,-250 654.5,-256 654.5,-262 654.5,-262 654.5,-276 654.5,-276 654.5,-282 648.5,-288 642.5,-288"/>
<text text-anchor="middle" x="597" y="-272.8" font-family="Times,serif" font-size="14.00">UCO BFO profile</text>
<text text-anchor="middle" x="597" y="-257.8" font-family="Times,serif" font-size="14.00">updates</text>
</a>
</g>
</g>
<!-- _GH__UCOPROJECT__UCO_PROFILE_EXAMPLE&#45;&gt;_GH__UCOPROJECT__UCO_PROFILE_BFO -->
<g id="edge28" class="edge">
<title>_GH__UCOPROJECT__UCO_PROFILE_EXAMPLE&#45;&gt;_GH__UCOPROJECT__UCO_PROFILE_BFO</title>
<path fill="none" stroke="black" d="M402.29,-235.24C414.8,-237.94 427.78,-240.64 440,-243 468.92,-248.59 500.99,-254.06 528.49,-258.53"/>
<polygon fill="black" stroke="black" points="527.76,-262.12 538.19,-260.25 528.87,-255.2 527.76,-262.12"/>
<text text-anchor="middle" x="475.5" y="-273.8" font-family="Times,serif" font-size="14.00">Git merge of</text>
<text text-anchor="middle" x="475.5" y="-258.8" font-family="Times,serif" font-size="14.00">base branch</text>
</g>
<!-- _GH__UCOPROJECT__UCO_PROFILE_FOAF -->
<g id="node6" class="node">
<title>_GH__UCOPROJECT__UCO_PROFILE_FOAF</title>
<g id="a_node6"><a xlink:href="https://github.com/ucoProject/UCO-Profile-FOAF" xlink:title="UCO FOAF profile\nupdates">
<path fill="#8ec7d2" stroke="#0d6986" d="M646.5,-232C646.5,-232 547.5,-232 547.5,-232 541.5,-232 535.5,-226 535.5,-220 535.5,-220 535.5,-206 535.5,-206 535.5,-200 541.5,-194 547.5,-194 547.5,-194 646.5,-194 646.5,-194 652.5,-194 658.5,-200 658.5,-206 658.5,-206 658.5,-220 658.5,-220 658.5,-226 652.5,-232 646.5,-232"/>
<text text-anchor="middle" x="597" y="-216.8" font-family="Times,serif" font-size="14.00">UCO FOAF profile</text>
<text text-anchor="middle" x="597" y="-201.8" font-family="Times,serif" font-size="14.00">updates</text>
</a>
</g>
</g>
<!-- _GH__UCOPROJECT__UCO_PROFILE_EXAMPLE&#45;&gt;_GH__UCOPROJECT__UCO_PROFILE_FOAF -->
<g id="edge29" class="edge">
<title>_GH__UCOPROJECT__UCO_PROFILE_EXAMPLE&#45;&gt;_GH__UCOPROJECT__UCO_PROFILE_FOAF</title>
<path fill="none" stroke="black" d="M402.36,-214.85C414.86,-214.08 427.82,-213.41 440,-213 467.6,-212.08 497.96,-211.89 524.5,-212"/>
<polygon fill="black" stroke="black" points="524.22,-215.5 534.24,-212.06 524.26,-208.5 524.22,-215.5"/>
<text text-anchor="middle" x="475.5" y="-231.8" font-family="Times,serif" font-size="14.00">Git merge of</text>
<text text-anchor="middle" x="475.5" y="-216.8" font-family="Times,serif" font-size="14.00">base branch</text>
</g>
<!-- _GH__CASEWORK__CASE&#45;&gt;_GH__CASEWORK__ONTOLOGY_CASEONTOLOGY_ORG -->
<g id="edge4" class="edge">
<title>_GH__CASEWORK__CASE&#45;&gt;_GH__CASEWORK__ONTOLOGY_CASEONTOLOGY_ORG</title>
<path fill="none" stroke="black" d="M387.62,-479.77C426.89,-476 479.24,-464.41 511,-431 533.12,-407.73 510.58,-384.47 526.17,-358.06"/>
<polygon fill="black" stroke="black" points="529.48,-360.48 532.67,-350.37 523.87,-356.28 529.48,-360.48"/>
<text text-anchor="middle" x="475.5" y="-487.8" font-family="Times,serif" font-size="14.00">Git sub&#45;</text>
<text text-anchor="middle" x="475.5" y="-472.8" font-family="Times,serif" font-size="14.00">module</text>
</g>
<!-- _GH__CIPHERTECHSOLUTIONS__CASE_BINDINGS_CSHARP -->
<g id="node19" class="node">
<title>_GH__CIPHERTECHSOLUTIONS__CASE_BINDINGS_CSHARP</title>
<g id="a_node19"><a xlink:href="https://github.com/ciphertechsolutions/CASE-Bindings-CSharp" xlink:title="CASE&#45;Bindings&#45;CSharp\nadopts new ontology version">
<path fill="#8ec7d2" stroke="#0d6986" d="M1252.5,-1026C1252.5,-1026 1103.5,-1026 1103.5,-1026 1097.5,-1026 1091.5,-1020 1091.5,-1014 1091.5,-1014 1091.5,-1000 1091.5,-1000 1091.5,-994 1097.5,-988 1103.5,-988 1103.5,-988 1252.5,-988 1252.5,-988 1258.5,-988 1264.5,-994 1264.5,-1000 1264.5,-1000 1264.5,-1014 1264.5,-1014 1264.5,-1020 1258.5,-1026 1252.5,-1026"/>
<text text-anchor="middle" x="1178" y="-1010.8" font-family="Times,serif" font-size="14.00">CASE&#45;Bindings&#45;CSharp</text>
<text text-anchor="middle" x="1178" y="-995.8" font-family="Times,serif" font-size="14.00">adopts new ontology version</text>
</a>
</g>
</g>
<!-- _GH__CASEWORK__CASE&#45;&gt;_GH__CIPHERTECHSOLUTIONS__CASE_BINDINGS_CSHARP -->
<g id="edge3" class="edge">
<title>_GH__CASEWORK__CASE&#45;&gt;_GH__CIPHERTECHSOLUTIONS__CASE_BINDINGS_CSHARP</title>
<path fill="none" stroke="black" d="M344.01,-500.3C378.11,-575.07 513.04,-847.01 718,-959 778.37,-991.98 964.26,-1002.31 1080.12,-1005.54"/>
<polygon fill="black" stroke="black" points="1080.02,-1009.07 1090.11,-1005.83 1080.21,-1002.07 1080.02,-1009.07"/>
</g>
<!-- _GH__CASEWORK__CASE_UTILITIES_PYTHON -->
<g id="node23" class="node">
<title>_GH__CASEWORK__CASE_UTILITIES_PYTHON</title>
<g id="a_node23"><a xlink:href="https://github.com/casework/CASE-Utilities-Python" xlink:title="case&#45;utils\nreleases">
<path fill="#8ec7d2" stroke="#0d6986" d="M619,-566C619,-566 575,-566 575,-566 569,-566 563,-560 563,-554 563,-554 563,-540 563,-540 563,-534 569,-528 575,-528 575,-528 619,-528 619,-528 625,-528 631,-534 631,-540 631,-540 631,-554 631,-554 631,-560 625,-566 619,-566"/>
<text text-anchor="middle" x="597" y="-550.8" font-family="Times,serif" font-size="14.00">case&#45;utils</text>
<text text-anchor="middle" x="597" y="-535.8" font-family="Times,serif" font-size="14.00">releases</text>
</a>
</g>
</g>
<!-- _GH__CASEWORK__CASE&#45;&gt;_GH__CASEWORK__CASE_UTILITIES_PYTHON -->
<g id="edge2" class="edge">
<title>_GH__CASEWORK__CASE&#45;&gt;_GH__CASEWORK__CASE_UTILITIES_PYTHON</title>
<path fill="none" stroke="black" d="M387.9,-494.28C436.18,-506.51 507,-524.45 552.3,-535.93"/>
<polygon fill="black" stroke="black" points="551.13,-539.49 561.68,-538.56 552.85,-532.71 551.13,-539.49"/>
<text text-anchor="middle" x="475.5" y="-541.8" font-family="Times,serif" font-size="14.00">Git sub&#45;</text>
<text text-anchor="middle" x="475.5" y="-526.8" font-family="Times,serif" font-size="14.00">module</text>
</g>
<!-- _GH__CASEWORK__CASE_EXAMPLES_CONVERSION -->
<g id="node8" class="node">
<title>_GH__CASEWORK__CASE_EXAMPLES_CONVERSION</title>
<g id="a_node8"><a xlink:href="https://github.com/casework/CASE-Examples-Conversion" xlink:title="CASE Conversion Examples">
<path fill="#8ec7d2" stroke="#0d6986" d="M410,-403C410,-403 259,-403 259,-403 253,-403 247,-397 247,-391 247,-391 247,-379 247,-379 247,-373 253,-367 259,-367 259,-367 410,-367 410,-367 416,-367 422,-373 422,-379 422,-379 422,-391 422,-391 422,-397 416,-403 410,-403"/>
<text text-anchor="middle" x="334.5" y="-381.3" font-family="Times,serif" font-size="14.00">CASE Conversion Examples</text>
</a>
</g>
</g>
<!-- _GH__CASEWORK__CASE_IMPLEMENTATON_GNU_TIME -->
<g id="node10" class="node">
<title>_GH__CASEWORK__CASE_IMPLEMENTATON_GNU_TIME</title>
<g id="a_node10"><a xlink:href="https://github.com/casework/CASE-Implementation-GNU-Time" xlink:title="CASE&#45;Implementation&#45;GNU&#45;Time\nadopts new case&#45;utils">
<path fill="#8ec7d2" stroke="#0d6986" d="M1271,-1134C1271,-1134 1085,-1134 1085,-1134 1079,-1134 1073,-1128 1073,-1122 1073,-1122 1073,-1108 1073,-1108 1073,-1102 1079,-1096 1085,-1096 1085,-1096 1271,-1096 1271,-1096 1277,-1096 1283,-1102 1283,-1108 1283,-1108 1283,-1122 1283,-1122 1283,-1128 1277,-1134 1271,-1134"/>
<text text-anchor="middle" x="1178" y="-1118.8" font-family="Times,serif" font-size="14.00">CASE&#45;Implementation&#45;GNU&#45;Time</text>
<text text-anchor="middle" x="1178" y="-1103.8" font-family="Times,serif" font-size="14.00">adopts new case&#45;utils</text>
</a>
</g>
</g>
<!-- _GH__CASEWORK__CASE_CORPORA -->
<g id="node11" class="node">
<title>_GH__CASEWORK__CASE_CORPORA</title>
<g id="a_node11"><a xlink:href="https://github.com/casework/CASE-Corpora" xlink:title="CASE&#45;Corpora\nadopts new case&#45;prov">
<path fill="#8ec7d2" stroke="#0d6986" d="M1543.5,-1190C1543.5,-1190 1433.5,-1190 1433.5,-1190 1427.5,-1190 1421.5,-1184 1421.5,-1178 1421.5,-1178 1421.5,-1164 1421.5,-1164 1421.5,-1158 1427.5,-1152 1433.5,-1152 1433.5,-1152 1543.5,-1152 1543.5,-1152 1549.5,-1152 1555.5,-1158 1555.5,-1164 1555.5,-1164 1555.5,-1178 1555.5,-1178 1555.5,-1184 1549.5,-1190 1543.5,-1190"/>
<text text-anchor="middle" x="1488.5" y="-1174.8" font-family="Times,serif" font-size="14.00">CASE&#45;Corpora</text>
<text text-anchor="middle" x="1488.5" y="-1159.8" font-family="Times,serif" font-size="14.00">adopts new case&#45;prov</text>
</a>
</g>
</g>
<!-- _GH__CASEWORK__CASE_IMPLEMENTATON_PROV_O -->
<g id="node12" class="node">
<title>_GH__CASEWORK__CASE_IMPLEMENTATON_PROV_O</title>
<g id="a_node12"><a xlink:href="https://github.com/casework/CASE-Implementation-PROV-O" xlink:title="case&#45;prov\nreleases">
<path fill="#8ec7d2" stroke="#0d6986" d="M1200.5,-1190C1200.5,-1190 1155.5,-1190 1155.5,-1190 1149.5,-1190 1143.5,-1184 1143.5,-1178 1143.5,-1178 1143.5,-1164 1143.5,-1164 1143.5,-1158 1149.5,-1152 1155.5,-1152 1155.5,-1152 1200.5,-1152 1200.5,-1152 1206.5,-1152 1212.5,-1158 1212.5,-1164 1212.5,-1164 1212.5,-1178 1212.5,-1178 1212.5,-1184 1206.5,-1190 1200.5,-1190"/>
<text text-anchor="middle" x="1178" y="-1174.8" font-family="Times,serif" font-size="14.00">case&#45;prov</text>
<text text-anchor="middle" x="1178" y="-1159.8" font-family="Times,serif" font-size="14.00">releases</text>
</a>
</g>
</g>
<!-- _GH__CASEWORK__CASE_IMPLEMENTATON_PROV_O&#45;&gt;_GH__CASEWORK__CASE_CORPORA -->
<g id="edge6" class="edge">
<title>_GH__CASEWORK__CASE_IMPLEMENTATON_PROV_O&#45;&gt;_GH__CASEWORK__CASE_CORPORA</title>
<path fill="none" stroke="black" d="M1212.9,-1171C1260.1,-1171 1346.96,-1171 1410.38,-1171"/>
<polygon fill="black" stroke="black" points="1410.14,-1174.5 1420.14,-1171 1410.14,-1167.5 1410.14,-1174.5"/>
<text text-anchor="middle" x="1326.5" y="-1174.8" font-family="Times,serif" font-size="14.00">PyPI</text>
</g>
<!-- _GH__CASEWORK__CASE_IMPLEMENTATON_PYPI_EXIFREAD -->
<g id="node13" class="node">
<title>_GH__CASEWORK__CASE_IMPLEMENTATON_PYPI_EXIFREAD</title>
<g id="a_node13"><a xlink:href="https://github.com/casework/CASE-Implementation-PyPI-Exifread" xlink:title="CASE&#45;Implementation&#45;PyPI&#45;Exifread\nadopts new case&#45;validation&#45;action">
<path fill="#8ec7d2" stroke="#0d6986" d="M1278,-970C1278,-970 1078,-970 1078,-970 1072,-970 1066,-964 1066,-958 1066,-958 1066,-944 1066,-944 1066,-938 1072,-932 1078,-932 1078,-932 1278,-932 1278,-932 1284,-932 1290,-938 1290,-944 1290,-944 1290,-958 1290,-958 1290,-964 1284,-970 1278,-970"/>
<text text-anchor="middle" x="1178" y="-954.8" font-family="Times,serif" font-size="14.00">CASE&#45;Implementation&#45;PyPI&#45;Exifread</text>
<text text-anchor="middle" x="1178" y="-939.8" font-family="Times,serif" font-size="14.00">adopts new case&#45;validation&#45;action</text>
</a>
</g>
</g>
<!-- _GH__CASEWORK__CASE_IMPLEMENTATON_PYPI_PILLOW -->
<g id="node14" class="node">
<title>_GH__CASEWORK__CASE_IMPLEMENTATON_PYPI_PILLOW</title>
<g id="a_node14"><a xlink:href="https://github.com/casework/CASE-Implementation-PyPI-Pillow" xlink:title="CASE&#45;Implementation&#45;PyPI&#45;Pillow\nadopts new case&#45;validation&#45;action">
<path fill="#8ec7d2" stroke="#0d6986" d="M1272.5,-746C1272.5,-746 1083.5,-746 1083.5,-746 1077.5,-746 1071.5,-740 1071.5,-734 1071.5,-734 1071.5,-720 1071.5,-720 1071.5,-714 1077.5,-708 1083.5,-708 1083.5,-708 1272.5,-708 1272.5,-708 1278.5,-708 1284.5,-714 1284.5,-720 1284.5,-720 1284.5,-734 1284.5,-734 1284.5,-740 1278.5,-746 1272.5,-746"/>
<text text-anchor="middle" x="1178" y="-730.8" font-family="Times,serif" font-size="14.00">CASE&#45;Implementation&#45;PyPI&#45;Pillow</text>
<text text-anchor="middle" x="1178" y="-715.8" font-family="Times,serif" font-size="14.00">adopts new case&#45;validation&#45;action</text>
</a>
</g>
</g>
<!-- _GH__CASEWORK__CASE_IMPLEMENTATON_UFED_XML -->
<g id="node15" class="node">
<title>_GH__CASEWORK__CASE_IMPLEMENTATON_UFED_XML</title>
<g id="a_node15"><a xlink:href="https://github.com/casework/CASE-Implementation-UFED-XML" xlink:title="CASE&#45;Implementation&#45;UFED&#45;XML\nadopts new case&#45;validation&#45;action">
<path fill="#8ec7d2" stroke="#0d6986" d="M1275,-802C1275,-802 1081,-802 1081,-802 1075,-802 1069,-796 1069,-790 1069,-790 1069,-776 1069,-776 1069,-770 1075,-764 1081,-764 1081,-764 1275,-764 1275,-764 1281,-764 1287,-770 1287,-776 1287,-776 1287,-790 1287,-790 1287,-796 1281,-802 1275,-802"/>
<text text-anchor="middle" x="1178" y="-786.8" font-family="Times,serif" font-size="14.00">CASE&#45;Implementation&#45;UFED&#45;XML</text>
<text text-anchor="middle" x="1178" y="-771.8" font-family="Times,serif" font-size="14.00">adopts new case&#45;validation&#45;action</text>
</a>
</g>
</g>
<!-- _GH__CASEWORK__CASE_IMPLEMENTATON_XRY -->
<g id="node16" class="node">
<title>_GH__CASEWORK__CASE_IMPLEMENTATON_XRY</title>
<g id="a_node16"><a xlink:href="https://github.com/casework/CASE-Implementation-XRY" xlink:title="CASE&#45;Implementation&#45;XRY adopts\nnew case&#45;validation&#45;action">
<path fill="#8ec7d2" stroke="#0d6986" d="M1273,-858C1273,-858 1083,-858 1083,-858 1077,-858 1071,-852 1071,-846 1071,-846 1071,-832 1071,-832 1071,-826 1077,-820 1083,-820 1083,-820 1273,-820 1273,-820 1279,-820 1285,-826 1285,-832 1285,-832 1285,-846 1285,-846 1285,-852 1279,-858 1273,-858"/>
<text text-anchor="middle" x="1178" y="-842.8" font-family="Times,serif" font-size="14.00">CASE&#45;Implementation&#45;XRY adopts</text>
<text text-anchor="middle" x="1178" y="-827.8" font-family="Times,serif" font-size="14.00">new case&#45;validation&#45;action</text>
</a>
</g>
</g>
<!-- _GH__CASEWORK__CASE_MAPPING_TEMPLATE_PYTHON -->
<g id="node17" class="node">
<title>_GH__CASEWORK__CASE_MAPPING_TEMPLATE_PYTHON</title>
<g id="a_node17"><a xlink:href="https://github.com/casework/CASE-Mapping-Template-Python" xlink:title="CASE&#45;Mapping&#45;Template&#45;Python\nadopts new case&#45;validation&#45;action">
<path fill="#8ec7d2" stroke="#0d6986" d="M1268,-914C1268,-914 1088,-914 1088,-914 1082,-914 1076,-908 1076,-902 1076,-902 1076,-888 1076,-888 1076,-882 1082,-876 1088,-876 1088,-876 1268,-876 1268,-876 1274,-876 1280,-882 1280,-888 1280,-888 1280,-902 1280,-902 1280,-908 1274,-914 1268,-914"/>
<text text-anchor="middle" x="1178" y="-898.8" font-family="Times,serif" font-size="14.00">CASE&#45;Mapping&#45;Template&#45;Python</text>
<text text-anchor="middle" x="1178" y="-883.8" font-family="Times,serif" font-size="14.00">adopts new case&#45;validation&#45;action</text>
</a>
</g>
</g>
<!-- _GH__CASEWORK__CASE_BINDINGS_CSHARP_MONITOR -->
<g id="node18" class="node">
<title>_GH__CASEWORK__CASE_BINDINGS_CSHARP_MONITOR</title>
<g id="a_node18"><a xlink:href="https://github.com/casework/CASE-Bindings-CSharp-Monitor" xlink:title="CASE Bindings CSharp Monitor\ntests NuGet package with validation action">
<path fill="#8ec7d2" stroke="#0d6986" d="M1602,-1026C1602,-1026 1375,-1026 1375,-1026 1369,-1026 1363,-1020 1363,-1014 1363,-1014 1363,-1000 1363,-1000 1363,-994 1369,-988 1375,-988 1375,-988 1602,-988 1602,-988 1608,-988 1614,-994 1614,-1000 1614,-1000 1614,-1014 1614,-1014 1614,-1020 1608,-1026 1602,-1026"/>
<text text-anchor="middle" x="1488.5" y="-1010.8" font-family="Times,serif" font-size="14.00">CASE Bindings CSharp Monitor</text>
<text text-anchor="middle" x="1488.5" y="-995.8" font-family="Times,serif" font-size="14.00">tests NuGet package with validation action</text>
</a>
</g>
</g>
<!-- _GH__CIPHERTECHSOLUTIONS__CASE_BINDINGS_CSHARP&#45;&gt;_GH__CASEWORK__CASE_BINDINGS_CSHARP_MONITOR -->
<g id="edge16" class="edge">
<title>_GH__CIPHERTECHSOLUTIONS__CASE_BINDINGS_CSHARP&#45;&gt;_GH__CASEWORK__CASE_BINDINGS_CSHARP_MONITOR</title>
<path fill="none" stroke="black" d="M1264.93,-1007C1291.85,-1007 1322.24,-1007 1351.72,-1007"/>
<polygon fill="black" stroke="black" points="1351.53,-1010.5 1361.53,-1007 1351.53,-1003.5 1351.53,-1010.5"/>
<text text-anchor="middle" x="1326.5" y="-1010.8" font-family="Times,serif" font-size="14.00">NuGet</text>
</g>
<!-- _GH__AJNELSON_NIST__CASE_EXAMPLES_QC -->
<g id="node20" class="node">
<title>_GH__AJNELSON_NIST__CASE_EXAMPLES_QC</title>
<g id="a_node20"><a xlink:href="https://github.com/ajnelson-nist/CASE-Examples-QC" xlink:title="CASE&#45;Examples&#45;QC\nadopts CASE&#45;Examples and\nCASE website updates">
<path fill="#8ec7d2" stroke="#0d6986" d="M1252,-573.5C1252,-573.5 1104,-573.5 1104,-573.5 1098,-573.5 1092,-567.5 1092,-561.5 1092,-561.5 1092,-532.5 1092,-532.5 1092,-526.5 1098,-520.5 1104,-520.5 1104,-520.5 1252,-520.5 1252,-520.5 1258,-520.5 1264,-526.5 1264,-532.5 1264,-532.5 1264,-561.5 1264,-561.5 1264,-567.5 1258,-573.5 1252,-573.5"/>
<text text-anchor="middle" x="1178" y="-558.3" font-family="Times,serif" font-size="14.00">CASE&#45;Examples&#45;QC</text>
<text text-anchor="middle" x="1178" y="-543.3" font-family="Times,serif" font-size="14.00">adopts CASE&#45;Examples and</text>
<text text-anchor="middle" x="1178" y="-528.3" font-family="Times,serif" font-size="14.00">CASE website updates</text>
</a>
</g>
</g>
<!-- _GH__AJNELSON_NIST__CASE_EXAMPLES_QC&#45;&gt;_GH__CASEWORK__CASE_IMPLEMENTATON_PROV_O -->
<g id="edge1" class="edge">
<title>_GH__AJNELSON_NIST__CASE_EXAMPLES_QC&#45;&gt;_GH__CASEWORK__CASE_IMPLEMENTATON_PROV_O</title>
<path fill="none" stroke="black" d="M1147.66,-573.88C1118.27,-601.6 1074.65,-647.51 1050,-696 1016.48,-761.93 1020.44,-784.53 1011.92,-858 999.29,-966.88 992.12,-1088.22 1050,-1148 1070.84,-1169.53 1104.48,-1174.92 1132.04,-1175.11"/>
<polygon fill="black" stroke="black" points="1132.09,-1178.6 1142.03,-1174.93 1131.97,-1171.6 1132.09,-1178.6"/>
<text text-anchor="middle" x="1002.5" y="-876.8" font-family="Times,serif" font-size="14.00">Git sub&#45;</text>
<text text-anchor="middle" x="1002.5" y="-861.8" font-family="Times,serif" font-size="14.00">module</text>
</g>
<!-- _GH__CASEWORK__CASE_EXAMPLES -->
<g id="node21" class="node">
<title>_GH__CASEWORK__CASE_EXAMPLES</title>
<g id="a_node21"><a xlink:href="https://github.com/casework/CASE-Examples" xlink:title="CASE&#45;Examples\nadopts new case&#45;utils">
<path fill="#8ec7d2" stroke="#0d6986" d="M890.5,-454C890.5,-454 781.5,-454 781.5,-454 775.5,-454 769.5,-448 769.5,-442 769.5,-442 769.5,-428 769.5,-428 769.5,-422 775.5,-416 781.5,-416 781.5,-416 890.5,-416 890.5,-416 896.5,-416 902.5,-422 902.5,-428 902.5,-428 902.5,-442 902.5,-442 902.5,-448 896.5,-454 890.5,-454"/>
<text text-anchor="middle" x="836" y="-438.8" font-family="Times,serif" font-size="14.00">CASE&#45;Examples</text>
<text text-anchor="middle" x="836" y="-423.8" font-family="Times,serif" font-size="14.00">adopts new case&#45;utils</text>
</a>
</g>
</g>
<!-- _GH__CASEWORK__CASE_EXAMPLES&#45;&gt;_GH__AJNELSON_NIST__CASE_EXAMPLES_QC -->
<g id="edge5" class="edge">
<title>_GH__CASEWORK__CASE_EXAMPLES&#45;&gt;_GH__AJNELSON_NIST__CASE_EXAMPLES_QC</title>
<path fill="none" stroke="black" d="M902.94,-449.06C920.01,-453.14 938.29,-457.88 955,-463 1004.97,-478.31 1059.92,-499.07 1102.65,-516.12"/>
<polygon fill="black" stroke="black" points="1101.09,-519.67 1111.68,-520.14 1103.7,-513.17 1101.09,-519.67"/>
<text text-anchor="middle" x="1002.5" y="-510.8" font-family="Times,serif" font-size="14.00">Git sub&#45;</text>
<text text-anchor="middle" x="1002.5" y="-495.8" font-family="Times,serif" font-size="14.00">module</text>
</g>
<!-- _GH__CASEWORK__CASE_IMPLEMENTATON_EXIFTOOL -->
<g id="node22" class="node">
<title>_GH__CASEWORK__CASE_IMPLEMENTATON_EXIFTOOL</title>
<g id="a_node22"><a xlink:href="https://github.com/casework/CASE-Implementation-ExifTool" xlink:title="CASE&#45;Implementation&#45;ExifTool\nadopts new case&#45;utils">
<path fill="#8ec7d2" stroke="#0d6986" d="M922,-510C922,-510 750,-510 750,-510 744,-510 738,-504 738,-498 738,-498 738,-484 738,-484 738,-478 744,-472 750,-472 750,-472 922,-472 922,-472 928,-472 934,-478 934,-484 934,-484 934,-498 934,-498 934,-504 928,-510 922,-510"/>
<text text-anchor="middle" x="836" y="-494.8" font-family="Times,serif" font-size="14.00">CASE&#45;Implementation&#45;ExifTool</text>
<text text-anchor="middle" x="836" y="-479.8" font-family="Times,serif" font-size="14.00">adopts new case&#45;utils</text>
</a>
</g>
</g>
<!-- _GH__CASEWORK__CASE_UTILITIES_PYTHON&#45;&gt;_GH__CASEWORK__CASE_IMPLEMENTATON_GNU_TIME -->
<g id="edge10" class="edge">
<title>_GH__CASEWORK__CASE_UTILITIES_PYTHON&#45;&gt;_GH__CASEWORK__CASE_IMPLEMENTATON_GNU_TIME</title>
<path fill="none" stroke="black" d="M597.73,-566.41C597.89,-631.33 607.27,-843.26 718,-959 731.85,-973.47 978.99,-1052.71 1104.75,-1092.37"/>
<polygon fill="black" stroke="black" points="1103.47,-1095.95 1114.06,-1095.62 1105.57,-1089.27 1103.47,-1095.95"/>
<text text-anchor="middle" x="836" y="-1047.8" font-family="Times,serif" font-size="14.00">PyPI</text>
</g>
<!-- _GH__CASEWORK__CASE_UTILITIES_PYTHON&#45;&gt;_GH__CASEWORK__CASE_IMPLEMENTATON_PROV_O -->
<g id="edge11" class="edge">
<title>_GH__CASEWORK__CASE_UTILITIES_PYTHON&#45;&gt;_GH__CASEWORK__CASE_IMPLEMENTATON_PROV_O</title>
<path fill="none" stroke="black" d="M599.76,-566.33C607.9,-651.26 644.6,-990.32 718,-1062 833.04,-1174.33 1041.56,-1178.48 1132.54,-1174.31"/>
<polygon fill="black" stroke="black" points="1132.49,-1177.76 1142.3,-1173.75 1132.13,-1170.77 1132.49,-1177.76"/>
<text text-anchor="middle" x="836" y="-1167.8" font-family="Times,serif" font-size="14.00">PyPI</text>
</g>
<!-- _GH__CASEWORK__CASE_UTILITIES_PYTHON&#45;&gt;_GH__CASEWORK__CASE_IMPLEMENTATON_PYPI_EXIFREAD -->
<g id="edge12" class="edge">
<title>_GH__CASEWORK__CASE_UTILITIES_PYTHON&#45;&gt;_GH__CASEWORK__CASE_IMPLEMENTATON_PYPI_EXIFREAD</title>
<path fill="none" stroke="black" d="M631.3,-553.53C642.85,-557 655.32,-562.22 665,-570 673.82,-577.09 711.37,-647.83 718,-657 816.47,-793.18 811.46,-872.36 963,-945 972.08,-949.35 1011.79,-951.09 1054.58,-951.66"/>
<polygon fill="black" stroke="black" points="1054.47,-955.17 1064.51,-951.78 1054.55,-948.17 1054.47,-955.17"/>
<text text-anchor="middle" x="836" y="-943.8" font-family="Times,serif" font-size="14.00">PyPI</text>
</g>
<!-- _GH__CASEWORK__CASE_UTILITIES_PYTHON&#45;&gt;_GH__AJNELSON_NIST__CASE_EXAMPLES_QC -->
<g id="edge7" class="edge">
<title>_GH__CASEWORK__CASE_UTILITIES_PYTHON&#45;&gt;_GH__AJNELSON_NIST__CASE_EXAMPLES_QC</title>
<path fill="none" stroke="black" d="M631.44,-542.05C643.42,-538.74 656.14,-533.22 665,-524 684.3,-503.93 672.88,-489.94 683,-464 695.93,-430.85 687.84,-410.87 718,-392 807.29,-336.12 854.52,-360.39 955,-392 1030.09,-415.62 1101.94,-474.66 1142.65,-512.68"/>
<polygon fill="black" stroke="black" points="1139.95,-514.89 1149.61,-519.22 1144.76,-509.8 1139.95,-514.89"/>
<text text-anchor="middle" x="836" y="-395.8" font-family="Times,serif" font-size="14.00">PyPI</text>
</g>
<!-- _GH__CASEWORK__CASE_UTILITIES_PYTHON&#45;&gt;_GH__CASEWORK__CASE_EXAMPLES -->
<g id="edge8" class="edge">
<title>_GH__CASEWORK__CASE_UTILITIES_PYTHON&#45;&gt;_GH__CASEWORK__CASE_EXAMPLES</title>
<path fill="none" stroke="black" d="M631.5,-539.63C642.81,-536.1 655.08,-531.06 665,-524 675.57,-516.47 674.6,-510.89 683,-501 697.87,-483.5 698.2,-474.62 718,-463 730.47,-455.68 744.74,-450.28 758.94,-446.28"/>
<polygon fill="black" stroke="black" points="759.43,-449.51 768.23,-443.62 757.68,-442.74 759.43,-449.51"/>
<text text-anchor="middle" x="696.5" y="-504.8" font-family="Times,serif" font-size="14.00">PyPI</text>
</g>
<!-- _GH__CASEWORK__CASE_UTILITIES_PYTHON&#45;&gt;_GH__CASEWORK__CASE_IMPLEMENTATON_EXIFTOOL -->
<g id="edge9" class="edge">
<title>_GH__CASEWORK__CASE_UTILITIES_PYTHON&#45;&gt;_GH__CASEWORK__CASE_IMPLEMENTATON_EXIFTOOL</title>
<path fill="none" stroke="black" d="M631.45,-539.1C660.27,-532.29 703.26,-522.13 742.32,-512.9"/>
<polygon fill="black" stroke="black" points="742.76,-516.16 751.68,-510.45 741.15,-509.34 742.76,-516.16"/>
<text text-anchor="middle" x="696.5" y="-528.8" font-family="Times,serif" font-size="14.00">PyPI</text>
</g>
<!-- _GH__CASEWORK__CASEWORK_GITHUB_IO -->
<g id="node24" class="node">
<title>_GH__CASEWORK__CASEWORK_GITHUB_IO</title>
<g id="a_node24"><a xlink:href="https://github.com/casework/casework.github.io" xlink:title="CASE website\nadopts new case&#45;utils">
<path fill="#8ec7d2" stroke="#0d6986" d="M890.5,-566C890.5,-566 781.5,-566 781.5,-566 775.5,-566 769.5,-560 769.5,-554 769.5,-554 769.5,-540 769.5,-540 769.5,-534 775.5,-528 781.5,-528 781.5,-528 890.5,-528 890.5,-528 896.5,-528 902.5,-534 902.5,-540 902.5,-540 902.5,-554 902.5,-554 902.5,-560 896.5,-566 890.5,-566"/>
<text text-anchor="middle" x="836" y="-550.8" font-family="Times,serif" font-size="14.00">CASE website</text>
<text text-anchor="middle" x="836" y="-535.8" font-family="Times,serif" font-size="14.00">adopts new case&#45;utils</text>
</a>
</g>
</g>
<!-- _GH__CASEWORK__CASE_UTILITIES_PYTHON&#45;&gt;_GH__CASEWORK__CASEWORK_GITHUB_IO -->
<g id="edge14" class="edge">
<title>_GH__CASEWORK__CASE_UTILITIES_PYTHON&#45;&gt;_GH__CASEWORK__CASEWORK_GITHUB_IO</title>
<path fill="none" stroke="black" d="M631.45,-547C664.2,-547 715.27,-547 758.05,-547"/>
<polygon fill="black" stroke="black" points="758.02,-550.5 768.02,-547 758.02,-543.5 758.02,-550.5"/>
<text text-anchor="middle" x="696.5" y="-550.8" font-family="Times,serif" font-size="14.00">PyPI</text>
</g>
<!-- _GH__KCHASON__CASE_VALIDATION_ACTION -->
<g id="node25" class="node">
<title>_GH__KCHASON__CASE_VALIDATION_ACTION</title>
<g id="a_node25"><a xlink:href="https://github.com/kchason/case-validation-action" xlink:title="case&#45;validation&#45;action\nreleases">
<path fill="#8ec7d2" stroke="#0d6986" d="M892,-622C892,-622 780,-622 780,-622 774,-622 768,-616 768,-610 768,-610 768,-596 768,-596 768,-590 774,-584 780,-584 780,-584 892,-584 892,-584 898,-584 904,-590 904,-596 904,-596 904,-610 904,-610 904,-616 898,-622 892,-622"/>
<text text-anchor="middle" x="836" y="-606.8" font-family="Times,serif" font-size="14.00">case&#45;validation&#45;action</text>
<text text-anchor="middle" x="836" y="-591.8" font-family="Times,serif" font-size="14.00">releases</text>
</a>
</g>
</g>
<!-- _GH__CASEWORK__CASE_UTILITIES_PYTHON&#45;&gt;_GH__KCHASON__CASE_VALIDATION_ACTION -->
<g id="edge13" class="edge">
<title>_GH__CASEWORK__CASE_UTILITIES_PYTHON&#45;&gt;_GH__KCHASON__CASE_VALIDATION_ACTION</title>
<path fill="none" stroke="black" d="M631.45,-556.92C655.43,-563.85 688.56,-573.07 718,-580 730.64,-582.98 744.11,-585.87 757.25,-588.56"/>
<polygon fill="black" stroke="black" points="756.19,-592.11 766.69,-590.66 757.57,-585.25 756.19,-592.11"/>
<text text-anchor="middle" x="696.5" y="-580.8" font-family="Times,serif" font-size="14.00">PyPI</text>
</g>
<!-- _GH__CASEWORK__CASEWORK_GITHUB_IO&#45;&gt;_GH__AJNELSON_NIST__CASE_EXAMPLES_QC -->
<g id="edge15" class="edge">
<title>_GH__CASEWORK__CASEWORK_GITHUB_IO&#45;&gt;_GH__AJNELSON_NIST__CASE_EXAMPLES_QC</title>
<path fill="none" stroke="black" d="M902.96,-547C953.48,-547 1023.93,-547 1080.75,-547"/>
<polygon fill="black" stroke="black" points="1080.55,-550.5 1090.55,-547 1080.55,-543.5 1080.55,-550.5"/>
<text text-anchor="middle" x="1002.5" y="-565.8" font-family="Times,serif" font-size="14.00">Git sub&#45;</text>
<text text-anchor="middle" x="1002.5" y="-550.8" font-family="Times,serif" font-size="14.00">module</text>
</g>
<!-- _GH__KCHASON__CASE_VALIDATION_ACTION&#45;&gt;_GH__CASEWORK__CASE_IMPLEMENTATON_PYPI_EXIFREAD -->
<g id="edge18" class="edge">
<title>_GH__KCHASON__CASE_VALIDATION_ACTION&#45;&gt;_GH__CASEWORK__CASE_IMPLEMENTATON_PYPI_EXIFREAD</title>
<path fill="none" stroke="black" d="M839.8,-622.37C848.3,-673.97 878.57,-815.94 963,-891 990.43,-915.38 1010.53,-896.13 1042,-915 1046.31,-917.59 1045.59,-920.58 1050,-923 1052.74,-924.5 1055.55,-925.92 1058.42,-927.26"/>
<polygon fill="black" stroke="black" points="1056.82,-930.81 1067.39,-931.55 1059.58,-924.38 1056.82,-930.81"/>
<text text-anchor="middle" x="1002.5" y="-933.8" font-family="Times,serif" font-size="14.00">GitHub</text>
<text text-anchor="middle" x="1002.5" y="-918.8" font-family="Times,serif" font-size="14.00">Action</text>
</g>
<!-- _GH__KCHASON__CASE_VALIDATION_ACTION&#45;&gt;_GH__CASEWORK__CASE_IMPLEMENTATON_PYPI_PILLOW -->
<g id="edge19" class="edge">
<title>_GH__KCHASON__CASE_VALIDATION_ACTION&#45;&gt;_GH__CASEWORK__CASE_IMPLEMENTATON_PYPI_PILLOW</title>
<path fill="none" stroke="black" d="M904.2,-595.5C949.29,-594.42 1006.7,-601.39 1042,-637 1058.15,-653.29 1034.97,-670.66 1050,-688 1054.56,-693.26 1059.81,-697.82 1065.53,-701.78"/>
<polygon fill="black" stroke="black" points="1063.5,-705.26 1073.86,-707.51 1067.17,-699.29 1063.5,-705.26"/>
<text text-anchor="middle" x="1002.5" y="-655.8" font-family="Times,serif" font-size="14.00">GitHub</text>
<text text-anchor="middle" x="1002.5" y="-640.8" font-family="Times,serif" font-size="14.00">Action</text>
</g>
<!-- _GH__KCHASON__CASE_VALIDATION_ACTION&#45;&gt;_GH__CASEWORK__CASE_IMPLEMENTATON_UFED_XML -->
<g id="edge20" class="edge">
<title>_GH__KCHASON__CASE_VALIDATION_ACTION&#45;&gt;_GH__CASEWORK__CASE_IMPLEMENTATON_UFED_XML</title>
<path fill="none" stroke="black" d="M874.99,-622.44C899.96,-635.18 933.38,-652.17 963,-667 998.01,-684.53 1018.71,-674.52 1042,-706 1055.13,-723.74 1034.83,-738.97 1050,-755 1052.97,-758.14 1056.21,-760.97 1059.65,-763.51"/>
<polygon fill="black" stroke="black" points="1057.31,-766.8 1067.62,-769.26 1061.09,-760.91 1057.31,-766.8"/>
<text text-anchor="middle" x="1002.5" y="-724.8" font-family="Times,serif" font-size="14.00">GitHub</text>
<text text-anchor="middle" x="1002.5" y="-709.8" font-family="Times,serif" font-size="14.00">Action</text>
</g>
<!-- _GH__KCHASON__CASE_VALIDATION_ACTION&#45;&gt;_GH__CASEWORK__CASE_IMPLEMENTATON_XRY -->
<g id="edge21" class="edge">
<title>_GH__KCHASON__CASE_VALIDATION_ACTION&#45;&gt;_GH__CASEWORK__CASE_IMPLEMENTATON_XRY</title>
<path fill="none" stroke="black" d="M850.82,-622.27C872.04,-650.66 915.26,-703.82 963,-736 994.27,-757.08 1018.04,-737.87 1042,-767 1054.63,-782.35 1036.21,-796.69 1050,-811 1053.44,-814.57 1057.23,-817.74 1061.27,-820.54"/>
<polygon fill="black" stroke="black" points="1059.14,-823.94 1069.51,-826.11 1062.76,-817.95 1059.14,-823.94"/>
<text text-anchor="middle" x="1002.5" y="-785.8" font-family="Times,serif" font-size="14.00">GitHub</text>
<text text-anchor="middle" x="1002.5" y="-770.8" font-family="Times,serif" font-size="14.00">Action</text>
</g>
<!-- _GH__KCHASON__CASE_VALIDATION_ACTION&#45;&gt;_GH__CASEWORK__CASE_MAPPING_TEMPLATE_PYTHON -->
<g id="edge22" class="edge">
<title>_GH__KCHASON__CASE_VALIDATION_ACTION&#45;&gt;_GH__CASEWORK__CASE_MAPPING_TEMPLATE_PYTHON</title>
<path fill="none" stroke="black" d="M844.41,-622.3C860.25,-661.05 901.07,-748.73 963,-797 992.27,-819.81 1017.74,-795.93 1042,-824 1054.71,-838.71 1036.48,-853.03 1050,-867 1054.79,-871.95 1060.24,-876.12 1066.13,-879.62"/>
<polygon fill="black" stroke="black" points="1064.23,-883.1 1074.72,-884.6 1067.45,-876.88 1064.23,-883.1"/>
<text text-anchor="middle" x="1002.5" y="-842.8" font-family="Times,serif" font-size="14.00">GitHub</text>
<text text-anchor="middle" x="1002.5" y="-827.8" font-family="Times,serif" font-size="14.00">Action</text>
</g>
<!-- _GH__KCHASON__CASE_VALIDATION_ACTION&#45;&gt;_GH__CASEWORK__CASE_BINDINGS_CSHARP_MONITOR -->
<g id="edge17" class="edge">
<title>_GH__KCHASON__CASE_VALIDATION_ACTION&#45;&gt;_GH__CASEWORK__CASE_BINDINGS_CSHARP_MONITOR</title>
<path fill="none" stroke="black" d="M904.22,-604.82C923.33,-601.79 942.36,-594.73 955,-580 969.41,-563.21 948.04,-397.3 963,-381 986.93,-354.93 1012.86,-391.08 1042,-371 1048.22,-366.71 1043.52,-359.89 1050,-356 1141.47,-301.12 1204.32,-292.46 1290,-356 1394.43,-433.45 1465.32,-859.2 1483.11,-976.86"/>
<polygon fill="black" stroke="black" points="1479.77,-977.19 1484.71,-986.57 1486.7,-976.16 1479.77,-977.19"/>
<text text-anchor="middle" x="1178" y="-374.8" font-family="Times,serif" font-size="14.00">GitHub</text>
<text text-anchor="middle" x="1178" y="-359.8" font-family="Times,serif" font-size="14.00">Action</text>
</g>
<!-- _GH__DOD_CYBER_CRIME_CENTER__SQLITE_DISSECT -->
<g id="node26" class="node">
<title>_GH__DOD_CYBER_CRIME_CENTER__SQLITE_DISSECT</title>
<g id="a_node26"><a xlink:href="https://github.com/dod-cyber-crime-center/sqlite-dissect" xlink:title="sqlite&#45;dissect\nadopts new case&#45;validation&#45;action">
<path fill="#8ec7d2" stroke="#0d6986" d="M1266.5,-178C1266.5,-178 1089.5,-178 1089.5,-178 1083.5,-178 1077.5,-172 1077.5,-166 1077.5,-166 1077.5,-152 1077.5,-152 1077.5,-146 1083.5,-140 1089.5,-140 1089.5,-140 1266.5,-140 1266.5,-140 1272.5,-140 1278.5,-146 1278.5,-152 1278.5,-152 1278.5,-166 1278.5,-166 1278.5,-172 1272.5,-178 1266.5,-178"/>
<text text-anchor="middle" x="1178" y="-162.8" font-family="Times,serif" font-size="14.00">sqlite&#45;dissect</text>
<text text-anchor="middle" x="1178" y="-147.8" font-family="Times,serif" font-size="14.00">adopts new case&#45;validation&#45;action</text>
</a>
</g>
</g>
<!-- _GH__KCHASON__CASE_VALIDATION_ACTION&#45;&gt;_GH__DOD_CYBER_CRIME_CENTER__SQLITE_DISSECT -->
<g id="edge23" class="edge">
<title>_GH__KCHASON__CASE_VALIDATION_ACTION&#45;&gt;_GH__DOD_CYBER_CRIME_CENTER__SQLITE_DISSECT</title>
<g id="a_edge23"><a xlink:href="https://github.com/dod-cyber-crime-center/sqlite-dissect/pull/31" xlink:title="TODO: PR 31">
<path fill="none" stroke="black" d="M904.26,-604.85C923.37,-601.83 942.39,-594.76 955,-580 971.18,-561.06 952.59,-378.62 963,-356 998.97,-277.83 1081.86,-216.44 1133.28,-184.13"/>
<polygon fill="black" stroke="black" points="1134.83,-186.67 1141.5,-178.44 1131.15,-180.72 1134.83,-186.67"/>
</a>
</g>
<g id="a_edge23&#45;label"><a xlink:href="https://github.com/dod-cyber-crime-center/sqlite-dissect/pull/31" xlink:title="TODO: PR 31">
<text text-anchor="middle" x="1002.5" y="-359.8" font-family="Times,serif" font-size="14.00">TODO: PR 31</text>
</a>
</g>
</g>
</g>
</svg>
