<?xml version="1.0" encoding="UTF-8" standalone="no"?>
<!DOCTYPE svg PUBLIC "-//W3C//DTD SVG 1.1//EN"
 "http://www.w3.org/Graphics/SVG/1.1/DTD/svg11.dtd">
<!-- Generated by graphviz version 7.1.0 (20230121.1956)
 -->
<!-- Title: cdo_release_flow Pages: 1 -->
<svg width="1617pt" height="1127pt"
 viewBox="0.00 0.00 1617.00 1127.00" xmlns="http://www.w3.org/2000/svg" xmlns:xlink="http://www.w3.org/1999/xlink">
<g id="graph0" class="graph" transform="scale(1 1) rotate(0) translate(4 1123)">
<title>cdo_release_flow</title>
<polygon fill="white" stroke="none" points="-4,4 -4,-1123 1613,-1123 1613,4 -4,4"/>
<text text-anchor="middle" x="804.5" y="-38.8" font-family="Times,serif" font-size="14.00">Release flow of CDO ontologies</text>
<text text-anchor="middle" x="804.5" y="-7.8" font-family="Times,serif" font-size="14.00">Nodes link to the respective Git repository.</text>
<g id="clust1" class="cluster">
<title>cluster_uco_0_9_1</title>
<polygon fill="none" stroke="black" points="189,-186 189,-350 357,-350 357,-186 189,-186"/>
<text text-anchor="middle" x="273" y="-334.8" font-family="Times,serif" font-size="14.00">Adoption of UCO 0.9.1</text>
</g>
<g id="clust2" class="cluster">
<title>cluster_case_0_7_1</title>
<polygon fill="none" stroke="black" points="197,-242 197,-319 349,-319 349,-242 197,-242"/>
<text text-anchor="middle" x="273" y="-303.8" font-family="Times,serif" font-size="14.00">Adoption of CASE 0.7.1</text>
</g>
<g id="clust3" class="cluster">
<title>cluster_uco_1_1_0</title>
<polygon fill="none" stroke="black" points="944,-100 944,-350 1232,-350 1232,-100 944,-100"/>
<text text-anchor="middle" x="1088" y="-334.8" font-family="Times,serif" font-size="14.00">Adoption of UCO 1.1.0</text>
</g>
<g id="clust4" class="cluster">
<title>cluster_case_1_1_0</title>
<polygon fill="none" stroke="black" points="952,-108 952,-319 1224,-319 1224,-108 952,-108"/>
<text text-anchor="middle" x="1088" y="-303.8" font-family="Times,serif" font-size="14.00">Adoption of CASE 1.1.0</text>
</g>
<g id="clust5" class="cluster">
<title>cluster_case_utils_0_9_0</title>
<polygon fill="none" stroke="black" points="960,-116 960,-288 1216,-288 1216,-116 960,-116"/>
<text text-anchor="middle" x="1088" y="-272.8" font-family="Times,serif" font-size="14.00">Adoption of case&#45;utils 0.9.0</text>
</g>
<g id="clust6" class="cluster">
<title>cluster_case_validation_action_2_5</title>
<polygon fill="none" stroke="black" points="968,-124 968,-257 1208,-257 1208,-124 968,-124"/>
<text text-anchor="middle" x="1088" y="-241.8" font-family="Times,serif" font-size="14.00">Adoption of case&#45;validation&#45;action 2.5</text>
</g>
<g id="clust7" class="cluster">
<title>cluster_uco_1_2_0</title>
<polygon fill="none" stroke="black" points="8,-358 8,-1111 1601,-1111 1601,-358 8,-358"/>
<text text-anchor="middle" x="804.5" y="-1095.8" font-family="Times,serif" font-size="14.00">Adoption of UCO 1.2.0</text>
</g>
<g id="clust8" class="cluster">
<title>cluster_case_1_2_0</title>
<polygon fill="none" stroke="black" points="212,-366 212,-1080 1593,-1080 1593,-366 212,-366"/>
<text text-anchor="middle" x="902.5" y="-1064.8" font-family="Times,serif" font-size="14.00">Adoption of CASE 1.2.0</text>
</g>
<g id="clust9" class="cluster">
<title>cluster_case_utils_0_10_0</title>
<polygon fill="none" stroke="black" points="456,-420 456,-1049 1585,-1049 1585,-420 456,-420"/>
<text text-anchor="middle" x="1020.5" y="-1033.8" font-family="Times,serif" font-size="14.00">Adoption of case&#45;utils 0.10.0</text>
</g>
<g id="clust10" class="cluster">
<title>cluster_case_prov_0_7_0</title>
<polygon fill="none" stroke="black" points="1295,-936 1295,-1013 1577,-1013 1577,-936 1295,-936"/>
<text text-anchor="middle" x="1436" y="-997.8" font-family="Times,serif" font-size="14.00">Adoption of case&#45;prov 0.7.0</text>
</g>
<g id="clust11" class="cluster">
<title>cluster_case_validation_action_2_6</title>
<polygon fill="none" stroke="black" points="631.5,-530 631.5,-845 1229.5,-845 1229.5,-530 631.5,-530"/>
<text text-anchor="middle" x="930.5" y="-829.8" font-family="Times,serif" font-size="14.00">Adoption of case&#45;validation&#45;action 2.6</text>
</g>
<g id="clust12" class="cluster">
<title>cluster_case_bindings_csharp_0_4_0</title>
<polygon fill="none" stroke="black" points="639.5,-737 639.5,-814 1221.5,-814 1221.5,-737 639.5,-737"/>
<text text-anchor="middle" x="930.5" y="-798.8" font-family="Times,serif" font-size="14.00">Adoption of CSharp bindings 0.4.0</text>
</g>
<!-- _GH__UCOPROJECT__ONTOLOGY_UNIFIEDCYBERONTOLOGY_ORG -->
<g id="node1" class="node">
<title>_GH__UCOPROJECT__ONTOLOGY_UNIFIEDCYBERONTOLOGY_ORG</title>
<g id="a_node1"><a xlink:href="https://github.com/ucoProject/ontology.unifiedcyberontology.org" xlink:title="UCO documentation\nregenerated">
<path fill="#8ec7d2" stroke="#0d6986" d="M326,-232C326,-232 220,-232 220,-232 214,-232 208,-226 208,-220 208,-220 208,-206 208,-206 208,-200 214,-194 220,-194 220,-194 326,-194 326,-194 332,-194 338,-200 338,-206 338,-206 338,-220 338,-220 338,-226 332,-232 326,-232"/>
<text text-anchor="middle" x="273" y="-216.8" font-family="Times,serif" font-size="14.00">UCO documentation</text>
<text text-anchor="middle" x="273" y="-201.8" font-family="Times,serif" font-size="14.00">regenerated</text>
</a>
</g>
</g>
<!-- _GH__CASEWORK__CASE_MAPPING_TEMPLATE_STUBS -->
<g id="node2" class="node">
<title>_GH__CASEWORK__CASE_MAPPING_TEMPLATE_STUBS</title>
<g id="a_node2"><a xlink:href="https://github.com/casework/CASE-Mapping-Template-Stubs" xlink:title="CASE Mapping\nTemplate Stubs">
<path fill="#8ec7d2" stroke="#0d6986" d="M313,-288C313,-288 233,-288 233,-288 227,-288 221,-282 221,-276 221,-276 221,-262 221,-262 221,-256 227,-250 233,-250 233,-250 313,-250 313,-250 319,-250 325,-256 325,-262 325,-262 325,-276 325,-276 325,-282 319,-288 313,-288"/>
<text text-anchor="middle" x="273" y="-272.8" font-family="Times,serif" font-size="14.00">CASE Mapping</text>
<text text-anchor="middle" x="273" y="-257.8" font-family="Times,serif" font-size="14.00">Template Stubs</text>
</a>
</g>
</g>
<!-- _GH__CASEWORK__CASE_IMPLEMENTATON_PYPI_EXIFREAD -->
<g id="node3" class="node">
<title>_GH__CASEWORK__CASE_IMPLEMENTATON_PYPI_EXIFREAD</title>
<g id="a_node3"><a xlink:href="https://github.com/casework/CASE-Implementation-PyPI-Exifread" xlink:title="CASE&#45;Implementation&#45;PyPI&#45;Exifread\nadopts new case&#45;validation&#45;action">
<path fill="#8ec7d2" stroke="#0d6986" d="M1188,-226C1188,-226 988,-226 988,-226 982,-226 976,-220 976,-214 976,-214 976,-200 976,-200 976,-194 982,-188 988,-188 988,-188 1188,-188 1188,-188 1194,-188 1200,-194 1200,-200 1200,-200 1200,-214 1200,-214 1200,-220 1194,-226 1188,-226"/>
<text text-anchor="middle" x="1088" y="-210.8" font-family="Times,serif" font-size="14.00">CASE&#45;Implementation&#45;PyPI&#45;Exifread</text>
<text text-anchor="middle" x="1088" y="-195.8" font-family="Times,serif" font-size="14.00">adopts new case&#45;validation&#45;action</text>
</a>
</g>
</g>
<!-- _GH__CASEWORK__CASE_IMPLEMENTATON_PYPI_PILLOW -->
<g id="node4" class="node">
<title>_GH__CASEWORK__CASE_IMPLEMENTATON_PYPI_PILLOW</title>
<g id="a_node4"><a xlink:href="https://github.com/casework/CASE-Implementation-PyPI-Pillow" xlink:title="CASE&#45;Implementation&#45;PyPI&#45;Pillow\nadopts new case&#45;validation&#45;action">
<path fill="#8ec7d2" stroke="#0d6986" d="M1182.5,-170C1182.5,-170 993.5,-170 993.5,-170 987.5,-170 981.5,-164 981.5,-158 981.5,-158 981.5,-144 981.5,-144 981.5,-138 987.5,-132 993.5,-132 993.5,-132 1182.5,-132 1182.5,-132 1188.5,-132 1194.5,-138 1194.5,-144 1194.5,-144 1194.5,-158 1194.5,-158 1194.5,-164 1188.5,-170 1182.5,-170"/>
<text text-anchor="middle" x="1088" y="-154.8" font-family="Times,serif" font-size="14.00">CASE&#45;Implementation&#45;PyPI&#45;Pillow</text>
<text text-anchor="middle" x="1088" y="-139.8" font-family="Times,serif" font-size="14.00">adopts new case&#45;validation&#45;action</text>
</a>
</g>
</g>
<!-- _GH__UCOPROJECT__UCO -->
<g id="node5" class="node">
<title>_GH__UCOPROJECT__UCO</title>
<g id="a_node5"><a xlink:href="https://github.com/ucoProject/UCO" xlink:title="UCO Ontology\nreleases">
<path fill="#8ec7d2" stroke="#0d6986" d="M104,-408C104,-408 28,-408 28,-408 22,-408 16,-402 16,-396 16,-396 16,-382 16,-382 16,-376 22,-370 28,-370 28,-370 104,-370 104,-370 110,-370 116,-376 116,-382 116,-382 116,-396 116,-396 116,-402 110,-408 104,-408"/>
<text text-anchor="middle" x="66" y="-392.8" font-family="Times,serif" font-size="14.00">UCO Ontology</text>
<text text-anchor="middle" x="66" y="-377.8" font-family="Times,serif" font-size="14.00">releases</text>
</a>
</g>
</g>
<!-- _GH__UCOPROJECT__UCO&#45;&gt;_GH__UCOPROJECT__ONTOLOGY_UNIFIEDCYBERONTOLOGY_ORG -->
<g id="edge24" class="edge">
<title>_GH__UCOPROJECT__UCO&#45;&gt;_GH__UCOPROJECT__ONTOLOGY_UNIFIEDCYBERONTOLOGY_ORG</title>
<path fill="none" stroke="black" d="M77.41,-369.67C95.71,-337.53 136.7,-273.16 189,-238 191.69,-236.19 194.52,-234.51 197.44,-232.94"/>
<polygon fill="black" stroke="black" points="198.78,-236.18 206.31,-228.72 195.77,-229.86 198.78,-236.18"/>
<text text-anchor="middle" x="156.5" y="-305.8" font-family="Times,serif" font-size="14.00">Git sub&#45;</text>
<text text-anchor="middle" x="156.5" y="-290.8" font-family="Times,serif" font-size="14.00">module</text>
</g>
<!-- _GH__CASEWORK__CASE -->
<g id="node6" class="node">
<title>_GH__CASEWORK__CASE</title>
<g id="a_node6"><a xlink:href="https://github.com/casework/CASE" xlink:title="CASE Ontology\nreleases">
<path fill="#8ec7d2" stroke="#0d6986" d="M314,-632C314,-632 232,-632 232,-632 226,-632 220,-626 220,-620 220,-620 220,-606 220,-606 220,-600 226,-594 232,-594 232,-594 314,-594 314,-594 320,-594 326,-600 326,-606 326,-606 326,-620 326,-620 326,-626 320,-632 314,-632"/>
<text text-anchor="middle" x="273" y="-616.8" font-family="Times,serif" font-size="14.00">CASE Ontology</text>
<text text-anchor="middle" x="273" y="-601.8" font-family="Times,serif" font-size="14.00">releases</text>
</a>
</g>
</g>
<!-- _GH__UCOPROJECT__UCO&#45;&gt;_GH__CASEWORK__CASE -->
<g id="edge23" class="edge">
<title>_GH__UCOPROJECT__UCO&#45;&gt;_GH__CASEWORK__CASE</title>
<path fill="none" stroke="black" d="M84.83,-408.49C121.35,-448.39 204.72,-539.48 246.76,-585.42"/>
<polygon fill="black" stroke="black" points="244,-587.59 253.33,-592.6 249.16,-582.86 244,-587.59"/>
<text text-anchor="middle" x="156.5" y="-525.8" font-family="Times,serif" font-size="14.00">Git sub&#45;</text>
<text text-anchor="middle" x="156.5" y="-510.8" font-family="Times,serif" font-size="14.00">module</text>
</g>
<!-- _GH__CASEWORK__ONTOLOGY_CASEONTOLOGY_ORG -->
<g id="node7" class="node">
<title>_GH__CASEWORK__ONTOLOGY_CASEONTOLOGY_ORG</title>
<g id="a_node7"><a xlink:href="https://github.com/casework/ontology.caseontology.org" xlink:title="CASE documentation\nregenerated">
<path fill="#8ec7d2" stroke="#0d6986" d="M554,-412C554,-412 442,-412 442,-412 436,-412 430,-406 430,-400 430,-400 430,-386 430,-386 430,-380 436,-374 442,-374 442,-374 554,-374 554,-374 560,-374 566,-380 566,-386 566,-386 566,-400 566,-400 566,-406 560,-412 554,-412"/>
<text text-anchor="middle" x="498" y="-396.8" font-family="Times,serif" font-size="14.00">CASE documentation</text>
<text text-anchor="middle" x="498" y="-381.8" font-family="Times,serif" font-size="14.00">regenerated</text>
</a>
</g>
</g>
<!-- _GH__CASEWORK__CASE&#45;&gt;_GH__CASEWORK__ONTOLOGY_CASEONTOLOGY_ORG -->
<g id="edge4" class="edge">
<title>_GH__CASEWORK__CASE&#45;&gt;_GH__CASEWORK__ONTOLOGY_CASEONTOLOGY_ORG</title>
<path fill="none" stroke="black" d="M284.19,-593.75C304.95,-556.24 355.8,-472.63 426.46,-419.06"/>
<polygon fill="black" stroke="black" points="428.4,-421.98 434.41,-413.25 424.27,-416.32 428.4,-421.98"/>
<text text-anchor="middle" x="389.5" y="-489.8" font-family="Times,serif" font-size="14.00">Git sub&#45;</text>
<text text-anchor="middle" x="389.5" y="-474.8" font-family="Times,serif" font-size="14.00">module</text>
</g>
<!-- _GH__CASEWORK__CASE_UTILITIES_PYTHON -->
<g id="node12" class="node">
<title>_GH__CASEWORK__CASE_UTILITIES_PYTHON</title>
<g id="a_node12"><a xlink:href="https://github.com/casework/CASE-Utilities-Python" xlink:title="case&#45;utils\nreleases">
<path fill="#8ec7d2" stroke="#0d6986" d="M520,-817C520,-817 476,-817 476,-817 470,-817 464,-811 464,-805 464,-805 464,-791 464,-791 464,-785 470,-779 476,-779 476,-779 520,-779 520,-779 526,-779 532,-785 532,-791 532,-791 532,-805 532,-805 532,-811 526,-817 520,-817"/>
<text text-anchor="middle" x="498" y="-801.8" font-family="Times,serif" font-size="14.00">case&#45;utils</text>
<text text-anchor="middle" x="498" y="-786.8" font-family="Times,serif" font-size="14.00">releases</text>
</a>
</g>
</g>
<!-- _GH__CASEWORK__CASE&#45;&gt;_GH__CASEWORK__CASE_UTILITIES_PYTHON -->
<g id="edge2" class="edge">
<title>_GH__CASEWORK__CASE&#45;&gt;_GH__CASEWORK__CASE_UTILITIES_PYTHON</title>
<path fill="none" stroke="black" d="M287.68,-632.33C312.4,-665.94 367.77,-735.33 430,-775 436.99,-779.45 444.94,-783.16 452.86,-786.19"/>
<polygon fill="black" stroke="black" points="451.53,-789.44 462.12,-789.43 453.84,-782.83 451.53,-789.44"/>
<text text-anchor="middle" x="389.5" y="-779.8" font-family="Times,serif" font-size="14.00">Git sub&#45;</text>
<text text-anchor="middle" x="389.5" y="-764.8" font-family="Times,serif" font-size="14.00">module</text>
</g>
<!-- _GH__CIPHERTECHSOLUTIONS__CASE_BINDINGS_CSHARP -->
<g id="node21" class="node">
<title>_GH__CIPHERTECHSOLUTIONS__CASE_BINDINGS_CSHARP</title>
<g id="a_node21"><a xlink:href="https://github.com/ciphertechsolutions/CASE-Bindings-CSharp" xlink:title="CASE&#45;Bindings&#45;CSharp\nadopts new ontology version">
<path fill="#8ec7d2" stroke="#0d6986" d="M808.5,-783C808.5,-783 659.5,-783 659.5,-783 653.5,-783 647.5,-777 647.5,-771 647.5,-771 647.5,-757 647.5,-757 647.5,-751 653.5,-745 659.5,-745 659.5,-745 808.5,-745 808.5,-745 814.5,-745 820.5,-751 820.5,-757 820.5,-757 820.5,-771 820.5,-771 820.5,-777 814.5,-783 808.5,-783"/>
<text text-anchor="middle" x="734" y="-767.8" font-family="Times,serif" font-size="14.00">CASE&#45;Bindings&#45;CSharp</text>
<text text-anchor="middle" x="734" y="-752.8" font-family="Times,serif" font-size="14.00">adopts new ontology version</text>
</a>
</g>
</g>
<!-- _GH__CASEWORK__CASE&#45;&gt;_GH__CIPHERTECHSOLUTIONS__CASE_BINDINGS_CSHARP -->
<g id="edge3" class="edge">
<title>_GH__CASEWORK__CASE&#45;&gt;_GH__CIPHERTECHSOLUTIONS__CASE_BINDINGS_CSHARP</title>
<path fill="none" stroke="black" d="M274.37,-632.4C276.85,-700.06 295.26,-926.43 430,-1019 496.3,-1064.55 551.96,-1073.64 611,-1019 648.95,-983.88 595.09,-826.04 629,-787 631.55,-784.07 634.38,-781.46 637.42,-779.15"/>
<polygon fill="black" stroke="black" points="639.26,-782.13 645.87,-773.86 635.54,-776.2 639.26,-782.13"/>
</g>
<!-- _GH__AJNELSON_NIST__CASE_EXAMPLES_QC -->
<g id="node8" class="node">
<title>_GH__AJNELSON_NIST__CASE_EXAMPLES_QC</title>
<g id="a_node8"><a xlink:href="https://github.com/ajnelson-nist/CASE-Examples-QC" xlink:title="CASE&#45;Examples&#45;QC\nadopts CASE&#45;Examples and\nCASE website updates">
<path fill="#8ec7d2" stroke="#0d6986" d="M1162,-967.5C1162,-967.5 1014,-967.5 1014,-967.5 1008,-967.5 1002,-961.5 1002,-955.5 1002,-955.5 1002,-926.5 1002,-926.5 1002,-920.5 1008,-914.5 1014,-914.5 1014,-914.5 1162,-914.5 1162,-914.5 1168,-914.5 1174,-920.5 1174,-926.5 1174,-926.5 1174,-955.5 1174,-955.5 1174,-961.5 1168,-967.5 1162,-967.5"/>
<text text-anchor="middle" x="1088" y="-952.3" font-family="Times,serif" font-size="14.00">CASE&#45;Examples&#45;QC</text>
<text text-anchor="middle" x="1088" y="-937.3" font-family="Times,serif" font-size="14.00">adopts CASE&#45;Examples and</text>
<text text-anchor="middle" x="1088" y="-922.3" font-family="Times,serif" font-size="14.00">CASE website updates</text>
</a>
</g>
</g>
<!-- _GH__CASEWORK__CASE_IMPLEMENTATON_PROV_O -->
<g id="node15" class="node">
<title>_GH__CASEWORK__CASE_IMPLEMENTATON_PROV_O</title>
<g id="a_node15"><a xlink:href="https://github.com/casework/CASE-Implementation-PROV-O" xlink:title="case&#45;prov\nreleases">
<path fill="#8ec7d2" stroke="#0d6986" d="M1360,-982C1360,-982 1315,-982 1315,-982 1309,-982 1303,-976 1303,-970 1303,-970 1303,-956 1303,-956 1303,-950 1309,-944 1315,-944 1315,-944 1360,-944 1360,-944 1366,-944 1372,-950 1372,-956 1372,-956 1372,-970 1372,-970 1372,-976 1366,-982 1360,-982"/>
<text text-anchor="middle" x="1337.5" y="-966.8" font-family="Times,serif" font-size="14.00">case&#45;prov</text>
<text text-anchor="middle" x="1337.5" y="-951.8" font-family="Times,serif" font-size="14.00">releases</text>
</a>
</g>
</g>
<!-- _GH__AJNELSON_NIST__CASE_EXAMPLES_QC&#45;&gt;_GH__CASEWORK__CASE_IMPLEMENTATON_PROV_O -->
<g id="edge1" class="edge">
<title>_GH__AJNELSON_NIST__CASE_EXAMPLES_QC&#45;&gt;_GH__CASEWORK__CASE_IMPLEMENTATON_PROV_O</title>
<path fill="none" stroke="black" d="M1174.18,-948.57C1213.53,-952.07 1258.67,-956.08 1291.34,-958.99"/>
<polygon fill="black" stroke="black" points="1291,-962.47 1301.27,-959.87 1291.62,-955.5 1291,-962.47"/>
<text text-anchor="middle" x="1262.5" y="-976.8" font-family="Times,serif" font-size="14.00">Git sub&#45;</text>
<text text-anchor="middle" x="1262.5" y="-961.8" font-family="Times,serif" font-size="14.00">module</text>
</g>
<!-- _GH__CASEWORK__CASE_EXAMPLES -->
<g id="node9" class="node">
<title>_GH__CASEWORK__CASE_EXAMPLES</title>
<g id="a_node9"><a xlink:href="https://github.com/casework/CASE-Examples" xlink:title="CASE&#45;Examples\nadopts new case&#45;utils">
<path fill="#8ec7d2" stroke="#0d6986" d="M788.5,-891C788.5,-891 679.5,-891 679.5,-891 673.5,-891 667.5,-885 667.5,-879 667.5,-879 667.5,-865 667.5,-865 667.5,-859 673.5,-853 679.5,-853 679.5,-853 788.5,-853 788.5,-853 794.5,-853 800.5,-859 800.5,-865 800.5,-865 800.5,-879 800.5,-879 800.5,-885 794.5,-891 788.5,-891"/>
<text text-anchor="middle" x="734" y="-875.8" font-family="Times,serif" font-size="14.00">CASE&#45;Examples</text>
<text text-anchor="middle" x="734" y="-860.8" font-family="Times,serif" font-size="14.00">adopts new case&#45;utils</text>
</a>
</g>
</g>
<!-- _GH__CASEWORK__CASE_EXAMPLES&#45;&gt;_GH__AJNELSON_NIST__CASE_EXAMPLES_QC -->
<g id="edge5" class="edge">
<title>_GH__CASEWORK__CASE_EXAMPLES&#45;&gt;_GH__AJNELSON_NIST__CASE_EXAMPLES_QC</title>
<path fill="none" stroke="black" d="M800.58,-877.99C840.06,-882.22 891.2,-888.78 936,-898 953.88,-901.68 972.74,-906.38 990.85,-911.31"/>
<polygon fill="black" stroke="black" points="989.67,-914.62 1000.25,-913.92 991.54,-907.87 989.67,-914.62"/>
<text text-anchor="middle" x="896.5" y="-916.8" font-family="Times,serif" font-size="14.00">Git sub&#45;</text>
<text text-anchor="middle" x="896.5" y="-901.8" font-family="Times,serif" font-size="14.00">module</text>
</g>
<!-- _GH__CASEWORK__CASE_IMPLEMENTATON_EXIFTOOL -->
<g id="node10" class="node">
<title>_GH__CASEWORK__CASE_IMPLEMENTATON_EXIFTOOL</title>
<g id="a_node10"><a xlink:href="https://github.com/casework/CASE-Implementation-ExifTool" xlink:title="CASE&#45;Implementation&#45;ExifTool\nadopts new case&#45;utils">
<path fill="#8ec7d2" stroke="#0d6986" d="M820,-466C820,-466 648,-466 648,-466 642,-466 636,-460 636,-454 636,-454 636,-440 636,-440 636,-434 642,-428 648,-428 648,-428 820,-428 820,-428 826,-428 832,-434 832,-440 832,-440 832,-454 832,-454 832,-460 826,-466 820,-466"/>
<text text-anchor="middle" x="734" y="-450.8" font-family="Times,serif" font-size="14.00">CASE&#45;Implementation&#45;ExifTool</text>
<text text-anchor="middle" x="734" y="-435.8" font-family="Times,serif" font-size="14.00">adopts new case&#45;utils</text>
</a>
</g>
</g>
<!-- _GH__CASEWORK__CASE_IMPLEMENTATON_GNU_TIME -->
<g id="node11" class="node">
<title>_GH__CASEWORK__CASE_IMPLEMENTATON_GNU_TIME</title>
<g id="a_node11"><a xlink:href="https://github.com/casework/CASE-Implementation-GNU-Time" xlink:title="CASE&#45;Implementation&#45;GNU&#45;Time\nadopts new case&#45;utils">
<path fill="#8ec7d2" stroke="#0d6986" d="M827,-522C827,-522 641,-522 641,-522 635,-522 629,-516 629,-510 629,-510 629,-496 629,-496 629,-490 635,-484 641,-484 641,-484 827,-484 827,-484 833,-484 839,-490 839,-496 839,-496 839,-510 839,-510 839,-516 833,-522 827,-522"/>
<text text-anchor="middle" x="734" y="-506.8" font-family="Times,serif" font-size="14.00">CASE&#45;Implementation&#45;GNU&#45;Time</text>
<text text-anchor="middle" x="734" y="-491.8" font-family="Times,serif" font-size="14.00">adopts new case&#45;utils</text>
</a>
</g>
</g>
<!-- _GH__CASEWORK__CASE_UTILITIES_PYTHON&#45;&gt;_GH__AJNELSON_NIST__CASE_EXAMPLES_QC -->
<g id="edge7" class="edge">
<title>_GH__CASEWORK__CASE_UTILITIES_PYTHON&#45;&gt;_GH__AJNELSON_NIST__CASE_EXAMPLES_QC</title>
<path fill="none" stroke="black" d="M507.73,-817.27C524.98,-852.68 567.22,-927.12 629,-956 752.72,-1013.84 800.01,-981.5 936,-969 953.7,-967.37 972.42,-964.69 990.43,-961.62"/>
<polygon fill="black" stroke="black" points="990.81,-965.11 1000.05,-959.93 989.59,-958.22 990.81,-965.11"/>
<text text-anchor="middle" x="734" y="-992.8" font-family="Times,serif" font-size="14.00">PyPI</text>
</g>
<!-- _GH__CASEWORK__CASE_UTILITIES_PYTHON&#45;&gt;_GH__CASEWORK__CASE_EXAMPLES -->
<g id="edge8" class="edge">
<title>_GH__CASEWORK__CASE_UTILITIES_PYTHON&#45;&gt;_GH__CASEWORK__CASE_EXAMPLES</title>
<path fill="none" stroke="black" d="M532.03,-808.45C565.36,-818.99 617.91,-835.6 660.92,-849.2"/>
<polygon fill="black" stroke="black" points="659.59,-852.46 670.18,-852.13 661.7,-845.78 659.59,-852.46"/>
<text text-anchor="middle" x="597.5" y="-835.8" font-family="Times,serif" font-size="14.00">PyPI</text>
</g>
<!-- _GH__CASEWORK__CASE_UTILITIES_PYTHON&#45;&gt;_GH__CASEWORK__CASE_IMPLEMENTATON_EXIFTOOL -->
<g id="edge9" class="edge">
<title>_GH__CASEWORK__CASE_UTILITIES_PYTHON&#45;&gt;_GH__CASEWORK__CASE_IMPLEMENTATON_EXIFTOOL</title>
<path fill="none" stroke="black" d="M532.44,-794.24C544.87,-791.09 557.9,-785.37 566,-775 594.82,-738.08 571.3,-610.08 584,-565 596.13,-521.95 594.37,-503.3 629,-475 629.98,-474.2 630.98,-473.43 631.99,-472.67"/>
<polygon fill="black" stroke="black" points="633.84,-475.65 640.34,-467.28 630.04,-469.77 633.84,-475.65"/>
<text text-anchor="middle" x="597.5" y="-568.8" font-family="Times,serif" font-size="14.00">PyPI</text>
</g>
<!-- _GH__CASEWORK__CASE_UTILITIES_PYTHON&#45;&gt;_GH__CASEWORK__CASE_IMPLEMENTATON_GNU_TIME -->
<g id="edge10" class="edge">
<title>_GH__CASEWORK__CASE_UTILITIES_PYTHON&#45;&gt;_GH__CASEWORK__CASE_IMPLEMENTATON_GNU_TIME</title>
<path fill="none" stroke="black" d="M532.3,-793.35C544.41,-790.08 557.26,-784.5 566,-775 583.7,-755.77 604.65,-579.51 626.97,-531.95"/>
<polygon fill="black" stroke="black" points="629.87,-533.91 632.32,-523.6 623.98,-530.13 629.87,-533.91"/>
<text text-anchor="middle" x="597.5" y="-718.8" font-family="Times,serif" font-size="14.00">PyPI</text>
</g>
<!-- _GH__CASEWORK__CASEWORK_GITHUB_IO -->
<g id="node13" class="node">
<title>_GH__CASEWORK__CASEWORK_GITHUB_IO</title>
<g id="a_node13"><a xlink:href="https://github.com/casework/casework.github.io" xlink:title="CASE website\nadopts new case&#45;utils">
<path fill="#8ec7d2" stroke="#0d6986" d="M788.5,-947C788.5,-947 679.5,-947 679.5,-947 673.5,-947 667.5,-941 667.5,-935 667.5,-935 667.5,-921 667.5,-921 667.5,-915 673.5,-909 679.5,-909 679.5,-909 788.5,-909 788.5,-909 794.5,-909 800.5,-915 800.5,-921 800.5,-921 800.5,-935 800.5,-935 800.5,-941 794.5,-947 788.5,-947"/>
<text text-anchor="middle" x="734" y="-931.8" font-family="Times,serif" font-size="14.00">CASE website</text>
<text text-anchor="middle" x="734" y="-916.8" font-family="Times,serif" font-size="14.00">adopts new case&#45;utils</text>
</a>
</g>
</g>
<!-- _GH__CASEWORK__CASE_UTILITIES_PYTHON&#45;&gt;_GH__CASEWORK__CASEWORK_GITHUB_IO -->
<g id="edge13" class="edge">
<title>_GH__CASEWORK__CASE_UTILITIES_PYTHON&#45;&gt;_GH__CASEWORK__CASEWORK_GITHUB_IO</title>
<path fill="none" stroke="black" d="M518.39,-817.41C542.37,-840.35 585.39,-878.17 629,-900 637.63,-904.32 647,-908.03 656.47,-911.21"/>
<polygon fill="black" stroke="black" points="655.13,-914.46 665.72,-914.12 657.23,-907.78 655.13,-914.46"/>
<text text-anchor="middle" x="597.5" y="-892.8" font-family="Times,serif" font-size="14.00">PyPI</text>
</g>
<!-- _GH__CASEWORK__CASE_UTILITIES_PYTHON&#45;&gt;_GH__CASEWORK__CASE_IMPLEMENTATON_PROV_O -->
<g id="edge11" class="edge">
<title>_GH__CASEWORK__CASE_UTILITIES_PYTHON&#45;&gt;_GH__CASEWORK__CASE_IMPLEMENTATON_PROV_O</title>
<path fill="none" stroke="black" d="M503.89,-817.3C516.18,-861.12 552.94,-967.46 629,-1008 696.7,-1044.08 1100.24,-1044 1285,-992 1289.21,-990.81 1293.45,-989.22 1297.59,-987.38"/>
<polygon fill="black" stroke="black" points="1298.84,-990.67 1306.25,-983.09 1295.73,-984.4 1298.84,-990.67"/>
<text text-anchor="middle" x="896.5" y="-1036.8" font-family="Times,serif" font-size="14.00">PyPI</text>
</g>
<!-- _GH__KCHASON__CASE_VALIDATION_ACTION -->
<g id="node19" class="node">
<title>_GH__KCHASON__CASE_VALIDATION_ACTION</title>
<g id="a_node19"><a xlink:href="https://github.com/kchason/case-validation-action" xlink:title="case&#45;validation&#45;action\nreleases">
<path fill="#8ec7d2" stroke="#0d6986" d="M790,-603C790,-603 678,-603 678,-603 672,-603 666,-597 666,-591 666,-591 666,-577 666,-577 666,-571 672,-565 678,-565 678,-565 790,-565 790,-565 796,-565 802,-571 802,-577 802,-577 802,-591 802,-591 802,-597 796,-603 790,-603"/>
<text text-anchor="middle" x="734" y="-587.8" font-family="Times,serif" font-size="14.00">case&#45;validation&#45;action</text>
<text text-anchor="middle" x="734" y="-572.8" font-family="Times,serif" font-size="14.00">releases</text>
</a>
</g>
</g>
<!-- _GH__CASEWORK__CASE_UTILITIES_PYTHON&#45;&gt;_GH__KCHASON__CASE_VALIDATION_ACTION -->
<g id="edge12" class="edge">
<title>_GH__CASEWORK__CASE_UTILITIES_PYTHON&#45;&gt;_GH__KCHASON__CASE_VALIDATION_ACTION</title>
<path fill="none" stroke="black" d="M532.29,-790.32C543.58,-786.77 555.89,-781.79 566,-775 631.87,-730.75 687.73,-654.2 715.05,-612.72"/>
<polygon fill="black" stroke="black" points="717.89,-614.77 720.39,-604.48 712.02,-610.96 717.89,-614.77"/>
<text text-anchor="middle" x="597.5" y="-761.8" font-family="Times,serif" font-size="14.00">PyPI</text>
</g>
<!-- _GH__CASEWORK__CASEWORK_GITHUB_IO&#45;&gt;_GH__AJNELSON_NIST__CASE_EXAMPLES_QC -->
<g id="edge14" class="edge">
<title>_GH__CASEWORK__CASEWORK_GITHUB_IO&#45;&gt;_GH__AJNELSON_NIST__CASE_EXAMPLES_QC</title>
<path fill="none" stroke="black" d="M800.8,-930.43C854.07,-932.4 929.9,-935.2 990.11,-937.42"/>
<polygon fill="black" stroke="black" points="989.92,-940.92 1000.04,-937.79 990.18,-933.92 989.92,-940.92"/>
<text text-anchor="middle" x="896.5" y="-953.8" font-family="Times,serif" font-size="14.00">Git sub&#45;</text>
<text text-anchor="middle" x="896.5" y="-938.8" font-family="Times,serif" font-size="14.00">module</text>
</g>
<!-- _GH__CASEWORK__CASE_CORPORA -->
<g id="node14" class="node">
<title>_GH__CASEWORK__CASE_CORPORA</title>
<g id="a_node14"><a xlink:href="https://github.com/casework/CASE-Corpora" xlink:title="CASE&#45;Corpora\nadopts new case&#45;prov">
<path fill="#8ec7d2" stroke="#0d6986" d="M1557,-982C1557,-982 1447,-982 1447,-982 1441,-982 1435,-976 1435,-970 1435,-970 1435,-956 1435,-956 1435,-950 1441,-944 1447,-944 1447,-944 1557,-944 1557,-944 1563,-944 1569,-950 1569,-956 1569,-956 1569,-970 1569,-970 1569,-976 1563,-982 1557,-982"/>
<text text-anchor="middle" x="1502" y="-966.8" font-family="Times,serif" font-size="14.00">CASE&#45;Corpora</text>
<text text-anchor="middle" x="1502" y="-951.8" font-family="Times,serif" font-size="14.00">adopts new case&#45;prov</text>
</a>
</g>
</g>
<!-- _GH__CASEWORK__CASE_IMPLEMENTATON_PROV_O&#45;&gt;_GH__CASEWORK__CASE_CORPORA -->
<g id="edge6" class="edge">
<title>_GH__CASEWORK__CASE_IMPLEMENTATON_PROV_O&#45;&gt;_GH__CASEWORK__CASE_CORPORA</title>
<path fill="none" stroke="black" d="M1372.17,-963C1387.03,-963 1405.18,-963 1423.11,-963"/>
<polygon fill="black" stroke="black" points="1423,-966.5 1433,-963 1423,-959.5 1423,-966.5"/>
<text text-anchor="middle" x="1403.5" y="-966.8" font-family="Times,serif" font-size="14.00">PyPI</text>
</g>
<!-- _GH__CASEWORK__CASE_IMPLEMENTATON_UFED_XML -->
<g id="node16" class="node">
<title>_GH__CASEWORK__CASE_IMPLEMENTATON_UFED_XML</title>
<g id="a_node16"><a xlink:href="https://github.com/casework/CASE-Implementation-UFED-XML" xlink:title="CASE&#45;Implementation&#45;UFED&#45;XML\nadopts new case&#45;validation&#45;action">
<path fill="#8ec7d2" stroke="#0d6986" d="M1185,-632C1185,-632 991,-632 991,-632 985,-632 979,-626 979,-620 979,-620 979,-606 979,-606 979,-600 985,-594 991,-594 991,-594 1185,-594 1185,-594 1191,-594 1197,-600 1197,-606 1197,-606 1197,-620 1197,-620 1197,-626 1191,-632 1185,-632"/>
<text text-anchor="middle" x="1088" y="-616.8" font-family="Times,serif" font-size="14.00">CASE&#45;Implementation&#45;UFED&#45;XML</text>
<text text-anchor="middle" x="1088" y="-601.8" font-family="Times,serif" font-size="14.00">adopts new case&#45;validation&#45;action</text>
</a>
</g>
</g>
<!-- _GH__CASEWORK__CASE_IMPLEMENTATON_XRY -->
<g id="node17" class="node">
<title>_GH__CASEWORK__CASE_IMPLEMENTATON_XRY</title>
<g id="a_node17"><a xlink:href="https://github.com/casework/CASE-Implementation-XRY" xlink:title="CASE&#45;Implementation&#45;XRY adopts\nnew case&#45;validation&#45;action">
<path fill="#8ec7d2" stroke="#0d6986" d="M1183,-688C1183,-688 993,-688 993,-688 987,-688 981,-682 981,-676 981,-676 981,-662 981,-662 981,-656 987,-650 993,-650 993,-650 1183,-650 1183,-650 1189,-650 1195,-656 1195,-662 1195,-662 1195,-676 1195,-676 1195,-682 1189,-688 1183,-688"/>
<text text-anchor="middle" x="1088" y="-672.8" font-family="Times,serif" font-size="14.00">CASE&#45;Implementation&#45;XRY adopts</text>
<text text-anchor="middle" x="1088" y="-657.8" font-family="Times,serif" font-size="14.00">new case&#45;validation&#45;action</text>
</a>
</g>
</g>
<!-- _GH__CASEWORK__CASE_MAPPING_TEMPLATE_PYTHON -->
<g id="node18" class="node">
<title>_GH__CASEWORK__CASE_MAPPING_TEMPLATE_PYTHON</title>
<g id="a_node18"><a xlink:href="https://github.com/casework/CASE-Mapping-Template-Python" xlink:title="CASE&#45;Mapping&#45;Template&#45;Python\nadopts new case&#45;validation&#45;action">
<path fill="#8ec7d2" stroke="#0d6986" d="M1178,-576C1178,-576 998,-576 998,-576 992,-576 986,-570 986,-564 986,-564 986,-550 986,-550 986,-544 992,-538 998,-538 998,-538 1178,-538 1178,-538 1184,-538 1190,-544 1190,-550 1190,-550 1190,-564 1190,-564 1190,-570 1184,-576 1178,-576"/>
<text text-anchor="middle" x="1088" y="-560.8" font-family="Times,serif" font-size="14.00">CASE&#45;Mapping&#45;Template&#45;Python</text>
<text text-anchor="middle" x="1088" y="-545.8" font-family="Times,serif" font-size="14.00">adopts new case&#45;validation&#45;action</text>
</a>
</g>
</g>
<!-- _GH__KCHASON__CASE_VALIDATION_ACTION&#45;&gt;_GH__CASEWORK__CASE_IMPLEMENTATON_PYPI_EXIFREAD -->
<g id="edge17" class="edge">
<title>_GH__KCHASON__CASE_VALIDATION_ACTION&#45;&gt;_GH__CASEWORK__CASE_IMPLEMENTATON_PYPI_EXIFREAD</title>
<path fill="none" stroke="black" d="M802.3,-578.89C815.56,-575.32 828.57,-569.71 839,-561 854.9,-547.72 846.77,-536.01 857,-518 920.65,-405.95 1018.11,-287.13 1062.93,-234.66"/>
<polygon fill="black" stroke="black" points="1065.32,-237.25 1069.18,-227.38 1060.01,-232.69 1065.32,-237.25"/>
<text text-anchor="middle" x="896.5" y="-536.8" font-family="Times,serif" font-size="14.00">GitHub</text>
<text text-anchor="middle" x="896.5" y="-521.8" font-family="Times,serif" font-size="14.00">Action</text>
</g>
<!-- _GH__KCHASON__CASE_VALIDATION_ACTION&#45;&gt;_GH__CASEWORK__CASE_IMPLEMENTATON_PYPI_PILLOW -->
<g id="edge18" class="edge">
<title>_GH__KCHASON__CASE_VALIDATION_ACTION&#45;&gt;_GH__CASEWORK__CASE_IMPLEMENTATON_PYPI_PILLOW</title>
<path fill="none" stroke="black" d="M802.35,-581.72C816.24,-578.09 829.52,-571.75 839,-561 867.5,-528.7 845.83,-409.6 857,-368 880.97,-278.69 871.31,-236.16 944,-179 952.03,-172.68 961.09,-167.66 970.65,-163.69"/>
<polygon fill="black" stroke="black" points="971.62,-167.06 979.77,-160.3 969.18,-160.5 971.62,-167.06"/>
<text text-anchor="middle" x="896.5" y="-386.8" font-family="Times,serif" font-size="14.00">GitHub</text>
<text text-anchor="middle" x="896.5" y="-371.8" font-family="Times,serif" font-size="14.00">Action</text>
</g>
<!-- _GH__KCHASON__CASE_VALIDATION_ACTION&#45;&gt;_GH__CASEWORK__CASE_IMPLEMENTATON_UFED_XML -->
<g id="edge19" class="edge">
<title>_GH__KCHASON__CASE_VALIDATION_ACTION&#45;&gt;_GH__CASEWORK__CASE_IMPLEMENTATON_UFED_XML</title>
<path fill="none" stroke="black" d="M802.45,-589.56C849.05,-593.4 912.3,-598.61 967.34,-603.14"/>
<polygon fill="black" stroke="black" points="966.82,-606.61 977.08,-603.94 967.4,-599.63 966.82,-606.61"/>
<text text-anchor="middle" x="896.5" y="-618.8" font-family="Times,serif" font-size="14.00">GitHub</text>
<text text-anchor="middle" x="896.5" y="-603.8" font-family="Times,serif" font-size="14.00">Action</text>
</g>
<!-- _GH__KCHASON__CASE_VALIDATION_ACTION&#45;&gt;_GH__CASEWORK__CASE_IMPLEMENTATON_XRY -->
<g id="edge20" class="edge">
<title>_GH__KCHASON__CASE_VALIDATION_ACTION&#45;&gt;_GH__CASEWORK__CASE_IMPLEMENTATON_XRY</title>
<path fill="none" stroke="black" d="M775.37,-603.39C798.74,-613.88 828.98,-626.25 857,-634 892.98,-643.96 932.97,-651.29 969.37,-656.59"/>
<polygon fill="black" stroke="black" points="968.66,-660.02 979.05,-657.96 969.64,-653.09 968.66,-660.02"/>
<text text-anchor="middle" x="896.5" y="-668.8" font-family="Times,serif" font-size="14.00">GitHub</text>
<text text-anchor="middle" x="896.5" y="-653.8" font-family="Times,serif" font-size="14.00">Action</text>
</g>
<!-- _GH__KCHASON__CASE_VALIDATION_ACTION&#45;&gt;_GH__CASEWORK__CASE_MAPPING_TEMPLATE_PYTHON -->
<g id="edge21" class="edge">
<title>_GH__KCHASON__CASE_VALIDATION_ACTION&#45;&gt;_GH__CASEWORK__CASE_MAPPING_TEMPLATE_PYTHON</title>
<path fill="none" stroke="black" d="M802.41,-569.1C814.59,-566.41 827.17,-563.62 839,-561 847,-559.23 848.85,-557.89 857,-557 895.04,-552.82 936.83,-551.78 974.24,-552.1"/>
<polygon fill="black" stroke="black" points="974.14,-555.6 984.18,-552.22 974.22,-548.6 974.14,-555.6"/>
<text text-anchor="middle" x="896.5" y="-575.8" font-family="Times,serif" font-size="14.00">GitHub</text>
<text text-anchor="middle" x="896.5" y="-560.8" font-family="Times,serif" font-size="14.00">Action</text>
</g>
<!-- _GH__CASEWORK__CASE_BINDINGS_CSHARP_MONITOR -->
<g id="node20" class="node">
<title>_GH__CASEWORK__CASE_BINDINGS_CSHARP_MONITOR</title>
<g id="a_node20"><a xlink:href="https://github.com/casework/CASE-Bindings-CSharp-Monitor" xlink:title="CASE Bindings CSharp Monitor\ntests NuGet package with validation action">
<path fill="#8ec7d2" stroke="#0d6986" d="M1201.5,-783C1201.5,-783 974.5,-783 974.5,-783 968.5,-783 962.5,-777 962.5,-771 962.5,-771 962.5,-757 962.5,-757 962.5,-751 968.5,-745 974.5,-745 974.5,-745 1201.5,-745 1201.5,-745 1207.5,-745 1213.5,-751 1213.5,-757 1213.5,-757 1213.5,-771 1213.5,-771 1213.5,-777 1207.5,-783 1201.5,-783"/>
<text text-anchor="middle" x="1088" y="-767.8" font-family="Times,serif" font-size="14.00">CASE Bindings CSharp Monitor</text>
<text text-anchor="middle" x="1088" y="-752.8" font-family="Times,serif" font-size="14.00">tests NuGet package with validation action</text>
</a>
</g>
</g>
<!-- _GH__KCHASON__CASE_VALIDATION_ACTION&#45;&gt;_GH__CASEWORK__CASE_BINDINGS_CSHARP_MONITOR -->
<g id="edge16" class="edge">
<title>_GH__KCHASON__CASE_VALIDATION_ACTION&#45;&gt;_GH__CASEWORK__CASE_BINDINGS_CSHARP_MONITOR</title>
<path fill="none" stroke="black" d="M756.12,-603.29C779.76,-624.39 819.64,-658.58 857,-684 890.23,-706.61 906.97,-700.21 936,-728 940.9,-732.69 938.36,-737.23 944,-741 946.6,-742.74 949.29,-744.37 952.06,-745.89"/>
<polygon fill="black" stroke="black" points="950.46,-749 960.98,-750.26 953.54,-742.71 950.46,-749"/>
<text text-anchor="middle" x="896.5" y="-746.8" font-family="Times,serif" font-size="14.00">GitHub</text>
<text text-anchor="middle" x="896.5" y="-731.8" font-family="Times,serif" font-size="14.00">Action</text>
</g>
<!-- _GH__DOD_CYBER_CRIME_CENTER__SQLITE_DISSECT -->
<g id="node22" class="node">
<title>_GH__DOD_CYBER_CRIME_CENTER__SQLITE_DISSECT</title>
<g id="a_node22"><a xlink:href="https://github.com/dod-cyber-crime-center/sqlite-dissect" xlink:title="sqlite&#45;dissect\nadopts new case&#45;validation&#45;action">
<path fill="#8ec7d2" stroke="#0d6986" d="M1176.5,-92C1176.5,-92 999.5,-92 999.5,-92 993.5,-92 987.5,-86 987.5,-80 987.5,-80 987.5,-66 987.5,-66 987.5,-60 993.5,-54 999.5,-54 999.5,-54 1176.5,-54 1176.5,-54 1182.5,-54 1188.5,-60 1188.5,-66 1188.5,-66 1188.5,-80 1188.5,-80 1188.5,-86 1182.5,-92 1176.5,-92"/>
<text text-anchor="middle" x="1088" y="-76.8" font-family="Times,serif" font-size="14.00">sqlite&#45;dissect</text>
<text text-anchor="middle" x="1088" y="-61.8" font-family="Times,serif" font-size="14.00">adopts new case&#45;validation&#45;action</text>
</a>
</g>
</g>
<!-- _GH__KCHASON__CASE_VALIDATION_ACTION&#45;&gt;_GH__DOD_CYBER_CRIME_CENTER__SQLITE_DISSECT -->
<g id="edge22" class="edge">
<title>_GH__KCHASON__CASE_VALIDATION_ACTION&#45;&gt;_GH__DOD_CYBER_CRIME_CENTER__SQLITE_DISSECT</title>
<g id="a_edge22"><a xlink:href="https://github.com/dod-cyber-crime-center/sqlite-dissect/pull/31" xlink:title="TODO: PR 31">
<path fill="none" stroke="black" d="M802.45,-582.11C816.43,-578.48 829.72,-572.04 839,-561 867.28,-527.38 833.48,-203.11 857,-166 883.05,-124.91 930.88,-101.98 976.2,-89.18"/>
<polygon fill="black" stroke="black" points="976.82,-92.63 985.58,-86.68 975.02,-85.87 976.82,-92.63"/>
</a>
</g>
<g id="a_edge22&#45;label"><a xlink:href="https://github.com/dod-cyber-crime-center/sqlite-dissect/pull/31" xlink:title="TODO: PR 31">
<text text-anchor="middle" x="896.5" y="-169.8" font-family="Times,serif" font-size="14.00">TODO: PR 31</text>
</a>
</g>
</g>
<!-- _GH__CIPHERTECHSOLUTIONS__CASE_BINDINGS_CSHARP&#45;&gt;_GH__CASEWORK__CASE_BINDINGS_CSHARP_MONITOR -->
<g id="edge15" class="edge">
<title>_GH__CIPHERTECHSOLUTIONS__CASE_BINDINGS_CSHARP&#45;&gt;_GH__CASEWORK__CASE_BINDINGS_CSHARP_MONITOR</title>
<path fill="none" stroke="black" d="M820.98,-763.21C833.08,-763.12 845.35,-763.05 857,-763 887.41,-762.88 920.07,-762.91 950.97,-763.03"/>
<polygon fill="black" stroke="black" points="950.73,-766.53 960.75,-763.07 950.76,-759.53 950.73,-766.53"/>
<text text-anchor="middle" x="896.5" y="-766.8" font-family="Times,serif" font-size="14.00">NuGet</text>
</g>
</g>
</svg>
