<?xml version="1.0" encoding="UTF-8" standalone="no"?>
<!DOCTYPE svg PUBLIC "-//W3C//DTD SVG 1.1//EN"
 "http://www.w3.org/Graphics/SVG/1.1/DTD/svg11.dtd">
<!-- Generated by graphviz version 7.1.0 (20230121.1956)
 -->
<!-- Title: cdo_release_flow Pages: 1 -->
<svg width="1617pt" height="1124pt"
 viewBox="0.00 0.00 1617.00 1124.00" xmlns="http://www.w3.org/2000/svg" xmlns:xlink="http://www.w3.org/1999/xlink">
<g id="graph0" class="graph" transform="scale(1 1) rotate(0) translate(4 1120)">
<title>cdo_release_flow</title>
<polygon fill="white" stroke="none" points="-4,4 -4,-1120 1613,-1120 1613,4 -4,4"/>
<text text-anchor="middle" x="804.5" y="-38.8" font-family="Times,serif" font-size="14.00">Release flow of CDO ontologies</text>
<text text-anchor="middle" x="804.5" y="-7.8" font-family="Times,serif" font-size="14.00">Nodes link to the respective Git repository.</text>
<g id="clust1" class="cluster">
<title>cluster_uco_0_9_1</title>
<polygon fill="none" stroke="black" points="189,-130 189,-294 357,-294 357,-130 189,-130"/>
<text text-anchor="middle" x="273" y="-278.8" font-family="Times,serif" font-size="14.00">Adoption of UCO 0.9.1</text>
</g>
<g id="clust2" class="cluster">
<title>cluster_case_0_7_1</title>
<polygon fill="none" stroke="black" points="197,-186 197,-263 349,-263 349,-186 197,-186"/>
<text text-anchor="middle" x="273" y="-247.8" font-family="Times,serif" font-size="14.00">Adoption of CASE 0.7.1</text>
</g>
<g id="clust3" class="cluster">
<title>cluster_uco_1_1_0</title>
<polygon fill="none" stroke="black" points="944,-100 944,-294 1232,-294 1232,-100 944,-100"/>
<text text-anchor="middle" x="1088" y="-278.8" font-family="Times,serif" font-size="14.00">Adoption of UCO 1.1.0</text>
</g>
<g id="clust4" class="cluster">
<title>cluster_case_1_1_0</title>
<polygon fill="none" stroke="black" points="952,-108 952,-263 1224,-263 1224,-108 952,-108"/>
<text text-anchor="middle" x="1088" y="-247.8" font-family="Times,serif" font-size="14.00">Adoption of CASE 1.1.0</text>
</g>
<g id="clust5" class="cluster">
<title>cluster_case_utils_0_9_0</title>
<polygon fill="none" stroke="black" points="960,-116 960,-232 1216,-232 1216,-116 960,-116"/>
<text text-anchor="middle" x="1088" y="-216.8" font-family="Times,serif" font-size="14.00">Adoption of case&#45;utils 0.9.0</text>
</g>
<g id="clust6" class="cluster">
<title>cluster_case_validation_action_2_5</title>
<polygon fill="none" stroke="black" points="968,-124 968,-201 1208,-201 1208,-124 968,-124"/>
<text text-anchor="middle" x="1088" y="-185.8" font-family="Times,serif" font-size="14.00">Adoption of case&#45;validation&#45;action 2.5</text>
</g>
<g id="clust7" class="cluster">
<title>cluster_uco_1_2_0</title>
<polygon fill="none" stroke="black" points="8,-302 8,-1108 1601,-1108 1601,-302 8,-302"/>
<text text-anchor="middle" x="804.5" y="-1092.8" font-family="Times,serif" font-size="14.00">Adoption of UCO 1.2.0</text>
</g>
<g id="clust8" class="cluster">
<title>cluster_case_1_2_0</title>
<polygon fill="none" stroke="black" points="212,-310 212,-1077 1593,-1077 1593,-310 212,-310"/>
<text text-anchor="middle" x="902.5" y="-1061.8" font-family="Times,serif" font-size="14.00">Adoption of CASE 1.2.0</text>
</g>
<g id="clust9" class="cluster">
<title>cluster_case_utils_0_10_0</title>
<polygon fill="none" stroke="black" points="456,-364 456,-1046 1585,-1046 1585,-364 456,-364"/>
<text text-anchor="middle" x="1020.5" y="-1030.8" font-family="Times,serif" font-size="14.00">Adoption of case&#45;utils 0.10.0</text>
</g>
<g id="clust10" class="cluster">
<title>cluster_case_prov_0_7_0</title>
<polygon fill="none" stroke="black" points="1295,-933 1295,-1010 1577,-1010 1577,-933 1295,-933"/>
<text text-anchor="middle" x="1436" y="-994.8" font-family="Times,serif" font-size="14.00">Adoption of case&#45;prov 0.7.0</text>
</g>
<g id="clust11" class="cluster">
<title>cluster_case_validation_action_2_6</title>
<polygon fill="none" stroke="black" points="631.5,-474 631.5,-842 1229.5,-842 1229.5,-474 631.5,-474"/>
<text text-anchor="middle" x="930.5" y="-826.8" font-family="Times,serif" font-size="14.00">Adoption of case&#45;validation&#45;action 2.6</text>
</g>
<g id="clust12" class="cluster">
<title>cluster_case_bindings_csharp_0_4_0</title>
<polygon fill="none" stroke="black" points="639.5,-734 639.5,-811 1221.5,-811 1221.5,-734 639.5,-734"/>
<text text-anchor="middle" x="930.5" y="-795.8" font-family="Times,serif" font-size="14.00">Adoption of CSharp bindings 0.4.0</text>
</g>
<!-- _GH__UCOPROJECT__ONTOLOGY_UNIFIEDCYBERONTOLOGY_ORG -->
<g id="node1" class="node">
<title>_GH__UCOPROJECT__ONTOLOGY_UNIFIEDCYBERONTOLOGY_ORG</title>
<g id="a_node1"><a xlink:href="https://github.com/ucoProject/ontology.unifiedcyberontology.org" xlink:title="UCO documentation\nregenerated">
<path fill="#8ec7d2" stroke="#0d6986" d="M326,-176C326,-176 220,-176 220,-176 214,-176 208,-170 208,-164 208,-164 208,-150 208,-150 208,-144 214,-138 220,-138 220,-138 326,-138 326,-138 332,-138 338,-144 338,-150 338,-150 338,-164 338,-164 338,-170 332,-176 326,-176"/>
<text text-anchor="middle" x="273" y="-160.8" font-family="Times,serif" font-size="14.00">UCO documentation</text>
<text text-anchor="middle" x="273" y="-145.8" font-family="Times,serif" font-size="14.00">regenerated</text>
</a>
</g>
</g>
<!-- _GH__CASEWORK__CASE_MAPPING_TEMPLATE_STUBS -->
<g id="node2" class="node">
<title>_GH__CASEWORK__CASE_MAPPING_TEMPLATE_STUBS</title>
<g id="a_node2"><a xlink:href="https://github.com/casework/CASE-Mapping-Template-Stubs" xlink:title="CASE Mapping\nTemplate Stubs">
<path fill="#8ec7d2" stroke="#0d6986" d="M313,-232C313,-232 233,-232 233,-232 227,-232 221,-226 221,-220 221,-220 221,-206 221,-206 221,-200 227,-194 233,-194 233,-194 313,-194 313,-194 319,-194 325,-200 325,-206 325,-206 325,-220 325,-220 325,-226 319,-232 313,-232"/>
<text text-anchor="middle" x="273" y="-216.8" font-family="Times,serif" font-size="14.00">CASE Mapping</text>
<text text-anchor="middle" x="273" y="-201.8" font-family="Times,serif" font-size="14.00">Template Stubs</text>
</a>
</g>
</g>
<!-- _GH__CASEWORK__CASE_IMPLEMENTATON_PYPI_EXIFREAD -->
<g id="node3" class="node">
<title>_GH__CASEWORK__CASE_IMPLEMENTATON_PYPI_EXIFREAD</title>
<g id="a_node3"><a xlink:href="https://github.com/casework/CASE-Implementation-PyPI-Exifread" xlink:title="CASE&#45;Implementation&#45;PyPI&#45;Exifread\nadopts new case&#45;validation&#45;action">
<path fill="#8ec7d2" stroke="#0d6986" d="M1188,-170C1188,-170 988,-170 988,-170 982,-170 976,-164 976,-158 976,-158 976,-144 976,-144 976,-138 982,-132 988,-132 988,-132 1188,-132 1188,-132 1194,-132 1200,-138 1200,-144 1200,-144 1200,-158 1200,-158 1200,-164 1194,-170 1188,-170"/>
<text text-anchor="middle" x="1088" y="-154.8" font-family="Times,serif" font-size="14.00">CASE&#45;Implementation&#45;PyPI&#45;Exifread</text>
<text text-anchor="middle" x="1088" y="-139.8" font-family="Times,serif" font-size="14.00">adopts new case&#45;validation&#45;action</text>
</a>
</g>
</g>
<!-- _GH__UCOPROJECT__UCO -->
<g id="node4" class="node">
<title>_GH__UCOPROJECT__UCO</title>
<g id="a_node4"><a xlink:href="https://github.com/ucoProject/UCO" xlink:title="UCO Ontology\nreleases">
<path fill="#8ec7d2" stroke="#0d6986" d="M104,-352C104,-352 28,-352 28,-352 22,-352 16,-346 16,-340 16,-340 16,-326 16,-326 16,-320 22,-314 28,-314 28,-314 104,-314 104,-314 110,-314 116,-320 116,-326 116,-326 116,-340 116,-340 116,-346 110,-352 104,-352"/>
<text text-anchor="middle" x="66" y="-336.8" font-family="Times,serif" font-size="14.00">UCO Ontology</text>
<text text-anchor="middle" x="66" y="-321.8" font-family="Times,serif" font-size="14.00">releases</text>
</a>
</g>
</g>
<!-- _GH__UCOPROJECT__UCO&#45;&gt;_GH__UCOPROJECT__ONTOLOGY_UNIFIEDCYBERONTOLOGY_ORG -->
<g id="edge24" class="edge">
<title>_GH__UCOPROJECT__UCO&#45;&gt;_GH__UCOPROJECT__ONTOLOGY_UNIFIEDCYBERONTOLOGY_ORG</title>
<path fill="none" stroke="black" d="M77.41,-313.67C95.71,-281.53 136.7,-217.16 189,-182 191.69,-180.19 194.52,-178.51 197.44,-176.94"/>
<polygon fill="black" stroke="black" points="198.78,-180.18 206.31,-172.72 195.77,-173.86 198.78,-180.18"/>
<text text-anchor="middle" x="156.5" y="-250.8" font-family="Times,serif" font-size="14.00">Git sub&#45;</text>
<text text-anchor="middle" x="156.5" y="-235.8" font-family="Times,serif" font-size="14.00">module</text>
</g>
<!-- _GH__CASEWORK__CASE -->
<g id="node5" class="node">
<title>_GH__CASEWORK__CASE</title>
<g id="a_node5"><a xlink:href="https://github.com/casework/CASE" xlink:title="CASE Ontology\nreleases">
<path fill="#8ec7d2" stroke="#0d6986" d="M314,-603C314,-603 232,-603 232,-603 226,-603 220,-597 220,-591 220,-591 220,-577 220,-577 220,-571 226,-565 232,-565 232,-565 314,-565 314,-565 320,-565 326,-571 326,-577 326,-577 326,-591 326,-591 326,-597 320,-603 314,-603"/>
<text text-anchor="middle" x="273" y="-587.8" font-family="Times,serif" font-size="14.00">CASE Ontology</text>
<text text-anchor="middle" x="273" y="-572.8" font-family="Times,serif" font-size="14.00">releases</text>
</a>
</g>
</g>
<!-- _GH__UCOPROJECT__UCO&#45;&gt;_GH__CASEWORK__CASE -->
<g id="edge23" class="edge">
<title>_GH__UCOPROJECT__UCO&#45;&gt;_GH__CASEWORK__CASE</title>
<path fill="none" stroke="black" d="M82.75,-352.28C118.74,-396.35 207.18,-504.63 249.16,-556.04"/>
<polygon fill="black" stroke="black" points="246.21,-557.95 255.24,-563.48 251.63,-553.52 246.21,-557.95"/>
<text text-anchor="middle" x="156.5" y="-484.8" font-family="Times,serif" font-size="14.00">Git sub&#45;</text>
<text text-anchor="middle" x="156.5" y="-469.8" font-family="Times,serif" font-size="14.00">module</text>
</g>
<!-- _GH__CASEWORK__ONTOLOGY_CASEONTOLOGY_ORG -->
<g id="node6" class="node">
<title>_GH__CASEWORK__ONTOLOGY_CASEONTOLOGY_ORG</title>
<g id="a_node6"><a xlink:href="https://github.com/casework/ontology.caseontology.org" xlink:title="CASE documentation\nregenerated">
<path fill="#8ec7d2" stroke="#0d6986" d="M554,-356C554,-356 442,-356 442,-356 436,-356 430,-350 430,-344 430,-344 430,-330 430,-330 430,-324 436,-318 442,-318 442,-318 554,-318 554,-318 560,-318 566,-324 566,-330 566,-330 566,-344 566,-344 566,-350 560,-356 554,-356"/>
<text text-anchor="middle" x="498" y="-340.8" font-family="Times,serif" font-size="14.00">CASE documentation</text>
<text text-anchor="middle" x="498" y="-325.8" font-family="Times,serif" font-size="14.00">regenerated</text>
</a>
</g>
</g>
<!-- _GH__CASEWORK__CASE&#45;&gt;_GH__CASEWORK__ONTOLOGY_CASEONTOLOGY_ORG -->
<g id="edge4" class="edge">
<title>_GH__CASEWORK__CASE&#45;&gt;_GH__CASEWORK__ONTOLOGY_CASEONTOLOGY_ORG</title>
<path fill="none" stroke="black" d="M282.27,-564.73C300.97,-523.3 350.49,-424.78 426.33,-363.35"/>
<polygon fill="black" stroke="black" points="428.29,-366.26 434.02,-357.35 423.98,-360.74 428.29,-366.26"/>
<text text-anchor="middle" x="389.5" y="-440.8" font-family="Times,serif" font-size="14.00">Git sub&#45;</text>
<text text-anchor="middle" x="389.5" y="-425.8" font-family="Times,serif" font-size="14.00">module</text>
</g>
<!-- _GH__CASEWORK__CASE_UTILITIES_PYTHON -->
<g id="node11" class="node">
<title>_GH__CASEWORK__CASE_UTILITIES_PYTHON</title>
<g id="a_node11"><a xlink:href="https://github.com/casework/CASE-Utilities-Python" xlink:title="case&#45;utils\nreleases">
<path fill="#8ec7d2" stroke="#0d6986" d="M520,-806C520,-806 476,-806 476,-806 470,-806 464,-800 464,-794 464,-794 464,-780 464,-780 464,-774 470,-768 476,-768 476,-768 520,-768 520,-768 526,-768 532,-774 532,-780 532,-780 532,-794 532,-794 532,-800 526,-806 520,-806"/>
<text text-anchor="middle" x="498" y="-790.8" font-family="Times,serif" font-size="14.00">case&#45;utils</text>
<text text-anchor="middle" x="498" y="-775.8" font-family="Times,serif" font-size="14.00">releases</text>
</a>
</g>
</g>
<!-- _GH__CASEWORK__CASE&#45;&gt;_GH__CASEWORK__CASE_UTILITIES_PYTHON -->
<g id="edge2" class="edge">
<title>_GH__CASEWORK__CASE&#45;&gt;_GH__CASEWORK__CASE_UTILITIES_PYTHON</title>
<path fill="none" stroke="black" d="M285.67,-603.23C308.77,-639.72 363.85,-719.35 430,-764 436.94,-768.68 444.92,-772.5 452.91,-775.58"/>
<polygon fill="black" stroke="black" points="451.67,-778.86 462.27,-778.85 453.98,-772.25 451.67,-778.86"/>
<text text-anchor="middle" x="389.5" y="-766.8" font-family="Times,serif" font-size="14.00">Git sub&#45;</text>
<text text-anchor="middle" x="389.5" y="-751.8" font-family="Times,serif" font-size="14.00">module</text>
</g>
<!-- _GH__CIPHERTECHSOLUTIONS__CASE_BINDINGS_CSHARP -->
<g id="node21" class="node">
<title>_GH__CIPHERTECHSOLUTIONS__CASE_BINDINGS_CSHARP</title>
<g id="a_node21"><a xlink:href="https://github.com/ciphertechsolutions/CASE-Bindings-CSharp" xlink:title="CASE&#45;Bindings&#45;CSharp\nadopts new ontology version">
<path fill="#8ec7d2" stroke="#0d6986" d="M808.5,-780C808.5,-780 659.5,-780 659.5,-780 653.5,-780 647.5,-774 647.5,-768 647.5,-768 647.5,-754 647.5,-754 647.5,-748 653.5,-742 659.5,-742 659.5,-742 808.5,-742 808.5,-742 814.5,-742 820.5,-748 820.5,-754 820.5,-754 820.5,-768 820.5,-768 820.5,-774 814.5,-780 808.5,-780"/>
<text text-anchor="middle" x="734" y="-764.8" font-family="Times,serif" font-size="14.00">CASE&#45;Bindings&#45;CSharp</text>
<text text-anchor="middle" x="734" y="-749.8" font-family="Times,serif" font-size="14.00">adopts new ontology version</text>
</a>
</g>
</g>
<!-- _GH__CASEWORK__CASE&#45;&gt;_GH__CIPHERTECHSOLUTIONS__CASE_BINDINGS_CSHARP -->
<g id="edge3" class="edge">
<title>_GH__CASEWORK__CASE&#45;&gt;_GH__CIPHERTECHSOLUTIONS__CASE_BINDINGS_CSHARP</title>
<path fill="none" stroke="black" d="M273.89,-603.13C274.64,-673.08 287.73,-916.11 430,-1016 495.84,-1062.22 551.96,-1070.64 611,-1016 648.95,-980.88 595.09,-823.04 629,-784 631.55,-781.07 634.38,-778.46 637.42,-776.15"/>
<polygon fill="black" stroke="black" points="639.26,-779.13 645.87,-770.86 635.54,-773.2 639.26,-779.13"/>
</g>
<!-- _GH__AJNELSON_NIST__CASE_EXAMPLES_QC -->
<g id="node7" class="node">
<title>_GH__AJNELSON_NIST__CASE_EXAMPLES_QC</title>
<g id="a_node7"><a xlink:href="https://github.com/ajnelson-nist/CASE-Examples-QC" xlink:title="CASE&#45;Examples&#45;QC\nadopts CASE&#45;Examples and\nCASE website updates">
<path fill="#8ec7d2" stroke="#0d6986" d="M1162,-964.5C1162,-964.5 1014,-964.5 1014,-964.5 1008,-964.5 1002,-958.5 1002,-952.5 1002,-952.5 1002,-923.5 1002,-923.5 1002,-917.5 1008,-911.5 1014,-911.5 1014,-911.5 1162,-911.5 1162,-911.5 1168,-911.5 1174,-917.5 1174,-923.5 1174,-923.5 1174,-952.5 1174,-952.5 1174,-958.5 1168,-964.5 1162,-964.5"/>
<text text-anchor="middle" x="1088" y="-949.3" font-family="Times,serif" font-size="14.00">CASE&#45;Examples&#45;QC</text>
<text text-anchor="middle" x="1088" y="-934.3" font-family="Times,serif" font-size="14.00">adopts CASE&#45;Examples and</text>
<text text-anchor="middle" x="1088" y="-919.3" font-family="Times,serif" font-size="14.00">CASE website updates</text>
</a>
</g>
</g>
<!-- _GH__CASEWORK__CASE_IMPLEMENTATON_PROV_O -->
<g id="node14" class="node">
<title>_GH__CASEWORK__CASE_IMPLEMENTATON_PROV_O</title>
<g id="a_node14"><a xlink:href="https://github.com/casework/CASE-Implementation-PROV-O" xlink:title="case&#45;prov\nreleases">
<path fill="#8ec7d2" stroke="#0d6986" d="M1360,-979C1360,-979 1315,-979 1315,-979 1309,-979 1303,-973 1303,-967 1303,-967 1303,-953 1303,-953 1303,-947 1309,-941 1315,-941 1315,-941 1360,-941 1360,-941 1366,-941 1372,-947 1372,-953 1372,-953 1372,-967 1372,-967 1372,-973 1366,-979 1360,-979"/>
<text text-anchor="middle" x="1337.5" y="-963.8" font-family="Times,serif" font-size="14.00">case&#45;prov</text>
<text text-anchor="middle" x="1337.5" y="-948.8" font-family="Times,serif" font-size="14.00">releases</text>
</a>
</g>
</g>
<!-- _GH__AJNELSON_NIST__CASE_EXAMPLES_QC&#45;&gt;_GH__CASEWORK__CASE_IMPLEMENTATON_PROV_O -->
<g id="edge1" class="edge">
<title>_GH__AJNELSON_NIST__CASE_EXAMPLES_QC&#45;&gt;_GH__CASEWORK__CASE_IMPLEMENTATON_PROV_O</title>
<path fill="none" stroke="black" d="M1174.18,-945.57C1213.53,-949.07 1258.67,-953.08 1291.34,-955.99"/>
<polygon fill="black" stroke="black" points="1291,-959.47 1301.27,-956.87 1291.62,-952.5 1291,-959.47"/>
<text text-anchor="middle" x="1262.5" y="-973.8" font-family="Times,serif" font-size="14.00">Git sub&#45;</text>
<text text-anchor="middle" x="1262.5" y="-958.8" font-family="Times,serif" font-size="14.00">module</text>
</g>
<!-- _GH__CASEWORK__CASE_EXAMPLES -->
<g id="node8" class="node">
<title>_GH__CASEWORK__CASE_EXAMPLES</title>
<g id="a_node8"><a xlink:href="https://github.com/casework/CASE-Examples" xlink:title="CASE&#45;Examples\nadopts new case&#45;utils">
<path fill="#8ec7d2" stroke="#0d6986" d="M788.5,-888C788.5,-888 679.5,-888 679.5,-888 673.5,-888 667.5,-882 667.5,-876 667.5,-876 667.5,-862 667.5,-862 667.5,-856 673.5,-850 679.5,-850 679.5,-850 788.5,-850 788.5,-850 794.5,-850 800.5,-856 800.5,-862 800.5,-862 800.5,-876 800.5,-876 800.5,-882 794.5,-888 788.5,-888"/>
<text text-anchor="middle" x="734" y="-872.8" font-family="Times,serif" font-size="14.00">CASE&#45;Examples</text>
<text text-anchor="middle" x="734" y="-857.8" font-family="Times,serif" font-size="14.00">adopts new case&#45;utils</text>
</a>
</g>
</g>
<!-- _GH__CASEWORK__CASE_EXAMPLES&#45;&gt;_GH__AJNELSON_NIST__CASE_EXAMPLES_QC -->
<g id="edge5" class="edge">
<title>_GH__CASEWORK__CASE_EXAMPLES&#45;&gt;_GH__AJNELSON_NIST__CASE_EXAMPLES_QC</title>
<path fill="none" stroke="black" d="M800.58,-874.99C840.06,-879.22 891.2,-885.78 936,-895 953.88,-898.68 972.74,-903.38 990.85,-908.31"/>
<polygon fill="black" stroke="black" points="989.67,-911.62 1000.25,-910.92 991.54,-904.87 989.67,-911.62"/>
<text text-anchor="middle" x="896.5" y="-913.8" font-family="Times,serif" font-size="14.00">Git sub&#45;</text>
<text text-anchor="middle" x="896.5" y="-898.8" font-family="Times,serif" font-size="14.00">module</text>
</g>
<!-- _GH__CASEWORK__CASE_IMPLEMENTATON_EXIFTOOL -->
<g id="node9" class="node">
<title>_GH__CASEWORK__CASE_IMPLEMENTATON_EXIFTOOL</title>
<g id="a_node9"><a xlink:href="https://github.com/casework/CASE-Implementation-ExifTool" xlink:title="CASE&#45;Implementation&#45;ExifTool\nadopts new case&#45;utils">
<path fill="#8ec7d2" stroke="#0d6986" d="M820,-410C820,-410 648,-410 648,-410 642,-410 636,-404 636,-398 636,-398 636,-384 636,-384 636,-378 642,-372 648,-372 648,-372 820,-372 820,-372 826,-372 832,-378 832,-384 832,-384 832,-398 832,-398 832,-404 826,-410 820,-410"/>
<text text-anchor="middle" x="734" y="-394.8" font-family="Times,serif" font-size="14.00">CASE&#45;Implementation&#45;ExifTool</text>
<text text-anchor="middle" x="734" y="-379.8" font-family="Times,serif" font-size="14.00">adopts new case&#45;utils</text>
</a>
</g>
</g>
<!-- _GH__CASEWORK__CASE_IMPLEMENTATON_GNU_TIME -->
<g id="node10" class="node">
<title>_GH__CASEWORK__CASE_IMPLEMENTATON_GNU_TIME</title>
<g id="a_node10"><a xlink:href="https://github.com/casework/CASE-Implementation-GNU-Time" xlink:title="CASE&#45;Implementation&#45;GNU&#45;Time\nadopts new case&#45;utils">
<path fill="#8ec7d2" stroke="#0d6986" d="M827,-466C827,-466 641,-466 641,-466 635,-466 629,-460 629,-454 629,-454 629,-440 629,-440 629,-434 635,-428 641,-428 641,-428 827,-428 827,-428 833,-428 839,-434 839,-440 839,-440 839,-454 839,-454 839,-460 833,-466 827,-466"/>
<text text-anchor="middle" x="734" y="-450.8" font-family="Times,serif" font-size="14.00">CASE&#45;Implementation&#45;GNU&#45;Time</text>
<text text-anchor="middle" x="734" y="-435.8" font-family="Times,serif" font-size="14.00">adopts new case&#45;utils</text>
</a>
</g>
</g>
<!-- _GH__CASEWORK__CASE_UTILITIES_PYTHON&#45;&gt;_GH__AJNELSON_NIST__CASE_EXAMPLES_QC -->
<g id="edge7" class="edge">
<title>_GH__CASEWORK__CASE_UTILITIES_PYTHON&#45;&gt;_GH__AJNELSON_NIST__CASE_EXAMPLES_QC</title>
<path fill="none" stroke="black" d="M507.02,-806.43C523.47,-843.35 564.99,-922.67 629,-953 752.42,-1011.47 800.01,-978.5 936,-966 953.7,-964.37 972.42,-961.69 990.43,-958.62"/>
<polygon fill="black" stroke="black" points="990.81,-962.11 1000.05,-956.93 989.59,-955.22 990.81,-962.11"/>
<text text-anchor="middle" x="734" y="-989.8" font-family="Times,serif" font-size="14.00">PyPI</text>
</g>
<!-- _GH__CASEWORK__CASE_UTILITIES_PYTHON&#45;&gt;_GH__CASEWORK__CASE_EXAMPLES -->
<g id="edge8" class="edge">
<title>_GH__CASEWORK__CASE_UTILITIES_PYTHON&#45;&gt;_GH__CASEWORK__CASE_EXAMPLES</title>
<path fill="none" stroke="black" d="M532.03,-798.57C566.95,-810.81 622.95,-830.43 666.98,-845.86"/>
<polygon fill="black" stroke="black" points="665.58,-849.08 676.18,-849.09 667.9,-842.48 665.58,-849.08"/>
<text text-anchor="middle" x="597.5" y="-828.8" font-family="Times,serif" font-size="14.00">PyPI</text>
</g>
<!-- _GH__CASEWORK__CASE_UTILITIES_PYTHON&#45;&gt;_GH__CASEWORK__CASE_IMPLEMENTATON_EXIFTOOL -->
<g id="edge9" class="edge">
<title>_GH__CASEWORK__CASE_UTILITIES_PYTHON&#45;&gt;_GH__CASEWORK__CASE_IMPLEMENTATON_EXIFTOOL</title>
<path fill="none" stroke="black" d="M532.17,-783.38C544.71,-780.26 557.9,-774.53 566,-764 600.1,-719.68 569.68,-567.06 584,-513 595.86,-468.23 593.39,-448.61 629,-419 629.97,-418.19 630.96,-417.41 631.97,-416.65"/>
<polygon fill="black" stroke="black" points="633.83,-419.62 640.28,-411.21 630,-413.76 633.83,-419.62"/>
<text text-anchor="middle" x="597.5" y="-516.8" font-family="Times,serif" font-size="14.00">PyPI</text>
</g>
<!-- _GH__CASEWORK__CASE_UTILITIES_PYTHON&#45;&gt;_GH__CASEWORK__CASE_IMPLEMENTATON_GNU_TIME -->
<g id="edge10" class="edge">
<title>_GH__CASEWORK__CASE_UTILITIES_PYTHON&#45;&gt;_GH__CASEWORK__CASE_IMPLEMENTATON_GNU_TIME</title>
<path fill="none" stroke="black" d="M532.49,-782.52C544.62,-779.27 557.43,-773.66 566,-764 586.52,-740.86 602.86,-528.9 627.09,-475.79"/>
<polygon fill="black" stroke="black" points="629.91,-477.88 632.27,-467.55 623.99,-474.15 629.91,-477.88"/>
<text text-anchor="middle" x="597.5" y="-696.8" font-family="Times,serif" font-size="14.00">PyPI</text>
</g>
<!-- _GH__CASEWORK__CASEWORK_GITHUB_IO -->
<g id="node12" class="node">
<title>_GH__CASEWORK__CASEWORK_GITHUB_IO</title>
<g id="a_node12"><a xlink:href="https://github.com/casework/casework.github.io" xlink:title="CASE website\nadopts new case&#45;utils">
<path fill="#8ec7d2" stroke="#0d6986" d="M788.5,-944C788.5,-944 679.5,-944 679.5,-944 673.5,-944 667.5,-938 667.5,-932 667.5,-932 667.5,-918 667.5,-918 667.5,-912 673.5,-906 679.5,-906 679.5,-906 788.5,-906 788.5,-906 794.5,-906 800.5,-912 800.5,-918 800.5,-918 800.5,-932 800.5,-932 800.5,-938 794.5,-944 788.5,-944"/>
<text text-anchor="middle" x="734" y="-928.8" font-family="Times,serif" font-size="14.00">CASE website</text>
<text text-anchor="middle" x="734" y="-913.8" font-family="Times,serif" font-size="14.00">adopts new case&#45;utils</text>
</a>
</g>
</g>
<!-- _GH__CASEWORK__CASE_UTILITIES_PYTHON&#45;&gt;_GH__CASEWORK__CASEWORK_GITHUB_IO -->
<g id="edge13" class="edge">
<title>_GH__CASEWORK__CASE_UTILITIES_PYTHON&#45;&gt;_GH__CASEWORK__CASEWORK_GITHUB_IO</title>
<path fill="none" stroke="black" d="M516.44,-806.28C539.75,-830.89 583.43,-873.12 629,-897 637.6,-901.51 647,-905.34 656.51,-908.58"/>
<polygon fill="black" stroke="black" points="655.23,-911.85 665.82,-911.54 657.35,-905.18 655.23,-911.85"/>
<text text-anchor="middle" x="597.5" y="-888.8" font-family="Times,serif" font-size="14.00">PyPI</text>
</g>
<!-- _GH__CASEWORK__CASE_UTILITIES_PYTHON&#45;&gt;_GH__CASEWORK__CASE_IMPLEMENTATON_PROV_O -->
<g id="edge11" class="edge">
<title>_GH__CASEWORK__CASE_UTILITIES_PYTHON&#45;&gt;_GH__CASEWORK__CASE_IMPLEMENTATON_PROV_O</title>
<path fill="none" stroke="black" d="M503.45,-806.38C514.98,-851.49 550.59,-962.87 629,-1005 696.34,-1041.18 1099.46,-1041.22 1285,-989 1289.21,-987.81 1293.45,-986.22 1297.59,-984.38"/>
<polygon fill="black" stroke="black" points="1298.84,-987.67 1306.25,-980.09 1295.73,-981.4 1298.84,-987.67"/>
<text text-anchor="middle" x="896.5" y="-1033.8" font-family="Times,serif" font-size="14.00">PyPI</text>
</g>
<!-- _GH__KCHASON__CASE_VALIDATION_ACTION -->
<g id="node19" class="node">
<title>_GH__KCHASON__CASE_VALIDATION_ACTION</title>
<g id="a_node19"><a xlink:href="https://github.com/kchason/case-validation-action" xlink:title="case&#45;validation&#45;action\nreleases">
<path fill="#8ec7d2" stroke="#0d6986" d="M790,-599C790,-599 678,-599 678,-599 672,-599 666,-593 666,-587 666,-587 666,-573 666,-573 666,-567 672,-561 678,-561 678,-561 790,-561 790,-561 796,-561 802,-567 802,-573 802,-573 802,-587 802,-587 802,-593 796,-599 790,-599"/>
<text text-anchor="middle" x="734" y="-583.8" font-family="Times,serif" font-size="14.00">case&#45;validation&#45;action</text>
<text text-anchor="middle" x="734" y="-568.8" font-family="Times,serif" font-size="14.00">releases</text>
</a>
</g>
</g>
<!-- _GH__CASEWORK__CASE_UTILITIES_PYTHON&#45;&gt;_GH__KCHASON__CASE_VALIDATION_ACTION -->
<g id="edge12" class="edge">
<title>_GH__CASEWORK__CASE_UTILITIES_PYTHON&#45;&gt;_GH__KCHASON__CASE_VALIDATION_ACTION</title>
<path fill="none" stroke="black" d="M532.22,-779.21C543.51,-775.65 555.83,-770.7 566,-764 630.27,-721.68 686.06,-649 713.98,-608.82"/>
<polygon fill="black" stroke="black" points="716.85,-610.82 719.61,-600.59 711.07,-606.86 716.85,-610.82"/>
<text text-anchor="middle" x="597.5" y="-751.8" font-family="Times,serif" font-size="14.00">PyPI</text>
</g>
<!-- _GH__CASEWORK__CASEWORK_GITHUB_IO&#45;&gt;_GH__AJNELSON_NIST__CASE_EXAMPLES_QC -->
<g id="edge14" class="edge">
<title>_GH__CASEWORK__CASEWORK_GITHUB_IO&#45;&gt;_GH__AJNELSON_NIST__CASE_EXAMPLES_QC</title>
<path fill="none" stroke="black" d="M800.8,-927.43C854.07,-929.4 929.9,-932.2 990.11,-934.42"/>
<polygon fill="black" stroke="black" points="989.92,-937.92 1000.04,-934.79 990.18,-930.92 989.92,-937.92"/>
<text text-anchor="middle" x="896.5" y="-950.8" font-family="Times,serif" font-size="14.00">Git sub&#45;</text>
<text text-anchor="middle" x="896.5" y="-935.8" font-family="Times,serif" font-size="14.00">module</text>
</g>
<!-- _GH__CASEWORK__CASE_CORPORA -->
<g id="node13" class="node">
<title>_GH__CASEWORK__CASE_CORPORA</title>
<g id="a_node13"><a xlink:href="https://github.com/casework/CASE-Corpora" xlink:title="CASE&#45;Corpora\nadopts new case&#45;prov">
<path fill="#8ec7d2" stroke="#0d6986" d="M1557,-979C1557,-979 1447,-979 1447,-979 1441,-979 1435,-973 1435,-967 1435,-967 1435,-953 1435,-953 1435,-947 1441,-941 1447,-941 1447,-941 1557,-941 1557,-941 1563,-941 1569,-947 1569,-953 1569,-953 1569,-967 1569,-967 1569,-973 1563,-979 1557,-979"/>
<text text-anchor="middle" x="1502" y="-963.8" font-family="Times,serif" font-size="14.00">CASE&#45;Corpora</text>
<text text-anchor="middle" x="1502" y="-948.8" font-family="Times,serif" font-size="14.00">adopts new case&#45;prov</text>
</a>
</g>
</g>
<!-- _GH__CASEWORK__CASE_IMPLEMENTATON_PROV_O&#45;&gt;_GH__CASEWORK__CASE_CORPORA -->
<g id="edge6" class="edge">
<title>_GH__CASEWORK__CASE_IMPLEMENTATON_PROV_O&#45;&gt;_GH__CASEWORK__CASE_CORPORA</title>
<path fill="none" stroke="black" d="M1372.17,-960C1387.03,-960 1405.18,-960 1423.11,-960"/>
<polygon fill="black" stroke="black" points="1423,-963.5 1433,-960 1423,-956.5 1423,-963.5"/>
<text text-anchor="middle" x="1403.5" y="-963.8" font-family="Times,serif" font-size="14.00">PyPI</text>
</g>
<!-- _GH__CASEWORK__CASE_IMPLEMENTATON_PYPI_PILLOW -->
<g id="node15" class="node">
<title>_GH__CASEWORK__CASE_IMPLEMENTATON_PYPI_PILLOW</title>
<g id="a_node15"><a xlink:href="https://github.com/casework/CASE-Implementation-PyPI-Pillow" xlink:title="CASE&#45;Implementation&#45;PyPI&#45;Pillow\nadopts new case&#45;validation&#45;action">
<path fill="#8ec7d2" stroke="#0d6986" d="M1182.5,-632C1182.5,-632 993.5,-632 993.5,-632 987.5,-632 981.5,-626 981.5,-620 981.5,-620 981.5,-606 981.5,-606 981.5,-600 987.5,-594 993.5,-594 993.5,-594 1182.5,-594 1182.5,-594 1188.5,-594 1194.5,-600 1194.5,-606 1194.5,-606 1194.5,-620 1194.5,-620 1194.5,-626 1188.5,-632 1182.5,-632"/>
<text text-anchor="middle" x="1088" y="-616.8" font-family="Times,serif" font-size="14.00">CASE&#45;Implementation&#45;PyPI&#45;Pillow</text>
<text text-anchor="middle" x="1088" y="-601.8" font-family="Times,serif" font-size="14.00">adopts new case&#45;validation&#45;action</text>
</a>
</g>
</g>
<!-- _GH__CASEWORK__CASE_IMPLEMENTATON_UFED_XML -->
<g id="node16" class="node">
<title>_GH__CASEWORK__CASE_IMPLEMENTATON_UFED_XML</title>
<g id="a_node16"><a xlink:href="https://github.com/casework/CASE-Implementation-UFED-XML" xlink:title="CASE&#45;Implementation&#45;UFED&#45;XML\nadopts new case&#45;validation&#45;action">
<path fill="#8ec7d2" stroke="#0d6986" d="M1185,-688C1185,-688 991,-688 991,-688 985,-688 979,-682 979,-676 979,-676 979,-662 979,-662 979,-656 985,-650 991,-650 991,-650 1185,-650 1185,-650 1191,-650 1197,-656 1197,-662 1197,-662 1197,-676 1197,-676 1197,-682 1191,-688 1185,-688"/>
<text text-anchor="middle" x="1088" y="-672.8" font-family="Times,serif" font-size="14.00">CASE&#45;Implementation&#45;UFED&#45;XML</text>
<text text-anchor="middle" x="1088" y="-657.8" font-family="Times,serif" font-size="14.00">adopts new case&#45;validation&#45;action</text>
</a>
</g>
</g>
<!-- _GH__CASEWORK__CASE_IMPLEMENTATON_XRY -->
<g id="node17" class="node">
<title>_GH__CASEWORK__CASE_IMPLEMENTATON_XRY</title>
<g id="a_node17"><a xlink:href="https://github.com/casework/CASE-Implementation-XRY" xlink:title="CASE&#45;Implementation&#45;XRY adopts\nnew case&#45;validation&#45;action">
<path fill="#8ec7d2" stroke="#0d6986" d="M1183,-520C1183,-520 993,-520 993,-520 987,-520 981,-514 981,-508 981,-508 981,-494 981,-494 981,-488 987,-482 993,-482 993,-482 1183,-482 1183,-482 1189,-482 1195,-488 1195,-494 1195,-494 1195,-508 1195,-508 1195,-514 1189,-520 1183,-520"/>
<text text-anchor="middle" x="1088" y="-504.8" font-family="Times,serif" font-size="14.00">CASE&#45;Implementation&#45;XRY adopts</text>
<text text-anchor="middle" x="1088" y="-489.8" font-family="Times,serif" font-size="14.00">new case&#45;validation&#45;action</text>
</a>
</g>
</g>
<!-- _GH__CASEWORK__CASE_MAPPING_TEMPLATE_PYTHON -->
<g id="node18" class="node">
<title>_GH__CASEWORK__CASE_MAPPING_TEMPLATE_PYTHON</title>
<g id="a_node18"><a xlink:href="https://github.com/casework/CASE-Mapping-Template-Python" xlink:title="CASE&#45;Mapping&#45;Template&#45;Python\nadopts new case&#45;validation&#45;action">
<path fill="#8ec7d2" stroke="#0d6986" d="M1178,-576C1178,-576 998,-576 998,-576 992,-576 986,-570 986,-564 986,-564 986,-550 986,-550 986,-544 992,-538 998,-538 998,-538 1178,-538 1178,-538 1184,-538 1190,-544 1190,-550 1190,-550 1190,-564 1190,-564 1190,-570 1184,-576 1178,-576"/>
<text text-anchor="middle" x="1088" y="-560.8" font-family="Times,serif" font-size="14.00">CASE&#45;Mapping&#45;Template&#45;Python</text>
<text text-anchor="middle" x="1088" y="-545.8" font-family="Times,serif" font-size="14.00">adopts new case&#45;validation&#45;action</text>
</a>
</g>
</g>
<!-- _GH__KCHASON__CASE_VALIDATION_ACTION&#45;&gt;_GH__CASEWORK__CASE_IMPLEMENTATON_PYPI_EXIFREAD -->
<g id="edge17" class="edge">
<title>_GH__KCHASON__CASE_VALIDATION_ACTION&#45;&gt;_GH__CASEWORK__CASE_IMPLEMENTATON_PYPI_EXIFREAD</title>
<path fill="none" stroke="black" d="M802.28,-577.02C816.01,-573.4 829.23,-567.23 839,-557 871.39,-523.07 838.25,-496 857,-453 906.92,-338.5 1009,-228 1058.63,-178.35"/>
<polygon fill="black" stroke="black" points="1060.99,-180.94 1065.63,-171.41 1056.06,-175.97 1060.99,-180.94"/>
<text text-anchor="middle" x="896.5" y="-471.8" font-family="Times,serif" font-size="14.00">GitHub</text>
<text text-anchor="middle" x="896.5" y="-456.8" font-family="Times,serif" font-size="14.00">Action</text>
</g>
<!-- _GH__KCHASON__CASE_VALIDATION_ACTION&#45;&gt;_GH__CASEWORK__CASE_IMPLEMENTATON_PYPI_PILLOW -->
<g id="edge18" class="edge">
<title>_GH__KCHASON__CASE_VALIDATION_ACTION&#45;&gt;_GH__CASEWORK__CASE_IMPLEMENTATON_PYPI_PILLOW</title>
<path fill="none" stroke="black" d="M802.45,-586.32C849.8,-590.76 914.33,-596.81 969.98,-602.03"/>
<polygon fill="black" stroke="black" points="969.55,-605.5 979.83,-602.95 970.2,-598.54 969.55,-605.5"/>
<text text-anchor="middle" x="896.5" y="-616.8" font-family="Times,serif" font-size="14.00">GitHub</text>
<text text-anchor="middle" x="896.5" y="-601.8" font-family="Times,serif" font-size="14.00">Action</text>
</g>
<!-- _GH__KCHASON__CASE_VALIDATION_ACTION&#45;&gt;_GH__CASEWORK__CASE_IMPLEMENTATON_UFED_XML -->
<g id="edge19" class="edge">
<title>_GH__KCHASON__CASE_VALIDATION_ACTION&#45;&gt;_GH__CASEWORK__CASE_IMPLEMENTATON_UFED_XML</title>
<path fill="none" stroke="black" d="M773.94,-599.48C797.47,-610.52 828.35,-623.73 857,-632 892.39,-642.22 931.71,-649.85 967.68,-655.45"/>
<polygon fill="black" stroke="black" points="966.83,-658.86 977.24,-656.89 967.87,-651.93 966.83,-658.86"/>
<text text-anchor="middle" x="896.5" y="-667.8" font-family="Times,serif" font-size="14.00">GitHub</text>
<text text-anchor="middle" x="896.5" y="-652.8" font-family="Times,serif" font-size="14.00">Action</text>
</g>
<!-- _GH__KCHASON__CASE_VALIDATION_ACTION&#45;&gt;_GH__CASEWORK__CASE_IMPLEMENTATON_XRY -->
<g id="edge20" class="edge">
<title>_GH__KCHASON__CASE_VALIDATION_ACTION&#45;&gt;_GH__CASEWORK__CASE_IMPLEMENTATON_XRY</title>
<path fill="none" stroke="black" d="M802.25,-574.82C815.5,-571.26 828.53,-565.67 839,-557 854.64,-544.04 840.39,-526.69 857,-515 889.16,-492.37 930.53,-485.05 969.3,-484.62"/>
<polygon fill="black" stroke="black" points="969.16,-488.12 979.18,-484.68 969.2,-481.12 969.16,-488.12"/>
<text text-anchor="middle" x="896.5" y="-533.8" font-family="Times,serif" font-size="14.00">GitHub</text>
<text text-anchor="middle" x="896.5" y="-518.8" font-family="Times,serif" font-size="14.00">Action</text>
</g>
<!-- _GH__KCHASON__CASE_VALIDATION_ACTION&#45;&gt;_GH__CASEWORK__CASE_MAPPING_TEMPLATE_PYTHON -->
<g id="edge21" class="edge">
<title>_GH__KCHASON__CASE_VALIDATION_ACTION&#45;&gt;_GH__CASEWORK__CASE_MAPPING_TEMPLATE_PYTHON</title>
<path fill="none" stroke="black" d="M802.33,-565.03C827.29,-559.6 851.02,-554.63 857,-554 895.06,-549.99 936.86,-549.4 974.26,-550.24"/>
<polygon fill="black" stroke="black" points="974.12,-553.73 984.2,-550.5 974.3,-546.74 974.12,-553.73"/>
<text text-anchor="middle" x="896.5" y="-572.8" font-family="Times,serif" font-size="14.00">GitHub</text>
<text text-anchor="middle" x="896.5" y="-557.8" font-family="Times,serif" font-size="14.00">Action</text>
</g>
<!-- _GH__CASEWORK__CASE_BINDINGS_CSHARP_MONITOR -->
<g id="node20" class="node">
<title>_GH__CASEWORK__CASE_BINDINGS_CSHARP_MONITOR</title>
<g id="a_node20"><a xlink:href="https://github.com/casework/CASE-Bindings-CSharp-Monitor" xlink:title="CASE Bindings CSharp Monitor\ntests NuGet package with validation action">
<path fill="#8ec7d2" stroke="#0d6986" d="M1201.5,-780C1201.5,-780 974.5,-780 974.5,-780 968.5,-780 962.5,-774 962.5,-768 962.5,-768 962.5,-754 962.5,-754 962.5,-748 968.5,-742 974.5,-742 974.5,-742 1201.5,-742 1201.5,-742 1207.5,-742 1213.5,-748 1213.5,-754 1213.5,-754 1213.5,-768 1213.5,-768 1213.5,-774 1207.5,-780 1201.5,-780"/>
<text text-anchor="middle" x="1088" y="-764.8" font-family="Times,serif" font-size="14.00">CASE Bindings CSharp Monitor</text>
<text text-anchor="middle" x="1088" y="-749.8" font-family="Times,serif" font-size="14.00">tests NuGet package with validation action</text>
</a>
</g>
</g>
<!-- _GH__KCHASON__CASE_VALIDATION_ACTION&#45;&gt;_GH__CASEWORK__CASE_BINDINGS_CSHARP_MONITOR -->
<g id="edge16" class="edge">
<title>_GH__KCHASON__CASE_VALIDATION_ACTION&#45;&gt;_GH__CASEWORK__CASE_BINDINGS_CSHARP_MONITOR</title>
<path fill="none" stroke="black" d="M755.08,-599.28C778.42,-621.13 818.66,-657.06 857,-683 889.93,-705.29 907.01,-697.78 936,-725 940.95,-729.64 938.36,-734.23 944,-738 946.6,-739.74 949.29,-741.37 952.06,-742.89"/>
<polygon fill="black" stroke="black" points="950.46,-746 960.98,-747.26 953.54,-739.71 950.46,-746"/>
<text text-anchor="middle" x="896.5" y="-743.8" font-family="Times,serif" font-size="14.00">GitHub</text>
<text text-anchor="middle" x="896.5" y="-728.8" font-family="Times,serif" font-size="14.00">Action</text>
</g>
<!-- _GH__DOD_CYBER_CRIME_CENTER__SQLITE_DISSECT -->
<g id="node22" class="node">
<title>_GH__DOD_CYBER_CRIME_CENTER__SQLITE_DISSECT</title>
<g id="a_node22"><a xlink:href="https://github.com/dod-cyber-crime-center/sqlite-dissect" xlink:title="sqlite&#45;dissect\nadopts new case&#45;validation&#45;action">
<path fill="#8ec7d2" stroke="#0d6986" d="M1176.5,-92C1176.5,-92 999.5,-92 999.5,-92 993.5,-92 987.5,-86 987.5,-80 987.5,-80 987.5,-66 987.5,-66 987.5,-60 993.5,-54 999.5,-54 999.5,-54 1176.5,-54 1176.5,-54 1182.5,-54 1188.5,-60 1188.5,-66 1188.5,-66 1188.5,-80 1188.5,-80 1188.5,-86 1182.5,-92 1176.5,-92"/>
<text text-anchor="middle" x="1088" y="-76.8" font-family="Times,serif" font-size="14.00">sqlite&#45;dissect</text>
<text text-anchor="middle" x="1088" y="-61.8" font-family="Times,serif" font-size="14.00">adopts new case&#45;validation&#45;action</text>
</a>
</g>
</g>
<!-- _GH__KCHASON__CASE_VALIDATION_ACTION&#45;&gt;_GH__DOD_CYBER_CRIME_CENTER__SQLITE_DISSECT -->
<g id="edge22" class="edge">
<title>_GH__KCHASON__CASE_VALIDATION_ACTION&#45;&gt;_GH__DOD_CYBER_CRIME_CENTER__SQLITE_DISSECT</title>
<g id="a_edge22"><a xlink:href="https://github.com/dod-cyber-crime-center/sqlite-dissect/pull/31" xlink:title="TODO: PR 31">
<path fill="none" stroke="black" d="M802.24,-577.93C816.23,-574.31 829.57,-567.91 839,-557 857.14,-536.01 850.06,-334.86 857,-308 880.03,-218.86 875.24,-181.22 944,-120 954.73,-110.44 967.45,-102.83 980.81,-96.75"/>
<polygon fill="black" stroke="black" points="981.87,-100.1 989.73,-92.99 979.15,-93.65 981.87,-100.1"/>
</a>
</g>
<g id="a_edge22&#45;label"><a xlink:href="https://github.com/dod-cyber-crime-center/sqlite-dissect/pull/31" xlink:title="TODO: PR 31">
<text text-anchor="middle" x="896.5" y="-311.8" font-family="Times,serif" font-size="14.00">TODO: PR 31</text>
</a>
</g>
</g>
<!-- _GH__CIPHERTECHSOLUTIONS__CASE_BINDINGS_CSHARP&#45;&gt;_GH__CASEWORK__CASE_BINDINGS_CSHARP_MONITOR -->
<g id="edge15" class="edge">
<title>_GH__CIPHERTECHSOLUTIONS__CASE_BINDINGS_CSHARP&#45;&gt;_GH__CASEWORK__CASE_BINDINGS_CSHARP_MONITOR</title>
<path fill="none" stroke="black" d="M820.98,-760.21C833.08,-760.12 845.35,-760.05 857,-760 887.41,-759.88 920.07,-759.91 950.97,-760.03"/>
<polygon fill="black" stroke="black" points="950.73,-763.53 960.75,-760.07 950.76,-756.53 950.73,-763.53"/>
<text text-anchor="middle" x="896.5" y="-763.8" font-family="Times,serif" font-size="14.00">NuGet</text>
</g>
</g>
</svg>
