<?xml version="1.0" encoding="UTF-8" standalone="no"?>
<!DOCTYPE svg PUBLIC "-//W3C//DTD SVG 1.1//EN"
 "http://www.w3.org/Graphics/SVG/1.1/DTD/svg11.dtd">
<!-- Generated by graphviz version 6.0.2 (20221011.1828)
 -->
<!-- Title: cdo_release_flow Pages: 1 -->
<svg width="1600pt" height="1030pt"
 viewBox="0.00 0.00 1600.00 1030.00" xmlns="http://www.w3.org/2000/svg" xmlns:xlink="http://www.w3.org/1999/xlink">
<g id="graph0" class="graph" transform="scale(1 1) rotate(0) translate(4 1026)">
<title>cdo_release_flow</title>
<polygon fill="white" stroke="none" points="-4,4 -4,-1026 1596,-1026 1596,4 -4,4"/>
<text text-anchor="middle" x="796" y="-38.8" font-family="Times,serif" font-size="14.00">Release flow of CDO ontologies</text>
<text text-anchor="middle" x="796" y="-7.8" font-family="Times,serif" font-size="14.00">Nodes link to the respective Git repository.</text>
<g id="clust1" class="cluster">
<title>cluster_uco_0_9_1</title>
<polygon fill="none" stroke="black" points="189,-62 189,-149 576.5,-149 576.5,-62 189,-62"/>
<text text-anchor="middle" x="382.75" y="-133.8" font-family="Times,serif" font-size="14.00">Adoption of UCO 0.9.1</text>
</g>
<g id="clust2" class="cluster">
<title>cluster_uco_1_0_0</title>
<polygon fill="none" stroke="black" points="398,-157 398,-273 603,-273 603,-157 398,-157"/>
<text text-anchor="middle" x="500.5" y="-257.8" font-family="Times,serif" font-size="14.00">Adoption of UCO 1.0.0</text>
</g>
<g id="clust3" class="cluster">
<title>cluster_case_1_0_0</title>
<polygon fill="none" stroke="black" points="406,-165 406,-242 595,-242 595,-165 406,-165"/>
<text text-anchor="middle" x="500.5" y="-226.8" font-family="Times,serif" font-size="14.00">Adoption of CASE 1.0.0</text>
</g>
<g id="clust4" class="cluster">
<title>cluster_uco_1_1_0</title>
<polygon fill="none" stroke="black" points="8,-281 8,-1014 1584,-1014 1584,-281 8,-281"/>
<text text-anchor="middle" x="796" y="-998.8" font-family="Times,serif" font-size="14.00">Adoption of UCO 1.1.0</text>
</g>
<g id="clust5" class="cluster">
<title>cluster_case_1_1_0</title>
<polygon fill="none" stroke="black" points="201,-289 201,-983 1576,-983 1576,-289 201,-289"/>
<text text-anchor="middle" x="888.5" y="-967.8" font-family="Times,serif" font-size="14.00">Adoption of CASE 1.1.0</text>
</g>
<g id="clust6" class="cluster">
<title>cluster_case_utils_0_9_0</title>
<polygon fill="none" stroke="black" points="458.5,-297 458.5,-952 1568,-952 1568,-297 458.5,-297"/>
<text text-anchor="middle" x="1013.25" y="-936.8" font-family="Times,serif" font-size="14.00">Adoption of case&#45;utils 0.9.0</text>
</g>
<g id="clust8" class="cluster">
<title>cluster_case_validation_action_2_3</title>
<polygon fill="none" stroke="black" points="976,-844 976,-921 1210,-921 1210,-844 976,-844"/>
<text text-anchor="middle" x="1093" y="-905.8" font-family="Times,serif" font-size="14.00">Adoption of case&#45;validation&#45;action 2.3</text>
</g>
<g id="clust9" class="cluster">
<title>cluster_case_validation_action_2_5</title>
<polygon fill="none" stroke="black" points="685,-590 685,-836 1213,-836 1213,-590 685,-590"/>
<text text-anchor="middle" x="949" y="-820.8" font-family="Times,serif" font-size="14.00">Adoption of case&#45;validation&#45;action 2.5</text>
</g>
<g id="clust7" class="cluster">
<title>cluster_case_prov_0_6_0</title>
<polygon fill="none" stroke="black" points="1278,-500 1278,-577 1560,-577 1560,-500 1278,-500"/>
<text text-anchor="middle" x="1419" y="-561.8" font-family="Times,serif" font-size="14.00">Adoption of case&#45;prov 0.6.0</text>
</g>
<!-- _GH__CASEWORK__ONTOLOGY_CASEONTOLOGY_ORG -->
<g id="node1" class="node">
<title>_GH__CASEWORK__ONTOLOGY_CASEONTOLOGY_ORG</title>
<g id="a_node1"><a xlink:href="https://github.com/casework/ontology.caseontology.org" xlink:title="CASE documentation\nregenerated">
<path fill="#8ec7d2" stroke="#0d6986" d="M556.5,-113C556.5,-113 444.5,-113 444.5,-113 438.5,-113 432.5,-107 432.5,-101 432.5,-101 432.5,-87 432.5,-87 432.5,-81 438.5,-75 444.5,-75 444.5,-75 556.5,-75 556.5,-75 562.5,-75 568.5,-81 568.5,-87 568.5,-87 568.5,-101 568.5,-101 568.5,-107 562.5,-113 556.5,-113"/>
<text text-anchor="middle" x="500.5" y="-97.8" font-family="Times,serif" font-size="14.00">CASE documentation</text>
<text text-anchor="middle" x="500.5" y="-82.8" font-family="Times,serif" font-size="14.00">regenerated</text>
</a>
</g>
</g>
<!-- _GH__UCOPROJECT__ONTOLOGY_UNIFIEDCYBERONTOLOGY_ORG -->
<g id="node2" class="node">
<title>_GH__UCOPROJECT__ONTOLOGY_UNIFIEDCYBERONTOLOGY_ORG</title>
<g id="a_node2"><a xlink:href="https://github.com/ucoProject/ontology.unifiedcyberontology.org" xlink:title="UCO documentation\nregenerated">
<path fill="#8ec7d2" stroke="#0d6986" d="M315,-113C315,-113 209,-113 209,-113 203,-113 197,-107 197,-101 197,-101 197,-87 197,-87 197,-81 203,-75 209,-75 209,-75 315,-75 315,-75 321,-75 327,-81 327,-87 327,-87 327,-101 327,-101 327,-107 321,-113 315,-113"/>
<text text-anchor="middle" x="262" y="-97.8" font-family="Times,serif" font-size="14.00">UCO documentation</text>
<text text-anchor="middle" x="262" y="-82.8" font-family="Times,serif" font-size="14.00">regenerated</text>
</a>
</g>
</g>
<!-- _GH__UCOPROJECT__ONTOLOGY_UNIFIEDCYBERONTOLOGY_ORG&#45;&gt;_GH__CASEWORK__ONTOLOGY_CASEONTOLOGY_ORG -->
<g id="edge21" class="edge">
<title>_GH__UCOPROJECT__ONTOLOGY_UNIFIEDCYBERONTOLOGY_ORG&#45;&gt;_GH__CASEWORK__ONTOLOGY_CASEONTOLOGY_ORG</title>
<path fill="none" stroke="black" d="M327,-94C356.25,-94 391.16,-94 421.89,-94"/>
<polygon fill="black" stroke="black" points="422.14,-97.5 432.14,-94 422.14,-90.5 422.14,-97.5"/>
<text text-anchor="middle" x="367.5" y="-112.8" font-family="Times,serif" font-size="14.00">Tech&#45;</text>
<text text-anchor="middle" x="367.5" y="-97.8" font-family="Times,serif" font-size="14.00">check</text>
</g>
<!-- _GH__CIPHERTECHSOLUTIONS__CASE_BINDINGS_CSHARP -->
<g id="node3" class="node">
<title>_GH__CIPHERTECHSOLUTIONS__CASE_BINDINGS_CSHARP</title>
<g id="a_node3"><a xlink:href="https://github.com/ciphertechsolutions/CASE-Bindings-CSharp" xlink:title="CASE&#45;Bindings&#45;CSharp\nadopts new ontology version">
<path fill="#8ec7d2" stroke="#0d6986" d="M575,-211C575,-211 426,-211 426,-211 420,-211 414,-205 414,-199 414,-199 414,-185 414,-185 414,-179 420,-173 426,-173 426,-173 575,-173 575,-173 581,-173 587,-179 587,-185 587,-185 587,-199 587,-199 587,-205 581,-211 575,-211"/>
<text text-anchor="middle" x="500.5" y="-195.8" font-family="Times,serif" font-size="14.00">CASE&#45;Bindings&#45;CSharp</text>
<text text-anchor="middle" x="500.5" y="-180.8" font-family="Times,serif" font-size="14.00">adopts new ontology version</text>
</a>
</g>
</g>
<!-- _GH__UCOPROJECT__UCO -->
<g id="node4" class="node">
<title>_GH__UCOPROJECT__UCO</title>
<g id="a_node4"><a xlink:href="https://github.com/ucoProject/UCO" xlink:title="UCO Ontology\nreleases">
<path fill="#8ec7d2" stroke="#0d6986" d="M104,-331C104,-331 28,-331 28,-331 22,-331 16,-325 16,-319 16,-319 16,-305 16,-305 16,-299 22,-293 28,-293 28,-293 104,-293 104,-293 110,-293 116,-299 116,-305 116,-305 116,-319 116,-319 116,-325 110,-331 104,-331"/>
<text text-anchor="middle" x="66" y="-315.8" font-family="Times,serif" font-size="14.00">UCO Ontology</text>
<text text-anchor="middle" x="66" y="-300.8" font-family="Times,serif" font-size="14.00">releases</text>
</a>
</g>
</g>
<!-- _GH__UCOPROJECT__UCO&#45;&gt;_GH__UCOPROJECT__ONTOLOGY_UNIFIEDCYBERONTOLOGY_ORG -->
<g id="edge23" class="edge">
<title>_GH__UCOPROJECT__UCO&#45;&gt;_GH__UCOPROJECT__ONTOLOGY_UNIFIEDCYBERONTOLOGY_ORG</title>
<path fill="none" stroke="black" d="M84.22,-292.65C118.95,-253.63 197.46,-165.4 237.12,-120.84"/>
<polygon fill="black" stroke="black" points="239.79,-123.1 243.82,-113.3 234.56,-118.45 239.79,-123.1"/>
<text text-anchor="middle" x="156.5" y="-253.8" font-family="Times,serif" font-size="14.00">Git sub&#45;</text>
<text text-anchor="middle" x="156.5" y="-238.8" font-family="Times,serif" font-size="14.00">module</text>
</g>
<!-- _GH__CASEWORK__CASE -->
<g id="node5" class="node">
<title>_GH__CASEWORK__CASE</title>
<g id="a_node5"><a xlink:href="https://github.com/casework/CASE" xlink:title="CASE Ontology\nreleases">
<path fill="#8ec7d2" stroke="#0d6986" d="M303,-335C303,-335 221,-335 221,-335 215,-335 209,-329 209,-323 209,-323 209,-309 209,-309 209,-303 215,-297 221,-297 221,-297 303,-297 303,-297 309,-297 315,-303 315,-309 315,-309 315,-323 315,-323 315,-329 309,-335 303,-335"/>
<text text-anchor="middle" x="262" y="-319.8" font-family="Times,serif" font-size="14.00">CASE Ontology</text>
<text text-anchor="middle" x="262" y="-304.8" font-family="Times,serif" font-size="14.00">releases</text>
</a>
</g>
</g>
<!-- _GH__UCOPROJECT__UCO&#45;&gt;_GH__CASEWORK__CASE -->
<g id="edge22" class="edge">
<title>_GH__UCOPROJECT__UCO&#45;&gt;_GH__CASEWORK__CASE</title>
<path fill="none" stroke="black" d="M116.21,-313.01C141.29,-313.53 172.06,-314.17 198.77,-314.72"/>
<polygon fill="black" stroke="black" points="198.72,-318.22 208.79,-314.92 198.86,-311.22 198.72,-318.22"/>
<text text-anchor="middle" x="156.5" y="-332.8" font-family="Times,serif" font-size="14.00">Git sub&#45;</text>
<text text-anchor="middle" x="156.5" y="-317.8" font-family="Times,serif" font-size="14.00">module</text>
</g>
<!-- _GH__CASEWORK__CASE&#45;&gt;_GH__CASEWORK__ONTOLOGY_CASEONTOLOGY_ORG -->
<g id="edge4" class="edge">
<title>_GH__CASEWORK__CASE&#45;&gt;_GH__CASEWORK__ONTOLOGY_CASEONTOLOGY_ORG</title>
<path fill="none" stroke="black" d="M276.5,-296.84C299.08,-265.7 347.1,-203.32 398,-161 416.64,-145.5 438.98,-130.43 457.95,-118.51"/>
<polygon fill="black" stroke="black" points="460.02,-121.35 466.68,-113.1 456.33,-115.4 460.02,-121.35"/>
<text text-anchor="middle" x="367.5" y="-229.8" font-family="Times,serif" font-size="14.00">Git sub&#45;</text>
<text text-anchor="middle" x="367.5" y="-214.8" font-family="Times,serif" font-size="14.00">module</text>
</g>
<!-- _GH__CASEWORK__CASE&#45;&gt;_GH__CIPHERTECHSOLUTIONS__CASE_BINDINGS_CSHARP -->
<g id="edge3" class="edge">
<title>_GH__CASEWORK__CASE&#45;&gt;_GH__CIPHERTECHSOLUTIONS__CASE_BINDINGS_CSHARP</title>
<path fill="none" stroke="black" d="M299.43,-296.9C341.01,-275.1 409.06,-239.42 454.07,-215.82"/>
<polygon fill="black" stroke="black" points="455.79,-218.87 463.02,-211.12 452.54,-212.67 455.79,-218.87"/>
</g>
<!-- _GH__CASEWORK__CASE_UTILITIES_PYTHON -->
<g id="node10" class="node">
<title>_GH__CASEWORK__CASE_UTILITIES_PYTHON</title>
<g id="a_node10"><a xlink:href="https://github.com/casework/CASE-Utilities-Python" xlink:title="case&#45;utils\nreleases">
<path fill="#8ec7d2" stroke="#0d6986" d="M522.5,-475C522.5,-475 478.5,-475 478.5,-475 472.5,-475 466.5,-469 466.5,-463 466.5,-463 466.5,-449 466.5,-449 466.5,-443 472.5,-437 478.5,-437 478.5,-437 522.5,-437 522.5,-437 528.5,-437 534.5,-443 534.5,-449 534.5,-449 534.5,-463 534.5,-463 534.5,-469 528.5,-475 522.5,-475"/>
<text text-anchor="middle" x="500.5" y="-459.8" font-family="Times,serif" font-size="14.00">case&#45;utils</text>
<text text-anchor="middle" x="500.5" y="-444.8" font-family="Times,serif" font-size="14.00">releases</text>
</a>
</g>
</g>
<!-- _GH__CASEWORK__CASE&#45;&gt;_GH__CASEWORK__CASE_UTILITIES_PYTHON -->
<g id="edge2" class="edge">
<title>_GH__CASEWORK__CASE&#45;&gt;_GH__CASEWORK__CASE_UTILITIES_PYTHON</title>
<path fill="none" stroke="black" d="M295.39,-335.17C337.73,-360.24 411.93,-404.16 458.25,-431.58"/>
<polygon fill="black" stroke="black" points="456.74,-434.75 467.12,-436.83 460.3,-428.73 456.74,-434.75"/>
<text text-anchor="middle" x="367.5" y="-408.8" font-family="Times,serif" font-size="14.00">Git sub&#45;</text>
<text text-anchor="middle" x="367.5" y="-393.8" font-family="Times,serif" font-size="14.00">module</text>
</g>
<!-- _GH__AJNELSON_NIST__CASE_EXAMPLES_QC -->
<g id="node6" class="node">
<title>_GH__AJNELSON_NIST__CASE_EXAMPLES_QC</title>
<g id="a_node6"><a xlink:href="https://github.com/ajnelson-nist/CASE-Examples-QC" xlink:title="CASE&#45;Examples&#45;QC\nadopts CASE&#45;Examples and\nCASE website updates">
<path fill="#8ec7d2" stroke="#0d6986" d="M1167,-436.5C1167,-436.5 1019,-436.5 1019,-436.5 1013,-436.5 1007,-430.5 1007,-424.5 1007,-424.5 1007,-395.5 1007,-395.5 1007,-389.5 1013,-383.5 1019,-383.5 1019,-383.5 1167,-383.5 1167,-383.5 1173,-383.5 1179,-389.5 1179,-395.5 1179,-395.5 1179,-424.5 1179,-424.5 1179,-430.5 1173,-436.5 1167,-436.5"/>
<text text-anchor="middle" x="1093" y="-421.3" font-family="Times,serif" font-size="14.00">CASE&#45;Examples&#45;QC</text>
<text text-anchor="middle" x="1093" y="-406.3" font-family="Times,serif" font-size="14.00">adopts CASE&#45;Examples and</text>
<text text-anchor="middle" x="1093" y="-391.3" font-family="Times,serif" font-size="14.00">CASE website updates</text>
</a>
</g>
</g>
<!-- _GH__CASEWORK__CASE_IMPLEMENTATON_PROV_O -->
<g id="node13" class="node">
<title>_GH__CASEWORK__CASE_IMPLEMENTATON_PROV_O</title>
<g id="a_node13"><a xlink:href="https://github.com/casework/CASE-Implementation-PROV-O" xlink:title="case&#45;prov\nreleases">
<path fill="#8ec7d2" stroke="#0d6986" d="M1343,-546C1343,-546 1298,-546 1298,-546 1292,-546 1286,-540 1286,-534 1286,-534 1286,-520 1286,-520 1286,-514 1292,-508 1298,-508 1298,-508 1343,-508 1343,-508 1349,-508 1355,-514 1355,-520 1355,-520 1355,-534 1355,-534 1355,-540 1349,-546 1343,-546"/>
<text text-anchor="middle" x="1320.5" y="-530.8" font-family="Times,serif" font-size="14.00">case&#45;prov</text>
<text text-anchor="middle" x="1320.5" y="-515.8" font-family="Times,serif" font-size="14.00">releases</text>
</a>
</g>
</g>
<!-- _GH__AJNELSON_NIST__CASE_EXAMPLES_QC&#45;&gt;_GH__CASEWORK__CASE_IMPLEMENTATON_PROV_O -->
<g id="edge1" class="edge">
<title>_GH__AJNELSON_NIST__CASE_EXAMPLES_QC&#45;&gt;_GH__CASEWORK__CASE_IMPLEMENTATON_PROV_O</title>
<path fill="none" stroke="black" d="M1145.17,-436.55C1184.82,-457.12 1239.13,-485.3 1276.54,-504.71"/>
<polygon fill="black" stroke="black" points="1275.18,-507.95 1285.67,-509.45 1278.41,-501.74 1275.18,-507.95"/>
<text text-anchor="middle" x="1245.5" y="-516.8" font-family="Times,serif" font-size="14.00">Git sub&#45;</text>
<text text-anchor="middle" x="1245.5" y="-501.8" font-family="Times,serif" font-size="14.00">module</text>
</g>
<!-- _GH__CASEWORK__CASE_EXAMPLES -->
<g id="node7" class="node">
<title>_GH__CASEWORK__CASE_EXAMPLES</title>
<g id="a_node7"><a xlink:href="https://github.com/casework/CASE-Examples" xlink:title="CASE&#45;Examples\nadopts new case&#45;utils">
<path fill="#8ec7d2" stroke="#0d6986" d="M815.5,-394C815.5,-394 706.5,-394 706.5,-394 700.5,-394 694.5,-388 694.5,-382 694.5,-382 694.5,-368 694.5,-368 694.5,-362 700.5,-356 706.5,-356 706.5,-356 815.5,-356 815.5,-356 821.5,-356 827.5,-362 827.5,-368 827.5,-368 827.5,-382 827.5,-382 827.5,-388 821.5,-394 815.5,-394"/>
<text text-anchor="middle" x="761" y="-378.8" font-family="Times,serif" font-size="14.00">CASE&#45;Examples</text>
<text text-anchor="middle" x="761" y="-363.8" font-family="Times,serif" font-size="14.00">adopts new case&#45;utils</text>
</a>
</g>
</g>
<!-- _GH__CASEWORK__CASE_EXAMPLES&#45;&gt;_GH__AJNELSON_NIST__CASE_EXAMPLES_QC -->
<g id="edge5" class="edge">
<title>_GH__CASEWORK__CASE_EXAMPLES&#45;&gt;_GH__AJNELSON_NIST__CASE_EXAMPLES_QC</title>
<path fill="none" stroke="black" d="M827.59,-381.96C875.99,-387.09 942.58,-394.15 996.82,-399.9"/>
<polygon fill="black" stroke="black" points="996.48,-403.39 1006.8,-400.96 997.22,-396.43 996.48,-403.39"/>
<text text-anchor="middle" x="923.5" y="-413.8" font-family="Times,serif" font-size="14.00">Git sub&#45;</text>
<text text-anchor="middle" x="923.5" y="-398.8" font-family="Times,serif" font-size="14.00">module</text>
</g>
<!-- _GH__CASEWORK__CASE_IMPLEMENTATON_EXIFTOOL -->
<g id="node8" class="node">
<title>_GH__CASEWORK__CASE_IMPLEMENTATON_EXIFTOOL</title>
<g id="a_node8"><a xlink:href="https://github.com/casework/CASE-Implementation-ExifTool" xlink:title="CASE&#45;Implementation&#45;ExifTool\nadopts new case&#45;utils">
<path fill="#8ec7d2" stroke="#0d6986" d="M846.5,-450C846.5,-450 675.5,-450 675.5,-450 669.5,-450 663.5,-444 663.5,-438 663.5,-438 663.5,-424 663.5,-424 663.5,-418 669.5,-412 675.5,-412 675.5,-412 846.5,-412 846.5,-412 852.5,-412 858.5,-418 858.5,-424 858.5,-424 858.5,-438 858.5,-438 858.5,-444 852.5,-450 846.5,-450"/>
<text text-anchor="middle" x="761" y="-434.8" font-family="Times,serif" font-size="14.00">CASE&#45;Implementation&#45;ExifTool</text>
<text text-anchor="middle" x="761" y="-419.8" font-family="Times,serif" font-size="14.00">adopts new case&#45;utils</text>
</a>
</g>
</g>
<!-- _GH__CASEWORK__CASE_IMPLEMENTATON_GNU_TIME -->
<g id="node9" class="node">
<title>_GH__CASEWORK__CASE_IMPLEMENTATON_GNU_TIME</title>
<g id="a_node9"><a xlink:href="https://github.com/casework/CASE-Implementation-GNU-Time" xlink:title="CASE&#45;Implementation&#45;GNU&#45;Time\nadopts new case&#45;utils">
<path fill="#8ec7d2" stroke="#0d6986" d="M854,-506C854,-506 668,-506 668,-506 662,-506 656,-500 656,-494 656,-494 656,-480 656,-480 656,-474 662,-468 668,-468 668,-468 854,-468 854,-468 860,-468 866,-474 866,-480 866,-480 866,-494 866,-494 866,-500 860,-506 854,-506"/>
<text text-anchor="middle" x="761" y="-490.8" font-family="Times,serif" font-size="14.00">CASE&#45;Implementation&#45;GNU&#45;Time</text>
<text text-anchor="middle" x="761" y="-475.8" font-family="Times,serif" font-size="14.00">adopts new case&#45;utils</text>
</a>
</g>
</g>
<!-- _GH__CASEWORK__CASE_UTILITIES_PYTHON&#45;&gt;_GH__AJNELSON_NIST__CASE_EXAMPLES_QC -->
<g id="edge7" class="edge">
<title>_GH__CASEWORK__CASE_UTILITIES_PYTHON&#45;&gt;_GH__AJNELSON_NIST__CASE_EXAMPLES_QC</title>
<path fill="none" stroke="black" d="M517.54,-436.6C543.19,-407.27 596.62,-352.88 656,-332 784.13,-286.94 943,-341.19 1029.2,-379.16"/>
<polygon fill="black" stroke="black" points="1028.03,-382.47 1038.59,-383.36 1030.89,-376.08 1028.03,-382.47"/>
<text text-anchor="middle" x="761" y="-335.8" font-family="Times,serif" font-size="14.00">PyPI</text>
</g>
<!-- _GH__CASEWORK__CASE_UTILITIES_PYTHON&#45;&gt;_GH__CASEWORK__CASE_EXAMPLES -->
<g id="edge8" class="edge">
<title>_GH__CASEWORK__CASE_UTILITIES_PYTHON&#45;&gt;_GH__CASEWORK__CASE_EXAMPLES</title>
<path fill="none" stroke="black" d="M534.74,-443.87C565.89,-432.68 613.83,-415.89 656,-403 665.25,-400.17 675.02,-397.34 684.7,-394.63"/>
<polygon fill="black" stroke="black" points="685.64,-398 694.34,-391.96 683.77,-391.25 685.64,-398"/>
<text text-anchor="middle" x="624.5" y="-419.8" font-family="Times,serif" font-size="14.00">PyPI</text>
</g>
<!-- _GH__CASEWORK__CASE_UTILITIES_PYTHON&#45;&gt;_GH__CASEWORK__CASE_IMPLEMENTATON_EXIFTOOL -->
<g id="edge9" class="edge">
<title>_GH__CASEWORK__CASE_UTILITIES_PYTHON&#45;&gt;_GH__CASEWORK__CASE_IMPLEMENTATON_EXIFTOOL</title>
<path fill="none" stroke="black" d="M534.98,-450.8C556.62,-447.59 585.42,-443.61 611,-441 624.59,-439.61 638.91,-438.38 653.07,-437.28"/>
<polygon fill="black" stroke="black" points="653.63,-440.75 663.34,-436.51 653.1,-433.77 653.63,-440.75"/>
<text text-anchor="middle" x="624.5" y="-444.8" font-family="Times,serif" font-size="14.00">PyPI</text>
</g>
<!-- _GH__CASEWORK__CASE_UTILITIES_PYTHON&#45;&gt;_GH__CASEWORK__CASE_IMPLEMENTATON_GNU_TIME -->
<g id="edge10" class="edge">
<title>_GH__CASEWORK__CASE_UTILITIES_PYTHON&#45;&gt;_GH__CASEWORK__CASE_IMPLEMENTATON_GNU_TIME</title>
<path fill="none" stroke="black" d="M534.5,-459.96C562.79,-463.35 605.28,-468.45 645.77,-473.3"/>
<polygon fill="black" stroke="black" points="645.39,-476.78 655.74,-474.5 646.23,-469.83 645.39,-476.78"/>
<text text-anchor="middle" x="624.5" y="-474.8" font-family="Times,serif" font-size="14.00">PyPI</text>
</g>
<!-- _GH__CASEWORK__CASEWORK_GITHUB_IO -->
<g id="node11" class="node">
<title>_GH__CASEWORK__CASEWORK_GITHUB_IO</title>
<g id="a_node11"><a xlink:href="https://github.com/casework/casework.github.io" xlink:title="CASE website\nadopts new case&#45;utils">
<path fill="#8ec7d2" stroke="#0d6986" d="M815.5,-562C815.5,-562 706.5,-562 706.5,-562 700.5,-562 694.5,-556 694.5,-550 694.5,-550 694.5,-536 694.5,-536 694.5,-530 700.5,-524 706.5,-524 706.5,-524 815.5,-524 815.5,-524 821.5,-524 827.5,-530 827.5,-536 827.5,-536 827.5,-550 827.5,-550 827.5,-556 821.5,-562 815.5,-562"/>
<text text-anchor="middle" x="761" y="-546.8" font-family="Times,serif" font-size="14.00">CASE website</text>
<text text-anchor="middle" x="761" y="-531.8" font-family="Times,serif" font-size="14.00">adopts new case&#45;utils</text>
</a>
</g>
</g>
<!-- _GH__CASEWORK__CASE_UTILITIES_PYTHON&#45;&gt;_GH__CASEWORK__CASEWORK_GITHUB_IO -->
<g id="edge13" class="edge">
<title>_GH__CASEWORK__CASE_UTILITIES_PYTHON&#45;&gt;_GH__CASEWORK__CASEWORK_GITHUB_IO</title>
<path fill="none" stroke="black" d="M534.6,-469.77C565.65,-482.41 613.53,-501.21 656,-515 665.2,-517.99 674.94,-520.91 684.61,-523.68"/>
<polygon fill="black" stroke="black" points="683.66,-527.05 694.24,-526.38 685.56,-520.31 683.66,-527.05"/>
<text text-anchor="middle" x="624.5" y="-510.8" font-family="Times,serif" font-size="14.00">PyPI</text>
</g>
<!-- _GH__CASEWORK__CASE_UTILITIES_PYTHON&#45;&gt;_GH__CASEWORK__CASE_IMPLEMENTATON_PROV_O -->
<g id="edge11" class="edge">
<title>_GH__CASEWORK__CASE_UTILITIES_PYTHON&#45;&gt;_GH__CASEWORK__CASE_IMPLEMENTATON_PROV_O</title>
<path fill="none" stroke="black" d="M519.16,-475.38C545.69,-502.91 598.87,-552.07 656,-571 744.6,-600.35 772.78,-575.51 866,-571 1045.3,-562.32 1089.33,-549.34 1268,-532 1270.54,-531.75 1273.16,-531.5 1275.79,-531.24"/>
<polygon fill="black" stroke="black" points="1276.36,-534.7 1285.98,-530.25 1275.69,-527.74 1276.36,-534.7"/>
<text text-anchor="middle" x="923.5" y="-572.8" font-family="Times,serif" font-size="14.00">PyPI</text>
</g>
<!-- _GH__KCHASON__CASE_VALIDATION_ACTION -->
<g id="node19" class="node">
<title>_GH__KCHASON__CASE_VALIDATION_ACTION</title>
<g id="a_node19"><a xlink:href="https://github.com/kchason/case-validation-action" xlink:title="case&#45;validation&#45;action\nreleases">
<path fill="#8ec7d2" stroke="#0d6986" d="M817,-688C817,-688 705,-688 705,-688 699,-688 693,-682 693,-676 693,-676 693,-662 693,-662 693,-656 699,-650 705,-650 705,-650 817,-650 817,-650 823,-650 829,-656 829,-662 829,-662 829,-676 829,-676 829,-682 823,-688 817,-688"/>
<text text-anchor="middle" x="761" y="-672.8" font-family="Times,serif" font-size="14.00">case&#45;validation&#45;action</text>
<text text-anchor="middle" x="761" y="-657.8" font-family="Times,serif" font-size="14.00">releases</text>
</a>
</g>
</g>
<!-- _GH__CASEWORK__CASE_UTILITIES_PYTHON&#45;&gt;_GH__KCHASON__CASE_VALIDATION_ACTION -->
<g id="edge12" class="edge">
<title>_GH__CASEWORK__CASE_UTILITIES_PYTHON&#45;&gt;_GH__KCHASON__CASE_VALIDATION_ACTION</title>
<path fill="none" stroke="black" d="M511.3,-475.21C532.19,-514.11 585.08,-602.24 656,-646 664.32,-651.13 673.64,-655.13 683.19,-658.24"/>
<polygon fill="black" stroke="black" points="682.21,-661.6 692.79,-661.06 684.19,-654.88 682.21,-661.6"/>
<text text-anchor="middle" x="624.5" y="-633.8" font-family="Times,serif" font-size="14.00">PyPI</text>
</g>
<!-- _GH__CASEWORK__CASEWORK_GITHUB_IO&#45;&gt;_GH__AJNELSON_NIST__CASE_EXAMPLES_QC -->
<g id="edge14" class="edge">
<title>_GH__CASEWORK__CASEWORK_GITHUB_IO&#45;&gt;_GH__AJNELSON_NIST__CASE_EXAMPLES_QC</title>
<path fill="none" stroke="black" d="M827.72,-527.15C840.54,-523.54 853.79,-519.44 866,-515 924,-493.89 987.55,-463.7 1032.45,-441.11"/>
<polygon fill="black" stroke="black" points="1034.11,-444.19 1041.45,-436.55 1030.95,-437.94 1034.11,-444.19"/>
<text text-anchor="middle" x="923.5" y="-525.8" font-family="Times,serif" font-size="14.00">Git sub&#45;</text>
<text text-anchor="middle" x="923.5" y="-510.8" font-family="Times,serif" font-size="14.00">module</text>
</g>
<!-- _GH__CASEWORK__CASE_CORPORA -->
<g id="node12" class="node">
<title>_GH__CASEWORK__CASE_CORPORA</title>
<g id="a_node12"><a xlink:href="https://github.com/casework/CASE-Corpora" xlink:title="CASE&#45;Corpora\nadopts new case&#45;prov">
<path fill="#8ec7d2" stroke="#0d6986" d="M1540,-546C1540,-546 1430,-546 1430,-546 1424,-546 1418,-540 1418,-534 1418,-534 1418,-520 1418,-520 1418,-514 1424,-508 1430,-508 1430,-508 1540,-508 1540,-508 1546,-508 1552,-514 1552,-520 1552,-520 1552,-534 1552,-534 1552,-540 1546,-546 1540,-546"/>
<text text-anchor="middle" x="1485" y="-530.8" font-family="Times,serif" font-size="14.00">CASE&#45;Corpora</text>
<text text-anchor="middle" x="1485" y="-515.8" font-family="Times,serif" font-size="14.00">adopts new case&#45;prov</text>
</a>
</g>
</g>
<!-- _GH__CASEWORK__CASE_IMPLEMENTATON_PROV_O&#45;&gt;_GH__CASEWORK__CASE_CORPORA -->
<g id="edge6" class="edge">
<title>_GH__CASEWORK__CASE_IMPLEMENTATON_PROV_O&#45;&gt;_GH__CASEWORK__CASE_CORPORA</title>
<path fill="none" stroke="black" d="M1355.17,-527C1370.47,-527 1389.23,-527 1407.66,-527"/>
<polygon fill="black" stroke="black" points="1407.84,-530.5 1417.84,-527 1407.84,-523.5 1407.84,-530.5"/>
<text text-anchor="middle" x="1386.5" y="-530.8" font-family="Times,serif" font-size="14.00">PyPI</text>
</g>
<!-- _GH__CASEWORK__CASE_IMPLEMENTATON_UFED_XML -->
<g id="node14" class="node">
<title>_GH__CASEWORK__CASE_IMPLEMENTATON_UFED_XML</title>
<g id="a_node14"><a xlink:href="https://github.com/casework/CASE-Implementation-UFED-XML" xlink:title="CASE&#45;Implementation&#45;UFED&#45;XML\nadopts new case&#45;validation&#45;action">
<path fill="#8ec7d2" stroke="#0d6986" d="M1190,-890C1190,-890 996,-890 996,-890 990,-890 984,-884 984,-878 984,-878 984,-864 984,-864 984,-858 990,-852 996,-852 996,-852 1190,-852 1190,-852 1196,-852 1202,-858 1202,-864 1202,-864 1202,-878 1202,-878 1202,-884 1196,-890 1190,-890"/>
<text text-anchor="middle" x="1093" y="-874.8" font-family="Times,serif" font-size="14.00">CASE&#45;Implementation&#45;UFED&#45;XML</text>
<text text-anchor="middle" x="1093" y="-859.8" font-family="Times,serif" font-size="14.00">adopts new case&#45;validation&#45;action</text>
</a>
</g>
</g>
<!-- _GH__CASEWORK__CASE_IMPLEMENTATON_PYPI_EXIFREAD -->
<g id="node15" class="node">
<title>_GH__CASEWORK__CASE_IMPLEMENTATON_PYPI_EXIFREAD</title>
<g id="a_node15"><a xlink:href="https://github.com/casework/CASE-Implementation-PyPI-Exifread" xlink:title="CASE&#45;Implementation&#45;PyPI&#45;Exifread\nadopts new case&#45;validation&#45;action">
<path fill="#8ec7d2" stroke="#0d6986" d="M1193,-636C1193,-636 993,-636 993,-636 987,-636 981,-630 981,-624 981,-624 981,-610 981,-610 981,-604 987,-598 993,-598 993,-598 1193,-598 1193,-598 1199,-598 1205,-604 1205,-610 1205,-610 1205,-624 1205,-624 1205,-630 1199,-636 1193,-636"/>
<text text-anchor="middle" x="1093" y="-620.8" font-family="Times,serif" font-size="14.00">CASE&#45;Implementation&#45;PyPI&#45;Exifread</text>
<text text-anchor="middle" x="1093" y="-605.8" font-family="Times,serif" font-size="14.00">adopts new case&#45;validation&#45;action</text>
</a>
</g>
</g>
<!-- _GH__CASEWORK__CASE_IMPLEMENTATON_PYPI_PILLOW -->
<g id="node16" class="node">
<title>_GH__CASEWORK__CASE_IMPLEMENTATON_PYPI_PILLOW</title>
<g id="a_node16"><a xlink:href="https://github.com/casework/CASE-Implementation-PyPI-Pillow" xlink:title="CASE&#45;Implementation&#45;PyPI&#45;Pillow\nadopts new case&#45;validation&#45;action">
<path fill="#8ec7d2" stroke="#0d6986" d="M1187.5,-692C1187.5,-692 998.5,-692 998.5,-692 992.5,-692 986.5,-686 986.5,-680 986.5,-680 986.5,-666 986.5,-666 986.5,-660 992.5,-654 998.5,-654 998.5,-654 1187.5,-654 1187.5,-654 1193.5,-654 1199.5,-660 1199.5,-666 1199.5,-666 1199.5,-680 1199.5,-680 1199.5,-686 1193.5,-692 1187.5,-692"/>
<text text-anchor="middle" x="1093" y="-676.8" font-family="Times,serif" font-size="14.00">CASE&#45;Implementation&#45;PyPI&#45;Pillow</text>
<text text-anchor="middle" x="1093" y="-661.8" font-family="Times,serif" font-size="14.00">adopts new case&#45;validation&#45;action</text>
</a>
</g>
</g>
<!-- _GH__CASEWORK__CASE_IMPLEMENTATON_XRY -->
<g id="node17" class="node">
<title>_GH__CASEWORK__CASE_IMPLEMENTATON_XRY</title>
<g id="a_node17"><a xlink:href="https://github.com/casework/CASE-Implementation-XRY" xlink:title="CASE&#45;Implementation&#45;XRY adopts\nnew case&#45;validation&#45;action">
<path fill="#8ec7d2" stroke="#0d6986" d="M1188,-748C1188,-748 998,-748 998,-748 992,-748 986,-742 986,-736 986,-736 986,-722 986,-722 986,-716 992,-710 998,-710 998,-710 1188,-710 1188,-710 1194,-710 1200,-716 1200,-722 1200,-722 1200,-736 1200,-736 1200,-742 1194,-748 1188,-748"/>
<text text-anchor="middle" x="1093" y="-732.8" font-family="Times,serif" font-size="14.00">CASE&#45;Implementation&#45;XRY adopts</text>
<text text-anchor="middle" x="1093" y="-717.8" font-family="Times,serif" font-size="14.00">new case&#45;validation&#45;action</text>
</a>
</g>
</g>
<!-- _GH__CASEWORK__CASE_MAPPING_TEMPLATE_PYTHON -->
<g id="node18" class="node">
<title>_GH__CASEWORK__CASE_MAPPING_TEMPLATE_PYTHON</title>
<g id="a_node18"><a xlink:href="https://github.com/casework/CASE-Mapping-Template-Python" xlink:title="CASE&#45;Mapping&#45;Template&#45;Python\nadopts new case&#45;validation&#45;action">
<path fill="#8ec7d2" stroke="#0d6986" d="M1182.5,-804C1182.5,-804 1003.5,-804 1003.5,-804 997.5,-804 991.5,-798 991.5,-792 991.5,-792 991.5,-778 991.5,-778 991.5,-772 997.5,-766 1003.5,-766 1003.5,-766 1182.5,-766 1182.5,-766 1188.5,-766 1194.5,-772 1194.5,-778 1194.5,-778 1194.5,-792 1194.5,-792 1194.5,-798 1188.5,-804 1182.5,-804"/>
<text text-anchor="middle" x="1093" y="-788.8" font-family="Times,serif" font-size="14.00">CASE&#45;Mapping&#45;Template&#45;Python</text>
<text text-anchor="middle" x="1093" y="-773.8" font-family="Times,serif" font-size="14.00">adopts new case&#45;validation&#45;action</text>
</a>
</g>
</g>
<!-- _GH__KCHASON__CASE_VALIDATION_ACTION&#45;&gt;_GH__CASEWORK__CASE_IMPLEMENTATON_UFED_XML -->
<g id="edge17" class="edge">
<title>_GH__KCHASON__CASE_VALIDATION_ACTION&#45;&gt;_GH__CASEWORK__CASE_IMPLEMENTATON_UFED_XML</title>
<path fill="none" stroke="black" d="M775.31,-688.19C795.78,-716.47 837.52,-769.51 884,-802 914.64,-823.42 952.4,-838.56 987.31,-849.09"/>
<polygon fill="black" stroke="black" points="986.49,-852.5 997.07,-851.94 988.45,-845.78 986.49,-852.5"/>
<text text-anchor="middle" x="923.5" y="-857.8" font-family="Times,serif" font-size="14.00">GitHub</text>
<text text-anchor="middle" x="923.5" y="-842.8" font-family="Times,serif" font-size="14.00">Action</text>
</g>
<!-- _GH__KCHASON__CASE_VALIDATION_ACTION&#45;&gt;_GH__CASEWORK__CASE_IMPLEMENTATON_PYPI_EXIFREAD -->
<g id="edge15" class="edge">
<title>_GH__KCHASON__CASE_VALIDATION_ACTION&#45;&gt;_GH__CASEWORK__CASE_IMPLEMENTATON_PYPI_EXIFREAD</title>
<path fill="none" stroke="black" d="M829.01,-657.61C841.53,-654.53 854.34,-650.7 866,-646 874.7,-642.5 875.09,-637.93 884,-635 911.34,-626.02 941.72,-620.88 970.64,-618.06"/>
<polygon fill="black" stroke="black" points="971.15,-621.52 980.8,-617.15 970.53,-614.55 971.15,-621.52"/>
<text text-anchor="middle" x="923.5" y="-653.8" font-family="Times,serif" font-size="14.00">GitHub</text>
<text text-anchor="middle" x="923.5" y="-638.8" font-family="Times,serif" font-size="14.00">Action</text>
</g>
<!-- _GH__KCHASON__CASE_VALIDATION_ACTION&#45;&gt;_GH__CASEWORK__CASE_IMPLEMENTATON_PYPI_PILLOW -->
<g id="edge16" class="edge">
<title>_GH__KCHASON__CASE_VALIDATION_ACTION&#45;&gt;_GH__CASEWORK__CASE_IMPLEMENTATON_PYPI_PILLOW</title>
<path fill="none" stroke="black" d="M829,-669.03C868.09,-669.12 918.34,-669.37 963,-670 967.28,-670.06 971.65,-670.13 976.06,-670.2"/>
<polygon fill="black" stroke="black" points="976.34,-673.71 986.4,-670.39 976.47,-666.71 976.34,-673.71"/>
<text text-anchor="middle" x="923.5" y="-688.8" font-family="Times,serif" font-size="14.00">GitHub</text>
<text text-anchor="middle" x="923.5" y="-673.8" font-family="Times,serif" font-size="14.00">Action</text>
</g>
<!-- _GH__KCHASON__CASE_VALIDATION_ACTION&#45;&gt;_GH__CASEWORK__CASE_IMPLEMENTATON_XRY -->
<g id="edge18" class="edge">
<title>_GH__KCHASON__CASE_VALIDATION_ACTION&#45;&gt;_GH__CASEWORK__CASE_IMPLEMENTATON_XRY</title>
<path fill="none" stroke="black" d="M829.14,-687.47C846.89,-691.97 866.09,-696.49 884,-700 913.57,-705.8 945.73,-710.88 975.73,-715.1"/>
<polygon fill="black" stroke="black" points="975.42,-718.59 985.81,-716.49 976.38,-711.65 975.42,-718.59"/>
<text text-anchor="middle" x="923.5" y="-730.8" font-family="Times,serif" font-size="14.00">GitHub</text>
<text text-anchor="middle" x="923.5" y="-715.8" font-family="Times,serif" font-size="14.00">Action</text>
</g>
<!-- _GH__KCHASON__CASE_VALIDATION_ACTION&#45;&gt;_GH__CASEWORK__CASE_MAPPING_TEMPLATE_PYTHON -->
<g id="edge19" class="edge">
<title>_GH__KCHASON__CASE_VALIDATION_ACTION&#45;&gt;_GH__CASEWORK__CASE_MAPPING_TEMPLATE_PYTHON</title>
<path fill="none" stroke="black" d="M786.2,-688.19C809.8,-705.92 847.4,-731.63 884,-746 914.68,-758.05 949.41,-766.44 981.57,-772.26"/>
<polygon fill="black" stroke="black" points="981.01,-775.72 991.46,-773.99 982.21,-768.82 981.01,-775.72"/>
<text text-anchor="middle" x="923.5" y="-786.8" font-family="Times,serif" font-size="14.00">GitHub</text>
<text text-anchor="middle" x="923.5" y="-771.8" font-family="Times,serif" font-size="14.00">Action</text>
</g>
<!-- _GH__DOD_CYBER_CRIME_CENTER__SQLITE_DISSECT -->
<g id="node20" class="node">
<title>_GH__DOD_CYBER_CRIME_CENTER__SQLITE_DISSECT</title>
<g id="a_node20"><a xlink:href="https://github.com/dod-cyber-crime-center/sqlite-dissect" xlink:title="sqlite&#45;dissect\nadopts new case&#45;validation&#45;action">
<path fill="#8ec7d2" stroke="#0d6986" d="M1181.5,-273C1181.5,-273 1004.5,-273 1004.5,-273 998.5,-273 992.5,-267 992.5,-261 992.5,-261 992.5,-247 992.5,-247 992.5,-241 998.5,-235 1004.5,-235 1004.5,-235 1181.5,-235 1181.5,-235 1187.5,-235 1193.5,-241 1193.5,-247 1193.5,-247 1193.5,-261 1193.5,-261 1193.5,-267 1187.5,-273 1181.5,-273"/>
<text text-anchor="middle" x="1093" y="-257.8" font-family="Times,serif" font-size="14.00">sqlite&#45;dissect</text>
<text text-anchor="middle" x="1093" y="-242.8" font-family="Times,serif" font-size="14.00">adopts new case&#45;validation&#45;action</text>
</a>
</g>
</g>
<!-- _GH__KCHASON__CASE_VALIDATION_ACTION&#45;&gt;_GH__DOD_CYBER_CRIME_CENTER__SQLITE_DISSECT -->
<g id="edge20" class="edge">
<title>_GH__KCHASON__CASE_VALIDATION_ACTION&#45;&gt;_GH__DOD_CYBER_CRIME_CENTER__SQLITE_DISSECT</title>
<g id="a_edge20"><a xlink:href="https://github.com/dod-cyber-crime-center/sqlite-dissect/pull/31" xlink:title="TODO: PR 31">
<path fill="none" stroke="black" d="M829.16,-667.16C843.24,-663.55 856.64,-657.09 866,-646 892.4,-614.72 856.02,-307.89 884,-278 908.86,-251.44 946.08,-241.98 982.19,-240.31"/>
<polygon fill="black" stroke="black" points="982.43,-243.8 992.33,-240.03 982.24,-236.8 982.43,-243.8"/>
</a>
</g>
<g id="a_edge20&#45;label"><a xlink:href="https://github.com/dod-cyber-crime-center/sqlite-dissect/pull/31" xlink:title="TODO: PR 31">
<text text-anchor="middle" x="923.5" y="-281.8" font-family="Times,serif" font-size="14.00">TODO: PR 31</text>
</a>
</g>
</g>
</g>
</svg>
