<?xml version="1.0" encoding="UTF-8" standalone="no"?>
<!DOCTYPE svg PUBLIC "-//W3C//DTD SVG 1.1//EN"
 "http://www.w3.org/Graphics/SVG/1.1/DTD/svg11.dtd">
<!-- Generated by graphviz version 7.1.0 (20230121.1956)
 -->
<!-- Title: cdo_release_flow Pages: 1 -->
<svg width="2202pt" height="1054pt"
 viewBox="0.00 0.00 2202.00 1054.00" xmlns="http://www.w3.org/2000/svg" xmlns:xlink="http://www.w3.org/1999/xlink">
<g id="graph0" class="graph" transform="scale(1 1) rotate(0) translate(4 1050)">
<title>cdo_release_flow</title>
<polygon fill="white" stroke="none" points="-4,4 -4,-1050 2198,-1050 2198,4 -4,4"/>
<text text-anchor="middle" x="1097" y="-38.8" font-family="Times,serif" font-size="14.00">Release flow of CDO ontologies</text>
<text text-anchor="middle" x="1097" y="-7.8" font-family="Times,serif" font-size="14.00">Nodes link to the respective Git repository.</text>
<g id="clust1" class="cluster">
<title>cluster_uco_0_9_1</title>
<polygon fill="none" stroke="black" points="189,-62 189,-226 357,-226 357,-62 189,-62"/>
<text text-anchor="middle" x="273" y="-210.8" font-family="Times,serif" font-size="14.00">Adoption of UCO 0.9.1</text>
</g>
<g id="clust2" class="cluster">
<title>cluster_case_0_7_1</title>
<polygon fill="none" stroke="black" points="197,-118 197,-195 349,-195 349,-118 197,-118"/>
<text text-anchor="middle" x="273" y="-179.8" font-family="Times,serif" font-size="14.00">Adoption of CASE 0.7.1</text>
</g>
<g id="clust3" class="cluster">
<title>cluster_uco_1_1_0</title>
<polygon fill="none" stroke="black" points="1566,-315 1566,-1038 2186,-1038 2186,-315 1566,-315"/>
<text text-anchor="middle" x="1876" y="-1022.8" font-family="Times,serif" font-size="14.00">Adoption of UCO 1.1.0</text>
</g>
<g id="clust4" class="cluster">
<title>cluster_case_1_1_0</title>
<polygon fill="none" stroke="black" points="1574,-323 1574,-1007 2178,-1007 2178,-323 1574,-323"/>
<text text-anchor="middle" x="1876" y="-991.8" font-family="Times,serif" font-size="14.00">Adoption of CASE 1.1.0</text>
</g>
<g id="clust5" class="cluster">
<title>cluster_case_utils_0_9_0</title>
<polygon fill="none" stroke="black" points="1582,-331 1582,-976 2170,-976 2170,-331 1582,-331"/>
<text text-anchor="middle" x="1876" y="-960.8" font-family="Times,serif" font-size="14.00">Adoption of case&#45;utils 0.9.0</text>
</g>
<g id="clust6" class="cluster">
<title>cluster_case_prov_0_6_0</title>
<polygon fill="none" stroke="black" points="1625,-443 1625,-520 1795,-520 1795,-443 1625,-443"/>
<text text-anchor="middle" x="1710" y="-504.8" font-family="Times,serif" font-size="14.00">Adoption of case&#45;prov 0.6.0</text>
</g>
<g id="clust7" class="cluster">
<title>cluster_case_validation_action_2_3</title>
<polygon fill="none" stroke="black" points="1593,-868 1593,-945 1827,-945 1827,-868 1593,-868"/>
<text text-anchor="middle" x="1710" y="-929.8" font-family="Times,serif" font-size="14.00">Adoption of case&#45;validation&#45;action 2.3</text>
</g>
<g id="clust8" class="cluster">
<title>cluster_case_validation_action_2_5</title>
<polygon fill="none" stroke="black" points="1590,-528 1590,-860 2162,-860 2162,-528 1590,-528"/>
<text text-anchor="middle" x="1876" y="-844.8" font-family="Times,serif" font-size="14.00">Adoption of case&#45;validation&#45;action 2.5</text>
</g>
<g id="clust9" class="cluster">
<title>cluster_case_bindings_csharp_0_3_0</title>
<polygon fill="none" stroke="black" points="1615.5,-752 1615.5,-829 2154,-829 2154,-752 1615.5,-752"/>
<text text-anchor="middle" x="1884.75" y="-813.8" font-family="Times,serif" font-size="14.00">Adoption of CSharp bindings 0.3.0</text>
</g>
<g id="clust10" class="cluster">
<title>cluster_uco_1_2_0</title>
<polygon fill="none" stroke="black" points="8,-234 8,-649 1523,-649 1523,-234 8,-234"/>
<text text-anchor="middle" x="765.5" y="-633.8" font-family="Times,serif" font-size="14.00">Adoption of UCO 1.2.0</text>
</g>
<g id="clust11" class="cluster">
<title>cluster_case_1_2_0</title>
<polygon fill="none" stroke="black" points="212,-242 212,-618 1515,-618 1515,-242 212,-242"/>
<text text-anchor="middle" x="863.5" y="-602.8" font-family="Times,serif" font-size="14.00">Adoption of CASE 1.2.0</text>
</g>
<g id="clust12" class="cluster">
<title>cluster_case_utils_0_10_0</title>
<polygon fill="none" stroke="black" points="456,-296 456,-587 1507,-587 1507,-296 456,-296"/>
<text text-anchor="middle" x="981.5" y="-571.8" font-family="Times,serif" font-size="14.00">Adoption of case&#45;utils 0.10.0</text>
</g>
<g id="clust13" class="cluster">
<title>cluster_case_prov_0_7_0</title>
<polygon fill="none" stroke="black" points="1329,-441 1329,-518 1499,-518 1499,-441 1329,-441"/>
<text text-anchor="middle" x="1414" y="-502.8" font-family="Times,serif" font-size="14.00">Adoption of case&#45;prov 0.7.0</text>
</g>
<g id="clust14" class="cluster">
<title>cluster_case_validation_action_2_6</title>
<polygon fill="none" stroke="black" points="645,-479 645,-556 872,-556 872,-479 645,-479"/>
<text text-anchor="middle" x="758.5" y="-540.8" font-family="Times,serif" font-size="14.00">Adoption of case&#45;validation&#45;action 2.6</text>
</g>
<!-- _GH__UCOPROJECT__ONTOLOGY_UNIFIEDCYBERONTOLOGY_ORG -->
<g id="node1" class="node">
<title>_GH__UCOPROJECT__ONTOLOGY_UNIFIEDCYBERONTOLOGY_ORG</title>
<g id="a_node1"><a xlink:href="https://github.com/ucoProject/ontology.unifiedcyberontology.org" xlink:title="UCO documentation\nregenerated">
<path fill="#8ec7d2" stroke="#0d6986" d="M326,-108C326,-108 220,-108 220,-108 214,-108 208,-102 208,-96 208,-96 208,-82 208,-82 208,-76 214,-70 220,-70 220,-70 326,-70 326,-70 332,-70 338,-76 338,-82 338,-82 338,-96 338,-96 338,-102 332,-108 326,-108"/>
<text text-anchor="middle" x="273" y="-92.8" font-family="Times,serif" font-size="14.00">UCO documentation</text>
<text text-anchor="middle" x="273" y="-77.8" font-family="Times,serif" font-size="14.00">regenerated</text>
</a>
</g>
</g>
<!-- _GH__CASEWORK__CASE_MAPPING_TEMPLATE_STUBS -->
<g id="node2" class="node">
<title>_GH__CASEWORK__CASE_MAPPING_TEMPLATE_STUBS</title>
<g id="a_node2"><a xlink:href="https://github.com/casework/CASE-Mapping-Template-Stubs" xlink:title="CASE Mapping\nTemplate Stubs">
<path fill="#8ec7d2" stroke="#0d6986" d="M313,-164C313,-164 233,-164 233,-164 227,-164 221,-158 221,-152 221,-152 221,-138 221,-138 221,-132 227,-126 233,-126 233,-126 313,-126 313,-126 319,-126 325,-132 325,-138 325,-138 325,-152 325,-152 325,-158 319,-164 313,-164"/>
<text text-anchor="middle" x="273" y="-148.8" font-family="Times,serif" font-size="14.00">CASE Mapping</text>
<text text-anchor="middle" x="273" y="-133.8" font-family="Times,serif" font-size="14.00">Template Stubs</text>
</a>
</g>
</g>
<!-- _GH__CASEWORK__CASE_IMPLEMENTATON_EXIFTOOL -->
<g id="node3" class="node">
<title>_GH__CASEWORK__CASE_IMPLEMENTATON_EXIFTOOL</title>
<g id="a_node3"><a xlink:href="https://github.com/casework/CASE-Implementation-ExifTool" xlink:title="CASE&#45;Implementation&#45;ExifTool\nadopts new case&#45;utils">
<path fill="#8ec7d2" stroke="#0d6986" d="M1796,-433C1796,-433 1624,-433 1624,-433 1618,-433 1612,-427 1612,-421 1612,-421 1612,-407 1612,-407 1612,-401 1618,-395 1624,-395 1624,-395 1796,-395 1796,-395 1802,-395 1808,-401 1808,-407 1808,-407 1808,-421 1808,-421 1808,-427 1802,-433 1796,-433"/>
<text text-anchor="middle" x="1710" y="-417.8" font-family="Times,serif" font-size="14.00">CASE&#45;Implementation&#45;ExifTool</text>
<text text-anchor="middle" x="1710" y="-402.8" font-family="Times,serif" font-size="14.00">adopts new case&#45;utils</text>
</a>
</g>
</g>
<!-- _GH__CASEWORK__CASE_IMPLEMENTATON_GNU_TIME -->
<g id="node4" class="node">
<title>_GH__CASEWORK__CASE_IMPLEMENTATON_GNU_TIME</title>
<g id="a_node4"><a xlink:href="https://github.com/casework/CASE-Implementation-GNU-Time" xlink:title="CASE&#45;Implementation&#45;GNU&#45;Time\nadopts new case&#45;utils">
<path fill="#8ec7d2" stroke="#0d6986" d="M1803,-377C1803,-377 1617,-377 1617,-377 1611,-377 1605,-371 1605,-365 1605,-365 1605,-351 1605,-351 1605,-345 1611,-339 1617,-339 1617,-339 1803,-339 1803,-339 1809,-339 1815,-345 1815,-351 1815,-351 1815,-365 1815,-365 1815,-371 1809,-377 1803,-377"/>
<text text-anchor="middle" x="1710" y="-361.8" font-family="Times,serif" font-size="14.00">CASE&#45;Implementation&#45;GNU&#45;Time</text>
<text text-anchor="middle" x="1710" y="-346.8" font-family="Times,serif" font-size="14.00">adopts new case&#45;utils</text>
</a>
</g>
</g>
<!-- _GH__CASEWORK__CASE_CORPORA -->
<g id="node5" class="node">
<title>_GH__CASEWORK__CASE_CORPORA</title>
<g id="a_node5"><a xlink:href="https://github.com/casework/CASE-Corpora" xlink:title="CASE&#45;Corpora\nadopts new case&#45;prov">
<path fill="#8ec7d2" stroke="#0d6986" d="M1765,-489C1765,-489 1655,-489 1655,-489 1649,-489 1643,-483 1643,-477 1643,-477 1643,-463 1643,-463 1643,-457 1649,-451 1655,-451 1655,-451 1765,-451 1765,-451 1771,-451 1777,-457 1777,-463 1777,-463 1777,-477 1777,-477 1777,-483 1771,-489 1765,-489"/>
<text text-anchor="middle" x="1710" y="-473.8" font-family="Times,serif" font-size="14.00">CASE&#45;Corpora</text>
<text text-anchor="middle" x="1710" y="-458.8" font-family="Times,serif" font-size="14.00">adopts new case&#45;prov</text>
</a>
</g>
</g>
<!-- _GH__CASEWORK__CASE_IMPLEMENTATON_UFED_XML -->
<g id="node6" class="node">
<title>_GH__CASEWORK__CASE_IMPLEMENTATON_UFED_XML</title>
<g id="a_node6"><a xlink:href="https://github.com/casework/CASE-Implementation-UFED-XML" xlink:title="CASE&#45;Implementation&#45;UFED&#45;XML\nadopts new case&#45;validation&#45;action">
<path fill="#8ec7d2" stroke="#0d6986" d="M1807,-914C1807,-914 1613,-914 1613,-914 1607,-914 1601,-908 1601,-902 1601,-902 1601,-888 1601,-888 1601,-882 1607,-876 1613,-876 1613,-876 1807,-876 1807,-876 1813,-876 1819,-882 1819,-888 1819,-888 1819,-902 1819,-902 1819,-908 1813,-914 1807,-914"/>
<text text-anchor="middle" x="1710" y="-898.8" font-family="Times,serif" font-size="14.00">CASE&#45;Implementation&#45;UFED&#45;XML</text>
<text text-anchor="middle" x="1710" y="-883.8" font-family="Times,serif" font-size="14.00">adopts new case&#45;validation&#45;action</text>
</a>
</g>
</g>
<!-- _GH__CASEWORK__CASE_IMPLEMENTATON_PYPI_EXIFREAD -->
<g id="node7" class="node">
<title>_GH__CASEWORK__CASE_IMPLEMENTATON_PYPI_EXIFREAD</title>
<g id="a_node7"><a xlink:href="https://github.com/casework/CASE-Implementation-PyPI-Exifread" xlink:title="CASE&#45;Implementation&#45;PyPI&#45;Exifread\nadopts new case&#45;validation&#45;action">
<path fill="#8ec7d2" stroke="#0d6986" d="M1810,-742C1810,-742 1610,-742 1610,-742 1604,-742 1598,-736 1598,-730 1598,-730 1598,-716 1598,-716 1598,-710 1604,-704 1610,-704 1610,-704 1810,-704 1810,-704 1816,-704 1822,-710 1822,-716 1822,-716 1822,-730 1822,-730 1822,-736 1816,-742 1810,-742"/>
<text text-anchor="middle" x="1710" y="-726.8" font-family="Times,serif" font-size="14.00">CASE&#45;Implementation&#45;PyPI&#45;Exifread</text>
<text text-anchor="middle" x="1710" y="-711.8" font-family="Times,serif" font-size="14.00">adopts new case&#45;validation&#45;action</text>
</a>
</g>
</g>
<!-- _GH__CASEWORK__CASE_IMPLEMENTATON_PYPI_PILLOW -->
<g id="node8" class="node">
<title>_GH__CASEWORK__CASE_IMPLEMENTATON_PYPI_PILLOW</title>
<g id="a_node8"><a xlink:href="https://github.com/casework/CASE-Implementation-PyPI-Pillow" xlink:title="CASE&#45;Implementation&#45;PyPI&#45;Pillow\nadopts new case&#45;validation&#45;action">
<path fill="#8ec7d2" stroke="#0d6986" d="M1804.5,-686C1804.5,-686 1615.5,-686 1615.5,-686 1609.5,-686 1603.5,-680 1603.5,-674 1603.5,-674 1603.5,-660 1603.5,-660 1603.5,-654 1609.5,-648 1615.5,-648 1615.5,-648 1804.5,-648 1804.5,-648 1810.5,-648 1816.5,-654 1816.5,-660 1816.5,-660 1816.5,-674 1816.5,-674 1816.5,-680 1810.5,-686 1804.5,-686"/>
<text text-anchor="middle" x="1710" y="-670.8" font-family="Times,serif" font-size="14.00">CASE&#45;Implementation&#45;PyPI&#45;Pillow</text>
<text text-anchor="middle" x="1710" y="-655.8" font-family="Times,serif" font-size="14.00">adopts new case&#45;validation&#45;action</text>
</a>
</g>
</g>
<!-- _GH__CASEWORK__CASE_IMPLEMENTATON_XRY -->
<g id="node9" class="node">
<title>_GH__CASEWORK__CASE_IMPLEMENTATON_XRY</title>
<g id="a_node9"><a xlink:href="https://github.com/casework/CASE-Implementation-XRY" xlink:title="CASE&#45;Implementation&#45;XRY adopts\nnew case&#45;validation&#45;action">
<path fill="#8ec7d2" stroke="#0d6986" d="M1805,-630C1805,-630 1615,-630 1615,-630 1609,-630 1603,-624 1603,-618 1603,-618 1603,-604 1603,-604 1603,-598 1609,-592 1615,-592 1615,-592 1805,-592 1805,-592 1811,-592 1817,-598 1817,-604 1817,-604 1817,-618 1817,-618 1817,-624 1811,-630 1805,-630"/>
<text text-anchor="middle" x="1710" y="-614.8" font-family="Times,serif" font-size="14.00">CASE&#45;Implementation&#45;XRY adopts</text>
<text text-anchor="middle" x="1710" y="-599.8" font-family="Times,serif" font-size="14.00">new case&#45;validation&#45;action</text>
</a>
</g>
</g>
<!-- _GH__CASEWORK__CASE_MAPPING_TEMPLATE_PYTHON -->
<g id="node10" class="node">
<title>_GH__CASEWORK__CASE_MAPPING_TEMPLATE_PYTHON</title>
<g id="a_node10"><a xlink:href="https://github.com/casework/CASE-Mapping-Template-Python" xlink:title="CASE&#45;Mapping&#45;Template&#45;Python\nadopts new case&#45;validation&#45;action">
<path fill="#8ec7d2" stroke="#0d6986" d="M1800,-574C1800,-574 1620,-574 1620,-574 1614,-574 1608,-568 1608,-562 1608,-562 1608,-548 1608,-548 1608,-542 1614,-536 1620,-536 1620,-536 1800,-536 1800,-536 1806,-536 1812,-542 1812,-548 1812,-548 1812,-562 1812,-562 1812,-568 1806,-574 1800,-574"/>
<text text-anchor="middle" x="1710" y="-558.8" font-family="Times,serif" font-size="14.00">CASE&#45;Mapping&#45;Template&#45;Python</text>
<text text-anchor="middle" x="1710" y="-543.8" font-family="Times,serif" font-size="14.00">adopts new case&#45;validation&#45;action</text>
</a>
</g>
</g>
<!-- _GH__CASEWORK__CASE_BINDINGS_CSHARP_MONITOR -->
<g id="node11" class="node">
<title>_GH__CASEWORK__CASE_BINDINGS_CSHARP_MONITOR</title>
<g id="a_node11"><a xlink:href="https://github.com/casework/CASE-Bindings-CSharp-Monitor" xlink:title="CASE Bindings CSharp Monitor\ntests NuGet package with validation action">
<path fill="#8ec7d2" stroke="#0d6986" d="M2134,-798C2134,-798 1907,-798 1907,-798 1901,-798 1895,-792 1895,-786 1895,-786 1895,-772 1895,-772 1895,-766 1901,-760 1907,-760 1907,-760 2134,-760 2134,-760 2140,-760 2146,-766 2146,-772 2146,-772 2146,-786 2146,-786 2146,-792 2140,-798 2134,-798"/>
<text text-anchor="middle" x="2020.5" y="-782.8" font-family="Times,serif" font-size="14.00">CASE Bindings CSharp Monitor</text>
<text text-anchor="middle" x="2020.5" y="-767.8" font-family="Times,serif" font-size="14.00">tests NuGet package with validation action</text>
</a>
</g>
</g>
<!-- _GH__CIPHERTECHSOLUTIONS__CASE_BINDINGS_CSHARP -->
<g id="node12" class="node">
<title>_GH__CIPHERTECHSOLUTIONS__CASE_BINDINGS_CSHARP</title>
<g id="a_node12"><a xlink:href="https://github.com/ciphertechsolutions/CASE-Bindings-CSharp" xlink:title="CASE&#45;Bindings&#45;CSharp\nadopts new ontology version">
<path fill="#8ec7d2" stroke="#0d6986" d="M1784.5,-798C1784.5,-798 1635.5,-798 1635.5,-798 1629.5,-798 1623.5,-792 1623.5,-786 1623.5,-786 1623.5,-772 1623.5,-772 1623.5,-766 1629.5,-760 1635.5,-760 1635.5,-760 1784.5,-760 1784.5,-760 1790.5,-760 1796.5,-766 1796.5,-772 1796.5,-772 1796.5,-786 1796.5,-786 1796.5,-792 1790.5,-798 1784.5,-798"/>
<text text-anchor="middle" x="1710" y="-782.8" font-family="Times,serif" font-size="14.00">CASE&#45;Bindings&#45;CSharp</text>
<text text-anchor="middle" x="1710" y="-767.8" font-family="Times,serif" font-size="14.00">adopts new ontology version</text>
</a>
</g>
</g>
<!-- _GH__CIPHERTECHSOLUTIONS__CASE_BINDINGS_CSHARP&#45;&gt;_GH__CASEWORK__CASE_BINDINGS_CSHARP_MONITOR -->
<g id="edge15" class="edge">
<title>_GH__CIPHERTECHSOLUTIONS__CASE_BINDINGS_CSHARP&#45;&gt;_GH__CASEWORK__CASE_BINDINGS_CSHARP_MONITOR</title>
<path fill="none" stroke="black" d="M1796.93,-779C1823.73,-779 1853.97,-779 1883.33,-779"/>
<polygon fill="black" stroke="black" points="1883.02,-782.5 1893.02,-779 1883.02,-775.5 1883.02,-782.5"/>
<text text-anchor="middle" x="1858.5" y="-782.8" font-family="Times,serif" font-size="14.00">NuGet</text>
</g>
<!-- _GH__UCOPROJECT__UCO -->
<g id="node13" class="node">
<title>_GH__UCOPROJECT__UCO</title>
<g id="a_node13"><a xlink:href="https://github.com/ucoProject/UCO" xlink:title="UCO Ontology\nreleases">
<path fill="#8ec7d2" stroke="#0d6986" d="M104,-312C104,-312 28,-312 28,-312 22,-312 16,-306 16,-300 16,-300 16,-286 16,-286 16,-280 22,-274 28,-274 28,-274 104,-274 104,-274 110,-274 116,-280 116,-286 116,-286 116,-300 116,-300 116,-306 110,-312 104,-312"/>
<text text-anchor="middle" x="66" y="-296.8" font-family="Times,serif" font-size="14.00">UCO Ontology</text>
<text text-anchor="middle" x="66" y="-281.8" font-family="Times,serif" font-size="14.00">releases</text>
</a>
</g>
</g>
<!-- _GH__UCOPROJECT__UCO&#45;&gt;_GH__UCOPROJECT__ONTOLOGY_UNIFIEDCYBERONTOLOGY_ORG -->
<g id="edge24" class="edge">
<title>_GH__UCOPROJECT__UCO&#45;&gt;_GH__UCOPROJECT__ONTOLOGY_UNIFIEDCYBERONTOLOGY_ORG</title>
<path fill="none" stroke="black" d="M74.89,-273.61C90.85,-236.86 130.46,-156.91 189,-114 191.76,-111.97 194.69,-110.11 197.73,-108.4"/>
<polygon fill="black" stroke="black" points="199.01,-111.67 206.42,-104.09 195.9,-105.4 199.01,-111.67"/>
<text text-anchor="middle" x="156.5" y="-187.8" font-family="Times,serif" font-size="14.00">Git sub&#45;</text>
<text text-anchor="middle" x="156.5" y="-172.8" font-family="Times,serif" font-size="14.00">module</text>
</g>
<!-- _GH__CASEWORK__CASE -->
<g id="node14" class="node">
<title>_GH__CASEWORK__CASE</title>
<g id="a_node14"><a xlink:href="https://github.com/casework/CASE" xlink:title="CASE Ontology\nreleases">
<path fill="#8ec7d2" stroke="#0d6986" d="M314,-345C314,-345 232,-345 232,-345 226,-345 220,-339 220,-333 220,-333 220,-319 220,-319 220,-313 226,-307 232,-307 232,-307 314,-307 314,-307 320,-307 326,-313 326,-319 326,-319 326,-333 326,-333 326,-339 320,-345 314,-345"/>
<text text-anchor="middle" x="273" y="-329.8" font-family="Times,serif" font-size="14.00">CASE Ontology</text>
<text text-anchor="middle" x="273" y="-314.8" font-family="Times,serif" font-size="14.00">releases</text>
</a>
</g>
</g>
<!-- _GH__UCOPROJECT__UCO&#45;&gt;_GH__CASEWORK__CASE -->
<g id="edge23" class="edge">
<title>_GH__UCOPROJECT__UCO&#45;&gt;_GH__CASEWORK__CASE</title>
<path fill="none" stroke="black" d="M116.36,-300.95C144.1,-305.41 179.01,-311.03 208.73,-315.82"/>
<polygon fill="black" stroke="black" points="207.92,-319.23 218.35,-317.36 209.03,-312.32 207.92,-319.23"/>
<text text-anchor="middle" x="156.5" y="-329.8" font-family="Times,serif" font-size="14.00">Git sub&#45;</text>
<text text-anchor="middle" x="156.5" y="-314.8" font-family="Times,serif" font-size="14.00">module</text>
</g>
<!-- _GH__CASEWORK__CASE&#45;&gt;_GH__CIPHERTECHSOLUTIONS__CASE_BINDINGS_CSHARP -->
<g id="edge3" class="edge">
<title>_GH__CASEWORK__CASE&#45;&gt;_GH__CIPHERTECHSOLUTIONS__CASE_BINDINGS_CSHARP</title>
<path fill="none" stroke="black" d="M276.77,-345.28C292.06,-447.98 370.04,-926 497,-926 497,-926 497,-926 1104.5,-926 1310.99,-926 1546.21,-844.01 1652.08,-802.5"/>
<polygon fill="black" stroke="black" points="1653.1,-805.86 1661.12,-798.93 1650.53,-799.35 1653.1,-805.86"/>
</g>
<!-- _GH__CASEWORK__ONTOLOGY_CASEONTOLOGY_ORG -->
<g id="node15" class="node">
<title>_GH__CASEWORK__ONTOLOGY_CASEONTOLOGY_ORG</title>
<g id="a_node15"><a xlink:href="https://github.com/casework/ontology.caseontology.org" xlink:title="CASE documentation\nregenerated">
<path fill="#8ec7d2" stroke="#0d6986" d="M554,-288C554,-288 442,-288 442,-288 436,-288 430,-282 430,-276 430,-276 430,-262 430,-262 430,-256 436,-250 442,-250 442,-250 554,-250 554,-250 560,-250 566,-256 566,-262 566,-262 566,-276 566,-276 566,-282 560,-288 554,-288"/>
<text text-anchor="middle" x="498" y="-272.8" font-family="Times,serif" font-size="14.00">CASE documentation</text>
<text text-anchor="middle" x="498" y="-257.8" font-family="Times,serif" font-size="14.00">regenerated</text>
</a>
</g>
</g>
<!-- _GH__CASEWORK__CASE&#45;&gt;_GH__CASEWORK__ONTOLOGY_CASEONTOLOGY_ORG -->
<g id="edge4" class="edge">
<title>_GH__CASEWORK__CASE&#45;&gt;_GH__CASEWORK__ONTOLOGY_CASEONTOLOGY_ORG</title>
<path fill="none" stroke="black" d="M326.28,-312.64C353.8,-305.6 388.1,-296.84 418.71,-289.01"/>
<polygon fill="black" stroke="black" points="419.52,-292.42 428.34,-286.55 417.79,-285.63 419.52,-292.42"/>
<text text-anchor="middle" x="389.5" y="-319.8" font-family="Times,serif" font-size="14.00">Git sub&#45;</text>
<text text-anchor="middle" x="389.5" y="-304.8" font-family="Times,serif" font-size="14.00">module</text>
</g>
<!-- _GH__CASEWORK__CASE_UTILITIES_PYTHON -->
<g id="node18" class="node">
<title>_GH__CASEWORK__CASE_UTILITIES_PYTHON</title>
<g id="a_node18"><a xlink:href="https://github.com/casework/CASE-Utilities-Python" xlink:title="case&#45;utils\nreleases">
<path fill="#8ec7d2" stroke="#0d6986" d="M520,-392C520,-392 476,-392 476,-392 470,-392 464,-386 464,-380 464,-380 464,-366 464,-366 464,-360 470,-354 476,-354 476,-354 520,-354 520,-354 526,-354 532,-360 532,-366 532,-366 532,-380 532,-380 532,-386 526,-392 520,-392"/>
<text text-anchor="middle" x="498" y="-376.8" font-family="Times,serif" font-size="14.00">case&#45;utils</text>
<text text-anchor="middle" x="498" y="-361.8" font-family="Times,serif" font-size="14.00">releases</text>
</a>
</g>
</g>
<!-- _GH__CASEWORK__CASE&#45;&gt;_GH__CASEWORK__CASE_UTILITIES_PYTHON -->
<g id="edge2" class="edge">
<title>_GH__CASEWORK__CASE&#45;&gt;_GH__CASEWORK__CASE_UTILITIES_PYTHON</title>
<path fill="none" stroke="black" d="M326.28,-337.02C364.62,-345.1 416.11,-355.95 452.48,-363.62"/>
<polygon fill="black" stroke="black" points="451.74,-367.04 462.24,-365.67 453.18,-360.19 451.74,-367.04"/>
<text text-anchor="middle" x="389.5" y="-372.8" font-family="Times,serif" font-size="14.00">Git sub&#45;</text>
<text text-anchor="middle" x="389.5" y="-357.8" font-family="Times,serif" font-size="14.00">module</text>
</g>
<!-- _GH__AJNELSON_NIST__CASE_EXAMPLES_QC -->
<g id="node16" class="node">
<title>_GH__AJNELSON_NIST__CASE_EXAMPLES_QC</title>
<g id="a_node16"><a xlink:href="https://github.com/ajnelson-nist/CASE-Examples-QC" xlink:title="CASE&#45;Examples&#45;QC\nadopts CASE&#45;Examples and\nCASE website updates">
<path fill="#8ec7d2" stroke="#0d6986" d="M1177.5,-429.5C1177.5,-429.5 1029.5,-429.5 1029.5,-429.5 1023.5,-429.5 1017.5,-423.5 1017.5,-417.5 1017.5,-417.5 1017.5,-388.5 1017.5,-388.5 1017.5,-382.5 1023.5,-376.5 1029.5,-376.5 1029.5,-376.5 1177.5,-376.5 1177.5,-376.5 1183.5,-376.5 1189.5,-382.5 1189.5,-388.5 1189.5,-388.5 1189.5,-417.5 1189.5,-417.5 1189.5,-423.5 1183.5,-429.5 1177.5,-429.5"/>
<text text-anchor="middle" x="1103.5" y="-414.3" font-family="Times,serif" font-size="14.00">CASE&#45;Examples&#45;QC</text>
<text text-anchor="middle" x="1103.5" y="-399.3" font-family="Times,serif" font-size="14.00">adopts CASE&#45;Examples and</text>
<text text-anchor="middle" x="1103.5" y="-384.3" font-family="Times,serif" font-size="14.00">CASE website updates</text>
</a>
</g>
</g>
<!-- _GH__CASEWORK__CASE_IMPLEMENTATON_PROV_O -->
<g id="node20" class="node">
<title>_GH__CASEWORK__CASE_IMPLEMENTATON_PROV_O</title>
<g id="a_node20"><a xlink:href="https://github.com/casework/CASE-Implementation-PROV-O" xlink:title="case&#45;prov\nreleases">
<path fill="#8ec7d2" stroke="#0d6986" d="M1436,-487C1436,-487 1391,-487 1391,-487 1385,-487 1379,-481 1379,-475 1379,-475 1379,-461 1379,-461 1379,-455 1385,-449 1391,-449 1391,-449 1436,-449 1436,-449 1442,-449 1448,-455 1448,-461 1448,-461 1448,-475 1448,-475 1448,-481 1442,-487 1436,-487"/>
<text text-anchor="middle" x="1413.5" y="-471.8" font-family="Times,serif" font-size="14.00">case&#45;prov</text>
<text text-anchor="middle" x="1413.5" y="-456.8" font-family="Times,serif" font-size="14.00">releases</text>
</a>
</g>
</g>
<!-- _GH__AJNELSON_NIST__CASE_EXAMPLES_QC&#45;&gt;_GH__CASEWORK__CASE_IMPLEMENTATON_PROV_O -->
<g id="edge1" class="edge">
<title>_GH__AJNELSON_NIST__CASE_EXAMPLES_QC&#45;&gt;_GH__CASEWORK__CASE_IMPLEMENTATON_PROV_O</title>
<path fill="none" stroke="black" d="M1189.84,-413.96C1222.87,-418.85 1260.88,-425.27 1295,-433 1319.31,-438.51 1345.96,-446.3 1367.73,-453.13"/>
<polygon fill="black" stroke="black" points="1366.59,-456.45 1377.18,-456.14 1368.72,-449.78 1366.59,-456.45"/>
<text text-anchor="middle" x="1258.5" y="-451.8" font-family="Times,serif" font-size="14.00">Git sub&#45;</text>
<text text-anchor="middle" x="1258.5" y="-436.8" font-family="Times,serif" font-size="14.00">module</text>
</g>
<!-- _GH__CASEWORK__CASE_EXAMPLES -->
<g id="node17" class="node">
<title>_GH__CASEWORK__CASE_EXAMPLES</title>
<g id="a_node17"><a xlink:href="https://github.com/casework/CASE-Examples" xlink:title="CASE&#45;Examples\nadopts new case&#45;utils">
<path fill="#8ec7d2" stroke="#0d6986" d="M812.5,-342C812.5,-342 703.5,-342 703.5,-342 697.5,-342 691.5,-336 691.5,-330 691.5,-330 691.5,-316 691.5,-316 691.5,-310 697.5,-304 703.5,-304 703.5,-304 812.5,-304 812.5,-304 818.5,-304 824.5,-310 824.5,-316 824.5,-316 824.5,-330 824.5,-330 824.5,-336 818.5,-342 812.5,-342"/>
<text text-anchor="middle" x="758" y="-326.8" font-family="Times,serif" font-size="14.00">CASE&#45;Examples</text>
<text text-anchor="middle" x="758" y="-311.8" font-family="Times,serif" font-size="14.00">adopts new case&#45;utils</text>
</a>
</g>
</g>
<!-- _GH__CASEWORK__CASE_EXAMPLES&#45;&gt;_GH__AJNELSON_NIST__CASE_EXAMPLES_QC -->
<g id="edge5" class="edge">
<title>_GH__CASEWORK__CASE_EXAMPLES&#45;&gt;_GH__AJNELSON_NIST__CASE_EXAMPLES_QC</title>
<path fill="none" stroke="black" d="M824.61,-328.46C870.17,-333.25 931.97,-341.74 985,-356 1000.69,-360.22 1017.11,-365.92 1032.55,-371.9"/>
<polygon fill="black" stroke="black" points="1031.05,-375.07 1041.64,-375.51 1033.64,-368.57 1031.05,-375.07"/>
<text text-anchor="middle" x="945.5" y="-374.8" font-family="Times,serif" font-size="14.00">Git sub&#45;</text>
<text text-anchor="middle" x="945.5" y="-359.8" font-family="Times,serif" font-size="14.00">module</text>
</g>
<!-- _GH__CASEWORK__CASE_UTILITIES_PYTHON&#45;&gt;_GH__CASEWORK__CASE_IMPLEMENTATON_EXIFTOOL -->
<g id="edge9" class="edge">
<title>_GH__CASEWORK__CASE_UTILITIES_PYTHON&#45;&gt;_GH__CASEWORK__CASE_IMPLEMENTATON_EXIFTOOL</title>
<path fill="none" stroke="black" d="M532.46,-363.54C543.42,-359.91 555.47,-355.34 566,-350 604.15,-330.65 605.4,-311.19 645,-295 691.73,-275.89 706.51,-276 757,-276 757,-276 757,-276 1414.5,-276 1497.71,-276 1489.71,-352.78 1566,-386 1577.01,-390.79 1588.85,-394.77 1600.84,-398.07"/>
<polygon fill="black" stroke="black" points="1599.85,-401.43 1610.41,-400.54 1601.6,-394.66 1599.85,-401.43"/>
<text text-anchor="middle" x="1103.5" y="-279.8" font-family="Times,serif" font-size="14.00">PyPI</text>
</g>
<!-- _GH__CASEWORK__CASE_UTILITIES_PYTHON&#45;&gt;_GH__CASEWORK__CASE_IMPLEMENTATON_GNU_TIME -->
<g id="edge10" class="edge">
<title>_GH__CASEWORK__CASE_UTILITIES_PYTHON&#45;&gt;_GH__CASEWORK__CASE_IMPLEMENTATON_GNU_TIME</title>
<path fill="none" stroke="black" d="M532.19,-368.65C544.43,-365.42 557.39,-359.79 566,-350 592.35,-320.01 555.9,-290.35 584,-262 639.35,-206.15 678.37,-225 757,-225 757,-225 757,-225 1414.5,-225 1517.22,-225 1623.66,-293.04 1675.95,-331.79"/>
<polygon fill="black" stroke="black" points="1673.77,-334.53 1683.86,-337.75 1677.98,-328.94 1673.77,-334.53"/>
<text text-anchor="middle" x="1103.5" y="-228.8" font-family="Times,serif" font-size="14.00">PyPI</text>
</g>
<!-- _GH__CASEWORK__CASE_UTILITIES_PYTHON&#45;&gt;_GH__AJNELSON_NIST__CASE_EXAMPLES_QC -->
<g id="edge7" class="edge">
<title>_GH__CASEWORK__CASE_UTILITIES_PYTHON&#45;&gt;_GH__AJNELSON_NIST__CASE_EXAMPLES_QC</title>
<path fill="none" stroke="black" d="M532.31,-382.56C561.7,-390.56 605.82,-401.51 645,-407 794.96,-428.01 834.47,-445.46 985,-429 991.88,-428.25 998.95,-427.25 1006.05,-426.09"/>
<polygon fill="black" stroke="black" points="1006.45,-429.58 1015.7,-424.41 1005.24,-422.68 1006.45,-429.58"/>
<text text-anchor="middle" x="758" y="-439.8" font-family="Times,serif" font-size="14.00">PyPI</text>
</g>
<!-- _GH__CASEWORK__CASE_UTILITIES_PYTHON&#45;&gt;_GH__CASEWORK__CASE_EXAMPLES -->
<g id="edge8" class="edge">
<title>_GH__CASEWORK__CASE_UTILITIES_PYTHON&#45;&gt;_GH__CASEWORK__CASE_EXAMPLES</title>
<path fill="none" stroke="black" d="M532.46,-366.51C569.59,-359.32 630.73,-347.47 679.85,-337.95"/>
<polygon fill="black" stroke="black" points="680.45,-341.4 689.6,-336.06 679.12,-334.53 680.45,-341.4"/>
<text text-anchor="middle" x="597.5" y="-359.8" font-family="Times,serif" font-size="14.00">PyPI</text>
</g>
<!-- _GH__CASEWORK__CASEWORK_GITHUB_IO -->
<g id="node19" class="node">
<title>_GH__CASEWORK__CASEWORK_GITHUB_IO</title>
<g id="a_node19"><a xlink:href="https://github.com/casework/casework.github.io" xlink:title="CASE website\nadopts new case&#45;utils">
<path fill="#8ec7d2" stroke="#0d6986" d="M812.5,-398C812.5,-398 703.5,-398 703.5,-398 697.5,-398 691.5,-392 691.5,-386 691.5,-386 691.5,-372 691.5,-372 691.5,-366 697.5,-360 703.5,-360 703.5,-360 812.5,-360 812.5,-360 818.5,-360 824.5,-366 824.5,-372 824.5,-372 824.5,-386 824.5,-386 824.5,-392 818.5,-398 812.5,-398"/>
<text text-anchor="middle" x="758" y="-382.8" font-family="Times,serif" font-size="14.00">CASE website</text>
<text text-anchor="middle" x="758" y="-367.8" font-family="Times,serif" font-size="14.00">adopts new case&#45;utils</text>
</a>
</g>
</g>
<!-- _GH__CASEWORK__CASE_UTILITIES_PYTHON&#45;&gt;_GH__CASEWORK__CASEWORK_GITHUB_IO -->
<g id="edge13" class="edge">
<title>_GH__CASEWORK__CASE_UTILITIES_PYTHON&#45;&gt;_GH__CASEWORK__CASEWORK_GITHUB_IO</title>
<path fill="none" stroke="black" d="M532.46,-373.78C569.59,-374.64 630.73,-376.06 679.85,-377.21"/>
<polygon fill="black" stroke="black" points="679.5,-380.7 689.57,-377.43 679.66,-373.7 679.5,-380.7"/>
<text text-anchor="middle" x="597.5" y="-379.8" font-family="Times,serif" font-size="14.00">PyPI</text>
</g>
<!-- _GH__CASEWORK__CASE_UTILITIES_PYTHON&#45;&gt;_GH__CASEWORK__CASE_IMPLEMENTATON_PROV_O -->
<g id="edge11" class="edge">
<title>_GH__CASEWORK__CASE_UTILITIES_PYTHON&#45;&gt;_GH__CASEWORK__CASE_IMPLEMENTATON_PROV_O</title>
<path fill="none" stroke="black" d="M524.18,-392.33C552,-412.39 598.98,-442.54 645,-455 714.5,-473.81 1213.65,-470.13 1367.49,-468.52"/>
<polygon fill="black" stroke="black" points="1367.32,-472.02 1377.28,-468.42 1367.24,-465.02 1367.32,-472.02"/>
<text text-anchor="middle" x="945.5" y="-473.8" font-family="Times,serif" font-size="14.00">PyPI</text>
</g>
<!-- _GH__KCHASON__CASE_VALIDATION_ACTION -->
<g id="node21" class="node">
<title>_GH__KCHASON__CASE_VALIDATION_ACTION</title>
<g id="a_node21"><a xlink:href="https://github.com/kchason/case-validation-action" xlink:title="case&#45;validation&#45;action\nreleases">
<path fill="#8ec7d2" stroke="#0d6986" d="M814,-525C814,-525 702,-525 702,-525 696,-525 690,-519 690,-513 690,-513 690,-499 690,-499 690,-493 696,-487 702,-487 702,-487 814,-487 814,-487 820,-487 826,-493 826,-499 826,-499 826,-513 826,-513 826,-519 820,-525 814,-525"/>
<text text-anchor="middle" x="758" y="-509.8" font-family="Times,serif" font-size="14.00">case&#45;validation&#45;action</text>
<text text-anchor="middle" x="758" y="-494.8" font-family="Times,serif" font-size="14.00">releases</text>
</a>
</g>
</g>
<!-- _GH__CASEWORK__CASE_UTILITIES_PYTHON&#45;&gt;_GH__KCHASON__CASE_VALIDATION_ACTION -->
<g id="edge12" class="edge">
<title>_GH__CASEWORK__CASE_UTILITIES_PYTHON&#45;&gt;_GH__KCHASON__CASE_VALIDATION_ACTION</title>
<path fill="none" stroke="black" d="M509.75,-392.27C523.72,-415.36 550.33,-453.39 584,-473 612.36,-489.52 647.34,-497.98 678.41,-502.25"/>
<polygon fill="black" stroke="black" points="677.81,-505.7 688.16,-503.45 678.67,-498.75 677.81,-505.7"/>
<text text-anchor="middle" x="597.5" y="-489.8" font-family="Times,serif" font-size="14.00">PyPI</text>
</g>
<!-- _GH__CASEWORK__CASEWORK_GITHUB_IO&#45;&gt;_GH__AJNELSON_NIST__CASE_EXAMPLES_QC -->
<g id="edge14" class="edge">
<title>_GH__CASEWORK__CASEWORK_GITHUB_IO&#45;&gt;_GH__AJNELSON_NIST__CASE_EXAMPLES_QC</title>
<path fill="none" stroke="black" d="M824.82,-383.6C876.05,-387.18 947.91,-392.2 1005.69,-396.24"/>
<polygon fill="black" stroke="black" points="1005.32,-399.72 1015.54,-396.92 1005.8,-392.74 1005.32,-399.72"/>
<text text-anchor="middle" x="945.5" y="-413.8" font-family="Times,serif" font-size="14.00">Git sub&#45;</text>
<text text-anchor="middle" x="945.5" y="-398.8" font-family="Times,serif" font-size="14.00">module</text>
</g>
<!-- _GH__CASEWORK__CASE_IMPLEMENTATON_PROV_O&#45;&gt;_GH__CASEWORK__CASE_CORPORA -->
<g id="edge6" class="edge">
<title>_GH__CASEWORK__CASE_IMPLEMENTATON_PROV_O&#45;&gt;_GH__CASEWORK__CASE_CORPORA</title>
<path fill="none" stroke="black" d="M1448.28,-468.23C1492.64,-468.53 1571.85,-469.07 1631.36,-469.47"/>
<polygon fill="black" stroke="black" points="1631.06,-472.97 1641.09,-469.54 1631.11,-465.97 1631.06,-472.97"/>
<text text-anchor="middle" x="1544.5" y="-472.8" font-family="Times,serif" font-size="14.00">PyPI</text>
</g>
<!-- _GH__KCHASON__CASE_VALIDATION_ACTION&#45;&gt;_GH__CASEWORK__CASE_IMPLEMENTATON_UFED_XML -->
<g id="edge19" class="edge">
<title>_GH__KCHASON__CASE_VALIDATION_ACTION&#45;&gt;_GH__CASEWORK__CASE_IMPLEMENTATON_UFED_XML</title>
<g id="a_edge19"><a xlink:href="https://github.com/casework/CASE-Implementation-UFED-XML/pull/5" xlink:title="GitHub\nAction\nTODO: PR 5">
<path fill="none" stroke="black" d="M765.15,-525.36C780.77,-571.24 826.45,-687.17 906,-746 1012.73,-824.93 1392.9,-868.11 1589.43,-885.61"/>
<polygon fill="black" stroke="black" points="1588.89,-889.07 1599.15,-886.47 1589.5,-882.1 1588.89,-889.07"/>
</a>
</g>
<g id="a_edge19&#45;label"><a xlink:href="https://github.com/casework/CASE-Implementation-UFED-XML/pull/5" xlink:title="GitHub\nAction\nTODO: PR 5">
<text text-anchor="middle" x="1258.5" y="-884.8" font-family="Times,serif" font-size="14.00">GitHub</text>
<text text-anchor="middle" x="1258.5" y="-869.8" font-family="Times,serif" font-size="14.00">Action</text>
<text text-anchor="middle" x="1258.5" y="-854.8" font-family="Times,serif" font-size="14.00">TODO: PR 5</text>
</a>
</g>
</g>
<!-- _GH__KCHASON__CASE_VALIDATION_ACTION&#45;&gt;_GH__CASEWORK__CASE_IMPLEMENTATON_PYPI_EXIFREAD -->
<g id="edge17" class="edge">
<title>_GH__KCHASON__CASE_VALIDATION_ACTION&#45;&gt;_GH__CASEWORK__CASE_IMPLEMENTATON_PYPI_EXIFREAD</title>
<path fill="none" stroke="black" d="M766.69,-525.45C784.45,-567.79 832.51,-668.57 906,-720 942.48,-745.52 959.26,-736.7 1003,-745 1099.35,-763.28 1124.11,-765.99 1222,-772 1254.38,-773.99 1262.61,-773.91 1295,-772 1393.43,-766.2 1504.35,-752.69 1586.58,-741.33"/>
<polygon fill="black" stroke="black" points="1586.82,-744.83 1596.24,-739.98 1585.85,-737.9 1586.82,-744.83"/>
<text text-anchor="middle" x="1258.5" y="-791.8" font-family="Times,serif" font-size="14.00">GitHub</text>
<text text-anchor="middle" x="1258.5" y="-776.8" font-family="Times,serif" font-size="14.00">Action</text>
</g>
<!-- _GH__KCHASON__CASE_VALIDATION_ACTION&#45;&gt;_GH__CASEWORK__CASE_IMPLEMENTATON_PYPI_PILLOW -->
<g id="edge18" class="edge">
<title>_GH__KCHASON__CASE_VALIDATION_ACTION&#45;&gt;_GH__CASEWORK__CASE_IMPLEMENTATON_PYPI_PILLOW</title>
<path fill="none" stroke="black" d="M769.51,-525.31C790.61,-562.38 841.68,-643.93 906,-690 943.26,-716.69 958.07,-715.97 1003,-725 1098.55,-744.19 1124.57,-733.55 1222,-736 1254.43,-736.81 1262.67,-738.68 1295,-736 1351.35,-731.34 1491.51,-706.97 1593.16,-688.51"/>
<polygon fill="black" stroke="black" points="1593.73,-691.96 1602.94,-686.73 1592.47,-685.07 1593.73,-691.96"/>
<text text-anchor="middle" x="1258.5" y="-756.8" font-family="Times,serif" font-size="14.00">GitHub</text>
<text text-anchor="middle" x="1258.5" y="-741.8" font-family="Times,serif" font-size="14.00">Action</text>
</g>
<!-- _GH__KCHASON__CASE_VALIDATION_ACTION&#45;&gt;_GH__CASEWORK__CASE_IMPLEMENTATON_XRY -->
<g id="edge20" class="edge">
<title>_GH__KCHASON__CASE_VALIDATION_ACTION&#45;&gt;_GH__CASEWORK__CASE_IMPLEMENTATON_XRY</title>
<path fill="none" stroke="black" d="M773.72,-525.24C808.1,-568.27 898.69,-671.08 1003,-704 1088.19,-730.89 1115.04,-712.12 1204,-704 1242.55,-700.48 1461.21,-658.93 1597.87,-632.58"/>
<polygon fill="black" stroke="black" points="1598.14,-636.09 1607.3,-630.76 1596.82,-629.21 1598.14,-636.09"/>
<text text-anchor="middle" x="1258.5" y="-720.8" font-family="Times,serif" font-size="14.00">GitHub</text>
<text text-anchor="middle" x="1258.5" y="-705.8" font-family="Times,serif" font-size="14.00">Action</text>
</g>
<!-- _GH__KCHASON__CASE_VALIDATION_ACTION&#45;&gt;_GH__CASEWORK__CASE_MAPPING_TEMPLATE_PYTHON -->
<g id="edge21" class="edge">
<title>_GH__KCHASON__CASE_VALIDATION_ACTION&#45;&gt;_GH__CASEWORK__CASE_MAPPING_TEMPLATE_PYTHON</title>
<path fill="none" stroke="black" d="M826.4,-520.06C851.3,-524.68 879.83,-529.33 906,-532 1151.17,-557.06 1440.46,-558.48 1596.16,-556.96"/>
<polygon fill="black" stroke="black" points="1596.12,-560.46 1606.08,-556.86 1596.05,-553.46 1596.12,-560.46"/>
<text text-anchor="middle" x="1258.5" y="-573.8" font-family="Times,serif" font-size="14.00">GitHub</text>
<text text-anchor="middle" x="1258.5" y="-558.8" font-family="Times,serif" font-size="14.00">Action</text>
</g>
<!-- _GH__KCHASON__CASE_VALIDATION_ACTION&#45;&gt;_GH__CASEWORK__CASE_BINDINGS_CSHARP_MONITOR -->
<g id="edge16" class="edge">
<title>_GH__KCHASON__CASE_VALIDATION_ACTION&#45;&gt;_GH__CASEWORK__CASE_BINDINGS_CSHARP_MONITOR</title>
<path fill="none" stroke="black" d="M764.99,-525.21C780.83,-573.34 828.04,-700.72 906,-778 1031.53,-902.43 1080.75,-964 1257.5,-964 1257.5,-964 1257.5,-964 1711,-964 1762.98,-964 1779.66,-970.48 1827,-949 1899.55,-916.08 1964.6,-846.3 1997.28,-807.15"/>
<polygon fill="black" stroke="black" points="1999.9,-809.48 2003.54,-799.53 1994.49,-805.03 1999.9,-809.48"/>
<text text-anchor="middle" x="1413.5" y="-982.8" font-family="Times,serif" font-size="14.00">GitHub</text>
<text text-anchor="middle" x="1413.5" y="-967.8" font-family="Times,serif" font-size="14.00">Action</text>
</g>
<!-- _GH__DOD_CYBER_CRIME_CENTER__SQLITE_DISSECT -->
<g id="node22" class="node">
<title>_GH__DOD_CYBER_CRIME_CENTER__SQLITE_DISSECT</title>
<g id="a_node22"><a xlink:href="https://github.com/dod-cyber-crime-center/sqlite-dissect" xlink:title="sqlite&#45;dissect\nadopts new case&#45;validation&#45;action">
<path fill="#8ec7d2" stroke="#0d6986" d="M1192,-695C1192,-695 1015,-695 1015,-695 1009,-695 1003,-689 1003,-683 1003,-683 1003,-669 1003,-669 1003,-663 1009,-657 1015,-657 1015,-657 1192,-657 1192,-657 1198,-657 1204,-663 1204,-669 1204,-669 1204,-683 1204,-683 1204,-689 1198,-695 1192,-695"/>
<text text-anchor="middle" x="1103.5" y="-679.8" font-family="Times,serif" font-size="14.00">sqlite&#45;dissect</text>
<text text-anchor="middle" x="1103.5" y="-664.8" font-family="Times,serif" font-size="14.00">adopts new case&#45;validation&#45;action</text>
</a>
</g>
</g>
<!-- _GH__KCHASON__CASE_VALIDATION_ACTION&#45;&gt;_GH__DOD_CYBER_CRIME_CENTER__SQLITE_DISSECT -->
<g id="edge22" class="edge">
<title>_GH__KCHASON__CASE_VALIDATION_ACTION&#45;&gt;_GH__DOD_CYBER_CRIME_CENTER__SQLITE_DISSECT</title>
<g id="a_edge22"><a xlink:href="https://github.com/dod-cyber-crime-center/sqlite-dissect/pull/31" xlink:title="TODO: PR 31">
<path fill="none" stroke="black" d="M798.07,-525.34C860.87,-556.42 984.2,-617.45 1053.05,-651.53"/>
<polygon fill="black" stroke="black" points="1051.33,-654.58 1061.85,-655.88 1054.44,-648.31 1051.33,-654.58"/>
</a>
</g>
<g id="a_edge22&#45;label"><a xlink:href="https://github.com/dod-cyber-crime-center/sqlite-dissect/pull/31" xlink:title="TODO: PR 31">
<text text-anchor="middle" x="945.5" y="-620.8" font-family="Times,serif" font-size="14.00">TODO: PR 31</text>
</a>
</g>
</g>
</g>
</svg>
